<?xml version="1.0" standalone="no"?>
<!DOCTYPE svg PUBLIC "-//W3C//DTD SVG 1.1//EN" "http://www.w3.org/Graphics/SVG/1.1/DTD/svg11.dtd" >
<svg xmlns="http://www.w3.org/2000/svg" xmlns:xlink="http://www.w3.org/1999/xlink" version="1.1">
<metadata>
Created by FontForge 20201107 at Fri Dec 22 17:53:33 2023
 By 
Copyright (c) 2020 WCYS &#38; Co. with Reserved Font Name "Hauora" and "Hauora Sans"
</metadata>
<defs>
<font id="Hauora-ExtraLight" horiz-adv-x="1173" >
  <font-face 
    font-family="Hauora ExtraLight"
    font-weight="200"
    font-stretch="normal"
    units-per-em="2048"
    panose-1="0 0 0 0 0 0 0 0 0 0"
    ascent="1638"
    descent="-410"
    x-height="1106"
    cap-height="1475"
    bbox="-410 -522 2585 2177.37"
    underline-thickness="51"
    underline-position="-127"
    unicode-range="U+000D-FB02"
  />
<missing-glyph horiz-adv-x="1515" 
d="M205 0v1475h1106v-1475h-1106zM344 1389l414 -578l413 578h-827zM291 1315v-1154l414 577zM811 738l414 -577v1154zM343 86h829l-414 579z" />
    <glyph glyph-name="parenleft_c_parenright.liga" unicode="&#x28;c&#x29;" horiz-adv-x="1736" 
d="M868 -10q-143 0 -273.5 55.5t-225 150t-150 225t-55.5 273.5t55.5 273.5t150 225t225 150.5t273.5 56q191 0 353.5 -94.5t257 -257t94.5 -353.5q0 -143 -56 -273.5t-150.5 -225t-225 -150t-273.5 -55.5zM868 80q125 0 238 48.5t195.5 131t131 196.5t48.5 240
q0 124 -48.5 238t-130.5 196t-196 130.5t-238 48.5q-126 0 -240 -48.5t-196.5 -131t-131 -195.5t-48.5 -238q0 -126 48.5 -240t131 -196.5t196.5 -131t240 -48.5zM872 266q-183 0 -288 131q-88 110 -88 301q4 190 88 297q105 131 293 131q114 0 198 -51q100 -62 133 -164
l-84 -28q-32 72 -100 118q-61 41 -150 41q-138 0 -217 -102q-67 -87 -67 -240q0 -156 67 -247q74 -103 215 -103q86 0 154 41q58 37 96 117l86 -31q-44 -98 -127 -153q-91 -58 -209 -58z" />
    <glyph glyph-name="space_less_three_space.liga" unicode="&#x20;&#x3c;&#x33;&#x20;" horiz-adv-x="2398" 
d="M1200 -31q-41 0 -65 27l-457 481q-55 59 -81 133.5t-23.5 146.5t29 141.5t72 122t112 84.5t141.5 32q135 0 272 -113q125 113 268 113q77 0 144 -32.5t112 -85.5t71.5 -123t28.5 -142t-24.5 -145.5t-81.5 -131.5l-456 -481q-24 -27 -62 -27zM1200 55l457 482
q50 54 70 124.5t6.5 137.5t-47 124.5t-92 92.5t-126.5 35q-137 0 -268 -146q-146 146 -272 146q-86 0 -152.5 -55t-95 -133t-14.5 -169t75 -157z" />
    <glyph glyph-name="f_f" unicode="ff" horiz-adv-x="1286" 
d="M262 0v1020h-201v86h201v125q0 134 66 205q66 69 202 69h144v-78h-133q-99 0 -146 -47t-47 -157v-117h506v125q0 134 66 205q66 69 202 69h144v-78h-133q-99 0 -146 -47t-47 -157v-117h326v-86h-326v-1020h-86v1020h-506v-1020h-86z" />
    <glyph glyph-name="f_f_l" unicode="ffl" horiz-adv-x="1781" 
d="M262 0v1020h-201v86h201v125q0 134 66 205q66 69 202 69h144v-78h-133q-99 0 -146 -47t-47 -157v-117h506v125q0 134 66 205q66 69 202 69h144v-78h-133q-99 0 -146 -47t-47 -157v-117h592v399h86v-1505h-86v1020h-592v-1020h-86v1020h-506v-1020h-86z" />
    <glyph glyph-name="t_t.liga" unicode="tt" horiz-adv-x="1429" 
d="M715 0q-87 -17 -164.5 -14t-143.5 39.5t-96 103.5q-5 11 -9 22t-7 20.5t-5 23t-3.5 21.5t-2.5 23.5t-1.5 22.5t-1 25.5t-0.5 24.5v27.5v27.5v653h-261v86h261v307h86v-307h567v307h86v-307h348v-86h-348v-653v-43.5v-40.5t1 -31.5t3.5 -32t6.5 -25t11 -26.5
q36 -71 117 -90.5t209 4.5v-82q-86 -17 -164 -14t-143.5 39.5t-95.5 103.5q-16 34 -23 77t-7.5 68t-0.5 93v653h-567v-653v-43.5v-40.5t1 -31.5t3.5 -32t6.5 -25t11 -26.5q36 -71 117 -90.5t209 4.5v-82z" />
    <glyph glyph-name="fi" unicode="fi" horiz-adv-x="1138" 
d="M262 0v1020h-201v86h201v125q0 134 66 205q66 69 202 69h144v-78h-133q-99 0 -146 -47t-47 -157v-117h326v-86h-326v-1020h-86zM932 1334q-32 0 -54 21.5t-22 53.5t22 54t54 22t54 -22t22 -54q0 -31 -22 -53t-54 -22zM889 0v1106h86v-1106h-86z" />
    <glyph glyph-name="fl" unicode="fl" horiz-adv-x="1189" 
d="M262 0v1020h-201v86h201v125q0 134 66 205q66 69 202 69h144v-78h-133q-99 0 -146 -47t-47 -157v-117h592v399h86v-1505h-86v1020h-592v-1020h-86z" />
    <glyph glyph-name="hyphen_hyphen.liga" unicode="&#x2d;&#x2d;" horiz-adv-x="1105" 
d="M123 602v86h860v-86h-860z" />
    <glyph glyph-name="hyphen_greater.liga" unicode="&#x2d;&#x3e;" horiz-adv-x="1687" 
d="M113 602v86h1306l-375 375l58 55l473 -473l-473 -473l-58 55l375 375h-1306z" />
    <glyph glyph-name="less_hyphen.liga" unicode="&#x3c;&#x2d;" horiz-adv-x="2035" 
d="M1575 602h-1307l375 -375l-57 -55l-473 473l473 473l57 -55l-375 -375h1307v-86z" />
    <glyph glyph-name=".notdef" horiz-adv-x="1515" 
d="M205 0v1475h1106v-1475h-1106zM344 1389l414 -578l413 578h-827zM291 1315v-1154l414 577zM811 738l414 -577v1154zM343 86h829l-414 579z" />
    <glyph glyph-name=".null" horiz-adv-x="1228" 
 />
    <glyph glyph-name="nonmarkingreturn" horiz-adv-x="2275" 
 />
    <glyph glyph-name="CR" unicode="&#xd;" horiz-adv-x="1228" 
 />
    <glyph glyph-name="space" unicode=" " horiz-adv-x="409" 
 />
    <glyph glyph-name="exclam" unicode="!" horiz-adv-x="577" 
d="M246 369v1106h86v-1106h-86zM289 -6q-32 0 -54 21.5t-22 53.5t22 53.5t54 21.5t54 -21.5t22 -53.5q0 -31 -22 -53t-54 -22z" />
    <glyph glyph-name="quotedbl" unicode="&#x22;" horiz-adv-x="700" 
d="M123 1106v369h86v-369h-86zM410 1106v369h86v-369h-86z" />
    <glyph glyph-name="numbersign" unicode="#" horiz-adv-x="1869" 
d="M444 0l125 473h-446l22 86h449l102 387h-446l22 86h449l117 443h90l-119 -443h403l117 443h90l-119 -443h447l-23 -86h-446l-104 -387h446l-23 -86h-446l-127 -473h-88l125 473h-402l-127 -473h-88zM682 559h403l103 387h-402z" />
    <glyph glyph-name="dollar" unicode="$" horiz-adv-x="1153" 
d="M535 -201v173q-186 18 -312.5 123t-161.5 272l82 16q37 -152 160.5 -240t300.5 -88q184 0 295 90.5t111 241.5q0 114 -66.5 180.5t-228.5 116.5l-309 96q-141 44 -215 130t-74 206q0 164 115.5 270.5t302.5 117.5v175h86v-176q188 -14 313.5 -129t150.5 -299l-81 -16
q-22 161 -140.5 260.5t-290.5 99.5q-161 0 -264.5 -84.5t-103.5 -216.5q0 -97 66 -162.5t208 -109.5l293 -90q169 -53 244.5 -140t75.5 -233q0 -185 -127.5 -297.5t-343.5 -116.5v-170h-86z" />
    <glyph glyph-name="percent" unicode="%" horiz-adv-x="1847" 
d="M492 768q-153 0 -261 108t-108 261q0 150 110 259t259 109q153 0 260.5 -107.5t107.5 -260.5t-108 -261t-260 -108zM246 0l-62 61l1418 1414l61 -60zM492 854q115 0 198.5 83.5t83.5 199.5q0 115 -83 198.5t-199 83.5t-199.5 -83.5t-83.5 -198.5t83.5 -199t199.5 -84z
M1356 -31q-153 0 -261 108t-108 261q0 150 110.5 259.5t258.5 109.5q152 0 260 -107.5t108 -261.5t-108 -261.5t-260 -107.5zM1356 55q115 0 198.5 83.5t83.5 199.5t-83.5 199.5t-198.5 83.5q-116 0 -199.5 -83.5t-83.5 -199.5t83.5 -199.5t199.5 -83.5z" />
    <glyph glyph-name="ampersand" unicode="&#x26;" horiz-adv-x="1310" 
d="M608 -31q-262 0 -397 144q-103 108 -109 276q-3 167 93 281q61 77 178 121q-99 99 -139.5 168t-40.5 169q0 106 50.5 194.5t139.5 133.5q98 49 219 49q169 0 275 -75q73 -49 114 -136l-80 -37q-26 61 -86 103q-85 59 -215 59q-102 0 -186 -41q-139 -71 -139 -245
q0 -68 20 -115t70 -107q24 -26 110 -104l531 -494q10 56 10 123l-2 240h92v-199q0 -153 -26 -233l194 -181l-59 -63l-176 166q-22 -39 -65 -76.5t-89 -62.5q-108 -58 -287 -58zM604 55q83 0 141.5 10.5t108.5 40.5q87 53 131 125l-539 492q-115 -32 -182 -111
q-72 -87 -69 -221q3 -136 79 -215q53 -60 141 -90.5t189 -30.5z" />
    <glyph glyph-name="quotesingle" unicode="'" horiz-adv-x="372" 
d="M123 1106v369h86v-369h-86z" />
    <glyph glyph-name="parenleft" unicode="(" horiz-adv-x="835" 
d="M680 -352q-184 208 -288.5 478t-104.5 550t104.5 550t288.5 478l63 -53q-177 -208 -275.5 -462t-98.5 -513q0 -256 100.5 -515.5t273.5 -457.5z" />
    <glyph glyph-name="parenright" unicode=")" horiz-adv-x="835" 
d="M156 -352l-64 55q173 198 274 457.5t101 515.5q0 259 -99 513t-276 462l64 53q184 -208 288.5 -478t104.5 -550t-104.5 -550t-288.5 -478z" />
    <glyph glyph-name="asterisk" unicode="*" horiz-adv-x="856" 
d="M231 834l-69 51l166 227l-267 86l27 82l266 -86v281h86v-281l267 86l26 -82l-266 -86l164 -227l-70 -51l-164 227z" />
    <glyph glyph-name="plus" unicode="+" horiz-adv-x="1167" 
d="M541 266v428h-428v86h428v428h86v-428h428v-86h-428v-428h-86z" />
    <glyph glyph-name="comma" unicode="," horiz-adv-x="491" 
d="M184 184h96l-126 -430h-68z" />
    <glyph glyph-name="hyphen" unicode="-" horiz-adv-x="860" 
d="M123 602v86h614v-86h-614z" />
    <glyph glyph-name="period" unicode="." horiz-adv-x="450" 
d="M225 -6q-32 0 -53.5 21.5t-21.5 53.5t21.5 53.5t53.5 21.5t54 -21.5t22 -53.5q0 -31 -22 -53t-54 -22z" />
    <glyph glyph-name="slash" unicode="/" horiz-adv-x="731" 
d="M516 1475h92l-393 -1475h-92z" />
    <glyph glyph-name="zero" unicode="0" horiz-adv-x="1183" 
d="M592 -31q-184 0 -316.5 132.5t-132.5 316.5v639q0 184 132 316t317 132q91 0 173.5 -35.5t143 -96t96 -143t35.5 -173.5v-639q0 -185 -132 -317t-316 -132zM592 55q149 0 255.5 107t106.5 256v639q0 149 -106.5 255.5t-255.5 106.5t-256 -106.5t-107 -255.5v-639
q0 -149 107 -256t256 -107z" />
    <glyph glyph-name="one" unicode="1" horiz-adv-x="733" 
d="M401 0v1374l-278 -166v101l278 166h86v-1475h-86z" />
    <glyph glyph-name="two" unicode="2" horiz-adv-x="1132" 
d="M102 0l2 86l691 629q88 79 118.5 155.5t30.5 178.5q0 154 -108.5 262t-262.5 108q-156 0 -263 -109.5t-107 -260.5h-86q0 189 133.5 322.5t322.5 133.5q126 0 231.5 -62.5t165.5 -167t60 -226.5q0 -126 -41.5 -219t-136.5 -179l-621 -565h799v-86h-928z" />
    <glyph glyph-name="three" unicode="3" horiz-adv-x="1093" 
d="M522 -31q-162 0 -278 80t-162 223l80 29q44 -122 138.5 -185.5t219.5 -60.5q172 4 265.5 107t93.5 280t-99 281t-264 104q-95 0 -190 -45l-52 70l559 537h-692v86h817v-89l-500 -477q223 28 368 -103.5t145 -363.5q0 -214 -123.5 -343.5t-325.5 -129.5z" />
    <glyph glyph-name="four" unicode="4" horiz-adv-x="1181" 
d="M817 0v313h-715v86l508 1076h95l-508 -1076h620v461h86v-461h176v-86h-176v-313h-86z" />
    <glyph glyph-name="five" unicode="5" horiz-adv-x="1171" 
d="M578 -31q-172 0 -302.5 103.5t-173.5 265.5l82 22q35 -137 146 -220t248 -83q171 0 288 120t117 286q0 112 -56 205.5t-149 146.5t-200 53q-114 0 -204 -53.5t-147 -148.5l-88 51l45 758h779v-86h-697l-35 -579q66 68 156.5 106t190.5 38q132 0 245 -66t179.5 -179
t66.5 -246q0 -131 -66 -245t-179.5 -181.5t-245.5 -67.5z" />
    <glyph glyph-name="six" unicode="6" horiz-adv-x="1269" 
d="M635 -31q-99 0 -190.5 39t-157.5 105t-105 157.5t-39 190.5v553q0 133 66 246t179 179t247 66q133 0 246.5 -66.5t177.5 -178.5l-74 -43q-53 92 -146 147t-204 55q-171 0 -288.5 -120t-117.5 -285v-281q70 101 176 160t230 59q133 0 246 -66t179 -179t66 -246t-66 -246.5
t-179 -179.5t-246 -66zM635 55q169 0 287 118.5t118 287.5t-118 287t-287 118t-287.5 -118t-118.5 -287t118.5 -287.5t287.5 -118.5z" />
    <glyph glyph-name="seven" unicode="7" horiz-adv-x="985" 
d="M225 0l566 1386h-709v89h801v-89l-566 -1386h-92z" />
    <glyph glyph-name="eight" unicode="8" horiz-adv-x="1144" 
d="M571 -31q-202 0 -325 116t-123 314q0 279 234 389q-97 41 -149 132t-52 202q0 178 115 280.5t300 102.5t300.5 -102.5t115.5 -280.5q0 -113 -52.5 -203.5t-151.5 -130.5q119 -57 179 -156.5t60 -232.5q0 -197 -124.5 -313.5t-326.5 -116.5zM571 829q149 0 236.5 76
t87.5 217t-87.5 216t-236.5 75t-236 -75t-87 -216q0 -142 87.5 -217.5t235.5 -75.5zM571 55q163 0 261 90.5t98 253.5q0 166 -96.5 255t-262.5 89t-262 -89t-96 -255q0 -163 97.5 -253.5t260.5 -90.5z" />
    <glyph glyph-name="nine" unicode="9" horiz-adv-x="1269" 
d="M635 1505q133 0 246 -66t179 -179t66 -246v-553q0 -100 -39 -190.5t-104.5 -157t-156.5 -105.5t-191 -39q-133 0 -246.5 67t-177.5 179l74 43q54 -93 147 -148t203 -55q171 0 288 120.5t117 285.5v280q-70 -101 -175.5 -160t-229.5 -59q-99 0 -190.5 39t-157.5 105
t-105 157.5t-39 190.5q0 133 66 246t179.5 179t246.5 66zM635 1419q-169 0 -287.5 -118t-118.5 -287t118.5 -287.5t287.5 -118.5t287 118.5t118 287.5t-118 287t-287 118z" />
    <glyph glyph-name="colon" unicode=":" horiz-adv-x="552" 
d="M287 793q-32 0 -54 21.5t-22 52.5q0 32 22 54t54 22t53.5 -22t21.5 -54q0 -31 -21.5 -52.5t-53.5 -21.5zM287 178q-32 0 -54 21.5t-22 53.5t22 54t54 22t53.5 -22t21.5 -54q0 -31 -22 -53t-53 -22z" />
    <glyph glyph-name="semicolon" unicode=";" horiz-adv-x="573" 
d="M287 977q-32 0 -54 21.5t-22 53.5t22 53.5t54 21.5t53.5 -21.5t21.5 -53.5t-22 -53.5t-53 -21.5zM274 184h96l-126 -430h-68z" />
    <glyph glyph-name="less" unicode="&#x3c;" horiz-adv-x="1167" 
d="M1055 340l-942 356v82l942 357v-95l-807 -303l807 -303v-94z" />
    <glyph glyph-name="equal" unicode="=" horiz-adv-x="1168" 
d="M113 856v86h942v-86h-942zM114 532v86h942v-86h-942z" />
    <glyph glyph-name="greater" unicode="&#x3e;" horiz-adv-x="1167" 
d="M113 340v94l807 303l-807 303v95l942 -357v-82z" />
    <glyph glyph-name="question" unicode="?" horiz-adv-x="1032" 
d="M446 403v32.5v31.5t0.5 27.5t1 28t2 24.5t3.5 26t5 23t7.5 25t9.5 23t12 26q23 42 62 81t75.5 63.5t79.5 57t68 58.5q66 76 66 194q0 125 -66 197q-85 98 -260 98q-169 0 -252 -92q-72 -72 -72 -201h-86q0 162 95 260q116 119 319 119q208 0 318 -119q96 -102 96 -264
q0 -158 -94 -252q-28 -30 -88 -72.5t-110.5 -84t-72.5 -84.5q-10 -19 -16 -38t-8 -44t-2.5 -40.5t0 -51t0.5 -52.5h-93zM493 -6q-32 0 -54 21.5t-22 53.5t22 53.5t54 21.5t53.5 -21.5t21.5 -53.5q0 -31 -22 -53t-53 -22z" />
    <glyph glyph-name="at" unicode="@" horiz-adv-x="1837" 
d="M926 -215q-210 0 -384.5 100t-276 276.5t-101.5 391.5q0 156 54.5 295.5t153 244.5t246 166.5t322.5 61.5q150 0 276 -42.5t213 -114.5t145.5 -167.5t82 -203t14.5 -218.5q-15 -183 -97.5 -275.5t-213.5 -92.5q-86 0 -148 34.5t-91 97.5q-35 -47 -95 -71t-127 -24
q-124 0 -199 77t-75 201q0 128 76.5 204.5t199.5 76.5q129 0 205 -76v47h80v-297q0 -82 44 -133t140 -51q87 0 145.5 71t65.5 195q12 201 -64 354.5t-226 237.5t-351 84q-127 0 -238 -38t-191.5 -103.5t-138.5 -152.5t-87 -186.5t-29 -203.5q0 -138 53.5 -264t144 -217
t216 -145t262.5 -54q104 0 208 29.5t181 81.5l37 -70q-196 -127 -432 -127zM903 332q88 0 139.5 50.5t51.5 141.5q0 94 -52.5 144.5t-138.5 50.5q-92 0 -142 -50.5t-50 -144.5q0 -95 51 -143.5t141 -48.5z" />
    <glyph glyph-name="A" unicode="A" horiz-adv-x="1247" 
d="M41 0l537 1475h92l536 -1475h-92l-139 383h-703l-139 -383h-92zM302 465h643l-322 886z" />
    <glyph glyph-name="B" unicode="B" horiz-adv-x="1230" 
d="M143 0v1475h559q164 0 280 -102.5t116 -260.5q0 -101 -51.5 -189t-138.5 -138q124 -55 193.5 -153.5t69.5 -234.5q0 -184 -122 -290.5t-308 -106.5h-598zM229 819h473q125 0 214.5 87t89.5 212q0 121 -87 197t-217 76h-473v-572zM229 86h471q165 0 271 81t106 222
q0 144 -98.5 245t-237.5 101h-512v-649z" />
    <glyph glyph-name="C" unicode="C" horiz-adv-x="1433" 
d="M723 -31q-162 0 -288.5 56.5t-208 158.5t-123.5 242.5t-42 310.5t42 310.5t123.5 242.5t208 158.5t288.5 56.5q251 0 411.5 -131t217.5 -362l-90 -21q-51 201 -188 314.5t-351 113.5q-139 0 -247.5 -50t-178 -141.5t-105.5 -215.5t-38 -275q-2 -202 60.5 -354t193 -240
t315.5 -88q214 0 351 113.5t188 314.5l90 -20q-57 -231 -217.5 -362.5t-411.5 -131.5z" />
    <glyph glyph-name="D" unicode="D" horiz-adv-x="1335" 
d="M143 0v1475h432q118 0 197 -11q119 -17 212 -80t151 -160t88 -220.5t30 -266.5q0 -194 -51 -346.5t-161.5 -255t-268.5 -125.5q-70 -10 -197 -10h-432zM236 86h339q115 0 183 12q107 18 185.5 72.5t125.5 140t69.5 191.5t22.5 235t-22.5 235t-69.5 191.5t-125.5 140
t-185.5 72.5q-73 13 -183 13h-339v-1303z" />
    <glyph glyph-name="E" unicode="E" horiz-adv-x="1146" 
d="M143 0v1475h901v-86h-815v-609h693v-86h-693v-608h815v-86h-901z" />
    <glyph glyph-name="F" unicode="F" horiz-adv-x="1003" 
d="M143 0v1475h820v-86h-734v-609h611v-86h-611v-694h-86z" />
    <glyph glyph-name="G" unicode="G" horiz-adv-x="1406" 
d="M723 -31q-162 0 -288.5 56.5t-208 158.5t-123.5 242.5t-42 310.5t42 310t123.5 242t208 158t288.5 56q204 0 346.5 -96t204.5 -258l-84 -35q-55 141 -176 222t-291 81q-139 0 -247.5 -50t-178 -141t-105.5 -214.5t-38 -274.5q-2 -202 60.5 -354t193 -240t315.5 -88
q139 0 242 43t165.5 123t92.5 187t30 243h-536v86h624q5 -49 5 -88q0 -117 -22.5 -218.5t-71.5 -187t-121 -146t-176 -94.5t-232 -34z" />
    <glyph glyph-name="H" unicode="H" horiz-adv-x="1351" 
d="M143 0v1475h86v-695h893v695h86v-1475h-86v694h-893v-694h-86z" />
    <glyph glyph-name="I" unicode="I" horiz-adv-x="413" 
d="M164 0v1475h86v-1475h-86z" />
    <glyph glyph-name="J" unicode="J" horiz-adv-x="899" 
d="M367 -29q-134 0 -235 78t-132 207l88 20q24 -96 101 -157.5t182 -61.5q72 0 137 32.5t102 100.5q18 32 26 73t9.5 72.5t1.5 98.5v1041h86v-1041q0 -136 -9 -183q-10 -57 -38 -106q-49 -85 -132.5 -129.5t-186.5 -44.5z" />
    <glyph glyph-name="K" unicode="K" horiz-adv-x="1142" 
d="M143 0v1475h86v-773l730 773h118l-600 -635l666 -840h-118l-609 775l-187 -196v-579h-86z" />
    <glyph glyph-name="L" unicode="L" horiz-adv-x="1013" 
d="M164 0v1475h86v-1389h733v-86h-819z" />
    <glyph glyph-name="M" unicode="M" horiz-adv-x="1701" 
d="M143 0v1475h82l627 -1371l621 1371h86v-1473h-86v1266l-574 -1268h-96l-574 1268v-1268h-86z" />
    <glyph glyph-name="N" unicode="N" horiz-adv-x="1355" 
d="M143 0v1475h86l897 -1321v1321h86v-1475h-86l-897 1323v-1323h-86z" />
    <glyph glyph-name="O" unicode="O" horiz-adv-x="1445" 
d="M723 -31q-162 0 -288.5 56.5t-208 158.5t-123.5 242.5t-42 310.5t42 310.5t123.5 242.5t208 158.5t288.5 56.5t288.5 -56.5t207.5 -159t123 -242t42 -310.5t-42 -310.5t-123 -242t-207.5 -159t-288.5 -56.5zM723 55q139 0 248 50t179 141.5t106 215.5t36 275t-36 275
t-106 215.5t-179 141.5t-248 50t-247.5 -50t-178 -141.5t-105.5 -215.5t-38 -275q-2 -202 60.5 -354t193 -240t315.5 -88z" />
    <glyph glyph-name="P" unicode="P" horiz-adv-x="1189" 
d="M143 0v1475h543q38 0 94 -9q158 -24 253 -145t95 -289t-95 -289t-253 -145q-49 -8 -94 -8h-457v-590h-86zM229 676h457q46 0 90 8q123 24 191.5 121t68.5 227t-68.5 227t-191.5 121q-50 9 -90 9h-457v-713z" />
    <glyph glyph-name="Q" unicode="Q" horiz-adv-x="1445" 
d="M723 -31q-162 0 -288.5 56.5t-208 158.5t-123.5 242.5t-42 310.5t42 310.5t123.5 242.5t208 158.5t288.5 56.5t288.5 -56.5t207.5 -159t123 -242t42 -310.5q0 -349 -162 -550l148 -148l-65 -68l-149 148q-167 -150 -433 -150zM723 55q226 0 368 128l-161 161l67 68
l158 -158q137 181 137 483q0 151 -36 275t-106 215.5t-179 141.5t-248 50t-247.5 -50t-178 -141.5t-105.5 -215.5t-38 -275q-2 -202 60.5 -354t193 -240t315.5 -88z" />
    <glyph glyph-name="R" unicode="R" horiz-adv-x="1251" 
d="M143 0v1475h543q38 0 94 -9q158 -24 253 -137t95 -266q0 -147 -88 -256.5t-236 -141.5l344 -665h-102l-336 652q-8 -1 -24 -1h-457v-651h-86zM229 737h457q46 0 90 8q122 23 191 113.5t69 204.5t-68.5 203.5t-191.5 113.5q-50 9 -90 9h-457v-652z" />
    <glyph glyph-name="S" unicode="S" horiz-adv-x="1206" 
d="M633 -31q-224 0 -378 107.5t-194 290.5l86 16q40 -152 170 -240t316 -88q194 0 311 90.5t117 239.5q0 57 -20 103.5t-45.5 74.5t-67.5 51.5t-69 33.5t-66 22l-369 110q-305 90 -305 338q0 170 134 278.5t347 108.5q217 0 364 -117.5t175 -312.5l-86 -16
q-22 161 -147 260.5t-306 99.5q-171 0 -280 -85.5t-109 -213.5q0 -42 12.5 -78t37 -62.5t50 -46.5t64 -36.5t65.5 -25.5t66 -21l305 -92q31 -9 52 -16t59 -24t65 -35t59 -47.5t52 -64t33.5 -82.5t13.5 -104q0 -190 -139 -303t-373 -113z" />
    <glyph glyph-name="T" unicode="T" horiz-adv-x="1208" 
d="M561 0v1389h-541v86h1168v-86h-541v-1389h-86z" />
    <glyph glyph-name="U" unicode="U" horiz-adv-x="1413" 
d="M707 -31q-248 0 -406 152.5t-158 400.5v953h86v-924q0 -105 31 -191.5t80.5 -142.5t113.5 -94.5t127.5 -55t125.5 -16.5t125.5 16.5t127.5 55t113 94.5t80 142.5t31 191.5v924h86v-953q0 -247 -157.5 -400t-405.5 -153z" />
    <glyph glyph-name="V" unicode="V" horiz-adv-x="1185" 
d="M547 0l-537 1475h92l490 -1350l491 1350h93l-537 -1475h-92z" />
    <glyph glyph-name="W" unicode="W" horiz-adv-x="1861" 
d="M463 0l-422 1475h88l379 -1319l377 1319h90l379 -1319l377 1319h90l-422 -1475h-90l-379 1317l-377 -1317h-90z" />
    <glyph glyph-name="X" unicode="X" 
d="M20 0l519 748l-506 727h102l451 -658l452 658h103l-506 -727l518 -748h-102l-465 676l-463 -676h-103z" />
    <glyph glyph-name="Y" unicode="Y" horiz-adv-x="1062" 
d="M489 0v627l-489 848h98l434 -750l433 750h98l-488 -848v-627h-86z" />
    <glyph glyph-name="Z" unicode="Z" horiz-adv-x="1189" 
d="M102 0v31l859 1358h-859v86h985v-35l-854 -1356h854v-84h-985z" />
    <glyph glyph-name="bracketleft" unicode="[" horiz-adv-x="811" 
d="M287 -455v2261h340v-86h-254v-2089h254v-86h-340z" />
    <glyph glyph-name="backslash" unicode="\" horiz-adv-x="731" 
d="M215 1475l393 -1475h-92l-393 1475h92z" />
    <glyph glyph-name="bracketright" unicode="]" horiz-adv-x="811" 
d="M524 -455h-340v86h254v2089h-254v86h340v-2261z" />
    <glyph glyph-name="asciicircum" unicode="^" horiz-adv-x="1355" 
d="M216 1005l472 474l474 -473l-59 -62l-415 414l-413 -415z" />
    <glyph glyph-name="underscore" unicode="_" horiz-adv-x="1351" 
d="M0 -197v86h1352v-86h-1352z" />
    <glyph glyph-name="grave" unicode="`" horiz-adv-x="935" 
d="M462 1935l67 -276h-67l-98 276h98z" />
    <glyph glyph-name="a" unicode="a" horiz-adv-x="1110" 
d="M465 -31q-184 0 -283.5 93t-99.5 231q0 70 24 126t67.5 93t95 60t114.5 36q135 27 518 72q2 191 -77 281t-263 90q-275 0 -342 -252l-94 24q37 153 150.5 233.5t289.5 80.5q151 0 255 -62t141 -170q26 -79 26 -213v-692h-80v202q-63 -112 -178.5 -172.5t-263.5 -60.5z
M461 55q180 0 294.5 96.5t137.5 266.5q8 57 8 178q-352 -31 -500 -68q-43 -11 -79 -27t-72 -43t-57 -70t-21 -97q0 -43 15 -82.5t46.5 -75t90.5 -57t137 -21.5z" />
    <glyph glyph-name="b" unicode="b" horiz-adv-x="1179" 
d="M143 0v1475h86v-583q59 117 161.5 181t242.5 64q144 0 251 -78t160.5 -208.5t53.5 -295.5q0 -168 -54 -299t-165 -209t-263 -78q-135 0 -235.5 69t-157.5 191v-229h-80zM616 55q186 0 288 139t102 361q0 145 -41.5 254.5t-131 175.5t-217.5 66q-188 0 -290.5 -136
t-102.5 -360q0 -145 43 -256.5t133.5 -177.5t216.5 -66z" />
    <glyph glyph-name="c" unicode="c" horiz-adv-x="1103" 
d="M588 -31q-241 0 -371 158.5t-135 425.5q5 271 135 427.5t371 156.5q154 0 273.5 -74t170.5 -201l-82 -35q-46 106 -141.5 165t-220.5 59q-103 0 -181.5 -36t-129 -102.5t-76 -157t-27.5 -202.5q3 -232 109 -365t305 -133q123 0 216 56.5t144 164.5l84 -36
q-140 -271 -444 -271z" />
    <glyph glyph-name="d" unicode="d" horiz-adv-x="1179" 
d="M563 -31q-152 0 -262.5 78t-164.5 209t-54 299q0 165 53.5 295.5t160.5 208.5t251 78q139 0 241.5 -64t161.5 -181v583h86v-1475h-80v229q-57 -122 -157.5 -191t-235.5 -69zM563 55q126 0 216.5 66t133.5 177.5t43 256.5q0 224 -102.5 360t-290.5 136q-97 0 -172 -37.5
t-122 -104.5t-71 -156.5t-24 -197.5q0 -145 43 -256.5t132 -177.5t214 -66z" />
    <glyph glyph-name="e" unicode="e" 
d="M588 -31q-235 0 -370.5 157t-135.5 427q0 272 135 428t371 156q238 0 371 -160.5t133 -448.5h-918q6 -225 114.5 -349t299.5 -124q136 0 239.5 64t165.5 186l72 -41q-68 -141 -192 -218t-285 -77zM588 1051q-184 0 -291 -114t-121 -323h820q-18 212 -122.5 324.5
t-285.5 112.5z" />
    <glyph glyph-name="f" unicode="f" horiz-adv-x="694" 
d="M262 0v1020h-201v86h201v125q0 134 66 205q66 69 202 69h144v-78h-133q-99 0 -146 -47t-47 -157v-117h326v-86h-326v-1020h-86z" />
    <glyph glyph-name="g" unicode="g" horiz-adv-x="1179" 
d="M563 -31q-152 0 -262.5 78t-164.5 209t-54 299q0 165 53.5 295.5t160.5 208.5t251 78t247.5 -67.5t161.5 -189.5v226h80v-1045q0 -114 -10 -190q-25 -202 -136.5 -297.5t-324.5 -95.5q-134 0 -249 58t-185 188l76 51q52 -107 149 -158t209 -51q110 0 185 30.5t118 95
t61.5 153t18.5 216.5v152q-59 -115 -157 -179.5t-228 -64.5zM563 55q126 0 216.5 66t133.5 177.5t43 256.5q0 224 -102.5 360t-290.5 136q-97 0 -172 -37.5t-122 -104.5t-71 -156.5t-24 -197.5q0 -145 43 -256.5t132 -177.5t214 -66z" />
    <glyph glyph-name="h" unicode="h" 
d="M143 0v1475h80v-548q59 103 157.5 153t221.5 50q210 0 329.5 -141t119.5 -387v-602h-86v586q0 232 -94 346.5t-269 114.5q-98 0 -171.5 -35t-116.5 -97.5t-64 -140.5t-21 -170v-604h-86z" />
    <glyph glyph-name="i" unicode="i" horiz-adv-x="413" 
d="M207 1334q-32 0 -54 21.5t-22 53.5t22 54t54 22t54 -22t22 -54q0 -31 -22 -53t-54 -22zM164 0v1106h86v-1106h-86z" />
    <glyph glyph-name="j" unicode="j" horiz-adv-x="460" 
d="M254 1334q-32 0 -54 21.5t-22 53.5t22 54t54 22t54 -22t22 -54q0 -31 -22 -53t-54 -22zM-20 -492v89h69q72 0 117 39t45 128v1342h86v-1331q0 -141 -58.5 -204t-191.5 -63h-67z" />
    <glyph glyph-name="k" unicode="k" horiz-adv-x="958" 
d="M143 0v1475h86v-889l564 520h118l-512 -473l535 -633h-120l-482 570l-103 -94v-476h-86z" />
    <glyph glyph-name="l" unicode="l" horiz-adv-x="413" 
d="M164 0v1505h86v-1505h-86z" />
    <glyph glyph-name="m" unicode="m" horiz-adv-x="1667" 
d="M143 0v1106h80v-115q50 69 129 107.5t176 38.5q106 0 193.5 -49t130.5 -145q45 92 132.5 143t199.5 51q159 0 259.5 -100t100.5 -269l-2 -768h-86l2 762q0 135 -79.5 216t-200.5 81q-53 0 -101.5 -17t-92.5 -52.5t-70.5 -101t-26.5 -153.5l-2 -735h-84l2 748
q0 141 -79 226t-206 85q-130 0 -209.5 -88.5t-79.5 -235.5v-735h-86z" />
    <glyph glyph-name="n" unicode="n" 
d="M143 0v1106h80v-179q59 103 157.5 153t221.5 50q210 0 329.5 -141t119.5 -387v-602h-86v586q0 232 -94 346.5t-269 114.5q-98 0 -171.5 -35t-116.5 -97.5t-64 -140.5t-21 -170v-604h-86z" />
    <glyph glyph-name="o" unicode="o" horiz-adv-x="1175" 
d="M588 -31q-161 0 -276 75t-172.5 206.5t-57.5 304.5q0 265 134 423.5t372 158.5q242 0 374 -159.5t132 -422.5q0 -268 -133 -427t-373 -159zM588 55q203 0 308 135t105 365q0 231 -105.5 363.5t-307.5 132.5q-204 0 -309 -134.5t-105 -361.5q0 -231 107 -365.5t307 -134.5
z" />
    <glyph glyph-name="p" unicode="p" horiz-adv-x="1179" 
d="M143 -492v1598h80v-226q58 122 162 189.5t248 67.5t251 -78t160.5 -208.5t53.5 -295.5q0 -168 -54 -299t-165 -209t-263 -78q-132 0 -230.5 65.5t-156.5 182.5v-709h-86zM616 55q186 0 288 139t102 361q0 145 -41.5 254.5t-131 175.5t-217.5 66q-188 0 -290.5 -136
t-102.5 -360q0 -145 43 -256.5t133.5 -177.5t216.5 -66z" />
    <glyph glyph-name="q" unicode="q" horiz-adv-x="1179" 
d="M563 -31q-152 0 -262.5 78t-164.5 209t-54 299q0 165 53.5 295.5t160.5 208.5t251 78t247.5 -67.5t161.5 -189.5v226h80v-1598h-86v709q-58 -117 -156.5 -182.5t-230.5 -65.5zM563 55q126 0 216.5 66t133.5 177.5t43 256.5q0 224 -102.5 360t-290.5 136q-97 0 -172 -37.5
t-122 -104.5t-71 -156.5t-24 -197.5q0 -145 43 -256.5t132 -177.5t214 -66z" />
    <glyph glyph-name="r" unicode="r" horiz-adv-x="686" 
d="M143 0v1106h80v-173q27 50 70 91q65 63 169 85.5t173 -3.5v-82q-177 38 -289 -66q-34 -31 -57 -73.5t-34.5 -78.5t-17.5 -90t-7 -85t-1 -86v-545h-86z" />
    <glyph glyph-name="s" unicode="s" horiz-adv-x="1052" 
d="M547 -29q-188 0 -312 78.5t-153 216.5l88 17q28 -103 130 -164.5t249 -61.5q151 0 239.5 65t88.5 175q0 63 -28.5 100t-101.5 68t-229 74q-161 44 -246 84t-121 90t-36 125q0 132 114 215.5t295 83.5q183 0 308.5 -89.5t138.5 -230.5l-88 -16q-20 115 -118.5 182.5
t-246.5 67.5q-138 2 -225.5 -56.5t-87.5 -152.5q0 -78 71 -125t267 -96q169 -43 259.5 -86t128.5 -99t38 -143q0 -151 -112.5 -236.5t-309.5 -85.5z" />
    <glyph glyph-name="t" unicode="t" horiz-adv-x="776" 
d="M715 0q-87 -17 -164.5 -14t-143.5 39.5t-96 103.5q-5 11 -9 22t-7 20.5t-5 23t-3.5 21.5t-2.5 23.5t-1.5 22.5t-1 25.5t-0.5 24.5v27.5v27.5v653h-261v86h261v307h86v-307h348v-86h-348v-653v-43.5v-40.5t1 -31.5t3.5 -32t6.5 -25t11 -26.5q36 -71 117 -90.5t209 4.5v-82
z" />
    <glyph glyph-name="u" unicode="u" 
d="M571 -25q-210 0 -329 141t-119 388v602h86v-586q0 -232 93.5 -346.5t268.5 -114.5q98 0 171.5 35t116.5 97.5t64 140.5t21 170v604h86v-1106h-80v179q-59 -103 -158 -153.5t-221 -50.5z" />
    <glyph glyph-name="v" unicode="v" horiz-adv-x="978" 
d="M442 0l-401 1106h90l358 -981l357 981h92l-401 -1106h-95z" />
    <glyph glyph-name="w" unicode="w" horiz-adv-x="1523" 
d="M379 0l-338 1106h90l293 -959l293 959h90l293 -959l295 959h88l-338 -1106h-90l-293 961l-293 -961h-90z" />
    <glyph glyph-name="x" unicode="x" horiz-adv-x="1042" 
d="M20 0l451 559l-440 547h106l385 -483l383 483h107l-441 -547l451 -559h-109l-391 496l-393 -496h-109z" />
    <glyph glyph-name="y" unicode="y" horiz-adv-x="1036" 
d="M309 -492l183 491l-451 1107h94l400 -988l358 988h92l-579 -1598h-97z" />
    <glyph glyph-name="z" unicode="z" horiz-adv-x="1079" 
d="M41 0v31l799 985h-750v90h907v-35l-798 -981h749v-90h-907z" />
    <glyph glyph-name="braceleft" unicode="{" horiz-adv-x="818" 
d="M615 -455q-89 0 -152 62.5t-63 150.5v703q0 38 -22 74l-84 116q-8 11 -8 25t8 24l84 117q22 36 22 74v700q0 89 63 152t152 63h111v-86h-111q-54 0 -91.5 -37.5t-37.5 -91.5v-700q0 -70 -39 -123l-65 -92l65 -92q39 -53 39 -123v-703q0 -53 37.5 -90t91.5 -37h111v-86
h-111z" />
    <glyph glyph-name="bar" unicode="|" horiz-adv-x="454" 
d="M184 0v1475h86v-1475h-86z" />
    <glyph glyph-name="braceright" unicode="}" horiz-adv-x="818" 
d="M203 -455h-111v86h111q54 0 91.5 37t37.5 90v703q0 70 39 123l65 92l-65 92q-39 53 -39 123v700q0 54 -37.5 91.5t-91.5 37.5h-111v86h111q89 0 152 -63t63 -152v-700q0 -38 22 -74l84 -117q8 -10 8 -24t-8 -25l-84 -116q-22 -36 -22 -74v-703q0 -88 -63 -150.5
t-152 -62.5z" />
    <glyph glyph-name="asciitilde" unicode="~" horiz-adv-x="1282" 
d="M842 516q-51 0 -111 21.5t-106 47.5t-99.5 47.5t-91.5 21.5q-57 0 -75.5 -39.5t-2.5 -84.5h-103q-26 99 29 169.5t155 70.5q52 0 113 -21.5t107 -48t99.5 -48t91.5 -21.5q52 0 74 39.5t4 90.5h103q26 -98 -29 -171.5t-158 -73.5z" />
    <glyph glyph-name="uni00A0" unicode="&#xa0;" horiz-adv-x="409" 
 />
    <glyph glyph-name="exclamdown" unicode="&#xa1;" horiz-adv-x="577" 
d="M289 1112q32 0 54 -22t22 -53q0 -32 -22 -53.5t-54 -21.5t-54 21.5t-22 53.5t22 53.5t54 21.5zM246 737h86v-1106h-86v1106z" />
    <glyph glyph-name="cent" unicode="&#xa2;" horiz-adv-x="1103" 
d="M547 -61v186q-222 13 -341 169.5t-124 412.5q5 260 124 414t341 167v187h86v-187q139 -11 245.5 -82.5t153.5 -189.5l-82 -35q-46 105 -141.5 164t-220.5 59q-203 0 -307 -133.5t-107 -363.5q3 -232 109 -365t305 -133q123 0 216 56.5t144 164.5l84 -37
q-131 -250 -399 -268v-186h-86z" />
    <glyph glyph-name="sterling" unicode="&#xa3;" horiz-adv-x="1169" 
d="M61 0v86h156q59 0 100 41t41 100v484h-297v86h297v329q0 168 104 273.5t263 105.5q134 0 228.5 -88t154.5 -268l-82 -27q-51 154 -124 225.5t-179 71.5q-126 0 -202.5 -80t-76.5 -213v-329h414v-86h-414v-625h637v-86h-1020z" />
    <glyph glyph-name="currency" unicode="&#xa4;" horiz-adv-x="1273" 
d="M123 164l-62 61l166 166q-127 151 -127 348q0 195 127 346l-166 166l62 60l165 -165q151 130 349 130t350 -129l164 164l61 -60l-164 -165q128 -150 128 -347q0 -199 -128 -349l164 -165l-61 -61l-165 165q-150 -128 -349 -128q-196 0 -348 129zM637 287q92 0 176 36.5
t144.5 97t96.5 143.5t36 173q0 186 -134.5 319.5t-318.5 133.5q-187 0 -319 -132.5t-132 -320.5q0 -90 35.5 -173t96 -144t144 -97t175.5 -36z" />
    <glyph glyph-name="yen" unicode="&#xa5;" horiz-adv-x="1062" 
d="M164 250v86h325v188h-325v86h325v17l-489 848h98l434 -750l433 750h98l-488 -848v-17h326v-86h-326v-188h326v-86h-326v-250h-86v250h-325z" />
    <glyph glyph-name="brokenbar" unicode="&#xa6;" horiz-adv-x="454" 
d="M184 770v705h86v-705h-86zM184 -254v705h86v-705h-86z" />
    <glyph glyph-name="section" unicode="&#xa7;" horiz-adv-x="1052" 
d="M555 -336q-72 0 -139 16.5t-127.5 50.5t-104.5 92.5t-61 135.5l88 16q16 -59 54 -104.5t88 -70.5t101.5 -37.5t102.5 -12.5q125 0 212 64t87 176q0 42 -15 74t-40.5 54t-71 41t-94 33.5t-121.5 34.5q-10 2 -16 4q-54 15 -84.5 23.5t-75.5 23t-70 27t-57.5 30t-50 36
t-35 42.5t-24.5 53.5t-7 63.5q0 110 72.5 181t184.5 89q-107 39 -161.5 94.5t-54.5 147.5q0 95 58.5 165t143.5 102t181 32q162 0 279.5 -90t132.5 -229l-88 -16q-12 68 -48.5 118.5t-85.5 77.5t-99 40t-101 13q-117 0 -200 -58.5t-83 -149.5q0 -33 11 -59.5t36.5 -48
t50 -36.5t71 -30t78.5 -24t91 -24q66 -17 101 -26.5t88 -27t81.5 -33t63 -40t51.5 -52t29 -65t12 -83.5q0 -107 -54.5 -179t-143.5 -92q77 -38 117 -95t40 -146q0 -102 -53.5 -176.5t-141 -110t-198.5 -35.5zM522 313q102 -26 166 -46q88 18 148.5 79.5t60.5 155.5
q0 42 -15 74t-40.5 54t-71 41t-94 33.5t-121.5 34.5q-10 2 -16 4q-55 15 -105 30q-113 -34 -181.5 -95t-68.5 -143q0 -33 11 -59.5t36.5 -48t50 -36.5t71 -30t78.5 -24t91 -24z" />
    <glyph glyph-name="dieresis" unicode="&#xa8;" horiz-adv-x="983" 
d="M676 1707q-32 0 -54 21.5t-22 53.5t22 54t54 22t54 -22t22 -54q0 -31 -22 -53t-54 -22zM307 1707q-32 0 -54 21.5t-22 53.5t22 54t54 22t54 -22t22 -54q0 -31 -22 -53t-54 -22z" />
    <glyph glyph-name="copyright" unicode="&#xa9;" horiz-adv-x="1531" 
d="M766 -10q-143 0 -273.5 55.5t-225 150t-150.5 225t-56 273.5q0 191 94.5 353.5t257 257t353.5 94.5q143 0 273.5 -56t225 -150.5t150 -225t55.5 -273.5t-55.5 -273.5t-150 -225t-225 -150t-273.5 -55.5zM766 80q166 0 307 82t223 224t82 310q0 166 -82 307.5t-223 223.5
t-307 82q-126 0 -240 -48.5t-196.5 -131t-131 -195.5t-48.5 -238q0 -126 48.5 -240t131 -196.5t196.5 -131t240 -48.5zM770 266q-184 0 -289 131q-88 110 -88 301q4 190 88 297q105 131 293 131q115 0 199 -51q100 -62 133 -164l-84 -28q-32 72 -100 118q-61 41 -150 41
q-138 0 -217 -102q-68 -88 -68 -240q0 -155 68 -247q74 -103 215 -103q86 0 154 41q58 37 96 117l86 -31q-44 -98 -127 -153q-91 -58 -209 -58z" />
    <glyph glyph-name="ordfeminine" unicode="&#xaa;" horiz-adv-x="1110" 
d="M465 -31q-184 0 -283.5 93t-99.5 231q0 70 24 126t67.5 93t95 60t114.5 36q135 27 518 72q2 191 -77 281t-263 90q-275 0 -342 -252l-94 24q37 153 150.5 233.5t289.5 80.5q151 0 255 -62t141 -170q26 -79 26 -213v-692h-80v202q-63 -112 -178.5 -172.5t-263.5 -60.5z
M461 55q180 0 294.5 96.5t137.5 266.5q8 57 8 178q-352 -31 -500 -68q-43 -11 -79 -27t-72 -43t-57 -70t-21 -97q0 -43 15 -82.5t46.5 -75t90.5 -57t137 -21.5z" />
    <glyph glyph-name="guillemotleft" unicode="&#xab;" horiz-adv-x="1028" 
d="M821 115l-350 440l350 438l64 -49l-312 -389l312 -391zM514 115l-350 440l350 438l64 -49l-312 -389l312 -391z" />
    <glyph glyph-name="logicalnot" unicode="&#xac;" horiz-adv-x="1228" 
d="M1020 412v262h-897v86h983v-348h-86z" />
    <glyph glyph-name="uni00AD" unicode="&#xad;" horiz-adv-x="860" 
d="M123 602v86h614v-86h-614z" />
    <glyph glyph-name="registered" unicode="&#xae;" horiz-adv-x="1239" 
d="M621 608q-130 0 -240 63.5t-174 173.5t-64 240q0 129 64 238.5t174 173.5t240 64q129 0 238.5 -64t173 -173.5t63.5 -238.5q0 -97 -37.5 -185.5t-101.5 -152.5t-151.5 -101.5t-184.5 -37.5zM621 694q161 0 275 114t114 277q0 161 -114 275.5t-275 114.5
q-163 0 -277.5 -114.5t-114.5 -275.5q0 -163 114.5 -277t277.5 -114zM455 854v471h209q61 0 107 -45t46 -106q0 -41 -25 -80.5t-65 -57.5l90 -182h-84l-82 168h-123v-168h-73zM528 1092h134q31 0 55 24.5t24 57.5q0 35 -25 58t-54 23h-134v-163z" />
    <glyph glyph-name="macron" unicode="&#xaf;" horiz-adv-x="983" 
d="M246 1720v86h491v-86h-491z" />
    <glyph glyph-name="degree" unicode="&#xb0;" horiz-adv-x="921" 
d="M430 768q-153 0 -261 108t-108 261q0 150 110 259t259 109q153 0 261 -107.5t108 -260.5t-108 -261t-261 -108zM430 854q116 0 199.5 84t83.5 199t-83.5 198.5t-199.5 83.5t-199.5 -83.5t-83.5 -198.5t83.5 -199t199.5 -84z" />
    <glyph glyph-name="plusminus" unicode="&#xb1;" horiz-adv-x="1167" 
d="M541 300v428h-428v86h428v428h86v-428h428v-86h-428v-428h-86zM113 124v86h942v-86h-942z" />
    <glyph glyph-name="uni00B2" unicode="&#xb2;" horiz-adv-x="802" 
d="M102 553l2 78l420 383q52 46 71 90t19 98q0 89 -60 151t-148 62q-89 0 -151 -63t-60 -148h-86q0 124 85.5 207.5t211.5 83.5q125 0 209.5 -85.5t84.5 -207.5q0 -81 -29.5 -137.5t-97.5 -118.5l-342 -311h469v-82h-598z" />
    <glyph glyph-name="uni00B3" unicode="&#xb3;" horiz-adv-x="778" 
d="M365 532q-102 0 -178 54t-105 147l80 25q24 -71 78.5 -108.5t124.5 -35.5q96 1 150 60t54 157t-56.5 158t-150.5 60q-46 0 -108 -25l-43 66l326 305h-418v80h528v-82l-282 -268q130 4 210 -78t80 -216q0 -133 -80.5 -216t-209.5 -83z" />
    <glyph glyph-name="acute" unicode="&#xb4;" horiz-adv-x="935" 
d="M474 1935h98l-98 -276h-67z" />
    <glyph glyph-name="uni00B5" unicode="&#xb5;" horiz-adv-x="1193" 
d="M143 -492v1598h86v-586q0 -232 94 -346.5t269 -114.5q98 0 171.5 35t116.5 97.5t64 140.5t21 170v604h86v-1106h-80v178q-59 -102 -158 -152.5t-221 -50.5q-251 0 -369 197v-664h-80z" />
    <glyph glyph-name="paragraph" unicode="&#xb6;" horiz-adv-x="1189" 
d="M715 -289v879h-88q-46 0 -95 8q-158 26 -253 146.5t-95 287.5t95 287.5t253 146.5q55 9 95 9h174v-1764h-86zM920 -289v1764h86v-1764h-86z" />
    <glyph glyph-name="periodcentered" unicode="&#xb7;" horiz-adv-x="409" 
d="M207 563q-35 0 -59.5 23.5t-24.5 58.5t24.5 58.5t59.5 23.5q33 0 56.5 -23.5t23.5 -58.5t-23.5 -58.5t-56.5 -23.5z" />
    <glyph glyph-name="cedilla" unicode="&#xb8;" horiz-adv-x="790" 
d="M369 -489q-58 0 -123 28l28 76q54 -21 88 -21q44 0 70.5 29t26.5 68q0 31 -21 53.5t-40.5 31t-64.5 23.5q-7 3 -11 4l77 211h86l-59 -159q123 -51 123 -168q0 -73 -53 -124.5t-127 -51.5z" />
    <glyph glyph-name="uni00B9" unicode="&#xb9;" horiz-adv-x="626" 
d="M297 553v827l-174 -104v94l174 105h84v-922h-84z" />
    <glyph glyph-name="ordmasculine" unicode="&#xba;" horiz-adv-x="1175" 
d="M588 -31q-161 0 -276 75t-172.5 206.5t-57.5 304.5q0 265 134 423.5t372 158.5q242 0 374 -159.5t132 -422.5q0 -268 -133 -427t-373 -159zM588 55q203 0 308 135t105 365q0 231 -105.5 363.5t-307.5 132.5q-204 0 -309 -134.5t-105 -361.5q0 -231 107 -365.5t307 -134.5
z" />
    <glyph glyph-name="guillemotright" unicode="&#xbb;" horiz-adv-x="1028" 
d="M207 115l-64 49l312 391l-312 389l64 49l350 -438zM514 115l-63 49l311 391l-311 389l63 49l350 -438z" />
    <glyph glyph-name="onequarter" unicode="&#xbc;" horiz-adv-x="1908" 
d="M297 553v827l-174 -104v94l174 105h84v-922h-84zM293 0l-76 61l1120 1414l74 -60zM1477 0v182h-437v82l312 658h94l-311 -658h342v275h84v-275h102v-82h-102v-182h-84z" />
    <glyph glyph-name="onehalf" unicode="&#xbd;" horiz-adv-x="1804" 
d="M297 553v827l-174 -104v94l174 105h84v-922h-84zM293 0l-76 61l1120 1414l74 -60zM1104 0l2 78l420 383q52 46 71 90t19 98q0 89 -60.5 151t-148.5 62q-89 0 -151 -63t-60 -148h-86q0 124 85.5 207.5t211.5 83.5q125 0 210 -85.5t85 -207.5q0 -81 -29.5 -137.5
t-97.5 -118.5l-342 -311h469v-82h-598z" />
    <glyph glyph-name="threequarters" unicode="&#xbe;" horiz-adv-x="1939" 
d="M365 532q-102 0 -178 54t-105 147l80 25q24 -71 78.5 -108.5t124.5 -35.5q96 1 150 60t54 157t-56.5 158t-150.5 60q-46 0 -108 -25l-43 66l326 305h-418v80h528v-82l-282 -268q130 4 210 -78t80 -216q0 -133 -80.5 -216t-209.5 -83zM444 0l-75 61l1120 1414l74 -60z
M1630 0v182h-436v82l311 658h94l-311 -658h342v275h84v-275h103v-82h-103v-182h-84z" />
    <glyph glyph-name="questiondown" unicode="&#xbf;" horiz-adv-x="1032" 
d="M540 1112q32 0 53.5 -21.5t21.5 -53.5t-21.5 -53.5t-53.5 -21.5t-54 21.5t-22 53.5q0 31 22 53t54 22zM586 702v-32.5v-31.5t-0.5 -27.5t-1 -28t-2 -24t-3.5 -25.5t-5 -23t-7.5 -25t-9.5 -23t-12 -26q-23 -42 -62 -81t-75.5 -63.5t-79.5 -57t-68 -58.5q-65 -75 -65 -194
q0 -126 65 -197q85 -98 260 -98q169 0 252 92q72 72 72 201h86q0 -164 -94 -261q-115 -118 -320 -118q-207 0 -317 118q-97 103 -97 265q0 72 24.5 139t70.5 113q28 30 87.5 72.5t110 84t72.5 84.5q10 19 16 37.5t8.5 44.5t3 39.5t0 51.5t-0.5 52h92z" />
    <glyph glyph-name="Agrave" unicode="&#xc0;" horiz-adv-x="1247" 
d="M571 1935l68 -276h-68l-98 276h98zM1206 0h-92l-139 383h-703l-139 -383h-92l537 1475h92zM302 465h643l-320 886z" />
    <glyph glyph-name="Aacute" unicode="&#xc1;" horiz-adv-x="1247" 
d="M676 1935h98l-98 -276h-68zM41 0l537 1475h92l536 -1475h-92l-139 383h-703l-139 -383h-92zM302 465h643l-322 886z" />
    <glyph glyph-name="Acircumflex" unicode="&#xc2;" horiz-adv-x="1247" 
d="M373 1659l205 246h94l205 -246h-103l-149 174l-150 -174h-102zM41 0l537 1475h92l536 -1475h-92l-139 383h-703l-139 -383h-92zM302 465h643l-322 886z" />
    <glyph glyph-name="Atilde" unicode="&#xc3;" horiz-adv-x="1247" 
d="M766 1710q-45 0 -100 24.5t-105 49t-84 24.5q-41 0 -54 -28t-1 -60h-74q-19 70 20.5 120t110.5 50q58 0 155.5 -49t135.5 -49q37 0 52 27.5t3 64.5h74q19 -69 -20.5 -121.5t-112.5 -52.5zM41 0l537 1475h92l536 -1475h-92l-139 383h-703l-139 -383h-92zM302 465h643
l-322 886z" />
    <glyph glyph-name="Adieresis" unicode="&#xc4;" horiz-adv-x="1247" 
d="M809 1707q-32 0 -54 21.5t-22 53.5t22 54t54 22t54 -22t22 -54q0 -31 -22 -53t-54 -22zM440 1707q-32 0 -53.5 21.5t-21.5 53.5t21.5 54t53.5 22t54 -22t22 -54q0 -31 -22 -53t-54 -22zM41 0l537 1475h92l536 -1475h-92l-139 383h-703l-139 -383h-92zM302 465h643
l-322 886z" />
    <glyph glyph-name="Aring" unicode="&#xc5;" horiz-adv-x="1247" 
d="M625 1597q-82 0 -140.5 58t-58.5 141q0 82 58.5 140.5t140.5 58.5q83 0 140.5 -58.5t57.5 -140.5q0 -83 -57.5 -141t-140.5 -58zM625 1683q47 0 79.5 33.5t32.5 79.5q0 47 -32.5 80t-79.5 33q-46 0 -79.5 -33.5t-33.5 -79.5t33.5 -79.5t79.5 -33.5zM41 0l537 1475h92
l536 -1475h-92l-139 383h-703l-139 -383h-92zM302 465h643l-322 886z" />
    <glyph glyph-name="AE" unicode="&#xc6;" horiz-adv-x="1853" 
d="M41 0l537 1475h1173v-86h-815v-609h692v-86h-692v-608h815v-86h-901v383h-579l-138 -383h-92zM301 465h549v924h-214z" />
    <glyph glyph-name="Ccedilla" unicode="&#xc7;" horiz-adv-x="1433" 
d="M723 -31q-162 0 -288.5 56.5t-208 158.5t-123.5 242.5t-42 310.5t42 310.5t123.5 242.5t208 158.5t288.5 56.5q251 0 411.5 -131t217.5 -362l-90 -21q-51 201 -188 314.5t-351 113.5q-139 0 -247.5 -50t-178 -141.5t-105.5 -215.5t-38 -275q-2 -202 60.5 -354t193 -240
t315.5 -88q214 0 351 113.5t188 314.5l90 -20q-52 -209 -188.5 -337.5t-349.5 -151.5l-44 -119q123 -51 123 -168q0 -73 -53 -124.5t-127 -51.5q-58 0 -123 28l28 76q54 -21 89 -21q44 0 70 29t26 68q0 31 -21 53.5t-40.5 31t-64.5 23.5q-7 3 -11 4l61 166h-4z" />
    <glyph glyph-name="Egrave" unicode="&#xc8;" horiz-adv-x="1146" 
d="M588 1935l67 -276h-67l-99 276h99zM143 0v1475h901v-86h-815v-609h693v-86h-693v-608h815v-86h-901z" />
    <glyph glyph-name="Eacute" unicode="&#xc9;" horiz-adv-x="1146" 
d="M662 1935h98l-98 -276h-68zM143 0v1475h901v-86h-815v-609h693v-86h-693v-608h815v-86h-901z" />
    <glyph glyph-name="Ecircumflex" unicode="&#xca;" horiz-adv-x="1146" 
d="M332 1659l205 246h94l205 -246h-103l-149 174l-150 -174h-102zM143 0v1475h901v-86h-815v-609h693v-86h-693v-608h815v-86h-901z" />
    <glyph glyph-name="Edieresis" unicode="&#xcb;" horiz-adv-x="1146" 
d="M748 1707q-32 0 -54 21.5t-22 53.5t22 54t54 22t53.5 -22t21.5 -54t-21.5 -53.5t-53.5 -21.5zM379 1707q-32 0 -54 21.5t-22 53.5t22 54t54 22t54 -22t22 -54q0 -31 -22 -53t-54 -22zM143 0v1475h901v-86h-815v-609h693v-86h-693v-608h815v-86h-901z" />
    <glyph glyph-name="Igrave" unicode="&#xcc;" horiz-adv-x="413" 
d="M160 1935l67 -276h-67l-99 276h99zM164 0v1475h86v-1475h-86z" />
    <glyph glyph-name="Iacute" unicode="&#xcd;" horiz-adv-x="413" 
d="M254 1935h98l-98 -276h-68zM164 0v1475h86v-1475h-86z" />
    <glyph glyph-name="Icircumflex" unicode="&#xce;" horiz-adv-x="413" 
d="M-45 1659l205 246h94l205 -246h-103l-149 174l-150 -174h-102zM164 0v1475h86v-1475h-86z" />
    <glyph glyph-name="Idieresis" unicode="&#xcf;" horiz-adv-x="413" 
d="M391 1707q-32 0 -54 21.5t-22 53.5t22 54t54 22t54 -22t22 -54q0 -31 -22 -53t-54 -22zM23 1707q-32 0 -54 21.5t-22 53.5t22 54t54 22t53.5 -22t21.5 -54t-22 -53.5t-53 -21.5zM164 0v1475h86v-1475h-86z" />
    <glyph glyph-name="Eth" unicode="&#xd0;" horiz-adv-x="1312" 
d="M121 0v694h-101v86h101v695h432q118 0 197 -11q119 -17 212 -80t151 -160t88 -220.5t30 -266.5q0 -194 -51 -346.5t-161.5 -255t-268.5 -125.5q-70 -10 -197 -10h-432zM213 86h340q115 0 182 12q107 18 185.5 72.5t126 140t70 191.5t22.5 235t-22.5 235t-70 191.5
t-126 140t-185.5 72.5q-73 13 -182 13h-340v-609h422v-86h-422v-608z" />
    <glyph glyph-name="Ntilde" unicode="&#xd1;" horiz-adv-x="1355" 
d="M850 1659q-45 0 -100 24.5t-105.5 49t-83.5 24.5q-41 0 -54 -28t-1 -60h-74q-19 70 20.5 120t110.5 50q58 0 155.5 -49t135.5 -49q37 0 52 27.5t3 64.5h74q19 -69 -20.5 -121.5t-112.5 -52.5zM143 0v1475h86l897 -1321v1321h86v-1475h-86l-897 1323v-1323h-86z" />
    <glyph glyph-name="Ograve" unicode="&#xd2;" horiz-adv-x="1445" 
d="M686 1935l68 -276h-68l-98 276h98zM723 -31q-162 0 -288.5 56.5t-208 158.5t-123.5 242.5t-42 310.5t42 310.5t123.5 242.5t208 158.5t288.5 56.5t288.5 -56.5t207.5 -159t123 -242t42 -310.5t-42 -310.5t-123 -242t-207.5 -159t-288.5 -56.5zM723 55q139 0 248 50
t179 141.5t106 215.5t36 275t-36 275t-106 215.5t-179 141.5t-248 50t-247.5 -50t-178 -141.5t-105.5 -215.5t-38 -275q-2 -202 60.5 -354t193 -240t315.5 -88z" />
    <glyph glyph-name="Oacute" unicode="&#xd3;" horiz-adv-x="1445" 
d="M791 1935h98l-98 -276h-68zM723 -31q-162 0 -288.5 56.5t-208 158.5t-123.5 242.5t-42 310.5t42 310.5t123.5 242.5t208 158.5t288.5 56.5t288.5 -56.5t207.5 -159t123 -242t42 -310.5t-42 -310.5t-123 -242t-207.5 -159t-288.5 -56.5zM723 55q139 0 248 50t179 141.5
t106 215.5t36 275t-36 275t-106 215.5t-179 141.5t-248 50t-247.5 -50t-178 -141.5t-105.5 -215.5t-38 -275q-2 -202 60.5 -354t193 -240t315.5 -88z" />
    <glyph glyph-name="Ocircumflex" unicode="&#xd4;" horiz-adv-x="1445" 
d="M471 1659l205 246h94l205 -246h-103l-149 174l-150 -174h-102zM723 -31q-162 0 -288.5 56.5t-208 158.5t-123.5 242.5t-42 310.5t42 310.5t123.5 242.5t208 158.5t288.5 56.5t288.5 -56.5t207.5 -159t123 -242t42 -310.5t-42 -310.5t-123 -242t-207.5 -159t-288.5 -56.5z
M723 55q139 0 248 50t179 141.5t106 215.5t36 275t-36 275t-106 215.5t-179 141.5t-248 50t-247.5 -50t-178 -141.5t-105.5 -215.5t-38 -275q-2 -202 60.5 -354t193 -240t315.5 -88z" />
    <glyph glyph-name="Otilde" unicode="&#xd5;" horiz-adv-x="1445" 
d="M882 1659q-45 0 -100 24.5t-105.5 49t-83.5 24.5q-41 0 -54 -28t-1 -60h-74q-19 70 20.5 120t110.5 50q58 0 155.5 -49t135.5 -49q37 0 52 27.5t3 64.5h74q19 -69 -20.5 -121.5t-112.5 -52.5zM723 -31q-162 0 -288.5 56.5t-208 158.5t-123.5 242.5t-42 310.5t42 310.5
t123.5 242.5t208 158.5t288.5 56.5t288.5 -56.5t207.5 -159t123 -242t42 -310.5t-42 -310.5t-123 -242t-207.5 -159t-288.5 -56.5zM723 55q139 0 248 50t179 141.5t106 215.5t36 275t-36 275t-106 215.5t-179 141.5t-248 50t-247.5 -50t-178 -141.5t-105.5 -215.5t-38 -275
q-2 -202 60.5 -354t193 -240t315.5 -88z" />
    <glyph glyph-name="Odieresis" unicode="&#xd6;" horiz-adv-x="1445" 
d="M907 1707q-32 0 -54 21.5t-22 53.5t22 54t54 22t54 -22t22 -54q0 -31 -22 -53t-54 -22zM539 1707q-32 0 -54 21.5t-22 53.5t22 54t54 22t53.5 -22t21.5 -54t-22 -53.5t-53 -21.5zM723 -31q-162 0 -288.5 56.5t-208 158.5t-123.5 242.5t-42 310.5t42 310.5t123.5 242.5
t208 158.5t288.5 56.5t288.5 -56.5t207.5 -159t123 -242t42 -310.5t-42 -310.5t-123 -242t-207.5 -159t-288.5 -56.5zM723 55q139 0 248 50t179 141.5t106 215.5t36 275t-36 275t-106 215.5t-179 141.5t-248 50t-247.5 -50t-178 -141.5t-105.5 -215.5t-38 -275
q-2 -202 60.5 -354t193 -240t315.5 -88z" />
    <glyph glyph-name="multiply" unicode="&#xd7;" horiz-adv-x="1167" 
d="M887 366l-303 303l-303 -303l-61 61l303 302l-303 303l61 61l303 -302l303 302l60 -61l-303 -303l303 -302z" />
    <glyph glyph-name="Oslash" unicode="&#xd8;" horiz-adv-x="1445" 
d="M74 -27l-64 60l184 196q-133 199 -133 508q0 170 42 310.5t123.5 242.5t208 158.5t288.5 56.5q306 0 481 -197l173 186l64 -56l-185 -200q128 -197 128 -501q0 -171 -42 -310.5t-123 -242t-207.5 -159t-288.5 -56.5q-300 0 -474 191zM154 737q-3 -265 104 -438l882 941
q-149 179 -417 179q-139 0 -247.5 -50t-178 -141.5t-105.5 -215.5t-38 -275zM723 55q139 0 248 50t179 141.5t106 215.5t36 275q0 260 -101 431l-880 -942q149 -171 412 -171z" />
    <glyph glyph-name="Ugrave" unicode="&#xd9;" horiz-adv-x="1413" 
d="M685 1935l68 -276h-68l-98 276h98zM707 -31q-248 0 -406 152.5t-158 400.5v953h86v-924q0 -105 31 -191.5t80.5 -142.5t113.5 -94.5t127.5 -55t125.5 -16.5t125.5 16.5t127.5 55t113 94.5t80 142.5t31 191.5v924h86v-953q0 -247 -157.5 -400t-405.5 -153z" />
    <glyph glyph-name="Uacute" unicode="&#xda;" horiz-adv-x="1413" 
d="M728 1935h98l-98 -276h-68zM707 -31q-248 0 -406 152.5t-158 400.5v953h86v-924q0 -105 31 -191.5t80.5 -142.5t113.5 -94.5t127.5 -55t125.5 -16.5t125.5 16.5t127.5 55t113 94.5t80 142.5t31 191.5v924h86v-953q0 -247 -157.5 -400t-405.5 -153z" />
    <glyph glyph-name="Ucircumflex" unicode="&#xdb;" horiz-adv-x="1413" 
d="M455 1659l204 246h95l204 -246h-102l-149 174l-150 -174h-102zM707 -31q-248 0 -406 152.5t-158 400.5v953h86v-924q0 -105 31 -191.5t80.5 -142.5t113.5 -94.5t127.5 -55t125.5 -16.5t125.5 16.5t127.5 55t113 94.5t80 142.5t31 191.5v924h86v-953q0 -247 -157.5 -400
t-405.5 -153z" />
    <glyph glyph-name="Udieresis" unicode="&#xdc;" horiz-adv-x="1413" 
d="M891 1707q-32 0 -54 21.5t-22 53.5t22 54t54 22t54 -22t22 -54q0 -31 -22 -53t-54 -22zM522 1707q-32 0 -54 21.5t-22 53.5t22 54t54 22t54 -22t22 -54q0 -31 -22 -53t-54 -22zM707 -31q-248 0 -406 152.5t-158 400.5v953h86v-924q0 -105 31 -191.5t80.5 -142.5
t113.5 -94.5t127.5 -55t125.5 -16.5t125.5 16.5t127.5 55t113 94.5t80 142.5t31 191.5v924h86v-953q0 -247 -157.5 -400t-405.5 -153z" />
    <glyph glyph-name="Yacute" unicode="&#xdd;" horiz-adv-x="1062" 
d="M548 1935h98l-98 -276h-68zM489 0v627l-489 848h98l434 -750l433 750h98l-488 -848v-627h-86z" />
    <glyph glyph-name="Thorn" unicode="&#xde;" horiz-adv-x="1169" 
d="M143 0v1475h86v-295h437q78 0 157 -31q82 -31 146 -92q66 -61 102.5 -145.5t36.5 -174.5q0 -167 -117 -297q-60 -67 -147 -106t-178 -39h-437v-295h-86zM229 381h437q75 0 145.5 34t120.5 93q87 103 84 229q-3 150 -109 256q-46 46 -111 73.5t-130 27.5h-437v-713z" />
    <glyph glyph-name="germandbls" unicode="&#xdf;" horiz-adv-x="1177" 
d="M596 -29q-118 0 -186 29v86q77 -27 186 -27q165 0 266 94t101 259q0 148 -118 238t-313 95v86q59 7 110 27.5t93.5 55t67 89t24.5 123.5q0 138 -77.5 215.5t-214.5 77.5q-100 0 -175 -45.5t-102 -132.5q-20 -66 -20 -174v-1067h-95v1090q0 117 31 196q89 219 358 219
q179 0 283.5 -98.5t104.5 -282.5q0 -121 -56 -208t-157 -113q39 -2 83.5 -18t92 -48.5t85.5 -76.5t62.5 -109t24.5 -139q0 -202 -119.5 -321.5t-339.5 -119.5z" />
    <glyph glyph-name="agrave" unicode="&#xe0;" horiz-adv-x="1110" 
d="M528 1567l68 -277h-68l-98 277h98zM465 -31q-184 0 -283.5 93t-99.5 231q0 70 24 126t67.5 93t95 60t114.5 36q135 27 518 72q2 191 -77 281t-263 90q-275 0 -342 -252l-94 24q37 153 150.5 233.5t289.5 80.5q151 0 255 -62t141 -170q26 -79 26 -213v-692h-80v202
q-63 -112 -178.5 -172.5t-263.5 -60.5zM461 55q180 0 294.5 96.5t137.5 266.5q8 57 8 178q-352 -31 -500 -68q-43 -11 -79 -27t-72 -43t-57 -70t-21 -97q0 -43 15 -82.5t46.5 -75t90.5 -57t137 -21.5z" />
    <glyph glyph-name="aacute" unicode="&#xe1;" horiz-adv-x="1110" 
d="M607 1567h99l-99 -277h-67zM465 -31q-184 0 -283.5 93t-99.5 231q0 70 24 126t67.5 93t95 60t114.5 36q135 27 518 72q2 191 -77 281t-263 90q-275 0 -342 -252l-94 24q37 153 150.5 233.5t289.5 80.5q151 0 255 -62t141 -170q26 -79 26 -213v-692h-80v202
q-63 -112 -178.5 -172.5t-263.5 -60.5zM461 55q180 0 294.5 96.5t137.5 266.5q8 57 8 178q-352 -31 -500 -68q-43 -11 -79 -27t-72 -43t-57 -70t-21 -97q0 -43 15 -82.5t46.5 -75t90.5 -57t137 -21.5z" />
    <glyph glyph-name="acircumflex" unicode="&#xe2;" horiz-adv-x="1110" 
d="M319 1290l205 246h94l205 -246h-102l-150 174l-149 -174h-103zM465 -31q-184 0 -283.5 93t-99.5 231q0 70 24 126t67.5 93t95 60t114.5 36q135 27 518 72q2 191 -77 281t-263 90q-275 0 -342 -252l-94 24q37 153 150.5 233.5t289.5 80.5q151 0 255 -62t141 -170
q26 -79 26 -213v-692h-80v202q-63 -112 -178.5 -172.5t-263.5 -60.5zM461 55q180 0 294.5 96.5t137.5 266.5q8 57 8 178q-352 -31 -500 -68q-43 -11 -79 -27t-72 -43t-57 -70t-21 -97q0 -43 15 -82.5t46.5 -75t90.5 -57t137 -21.5z" />
    <glyph glyph-name="atilde" unicode="&#xe3;" horiz-adv-x="1110" 
d="M719 1290q-45 0 -100 25t-105.5 49.5t-83.5 24.5q-41 0 -54 -28.5t-1 -60.5h-74q-19 70 20.5 120t110.5 50q58 0 155.5 -49t135.5 -49q37 0 52 27.5t3 64.5h74q19 -69 -20.5 -121.5t-112.5 -52.5zM465 -31q-184 0 -283.5 93t-99.5 231q0 70 24 126t67.5 93t95 60
t114.5 36q135 27 518 72q2 191 -77 281t-263 90q-275 0 -342 -252l-94 24q37 153 150.5 233.5t289.5 80.5q151 0 255 -62t141 -170q26 -79 26 -213v-692h-80v202q-63 -112 -178.5 -172.5t-263.5 -60.5zM461 55q180 0 294.5 96.5t137.5 266.5q8 57 8 178q-352 -31 -500 -68
q-43 -11 -79 -27t-72 -43t-57 -70t-21 -97q0 -43 15 -82.5t46.5 -75t90.5 -57t137 -21.5z" />
    <glyph glyph-name="adieresis" unicode="&#xe4;" horiz-adv-x="1110" 
d="M766 1338q-32 0 -54 21.5t-22 53.5t22 54t54 22t54 -22t22 -54q0 -31 -22 -53t-54 -22zM397 1338q-32 0 -53.5 21.5t-21.5 53.5t21.5 54t53.5 22t54 -22t22 -54q0 -31 -22 -53t-54 -22zM465 -31q-184 0 -283.5 93t-99.5 231q0 70 24 126t67.5 93t95 60t114.5 36
q135 27 518 72q2 191 -77 281t-263 90q-275 0 -342 -252l-94 24q37 153 150.5 233.5t289.5 80.5q151 0 255 -62t141 -170q26 -79 26 -213v-692h-80v202q-63 -112 -178.5 -172.5t-263.5 -60.5zM461 55q180 0 294.5 96.5t137.5 266.5q8 57 8 178q-352 -31 -500 -68
q-43 -11 -79 -27t-72 -43t-57 -70t-21 -97q0 -43 15 -82.5t46.5 -75t90.5 -57t137 -21.5z" />
    <glyph glyph-name="aring" unicode="&#xe5;" horiz-adv-x="1110" 
d="M570 1229q-82 0 -140 57.5t-58 140.5q0 82 58 140.5t140 58.5q83 0 141 -58.5t58 -140.5q0 -83 -58 -140.5t-141 -57.5zM570 1315q47 0 80 33t33 79q0 47 -33 80t-80 33q-46 0 -79 -33.5t-33 -79.5t33 -79t79 -33zM465 -31q-184 0 -283.5 93t-99.5 231q0 70 24 126
t67.5 93t95 60t114.5 36q135 27 518 72q2 191 -77 281t-263 90q-275 0 -342 -252l-94 24q37 153 150.5 233.5t289.5 80.5q151 0 255 -62t141 -170q26 -79 26 -213v-692h-80v202q-63 -112 -178.5 -172.5t-263.5 -60.5zM461 55q180 0 294.5 96.5t137.5 266.5q8 57 8 178
q-352 -31 -500 -68q-43 -11 -79 -27t-72 -43t-57 -70t-21 -97q0 -43 15 -82.5t46.5 -75t90.5 -57t137 -21.5z" />
    <glyph glyph-name="ae" unicode="&#xe6;" horiz-adv-x="1937" 
d="M473 -31q-183 0 -287 87.5t-104 242.5q0 51 12.5 93.5t31.5 73t49.5 55t58.5 39.5t68 26t68 16.5t68.5 8t59.5 3t49 0.5h354q7 218 -71.5 327.5t-262.5 109.5q-135 0 -228 -57t-124 -181l-90 29q21 98 86.5 166t155 98.5t198.5 30.5q158 0 258.5 -68.5t140.5 -195.5
q58 126 165 195t255 69q230 0 350.5 -163.5t120.5 -445.5h-868q5 -220 106 -346.5t287 -126.5q127 0 225.5 62.5t155.5 187.5l68 -41q-63 -144 -179 -219.5t-270 -75.5q-158 0 -268 80t-164 222q-32 -84 -85 -145t-118 -94t-132 -48t-140 -15zM1380 1051q-178 0 -278 -117.5
t-113 -319.5h775q-17 208 -113 322.5t-271 114.5zM461 55q134 0 239.5 59.5t151.5 159.5q46 98 49 258h-354q-40 0 -62.5 -0.5t-67.5 -5t-73 -12.5t-64 -25.5t-57 -41.5t-36 -62.5t-15 -87.5q0 -117 77 -179.5t212 -62.5z" />
    <glyph glyph-name="ccedilla" unicode="&#xe7;" horiz-adv-x="1103" 
d="M528 -489q-57 0 -122 28l28 76q54 -21 88 -21q44 0 70 29t26 68q0 31 -21 53.5t-40.5 31t-64.5 23.5q-7 3 -11 4l62 167q-220 16 -338 172.5t-123 410.5q5 271 135 427.5t371 156.5q154 0 273.5 -74t170.5 -201l-82 -35q-46 106 -141.5 165t-220.5 59q-103 0 -181.5 -36
t-129 -102.5t-76 -157t-27.5 -202.5q3 -232 109 -365t305 -133q123 0 216 56.5t144 164.5l84 -36q-130 -252 -403 -270l-43 -115q123 -51 123 -168q0 -73 -53.5 -124.5t-127.5 -51.5z" />
    <glyph glyph-name="egrave" unicode="&#xe8;" 
d="M565 1567l68 -277h-68l-98 277h98zM588 -31q-235 0 -370.5 157t-135.5 427q0 272 135 428t371 156q238 0 371 -160.5t133 -448.5h-918q6 -225 114.5 -349t299.5 -124q136 0 239.5 64t165.5 186l72 -41q-68 -141 -192 -218t-285 -77zM588 1051q-184 0 -291 -114t-121 -323
h820q-18 212 -122.5 324.5t-285.5 112.5z" />
    <glyph glyph-name="eacute" unicode="&#xe9;" 
d="M654 1567h99l-99 -277h-67zM588 -31q-235 0 -370.5 157t-135.5 427q0 272 135 428t371 156q238 0 371 -160.5t133 -448.5h-918q6 -225 114.5 -349t299.5 -124q136 0 239.5 64t165.5 186l72 -41q-68 -141 -192 -218t-285 -77zM588 1051q-184 0 -291 -114t-121 -323h820
q-18 212 -122.5 324.5t-285.5 112.5z" />
    <glyph glyph-name="ecircumflex" unicode="&#xea;" 
d="M336 1290l205 246h94l205 -246h-103l-149 174l-150 -174h-102zM588 -31q-235 0 -370.5 157t-135.5 427q0 272 135 428t371 156q238 0 371 -160.5t133 -448.5h-918q6 -225 114.5 -349t299.5 -124q136 0 239.5 64t165.5 186l72 -41q-68 -141 -192 -218t-285 -77zM588 1051
q-184 0 -291 -114t-121 -323h820q-18 212 -122.5 324.5t-285.5 112.5z" />
    <glyph glyph-name="edieresis" unicode="&#xeb;" 
d="M772 1338q-32 0 -54 21.5t-22 53.5t22 54t54 22t54 -22t22 -54q0 -31 -22 -53t-54 -22zM403 1338q-32 0 -53.5 21.5t-21.5 53.5t21.5 54t53.5 22t54 -22t22 -54q0 -31 -22 -53t-54 -22zM588 -31q-235 0 -370.5 157t-135.5 427q0 272 135 428t371 156q238 0 371 -160.5
t133 -448.5h-918q6 -225 114.5 -349t299.5 -124q136 0 239.5 64t165.5 186l72 -41q-68 -141 -192 -218t-285 -77zM588 1051q-184 0 -291 -114t-121 -323h820q-18 212 -122.5 324.5t-285.5 112.5z" />
    <glyph glyph-name="igrave" unicode="&#xec;" horiz-adv-x="413" 
d="M160 1567l67 -277h-67l-99 277h99zM164 0v1106h86v-1106h-86z" />
    <glyph glyph-name="iacute" unicode="&#xed;" horiz-adv-x="413" 
d="M254 1567h98l-98 -277h-68zM164 0v1106h86v-1106h-86z" />
    <glyph glyph-name="icircumflex" unicode="&#xee;" horiz-adv-x="413" 
d="M-45 1290l205 246h94l205 -246h-103l-149 174l-150 -174h-102zM164 0v1106h86v-1106h-86z" />
    <glyph glyph-name="idieresis" unicode="&#xef;" horiz-adv-x="413" 
d="M391 1338q-32 0 -54 21.5t-22 53.5t22 54t54 22t54 -22t22 -54q0 -31 -22 -53t-54 -22zM23 1338q-32 0 -54 21.5t-22 53.5t22 54t54 22t53.5 -22t21.5 -54q0 -31 -22 -53t-53 -22zM164 0v1106h86v-1106h-86z" />
    <glyph glyph-name="eth" unicode="&#xf0;" 
d="M588 -31q-236 -3 -369.5 145.5t-136.5 401.5q3 254 137.5 402t368.5 145q124 2 233 -48.5t172 -144.5q-38 333 -255 466l-117 -150l-68 53l107 136q-84 35 -189 42l10 84q130 -8 236 -54l121 155l67 -54l-111 -142q130 -82 205 -235q58 -111 75.5 -246t17.5 -407
q0 -252 -136 -402t-368 -147zM588 55q199 0 305 123.5t106 339.5q0 215 -108.5 338.5t-302.5 120.5q-198 3 -306 -121.5t-108 -339.5q0 -218 108 -339.5t306 -121.5z" />
    <glyph glyph-name="ntilde" unicode="&#xf1;" 
d="M729 1290q-45 0 -100 25t-105.5 49.5t-83.5 24.5q-41 0 -54 -28.5t-1 -60.5h-74q-19 70 20.5 120t110.5 50q58 0 155.5 -49t135.5 -49q37 0 52 27.5t3 64.5h74q19 -69 -20.5 -121.5t-112.5 -52.5zM143 0v1106h80v-179q59 103 157.5 153t221.5 50q210 0 329.5 -141
t119.5 -387v-602h-86v586q0 232 -94 346.5t-269 114.5q-98 0 -171.5 -35t-116.5 -97.5t-64 -140.5t-21 -170v-604h-86z" />
    <glyph glyph-name="ograve" unicode="&#xf2;" horiz-adv-x="1175" 
d="M536 1567l67 -277h-67l-99 277h99zM588 -31q-161 0 -276 75t-172.5 206.5t-57.5 304.5q0 265 134 423.5t372 158.5q242 0 374 -159.5t132 -422.5q0 -268 -133 -427t-373 -159zM588 55q203 0 308 135t105 365q0 231 -105.5 363.5t-307.5 132.5q-204 0 -309 -134.5
t-105 -361.5q0 -231 107 -365.5t307 -134.5z" />
    <glyph glyph-name="oacute" unicode="&#xf3;" horiz-adv-x="1175" 
d="M630 1567h98l-98 -277h-68zM588 -31q-161 0 -276 75t-172.5 206.5t-57.5 304.5q0 265 134 423.5t372 158.5q242 0 374 -159.5t132 -422.5q0 -268 -133 -427t-373 -159zM588 55q203 0 308 135t105 365q0 231 -105.5 363.5t-307.5 132.5q-204 0 -309 -134.5t-105 -361.5
q0 -231 107 -365.5t307 -134.5z" />
    <glyph glyph-name="ocircumflex" unicode="&#xf4;" horiz-adv-x="1175" 
d="M336 1290l205 246h94l205 -246h-103l-149 174l-150 -174h-102zM588 -31q-161 0 -276 75t-172.5 206.5t-57.5 304.5q0 265 134 423.5t372 158.5q242 0 374 -159.5t132 -422.5q0 -268 -133 -427t-373 -159zM588 55q203 0 308 135t105 365q0 231 -105.5 363.5t-307.5 132.5
q-204 0 -309 -134.5t-105 -361.5q0 -231 107 -365.5t307 -134.5z" />
    <glyph glyph-name="otilde" unicode="&#xf5;" horiz-adv-x="1175" 
d="M731 1290q-45 0 -100 25t-105.5 49.5t-83.5 24.5q-41 0 -54 -28.5t-1 -60.5h-74q-19 70 20.5 120t110.5 50q58 0 155.5 -49t135.5 -49q37 0 52.5 28t3.5 64h73q19 -69 -20.5 -121.5t-112.5 -52.5zM588 -31q-161 0 -276 75t-172.5 206.5t-57.5 304.5q0 265 134 423.5
t372 158.5q242 0 374 -159.5t132 -422.5q0 -268 -133 -427t-373 -159zM588 55q203 0 308 135t105 365q0 231 -105.5 363.5t-307.5 132.5q-204 0 -309 -134.5t-105 -361.5q0 -231 107 -365.5t307 -134.5z" />
    <glyph glyph-name="odieresis" unicode="&#xf6;" horiz-adv-x="1175" 
d="M772 1338q-32 0 -54 21.5t-22 53.5t22 54t54 22t54 -22t22 -54q0 -31 -22 -53t-54 -22zM403 1338q-32 0 -53.5 21.5t-21.5 53.5t21.5 54t53.5 22t54 -22t22 -54q0 -31 -22 -53t-54 -22zM588 -31q-161 0 -276 75t-172.5 206.5t-57.5 304.5q0 265 134 423.5t372 158.5
q242 0 374 -159.5t132 -422.5q0 -268 -133 -427t-373 -159zM588 55q203 0 308 135t105 365q0 231 -105.5 363.5t-307.5 132.5q-204 0 -309 -134.5t-105 -361.5q0 -231 107 -365.5t307 -134.5z" />
    <glyph glyph-name="divide" unicode="&#xf7;" horiz-adv-x="1167" 
d="M584 999q-32 0 -54 21.5t-22 53.5t22 54t54 22t53.5 -22t21.5 -54t-21.5 -53.5t-53.5 -21.5zM113 694v86h942v-86h-942zM584 326q-32 0 -54 21.5t-22 52.5q0 32 22 54t54 22t53.5 -22t21.5 -54q0 -31 -21.5 -52.5t-53.5 -21.5z" />
    <glyph glyph-name="oslash" unicode="&#xf8;" horiz-adv-x="1175" 
d="M94 0l-61 61l135 136q-86 147 -86 358q0 265 134 423.5t372 158.5q233 0 368 -154l125 123l62 -59l-135 -135q86 -146 86 -357q0 -268 -133 -427t-373 -159q-234 0 -369 156zM174 555q0 -173 60 -292l660 658q-108 130 -306 130q-204 0 -309 -134.5t-105 -361.5zM588 55
q203 0 308 135t105 365q0 176 -59 293l-659 -660q108 -133 305 -133z" />
    <glyph glyph-name="ugrave" unicode="&#xf9;" 
d="M560 1567l68 -277h-68l-98 277h98zM571 -25q-210 0 -329 141t-119 388v602h86v-586q0 -232 93.5 -346.5t268.5 -114.5q98 0 171.5 35t116.5 97.5t64 140.5t21 170v604h86v-1106h-80v179q-59 -103 -158 -153.5t-221 -50.5z" />
    <glyph glyph-name="uacute" unicode="&#xfa;" 
d="M618 1567h99l-99 -277h-67zM571 -25q-210 0 -329 141t-119 388v602h86v-586q0 -232 93.5 -346.5t268.5 -114.5q98 0 171.5 35t116.5 97.5t64 140.5t21 170v604h86v-1106h-80v179q-59 -103 -158 -153.5t-221 -50.5z" />
    <glyph glyph-name="ucircumflex" unicode="&#xfb;" 
d="M324 1290l204 246h95l204 -246h-102l-150 174l-149 -174h-102zM571 -25q-210 0 -329 141t-119 388v602h86v-586q0 -232 93.5 -346.5t268.5 -114.5q98 0 171.5 35t116.5 97.5t64 140.5t21 170v604h86v-1106h-80v179q-59 -103 -158 -153.5t-221 -50.5z" />
    <glyph glyph-name="udieresis" unicode="&#xfc;" 
d="M760 1338q-32 0 -54 21.5t-22 53.5t22 54t54 22t54 -22t22 -54q0 -31 -22 -53t-54 -22zM391 1338q-32 0 -54 21.5t-22 53.5t22 54t54 22t54 -22t22 -54q0 -31 -22 -53t-54 -22zM571 -25q-210 0 -329 141t-119 388v602h86v-586q0 -232 93.5 -346.5t268.5 -114.5
q98 0 171.5 35t116.5 97.5t64 140.5t21 170v604h86v-1106h-80v179q-59 -103 -158 -153.5t-221 -50.5z" />
    <glyph glyph-name="yacute" unicode="&#xfd;" horiz-adv-x="1036" 
d="M554 1567h98l-98 -277h-68zM309 -492l183 491l-451 1107h94l400 -988l358 988h92l-579 -1598h-97z" />
    <glyph glyph-name="thorn" unicode="&#xfe;" horiz-adv-x="1179" 
d="M143 -492v1967h86v-583q59 117 161.5 181t242.5 64q144 0 251 -78t160.5 -208.5t53.5 -295.5q0 -168 -54 -299t-165 -209t-263 -78q-132 0 -230.5 65.5t-156.5 182.5v-709h-86zM616 55q186 0 288 139t102 361q0 145 -41.5 254.5t-131 175.5t-217.5 66q-188 0 -290.5 -136
t-102.5 -360q0 -145 43 -256.5t133.5 -177.5t216.5 -66z" />
    <glyph glyph-name="ydieresis" unicode="&#xff;" horiz-adv-x="1036" 
d="M711 1338q-32 0 -54 21.5t-22 53.5t22 54t54 22t53.5 -22t21.5 -54q0 -31 -22 -53t-53 -22zM342 1338q-32 0 -54 21.5t-22 53.5t22 54t54 22t54 -22t22 -54q0 -31 -22 -53t-54 -22zM309 -492l183 491l-451 1107h94l400 -988l358 988h92l-579 -1598h-97z" />
    <glyph glyph-name="Amacron" unicode="&#x100;" horiz-adv-x="1247" 
d="M379 1720v86h491v-86h-491zM41 0l537 1475h92l536 -1475h-92l-139 383h-703l-139 -383h-92zM302 465h643l-322 886z" />
    <glyph glyph-name="amacron" unicode="&#x101;" horiz-adv-x="1110" 
d="M356 1352v86h492v-86h-492zM465 -31q-184 0 -283.5 93t-99.5 231q0 70 24 126t67.5 93t95 60t114.5 36q135 27 518 72q2 191 -77 281t-263 90q-275 0 -342 -252l-94 24q37 153 150.5 233.5t289.5 80.5q151 0 255 -62t141 -170q26 -79 26 -213v-692h-80v202
q-63 -112 -178.5 -172.5t-263.5 -60.5zM461 55q180 0 294.5 96.5t137.5 266.5q8 57 8 178q-352 -31 -500 -68q-43 -11 -79 -27t-72 -43t-57 -70t-21 -97q0 -43 15 -82.5t46.5 -75t90.5 -57t137 -21.5z" />
    <glyph glyph-name="Abreve" unicode="&#x102;" horiz-adv-x="1247" 
d="M625 1610q-97 0 -165.5 68t-68.5 165h80q0 -63 45.5 -108t108.5 -45q64 0 108.5 45t44.5 108h80q0 -97 -68 -165t-165 -68zM41 0l537 1475h92l536 -1475h-92l-139 383h-703l-139 -383h-92zM302 465h643l-322 886z" />
    <glyph glyph-name="abreve" unicode="&#x103;" horiz-adv-x="1110" 
d="M573 1241q-97 0 -165 68.5t-68 165.5h80q0 -63 45 -108.5t108 -45.5q64 0 109 45.5t45 108.5h80q0 -97 -68.5 -165.5t-165.5 -68.5zM465 -31q-184 0 -283.5 93t-99.5 231q0 70 24 126t67.5 93t95 60t114.5 36q135 27 518 72q2 191 -77 281t-263 90q-275 0 -342 -252
l-94 24q37 153 150.5 233.5t289.5 80.5q151 0 255 -62t141 -170q26 -79 26 -213v-692h-80v202q-63 -112 -178.5 -172.5t-263.5 -60.5zM461 55q180 0 294.5 96.5t137.5 266.5q8 57 8 178q-352 -31 -500 -68q-43 -11 -79 -27t-72 -43t-57 -70t-21 -97q0 -43 15 -82.5t46.5 -75
t90.5 -57t137 -21.5z" />
    <glyph glyph-name="Aogonek" unicode="&#x104;" horiz-adv-x="1247" 
d="M41 0l537 1475h92l536 -1475q-98 -64 -166.5 -151.5t-68.5 -159.5q0 -45 27 -74t63 -29q53 0 106 60l52 -58q-66 -84 -158 -84q-72 0 -126 55.5t-54 129.5q0 79 61 169.5t160 175.5l-127 349h-703l-139 -383h-92zM302 465h643l-322 886z" />
    <glyph glyph-name="aogonek" unicode="&#x105;" horiz-adv-x="1110" 
d="M465 -31q-184 0 -283.5 93t-99.5 231q0 70 24 126t67.5 93t95 60t114.5 36q135 27 518 72q2 191 -77 281t-263 90q-275 0 -342 -252l-94 24q37 153 150.5 233.5t289.5 80.5q151 0 255 -62t141 -170q26 -79 26 -213v-692q-98 -64 -166.5 -151.5t-68.5 -159.5q0 -45 27 -74
t63 -29q53 0 106 60l51 -58q-66 -84 -157 -84q-72 0 -126 55.5t-54 129.5q0 84 67.5 180t177.5 185v148q-63 -112 -178.5 -172.5t-263.5 -60.5zM461 55q180 0 294.5 96.5t137.5 266.5q8 57 8 178q-352 -31 -500 -68q-43 -11 -79 -27t-72 -43t-57 -70t-21 -97q0 -43 15 -82.5
t46.5 -75t90.5 -57t137 -21.5z" />
    <glyph glyph-name="Cacute" unicode="&#x106;" horiz-adv-x="1433" 
d="M775 1935h98l-98 -276h-67zM723 -31q-162 0 -288.5 56.5t-208 158.5t-123.5 242.5t-42 310.5t42 310.5t123.5 242.5t208 158.5t288.5 56.5q251 0 411.5 -131t217.5 -362l-90 -21q-51 201 -188 314.5t-351 113.5q-139 0 -247.5 -50t-178 -141.5t-105.5 -215.5t-38 -275
q-2 -202 60.5 -354t193 -240t315.5 -88q214 0 351 113.5t188 314.5l90 -20q-57 -231 -217.5 -362.5t-411.5 -131.5z" />
    <glyph glyph-name="cacute" unicode="&#x107;" horiz-adv-x="1103" 
d="M655 1567h99l-99 -277h-67zM588 -31q-241 0 -371 158.5t-135 425.5q5 271 135 427.5t371 156.5q154 0 273.5 -74t170.5 -201l-82 -35q-46 106 -141.5 165t-220.5 59q-103 0 -181.5 -36t-129 -102.5t-76 -157t-27.5 -202.5q3 -232 109 -365t305 -133q123 0 216 56.5
t144 164.5l84 -36q-140 -271 -444 -271z" />
    <glyph glyph-name="Ccircumflex" unicode="&#x108;" horiz-adv-x="1433" 
d="M472 1659l205 246h94l205 -246h-103l-149 174l-150 -174h-102zM723 -31q-162 0 -288.5 56.5t-208 158.5t-123.5 242.5t-42 310.5t42 310.5t123.5 242.5t208 158.5t288.5 56.5q251 0 411.5 -131t217.5 -362l-90 -21q-51 201 -188 314.5t-351 113.5q-139 0 -247.5 -50
t-178 -141.5t-105.5 -215.5t-38 -275q-2 -202 60.5 -354t193 -240t315.5 -88q214 0 351 113.5t188 314.5l90 -20q-57 -231 -217.5 -362.5t-411.5 -131.5z" />
    <glyph glyph-name="ccircumflex" unicode="&#x109;" horiz-adv-x="1103" 
d="M336 1290l205 246h94l205 -246h-103l-149 174l-150 -174h-102zM588 -31q-241 0 -371 158.5t-135 425.5q5 271 135 427.5t371 156.5q154 0 273.5 -74t170.5 -201l-82 -35q-46 106 -141.5 165t-220.5 59q-103 0 -181.5 -36t-129 -102.5t-76 -157t-27.5 -202.5
q3 -232 109 -365t305 -133q123 0 216 56.5t144 164.5l84 -36q-140 -271 -444 -271z" />
    <glyph glyph-name="Cdotaccent" unicode="&#x10a;" horiz-adv-x="1433" 
d="M743 1707q-32 0 -53.5 21.5t-21.5 53.5t21.5 54t53.5 22t54 -22t22 -54q0 -31 -22 -53t-54 -22zM723 -31q-162 0 -288.5 56.5t-208 158.5t-123.5 242.5t-42 310.5t42 310.5t123.5 242.5t208 158.5t288.5 56.5q251 0 411.5 -131t217.5 -362l-90 -21q-51 201 -188 314.5
t-351 113.5q-139 0 -247.5 -50t-178 -141.5t-105.5 -215.5t-38 -275q-2 -202 60.5 -354t193 -240t315.5 -88q214 0 351 113.5t188 314.5l90 -20q-57 -231 -217.5 -362.5t-411.5 -131.5z" />
    <glyph glyph-name="cdotaccent" unicode="&#x10b;" horiz-adv-x="1103" 
d="M598 1338q-32 0 -54 21.5t-22 53.5t22 54t54 22t54 -22t22 -54q0 -31 -22 -53t-54 -22zM588 -31q-241 0 -371 158.5t-135 425.5q5 271 135 427.5t371 156.5q154 0 273.5 -74t170.5 -201l-82 -35q-46 106 -141.5 165t-220.5 59q-103 0 -181.5 -36t-129 -102.5t-76 -157
t-27.5 -202.5q3 -232 109 -365t305 -133q123 0 216 56.5t144 164.5l84 -36q-140 -271 -444 -271z" />
    <glyph glyph-name="Ccaron" unicode="&#x10c;" horiz-adv-x="1433" 
d="M535 1905h102l149 -174l150 174h102l-204 -246h-95zM723 -31q-162 0 -288.5 56.5t-208 158.5t-123.5 242.5t-42 310.5t42 310.5t123.5 242.5t208 158.5t288.5 56.5q251 0 411.5 -131t217.5 -362l-90 -21q-51 201 -188 314.5t-351 113.5q-139 0 -247.5 -50t-178 -141.5
t-105.5 -215.5t-38 -275q-2 -202 60.5 -354t193 -240t315.5 -88q214 0 351 113.5t188 314.5l90 -20q-57 -231 -217.5 -362.5t-411.5 -131.5z" />
    <glyph glyph-name="ccaron" unicode="&#x10d;" horiz-adv-x="1103" 
d="M336 1536h102l150 -174l149 174h103l-205 -246h-94zM588 -31q-241 0 -371 158.5t-135 425.5q5 271 135 427.5t371 156.5q154 0 273.5 -74t170.5 -201l-82 -35q-46 106 -141.5 165t-220.5 59q-103 0 -181.5 -36t-129 -102.5t-76 -157t-27.5 -202.5q3 -232 109 -365
t305 -133q123 0 216 56.5t144 164.5l84 -36q-140 -271 -444 -271z" />
    <glyph glyph-name="Dcaron" unicode="&#x10e;" horiz-adv-x="1335" 
d="M330 1905h102l150 -174l149 174h103l-205 -246h-94zM143 0v1475h432q118 0 197 -11q119 -17 212 -80t151 -160t88 -220.5t30 -266.5q0 -194 -51 -346.5t-161.5 -255t-268.5 -125.5q-70 -10 -197 -10h-432zM236 86h339q115 0 183 12q107 18 185.5 72.5t125.5 140
t69.5 191.5t22.5 235t-22.5 235t-69.5 191.5t-125.5 140t-185.5 72.5q-73 13 -183 13h-339v-1303z" />
    <glyph glyph-name="dcaron" unicode="&#x10f;" horiz-adv-x="1378" 
d="M1331 1495h95l-126 -430h-67zM563 -31q-152 0 -262.5 78t-164.5 209t-54 299q0 165 53.5 295.5t160.5 208.5t251 78q139 0 241.5 -64t161.5 -181v583h86v-1475h-80v229q-57 -122 -157.5 -191t-235.5 -69zM563 55q126 0 216.5 66t133.5 177.5t43 256.5q0 224 -102.5 360
t-290.5 136q-97 0 -172 -37.5t-122 -104.5t-71 -156.5t-24 -197.5q0 -145 43 -256.5t132 -177.5t214 -66z" />
    <glyph glyph-name="Dcroat" unicode="&#x110;" horiz-adv-x="1312" 
d="M121 0v694h-101v86h101v695h432q118 0 197 -11q119 -17 212 -80t151 -160t88 -220.5t30 -266.5q0 -194 -51 -346.5t-161.5 -255t-268.5 -125.5q-70 -10 -197 -10h-432zM213 86h340q115 0 182 12q107 18 185.5 72.5t126 140t70 191.5t22.5 235t-22.5 235t-70 191.5
t-126 140t-185.5 72.5q-73 13 -182 13h-340v-609h422v-86h-422v-608z" />
    <glyph glyph-name="dcroat" unicode="&#x111;" horiz-adv-x="1179" 
d="M563 -31q-152 0 -262.5 78t-164.5 209t-54 299q0 165 53.5 295.5t160.5 208.5t251 78q139 0 241.5 -64t161.5 -181v337h-254v86h254v160h86v-160h152v-86h-152v-1229h-80v229q-57 -122 -157.5 -191t-235.5 -69zM563 55q126 0 216.5 66t133.5 177.5t43 256.5
q0 224 -102.5 360t-290.5 136q-97 0 -172 -37.5t-122 -104.5t-71 -156.5t-24 -197.5q0 -145 43 -256.5t132 -177.5t214 -66z" />
    <glyph glyph-name="Emacron" unicode="&#x112;" horiz-adv-x="1146" 
d="M348 1720v86h492v-86h-492zM143 0v1475h901v-86h-815v-609h693v-86h-693v-608h815v-86h-901z" />
    <glyph glyph-name="emacron" unicode="&#x113;" 
d="M362 1352v86h492v-86h-492zM588 -31q-235 0 -370.5 157t-135.5 427q0 272 135 428t371 156q238 0 371 -160.5t133 -448.5h-918q6 -225 114.5 -349t299.5 -124q136 0 239.5 64t165.5 186l72 -41q-68 -141 -192 -218t-285 -77zM588 1051q-184 0 -291 -114t-121 -323h820
q-18 212 -122.5 324.5t-285.5 112.5z" />
    <glyph glyph-name="Edotaccent" unicode="&#x116;" horiz-adv-x="1146" 
d="M604 1707q-32 0 -54 21.5t-22 53.5t22 54t54 22t54 -22t22 -54q0 -31 -22 -53t-54 -22zM143 0v1475h901v-86h-815v-609h693v-86h-693v-608h815v-86h-901z" />
    <glyph glyph-name="edotaccent" unicode="&#x117;" 
d="M588 1338q-32 0 -54 21.5t-22 53.5t22 54t54 22t54 -22t22 -54q0 -31 -22 -53t-54 -22zM588 -31q-235 0 -370.5 157t-135.5 427q0 272 135 428t371 156q238 0 371 -160.5t133 -448.5h-918q6 -225 114.5 -349t299.5 -124q136 0 239.5 64t165.5 186l72 -41
q-68 -141 -192 -218t-285 -77zM588 1051q-184 0 -291 -114t-121 -323h820q-18 212 -122.5 324.5t-285.5 112.5z" />
    <glyph glyph-name="Eogonek" unicode="&#x118;" horiz-adv-x="1146" 
d="M143 0v1475h901v-86h-815v-609h693v-86h-693v-608h815v-86q-98 -64 -166.5 -151.5t-68.5 -159.5q0 -45 27 -74t63 -29q54 0 107 60l51 -58q-66 -84 -158 -84q-72 0 -126 55.5t-54 129.5q0 138 183 311h-759z" />
    <glyph glyph-name="eogonek" unicode="&#x119;" 
d="M588 -31q-235 0 -370.5 157t-135.5 427q0 272 135 428t371 156q238 0 371 -160.5t133 -448.5h-918q6 -225 114.5 -349t299.5 -124q136 0 239.5 64t165.5 186l72 -41q-1 -3 -3.5 -8.5t-4.5 -8.5q-26 -56 -79.5 -133t-111.5 -149.5t-63 -79.5q-68 -99 -84 -159
q-18 -71 16 -105q26 -26 59.5 -27t61.5 14t55 40l54 -60q-40 -40 -93 -63q-57 -22 -108 -12t-88 47q-71 71 -39 188q22 83 90 170q2 3 83 95q-102 -44 -222 -44zM588 1051q-184 0 -291 -114t-121 -323h820q-18 212 -122.5 324.5t-285.5 112.5z" />
    <glyph glyph-name="Ecaron" unicode="&#x11a;" horiz-adv-x="1146" 
d="M348 1905h103l149 -174l150 174h102l-205 -246h-94zM143 0v1475h901v-86h-815v-609h693v-86h-693v-608h815v-86h-901z" />
    <glyph glyph-name="ecaron" unicode="&#x11b;" 
d="M336 1536h102l150 -174l149 174h103l-205 -246h-94zM588 -31q-235 0 -370.5 157t-135.5 427q0 272 135 428t371 156q238 0 371 -160.5t133 -448.5h-918q6 -225 114.5 -349t299.5 -124q136 0 239.5 64t165.5 186l72 -41q-68 -141 -192 -218t-285 -77zM588 1051
q-184 0 -291 -114t-121 -323h820q-18 212 -122.5 324.5t-285.5 112.5z" />
    <glyph glyph-name="Gcircumflex" unicode="&#x11c;" horiz-adv-x="1406" 
d="M452 1659l204 246h95l204 -246h-102l-150 174l-149 -174h-102zM723 -31q-162 0 -288.5 56.5t-208 158.5t-123.5 242.5t-42 310.5t42 310t123.5 242t208 158t288.5 56q204 0 346.5 -96t204.5 -258l-84 -35q-55 141 -176 222t-291 81q-139 0 -247.5 -50t-178 -141
t-105.5 -214.5t-38 -274.5q-2 -202 60.5 -354t193 -240t315.5 -88q139 0 242 43t165.5 123t92.5 187t30 243h-536v86h624q5 -49 5 -88q0 -117 -22.5 -218.5t-71.5 -187t-121 -146t-176 -94.5t-232 -34z" />
    <glyph glyph-name="gcircumflex" unicode="&#x11d;" horiz-adv-x="1179" 
d="M307 1290l205 246h94l205 -246h-102l-150 174l-149 -174h-103zM563 -31q-152 0 -262.5 78t-164.5 209t-54 299q0 165 53.5 295.5t160.5 208.5t251 78t247.5 -67.5t161.5 -189.5v226h80v-1045q0 -114 -10 -190q-25 -202 -136.5 -297.5t-324.5 -95.5q-134 0 -249 58
t-185 188l76 51q52 -107 149 -158t209 -51q110 0 185 30.5t118 95t61.5 153t18.5 216.5v152q-59 -115 -157 -179.5t-228 -64.5zM563 55q126 0 216.5 66t133.5 177.5t43 256.5q0 224 -102.5 360t-290.5 136q-97 0 -172 -37.5t-122 -104.5t-71 -156.5t-24 -197.5
q0 -145 43 -256.5t132 -177.5t214 -66z" />
    <glyph glyph-name="Gbreve" unicode="&#x11e;" horiz-adv-x="1406" 
d="M728 1610q-97 0 -165 68t-68 165h79q0 -63 45.5 -108t108.5 -45q64 0 109 45t45 108h80q0 -97 -68.5 -165t-165.5 -68zM723 -31q-162 0 -288.5 56.5t-208 158.5t-123.5 242.5t-42 310.5t42 310t123.5 242t208 158t288.5 56q204 0 346.5 -96t204.5 -258l-84 -35
q-55 141 -176 222t-291 81q-139 0 -247.5 -50t-178 -141t-105.5 -214.5t-38 -274.5q-2 -202 60.5 -354t193 -240t315.5 -88q139 0 242 43t165.5 123t92.5 187t30 243h-536v86h624q5 -49 5 -88q0 -117 -22.5 -218.5t-71.5 -187t-121 -146t-176 -94.5t-232 -34z" />
    <glyph glyph-name="gbreve" unicode="&#x11f;" horiz-adv-x="1179" 
d="M618 1241q-97 0 -165 68.5t-68 165.5h80q0 -63 45 -108.5t108 -45.5q64 0 109 45.5t45 108.5h80q0 -97 -68.5 -165.5t-165.5 -68.5zM563 -31q-152 0 -262.5 78t-164.5 209t-54 299q0 165 53.5 295.5t160.5 208.5t251 78t247.5 -67.5t161.5 -189.5v226h80v-1045
q0 -114 -10 -190q-25 -202 -136.5 -297.5t-324.5 -95.5q-134 0 -249 58t-185 188l76 51q52 -107 149 -158t209 -51q110 0 185 30.5t118 95t61.5 153t18.5 216.5v152q-59 -115 -157 -179.5t-228 -64.5zM563 55q126 0 216.5 66t133.5 177.5t43 256.5q0 224 -102.5 360
t-290.5 136q-97 0 -172 -37.5t-122 -104.5t-71 -156.5t-24 -197.5q0 -145 43 -256.5t132 -177.5t214 -66z" />
    <glyph glyph-name="Gdotaccent" unicode="&#x120;" horiz-adv-x="1406" 
d="M743 1707q-32 0 -53.5 21.5t-21.5 53.5t21.5 54t53.5 22t54 -22t22 -54q0 -31 -22 -53t-54 -22zM723 -31q-162 0 -288.5 56.5t-208 158.5t-123.5 242.5t-42 310.5t42 310t123.5 242t208 158t288.5 56q204 0 346.5 -96t204.5 -258l-84 -35q-55 141 -176 222t-291 81
q-139 0 -247.5 -50t-178 -141t-105.5 -214.5t-38 -274.5q-2 -202 60.5 -354t193 -240t315.5 -88q139 0 242 43t165.5 123t92.5 187t30 243h-536v86h624q5 -49 5 -88q0 -117 -22.5 -218.5t-71.5 -187t-121 -146t-176 -94.5t-232 -34z" />
    <glyph glyph-name="gdotaccent" unicode="&#x121;" horiz-adv-x="1179" 
d="M621 1338q-32 0 -54 21.5t-22 53.5t22 54t54 22t53.5 -22t21.5 -54q0 -31 -22 -53t-53 -22zM563 -31q-152 0 -262.5 78t-164.5 209t-54 299q0 165 53.5 295.5t160.5 208.5t251 78t247.5 -67.5t161.5 -189.5v226h80v-1045q0 -114 -10 -190q-25 -202 -136.5 -297.5
t-324.5 -95.5q-134 0 -249 58t-185 188l76 51q52 -107 149 -158t209 -51q110 0 185 30.5t118 95t61.5 153t18.5 216.5v152q-59 -115 -157 -179.5t-228 -64.5zM563 55q126 0 216.5 66t133.5 177.5t43 256.5q0 224 -102.5 360t-290.5 136q-97 0 -172 -37.5t-122 -104.5
t-71 -156.5t-24 -197.5q0 -145 43 -256.5t132 -177.5t214 -66z" />
    <glyph glyph-name="uni0122" unicode="&#x122;" horiz-adv-x="1406" 
d="M723 -31q-162 0 -288.5 56.5t-208 158.5t-123.5 242.5t-42 310.5t42 310t123.5 242t208 158t288.5 56q204 0 346.5 -96t204.5 -258l-84 -35q-55 141 -176 222t-291 81q-139 0 -247.5 -50t-178 -141t-105.5 -214.5t-38 -274.5q-2 -202 60.5 -354t193 -240t315.5 -88
q139 0 242 43t165.5 123t92.5 187t30 243h-536v86h624q5 -49 5 -88q0 -117 -22.5 -218.5t-71.5 -187t-121 -146t-176 -94.5t-232 -34zM711 -246h98l-98 -276h-68z" />
    <glyph glyph-name="uni0123" unicode="&#x123;" horiz-adv-x="1179" 
d="M614 1339h-98l98 277h68zM563 -31q-152 0 -262.5 78t-164.5 209t-54 299q0 165 53.5 295.5t160.5 208.5t251 78t247.5 -67.5t161.5 -189.5v226h80v-1045q0 -114 -10 -190q-25 -202 -136.5 -297.5t-324.5 -95.5q-134 0 -249 58t-185 188l76 51q52 -107 149 -158t209 -51
q110 0 185 30.5t118 95t61.5 153t18.5 216.5v152q-59 -115 -157 -179.5t-228 -64.5zM563 55q126 0 216.5 66t133.5 177.5t43 256.5q0 224 -102.5 360t-290.5 136q-97 0 -172 -37.5t-122 -104.5t-71 -156.5t-24 -197.5q0 -145 43 -256.5t132 -177.5t214 -66z" />
    <glyph glyph-name="Hcircumflex" unicode="&#x124;" horiz-adv-x="1351" 
d="M424 1659l205 246h94l205 -246h-103l-149 174l-150 -174h-102zM143 0v1475h86v-695h893v695h86v-1475h-86v694h-893v-694h-86z" />
    <glyph glyph-name="hcircumflex" unicode="&#x125;" 
d="M-69 1659l205 246h94l205 -246h-102l-150 174l-149 -174h-103zM143 0v1475h80v-548q59 103 157.5 153t221.5 50q210 0 329.5 -141t119.5 -387v-602h-86v586q0 232 -94 346.5t-269 114.5q-98 0 -171.5 -35t-116.5 -97.5t-64 -140.5t-21 -170v-604h-86z" />
    <glyph glyph-name="Hbar" unicode="&#x126;" horiz-adv-x="1392" 
d="M164 0v1020h-144v86h144v369h86v-369h893v369h86v-369h143v-86h-143v-1020h-86v694h-893v-694h-86zM250 780h893v240h-893v-240z" />
    <glyph glyph-name="hbar" unicode="&#x127;" 
d="M143 0v1229h-143v86h143v160h80v-160h269v-86h-269v-302q59 103 157.5 153t221.5 50q210 0 329.5 -141t119.5 -387v-602h-86v586q0 232 -94 346.5t-269 114.5q-98 0 -171.5 -35t-116.5 -97.5t-64 -140.5t-21 -170v-604h-86z" />
    <glyph glyph-name="Itilde" unicode="&#x128;" horiz-adv-x="413" 
d="M349 1659q-45 0 -100 24.5t-105 49t-84 24.5q-41 0 -54 -28t-1 -60h-74q-19 70 20.5 120t110.5 50q58 0 155.5 -49t135.5 -49q37 0 52.5 28t3.5 64h73q19 -69 -20.5 -121.5t-112.5 -52.5zM164 0v1475h86v-1475h-86z" />
    <glyph glyph-name="itilde" unicode="&#x129;" horiz-adv-x="413" 
d="M349 1290q-45 0 -100 25t-105.5 49.5t-83.5 24.5q-41 0 -54 -28.5t-1 -60.5h-74q-19 70 20.5 120t110.5 50q58 0 155.5 -49t135.5 -49q37 0 52.5 28t3.5 64h73q19 -69 -20.5 -121.5t-112.5 -52.5zM164 0v1106h86v-1106h-86z" />
    <glyph glyph-name="Imacron" unicode="&#x12a;" horiz-adv-x="413" 
d="M-39 1720v86h492v-86h-492zM164 0v1475h86v-1475h-86z" />
    <glyph glyph-name="imacron" unicode="&#x12b;" horiz-adv-x="413" 
d="M-39 1352v86h492v-86h-492zM164 0v1106h86v-1106h-86z" />
    <glyph glyph-name="Iogonek" unicode="&#x12e;" horiz-adv-x="413" 
d="M104 -496q-72 0 -126 55.5t-54 129.5q0 83 66 177t174 183v1426h86v-1475q-99 -65 -167.5 -152t-68.5 -159q0 -45 27 -74t63 -29q54 0 107 60l51 -58q-66 -84 -158 -84z" />
    <glyph glyph-name="iogonek" unicode="&#x12f;" horiz-adv-x="413" 
d="M207 1334q-32 0 -54 21.5t-22 53.5t22 54t54 22t54 -22t22 -54q0 -31 -22 -53t-54 -22zM104 -496q-72 0 -126 55.5t-54 129.5q0 83 66 177t174 183v1057h86v-1106q-99 -65 -167.5 -152t-68.5 -159q0 -45 27 -74t63 -29q54 0 107 60l51 -58q-66 -84 -158 -84z" />
    <glyph glyph-name="Idotaccent" unicode="&#x130;" horiz-adv-x="413" 
d="M207 1707q-32 0 -54 21.5t-22 53.5t22 54t54 22t54 -22t22 -54q0 -31 -22 -53t-54 -22zM164 0v1475h86v-1475h-86z" />
    <glyph glyph-name="dotlessi" unicode="&#x131;" horiz-adv-x="413" 
d="M164 0v1106h86v-1106h-86z" />
    <glyph glyph-name="Jcircumflex" unicode="&#x134;" horiz-adv-x="899" 
d="M438 1659l205 246h94l205 -246h-102l-150 174l-149 -174h-103zM367 -29q-134 0 -235 78t-132 207l88 20q24 -96 101 -157.5t182 -61.5q72 0 137 32.5t102 100.5q18 32 26 73t9.5 72.5t1.5 98.5v1041h86v-1041q0 -136 -9 -183q-10 -57 -38 -106q-49 -85 -132.5 -129.5
t-186.5 -44.5z" />
    <glyph glyph-name="jcircumflex" unicode="&#x135;" horiz-adv-x="460" 
d="M2 1290l205 246h94l205 -246h-103l-149 174l-150 -174h-102zM-20 -492v89h69q72 0 117 39t45 128v1342h86v-1331q0 -141 -58.5 -204t-191.5 -63h-67z" />
    <glyph glyph-name="uni0136" unicode="&#x136;" horiz-adv-x="1142" 
d="M143 0v1475h86v-773l730 773h118l-600 -635l666 -840h-118l-609 775l-187 -196v-579h-86zM584 -246h98l-98 -276h-68z" />
    <glyph glyph-name="uni0137" unicode="&#x137;" horiz-adv-x="958" 
d="M143 0v1475h86v-889l564 520h118l-512 -473l535 -633h-120l-482 570l-103 -94v-476h-86zM506 -246h98l-98 -276h-68z" />
    <glyph glyph-name="Lacute" unicode="&#x139;" horiz-adv-x="1013" 
d="M254 1935h98l-98 -276h-68zM164 0v1475h86v-1389h733v-86h-819z" />
    <glyph glyph-name="lacute" unicode="&#x13a;" horiz-adv-x="413" 
d="M254 1935h98l-98 -276h-68zM164 0v1505h86v-1505h-86z" />
    <glyph glyph-name="uni013B" unicode="&#x13b;" horiz-adv-x="1013" 
d="M164 0v1475h86v-1389h733v-86h-819zM559 -246h98l-98 -276h-67z" />
    <glyph glyph-name="uni013C" unicode="&#x13c;" horiz-adv-x="413" 
d="M164 0v1505h86v-1505h-86zM193 -246h98l-98 -276h-68z" />
    <glyph glyph-name="Lcaron" unicode="&#x13d;" horiz-adv-x="1013" 
d="M711 1495h95l-126 -430h-68zM164 0v1475h86v-1389h733v-86h-819z" />
    <glyph glyph-name="lcaron" unicode="&#x13e;" horiz-adv-x="532" 
d="M164 0v1505h86v-1505h-86zM485 1495h96l-126 -430h-68z" />
    <glyph glyph-name="Lslash" unicode="&#x141;" horiz-adv-x="1013" 
d="M164 0v498l-64 -37v102l64 37v875h86v-826l389 223v-100l-389 -225v-461h733v-86h-819z" />
    <glyph glyph-name="lslash" unicode="&#x142;" horiz-adv-x="739" 
d="M328 0v678l-228 -131v102l228 130v726h86v-676l225 129v-100l-225 -130v-728h-86z" />
    <glyph glyph-name="Nacute" unicode="&#x143;" horiz-adv-x="1355" 
d="M745 1935h99l-99 -276h-67zM143 0v1475h86l897 -1321v1321h86v-1475h-86l-897 1323v-1323h-86z" />
    <glyph glyph-name="nacute" unicode="&#x144;" 
d="M665 1567h98l-98 -277h-68zM143 0v1106h80v-179q59 103 157.5 153t221.5 50q210 0 329.5 -141t119.5 -387v-602h-86v586q0 232 -94 346.5t-269 114.5q-98 0 -171.5 -35t-116.5 -97.5t-64 -140.5t-21 -170v-604h-86z" />
    <glyph glyph-name="uni0145" unicode="&#x145;" horiz-adv-x="1355" 
d="M143 0v1475h86l897 -1321v1321h86v-1475h-86l-897 1323v-1323h-86zM684 -246h98l-98 -276h-68z" />
    <glyph glyph-name="uni0146" unicode="&#x146;" 
d="M143 0v1106h80v-179q59 103 157.5 153t221.5 50q210 0 329.5 -141t119.5 -387v-602h-86v586q0 232 -94 346.5t-269 114.5q-98 0 -171.5 -35t-116.5 -97.5t-64 -140.5t-21 -170v-604h-86zM584 -246h98l-98 -276h-68z" />
    <glyph glyph-name="Ncaron" unicode="&#x147;" horiz-adv-x="1355" 
d="M455 1905h102l150 -174l149 174h102l-204 -246h-95zM143 0v1475h86l897 -1321v1321h86v-1475h-86l-897 1323v-1323h-86z" />
    <glyph glyph-name="ncaron" unicode="&#x148;" 
d="M342 1536h102l150 -174l149 174h103l-205 -246h-94zM143 0v1106h80v-179q59 103 157.5 153t221.5 50q210 0 329.5 -141t119.5 -387v-602h-86v586q0 232 -94 346.5t-269 114.5q-98 0 -171.5 -35t-116.5 -97.5t-64 -140.5t-21 -170v-604h-86z" />
    <glyph glyph-name="Eng" unicode="&#x14a;" horiz-adv-x="1355" 
d="M1126 1475h86v-1670q0 -90 -37 -131t-118 -41q-36 0 -84 11v84q40 -7 59 -7q56 0 75 34t19 132q0 112 -43 176l-854 1260v-1323h-86v1475h86l897 -1321v1321z" />
    <glyph glyph-name="eng" unicode="&#x14b;" 
d="M143 0v1106h80v-179q59 103 157.5 153t221.5 50q210 0 329.5 -141t119.5 -387v-797q0 -149 -107 -170q-67 -7 -133 9v84q98 -15 126 16.5t28 142.5v699q0 232 -94 346.5t-269 114.5q-98 0 -171.5 -35t-116.5 -97.5t-64 -140.5t-21 -170v-604h-86z" />
    <glyph glyph-name="Omacron" unicode="&#x14c;" horiz-adv-x="1445" 
d="M477 1720v86h492v-86h-492zM723 -31q-162 0 -288.5 56.5t-208 158.5t-123.5 242.5t-42 310.5t42 310.5t123.5 242.5t208 158.5t288.5 56.5t288.5 -56.5t207.5 -159t123 -242t42 -310.5t-42 -310.5t-123 -242t-207.5 -159t-288.5 -56.5zM723 55q139 0 248 50t179 141.5
t106 215.5t36 275t-36 275t-106 215.5t-179 141.5t-248 50t-247.5 -50t-178 -141.5t-105.5 -215.5t-38 -275q-2 -202 60.5 -354t193 -240t315.5 -88z" />
    <glyph glyph-name="omacron" unicode="&#x14d;" horiz-adv-x="1175" 
d="M342 1352v86h492v-86h-492zM588 -31q-161 0 -276 75t-172.5 206.5t-57.5 304.5q0 265 134 423.5t372 158.5q242 0 374 -159.5t132 -422.5q0 -268 -133 -427t-373 -159zM588 55q203 0 308 135t105 365q0 231 -105.5 363.5t-307.5 132.5q-204 0 -309 -134.5t-105 -361.5
q0 -231 107 -365.5t307 -134.5z" />
    <glyph glyph-name="Ohungarumlaut" unicode="&#x150;" horiz-adv-x="1445" 
d="M949 1935h99l-99 -276h-67zM591 1935h98l-98 -276h-68zM723 -31q-162 0 -288.5 56.5t-208 158.5t-123.5 242.5t-42 310.5t42 310.5t123.5 242.5t208 158.5t288.5 56.5t288.5 -56.5t207.5 -159t123 -242t42 -310.5t-42 -310.5t-123 -242t-207.5 -159t-288.5 -56.5zM723 55
q139 0 248 50t179 141.5t106 215.5t36 275t-36 275t-106 215.5t-179 141.5t-248 50t-247.5 -50t-178 -141.5t-105.5 -215.5t-38 -275q-2 -202 60.5 -354t193 -240t315.5 -88z" />
    <glyph glyph-name="ohungarumlaut" unicode="&#x151;" horiz-adv-x="1175" 
d="M818 1567h98l-98 -277h-67zM460 1567h98l-98 -277h-68zM588 -31q-161 0 -276 75t-172.5 206.5t-57.5 304.5q0 265 134 423.5t372 158.5q242 0 374 -159.5t132 -422.5q0 -268 -133 -427t-373 -159zM588 55q203 0 308 135t105 365q0 231 -105.5 363.5t-307.5 132.5
q-204 0 -309 -134.5t-105 -361.5q0 -231 107 -365.5t307 -134.5z" />
    <glyph glyph-name="OE" unicode="&#x152;" horiz-adv-x="2301" 
d="M723 -31q-162 0 -288.5 56.5t-208 158.5t-123.5 242.5t-42 310.5t42 310.5t123.5 242.5t208 158.5t288.5 56.5q207 0 352 -89.5t223 -252.5v312h902v-86h-816v-609h693v-86h-693v-608h816v-86h-902v311q-78 -163 -223 -252.5t-352 -89.5zM723 55q139 0 248 50t179 141.5
t106 215.5t36 275t-36 275t-106 215.5t-179 141.5t-248 50t-247.5 -50t-178 -141.5t-105.5 -215.5t-38 -275q-2 -202 60.5 -354t193 -240t315.5 -88z" />
    <glyph glyph-name="oe" unicode="&#x153;" horiz-adv-x="2095" 
d="M588 -31q-161 0 -276 75t-172.5 206.5t-57.5 304.5q0 265 134 423.5t372 158.5q170 0 288 -82.5t173 -228.5q56 150 174 230.5t286 80.5q238 0 371 -160.5t133 -448.5h-917q6 -225 114 -349t299 -124q136 0 240 64t166 186l72 -41q-68 -141 -192.5 -218t-285.5 -77
q-167 0 -285.5 81.5t-174.5 230.5q-56 -148 -173.5 -230t-287.5 -82zM1509 1051q-183 0 -290 -114t-121 -323h820q-18 212 -123 324.5t-286 112.5zM588 55q203 0 308 135t105 365q0 231 -105.5 363.5t-307.5 132.5q-204 0 -309 -134.5t-105 -361.5q0 -231 107 -365.5
t307 -134.5z" />
    <glyph glyph-name="Racute" unicode="&#x154;" horiz-adv-x="1251" 
d="M606 1935h99l-99 -276h-67zM143 0v1475h543q38 0 94 -9q158 -24 253 -137t95 -266q0 -147 -88 -256.5t-236 -141.5l344 -665h-102l-336 652q-8 -1 -24 -1h-457v-651h-86zM229 737h457q46 0 90 8q122 23 191 113.5t69 204.5t-68.5 203.5t-191.5 113.5q-50 9 -90 9h-457
v-652z" />
    <glyph glyph-name="racute" unicode="&#x155;" horiz-adv-x="686" 
d="M356 1567h99l-99 -277h-67zM143 0v1106h80v-173q27 50 70 91q65 63 169 85.5t173 -3.5v-82q-177 38 -289 -66q-34 -31 -57 -73.5t-34.5 -78.5t-17.5 -90t-7 -85t-1 -86v-545h-86z" />
    <glyph glyph-name="uni0156" unicode="&#x156;" horiz-adv-x="1251" 
d="M143 0v1475h543q38 0 94 -9q158 -24 253 -137t95 -266q0 -147 -88 -256.5t-236 -141.5l344 -665h-102l-336 652q-8 -1 -24 -1h-457v-651h-86zM229 737h457q46 0 90 8q122 23 191 113.5t69 204.5t-68.5 203.5t-191.5 113.5q-50 9 -90 9h-457v-652zM590 -246h98l-98 -276
h-68z" />
    <glyph glyph-name="uni0157" unicode="&#x157;" horiz-adv-x="686" 
d="M143 0v1106h80v-173q27 50 70 91q65 63 169 85.5t173 -3.5v-82q-177 38 -289 -66q-34 -31 -57 -73.5t-34.5 -78.5t-17.5 -90t-7 -85t-1 -86v-545h-86zM172 -246h98l-98 -276h-68z" />
    <glyph glyph-name="Rcaron" unicode="&#x158;" horiz-adv-x="1251" 
d="M313 1905h103l149 -174l150 174h102l-205 -246h-94zM143 0v1475h543q38 0 94 -9q158 -24 253 -137t95 -266q0 -147 -88 -256.5t-236 -141.5l344 -665h-102l-336 652q-8 -1 -24 -1h-457v-651h-86zM229 737h457q46 0 90 8q122 23 191 113.5t69 204.5t-68.5 203.5
t-191.5 113.5q-50 9 -90 9h-457v-652z" />
    <glyph glyph-name="rcaron" unicode="&#x159;" horiz-adv-x="686" 
d="M137 1536h103l149 -174l150 174h102l-205 -246h-94zM143 0v1106h80v-173q27 50 70 91q65 63 169 85.5t173 -3.5v-82q-177 38 -289 -66q-34 -31 -57 -73.5t-34.5 -78.5t-17.5 -90t-7 -85t-1 -86v-545h-86z" />
    <glyph glyph-name="Sacute" unicode="&#x15a;" horiz-adv-x="1206" 
d="M655 1935h99l-99 -276h-67zM633 -31q-224 0 -378 107.5t-194 290.5l86 16q40 -152 170 -240t316 -88q194 0 311 90.5t117 239.5q0 57 -20 103.5t-45.5 74.5t-67.5 51.5t-69 33.5t-66 22l-369 110q-305 90 -305 338q0 170 134 278.5t347 108.5q217 0 364 -117.5
t175 -312.5l-86 -16q-22 161 -147 260.5t-306 99.5q-171 0 -280 -85.5t-109 -213.5q0 -42 12.5 -78t37 -62.5t50 -46.5t64 -36.5t65.5 -25.5t66 -21l305 -92q31 -9 52 -16t59 -24t65 -35t59 -47.5t52 -64t33.5 -82.5t13.5 -104q0 -190 -139 -303t-373 -113z" />
    <glyph glyph-name="sacute" unicode="&#x15b;" horiz-adv-x="1052" 
d="M579 1567h98l-98 -277h-68zM547 -29q-188 0 -312 78.5t-153 216.5l88 17q28 -103 130 -164.5t249 -61.5q151 0 239.5 65t88.5 175q0 63 -28.5 100t-101.5 68t-229 74q-161 44 -246 84t-121 90t-36 125q0 132 114 215.5t295 83.5q183 0 308.5 -89.5t138.5 -230.5l-88 -16
q-20 115 -118.5 182.5t-246.5 67.5q-138 2 -225.5 -56.5t-87.5 -152.5q0 -78 71 -125t267 -96q169 -43 259.5 -86t128.5 -99t38 -143q0 -151 -112.5 -236.5t-309.5 -85.5z" />
    <glyph glyph-name="Scircumflex" unicode="&#x15c;" horiz-adv-x="1206" 
d="M367 1659l204 246h95l204 -246h-102l-150 174l-149 -174h-102zM633 -31q-224 0 -378 107.5t-194 290.5l86 16q40 -152 170 -240t316 -88q194 0 311 90.5t117 239.5q0 57 -20 103.5t-45.5 74.5t-67.5 51.5t-69 33.5t-66 22l-369 110q-305 90 -305 338q0 170 134 278.5
t347 108.5q217 0 364 -117.5t175 -312.5l-86 -16q-22 161 -147 260.5t-306 99.5q-171 0 -280 -85.5t-109 -213.5q0 -42 12.5 -78t37 -62.5t50 -46.5t64 -36.5t65.5 -25.5t66 -21l305 -92q31 -9 52 -16t59 -24t65 -35t59 -47.5t52 -64t33.5 -82.5t13.5 -104q0 -190 -139 -303
t-373 -113z" />
    <glyph glyph-name="scircumflex" unicode="&#x15d;" horiz-adv-x="1052" 
d="M295 1290l205 246h94l205 -246h-103l-149 174l-150 -174h-102zM547 -29q-188 0 -312 78.5t-153 216.5l88 17q28 -103 130 -164.5t249 -61.5q151 0 239.5 65t88.5 175q0 63 -28.5 100t-101.5 68t-229 74q-161 44 -246 84t-121 90t-36 125q0 132 114 215.5t295 83.5
q183 0 308.5 -89.5t138.5 -230.5l-88 -16q-20 115 -118.5 182.5t-246.5 67.5q-138 2 -225.5 -56.5t-87.5 -152.5q0 -78 71 -125t267 -96q169 -43 259.5 -86t128.5 -99t38 -143q0 -151 -112.5 -236.5t-309.5 -85.5z" />
    <glyph glyph-name="Scedilla" unicode="&#x15e;" horiz-adv-x="1206" 
d="M584 -489q-58 0 -123 28l28 76q54 -21 89 -21q44 0 70 29t26 68q0 31 -21 53.5t-40.5 31t-64.5 23.5q-7 3 -11 4l61 167q-211 8 -355 114.5t-182 282.5l86 16q40 -152 170 -240t316 -88q194 0 311 90.5t117 239.5q0 57 -20 103.5t-45.5 74.5t-67.5 51.5t-69 33.5t-66 22
l-369 110q-305 90 -305 338q0 170 134 278.5t347 108.5q217 0 364 -117.5t175 -312.5l-86 -16q-22 161 -147 260.5t-306 99.5q-171 0 -280 -85.5t-109 -213.5q0 -42 12.5 -78t37 -62.5t50 -46.5t64 -36.5t65.5 -25.5t66 -21l305 -92q31 -9 52 -16t59 -24t65 -35t59 -47.5
t52 -64t33.5 -82.5t13.5 -104q0 -179 -124.5 -290.5t-336.5 -124.5l-43 -115q123 -51 123 -168q0 -73 -53 -124.5t-127 -51.5z" />
    <glyph glyph-name="scedilla" unicode="&#x15f;" horiz-adv-x="1052" 
d="M514 -489q-58 0 -123 28l29 76q54 -21 88 -21q44 0 70 29t26 68q0 31 -21 53.5t-40.5 31t-64.5 23.5q-7 3 -11 4l62 168q-181 4 -300 82t-147 213l88 17q28 -103 130 -164.5t249 -61.5q151 0 239.5 65t88.5 175q0 63 -28.5 100t-101.5 68t-229 74q-161 44 -246 84
t-121 90t-36 125q0 132 114 215.5t295 83.5q183 0 308.5 -89.5t138.5 -230.5l-88 -16q-20 115 -118.5 182.5t-246.5 67.5q-138 2 -225.5 -56.5t-87.5 -152.5q0 -78 71 -125t267 -96q169 -43 259.5 -86t128.5 -99t38 -143q0 -136 -94 -220.5t-260 -98.5l-44 -119
q123 -51 123 -168q0 -73 -53 -124.5t-127 -51.5z" />
    <glyph glyph-name="Scaron" unicode="&#x160;" horiz-adv-x="1206" 
d="M379 1905h102l150 -174l149 174h103l-205 -246h-94zM633 -31q-224 0 -378 107.5t-194 290.5l86 16q40 -152 170 -240t316 -88q194 0 311 90.5t117 239.5q0 57 -20 103.5t-45.5 74.5t-67.5 51.5t-69 33.5t-66 22l-369 110q-305 90 -305 338q0 170 134 278.5t347 108.5
q217 0 364 -117.5t175 -312.5l-86 -16q-22 161 -147 260.5t-306 99.5q-171 0 -280 -85.5t-109 -213.5q0 -42 12.5 -78t37 -62.5t50 -46.5t64 -36.5t65.5 -25.5t66 -21l305 -92q31 -9 52 -16t59 -24t65 -35t59 -47.5t52 -64t33.5 -82.5t13.5 -104q0 -190 -139 -303t-373 -113
z" />
    <glyph glyph-name="scaron" unicode="&#x161;" horiz-adv-x="1052" 
d="M301 1536h102l150 -174l149 174h103l-205 -246h-94zM547 -29q-188 0 -312 78.5t-153 216.5l88 17q28 -103 130 -164.5t249 -61.5q151 0 239.5 65t88.5 175q0 63 -28.5 100t-101.5 68t-229 74q-161 44 -246 84t-121 90t-36 125q0 132 114 215.5t295 83.5
q183 0 308.5 -89.5t138.5 -230.5l-88 -16q-20 115 -118.5 182.5t-246.5 67.5q-138 2 -225.5 -56.5t-87.5 -152.5q0 -78 71 -125t267 -96q169 -43 259.5 -86t128.5 -99t38 -143q0 -151 -112.5 -236.5t-309.5 -85.5z" />
    <glyph glyph-name="uni0162" unicode="&#x162;" horiz-adv-x="1208" 
d="M530 -504q-55 0 -122 29l28 76q54 -21 88 -21q44 0 70.5 28.5t26.5 67.5q0 24 -10.5 42t-30 30t-40 20.5t-47.5 17.5q-7 2 -10 3l78 211v1389h-541v86h1168v-86h-541v-1389l-59 -160q123 -51 123 -168q0 -73 -53.5 -124.5t-127.5 -51.5z" />
    <glyph glyph-name="uni0163" unicode="&#x163;" horiz-adv-x="776" 
d="M416 -489q-58 0 -123 28l29 76q54 -21 88 -21q44 0 70 29t26 68q0 31 -21 53.5t-40.5 31t-64.5 23.5q-7 3 -11 4l75 205q-93 37 -133 121q-5 11 -9 22t-7 20.5t-5 23t-3.5 21.5t-2.5 23.5t-1.5 22.5t-1 25.5t-0.5 24.5v27.5v27.5v653h-261v86h261v307h86v-307h348v-86
h-348v-653v-43.5v-40.5t1 -31.5t3.5 -32t6.5 -25t11 -26.5q36 -71 117 -90.5t209 4.5v-82q-106 -22 -192 -11l-50 -134q123 -51 123 -168q0 -73 -53 -124.5t-127 -51.5z" />
    <glyph glyph-name="Tcaron" unicode="&#x164;" horiz-adv-x="1208" 
d="M352 1905h103l149 -174l150 174h102l-205 -246h-94zM561 0v1389h-541v86h1168v-86h-541v-1389h-86z" />
    <glyph glyph-name="tcaron" unicode="&#x165;" horiz-adv-x="776" 
d="M653 1638h96l-126 -430h-68zM715 0q-87 -17 -164.5 -14t-143.5 39.5t-96 103.5q-5 11 -9 22t-7 20.5t-5 23t-3.5 21.5t-2.5 23.5t-1.5 22.5t-1 25.5t-0.5 24.5v27.5v27.5v653h-261v86h261v307h86v-307h348v-86h-348v-653v-43.5v-40.5t1 -31.5t3.5 -32t6.5 -25t11 -26.5
q36 -71 117 -90.5t209 4.5v-82z" />
    <glyph glyph-name="Tbar" unicode="&#x166;" horiz-adv-x="1208" 
d="M561 0v694h-387v86h387v609h-541v86h1168v-86h-541v-609h387v-86h-387v-694h-86z" />
    <glyph glyph-name="tbar" unicode="&#x167;" horiz-adv-x="817" 
d="M20 510v86h261v424h-261v86h261v307h86v-307h348v-86h-348v-424h348v-86h-348v-143v-43.5v-40.5t1 -31.5t3.5 -32t6.5 -25t11 -26.5q36 -71 117 -90.5t209 4.5v-82q-87 -17 -164.5 -14t-143.5 39.5t-96 103.5q-5 11 -9 22t-7 20.5t-5 23t-3.5 21.5t-2.5 23.5t-1.5 22.5
t-1 25.5t-0.5 24.5v27.5v27.5v143h-261z" />
    <glyph glyph-name="Utilde" unicode="&#x168;" horiz-adv-x="1413" 
d="M854 1659q-45 0 -100 24.5t-105.5 49t-83.5 24.5q-41 0 -54 -28t-1 -60h-74q-19 70 20.5 120t110.5 50q58 0 155.5 -49t135.5 -49q37 0 52 27.5t3 64.5h74q19 -69 -20.5 -121.5t-112.5 -52.5zM707 -31q-248 0 -406 152.5t-158 400.5v953h86v-924q0 -105 31 -191.5
t80.5 -142.5t113.5 -94.5t127.5 -55t125.5 -16.5t125.5 16.5t127.5 55t113 94.5t80 142.5t31 191.5v924h86v-953q0 -247 -157.5 -400t-405.5 -153z" />
    <glyph glyph-name="utilde" unicode="&#x169;" 
d="M743 1290q-45 0 -99.5 25t-105 49.5t-83.5 24.5q-41 0 -54.5 -28.5t-1.5 -60.5h-73q-19 70 20.5 120t110.5 50q58 0 155.5 -49t135.5 -49q37 0 52 27.5t3 64.5h74q19 -69 -21 -121.5t-113 -52.5zM571 -25q-210 0 -329 141t-119 388v602h86v-586q0 -232 93.5 -346.5
t268.5 -114.5q98 0 171.5 35t116.5 97.5t64 140.5t21 170v604h86v-1106h-80v179q-59 -103 -158 -153.5t-221 -50.5z" />
    <glyph glyph-name="Umacron" unicode="&#x16a;" horiz-adv-x="1413" 
d="M461 1720v86h491v-86h-491zM707 -31q-248 0 -406 152.5t-158 400.5v953h86v-924q0 -105 31 -191.5t80.5 -142.5t113.5 -94.5t127.5 -55t125.5 -16.5t125.5 16.5t127.5 55t113 94.5t80 142.5t31 191.5v924h86v-953q0 -247 -157.5 -400t-405.5 -153z" />
    <glyph glyph-name="umacron" unicode="&#x16b;" 
d="M330 1352v86h491v-86h-491zM571 -25q-210 0 -329 141t-119 388v602h86v-586q0 -232 93.5 -346.5t268.5 -114.5q98 0 171.5 35t116.5 97.5t64 140.5t21 170v604h86v-1106h-80v179q-59 -103 -158 -153.5t-221 -50.5z" />
    <glyph glyph-name="Ubreve" unicode="&#x16c;" horiz-adv-x="1413" 
d="M707 1610q-97 0 -165.5 68t-68.5 165h80q0 -63 45.5 -108t108.5 -45q64 0 108.5 45t44.5 108h80q0 -97 -68 -165t-165 -68zM707 -31q-248 0 -406 152.5t-158 400.5v953h86v-924q0 -105 31 -191.5t80.5 -142.5t113.5 -94.5t127.5 -55t125.5 -16.5t125.5 16.5t127.5 55
t113 94.5t80 142.5t31 191.5v924h86v-953q0 -247 -157.5 -400t-405.5 -153z" />
    <glyph glyph-name="ubreve" unicode="&#x16d;" 
d="M577 1241q-97 0 -165.5 68.5t-68.5 165.5h80q0 -63 45.5 -108.5t108.5 -45.5q64 0 108.5 45.5t44.5 108.5h80q0 -97 -68 -165.5t-165 -68.5zM571 -25q-210 0 -329 141t-119 388v602h86v-586q0 -232 93.5 -346.5t268.5 -114.5q98 0 171.5 35t116.5 97.5t64 140.5t21 170
v604h86v-1106h-80v179q-59 -103 -158 -153.5t-221 -50.5z" />
    <glyph glyph-name="Uring" unicode="&#x16e;" horiz-adv-x="1413" 
d="M707 1597q-82 0 -140.5 58t-58.5 141q0 82 58.5 140.5t140.5 58.5q83 0 140.5 -58.5t57.5 -140.5q0 -83 -57.5 -141t-140.5 -58zM707 1683q47 0 79.5 33.5t32.5 79.5q0 47 -32.5 80t-79.5 33q-46 0 -79.5 -33.5t-33.5 -79.5t33.5 -79.5t79.5 -33.5zM707 -31
q-248 0 -406 152.5t-158 400.5v953h86v-924q0 -105 31 -191.5t80.5 -142.5t113.5 -94.5t127.5 -55t125.5 -16.5t125.5 16.5t127.5 55t113 94.5t80 142.5t31 191.5v924h86v-953q0 -247 -157.5 -400t-405.5 -153z" />
    <glyph glyph-name="uring" unicode="&#x16f;" 
d="M578 1229q-82 0 -140.5 57.5t-58.5 140.5q0 82 58.5 140.5t140.5 58.5q83 0 140.5 -58.5t57.5 -140.5q0 -83 -57.5 -140.5t-140.5 -57.5zM578 1315q47 0 79.5 33t32.5 79q0 47 -32.5 80t-79.5 33q-46 0 -79.5 -33.5t-33.5 -79.5t33.5 -79t79.5 -33zM571 -25
q-210 0 -329 141t-119 388v602h86v-586q0 -232 93.5 -346.5t268.5 -114.5q98 0 171.5 35t116.5 97.5t64 140.5t21 170v604h86v-1106h-80v179q-59 -103 -158 -153.5t-221 -50.5z" />
    <glyph glyph-name="Uhungarumlaut" unicode="&#x170;" horiz-adv-x="1413" 
d="M918 1935h98l-98 -276h-68zM559 1935h98l-98 -276h-67zM707 -31q-248 0 -406 152.5t-158 400.5v953h86v-924q0 -105 31 -191.5t80.5 -142.5t113.5 -94.5t127.5 -55t125.5 -16.5t125.5 16.5t127.5 55t113 94.5t80 142.5t31 191.5v924h86v-953q0 -247 -157.5 -400
t-405.5 -153z" />
    <glyph glyph-name="uhungarumlaut" unicode="&#x171;" 
d="M794 1567h98l-98 -277h-68zM435 1567h99l-99 -277h-67zM571 -25q-210 0 -329 141t-119 388v602h86v-586q0 -232 93.5 -346.5t268.5 -114.5q98 0 171.5 35t116.5 97.5t64 140.5t21 170v604h86v-1106h-80v179q-59 -103 -158 -153.5t-221 -50.5z" />
    <glyph glyph-name="Uogonek" unicode="&#x172;" horiz-adv-x="1413" 
d="M707 -31q-248 0 -406 152.5t-158 400.5v953h86v-924q0 -105 31 -191.5t80.5 -142.5t113.5 -94.5t127.5 -55t125.5 -16.5t125.5 16.5t127.5 55t113 94.5t80 142.5t31 191.5v924h86v-953q0 -153 -64 -273.5t-177 -192.5q-91 -65 -152.5 -146.5t-61.5 -149.5q0 -44 27 -73
t63 -29q55 0 107 59l51 -57q-66 -84 -158 -84q-72 0 -126 55t-54 129q0 97 96 218q-56 -9 -114 -9z" />
    <glyph glyph-name="uogonek" unicode="&#x173;" 
d="M571 -25q-210 0 -329 141t-119 388v602h86v-586q0 -232 93.5 -346.5t268.5 -114.5q98 0 171.5 35t116.5 97.5t64 140.5t21 170v604h86v-1106q-98 -64 -166.5 -151.5t-68.5 -159.5q0 -45 27 -74t63 -29q53 0 106 60l51 -58q-66 -84 -157 -84q-72 0 -126 55.5t-54 129.5
q0 84 67.5 180t177.5 185v125q-59 -103 -158 -153.5t-221 -50.5z" />
    <glyph glyph-name="Wcircumflex" unicode="&#x174;" horiz-adv-x="1861" 
d="M680 1659l205 246h94l205 -246h-103l-149 174l-150 -174h-102zM463 0l-422 1475h88l379 -1319l377 1319h90l379 -1319l377 1319h90l-422 -1475h-90l-379 1317l-377 -1317h-90z" />
    <glyph glyph-name="wcircumflex" unicode="&#x175;" horiz-adv-x="1523" 
d="M510 1290l205 246h94l205 -246h-103l-149 174l-150 -174h-102zM379 0l-338 1106h90l293 -959l293 959h90l293 -959l295 959h88l-338 -1106h-90l-293 961l-293 -961h-90z" />
    <glyph glyph-name="Ycircumflex" unicode="&#x176;" horiz-adv-x="1062" 
d="M281 1659l204 246h95l204 -246h-102l-150 174l-149 -174h-102zM489 0v627l-489 848h98l434 -750l433 750h98l-488 -848v-627h-86z" />
    <glyph glyph-name="ycircumflex" unicode="&#x177;" horiz-adv-x="1036" 
d="M283 1290l204 246h95l204 -246h-102l-149 174l-150 -174h-102zM309 -492l183 491l-451 1107h94l400 -988l358 988h92l-579 -1598h-97z" />
    <glyph glyph-name="Ydieresis" unicode="&#x178;" horiz-adv-x="1062" 
d="M717 1707q-32 0 -54 21.5t-22 53.5t22 54t54 22t54 -22t22 -54q0 -31 -22 -53t-54 -22zM348 1707q-32 0 -54 21.5t-22 53.5t22 54t54 22t54 -22t22 -54q0 -31 -22 -53t-54 -22zM489 0v627l-489 848h98l434 -750l433 750h98l-488 -848v-627h-86z" />
    <glyph glyph-name="Zacute" unicode="&#x179;" horiz-adv-x="1189" 
d="M622 1935h98l-98 -276h-68zM102 0v31l859 1358h-859v86h985v-35l-854 -1356h854v-84h-985z" />
    <glyph glyph-name="zacute" unicode="&#x17a;" horiz-adv-x="1079" 
d="M630 1567h98l-98 -277h-68zM41 0v31l799 985h-750v90h907v-35l-798 -981h749v-90h-907z" />
    <glyph glyph-name="Zdotaccent" unicode="&#x17b;" horiz-adv-x="1189" 
d="M649 1707q-32 0 -54 21.5t-22 53.5t22 54t54 22t54 -22t22 -54q0 -31 -22 -53t-54 -22zM102 0v31l859 1358h-859v86h985v-35l-854 -1356h854v-84h-985z" />
    <glyph glyph-name="zdotaccent" unicode="&#x17c;" horiz-adv-x="1079" 
d="M545 1338q-32 0 -54 21.5t-22 53.5t22 54t54 22t54 -22t22 -54q0 -31 -22 -53t-54 -22zM41 0v31l799 985h-750v90h907v-35l-798 -981h749v-90h-907z" />
    <glyph glyph-name="Zcaron" unicode="&#x17d;" horiz-adv-x="1189" 
d="M395 1905h103l149 -174l150 174h102l-205 -246h-94zM102 0v31l859 1358h-859v86h985v-35l-854 -1356h854v-84h-985z" />
    <glyph glyph-name="zcaron" unicode="&#x17e;" horiz-adv-x="1079" 
d="M313 1536h103l149 -174l150 174h102l-205 -246h-94zM41 0v31l799 985h-750v90h907v-35l-798 -981h749v-90h-907z" />
    <glyph glyph-name="florin" unicode="&#x192;" horiz-adv-x="1482" 
d="M311 -31q-57 0 -121.5 16t-89.5 26.5t-39 17.5l37 77q1 0 13 -5.5t33 -13t47 -14.5t59 -12.5t63 -5.5q34 0 65.5 6.5t71 27.5t71 55.5t59.5 96.5t41 144l50 309h-405v86h419l60 369q11 68 35.5 123t54 91t68.5 63.5t73.5 42t74 23t66 11t52.5 2.5q22 0 45 -2t43 -5
t39.5 -7.5t35.5 -9t30.5 -9.5t25.5 -9.5t18.5 -8.5t11.5 -6.5t3 -3.5l-43 -74q-11 5 -29.5 13.5t-75 22t-110.5 13.5q-34 0 -66 -4.5t-77.5 -21.5t-81 -46t-66.5 -84t-43 -128l-58 -355h505v-86h-518l-53 -323q-17 -103 -54.5 -180t-79 -118t-94.5 -66t-90.5 -31.5
t-75.5 -6.5z" />
    <glyph glyph-name="Ohorn" unicode="&#x1a0;" horiz-adv-x="1445" 
d="M723 -31q-162 0 -288.5 56.5t-208 158.5t-123.5 242.5t-42 310.5t42 310.5t123.5 242.5t208 158.5t288.5 56.5q99 0 190 -22h1l21 -6q81 -20 137 7q52 26 66 70.5t6 110.5h86q26 -161 -63 -228q-35 -25 -71 -34q143 -95 215.5 -267t72.5 -399q0 -171 -42 -310.5
t-123 -242t-207.5 -159t-288.5 -56.5zM723 55q139 0 248 50t179 141.5t106 215.5t36 275t-36 275t-106 215.5t-179 141.5t-248 50t-247.5 -50t-178 -141.5t-105.5 -215.5t-38 -275q-2 -202 60.5 -354t193 -240t315.5 -88z" />
    <glyph glyph-name="ohorn" unicode="&#x1a1;" horiz-adv-x="1175" 
d="M588 -31q-161 0 -276 75t-172.5 206.5t-57.5 304.5q0 265 134 423.5t372 158.5q95 0 182 -29q99 -30 159 1q52 26 65.5 70.5t5.5 110.5h86q26 -162 -62 -228q-48 -34 -105 -41q175 -154 175 -466q0 -268 -133 -427t-373 -159zM588 55q203 0 308 135t105 365
q0 231 -105.5 363.5t-307.5 132.5q-204 0 -309 -134.5t-105 -361.5q0 -231 107 -365.5t307 -134.5z" />
    <glyph glyph-name="Uhorn" unicode="&#x1af;" horiz-adv-x="1413" 
d="M707 -31q-248 0 -406 152.5t-158 400.5v953h86v-924q0 -105 31 -191.5t80.5 -142.5t113.5 -94.5t127.5 -55t125.5 -16.5t125.5 16.5t127.5 55t113 94.5t80 142.5t31 191.5v924q80 3 98 7q40 9 58.5 38t17 64.5t-4.5 74.5h86q26 -164 -62 -229q-42 -32 -107 -34v-874
q0 -247 -157.5 -400t-405.5 -153z" />
    <glyph glyph-name="uhorn" unicode="&#x1b0;" 
d="M571 -25q-210 0 -329 141t-119 388v602h86v-586q0 -232 93.5 -346.5t268.5 -114.5q98 0 171.5 35t116.5 97.5t64 140.5t21 170v604q80 3 98 7q40 9 58.5 38t17 64.5t-4.5 74.5h86q6 -46 6.5 -86.5t-16 -78.5t-51.5 -64q-42 -32 -108 -34v-1027h-80v179
q-59 -103 -158 -153.5t-221 -50.5z" />
    <glyph glyph-name="uni0218" unicode="&#x218;" horiz-adv-x="1206" 
d="M633 -31q-224 0 -378 107.5t-194 290.5l86 16q40 -152 170 -240t316 -88q194 0 311 90.5t117 239.5q0 57 -20 103.5t-45.5 74.5t-67.5 51.5t-69 33.5t-66 22l-369 110q-305 90 -305 338q0 170 134 278.5t347 108.5q217 0 364 -117.5t175 -312.5l-86 -16
q-22 161 -147 260.5t-306 99.5q-171 0 -280 -85.5t-109 -213.5q0 -42 12.5 -78t37 -62.5t50 -46.5t64 -36.5t65.5 -25.5t66 -21l305 -92q31 -9 52 -16t59 -24t65 -35t59 -47.5t52 -64t33.5 -82.5t13.5 -104q0 -190 -139 -303t-373 -113zM643 -246h98l-98 -276h-68z" />
    <glyph glyph-name="uni0219" unicode="&#x219;" horiz-adv-x="1052" 
d="M547 -29q-188 0 -312 78.5t-153 216.5l88 17q28 -103 130 -164.5t249 -61.5q151 0 239.5 65t88.5 175q0 63 -28.5 100t-101.5 68t-229 74q-161 44 -246 84t-121 90t-36 125q0 132 114 215.5t295 83.5q183 0 308.5 -89.5t138.5 -230.5l-88 -16q-20 115 -118.5 182.5
t-246.5 67.5q-138 2 -225.5 -56.5t-87.5 -152.5q0 -78 71 -125t267 -96q169 -43 259.5 -86t128.5 -99t38 -143q0 -151 -112.5 -236.5t-309.5 -85.5zM518 -246h98l-98 -276h-67z" />
    <glyph glyph-name="uni021A" unicode="&#x21a;" horiz-adv-x="1208" 
d="M561 0v1389h-541v86h1168v-86h-541v-1389h-86zM590 -246h98l-98 -276h-68z" />
    <glyph glyph-name="uni021B" unicode="&#x21b;" horiz-adv-x="776" 
d="M715 0q-87 -17 -164.5 -14t-143.5 39.5t-96 103.5q-5 11 -9 22t-7 20.5t-5 23t-3.5 21.5t-2.5 23.5t-1.5 22.5t-1 25.5t-0.5 24.5v27.5v27.5v653h-261v86h261v307h86v-307h348v-86h-348v-653v-43.5v-40.5t1 -31.5t3.5 -32t6.5 -25t11 -26.5q36 -71 117 -90.5t209 4.5v-82
zM371 -246h98l-98 -276h-68z" />
    <glyph glyph-name="uni0259" unicode="&#x259;" 
d="M586 1137q235 0 370.5 -157t135.5 -427q0 -272 -135 -428t-371 -156q-238 0 -371 160.5t-133 448.5h917q-6 225 -114 349t-299 124q-136 0 -240 -64t-166 -186l-71 41q68 141 192 218t285 77zM586 55q183 0 290 114t121 323h-820q18 -212 123 -324.5t286 -112.5z" />
    <glyph glyph-name="circumflex" unicode="&#x2c6;" horiz-adv-x="995" 
d="M246 1659l205 246h94l205 -246h-103l-149 174l-150 -174h-102z" />
    <glyph glyph-name="caron" unicode="&#x2c7;" horiz-adv-x="970" 
d="M246 1905h102l150 -174l149 174h103l-205 -246h-94z" />
    <glyph glyph-name="breve" unicode="&#x2d8;" horiz-adv-x="958" 
d="M479 1610q-97 0 -165 68t-68 165h80q0 -63 45 -108t108 -45q64 0 109 45t45 108h80q0 -97 -68.5 -165t-165.5 -68z" />
    <glyph glyph-name="dotaccent" unicode="&#x2d9;" horiz-adv-x="614" 
d="M307 1707q-32 0 -54 21.5t-22 53.5t22 54t54 22t54 -22t22 -54q0 -31 -22 -53t-54 -22z" />
    <glyph glyph-name="ring" unicode="&#x2da;" horiz-adv-x="897" 
d="M449 1597q-82 0 -140.5 58t-58.5 141q0 82 58.5 140.5t140.5 58.5q83 0 140.5 -58.5t57.5 -140.5q0 -83 -57.5 -141t-140.5 -58zM449 1683q47 0 79.5 33.5t32.5 79.5q0 47 -32.5 80t-79.5 33q-46 0 -79.5 -33.5t-33.5 -79.5t33.5 -79.5t79.5 -33.5z" />
    <glyph glyph-name="ogonek" unicode="&#x2db;" horiz-adv-x="831" 
d="M426 -496q-72 0 -126 55.5t-54 129.5q0 87 73 187t189 192l63 -68q-98 -64 -166.5 -151.5t-68.5 -159.5q0 -45 27 -74t63 -29q53 0 106 60l52 -58q-66 -84 -158 -84z" />
    <glyph glyph-name="tilde" unicode="&#x2dc;" horiz-adv-x="1054" 
d="M670 1659q-45 0 -100 24.5t-105 49t-84 24.5q-41 0 -54 -28t-1 -60h-74q-19 70 20.5 120t110.5 50q58 0 155.5 -49t135.5 -49q37 0 52 27.5t3 64.5h74q19 -69 -20.5 -121.5t-112.5 -52.5z" />
    <glyph glyph-name="hungarumlaut" unicode="&#x2dd;" horiz-adv-x="1017" 
d="M677 1935h98l-98 -276h-68zM318 1935h99l-99 -276h-67z" />
    <glyph glyph-name="uni0374" unicode="&#x374;" horiz-adv-x="452" 
d="M190 1475h99l-99 -277h-67z" />
    <glyph glyph-name="uni0375" unicode="&#x375;" horiz-adv-x="452" 
d="M190 -104h99l-99 -277h-67z" />
    <glyph glyph-name="uni037E" unicode="&#x37e;" horiz-adv-x="573" 
d="M287 977q-32 0 -54 21.5t-22 53.5t22 53.5t54 21.5t53.5 -21.5t21.5 -53.5t-22 -53.5t-53 -21.5zM274 184h96l-126 -430h-68z" />
    <glyph glyph-name="tonos" unicode="&#x384;" horiz-adv-x="1228" 
d="M600 1475h98l-98 -277h-68z" />
    <glyph glyph-name="dieresistonos" unicode="&#x385;" horiz-adv-x="1228" 
d="M616 1567h99l-99 -277h-67zM840 1334q-32 0 -54 21.5t-22 53.5t22 54t54 22t53.5 -22t21.5 -54q0 -31 -21.5 -53t-53.5 -22zM391 1334q-32 0 -54 21.5t-22 53.5t22 54t54 22t54 -22t22 -54q0 -31 -22 -53t-54 -22z" />
    <glyph glyph-name="Alphatonos" unicode="&#x386;" horiz-adv-x="1247" 
d="M41 0l537 1475h92l536 -1475h-92l-139 383h-703l-139 -383h-92zM231 1475h99l-99 -277h-67zM302 465h643l-322 886z" />
    <glyph glyph-name="anoteleia" unicode="&#x387;" horiz-adv-x="1228" 
d="M207 563q-35 0 -59.5 23.5t-24.5 58.5t24.5 58.5t59.5 23.5q33 0 56.5 -23.5t23.5 -58.5t-23.5 -58.5t-56.5 -23.5z" />
    <glyph glyph-name="Epsilontonos" unicode="&#x388;" horiz-adv-x="1392" 
d="M389 0v1475h901v-86h-815v-609h692v-86h-692v-608h815v-86h-901zM131 1475h98l-98 -277h-68z" />
    <glyph glyph-name="Etatonos" unicode="&#x389;" horiz-adv-x="1599" 
d="M391 0v1475h86v-695h893v695h86v-1475h-86v694h-893v-694h-86zM131 1475h98l-98 -277h-68z" />
    <glyph glyph-name="Iotatonos" unicode="&#x38a;" horiz-adv-x="617" 
d="M388 0v1475h86v-1475h-86zM131 1475h98l-98 -277h-68z" />
    <glyph glyph-name="Omicrontonos" unicode="&#x38c;" horiz-adv-x="1628" 
d="M905 -31q-162 0 -288.5 56.5t-207.5 159t-123 242t-42 310.5t42 310.5t123 242t207.5 159t288.5 56.5t288.5 -56.5t208 -158.5t123.5 -242.5t42 -310.5t-42 -310.5t-123.5 -242.5t-208 -158.5t-288.5 -56.5zM160 1475h98l-98 -277h-68zM905 55q185 0 315 88t192.5 240
t62.5 354t-62.5 354t-192.5 240t-315 88q-139 0 -247.5 -50t-178 -141.5t-105.5 -215.5t-38 -275q-2 -202 60.5 -354t193 -240t315.5 -88z" />
    <glyph glyph-name="Upsilontonos" unicode="&#x38e;" horiz-adv-x="1400" 
d="M827 0v627l-489 848h98l434 -750l433 750h98l-488 -848v-627h-86zM172 1475h98l-98 -277h-68z" />
    <glyph glyph-name="Omegatonos" unicode="&#x38f;" horiz-adv-x="1660" 
d="M236 0v86h321q-151 114 -236 287.5t-85 394.5q0 156 45 290.5t127.5 233t208.5 155t280 56.5t280 -56.5t209 -155t128 -233t45 -290.5q0 -221 -85.5 -394.5t-236.5 -287.5h319v-86h-462l2 86q64 33 124.5 90t116 137.5t90.5 191t39 232.5q4 136 -34.5 259t-110 216.5
t-182 149t-242.5 55.5q-131 0 -239.5 -54.5t-180 -146.5t-110.5 -213t-39 -255q0 -127 35 -240.5t91.5 -194.5t118 -137.5t125.5 -89.5v-86h-462zM160 1475h98l-98 -277h-68z" />
    <glyph glyph-name="iotadieresistonos" unicode="&#x390;" horiz-adv-x="659" 
d="M242 1567h98l-98 -277h-68zM465 1334q-32 0 -54 21.5t-22 53.5t22 54t54 22t54 -22t22 -54q0 -31 -22 -53t-54 -22zM16 1334q-32 0 -53.5 21.5t-21.5 53.5t21.5 54t53.5 22t54 -22t22 -54q0 -31 -22 -53t-54 -22zM371 -10q-153 19 -209 139q-16 34 -23 77t-7.5 68
t-0.5 93v739h86v-739q0 -15 -0.5 -43.5t0 -39.5t1.5 -31t3.5 -31.5t7 -26.5t11.5 -29q42 -80 141 -92q102 -10 184 8v-82q-104 -22 -194 -10z" />
    <glyph glyph-name="Alpha" unicode="&#x391;" horiz-adv-x="1247" 
d="M41 0l537 1475h92l536 -1475h-92l-139 383h-703l-139 -383h-92zM302 465h643l-322 886z" />
    <glyph glyph-name="Beta" unicode="&#x392;" horiz-adv-x="1230" 
d="M143 0v1475h559q164 0 280 -102.5t116 -260.5q0 -101 -51.5 -189t-138.5 -138q124 -55 193.5 -153.5t69.5 -234.5q0 -184 -122 -290.5t-308 -106.5h-598zM229 819h473q125 0 214.5 87t89.5 212q0 121 -87 197t-217 76h-473v-572zM229 86h471q165 0 271 81t106 222
q0 144 -98.5 245t-237.5 101h-512v-649z" />
    <glyph glyph-name="Gamma" unicode="&#x393;" horiz-adv-x="1064" 
d="M143 0v1475h901v-86h-815v-1389h-86z" />
    <glyph glyph-name="uni0394" unicode="&#x394;" horiz-adv-x="1247" 
d="M578 1475h92l536 -1475h-1165zM623 1350l-459 -1264h918z" />
    <glyph glyph-name="Epsilon" unicode="&#x395;" horiz-adv-x="1146" 
d="M143 0v1475h901v-86h-815v-609h693v-86h-693v-608h815v-86h-901z" />
    <glyph glyph-name="Zeta" unicode="&#x396;" horiz-adv-x="1189" 
d="M102 0v31l859 1358h-859v86h985v-35l-854 -1356h854v-84h-985z" />
    <glyph glyph-name="Eta" unicode="&#x397;" horiz-adv-x="1351" 
d="M143 0v1475h86v-695h893v695h86v-1475h-86v694h-893v-694h-86z" />
    <glyph glyph-name="Theta" unicode="&#x398;" horiz-adv-x="1445" 
d="M723 -31q-162 0 -288.5 56.5t-208 158.5t-123.5 242.5t-42 310.5t42 310.5t123.5 242.5t208 158.5t288.5 56.5t288.5 -56.5t207.5 -159t123 -242t42 -310.5t-42 -310.5t-123 -242t-207.5 -159t-288.5 -56.5zM723 55q139 0 248 50t179 141.5t106 215.5t36 275t-36 275
t-106 215.5t-179 141.5t-248 50t-247.5 -50t-178 -141.5t-105.5 -215.5t-38 -275q-2 -202 60.5 -354t193 -240t315.5 -88zM477 694v86h492v-86h-492z" />
    <glyph glyph-name="Iota" unicode="&#x399;" horiz-adv-x="413" 
d="M164 0v1475h86v-1475h-86z" />
    <glyph glyph-name="Kappa" unicode="&#x39a;" horiz-adv-x="1142" 
d="M143 0v1475h86v-773l730 773h118l-600 -635l666 -840h-118l-609 775l-187 -196v-579h-86z" />
    <glyph glyph-name="Lambda" unicode="&#x39b;" horiz-adv-x="1185" 
d="M547 1475h92l537 -1475h-93l-491 1350l-490 -1350h-92z" />
    <glyph glyph-name="Mu" unicode="&#x39c;" horiz-adv-x="1701" 
d="M143 0v1475h82l627 -1371l621 1371h86v-1473h-86v1266l-574 -1268h-96l-574 1268v-1268h-86z" />
    <glyph glyph-name="Nu" unicode="&#x39d;" horiz-adv-x="1355" 
d="M143 0v1475h86l897 -1321v1321h86v-1475h-86l-897 1323v-1323h-86z" />
    <glyph glyph-name="Xi" unicode="&#x39e;" horiz-adv-x="1372" 
d="M143 1389v86h1086v-86h-1086zM246 694v86h880v-86h-880zM143 0v86h1086v-86h-1086z" />
    <glyph glyph-name="Omicron" unicode="&#x39f;" horiz-adv-x="1445" 
d="M723 -31q-162 0 -288.5 56.5t-208 158.5t-123.5 242.5t-42 310.5t42 310.5t123.5 242.5t208 158.5t288.5 56.5t288.5 -56.5t207.5 -159t123 -242t42 -310.5t-42 -310.5t-123 -242t-207.5 -159t-288.5 -56.5zM723 55q139 0 248 50t179 141.5t106 215.5t36 275t-36 275
t-106 215.5t-179 141.5t-248 50t-247.5 -50t-178 -141.5t-105.5 -215.5t-38 -275q-2 -202 60.5 -354t193 -240t315.5 -88z" />
    <glyph glyph-name="Pi" unicode="&#x3a0;" horiz-adv-x="1372" 
d="M143 0v1475h1086v-1475h-86v1389h-914v-1389h-86z" />
    <glyph glyph-name="Rho" unicode="&#x3a1;" horiz-adv-x="1189" 
d="M143 0v1475h543q38 0 94 -9q158 -24 253 -145t95 -289t-95 -289t-253 -145q-49 -8 -94 -8h-457v-590h-86zM229 676h457q46 0 90 8q123 24 191.5 121t68.5 227t-68.5 227t-191.5 121q-50 9 -90 9h-457v-713z" />
    <glyph glyph-name="Sigma" unicode="&#x3a3;" horiz-adv-x="1351" 
d="M143 0v82l645 655l-645 652v86h1065v-86h-919l629 -635v-33l-629 -635h880v-86h-1026z" />
    <glyph glyph-name="Tau" unicode="&#x3a4;" horiz-adv-x="1208" 
d="M561 0v1389h-541v86h1168v-86h-541v-1389h-86z" />
    <glyph glyph-name="Upsilon" unicode="&#x3a5;" horiz-adv-x="1062" 
d="M489 0v627l-489 848h98l434 -750l433 750h98l-488 -848v-627h-86z" />
    <glyph glyph-name="Phi" unicode="&#x3a6;" horiz-adv-x="1417" 
d="M666 0v186q-114 -19 -222.5 12.5t-193.5 105.5t-137 199t-52 281t52 281t137 199t193.5 105.5t222.5 12.5v93h86v-93q114 19 222 -12.5t193.5 -105.5t137 -199t51.5 -281t-51.5 -281t-137 -199t-193.5 -105.5t-222 -12.5v-186h-86zM752 274q102 -14 195.5 15.5
t163.5 94.5t111.5 169t41.5 231t-41.5 231.5t-111.5 169.5t-163.5 95t-195.5 16v-1022zM666 274v1022q-102 14 -195.5 -16t-163.5 -95t-111.5 -169.5t-41.5 -231.5t41.5 -231t111.5 -169t163.5 -94.5t195.5 -15.5z" />
    <glyph glyph-name="Chi" unicode="&#x3a7;" 
d="M20 0l519 748l-506 727h102l451 -658l452 658h103l-506 -727l518 -748h-102l-465 676l-463 -676h-103z" />
    <glyph glyph-name="Psi" unicode="&#x3a8;" horiz-adv-x="1413" 
d="M664 0v383q-178 4 -300.5 95t-181.5 237q-39 98 -39 217v543h86v-437q0 -139 21 -229q36 -152 146 -247.5t268 -96.5v1010h86v-1010q158 0 267 95.5t146 248.5q21 90 21 229v437h86v-543q0 -119 -39 -217q-59 -147 -182.5 -238t-298.5 -94v-383h-86z" />
    <glyph glyph-name="uni03A9" unicode="&#x3a9;" horiz-adv-x="1445" 
d="M61 0v86h322q-151 114 -236.5 287.5t-85.5 394.5q0 156 45 290.5t128 233t209 155t280 56.5t280 -56.5t208.5 -155t127.5 -233t45 -290.5q0 -221 -85 -394.5t-236 -287.5h319v-86h-462l2 86q64 33 124.5 90t116 137.5t90.5 191t39 232.5q4 136 -34.5 259t-110 216.5
t-182 149t-242.5 55.5q-131 0 -239.5 -54.5t-180 -146.5t-110.5 -213t-39 -255q0 -127 35 -240.5t91.5 -194.5t118 -137.5t125.5 -89.5v-86h-463z" />
    <glyph glyph-name="Iotadieresis" unicode="&#x3aa;" horiz-adv-x="413" 
d="M391 1707q-32 0 -54 21.5t-22 53.5t22 54t54 22t54 -22t22 -54q0 -31 -22 -53t-54 -22zM23 1707q-32 0 -54 21.5t-22 53.5t22 54t54 22t53.5 -22t21.5 -54t-22 -53.5t-53 -21.5zM164 0v1475h86v-1475h-86z" />
    <glyph glyph-name="Upsilondieresis" unicode="&#x3ab;" horiz-adv-x="1062" 
d="M717 1707q-32 0 -54 21.5t-22 53.5t22 54t54 22t54 -22t22 -54q0 -31 -22 -53t-54 -22zM348 1707q-32 0 -54 21.5t-22 53.5t22 54t54 22t54 -22t22 -54q0 -31 -22 -53t-54 -22zM489 0v627l-489 848h98l434 -750l433 750h98l-488 -848v-627h-86z" />
    <glyph glyph-name="alphatonos" unicode="&#x3ac;" horiz-adv-x="1220" 
d="M632 1567h98l-98 -277h-68zM563 -31q-152 0 -262.5 78t-164.5 208.5t-54 297.5t53.5 297t164.5 208.5t265 78.5q160 0 273.5 -83.5t158.5 -232.5v285h80v-1106h-80v288q-45 -151 -159.5 -235t-274.5 -84zM563 55q126 0 216.5 66t133.5 177.5t43 256.5q0 224 -102.5 360
t-290.5 136q-97 0 -172 -37.5t-122 -104.5t-71 -156.5t-24 -197.5q0 -145 43 -256.5t132 -177.5t214 -66z" />
    <glyph glyph-name="epsilontonos" unicode="&#x3ad;" horiz-adv-x="1017" 
d="M526 1567h99l-99 -277h-67zM473 -31q-171 0 -281 91.5t-110 238.5q0 89 42 167.5t123 108.5q-141 82 -141 250q0 141 102 226.5t263 85.5q281 0 434 -193l-67 -57q-60 75 -154.5 119.5t-202.5 44.5q-125 0 -205.5 -59t-80.5 -169q0 -99 74 -154t204 -55h162v-84h-164
q-163 0 -232 -55t-69 -168q0 -117 86 -184.5t229 -67.5q275 0 400 250l71 -41q-146 -295 -483 -295z" />
    <glyph glyph-name="etatonos" unicode="&#x3ae;" 
d="M665 1567h98l-98 -277h-68zM143 0v1106h80v-179q59 103 157.5 153t221.5 50q210 0 329.5 -141t119.5 -387v-602h-86v586q0 232 -94 346.5t-269 114.5q-98 0 -171.5 -35t-116.5 -97.5t-64 -140.5t-21 -170v-604h-86z" />
    <glyph glyph-name="iotatonos" unicode="&#x3af;" horiz-adv-x="626" 
d="M256 1567h98l-98 -277h-68zM371 -10q-153 19 -209 139q-16 34 -23 77t-7.5 68t-0.5 93v739h86v-739q0 -15 -0.5 -43.5t0 -39.5t1.5 -31t3.5 -31.5t7 -26.5t11.5 -29q42 -80 141 -92q102 -10 184 8v-82q-104 -22 -194 -10z" />
    <glyph glyph-name="upsilondieresistonos" unicode="&#x3b0;" horiz-adv-x="1142" 
d="M572 1567h99l-99 -277h-67zM796 1334q-32 0 -54 21.5t-22 53.5t22 54t54 22t53.5 -22t21.5 -54q0 -31 -21.5 -53t-53.5 -22zM347 1334q-32 0 -54 21.5t-22 53.5t22 54t54 22t54 -22t22 -54q0 -31 -22 -53t-54 -22zM123 504v602h86v-586q0 -232 93.5 -346.5t268.5 -114.5
t269 114.5t94 346.5v586h86v-602q0 -247 -119.5 -388t-329.5 -141t-329 141t-119 388z" />
    <glyph glyph-name="alpha" unicode="&#x3b1;" horiz-adv-x="1220" 
d="M563 -31q-152 0 -262.5 78t-164.5 208.5t-54 297.5t53.5 297t164.5 208.5t265 78.5q160 0 273.5 -83.5t158.5 -232.5v285h80v-1106h-80v288q-45 -151 -159.5 -235t-274.5 -84zM563 55q126 0 216.5 66t133.5 177.5t43 256.5q0 224 -102.5 360t-290.5 136q-97 0 -172 -37.5
t-122 -104.5t-71 -156.5t-24 -197.5q0 -145 43 -256.5t132 -177.5t214 -66z" />
    <glyph glyph-name="beta" unicode="&#x3b2;" horiz-adv-x="1112" 
d="M143 -492v1598q0 104 29 180q39 102 129 160.5t229 58.5q178 0 283 -98.5t105 -276.5q0 -126 -55 -213.5t-158 -113.5q44 -4 90.5 -20.5t93 -50t82.5 -79t59 -112.5t23 -146q0 -187 -120.5 -306.5t-336.5 -119.5q-243 0 -369 152v-613h-84zM600 57q159 0 260 95t101 247
q0 158 -115 249t-316 97v86q61 8 112 28.5t93.5 55.5t66 91t23.5 127q0 132 -78.5 209t-214.5 77q-100 0 -174 -44.5t-102 -133.5q-20 -66 -20 -174v-649q0 -89 16 -148q28 -95 125.5 -154t222.5 -59z" />
    <glyph glyph-name="gamma" unicode="&#x3b3;" horiz-adv-x="978" 
d="M442 -369v369l-401 1106h92l356 -981l359 981h90l-401 -1106v-369h-95z" />
    <glyph glyph-name="delta" unicode="&#x3b4;" horiz-adv-x="1175" 
d="M588 -29q-241 0 -373.5 147t-132.5 394q0 218 104.5 361t289.5 170q-110 39 -174 97t-64 152q0 76 44 128.5t126 72.5q49 12 116 12h410v-78h-391q-53 0 -101 -10q-120 -27 -120 -125q0 -29 11 -52.5t42.5 -46t58 -38t89.5 -38.5t102 -35.5t129 -40.5q11 -3 16 -5
q157 -51 240.5 -187t83.5 -331q0 -249 -133 -398t-373 -149zM588 57q202 0 307.5 124.5t105.5 340.5q0 214 -105 334.5t-308 120.5q-204 0 -309 -124t-105 -335q0 -215 107 -338t307 -123z" />
    <glyph glyph-name="epsilon" unicode="&#x3b5;" horiz-adv-x="1017" 
d="M473 -31q-171 0 -281 91.5t-110 238.5q0 89 42 167.5t123 108.5q-141 82 -141 250q0 141 102 226.5t263 85.5q281 0 434 -193l-67 -57q-60 75 -154.5 119.5t-202.5 44.5q-125 0 -205.5 -59t-80.5 -169q0 -99 74 -154t204 -55h162v-84h-164q-163 0 -232 -55t-69 -168
q0 -117 86 -184.5t229 -67.5q275 0 400 250l71 -41q-146 -295 -483 -295z" />
    <glyph glyph-name="zeta" unicode="&#x3b6;" horiz-adv-x="1003" 
d="M879 -246q13 161 -50.5 203.5t-273.5 42.5q-45 0 -74.5 1t-73 4.5t-73 10t-66.5 19t-61.5 30t-50 44.5t-40.5 61.5t-24.5 81t-9.5 102.5q0 76 19 143t88.5 174.5t195.5 243.5q13 13 89 93t175 183.5t191 197.5h-697v86h820v-86q-80 -84 -266.5 -275.5t-219.5 -226.5
q-178 -187 -241.5 -302t-63.5 -225q0 -156 99 -217t317 -61q109 0 172 -10q240 -37 203 -318h-84z" />
    <glyph glyph-name="eta" unicode="&#x3b7;" 
d="M143 0v1106h80v-179q59 103 157.5 153t221.5 50q210 0 329.5 -141t119.5 -387v-602h-86v586q0 232 -94 346.5t-269 114.5q-98 0 -171.5 -35t-116.5 -97.5t-64 -140.5t-21 -170v-604h-86z" />
    <glyph glyph-name="theta" unicode="&#x3b8;" horiz-adv-x="1306" 
d="M653 -31q-114 0 -209.5 42.5t-161.5 115.5t-112 171.5t-67 209t-21 229.5t21 229t67 208.5t112 171t161.5 115t209.5 42.5q142 0 254 -64.5t180 -173.5t103 -243.5t35 -284.5q0 -157 -35 -293.5t-103 -243.5t-179.5 -169t-254.5 -62zM653 1417q-111 0 -200.5 -51
t-147.5 -140t-91 -202.5t-39 -243.5h958q-3 129 -36.5 243.5t-92 202.5t-149.5 139.5t-202 51.5zM653 55q111 0 200.5 51.5t148 140.5t91.5 203t39 244h-958q3 -103 24 -197.5t61.5 -175t96 -140t132 -93t165.5 -33.5z" />
    <glyph glyph-name="iota" unicode="&#x3b9;" horiz-adv-x="626" 
d="M371 -10q-153 19 -209 139q-16 34 -23 77t-7.5 68t-0.5 93v739h86v-739q0 -15 -0.5 -43.5t0 -39.5t1.5 -31t3.5 -31.5t7 -26.5t11.5 -29q42 -80 141 -92q102 -10 184 8v-82q-104 -22 -194 -10z" />
    <glyph glyph-name="kappa" unicode="&#x3ba;" horiz-adv-x="1024" 
d="M143 0v1106h86v-533l553 533h129l-577 -553l665 -553h-147l-623 532v-532h-86z" />
    <glyph glyph-name="lambda" unicode="&#x3bb;" horiz-adv-x="1019" 
d="M82 0l401 1106q-10 25 -24.5 66t-22 60.5t-20 50t-21.5 45t-23.5 34.5t-28.5 29t-33.5 19t-43 13.5t-51.5 3.5h-51v78h61q56 0 92 -8q21 -5 41 -14.5t35.5 -20t31.5 -30t27 -33.5t25 -41.5t22 -43.5t21 -49.5t19 -50.5t19.5 -54.5t19.5 -53.5l401 -1106h-92l-357 981
l-358 -981h-90z" />
    <glyph glyph-name="uni03BC" unicode="&#x3bc;" horiz-adv-x="1193" 
d="M143 -492v1598h86v-586q0 -232 94 -346.5t269 -114.5q98 0 171.5 35t116.5 97.5t64 140.5t21 170v604h86v-1106h-80v178q-59 -102 -158 -152.5t-221 -50.5q-251 0 -369 197v-664h-80z" />
    <glyph glyph-name="nu" unicode="&#x3bd;" horiz-adv-x="978" 
d="M442 0l-401 1106h90l358 -981l357 981h92l-401 -1106h-95z" />
    <glyph glyph-name="xi" unicode="&#x3be;" horiz-adv-x="1097" 
d="M1008 -246q7 88 -4.5 137t-59 73.5t-104.5 30t-176 5.5q-582 0 -582 424q0 150 69.5 241t194.5 123q-100 44 -158.5 134t-58.5 211q0 92 35.5 164t97 117t140.5 68t171 23q182 0 307.5 -87t196.5 -242l-90 -35q-47 93 -100.5 151.5t-132 92.5t-181.5 34
q-159 0 -255.5 -74t-96.5 -215q0 -135 90.5 -211.5t255.5 -84.5q71 -3 170 -3v-86q-18 0 -170 -6q-92 -4 -158.5 -19t-122 -47.5t-84 -92t-28.5 -146.5q0 -183 131 -267.5t395 -84.5q123 0 189 -10q49 -7 88 -26.5t70.5 -55.5t43.5 -96t1 -140h-84z" />
    <glyph glyph-name="omicron" unicode="&#x3bf;" horiz-adv-x="1175" 
d="M588 -31q-161 0 -276 75t-172.5 206.5t-57.5 304.5q0 265 134 423.5t372 158.5q242 0 374 -159.5t132 -422.5q0 -268 -133 -427t-373 -159zM588 55q203 0 308 135t105 365q0 231 -105.5 363.5t-307.5 132.5q-204 0 -309 -134.5t-105 -361.5q0 -231 107 -365.5t307 -134.5
z" />
    <glyph glyph-name="pi" unicode="&#x3c0;" horiz-adv-x="1310" 
d="M287 0v1020h-246v86h1229v-86h-246v-1020h-86v1020h-565v-1020h-86z" />
    <glyph glyph-name="rho" unicode="&#x3c1;" horiz-adv-x="1171" 
d="M143 -492v986q0 93 4 155q14 218 135.5 353t329.5 135q115 0 207 -45t150.5 -124t89.5 -184.5t31 -228.5q0 -168 -54.5 -299.5t-163.5 -209t-258 -77.5q-133 0 -233.5 60t-151.5 161v-682h-86zM608 55q125 0 214 66t132 177.5t43 256.5q0 108 -24 197.5t-71 156.5
t-122 104.5t-172 37.5q-187 0 -283 -134t-96 -360t96 -364t283 -138z" />
    <glyph glyph-name="uni03C2" unicode="&#x3c2;" horiz-adv-x="1103" 
d="M879 -246q7 87 -4 135t-56.5 71.5t-95.5 29.5t-157 10h-11q-92 4 -166.5 27t-122.5 56.5t-84 81.5t-54.5 91.5t-29.5 98t-13.5 91t-2.5 78.5q0 295 130 454t368 159q161 0 279.5 -72t172.5 -203l-82 -35q-46 106 -142.5 165t-223.5 59q-197 0 -302.5 -137.5
t-107.5 -360.5q-1 -46 4 -91.5t18.5 -102t41 -103.5t67.5 -87.5t104.5 -63.5t145.5 -23q144 0 205 -10q241 -37 203 -318h-84z" />
    <glyph glyph-name="sigma" unicode="&#x3c3;" horiz-adv-x="1196" 
d="M588 -31q-231 0 -368.5 158.5t-137.5 411.5q0 231 113.5 382t310.5 179q49 6 164 6h485v-86h-272q100 -70 155.5 -196t55.5 -285q0 -253 -137.5 -411.5t-368.5 -158.5zM588 55q198 0 305.5 131t107.5 353q0 219 -107.5 349.5t-305.5 131.5q-199 1 -306.5 -132.5
t-107.5 -348.5q0 -222 110 -353t304 -131z" />
    <glyph glyph-name="tau" unicode="&#x3c4;" horiz-adv-x="1013" 
d="M698 -10q-153 19 -209 139q-5 11 -9 22t-7 20.5t-5 23t-3.5 21.5t-2.5 23.5t-1.5 22.5t-1 25.5t-0.5 24.5v27.5v27.5v653h-408v86h901v-86h-407v-653q0 -16 -0.5 -50.5t0 -47t2.5 -34.5t7 -37t13 -32q42 -80 142 -92q102 -10 184 8v-82q-105 -22 -195 -10z" />
    <glyph glyph-name="upsilon" unicode="&#x3c5;" horiz-adv-x="1142" 
d="M123 504v602h86v-586q0 -232 93.5 -346.5t268.5 -114.5t269 114.5t94 346.5v586h86v-602q0 -247 -119.5 -388t-329.5 -141t-329 141t-119 388z" />
    <glyph glyph-name="phi" unicode="&#x3c6;" horiz-adv-x="1470" 
d="M672 -461v438q-121 -19 -229 12t-188 104t-126.5 191.5t-46.5 266.5q0 196 80 338t214 203t296 36v345h86v-345q162 25 296 -36t214 -203t80 -338q0 -148 -46.5 -266.5t-126.5 -191.5t-188 -104t-229 -12v-438h-86zM758 63q48 -6 97 -5.5t98 16.5t93.5 40t82.5 66
t66 93.5t44 123t16 154.5t-16 154.5t-44 123.5t-66 94.5t-82.5 66.5t-93.5 40.5t-98 17t-97 -5.5v-979zM672 63v979q-48 6 -97.5 5.5t-98 -17t-93 -40.5t-83 -66.5t-66.5 -94.5t-44 -123.5t-16 -154.5t16 -154.5t44 -123t66.5 -93.5t83 -66t93 -40t98 -16.5t97.5 5.5z" />
    <glyph glyph-name="chi" unicode="&#x3c7;" horiz-adv-x="1042" 
d="M20 0l451 559l-440 547h106l385 -483l383 483h107l-441 -547l451 -559h-109l-391 496l-393 -496h-109z" />
    <glyph glyph-name="psi" unicode="&#x3c8;" horiz-adv-x="1372" 
d="M643 -461v430q-171 4 -297 96t-184 236q-39 98 -39 217v588h86v-481q0 -146 20 -230q35 -149 151 -246t263 -98v1055h86v-1055q147 1 263 98t151 246q20 84 20 230v481h86v-588q0 -119 -39 -217q-57 -140 -182 -234t-299 -98v-430h-86z" />
    <glyph glyph-name="omega" unicode="&#x3c9;" horiz-adv-x="1560" 
d="M481 -33q-198 0 -298.5 138.5t-100.5 375.5q0 232 94 391.5t299 264.5l45 -80q-183 -94 -264.5 -231t-81.5 -337q0 -195 78.5 -315.5t230.5 -120.5q62 0 108 20t73.5 52t44 80t22.5 97t6 110v293h86v-293q0 -60 5.5 -108t22 -96.5t44 -81t74 -53t108.5 -20.5
q104 0 175 59.5t102.5 155.5t31.5 221q0 201 -82.5 338t-263.5 230l45 80q207 -105 300.5 -265.5t93.5 -390.5q0 -238 -101.5 -376t-296.5 -138q-108 0 -188 50t-113 148q-33 -98 -112.5 -148t-186.5 -50z" />
    <glyph glyph-name="iotadieresis" unicode="&#x3ca;" horiz-adv-x="618" 
d="M391 1338q-32 0 -54 21.5t-22 53.5t22 54t54 22t54 -22t22 -54q0 -31 -22 -53t-54 -22zM23 1338q-32 0 -54 21.5t-22 53.5t22 54t54 22t53.5 -22t21.5 -54q0 -31 -22 -53t-53 -22zM371 -10q-153 19 -209 139q-16 34 -23 77t-7.5 68t-0.5 93v739h86v-739q0 -15 -0.5 -43.5
t0 -39.5t1.5 -31t3.5 -31.5t7 -26.5t11.5 -29q42 -80 141 -92q102 -10 184 8v-82q-104 -22 -194 -10z" />
    <glyph glyph-name="upsilondieresis" unicode="&#x3cb;" horiz-adv-x="1142" 
d="M756 1338q-32 0 -54 21.5t-22 53.5t22 54t54 22t53.5 -22t21.5 -54q0 -31 -21.5 -53t-53.5 -22zM387 1338q-32 0 -54 21.5t-22 53.5t22 54t54 22t54 -22t22 -54q0 -31 -22 -53t-54 -22zM123 504v602h86v-586q0 -232 93.5 -346.5t268.5 -114.5t269 114.5t94 346.5v586h86
v-602q0 -247 -119.5 -388t-329.5 -141t-329 141t-119 388z" />
    <glyph glyph-name="omicrontonos" unicode="&#x3cc;" horiz-adv-x="1175" 
d="M630 1567h98l-98 -277h-68zM588 -31q-161 0 -276 75t-172.5 206.5t-57.5 304.5q0 265 134 423.5t372 158.5q242 0 374 -159.5t132 -422.5q0 -268 -133 -427t-373 -159zM588 55q203 0 308 135t105 365q0 231 -105.5 363.5t-307.5 132.5q-204 0 -309 -134.5t-105 -361.5
q0 -231 107 -365.5t307 -134.5z" />
    <glyph glyph-name="upsilontonos" unicode="&#x3cd;" horiz-adv-x="1142" 
d="M591 1567h98l-98 -277h-68zM123 504v602h86v-586q0 -232 93.5 -346.5t268.5 -114.5t269 114.5t94 346.5v586h86v-602q0 -247 -119.5 -388t-329.5 -141t-329 141t-119 388z" />
    <glyph glyph-name="omegatonos" unicode="&#x3ce;" horiz-adv-x="1560" 
d="M814 1567h98l-98 -277h-68zM481 -33q-198 0 -298.5 138.5t-100.5 375.5q0 232 94 391.5t299 264.5l45 -80q-183 -94 -264.5 -231t-81.5 -337q0 -195 78.5 -315.5t230.5 -120.5q62 0 108 20t73.5 52t44 80t22.5 97t6 110v293h86v-293q0 -60 5.5 -108t22 -96.5t44 -81
t74 -53t108.5 -20.5q104 0 175 59.5t102.5 155.5t31.5 221q0 201 -82.5 338t-263.5 230l45 80q207 -105 300.5 -265.5t93.5 -390.5q0 -238 -101.5 -376t-296.5 -138q-108 0 -188 50t-113 148q-33 -98 -112.5 -148t-186.5 -50z" />
    <glyph glyph-name="uni0400" unicode="&#x400;" horiz-adv-x="1146" 
d="M588 1935l67 -276h-67l-99 276h99zM143 0v1475h901v-86h-815v-609h693v-86h-693v-608h815v-86h-901z" />
    <glyph glyph-name="uni0401" unicode="&#x401;" horiz-adv-x="1146" 
d="M748 1707q-32 0 -54 21.5t-22 53.5t22 54t54 22t53.5 -22t21.5 -54t-21.5 -53.5t-53.5 -21.5zM379 1707q-32 0 -54 21.5t-22 53.5t22 54t54 22t54 -22t22 -54q0 -31 -22 -53t-54 -22zM143 0v1475h901v-86h-815v-609h693v-86h-693v-608h815v-86h-901z" />
    <glyph glyph-name="uni0402" unicode="&#x402;" horiz-adv-x="1282" 
d="M143 0v1389h-143v86h553v-86h-330v-469q122 217 453 217q254 0 389 -139t135 -416q0 -175 -53.5 -304t-167 -203.5t-277.5 -74.5v86q195 0 303.5 133t108.5 377q0 234 -108.5 344.5t-329.5 110.5q-342 0 -420 -273q-27 -94 -27 -291v-487h-86z" />
    <glyph glyph-name="uni0403" unicode="&#x403;" horiz-adv-x="1064" 
d="M474 1935h98l-98 -276h-67zM143 0v1475h901v-86h-815v-1389h-86z" />
    <glyph glyph-name="uni0404" unicode="&#x404;" horiz-adv-x="1458" 
d="M764 -31q-160 0 -289 59.5t-211 163.5t-124 243.5t-38 301.5q5 233 79.5 404t223 267.5t359.5 96.5q243 0 410.5 -134t222.5 -376l-90 -14q-43 203 -185.5 318t-357.5 118q-177 2 -304.5 -80t-192.5 -224.5t-72 -332.5h553v-86h-553q3 -130 32.5 -236.5t102.5 -203.5
q146 -196 434 -199q197 -3 339.5 106.5t196.5 305.5l86 -25q-52 -219 -219.5 -346t-402.5 -127z" />
    <glyph glyph-name="uni0405" unicode="&#x405;" horiz-adv-x="1206" 
d="M633 -31q-224 0 -378 107.5t-194 290.5l86 16q40 -152 170 -240t316 -88q194 0 311 90.5t117 239.5q0 57 -20 103.5t-45.5 74.5t-67.5 51.5t-69 33.5t-66 22l-369 110q-305 90 -305 338q0 170 134 278.5t347 108.5q217 0 364 -117.5t175 -312.5l-86 -16
q-22 161 -147 260.5t-306 99.5q-171 0 -280 -85.5t-109 -213.5q0 -42 12.5 -78t37 -62.5t50 -46.5t64 -36.5t65.5 -25.5t66 -21l305 -92q31 -9 52 -16t59 -24t65 -35t59 -47.5t52 -64t33.5 -82.5t13.5 -104q0 -190 -139 -303t-373 -113z" />
    <glyph glyph-name="uni0406" unicode="&#x406;" horiz-adv-x="413" 
d="M164 0v1475h86v-1475h-86z" />
    <glyph glyph-name="uni0407" unicode="&#x407;" horiz-adv-x="413" 
d="M391 1707q-32 0 -54 21.5t-22 53.5t22 54t54 22t54 -22t22 -54q0 -31 -22 -53t-54 -22zM23 1707q-32 0 -54 21.5t-22 53.5t22 54t54 22t53.5 -22t21.5 -54t-22 -53.5t-53 -21.5zM164 0v1475h86v-1475h-86z" />
    <glyph glyph-name="uni0408" unicode="&#x408;" horiz-adv-x="899" 
d="M367 -29q-134 0 -235 78t-132 207l88 20q24 -96 101 -157.5t182 -61.5q72 0 137 32.5t102 100.5q18 32 26 73t9.5 72.5t1.5 98.5v1041h86v-1041q0 -136 -9 -183q-10 -57 -38 -106q-49 -85 -132.5 -129.5t-186.5 -44.5z" />
    <glyph glyph-name="uni0409" unicode="&#x409;" horiz-adv-x="2217" 
d="M20 0v86q29 -3 50 -3t40.5 2.5t33.5 12t26.5 21.5t22 34.5t18 48t16.5 65.5t15 82.5t16 103.5q34 235 52.5 454t33.5 568h893v-590h457q45 0 94 -8q158 -24 253 -145.5t95 -289.5t-95 -289t-253 -145q-49 -8 -94 -8h-543v1389h-717q-3 -51 -15 -238t-17.5 -261.5
t-19.5 -218t-32 -274.5q-7 -49 -12 -81.5t-14 -76.5t-18.5 -72t-24 -61.5t-31 -52.5t-40 -37.5t-50.5 -24.5t-62.5 -4.5t-77.5 13.5zM1237 86h457q46 0 90 8q123 24 191.5 121t68.5 227t-68.5 227.5t-191.5 121.5q-44 8 -90 8h-457v-713z" />
    <glyph glyph-name="uni040A" unicode="&#x40a;" horiz-adv-x="2107" 
d="M143 0v1475h86v-590h811v590h86v-590h457q45 0 94 -8q158 -24 253 -145.5t95 -289.5t-95 -289t-253 -145q-49 -8 -94 -8h-543v799h-811v-799h-86zM1126 86h457q46 0 90 8q123 24 191.5 121t68.5 227t-68.5 227.5t-191.5 121.5q-44 8 -90 8h-457v-713z" />
    <glyph glyph-name="uni040B" unicode="&#x40b;" horiz-adv-x="1284" 
d="M0 1389v86h553v-86h-324v-539q163 90 375 90q143 0 248.5 -40t167.5 -113.5t91.5 -169.5t29.5 -216v-401h-86v365q0 244 -109 364.5t-332 120.5q-119 0 -219 -31t-166 -78v-741h-86v1389h-143z" />
    <glyph glyph-name="uni040C" unicode="&#x40c;" horiz-adv-x="1142" 
d="M650 1935h99l-99 -276h-67zM143 0v1475h86v-705l729 705h119l-723 -705l789 -770h-119l-795 770v-770h-86z" />
    <glyph glyph-name="uni040D" unicode="&#x40d;" horiz-adv-x="1355" 
d="M657 1935l68 -276h-68l-98 276h98zM143 0v1475h86v-1321l897 1321h86v-1475h-86v1323l-897 -1323h-86z" />
    <glyph glyph-name="uni040E" unicode="&#x40e;" horiz-adv-x="1257" 
d="M604 1610q-97 0 -165 68t-68 165h80q0 -63 45 -108t108 -45q64 0 109 45t45 108h80q0 -97 -68.5 -165t-165.5 -68zM428 0l147 317l-534 1158h92l488 -1061l493 1061h92l-680 -1475h-98z" />
    <glyph glyph-name="uni040F" unicode="&#x40f;" horiz-adv-x="1454" 
d="M684 -246v246h-541v1475h86v-1389h996v1389h86v-1475h-541v-246h-86z" />
    <glyph glyph-name="uni0410" unicode="&#x410;" horiz-adv-x="1247" 
d="M41 0l537 1475h92l536 -1475h-92l-139 383h-703l-139 -383h-92zM302 465h643l-322 886z" />
    <glyph glyph-name="uni0411" unicode="&#x411;" horiz-adv-x="1189" 
d="M143 0v1475h861v-86h-775v-504h457q45 0 94 -8q158 -24 253 -145.5t95 -289.5t-95 -289t-253 -145q-49 -8 -94 -8h-543zM229 86h457q46 0 90 8q123 24 191.5 121t68.5 227t-68.5 227.5t-191.5 121.5q-44 8 -90 8h-457v-713z" />
    <glyph glyph-name="uni0412" unicode="&#x412;" horiz-adv-x="1230" 
d="M143 0v1475h559q164 0 280 -102.5t116 -260.5q0 -101 -51.5 -189t-138.5 -138q124 -55 193.5 -153.5t69.5 -234.5q0 -184 -122 -290.5t-308 -106.5h-598zM229 819h473q125 0 214.5 87t89.5 212q0 121 -87 197t-217 76h-473v-572zM229 86h471q165 0 271 81t106 222
q0 144 -98.5 245t-237.5 101h-512v-649z" />
    <glyph glyph-name="uni0413" unicode="&#x413;" horiz-adv-x="1064" 
d="M143 0v1475h901v-86h-815v-1389h-86z" />
    <glyph glyph-name="uni0414" unicode="&#x414;" horiz-adv-x="1490" 
d="M82 -246v332q49 0 88.5 15t67 39.5t48.5 62.5t34 77.5t23 90.5t16 96t12 101q4 37 6 55q10 82 17 160t12.5 172t8.5 151t8.5 184.5t8.5 184.5h875v-1389h102v-332h-86v246h-1155v-246h-86zM305 86h916v1303h-705q-23 -523 -53 -811q-21 -207 -54.5 -323.5t-103.5 -168.5z
" />
    <glyph glyph-name="uni0415" unicode="&#x415;" horiz-adv-x="1146" 
d="M143 0v1475h901v-86h-815v-609h693v-86h-693v-608h815v-86h-901z" />
    <glyph glyph-name="uni0416" unicode="&#x416;" horiz-adv-x="1789" 
d="M20 0l719 770l-653 705h119l647 -705v705h86v-705l647 705h119l-653 -705l718 -770h-118l-713 770v-770h-86v770l-713 -770h-119z" />
    <glyph glyph-name="uni0417" unicode="&#x417;" horiz-adv-x="1148" 
d="M582 -31q-209 0 -341 88.5t-180 229.5l89 37q38 -122 151 -195.5t283 -73.5q191 0 301 93t110 258q0 83 -29 142t-84 92t-122.5 48.5t-157.5 18.5q-152 6 -170 6v86q125 0 170 2q164 7 255 90.5t91 218.5q0 145 -99 227t-259 82q-144 0 -241.5 -70t-166.5 -208l-90 35
q68 153 196 241t304 88q124 0 224 -44t162 -135t62 -216q0 -127 -60.5 -220.5t-156.5 -133.5q125 -32 194.5 -122t69.5 -233q0 -198 -133.5 -315t-371.5 -117z" />
    <glyph glyph-name="uni0418" unicode="&#x418;" horiz-adv-x="1355" 
d="M1212 0h-86v1323l-897 -1323h-86v1475h86v-1321l897 1321h86v-1475z" />
    <glyph glyph-name="uni0419" unicode="&#x419;" horiz-adv-x="1355" 
d="M698 1610q-97 0 -165 68t-68 165h80q0 -63 45 -108t108 -45q64 0 109 45t45 108h80q0 -97 -68.5 -165t-165.5 -68zM143 0v1475h86v-1321l897 1321h86v-1475h-86v1323l-897 -1323h-86z" />
    <glyph glyph-name="uni041A" unicode="&#x41a;" horiz-adv-x="1142" 
d="M143 0v1475h86v-773l730 773h118l-600 -635l666 -840h-118l-609 775l-187 -196v-579h-86z" />
    <glyph glyph-name="uni041B" unicode="&#x41b;" horiz-adv-x="1400" 
d="M41 0v86q29 -3 50 -3t40.5 2.5t33.5 12t26.5 21.5t22 34.5t18 48t16.5 65.5t15 82.5t16 103.5q34 235 52.5 454t33.5 568h892v-1475h-86v1389h-716q-3 -51 -15 -238t-17.5 -261.5t-19.5 -218t-32 -274.5q-7 -49 -12 -81.5t-14 -76.5t-18.5 -72t-24 -61.5t-31 -52.5
t-40 -37.5t-50.5 -24.5t-62.5 -4.5t-77.5 13.5z" />
    <glyph glyph-name="uni041C" unicode="&#x41c;" horiz-adv-x="1701" 
d="M143 0v1475h82l627 -1371l621 1371h86v-1473h-86v1266l-574 -1268h-96l-574 1268v-1268h-86z" />
    <glyph glyph-name="uni041D" unicode="&#x41d;" horiz-adv-x="1351" 
d="M143 0v1475h86v-695h893v695h86v-1475h-86v694h-893v-694h-86z" />
    <glyph glyph-name="uni041E" unicode="&#x41e;" horiz-adv-x="1445" 
d="M723 -31q-162 0 -288.5 56.5t-208 158.5t-123.5 242.5t-42 310.5t42 310.5t123.5 242.5t208 158.5t288.5 56.5t288.5 -56.5t207.5 -159t123 -242t42 -310.5t-42 -310.5t-123 -242t-207.5 -159t-288.5 -56.5zM723 55q139 0 248 50t179 141.5t106 215.5t36 275t-36 275
t-106 215.5t-179 141.5t-248 50t-247.5 -50t-178 -141.5t-105.5 -215.5t-38 -275q-2 -202 60.5 -354t193 -240t315.5 -88z" />
    <glyph glyph-name="uni041F" unicode="&#x41f;" horiz-adv-x="1372" 
d="M143 0v1475h1086v-1475h-86v1389h-914v-1389h-86z" />
    <glyph glyph-name="uni0420" unicode="&#x420;" horiz-adv-x="1189" 
d="M143 0v1475h543q38 0 94 -9q158 -24 253 -145t95 -289t-95 -289t-253 -145q-49 -8 -94 -8h-457v-590h-86zM229 676h457q46 0 90 8q123 24 191.5 121t68.5 227t-68.5 227t-191.5 121q-50 9 -90 9h-457v-713z" />
    <glyph glyph-name="uni0421" unicode="&#x421;" horiz-adv-x="1433" 
d="M723 -31q-162 0 -288.5 56.5t-208 158.5t-123.5 242.5t-42 310.5t42 310.5t123.5 242.5t208 158.5t288.5 56.5q251 0 411.5 -131t217.5 -362l-90 -21q-51 201 -188 314.5t-351 113.5q-139 0 -247.5 -50t-178 -141.5t-105.5 -215.5t-38 -275q-2 -202 60.5 -354t193 -240
t315.5 -88q214 0 351 113.5t188 314.5l90 -20q-57 -231 -217.5 -362.5t-411.5 -131.5z" />
    <glyph glyph-name="uni0422" unicode="&#x422;" horiz-adv-x="1208" 
d="M561 0v1389h-541v86h1168v-86h-541v-1389h-86z" />
    <glyph glyph-name="uni0423" unicode="&#x423;" horiz-adv-x="1257" 
d="M428 0l147 317l-534 1158h92l488 -1061l493 1061h92l-680 -1475h-98z" />
    <glyph glyph-name="uni0424" unicode="&#x424;" horiz-adv-x="1417" 
d="M666 0v186q-114 -19 -222.5 12.5t-193.5 105.5t-137 199t-52 281t52 281t137 199t193.5 105.5t222.5 12.5v93h86v-93q114 19 222 -12.5t193.5 -105.5t137 -199t51.5 -281t-51.5 -281t-137 -199t-193.5 -105.5t-222 -12.5v-186h-86zM752 274q102 -14 195.5 15.5
t163.5 94.5t111.5 169t41.5 231t-41.5 231.5t-111.5 169.5t-163.5 95t-195.5 16v-1022zM666 274v1022q-102 14 -195.5 -16t-163.5 -95t-111.5 -169.5t-41.5 -231.5t41.5 -231t111.5 -169t163.5 -94.5t195.5 -15.5z" />
    <glyph glyph-name="uni0425" unicode="&#x425;" 
d="M20 0l519 748l-506 727h102l451 -658l452 658h103l-506 -727l518 -748h-102l-465 676l-463 -676h-103z" />
    <glyph glyph-name="uni0426" unicode="&#x426;" horiz-adv-x="1421" 
d="M1315 -164v164h-1172v1475h86v-1389h934v1389h86v-1389h152v-250h-86z" />
    <glyph glyph-name="uni0427" unicode="&#x427;" horiz-adv-x="1284" 
d="M1055 0v625q-163 -90 -375 -90q-115 0 -206 26.5t-152.5 73.5t-102 114.5t-58.5 147.5t-18 176v402h86v-365q0 -244 109 -364.5t332 -120.5q120 0 219.5 30.5t165.5 77.5v742h86v-1475h-86z" />
    <glyph glyph-name="uni0428" unicode="&#x428;" horiz-adv-x="1802" 
d="M143 0v1475h86v-1389h629v1389h86v-1389h629v1389h86v-1475h-1516z" />
    <glyph glyph-name="uni0429" unicode="&#x429;" horiz-adv-x="1830" 
d="M143 0v1475h86v-1389h629v1389h86v-1389h629v1389h86v-1389h151v-250h-86v164h-1581z" />
    <glyph glyph-name="uni042A" unicode="&#x42a;" horiz-adv-x="1210" 
d="M164 0v1389h-184v86h270v-590h457q45 0 94 -8q158 -24 253 -145.5t95 -289.5t-95 -289t-253 -145q-49 -8 -94 -8h-543zM250 86h457q46 0 90 8q123 24 191.5 121t68.5 227t-68.5 227.5t-191.5 121.5q-44 8 -90 8h-457v-713z" />
    <glyph glyph-name="uni042B" unicode="&#x42b;" horiz-adv-x="1501" 
d="M143 0v1475h86v-590h457q45 0 94 -8q158 -24 253 -145.5t95 -289.5t-95 -289t-253 -145q-49 -8 -94 -8h-543zM1272 0v1475h86v-1475h-86zM229 86h457q46 0 90 8q123 24 191.5 121t68.5 227t-68.5 227.5t-191.5 121.5q-44 8 -90 8h-457v-713z" />
    <glyph glyph-name="uni042C" unicode="&#x42c;" horiz-adv-x="1210" 
d="M143 0v1475h86v-590h457q45 0 94 -8q158 -24 253 -145.5t95 -289.5t-95 -289t-253 -145q-49 -8 -94 -8h-543zM229 86h457q46 0 90 8q123 24 191.5 121t68.5 227t-68.5 227.5t-191.5 121.5q-44 8 -90 8h-457v-713z" />
    <glyph glyph-name="uni042D" unicode="&#x42d;" horiz-adv-x="1417" 
d="M694 -31q-235 0 -402.5 127t-219.5 346l86 25q54 -196 196.5 -305.5t339.5 -106.5q288 3 434 199q73 97 103 204t33 236h-553v86h553q-7 190 -72.5 332.5t-193 224.5t-304.5 80q-215 -3 -357 -118t-185 -318l-91 14q55 242 222.5 376t410.5 134q211 0 359.5 -96.5
t223 -267.5t79.5 -404q4 -162 -38 -301.5t-124 -243.5t-211 -163.5t-289 -59.5z" />
    <glyph glyph-name="uni042E" unicode="&#x42e;" horiz-adv-x="1839" 
d="M143 0v1475h86v-695h407q4 114 27.5 218.5t70 197t111.5 160.5t158 107.5t203 39.5q142 0 254 -64.5t180 -173.5t103 -243.5t35 -284.5q0 -157 -35 -293.5t-103 -243.5t-179.5 -169t-254.5 -62q-110 0 -203 39.5t-158 108t-111.5 161t-70 197.5t-27.5 219h-407v-694h-86z
M1206 55q115 0 207.5 56t150.5 151.5t89 216.5t33 258q2 136 -29 257.5t-90 216.5t-152.5 150.5t-208.5 55.5t-207.5 -55.5t-150 -150.5t-88.5 -216t-33 -258q-2 -136 29 -258t89.5 -217t152 -151t208.5 -56z" />
    <glyph glyph-name="uni042F" unicode="&#x42f;" horiz-adv-x="1251" 
d="M206 0h-103l344 665q-148 32 -236 141.5t-88 256.5q0 153 95 266t253 137q55 9 94 9h543v-1475h-86v651h-457q-15 0 -23 1zM1022 737v652h-457q-41 0 -90 -9q-123 -24 -191.5 -113.5t-68.5 -203.5t69 -204.5t191 -113.5q44 -8 90 -8h457z" />
    <glyph glyph-name="uni0430" unicode="&#x430;" horiz-adv-x="1110" 
d="M465 -31q-184 0 -283.5 93t-99.5 231q0 70 24 126t67.5 93t95 60t114.5 36q135 27 518 72q2 191 -77 281t-263 90q-275 0 -342 -252l-94 24q37 153 150.5 233.5t289.5 80.5q151 0 255 -62t141 -170q26 -79 26 -213v-692h-80v202q-63 -112 -178.5 -172.5t-263.5 -60.5z
M461 55q180 0 294.5 96.5t137.5 266.5q8 57 8 178q-352 -31 -500 -68q-43 -11 -79 -27t-72 -43t-57 -70t-21 -97q0 -43 15 -82.5t46.5 -75t90.5 -57t137 -21.5z" />
    <glyph glyph-name="uni0431" unicode="&#x431;" 
d="M575 -31q-236 0 -364.5 153t-128.5 468q0 127 18.5 280.5t40.5 229.5q24 80 74 149t117 111q56 37 144.5 62.5t164.5 36.5t173 23.5t144 22.5l13 -82q-27 -5 -129.5 -19t-171.5 -26t-157 -38.5t-140 -59.5q-172 -104 -197 -436q63 103 175 161t251 58q225 0 357.5 -149.5
t132.5 -399.5q0 -251 -137 -398t-380 -147zM586 55q199 0 306 124t107 337q0 215 -109.5 338t-305.5 123q-195 0 -302.5 -122.5t-107.5 -338.5q0 -215 107 -338t305 -123z" />
    <glyph glyph-name="uni0432" unicode="&#x432;" horiz-adv-x="1064" 
d="M143 0v1106h424q96 0 174 -19q98 -26 153.5 -104.5t55.5 -179.5q0 -108 -59 -182q-26 -36 -68 -58q25 -6 68 -33q113 -75 113 -237q0 -111 -53 -182t-140 -95q-57 -16 -172 -16h-496zM229 596h379q72 0 121 16q63 21 96 73.5t33 119.5q0 70 -34.5 121t-96.5 73
q-62 21 -149 21h-349v-424zM229 86h410q66 0 125 12q73 16 110 69.5t37 125.5q0 88 -54 145.5t-148 67.5q-33 4 -103 4h-377v-424z" />
    <glyph glyph-name="uni0433" unicode="&#x433;" horiz-adv-x="931" 
d="M143 0v1106h738v-86h-652v-1020h-86z" />
    <glyph glyph-name="uni0434" unicode="&#x434;" horiz-adv-x="1177" 
d="M61 -246v332q92 0 136.5 56.5t74.5 187.5q28 124 43 288.5t29 487.5h670v-1020h102v-332h-86v246h-883v-246h-86zM266 86h662v934h-496q-28 -564 -78 -739q-16 -56 -25 -83t-26 -60.5t-37 -51.5z" />
    <glyph glyph-name="uni0435" unicode="&#x435;" 
d="M588 -31q-235 0 -370.5 157t-135.5 427q0 272 135 428t371 156q238 0 371 -160.5t133 -448.5h-918q6 -225 114.5 -349t299.5 -124q136 0 239.5 64t165.5 186l72 -41q-68 -141 -192 -218t-285 -77zM588 1051q-184 0 -291 -114t-121 -323h820q-18 212 -122.5 324.5
t-285.5 112.5z" />
    <glyph glyph-name="uni0436" unicode="&#x436;" horiz-adv-x="1339" 
d="M20 0l508 553l-491 553h102l488 -553v553h86v-553l487 553h103l-492 -553l508 -553h-102l-504 553v-553h-86v553l-504 -553h-103z" />
    <glyph glyph-name="uni0437" unicode="&#x437;" horiz-adv-x="1017" 
d="M545 -31q-338 0 -484 295l72 41q125 -250 399 -250q143 0 229.5 67.5t86.5 184.5q0 113 -69 168t-232 55h-164v84h162q130 0 204 55t74 154q0 110 -80.5 169t-205.5 59q-108 0 -202.5 -44.5t-154.5 -119.5l-67 57q153 193 434 193q161 0 262.5 -85.5t101.5 -226.5
q0 -169 -140 -250q81 -30 123 -108.5t42 -167.5q0 -147 -110 -238.5t-281 -91.5z" />
    <glyph glyph-name="uni0438" unicode="&#x438;" horiz-adv-x="1112" 
d="M969 1106v-1106h-86v954l-660 -954h-80v1106h86v-954l660 954h80z" />
    <glyph glyph-name="uni0439" unicode="&#x439;" horiz-adv-x="1112" 
d="M567 1241q-97 0 -165 68.5t-68 165.5h80q0 -63 45 -108.5t108 -45.5q64 0 109 45.5t45 108.5h80q0 -97 -68.5 -165.5t-165.5 -68.5zM969 1106v-1106h-86v954l-660 -954h-80v1106h86v-954l660 954h80z" />
    <glyph glyph-name="uni043A" unicode="&#x43a;" horiz-adv-x="1024" 
d="M143 0v1106h86v-533l553 533h129l-577 -553l665 -553h-147l-623 532v-532h-86z" />
    <glyph glyph-name="uni043B" unicode="&#x43b;" horiz-adv-x="1138" 
d="M41 0v82q45 -8 75 -0.5t47.5 34t25.5 55t16 79.5q42 254 80 856h710v-1106h-86v1020h-536q-42 -608 -90 -844q-7 -34 -13 -57t-16 -46t-22 -36.5t-29.5 -25t-40 -15.5t-53 -3.5t-68.5 7.5z" />
    <glyph glyph-name="uni043C" unicode="&#x43c;" horiz-adv-x="1372" 
d="M143 0v1106h88l455 -1000l455 1000h88v-1106h-86v901l-410 -901h-94l-410 901v-901h-86z" />
    <glyph glyph-name="uni043D" unicode="&#x43d;" horiz-adv-x="1167" 
d="M143 0v1106h86v-510h709v510h86v-1106h-86v510h-709v-510h-86z" />
    <glyph glyph-name="uni043E" unicode="&#x43e;" horiz-adv-x="1175" 
d="M588 -31q-161 0 -276 75t-172.5 206.5t-57.5 304.5q0 265 134 423.5t372 158.5q242 0 374 -159.5t132 -422.5q0 -268 -133 -427t-373 -159zM588 55q203 0 308 135t105 365q0 231 -105.5 363.5t-307.5 132.5q-204 0 -309 -134.5t-105 -361.5q0 -231 107 -365.5t307 -134.5
z" />
    <glyph glyph-name="uni043F" unicode="&#x43f;" horiz-adv-x="1112" 
d="M143 0v1106h826v-1106h-86v1020h-654v-1020h-86z" />
    <glyph glyph-name="uni0440" unicode="&#x440;" horiz-adv-x="1179" 
d="M143 -492v1598h80v-226q58 122 162 189.5t248 67.5t251 -78t160.5 -208.5t53.5 -295.5q0 -168 -54 -299t-165 -209t-263 -78q-132 0 -230.5 65.5t-156.5 182.5v-709h-86zM616 55q186 0 288 139t102 361q0 145 -41.5 254.5t-131 175.5t-217.5 66q-188 0 -290.5 -136
t-102.5 -360q0 -145 43 -256.5t133.5 -177.5t216.5 -66z" />
    <glyph glyph-name="uni0441" unicode="&#x441;" horiz-adv-x="1103" 
d="M588 -31q-241 0 -371 158.5t-135 425.5q5 271 135 427.5t371 156.5q154 0 273.5 -74t170.5 -201l-82 -35q-46 106 -141.5 165t-220.5 59q-103 0 -181.5 -36t-129 -102.5t-76 -157t-27.5 -202.5q3 -232 109 -365t305 -133q123 0 216 56.5t144 164.5l84 -36
q-140 -271 -444 -271z" />
    <glyph glyph-name="uni0442" unicode="&#x442;" horiz-adv-x="1003" 
d="M459 0v1020h-408v86h901v-86h-407v-1020h-86z" />
    <glyph glyph-name="uni0443" unicode="&#x443;" horiz-adv-x="1036" 
d="M309 -492l183 491l-451 1107h94l400 -988l358 988h92l-579 -1598h-97z" />
    <glyph glyph-name="uni0444" unicode="&#x444;" horiz-adv-x="1429" 
d="M672 -461v438q-121 -19 -229 12t-188 104t-126.5 191.5t-46.5 266.5q0 196 80 338t214 203t296 36v345h86v-345q162 25 296 -36t214 -203t80 -338q0 -148 -46.5 -266.5t-126.5 -191.5t-188 -104t-229 -12v-438h-86zM758 63q48 -6 97 -5.5t98 16.5t93.5 40t82.5 66
t66 93.5t44 123t16 154.5t-16 154.5t-44 123.5t-66 94.5t-82.5 66.5t-93.5 40.5t-98 17t-97 -5.5v-979zM672 63v979q-48 6 -97.5 5.5t-98 -17t-93 -40.5t-83 -66.5t-66.5 -94.5t-44 -123.5t-16 -154.5t16 -154.5t44 -123t66.5 -93.5t83 -66t93 -40t98 -16.5t97.5 5.5z" />
    <glyph glyph-name="uni0445" unicode="&#x445;" horiz-adv-x="1042" 
d="M20 0l451 559l-440 547h106l385 -483l383 483h107l-441 -547l451 -559h-109l-391 496l-393 -496h-109z" />
    <glyph glyph-name="uni0446" unicode="&#x446;" horiz-adv-x="1216" 
d="M1110 -164v164h-967v1106h86v-1020h654v1020h86v-1020h227v-250h-86z" />
    <glyph glyph-name="uni0447" unicode="&#x447;" horiz-adv-x="1071" 
d="M842 0v438q-142 -73 -328 -73q-166 0 -273 73t-139 211q-20 86 -20 230v227h86v-227q0 -102 10 -166q45 -273 348 -273q89 0 173.5 22.5t142.5 61.5v582h86v-1106h-86z" />
    <glyph glyph-name="uni0448" unicode="&#x448;" horiz-adv-x="1509" 
d="M143 0v1106h86v-1020h484v1020h86v-1020h481v1020h86v-1106h-1223z" />
    <glyph glyph-name="uni0449" unicode="&#x449;" horiz-adv-x="1558" 
d="M1452 -164v164h-1309v1106h86v-1020h484v1020h86v-1020h481v1020h86v-1020h172v-250h-86z" />
    <glyph glyph-name="uni044A" unicode="&#x44a;" horiz-adv-x="1089" 
d="M186 0l-2 1020h-143v86h231v-449h299q103 0 162 -10q275 -47 275 -317q0 -132 -68.5 -213t-171.5 -103q-66 -14 -176 -14h-406zM272 86h295q136 0 187 14q161 46 161 230q0 105 -45 158t-135 71q-61 12 -168 12h-295v-485z" />
    <glyph glyph-name="uni044B" unicode="&#x44b;" horiz-adv-x="1277" 
d="M145 0l-2 1106h88v-449h238q103 0 162 -10q274 -50 274 -317q0 -132 -68 -213t-171 -103q-66 -14 -177 -14h-344zM1049 0v1106h86v-1106h-86zM231 86h234q135 0 186 14q162 47 162 230q0 105 -45 158t-135 71q-61 12 -168 12h-234v-485z" />
    <glyph glyph-name="uni044C" unicode="&#x44c;" horiz-adv-x="1048" 
d="M145 0l-2 1106h88v-449h299q103 0 162 -10q275 -47 275 -317q0 -132 -68.5 -213t-171.5 -103q-67 -14 -176 -14h-406zM231 86h295q136 0 187 14q161 46 161 230q0 105 -45 158t-135 71q-61 12 -168 12h-295v-485z" />
    <glyph glyph-name="uni044D" unicode="&#x44d;" horiz-adv-x="1103" 
d="M518 -31q-306 0 -446 271l84 36q51 -108 144 -164.5t216 -56.5q190 0 295 121t117 334h-580v86h580q-11 211 -115.5 333t-296.5 122q-125 0 -220.5 -59t-141.5 -165l-82 35q51 128 171 201.5t281 73.5q235 0 366.5 -157.5t131.5 -426.5q0 -270 -134 -427t-370 -157z" />
    <glyph glyph-name="uni044E" unicode="&#x44e;" horiz-adv-x="1538" 
d="M950 -31q-229 0 -361 148t-143 393h-217v-510h-86v1106h86v-510h215q11 248 144 394.5t360 146.5q243 0 375.5 -159t132.5 -423q0 -267 -132.5 -426.5t-373.5 -159.5zM946 55q207 0 312.5 133.5t105.5 366.5q0 232 -106.5 364t-309.5 132q-195 0 -303 -130.5t-108 -365.5
q0 -231 106 -365.5t303 -134.5z" />
    <glyph glyph-name="uni044F" unicode="&#x44f;" horiz-adv-x="1089" 
d="M82 0l318 463q-2 1 -5 1t-4 1q-118 24 -193 101t-75 206q0 124 68.5 206.5t170.5 111.5q61 16 177 16h405l2 -1106h-88v449h-299q-23 0 -61 2l-314 -451h-102zM563 535h295v485h-295q-120 0 -184 -19q-67 -21 -115.5 -76.5t-48.5 -150.5q0 -92 48 -148t134 -77
q59 -14 166 -14z" />
    <glyph glyph-name="uni0450" unicode="&#x450;" 
d="M565 1567l68 -277h-68l-98 277h98zM588 -31q-235 0 -370.5 157t-135.5 427q0 272 135 428t371 156q238 0 371 -160.5t133 -448.5h-918q6 -225 114.5 -349t299.5 -124q136 0 239.5 64t165.5 186l72 -41q-68 -141 -192 -218t-285 -77zM588 1051q-184 0 -291 -114t-121 -323
h820q-18 212 -122.5 324.5t-285.5 112.5z" />
    <glyph glyph-name="uni0451" unicode="&#x451;" 
d="M772 1338q-32 0 -54 21.5t-22 53.5t22 54t54 22t54 -22t22 -54q0 -31 -22 -53t-54 -22zM403 1338q-32 0 -53.5 21.5t-21.5 53.5t21.5 54t53.5 22t54 -22t22 -54q0 -31 -22 -53t-54 -22zM588 -31q-235 0 -370.5 157t-135.5 427q0 272 135 428t371 156q238 0 371 -160.5
t133 -448.5h-918q6 -225 114.5 -349t299.5 -124q136 0 239.5 64t165.5 186l72 -41q-68 -141 -192 -218t-285 -77zM588 1051q-184 0 -291 -114t-121 -323h820q-18 212 -122.5 324.5t-285.5 112.5z" />
    <glyph glyph-name="uni0452" unicode="&#x452;" 
d="M942 -365q-63 -10 -131 9v84q98 -15 126 16.5t28 142.5v699q0 232 -94 346.5t-269 114.5q-98 0 -171.5 -35t-116.5 -97.5t-64 -140.5t-21 -170v-604h-86v1229h-143v86h143v160h80v-160h269v-86h-269v-301q59 102 158 152t221 50q210 0 329.5 -141t119.5 -387v-797
q0 -153 -109 -170z" />
    <glyph glyph-name="uni0453" unicode="&#x453;" horiz-adv-x="931" 
d="M474 1567h98l-98 -277h-67zM143 0v1106h738v-86h-652v-1020h-86z" />
    <glyph glyph-name="uni0454" unicode="&#x454;" horiz-adv-x="1103" 
d="M586 -31q-236 0 -370 157t-134 427q0 269 131.5 426.5t366.5 157.5q161 0 281 -73.5t171 -201.5l-82 -35q-46 106 -141.5 165t-220.5 59q-192 0 -296.5 -122t-115.5 -333h580v-86h-580q12 -213 117 -334t295 -121q123 0 216 56.5t144 164.5l84 -36q-140 -271 -446 -271z
" />
    <glyph glyph-name="uni0455" unicode="&#x455;" horiz-adv-x="1052" 
d="M547 -29q-188 0 -312 78.5t-153 216.5l88 17q28 -103 130 -164.5t249 -61.5q151 0 239.5 65t88.5 175q0 63 -28.5 100t-101.5 68t-229 74q-161 44 -246 84t-121 90t-36 125q0 132 114 215.5t295 83.5q183 0 308.5 -89.5t138.5 -230.5l-88 -16q-20 115 -118.5 182.5
t-246.5 67.5q-138 2 -225.5 -56.5t-87.5 -152.5q0 -78 71 -125t267 -96q169 -43 259.5 -86t128.5 -99t38 -143q0 -151 -112.5 -236.5t-309.5 -85.5z" />
    <glyph glyph-name="uni0456" unicode="&#x456;" horiz-adv-x="413" 
d="M207 1334q-32 0 -54 21.5t-22 53.5t22 54t54 22t54 -22t22 -54q0 -31 -22 -53t-54 -22zM164 0v1106h86v-1106h-86z" />
    <glyph glyph-name="uni0457" unicode="&#x457;" horiz-adv-x="413" 
d="M391 1338q-32 0 -54 21.5t-22 53.5t22 54t54 22t54 -22t22 -54q0 -31 -22 -53t-54 -22zM23 1338q-32 0 -54 21.5t-22 53.5t22 54t54 22t53.5 -22t21.5 -54q0 -31 -22 -53t-53 -22zM164 0v1106h86v-1106h-86z" />
    <glyph glyph-name="uni0458" unicode="&#x458;" horiz-adv-x="460" 
d="M254 1334q-32 0 -54 21.5t-22 53.5t22 54t54 22t54 -22t22 -54q0 -31 -22 -53t-54 -22zM-20 -492v89h69q72 0 117 39t45 128v1342h86v-1331q0 -141 -58.5 -204t-191.5 -63h-67z" />
    <glyph glyph-name="uni0459" unicode="&#x459;" horiz-adv-x="1689" 
d="M41 0v82q45 -8 75 -1t47 34t25 55t17 80q41 232 80 856h649v-449h237q103 0 162 -10q55 -9 101.5 -30t87 -56.5t63.5 -94t23 -134.5q0 -136 -68 -215t-172 -103q-63 -14 -176 -14h-344l-2 1020h-473q-42 -608 -90 -844q-7 -34 -13 -57t-16 -46t-22 -36.5t-29.5 -25
t-40 -15.5t-53 -3.5t-68.5 7.5zM934 86h233q132 0 187 14q162 43 162 234q0 103 -45.5 155t-135.5 70q-61 12 -168 12h-233v-485z" />
    <glyph glyph-name="uni045A" unicode="&#x45a;" horiz-adv-x="1605" 
d="M143 0v1106h86v-449h533v449h88v-449h237q103 0 162 -10q55 -9 101.5 -30t87 -56.5t63.5 -94t23 -134.5q0 -136 -68 -215t-172 -103q-63 -14 -176 -14h-344l-2 571h-533v-571h-86zM850 86h233q132 0 187 14q162 43 162 234q0 103 -45.5 155t-135.5 70q-61 12 -168 12
h-233v-485z" />
    <glyph glyph-name="uni045B" unicode="&#x45b;" 
d="M143 0v1229h-143v86h143v160h80v-160h269v-86h-269v-302q59 103 157.5 153t221.5 50q210 0 329.5 -141t119.5 -387v-602h-86v586q0 232 -94 346.5t-269 114.5q-98 0 -171.5 -35t-116.5 -97.5t-64 -140.5t-21 -170v-604h-86z" />
    <glyph glyph-name="uni045C" unicode="&#x45c;" horiz-adv-x="1024" 
d="M501 1567h98l-98 -277h-68zM143 0v1106h86v-533l553 533h129l-577 -553l665 -553h-147l-623 532v-532h-86z" />
    <glyph glyph-name="uni045D" unicode="&#x45d;" horiz-adv-x="1112" 
d="M583 1567l67 -277h-67l-99 277h99zM969 1106v-1106h-86v954l-660 -954h-80v1106h86v-954l660 954h80z" />
    <glyph glyph-name="uni045E" unicode="&#x45e;" horiz-adv-x="1036" 
d="M573 1241q-97 0 -165 68.5t-68 165.5h80q0 -63 45 -108.5t108 -45.5q64 0 109 45.5t45 108.5h80q0 -97 -68.5 -165.5t-165.5 -68.5zM309 -492l183 491l-451 1107h94l400 -988l358 988h92l-579 -1598h-97z" />
    <glyph glyph-name="uni045F" unicode="&#x45f;" horiz-adv-x="1112" 
d="M541 -246v246h-398v1106h86v-1020h654v1020h86v-1106h-342v-246h-86z" />
    <glyph glyph-name="uni0490" unicode="&#x490;" horiz-adv-x="1085" 
d="M143 0v1475h836v163h86v-249h-836v-1389h-86z" />
    <glyph glyph-name="uni0491" unicode="&#x491;" horiz-adv-x="931" 
d="M143 0v1106h652v164h86v-250h-652v-1020h-86z" />
    <glyph glyph-name="Ustraitcy" unicode="&#x4ae;" horiz-adv-x="1062" 
d="M489 0v627l-489 848h98l434 -750l433 750h98l-488 -848v-627h-86z" />
    <glyph glyph-name="ustraitcy" unicode="&#x4af;" horiz-adv-x="978" 
d="M442 -369v369l-401 1106h92l356 -981l359 981h90l-401 -1106v-369h-95z" />
    <glyph glyph-name="uni04BA" unicode="&#x4ba;" horiz-adv-x="1284" 
d="M229 1475v-625q163 90 375 90q143 0 248.5 -40t167.5 -113.5t91.5 -169.5t29.5 -216v-401h-86v365q0 244 -109 364.5t-332 120.5q-119 0 -219 -31t-166 -78v-741h-86v1475h86z" />
    <glyph glyph-name="uni04BB" unicode="&#x4bb;" horiz-adv-x="1112" 
d="M270 1106v-438q142 73 328 73q166 0 273 -73t139 -211q20 -86 20 -230v-227h-86v227q0 102 -10 166q-45 273 -348 273q-89 0 -173.5 -22.5t-142.5 -61.5v-582h-86v1106h86z" />
    <glyph glyph-name="uni04E8" unicode="&#x4e8;" horiz-adv-x="1486" 
d="M723 -31q-162 0 -288.5 56.5t-208 158.5t-123.5 242.5t-42 310.5t42 310.5t123.5 242.5t208 158.5t288.5 56.5t288.5 -56.5t207.5 -159t123 -242t42 -310.5t-42 -310.5t-123 -242t-207.5 -159t-288.5 -56.5zM723 1419q-179 0 -305.5 -82t-190.5 -223.5t-72 -333.5h1136
q-7 191 -71 333t-191 224t-306 82zM723 55q179 0 306 82t191 224t71 333h-1137q8 -291 155 -465t414 -174z" />
    <glyph glyph-name="uni04E9" unicode="&#x4e9;" horiz-adv-x="1175" 
d="M588 -31q-161 0 -276 75t-172.5 206.5t-57.5 304.5q0 265 134 423.5t372 158.5q242 0 374 -159.5t132 -422.5q0 -268 -133 -427t-373 -159zM588 1051q-194 0 -299 -123t-114 -332h825q-9 214 -113.5 334.5t-298.5 120.5zM588 55q193 0 297.5 122t114.5 333h-825
q10 -211 116.5 -333t296.5 -122z" />
    <glyph glyph-name="Wgrave" unicode="&#x1e80;" horiz-adv-x="1861" 
d="M879 1935l67 -276h-67l-99 276h99zM463 0l-422 1475h88l379 -1319l377 1319h90l379 -1319l377 1319h90l-422 -1475h-90l-379 1317l-377 -1317h-90z" />
    <glyph glyph-name="wgrave" unicode="&#x1e81;" horiz-adv-x="1523" 
d="M710 1567l67 -277h-67l-99 277h99zM379 0l-338 1106h90l293 -959l293 959h90l293 -959l295 959h88l-338 -1106h-90l-293 961l-293 -961h-90z" />
    <glyph glyph-name="Wacute" unicode="&#x1e82;" horiz-adv-x="1861" 
d="M983 1935h98l-98 -276h-68zM463 0l-422 1475h88l379 -1319l377 1319h90l379 -1319l377 1319h90l-422 -1475h-90l-379 1317l-377 -1317h-90z" />
    <glyph glyph-name="wacute" unicode="&#x1e83;" horiz-adv-x="1523" 
d="M814 1567h98l-98 -277h-68zM379 0l-338 1106h90l293 -959l293 959h90l293 -959l295 959h88l-338 -1106h-90l-293 961l-293 -961h-90z" />
    <glyph glyph-name="Wdieresis" unicode="&#x1e84;" horiz-adv-x="1861" 
d="M1116 1707q-32 0 -54 21.5t-22 53.5t22 54t54 22t54 -22t22 -54q0 -31 -22 -53t-54 -22zM748 1707q-32 0 -54 21.5t-22 53.5t22 54t54 22t53.5 -22t21.5 -54t-21.5 -53.5t-53.5 -21.5zM463 0l-422 1475h88l379 -1319l377 1319h90l379 -1319l377 1319h90l-422 -1475h-90
l-379 1317l-377 -1317h-90z" />
    <glyph glyph-name="wdieresis" unicode="&#x1e85;" horiz-adv-x="1523" 
d="M946 1338q-32 0 -54 21.5t-22 53.5t22 54t54 22t54 -22t22 -54q0 -31 -22 -53t-54 -22zM578 1338q-32 0 -54 21.5t-22 53.5t22 54t54 22t53.5 -22t21.5 -54q0 -31 -21.5 -53t-53.5 -22zM379 0l-338 1106h90l293 -959l293 959h90l293 -959l295 959h88l-338 -1106h-90
l-293 961l-293 -961h-90z" />
    <glyph glyph-name="uni1E9E" unicode="&#x1e9e;" horiz-adv-x="1391" 
d="M803 -31q-80 0 -182 31v86q95 -27 186 -27q161 0 266 93t105 255q0 148 -111 239.5t-319 98.5v80l274 485q-43 29 -80.5 48.5t-109 38t-151.5 18.5q-179 0 -286.5 -85.5t-135.5 -222.5q-21 -103 -21 -276v-831h-95v915q0 128 21 220q24 106 79 181.5t130 115t153 56.5
t168 17q227 0 450 -164l-285 -513q59 -5 116 -23.5t110.5 -53.5t94 -82.5t65 -115t24.5 -145.5q0 -206 -124.5 -322.5t-341.5 -116.5z" />
    <glyph glyph-name="uni1EA0" unicode="&#x1ea0;" horiz-adv-x="1247" 
d="M41 0l537 1475h92l536 -1475h-92l-139 383h-703l-139 -383h-92zM302 465h643l-322 886zM624 -399q-32 0 -54 21.5t-22 52.5q0 32 22 54t54 22t53.5 -22t21.5 -54q0 -31 -21.5 -52.5t-53.5 -21.5z" />
    <glyph glyph-name="uni1EA1" unicode="&#x1ea1;" horiz-adv-x="1110" 
d="M465 -31q-184 0 -283.5 93t-99.5 231q0 70 24 126t67.5 93t95 60t114.5 36q135 27 518 72q2 191 -77 281t-263 90q-275 0 -342 -252l-94 24q37 153 150.5 233.5t289.5 80.5q151 0 255 -62t141 -170q26 -79 26 -213v-692h-80v202q-63 -112 -178.5 -172.5t-263.5 -60.5z
M461 55q180 0 294.5 96.5t137.5 266.5q8 57 8 178q-352 -31 -500 -68q-43 -11 -79 -27t-72 -43t-57 -70t-21 -97q0 -43 15 -82.5t46.5 -75t90.5 -57t137 -21.5zM535 -399q-32 0 -54 21.5t-22 52.5q0 32 22 54t54 22t53.5 -22t21.5 -54q0 -31 -21.5 -52.5t-53.5 -21.5z" />
    <glyph glyph-name="uni1EA2" unicode="&#x1ea2;" horiz-adv-x="1247" 
d="M524 1854l-39 51q31 38 74 56t90.5 7t81.5 -55q49 -69 22 -147.5t-104 -120.5l-53 49q63 34 84 83.5t-6 86.5q-29 38 -70.5 33t-79.5 -43zM41 0l537 1475h92l536 -1475h-92l-139 383h-703l-139 -383h-92zM302 465h643l-322 886z" />
    <glyph glyph-name="uni1EA3" unicode="&#x1ea3;" horiz-adv-x="1110" 
d="M464 1486l-39 50q31 38 74 56t90.5 7t81.5 -55q49 -69 22 -147.5t-104 -120.5l-53 49q63 34 83.5 83.5t-6.5 86.5q-28 38 -69.5 33.5t-79.5 -42.5zM465 -31q-184 0 -283.5 93t-99.5 231q0 70 24 126t67.5 93t95 60t114.5 36q135 27 518 72q2 191 -77 281t-263 90
q-275 0 -342 -252l-94 24q37 153 150.5 233.5t289.5 80.5q151 0 255 -62t141 -170q26 -79 26 -213v-692h-80v202q-63 -112 -178.5 -172.5t-263.5 -60.5zM461 55q180 0 294.5 96.5t137.5 266.5q8 57 8 178q-352 -31 -500 -68q-43 -11 -79 -27t-72 -43t-57 -70t-21 -97
q0 -43 15 -82.5t46.5 -75t90.5 -57t137 -21.5z" />
    <glyph glyph-name="uni1EA4" unicode="&#x1ea4;" horiz-adv-x="1247" 
d="M939 2150h98l-98 -276h-68zM372 1659l205 246h94l205 -246h-103l-149 174l-150 -174h-102zM41 0l537 1475h92l536 -1475h-92l-139 383h-703l-139 -383h-92zM302 465h643l-322 886z" />
    <glyph glyph-name="uni1EA5" unicode="&#x1ea5;" horiz-adv-x="1110" 
d="M894 1782h98l-98 -277h-68zM327 1290l204 246h95l204 -246h-102l-149 174l-150 -174h-102zM465 -31q-184 0 -283.5 93t-99.5 231q0 70 24 126t67.5 93t95 60t114.5 36q135 27 518 72q2 191 -77 281t-263 90q-275 0 -342 -252l-94 24q37 153 150.5 233.5t289.5 80.5
q151 0 255 -62t141 -170q26 -79 26 -213v-692h-80v202q-63 -112 -178.5 -172.5t-263.5 -60.5zM461 55q180 0 294.5 96.5t137.5 266.5q8 57 8 178q-352 -31 -500 -68q-43 -11 -79 -27t-72 -43t-57 -70t-21 -97q0 -43 15 -82.5t46.5 -75t90.5 -57t137 -21.5z" />
    <glyph glyph-name="uni1EA6" unicode="&#x1ea6;" horiz-adv-x="1247" 
d="M835 2150l67 -276h-67l-99 276h99zM372 1659l205 246h94l205 -246h-103l-149 174l-150 -174h-102zM41 0l537 1475h92l536 -1475h-92l-139 383h-703l-139 -383h-92zM302 465h643l-322 886z" />
    <glyph glyph-name="uni1EA7" unicode="&#x1ea7;" horiz-adv-x="1110" 
d="M802 1782l67 -277h-67l-99 277h99zM339 1290l205 246h94l205 -246h-103l-149 174l-150 -174h-102zM465 -31q-184 0 -283.5 93t-99.5 231q0 70 24 126t67.5 93t95 60t114.5 36q135 27 518 72q2 191 -77 281t-263 90q-275 0 -342 -252l-94 24q37 153 150.5 233.5
t289.5 80.5q151 0 255 -62t141 -170q26 -79 26 -213v-692h-80v202q-63 -112 -178.5 -172.5t-263.5 -60.5zM461 55q180 0 294.5 96.5t137.5 266.5q8 57 8 178q-352 -31 -500 -68q-43 -11 -79 -27t-72 -43t-57 -70t-21 -97q0 -43 15 -82.5t46.5 -75t90.5 -57t137 -21.5z" />
    <glyph glyph-name="uni1EA8" unicode="&#x1ea8;" horiz-adv-x="1247" 
d="M895 1854l-39 51q31 38 74 56t90.5 7t81.5 -55q49 -69 22 -147.5t-104 -120.5l-53 49q63 34 83.5 83.5t-6.5 86.5q-29 38 -70 33t-79 -43zM373 1659l205 246h94l205 -246h-103l-149 174l-150 -174h-102zM41 0l537 1475h92l536 -1475h-92l-139 383h-703l-139 -383h-92z
M302 465h643l-322 886z" />
    <glyph glyph-name="uni1EA9" unicode="&#x1ea9;" horiz-adv-x="1110" 
d="M825 1486l-39 50q31 38 74 56t90.5 7t81.5 -55q49 -69 22 -147.5t-104 -120.5l-53 49q63 34 84 83.5t-6 86.5q-28 38 -70 33.5t-80 -42.5zM303 1290l205 246h94l205 -246h-102l-150 174l-149 -174h-103zM465 -31q-184 0 -283.5 93t-99.5 231q0 70 24 126t67.5 93t95 60
t114.5 36q135 27 518 72q2 191 -77 281t-263 90q-275 0 -342 -252l-94 24q37 153 150.5 233.5t289.5 80.5q151 0 255 -62t141 -170q26 -79 26 -213v-692h-80v202q-63 -112 -178.5 -172.5t-263.5 -60.5zM461 55q180 0 294.5 96.5t137.5 266.5q8 57 8 178q-352 -31 -500 -68
q-43 -11 -79 -27t-72 -43t-57 -70t-21 -97q0 -43 15 -82.5t46.5 -75t90.5 -57t137 -21.5z" />
    <glyph glyph-name="uni1EAA" unicode="&#x1eaa;" horiz-adv-x="1247" 
d="M768 1956q-45 0 -100 24.5t-105.5 49t-83.5 24.5q-41 0 -54 -28t-1 -60h-74q-19 70 20.5 120t110.5 50q58 0 155.5 -49t135.5 -49q37 0 52 27.5t3 64.5h74q19 -69 -20.5 -121.5t-112.5 -52.5zM369 1659l204 246h95l204 -246h-102l-149 174l-150 -174h-102zM41 0l537 1475
h92l536 -1475h-92l-139 383h-703l-139 -383h-92zM302 465h643l-322 886z" />
    <glyph glyph-name="uni1EAB" unicode="&#x1eab;" horiz-adv-x="1110" 
d="M723 1587q-36 0 -78.5 15.5t-75 34t-70.5 34t-65 15.5q-41 0 -54 -28.5t-1 -60.5h-74q-19 70 20.5 120t110.5 50q58 0 155.5 -49t135.5 -49q37 0 52 27.5t3 64.5h74q19 -69 -20.5 -121.5t-112.5 -52.5zM324 1290l204 246h95l204 -246h-102l-150 174l-149 -174h-102z
M465 -31q-184 0 -283.5 93t-99.5 231q0 70 24 126t67.5 93t95 60t114.5 36q135 27 518 72q2 191 -77 281t-263 90q-275 0 -342 -252l-94 24q37 153 150.5 233.5t289.5 80.5q151 0 255 -62t141 -170q26 -79 26 -213v-692h-80v202q-63 -112 -178.5 -172.5t-263.5 -60.5z
M461 55q180 0 294.5 96.5t137.5 266.5q8 57 8 178q-352 -31 -500 -68q-43 -11 -79 -27t-72 -43t-57 -70t-21 -97q0 -43 15 -82.5t46.5 -75t90.5 -57t137 -21.5z" />
    <glyph glyph-name="uni1EAC" unicode="&#x1eac;" horiz-adv-x="1247" 
d="M373 1659l205 246h94l205 -246h-103l-149 174l-150 -174h-102zM41 0l537 1475h92l536 -1475h-92l-139 383h-703l-139 -383h-92zM302 465h643l-322 886zM624 -399q-32 0 -54 21.5t-22 52.5q0 32 22 54t54 22t53.5 -22t21.5 -54q0 -31 -21.5 -52.5t-53.5 -21.5z" />
    <glyph glyph-name="uni1EAD" unicode="&#x1ead;" horiz-adv-x="1110" 
d="M319 1290l205 246h94l205 -246h-102l-150 174l-149 -174h-103zM465 -31q-184 0 -283.5 93t-99.5 231q0 70 24 126t67.5 93t95 60t114.5 36q135 27 518 72q2 191 -77 281t-263 90q-275 0 -342 -252l-94 24q37 153 150.5 233.5t289.5 80.5q151 0 255 -62t141 -170
q26 -79 26 -213v-692h-80v202q-63 -112 -178.5 -172.5t-263.5 -60.5zM461 55q180 0 294.5 96.5t137.5 266.5q8 57 8 178q-352 -31 -500 -68q-43 -11 -79 -27t-72 -43t-57 -70t-21 -97q0 -43 15 -82.5t46.5 -75t90.5 -57t137 -21.5zM535 -399q-32 0 -54 21.5t-22 52.5
q0 32 22 54t54 22t53.5 -22t21.5 -54q0 -31 -21.5 -52.5t-53.5 -21.5z" />
    <glyph glyph-name="uni1EAE" unicode="&#x1eae;" horiz-adv-x="1247" 
d="M663 2150h98l-98 -276h-68zM624 1610q-97 0 -165.5 68t-68.5 165h80q0 -63 45.5 -108t108.5 -45q64 0 108.5 45t44.5 108h80q0 -97 -68 -165t-165 -68zM41 0l537 1475h92l536 -1475h-92l-139 383h-703l-139 -383h-92zM302 465h643l-322 886z" />
    <glyph glyph-name="uni1EAF" unicode="&#x1eaf;" horiz-adv-x="1110" 
d="M611 1782h99l-99 -277h-67zM572 1241q-97 0 -165 68.5t-68 165.5h80q0 -63 45 -108.5t108 -45.5q64 0 109 45.5t45 108.5h80q0 -97 -68.5 -165.5t-165.5 -68.5zM465 -31q-184 0 -283.5 93t-99.5 231q0 70 24 126t67.5 93t95 60t114.5 36q135 27 518 72q2 191 -77 281
t-263 90q-275 0 -342 -252l-94 24q37 153 150.5 233.5t289.5 80.5q151 0 255 -62t141 -170q26 -79 26 -213v-692h-80v202q-63 -112 -178.5 -172.5t-263.5 -60.5zM461 55q180 0 294.5 96.5t137.5 266.5q8 57 8 178q-352 -31 -500 -68q-43 -11 -79 -27t-72 -43t-57 -70
t-21 -97q0 -43 15 -82.5t46.5 -75t90.5 -57t137 -21.5z" />
    <glyph glyph-name="uni1EB0" unicode="&#x1eb0;" horiz-adv-x="1247" 
d="M585 2150l67 -276h-67l-99 276h99zM624 1610q-97 0 -165.5 68t-68.5 165h80q0 -63 45 -108t109 -45q63 0 108 45t45 108h80q0 -97 -68 -165t-165 -68zM41 0l537 1475h92l536 -1475h-92l-139 383h-703l-139 -383h-92zM302 465h643l-322 886z" />
    <glyph glyph-name="uni1EB1" unicode="&#x1eb1;" horiz-adv-x="1110" 
d="M542 1782l67 -277h-67l-99 277h99zM581 1241q-97 0 -165.5 68.5t-68.5 165.5h80q0 -63 45 -108.5t109 -45.5q63 0 108 45.5t45 108.5h80q0 -97 -68 -165.5t-165 -68.5zM465 -31q-184 0 -283.5 93t-99.5 231q0 70 24 126t67.5 93t95 60t114.5 36q135 27 518 72
q2 191 -77 281t-263 90q-275 0 -342 -252l-94 24q37 153 150.5 233.5t289.5 80.5q151 0 255 -62t141 -170q26 -79 26 -213v-692h-80v202q-63 -112 -178.5 -172.5t-263.5 -60.5zM461 55q180 0 294.5 96.5t137.5 266.5q8 57 8 178q-352 -31 -500 -68q-43 -11 -79 -27t-72 -43
t-57 -70t-21 -97q0 -43 15 -82.5t46.5 -75t90.5 -57t137 -21.5z" />
    <glyph glyph-name="uni1EB2" unicode="&#x1eb2;" horiz-adv-x="1247" 
d="M497 2060l-39 50q31 38 74 56t90 7.5t81 -54.5q49 -69 22.5 -148t-103.5 -121l-54 50q63 34 84 83.5t-6 86.5q-29 38 -70 33t-79 -43zM624 1610q-97 0 -165.5 68t-68.5 165h80q0 -63 45.5 -108t108.5 -45q64 0 108.5 45t44.5 108h80q0 -97 -68 -165t-165 -68zM41 0
l537 1475h92l536 -1475h-92l-139 383h-703l-139 -383h-92zM302 465h643l-322 886z" />
    <glyph glyph-name="uni1EB3" unicode="&#x1eb3;" horiz-adv-x="1110" 
d="M460 1692l-39 50q31 38 74 56t90.5 7t81.5 -55q49 -69 22 -147.5t-104 -120.5l-54 49q63 34 84 83.5t-6 86.5q-28 38 -69.5 33.5t-79.5 -42.5zM587 1241q-97 0 -165.5 68.5t-68.5 165.5h80q0 -63 45.5 -108.5t108.5 -45.5q64 0 108.5 45.5t44.5 108.5h80
q0 -97 -68 -165.5t-165 -68.5zM465 -31q-184 0 -283.5 93t-99.5 231q0 70 24 126t67.5 93t95 60t114.5 36q135 27 518 72q2 191 -77 281t-263 90q-275 0 -342 -252l-94 24q37 153 150.5 233.5t289.5 80.5q151 0 255 -62t141 -170q26 -79 26 -213v-692h-80v202
q-63 -112 -178.5 -172.5t-263.5 -60.5zM461 55q180 0 294.5 96.5t137.5 266.5q8 57 8 178q-352 -31 -500 -68q-43 -11 -79 -27t-72 -43t-57 -70t-21 -97q0 -43 15 -82.5t46.5 -75t90.5 -57t137 -21.5z" />
    <glyph glyph-name="uni1EB4" unicode="&#x1eb4;" horiz-adv-x="1247" 
d="M755 1894q-45 0 -100 25t-105.5 49.5t-83.5 24.5q-41 0 -54 -28t-1 -60h-74q-19 70 20.5 120t110.5 50q46 0 101.5 -24.5t106 -49.5t83.5 -25q37 0 52 27.5t3 64.5h74q19 -69 -20.5 -121.5t-112.5 -52.5zM610 1610q-97 0 -165 68t-68 165h80q0 -63 45 -108t108 -45
q64 0 109 45t45 108h80q0 -97 -68.5 -165t-165.5 -68zM41 0l537 1475h92l536 -1475h-92l-139 383h-703l-139 -383h-92zM302 465h643l-322 886z" />
    <glyph glyph-name="uni1EB5" unicode="&#x1eb5;" horiz-adv-x="1110" 
d="M683 1526q-45 0 -100 24.5t-105 49t-84 24.5q-41 0 -54 -28t-1 -60h-74q-19 70 20.5 120t110.5 50q58 0 155.5 -49t135.5 -49q37 0 52 27.5t3 64.5h74q19 -69 -20.5 -121.5t-112.5 -52.5zM539 1241q-97 0 -165.5 68.5t-68.5 165.5h80q0 -63 45.5 -108.5t108.5 -45.5
q64 0 108.5 45.5t44.5 108.5h80q0 -97 -68 -165.5t-165 -68.5zM465 -31q-184 0 -283.5 93t-99.5 231q0 70 24 126t67.5 93t95 60t114.5 36q135 27 518 72q2 191 -77 281t-263 90q-275 0 -342 -252l-94 24q37 153 150.5 233.5t289.5 80.5q151 0 255 -62t141 -170
q26 -79 26 -213v-692h-80v202q-63 -112 -178.5 -172.5t-263.5 -60.5zM461 55q180 0 294.5 96.5t137.5 266.5q8 57 8 178q-352 -31 -500 -68q-43 -11 -79 -27t-72 -43t-57 -70t-21 -97q0 -43 15 -82.5t46.5 -75t90.5 -57t137 -21.5z" />
    <glyph glyph-name="uni1EB6" unicode="&#x1eb6;" horiz-adv-x="1247" 
d="M625 1610q-97 0 -165.5 68t-68.5 165h80q0 -63 45.5 -108t108.5 -45q64 0 108.5 45t44.5 108h80q0 -97 -68 -165t-165 -68zM41 0l537 1475h92l536 -1475h-92l-139 383h-703l-139 -383h-92zM302 465h643l-322 886zM624 -399q-32 0 -54 21.5t-22 52.5q0 32 22 54t54 22
t53.5 -22t21.5 -54q0 -31 -21.5 -52.5t-53.5 -21.5z" />
    <glyph glyph-name="uni1EB7" unicode="&#x1eb7;" horiz-adv-x="1110" 
d="M573 1241q-97 0 -165 68.5t-68 165.5h80q0 -63 45 -108.5t108 -45.5q64 0 109 45.5t45 108.5h80q0 -97 -68.5 -165.5t-165.5 -68.5zM465 -31q-184 0 -283.5 93t-99.5 231q0 70 24 126t67.5 93t95 60t114.5 36q135 27 518 72q2 191 -77 281t-263 90q-275 0 -342 -252
l-94 24q37 153 150.5 233.5t289.5 80.5q151 0 255 -62t141 -170q26 -79 26 -213v-692h-80v202q-63 -112 -178.5 -172.5t-263.5 -60.5zM461 55q180 0 294.5 96.5t137.5 266.5q8 57 8 178q-352 -31 -500 -68q-43 -11 -79 -27t-72 -43t-57 -70t-21 -97q0 -43 15 -82.5t46.5 -75
t90.5 -57t137 -21.5zM535 -399q-32 0 -54 21.5t-22 52.5q0 32 22 54t54 22t53.5 -22t21.5 -54q0 -31 -21.5 -52.5t-53.5 -21.5z" />
    <glyph glyph-name="uni1EB8" unicode="&#x1eb8;" horiz-adv-x="1228" 
d="M143 0v1475h901v-86h-815v-609h693v-86h-693v-608h815v-86h-901zM594 -399q-32 0 -54 21.5t-22 52.5q0 32 22 54t54 22t54 -22t22 -54q0 -31 -22 -52.5t-54 -21.5z" />
    <glyph glyph-name="uni1EB9" unicode="&#x1eb9;" 
d="M588 -31q-235 0 -370.5 157t-135.5 427q0 272 135 428t371 156q238 0 371 -160.5t133 -448.5h-918q6 -225 114.5 -349t299.5 -124q136 0 239.5 64t165.5 186l72 -41q-68 -141 -192 -218t-285 -77zM588 1051q-184 0 -291 -114t-121 -323h820q-18 212 -122.5 324.5
t-285.5 112.5zM587 -399q-32 0 -54 21.5t-22 52.5q0 32 22 54t54 22t54 -22t22 -54q0 -31 -22 -52.5t-54 -21.5z" />
    <glyph glyph-name="uni1EBA" unicode="&#x1eba;" horiz-adv-x="1146" 
d="M495 1854l-39 51q31 38 74 56t90 7t81 -55q49 -69 22.5 -147.5t-103.5 -120.5l-54 49q63 34 84 83.5t-6 86.5q-29 38 -70 33t-79 -43zM143 0v1475h901v-86h-815v-609h693v-86h-693v-608h815v-86h-901z" />
    <glyph glyph-name="uni1EBB" unicode="&#x1ebb;" horiz-adv-x="1228" 
d="M495 1486l-39 50q31 38 74 56t90 7t81 -55q49 -69 22.5 -147.5t-103.5 -120.5l-54 49q63 34 84 83.5t-6 86.5q-28 38 -69.5 33.5t-79.5 -42.5zM588 -31q-235 0 -370.5 157t-135.5 427q0 272 135 428t371 156q238 0 371 -160.5t133 -448.5h-918q6 -225 114.5 -349
t299.5 -124q136 0 239.5 64t165.5 186l72 -41q-68 -141 -192 -218t-285 -77zM588 1051q-184 0 -291 -114t-121 -323h820q-18 212 -122.5 324.5t-285.5 112.5z" />
    <glyph glyph-name="uni1EBC" unicode="&#x1ebc;" horiz-adv-x="1146" 
d="M736 1659q-45 0 -100 24.5t-105.5 49t-83.5 24.5q-41 0 -54 -28t-1 -60h-74q-19 70 21 120t111 50q58 0 155 -49t135 -49q37 0 52.5 28t3.5 64h73q19 -69 -20.5 -121.5t-112.5 -52.5zM143 0v1475h901v-86h-815v-609h693v-86h-693v-608h815v-86h-901z" />
    <glyph glyph-name="uni1EBD" unicode="&#x1ebd;" 
d="M729 1290q-45 0 -100 25t-105.5 49.5t-83.5 24.5q-41 0 -54 -28.5t-1 -60.5h-74q-19 70 20.5 120t110.5 50q58 0 155.5 -49t135.5 -49q37 0 52 27.5t3 64.5h74q19 -69 -20.5 -121.5t-112.5 -52.5zM588 -31q-235 0 -370.5 157t-135.5 427q0 272 135 428t371 156
q238 0 371 -160.5t133 -448.5h-918q6 -225 114.5 -349t299.5 -124q136 0 239.5 64t165.5 186l72 -41q-68 -141 -192 -218t-285 -77zM588 1051q-184 0 -291 -114t-121 -323h820q-18 212 -122.5 324.5t-285.5 112.5z" />
    <glyph glyph-name="uni1EBE" unicode="&#x1ebe;" horiz-adv-x="1146" 
d="M894 2150h98l-98 -276h-68zM327 1659l204 246h95l204 -246h-102l-149 174l-150 -174h-102zM143 0v1475h901v-86h-815v-609h693v-86h-693v-608h815v-86h-901z" />
    <glyph glyph-name="uni1EBF" unicode="&#x1ebf;" 
d="M928 1782h98l-98 -277h-68zM360 1290l205 246h94l205 -246h-102l-150 174l-149 -174h-103zM588 -31q-235 0 -370.5 157t-135.5 427q0 272 135 428t371 156q238 0 371 -160.5t133 -448.5h-918q6 -225 114.5 -349t299.5 -124q136 0 239.5 64t165.5 186l72 -41
q-68 -141 -192 -218t-285 -77zM588 1051q-184 0 -291 -114t-121 -323h820q-18 212 -122.5 324.5t-285.5 112.5z" />
    <glyph glyph-name="uni1EC0" unicode="&#x1ec0;" horiz-adv-x="1146" 
d="M842 2150l67 -276h-67l-99 276h99zM379 1659l205 246h94l205 -246h-103l-149 174l-150 -174h-102zM143 0v1475h901v-86h-815v-609h693v-86h-693v-608h815v-86h-901z" />
    <glyph glyph-name="uni1EC1" unicode="&#x1ec1;" 
d="M798 1782l67 -277h-67l-99 277h99zM335 1290l205 246h94l205 -246h-103l-149 174l-150 -174h-102zM588 -31q-235 0 -370.5 157t-135.5 427q0 272 135 428t371 156q238 0 371 -160.5t133 -448.5h-918q6 -225 114.5 -349t299.5 -124q136 0 239.5 64t165.5 186l72 -41
q-68 -141 -192 -218t-285 -77zM588 1051q-184 0 -291 -114t-121 -323h820q-18 212 -122.5 324.5t-285.5 112.5z" />
    <glyph glyph-name="uni1EC2" unicode="&#x1ec2;" horiz-adv-x="1228" 
d="M871 1854l-38 51q31 38 74 56t90 7t81 -55q49 -69 22 -147.5t-104 -120.5l-53 49q63 34 84 83.5t-6 86.5q-29 38 -70.5 33t-79.5 -43zM349 1659l205 246h94l205 -246h-102l-150 174l-149 -174h-103zM143 0v1475h901v-86h-815v-609h693v-86h-693v-608h815v-86h-901z" />
    <glyph glyph-name="uni1EC3" unicode="&#x1ec3;" 
d="M872 1486l-38 50q31 38 74 56t90 7t81 -55q49 -69 22 -147.5t-104 -120.5l-53 49q63 34 84 83.5t-6 86.5q-28 38 -70 33.5t-80 -42.5zM350 1290l205 246h94l205 -246h-102l-150 174l-149 -174h-103zM588 -31q-235 0 -370.5 157t-135.5 427q0 272 135 428t371 156
q238 0 371 -160.5t133 -448.5h-918q6 -225 114.5 -349t299.5 -124q136 0 239.5 64t165.5 186l72 -41q-68 -141 -192 -218t-285 -77zM588 1051q-184 0 -291 -114t-121 -323h820q-18 212 -122.5 324.5t-285.5 112.5z" />
    <glyph glyph-name="uni1EC4" unicode="&#x1ec4;" horiz-adv-x="1146" 
d="M736 1956q-45 0 -100 24.5t-105.5 49t-83.5 24.5q-41 0 -54 -28t-1 -60h-74q-19 70 21 120t111 50q58 0 155 -49t135 -49q37 0 52.5 28t3.5 64h73q19 -69 -20.5 -121.5t-112.5 -52.5zM337 1659l205 246h94l205 -246h-103l-149 174l-150 -174h-102zM143 0v1475h901v-86
h-815v-609h693v-86h-693v-608h815v-86h-901z" />
    <glyph glyph-name="uni1EC5" unicode="&#x1ec5;" 
d="M744 1587q-45 0 -99.5 24.5t-105 49.5t-83.5 25q-41 0 -54.5 -28.5t-1.5 -60.5h-73q-19 70 20.5 120t110.5 50q58 0 155.5 -49t135.5 -49q37 0 52 27.5t3 64.5h74q19 -69 -21 -121.5t-113 -52.5zM345 1290l205 246h94l205 -246h-103l-149 174l-150 -174h-102zM588 -31
q-235 0 -370.5 157t-135.5 427q0 272 135 428t371 156q238 0 371 -160.5t133 -448.5h-918q6 -225 114.5 -349t299.5 -124q136 0 239.5 64t165.5 186l72 -41q-68 -141 -192 -218t-285 -77zM588 1051q-184 0 -291 -114t-121 -323h820q-18 212 -122.5 324.5t-285.5 112.5z" />
    <glyph glyph-name="uni1EC6" unicode="&#x1ec6;" horiz-adv-x="1146" 
d="M332 1659l205 246h94l205 -246h-103l-149 174l-150 -174h-102zM143 0v1475h901v-86h-815v-609h693v-86h-693v-608h815v-86h-901zM594 -399q-32 0 -54 21.5t-22 52.5q0 32 22 54t54 22t54 -22t22 -54q0 -31 -22 -52.5t-54 -21.5z" />
    <glyph glyph-name="uni1EC7" unicode="&#x1ec7;" 
d="M336 1290l205 246h94l205 -246h-103l-149 174l-150 -174h-102zM588 -31q-235 0 -370.5 157t-135.5 427q0 272 135 428t371 156q238 0 371 -160.5t133 -448.5h-918q6 -225 114.5 -349t299.5 -124q136 0 239.5 64t165.5 186l72 -41q-68 -141 -192 -218t-285 -77zM588 1051
q-184 0 -291 -114t-121 -323h820q-18 212 -122.5 324.5t-285.5 112.5zM587 -399q-32 0 -54 21.5t-22 52.5q0 32 22 54t54 22t54 -22t22 -54q0 -31 -22 -52.5t-54 -21.5z" />
    <glyph glyph-name="uni1EC8" unicode="&#x1ec8;" horiz-adv-x="413" 
d="M98 1854l-39 51q31 38 74 56t90.5 7t81.5 -55q49 -69 22 -147.5t-104 -120.5l-53 49q63 34 84 83.5t-6 86.5q-29 38 -70.5 33t-79.5 -43zM164 0v1475h86v-1475h-86z" />
    <glyph glyph-name="uni1EC9" unicode="&#x1ec9;" horiz-adv-x="413" 
d="M89 1486l-39 50q31 38 74 56t90.5 7t81.5 -55q49 -69 22 -147.5t-104 -120.5l-53 49q63 34 84 83.5t-6 86.5q-28 38 -70 33.5t-80 -42.5zM164 0v1106h86v-1106h-86z" />
    <glyph glyph-name="uni1ECA" unicode="&#x1eca;" horiz-adv-x="413" 
d="M164 0v1475h86v-1475h-86zM207 -399q-32 0 -54 21.5t-22 52.5q0 32 22 54t54 22t54 -22t22 -54q0 -31 -22 -52.5t-54 -21.5z" />
    <glyph glyph-name="uni1ECB" unicode="&#x1ecb;" horiz-adv-x="413" 
d="M207 1334q-32 0 -54 21.5t-22 53.5t22 54t54 22t54 -22t22 -54q0 -31 -22 -53t-54 -22zM164 0v1106h86v-1106h-86zM207 -399q-32 0 -54 21.5t-22 52.5q0 32 22 54t54 22t54 -22t22 -54q0 -31 -22 -52.5t-54 -21.5z" />
    <glyph glyph-name="uni1ECC" unicode="&#x1ecc;" horiz-adv-x="1445" 
d="M723 -31q-162 0 -288.5 56.5t-208 158.5t-123.5 242.5t-42 310.5t42 310.5t123.5 242.5t208 158.5t288.5 56.5t288.5 -56.5t207.5 -159t123 -242t42 -310.5t-42 -310.5t-123 -242t-207.5 -159t-288.5 -56.5zM723 55q139 0 248 50t179 141.5t106 215.5t36 275t-36 275
t-106 215.5t-179 141.5t-248 50t-247.5 -50t-178 -141.5t-105.5 -215.5t-38 -275q-2 -202 60.5 -354t193 -240t315.5 -88zM698 -399q-32 0 -53.5 21t-21.5 53t21.5 54t53.5 22t54 -22t22 -54q0 -31 -22 -52.5t-54 -21.5z" />
    <glyph glyph-name="uni1ECD" unicode="&#x1ecd;" horiz-adv-x="1175" 
d="M588 -31q-161 0 -276 75t-172.5 206.5t-57.5 304.5q0 265 134 423.5t372 158.5q242 0 374 -159.5t132 -422.5q0 -268 -133 -427t-373 -159zM588 55q203 0 308 135t105 365q0 231 -105.5 363.5t-307.5 132.5q-204 0 -309 -134.5t-105 -361.5q0 -231 107 -365.5t307 -134.5
zM588 -399q-32 0 -54 21.5t-22 52.5q0 32 22 54t54 22t54 -22t22 -54q0 -31 -22 -52.5t-54 -21.5z" />
    <glyph glyph-name="uni1ECE" unicode="&#x1ece;" horiz-adv-x="1445" 
d="M648 1854l-39 51q31 38 74 56t90.5 7t81.5 -55q49 -69 22 -147.5t-104 -120.5l-53 49q63 34 84 83.5t-6 86.5q-29 38 -70.5 33t-79.5 -43zM723 -31q-162 0 -288.5 56.5t-208 158.5t-123.5 242.5t-42 310.5t42 310.5t123.5 242.5t208 158.5t288.5 56.5t288.5 -56.5
t207.5 -159t123 -242t42 -310.5t-42 -310.5t-123 -242t-207.5 -159t-288.5 -56.5zM723 55q139 0 248 50t179 141.5t106 215.5t36 275t-36 275t-106 215.5t-179 141.5t-248 50t-247.5 -50t-178 -141.5t-105.5 -215.5t-38 -275q-2 -202 60.5 -354t193 -240t315.5 -88z" />
    <glyph glyph-name="uni1ECF" unicode="&#x1ecf;" horiz-adv-x="1175" 
d="M495 1486l-39 50q31 38 74 56t90 7t81 -55q49 -69 22.5 -147.5t-103.5 -120.5l-54 49q63 34 84 83.5t-6 86.5q-28 38 -69.5 33.5t-79.5 -42.5zM588 -31q-161 0 -276 75t-172.5 206.5t-57.5 304.5q0 265 134 423.5t372 158.5q242 0 374 -159.5t132 -422.5
q0 -268 -133 -427t-373 -159zM588 55q203 0 308 135t105 365q0 231 -105.5 363.5t-307.5 132.5q-204 0 -309 -134.5t-105 -361.5q0 -231 107 -365.5t307 -134.5z" />
    <glyph glyph-name="uni1ED0" unicode="&#x1ed0;" horiz-adv-x="1445" 
d="M1048 2150h98l-98 -276h-68zM480 1659l205 246h94l205 -246h-102l-150 174l-149 -174h-103zM723 -31q-162 0 -288.5 56.5t-208 158.5t-123.5 242.5t-42 310.5t42 310.5t123.5 242.5t208 158.5t288.5 56.5t288.5 -56.5t207.5 -159t123 -242t42 -310.5t-42 -310.5
t-123 -242t-207.5 -159t-288.5 -56.5zM723 55q139 0 248 50t179 141.5t106 215.5t36 275t-36 275t-106 215.5t-179 141.5t-248 50t-247.5 -50t-178 -141.5t-105.5 -215.5t-38 -275q-2 -202 60.5 -354t193 -240t315.5 -88z" />
    <glyph glyph-name="uni1ED1" unicode="&#x1ed1;" horiz-adv-x="1175" 
d="M913 1782h99l-99 -277h-67zM346 1290l205 246h94l205 -246h-102l-150 174l-149 -174h-103zM588 -31q-161 0 -276 75t-172.5 206.5t-57.5 304.5q0 265 134 423.5t372 158.5q242 0 374 -159.5t132 -422.5q0 -268 -133 -427t-373 -159zM588 55q203 0 308 135t105 365
q0 231 -105.5 363.5t-307.5 132.5q-204 0 -309 -134.5t-105 -361.5q0 -231 107 -365.5t307 -134.5z" />
    <glyph glyph-name="uni1ED2" unicode="&#x1ed2;" horiz-adv-x="1445" 
d="M935 2150l67 -276h-67l-98 276h98zM472 1659l205 246h94l205 -246h-103l-149 174l-150 -174h-102zM723 -31q-162 0 -288.5 56.5t-208 158.5t-123.5 242.5t-42 310.5t42 310.5t123.5 242.5t208 158.5t288.5 56.5t288.5 -56.5t207.5 -159t123 -242t42 -310.5t-42 -310.5
t-123 -242t-207.5 -159t-288.5 -56.5zM723 55q139 0 248 50t179 141.5t106 215.5t36 275t-36 275t-106 215.5t-179 141.5t-248 50t-247.5 -50t-178 -141.5t-105.5 -215.5t-38 -275q-2 -202 60.5 -354t193 -240t315.5 -88z" />
    <glyph glyph-name="uni1ED3" unicode="&#x1ed3;" horiz-adv-x="1175" 
d="M824 1782l68 -277h-68l-98 277h98zM361 1290l205 246h94l205 -246h-102l-150 174l-149 -174h-103zM588 -31q-161 0 -276 75t-172.5 206.5t-57.5 304.5q0 265 134 423.5t372 158.5q242 0 374 -159.5t132 -422.5q0 -268 -133 -427t-373 -159zM588 55q203 0 308 135t105 365
q0 231 -105.5 363.5t-307.5 132.5q-204 0 -309 -134.5t-105 -361.5q0 -231 107 -365.5t307 -134.5z" />
    <glyph glyph-name="uni1ED4" unicode="&#x1ed4;" horiz-adv-x="1445" 
d="M1031 1854l-39 51q31 38 74 56t90.5 7t81.5 -55q49 -69 22 -147.5t-104 -120.5l-53 49q63 34 84 83.5t-6 86.5q-29 38 -70.5 33t-79.5 -43zM509 1659l205 246h94l205 -246h-103l-149 174l-150 -174h-102zM723 -31q-162 0 -288.5 56.5t-208 158.5t-123.5 242.5t-42 310.5
t42 310.5t123.5 242.5t208 158.5t288.5 56.5t288.5 -56.5t207.5 -159t123 -242t42 -310.5t-42 -310.5t-123 -242t-207.5 -159t-288.5 -56.5zM723 55q139 0 248 50t179 141.5t106 215.5t36 275t-36 275t-106 215.5t-179 141.5t-248 50t-247.5 -50t-178 -141.5t-105.5 -215.5
t-38 -275q-2 -202 60.5 -354t193 -240t315.5 -88z" />
    <glyph glyph-name="uni1ED5" unicode="&#x1ed5;" horiz-adv-x="1175" 
d="M857 1486l-39 50q31 38 74 56t90.5 7t81.5 -55q49 -69 22 -147.5t-104 -120.5l-53 49q63 34 84 83.5t-6 86.5q-28 38 -70 33.5t-80 -42.5zM335 1290l205 246h94l205 -246h-103l-149 174l-150 -174h-102zM588 -31q-161 0 -276 75t-172.5 206.5t-57.5 304.5
q0 265 134 423.5t372 158.5q242 0 374 -159.5t132 -422.5q0 -268 -133 -427t-373 -159zM588 55q203 0 308 135t105 365q0 231 -105.5 363.5t-307.5 132.5q-204 0 -309 -134.5t-105 -361.5q0 -231 107 -365.5t307 -134.5z" />
    <glyph glyph-name="uni1ED6" unicode="&#x1ed6;" horiz-adv-x="1445" 
d="M865 1956q-45 0 -99.5 24.5t-104.5 49t-84 24.5q-41 0 -54.5 -28t-1.5 -60h-74q-19 70 21 120t111 50q58 0 155 -49t135 -49q37 0 52.5 28t3.5 64h73q19 -69 -20.5 -121.5t-112.5 -52.5zM466 1659l205 246h94l205 -246h-103l-149 174l-150 -174h-102zM723 -31
q-162 0 -288.5 56.5t-208 158.5t-123.5 242.5t-42 310.5t42 310.5t123.5 242.5t208 158.5t288.5 56.5t288.5 -56.5t207.5 -159t123 -242t42 -310.5t-42 -310.5t-123 -242t-207.5 -159t-288.5 -56.5zM723 55q139 0 248 50t179 141.5t106 215.5t36 275t-36 275t-106 215.5
t-179 141.5t-248 50t-247.5 -50t-178 -141.5t-105.5 -215.5t-38 -275q-2 -202 60.5 -354t193 -240t315.5 -88z" />
    <glyph glyph-name="uni1ED7" unicode="&#x1ed7;" horiz-adv-x="1175" 
d="M737 1587q-45 0 -99.5 24.5t-105 49.5t-83.5 25q-41 0 -54.5 -28.5t-1.5 -60.5h-74q-19 70 21 120t111 50q58 0 155 -49t135 -49q37 0 52.5 28t3.5 64h73q19 -69 -20.5 -121.5t-112.5 -52.5zM338 1290l205 246h94l205 -246h-103l-149 174l-150 -174h-102zM588 -31
q-161 0 -276 75t-172.5 206.5t-57.5 304.5q0 265 134 423.5t372 158.5q242 0 374 -159.5t132 -422.5q0 -268 -133 -427t-373 -159zM588 55q203 0 308 135t105 365q0 231 -105.5 363.5t-307.5 132.5q-204 0 -309 -134.5t-105 -361.5q0 -231 107 -365.5t307 -134.5z" />
    <glyph glyph-name="uni1ED8" unicode="&#x1ed8;" horiz-adv-x="1445" 
d="M471 1659l205 246h94l205 -246h-103l-149 174l-150 -174h-102zM723 -31q-162 0 -288.5 56.5t-208 158.5t-123.5 242.5t-42 310.5t42 310.5t123.5 242.5t208 158.5t288.5 56.5t288.5 -56.5t207.5 -159t123 -242t42 -310.5t-42 -310.5t-123 -242t-207.5 -159t-288.5 -56.5z
M723 55q139 0 248 50t179 141.5t106 215.5t36 275t-36 275t-106 215.5t-179 141.5t-248 50t-247.5 -50t-178 -141.5t-105.5 -215.5t-38 -275q-2 -202 60.5 -354t193 -240t315.5 -88zM723 -399q-32 0 -54 21.5t-22 52.5q0 32 22 54t54 22t54 -22t22 -54q0 -31 -22 -52.5
t-54 -21.5z" />
    <glyph glyph-name="uni1ED9" unicode="&#x1ed9;" horiz-adv-x="1175" 
d="M336 1290l205 246h94l205 -246h-103l-149 174l-150 -174h-102zM588 -31q-161 0 -276 75t-172.5 206.5t-57.5 304.5q0 265 134 423.5t372 158.5q242 0 374 -159.5t132 -422.5q0 -268 -133 -427t-373 -159zM588 55q203 0 308 135t105 365q0 231 -105.5 363.5t-307.5 132.5
q-204 0 -309 -134.5t-105 -361.5q0 -231 107 -365.5t307 -134.5zM588 -399q-32 0 -54 21.5t-22 52.5q0 32 22 54t54 22t54 -22t22 -54q0 -31 -22 -52.5t-54 -21.5z" />
    <glyph glyph-name="uni1EDA" unicode="&#x1eda;" horiz-adv-x="1445" 
d="M791 1935h98l-98 -276h-68zM723 -31q-162 0 -288.5 56.5t-208 158.5t-123.5 242.5t-42 310.5t42 310.5t123.5 242.5t208 158.5t288.5 56.5q99 0 190 -22h1l21 -6q81 -20 137 7q52 26 66 70.5t6 110.5h86q26 -161 -63 -228q-35 -25 -71 -34q143 -95 215.5 -267t72.5 -399
q0 -171 -42 -310.5t-123 -242t-207.5 -159t-288.5 -56.5zM723 55q139 0 248 50t179 141.5t106 215.5t36 275t-36 275t-106 215.5t-179 141.5t-248 50t-247.5 -50t-178 -141.5t-105.5 -215.5t-38 -275q-2 -202 60.5 -354t193 -240t315.5 -88z" />
    <glyph glyph-name="uni1EDB" unicode="&#x1edb;" horiz-adv-x="1228" 
d="M630 1567h98l-98 -277h-68zM588 -31q-161 0 -276 75t-172.5 206.5t-57.5 304.5q0 265 134 423.5t372 158.5q95 0 182 -29q99 -30 159 1q52 26 65.5 70.5t5.5 110.5h86q26 -162 -62 -228q-48 -34 -105 -41q175 -154 175 -466q0 -268 -133 -427t-373 -159zM588 55
q203 0 308 135t105 365q0 231 -105.5 363.5t-307.5 132.5q-204 0 -309 -134.5t-105 -361.5q0 -231 107 -365.5t307 -134.5z" />
    <glyph glyph-name="uni1EDC" unicode="&#x1edc;" horiz-adv-x="1445" 
d="M686 1935l68 -276h-68l-98 276h98zM723 -31q-162 0 -288.5 56.5t-208 158.5t-123.5 242.5t-42 310.5t42 310.5t123.5 242.5t208 158.5t288.5 56.5q99 0 190 -22h1l21 -6q81 -20 137 7q52 26 66 70.5t6 110.5h86q26 -161 -63 -228q-35 -25 -71 -34q143 -95 215.5 -267
t72.5 -399q0 -171 -42 -310.5t-123 -242t-207.5 -159t-288.5 -56.5zM723 55q139 0 248 50t179 141.5t106 215.5t36 275t-36 275t-106 215.5t-179 141.5t-248 50t-247.5 -50t-178 -141.5t-105.5 -215.5t-38 -275q-2 -202 60.5 -354t193 -240t315.5 -88z" />
    <glyph glyph-name="uni1EDD" unicode="&#x1edd;" horiz-adv-x="1228" 
d="M536 1567l67 -277h-67l-99 277h99zM588 -31q-161 0 -276 75t-172.5 206.5t-57.5 304.5q0 265 134 423.5t372 158.5q95 0 182 -29q99 -30 159 1q52 26 65.5 70.5t5.5 110.5h86q26 -162 -62 -228q-48 -34 -105 -41q175 -154 175 -466q0 -268 -133 -427t-373 -159zM588 55
q203 0 308 135t105 365q0 231 -105.5 363.5t-307.5 132.5q-204 0 -309 -134.5t-105 -361.5q0 -231 107 -365.5t307 -134.5z" />
    <glyph glyph-name="uni1EDE" unicode="&#x1ede;" horiz-adv-x="1445" 
d="M648 1854l-39 51q31 38 74 56t90.5 7t81.5 -55q49 -69 22 -147.5t-104 -120.5l-53 49q63 34 84 83.5t-6 86.5q-29 38 -70.5 33t-79.5 -43zM723 -31q-162 0 -288.5 56.5t-208 158.5t-123.5 242.5t-42 310.5t42 310.5t123.5 242.5t208 158.5t288.5 56.5q99 0 190 -22h1
l21 -6q81 -20 137 7q52 26 66 70.5t6 110.5h86q26 -161 -63 -228q-35 -25 -71 -34q143 -95 215.5 -267t72.5 -399q0 -171 -42 -310.5t-123 -242t-207.5 -159t-288.5 -56.5zM723 55q139 0 248 50t179 141.5t106 215.5t36 275t-36 275t-106 215.5t-179 141.5t-248 50
t-247.5 -50t-178 -141.5t-105.5 -215.5t-38 -275q-2 -202 60.5 -354t193 -240t315.5 -88z" />
    <glyph glyph-name="uni1EDF" unicode="&#x1edf;" horiz-adv-x="1175" 
d="M495 1486l-39 50q31 38 74 56t90 7t81 -55q49 -69 22.5 -147.5t-103.5 -120.5l-54 49q63 34 84 83.5t-6 86.5q-28 38 -69.5 33.5t-79.5 -42.5zM588 -31q-161 0 -276 75t-172.5 206.5t-57.5 304.5q0 265 134 423.5t372 158.5q95 0 182 -29q99 -30 159 1q52 26 65.5 70.5
t5.5 110.5h86q26 -162 -62 -228q-48 -34 -105 -41q175 -154 175 -466q0 -268 -133 -427t-373 -159zM588 55q203 0 308 135t105 365q0 231 -105.5 363.5t-307.5 132.5q-204 0 -309 -134.5t-105 -361.5q0 -231 107 -365.5t307 -134.5z" />
    <glyph glyph-name="uni1EE0" unicode="&#x1ee0;" horiz-adv-x="1445" 
d="M865 1659q-45 0 -99.5 24.5t-104.5 49t-84 24.5q-41 0 -54.5 -28t-1.5 -60h-74q-19 70 21 120t111 50q58 0 155 -49t135 -49q37 0 52.5 28t3.5 64h73q19 -69 -20.5 -121.5t-112.5 -52.5zM723 -31q-162 0 -288.5 56.5t-208 158.5t-123.5 242.5t-42 310.5t42 310.5
t123.5 242.5t208 158.5t288.5 56.5q99 0 190 -22h1l21 -6q81 -20 137 7q52 26 66 70.5t6 110.5h86q26 -161 -63 -228q-35 -25 -71 -34q143 -95 215.5 -267t72.5 -399q0 -171 -42 -310.5t-123 -242t-207.5 -159t-288.5 -56.5zM723 55q139 0 248 50t179 141.5t106 215.5
t36 275t-36 275t-106 215.5t-179 141.5t-248 50t-247.5 -50t-178 -141.5t-105.5 -215.5t-38 -275q-2 -202 60.5 -354t193 -240t315.5 -88z" />
    <glyph glyph-name="uni1EE1" unicode="&#x1ee1;" horiz-adv-x="1175" 
d="M729 1290q-45 0 -100 25t-105.5 49.5t-83.5 24.5q-41 0 -54 -28.5t-1 -60.5h-74q-19 70 20.5 120t110.5 50q58 0 155.5 -49t135.5 -49q37 0 52 27.5t3 64.5h74q19 -69 -20.5 -121.5t-112.5 -52.5zM588 -31q-161 0 -276 75t-172.5 206.5t-57.5 304.5q0 265 134 423.5
t372 158.5q95 0 182 -29q99 -30 159 1q52 26 65.5 70.5t5.5 110.5h86q26 -162 -62 -228q-48 -34 -105 -41q175 -154 175 -466q0 -268 -133 -427t-373 -159zM588 55q203 0 308 135t105 365q0 231 -105.5 363.5t-307.5 132.5q-204 0 -309 -134.5t-105 -361.5
q0 -231 107 -365.5t307 -134.5z" />
    <glyph glyph-name="uni1EE2" unicode="&#x1ee2;" horiz-adv-x="1445" 
d="M723 -31q-162 0 -288.5 56.5t-208 158.5t-123.5 242.5t-42 310.5t42 310.5t123.5 242.5t208 158.5t288.5 56.5q99 0 190 -22h1l21 -6q81 -20 137 7q52 26 66 70.5t6 110.5h86q26 -161 -63 -228q-35 -25 -71 -34q143 -95 215.5 -267t72.5 -399q0 -171 -42 -310.5
t-123 -242t-207.5 -159t-288.5 -56.5zM723 55q139 0 248 50t179 141.5t106 215.5t36 275t-36 275t-106 215.5t-179 141.5t-248 50t-247.5 -50t-178 -141.5t-105.5 -215.5t-38 -275q-2 -202 60.5 -354t193 -240t315.5 -88zM723 -399q-32 0 -54 21.5t-22 52.5q0 32 22 54
t54 22t54 -22t22 -54q0 -31 -22 -52.5t-54 -21.5z" />
    <glyph glyph-name="uni1EE3" unicode="&#x1ee3;" horiz-adv-x="1175" 
d="M588 -31q-161 0 -276 75t-172.5 206.5t-57.5 304.5q0 265 134 423.5t372 158.5q95 0 182 -29q99 -30 159 1q52 26 65.5 70.5t5.5 110.5h86q26 -162 -62 -228q-48 -34 -105 -41q175 -154 175 -466q0 -268 -133 -427t-373 -159zM588 55q203 0 308 135t105 365
q0 231 -105.5 363.5t-307.5 132.5q-204 0 -309 -134.5t-105 -361.5q0 -231 107 -365.5t307 -134.5zM587 -399q-32 0 -54 21.5t-22 52.5q0 32 22 54t54 22t54 -22t22 -54q0 -31 -22 -52.5t-54 -21.5z" />
    <glyph glyph-name="uni1EE4" unicode="&#x1ee4;" horiz-adv-x="1413" 
d="M707 -31q-248 0 -406 152.5t-158 400.5v953h86v-924q0 -105 31 -191.5t80.5 -142.5t113.5 -94.5t127.5 -55t125.5 -16.5t125.5 16.5t127.5 55t113 94.5t80 142.5t31 191.5v924h86v-953q0 -247 -157.5 -400t-405.5 -153zM707 -399q-32 0 -54 21.5t-22 52.5q0 32 22 54
t54 22t53.5 -22t21.5 -54q0 -31 -21.5 -52.5t-53.5 -21.5z" />
    <glyph glyph-name="uni1EE5" unicode="&#x1ee5;" 
d="M571 -25q-210 0 -329 141t-119 388v602h86v-586q0 -232 93.5 -346.5t268.5 -114.5q98 0 171.5 35t116.5 97.5t64 140.5t21 170v604h86v-1106h-80v179q-59 -103 -158 -153.5t-221 -50.5zM577 -399q-32 0 -54 21.5t-22 52.5q0 32 22 54t54 22t53.5 -22t21.5 -54
q0 -31 -21.5 -52.5t-53.5 -21.5z" />
    <glyph glyph-name="uni1EE6" unicode="&#x1ee6;" horiz-adv-x="1413" 
d="M614 1854l-39 51q31 38 74 56t90.5 7t81.5 -55q49 -69 22 -147.5t-104 -120.5l-53 49q63 34 84 83.5t-6 86.5q-29 38 -70.5 33t-79.5 -43zM707 -31q-248 0 -406 152.5t-158 400.5v953h86v-924q0 -105 31 -191.5t80.5 -142.5t113.5 -94.5t127.5 -55t125.5 -16.5
t125.5 16.5t127.5 55t113 94.5t80 142.5t31 191.5v924h86v-953q0 -247 -157.5 -400t-405.5 -153z" />
    <glyph glyph-name="uni1EE7" unicode="&#x1ee7;" 
d="M495 1486l-39 50q31 38 74 56t90 7t81 -55q49 -69 22.5 -147.5t-103.5 -120.5l-54 49q63 34 84 83.5t-6 86.5q-28 38 -69.5 33.5t-79.5 -42.5zM571 -25q-210 0 -329 141t-119 388v602h86v-586q0 -232 93.5 -346.5t268.5 -114.5q98 0 171.5 35t116.5 97.5t64 140.5t21 170
v604h86v-1106h-80v179q-59 -103 -158 -153.5t-221 -50.5z" />
    <glyph glyph-name="uni1EE8" unicode="&#x1ee8;" horiz-adv-x="1413" 
d="M728 1935h98l-98 -276h-68zM707 -31q-248 0 -406 152.5t-158 400.5v953h86v-924q0 -105 31 -191.5t80.5 -142.5t113.5 -94.5t127.5 -55t125.5 -16.5t125.5 16.5t127.5 55t113 94.5t80 142.5t31 191.5v924q80 3 98 7q40 9 58.5 38t17 64.5t-4.5 74.5h86q26 -164 -62 -229
q-42 -32 -107 -34v-874q0 -247 -157.5 -400t-405.5 -153z" />
    <glyph glyph-name="uni1EE9" unicode="&#x1ee9;" 
d="M618 1567h99l-99 -277h-67zM571 -25q-210 0 -329 141t-119 388v602h86v-586q0 -232 93.5 -346.5t268.5 -114.5q98 0 171.5 35t116.5 97.5t64 140.5t21 170v604q80 3 98 7q40 9 58.5 38t17 64.5t-4.5 74.5h86q6 -46 6.5 -86.5t-16 -78.5t-51.5 -64q-42 -32 -108 -34v-1027
h-80v179q-59 -103 -158 -153.5t-221 -50.5z" />
    <glyph glyph-name="uni1EEA" unicode="&#x1eea;" horiz-adv-x="1413" 
d="M685 1935l68 -276h-68l-98 276h98zM707 -31q-248 0 -406 152.5t-158 400.5v953h86v-924q0 -105 31 -191.5t80.5 -142.5t113.5 -94.5t127.5 -55t125.5 -16.5t125.5 16.5t127.5 55t113 94.5t80 142.5t31 191.5v924q80 3 98 7q40 9 58.5 38t17 64.5t-4.5 74.5h86
q26 -164 -62 -229q-42 -32 -107 -34v-874q0 -247 -157.5 -400t-405.5 -153z" />
    <glyph glyph-name="uni1EEB" unicode="&#x1eeb;" 
d="M560 1567l68 -277h-68l-98 277h98zM571 -25q-210 0 -329 141t-119 388v602h86v-586q0 -232 93.5 -346.5t268.5 -114.5q98 0 171.5 35t116.5 97.5t64 140.5t21 170v604q80 3 98 7q40 9 58.5 38t17 64.5t-4.5 74.5h86q6 -46 6.5 -86.5t-16 -78.5t-51.5 -64
q-42 -32 -108 -34v-1027h-80v179q-59 -103 -158 -153.5t-221 -50.5z" />
    <glyph glyph-name="uni1EEC" unicode="&#x1eec;" horiz-adv-x="1413" 
d="M614 1854l-39 51q31 38 74 56t90.5 7t81.5 -55q49 -69 22 -147.5t-104 -120.5l-53 49q63 34 84 83.5t-6 86.5q-29 38 -70.5 33t-79.5 -43zM707 -31q-248 0 -406 152.5t-158 400.5v953h86v-924q0 -105 31 -191.5t80.5 -142.5t113.5 -94.5t127.5 -55t125.5 -16.5
t125.5 16.5t127.5 55t113 94.5t80 142.5t31 191.5v924q80 3 98 7q40 9 58.5 38t17 64.5t-4.5 74.5h86q26 -164 -62 -229q-42 -32 -107 -34v-874q0 -247 -157.5 -400t-405.5 -153z" />
    <glyph glyph-name="uni1EED" unicode="&#x1eed;" 
d="M495 1486l-39 50q31 38 74 56t90 7t81 -55q49 -69 22.5 -147.5t-103.5 -120.5l-54 49q63 34 84 83.5t-6 86.5q-28 38 -69.5 33.5t-79.5 -42.5zM571 -25q-210 0 -329 141t-119 388v602h86v-586q0 -232 93.5 -346.5t268.5 -114.5q98 0 171.5 35t116.5 97.5t64 140.5t21 170
v604q80 3 98 7q40 9 58.5 38t17 64.5t-4.5 74.5h86q6 -46 6.5 -86.5t-16 -78.5t-51.5 -64q-42 -32 -108 -34v-1027h-80v179q-59 -103 -158 -153.5t-221 -50.5z" />
    <glyph glyph-name="uni1EEE" unicode="&#x1eee;" horiz-adv-x="1413" 
d="M849 1659q-45 0 -100 24.5t-105 49t-84 24.5q-41 0 -54 -28t-1 -60h-74q-19 70 20.5 120t110.5 50q58 0 155.5 -49t135.5 -49q37 0 52 27.5t3 64.5h74q19 -69 -20.5 -121.5t-112.5 -52.5zM707 -31q-248 0 -406 152.5t-158 400.5v953h86v-924q0 -105 31 -191.5
t80.5 -142.5t113.5 -94.5t127.5 -55t125.5 -16.5t125.5 16.5t127.5 55t113 94.5t80 142.5t31 191.5v924q80 3 98 7q40 9 58.5 38t17 64.5t-4.5 74.5h86q26 -164 -62 -229q-42 -32 -107 -34v-874q0 -247 -157.5 -400t-405.5 -153z" />
    <glyph glyph-name="uni1EEF" unicode="&#x1eef;" 
d="M729 1290q-45 0 -100 25t-105.5 49.5t-83.5 24.5q-41 0 -54 -28.5t-1 -60.5h-74q-19 70 20.5 120t110.5 50q58 0 155.5 -49t135.5 -49q37 0 52 27.5t3 64.5h74q19 -69 -20.5 -121.5t-112.5 -52.5zM571 -25q-210 0 -329 141t-119 388v602h86v-586q0 -232 93.5 -346.5
t268.5 -114.5q98 0 171.5 35t116.5 97.5t64 140.5t21 170v604q80 3 98 7q40 9 58.5 38t17 64.5t-4.5 74.5h86q6 -46 6.5 -86.5t-16 -78.5t-51.5 -64q-42 -32 -108 -34v-1027h-80v179q-59 -103 -158 -153.5t-221 -50.5z" />
    <glyph glyph-name="uni1EF0" unicode="&#x1ef0;" horiz-adv-x="1413" 
d="M707 -31q-248 0 -406 152.5t-158 400.5v953h86v-924q0 -105 31 -191.5t80.5 -142.5t113.5 -94.5t127.5 -55t125.5 -16.5t125.5 16.5t127.5 55t113 94.5t80 142.5t31 191.5v924q80 3 98 7q40 9 58.5 38t17 64.5t-4.5 74.5h86q26 -164 -62 -229q-42 -32 -107 -34v-874
q0 -247 -157.5 -400t-405.5 -153zM723 -399q-32 0 -54 21.5t-22 52.5q0 32 22 54t54 22t54 -22t22 -54q0 -31 -22 -52.5t-54 -21.5z" />
    <glyph glyph-name="uni1EF1" unicode="&#x1ef1;" 
d="M571 -25q-210 0 -329 141t-119 388v602h86v-586q0 -232 93.5 -346.5t268.5 -114.5q98 0 171.5 35t116.5 97.5t64 140.5t21 170v604h2q80 3 98 7q40 9 58.5 38t17 64.5t-4.5 74.5h86q6 -46 6.5 -86.5t-16 -78.5t-51.5 -64q-43 -32 -110 -34v-1027h-80v179
q-59 -103 -158 -153.5t-221 -50.5zM587 -399q-32 0 -54 21.5t-22 52.5q0 32 22 54t54 22t54 -22t22 -54q0 -31 -22 -52.5t-54 -21.5z" />
    <glyph glyph-name="Ygrave" unicode="&#x1ef2;" horiz-adv-x="1062" 
d="M495 1935l67 -276h-67l-99 276h99zM489 0v627l-489 848h98l434 -750l433 750h98l-488 -848v-627h-86z" />
    <glyph glyph-name="ygrave" unicode="&#x1ef3;" horiz-adv-x="1036" 
d="M492 1567l67 -277h-67l-99 277h99zM309 -492l183 491l-451 1107h94l400 -988l358 988h92l-579 -1598h-97z" />
    <glyph glyph-name="uni1EF4" unicode="&#x1ef4;" horiz-adv-x="1062" 
d="M489 0v627l-489 848h98l434 -750l433 750h98l-488 -848v-627h-86zM531 -399q-32 0 -53.5 21t-21.5 53t21.5 54t53.5 22t54 -22t22 -54q0 -31 -22 -52.5t-54 -21.5z" />
    <glyph glyph-name="uni1EF5" unicode="&#x1ef5;" horiz-adv-x="1036" 
d="M309 -492l183 491l-451 1107h94l400 -988l358 988h92l-579 -1598h-97zM750 -399q-32 0 -54 21.5t-22 52.5q0 32 22 54t54 22t53.5 -22t21.5 -54q0 -31 -21.5 -52.5t-53.5 -21.5z" />
    <glyph glyph-name="uni1EF6" unicode="&#x1ef6;" horiz-adv-x="1062" 
d="M432 1854l-39 51q31 38 74 56t90.5 7t81.5 -55q49 -69 22 -147.5t-104 -120.5l-53 49q63 34 84 83.5t-6 86.5q-29 38 -70.5 33t-79.5 -43zM489 0v627l-489 848h98l434 -750l433 750h98l-488 -848v-627h-86z" />
    <glyph glyph-name="uni1EF7" unicode="&#x1ef7;" horiz-adv-x="1036" 
d="M433 1486l-39 50q31 38 74 56t90.5 7t81.5 -55q49 -69 22 -147.5t-104 -120.5l-53 49q63 34 84 83.5t-6 86.5q-28 38 -70 33.5t-80 -42.5zM309 -492l183 491l-451 1107h94l400 -988l358 988h92l-579 -1598h-97z" />
    <glyph glyph-name="uni1EF8" unicode="&#x1ef8;" horiz-adv-x="1062" 
d="M690 1659q-45 0 -100 24.5t-105 49t-84 24.5q-41 0 -54 -28t-1 -60h-74q-19 70 20.5 120t110.5 50q58 0 155.5 -49t135.5 -49q37 0 52.5 28t3.5 64h73q19 -69 -20.5 -121.5t-112.5 -52.5zM489 0v627l-489 848h98l434 -750l433 750h98l-488 -848v-627h-86z" />
    <glyph glyph-name="uni1EF9" unicode="&#x1ef9;" horiz-adv-x="1036" 
d="M675 1290q-45 0 -100 25t-105.5 49.5t-83.5 24.5q-41 0 -54 -28.5t-1 -60.5h-74q-19 70 20.5 120t110.5 50q58 0 155.5 -49t135.5 -49q37 0 52 27.5t3 64.5h74q19 -69 -20.5 -121.5t-112.5 -52.5zM309 -492l183 491l-451 1107h94l400 -988l358 988h92l-579 -1598h-97z
" />
    <glyph glyph-name="uni2011" unicode="&#x2011;" horiz-adv-x="860" 
d="M123 602v86h614v-86h-614z" />
    <glyph glyph-name="endash" unicode="&#x2013;" horiz-adv-x="1105" 
d="M123 602v86h860v-86h-860z" />
    <glyph glyph-name="emdash" unicode="&#x2014;" horiz-adv-x="1597" 
d="M123 602v86h1352v-86h-1352z" />
    <glyph glyph-name="quoteleft" unicode="&#x2018;" horiz-adv-x="368" 
d="M184 1475l99 -431h-68l-126 431h95z" />
    <glyph glyph-name="quoteright" unicode="&#x2019;" horiz-adv-x="368" 
d="M184 1475h96l-126 -431h-68z" />
    <glyph glyph-name="quotesinglbase" unicode="&#x201a;" horiz-adv-x="491" 
d="M184 184h96l-126 -430h-68z" />
    <glyph glyph-name="quotedblleft" unicode="&#x201c;" horiz-adv-x="655" 
d="M427 1124h-95l126 430h67zM222 1124h-95l126 430h68z" />
    <glyph glyph-name="quotedblright" unicode="&#x201d;" horiz-adv-x="655" 
d="M225 1495h96l-126 -430h-68zM430 1495h95l-126 -430h-67z" />
    <glyph glyph-name="quotedblbase" unicode="&#x201e;" horiz-adv-x="655" 
d="M225 184h96l-126 -430h-68zM430 184h95l-126 -430h-67z" />
    <glyph glyph-name="uni201F" unicode="&#x201f;" horiz-adv-x="655" 
d="M430 1495l98 -430h-67l-126 430h95zM225 1495l99 -430h-68l-126 430h95z" />
    <glyph glyph-name="dagger" unicode="&#x2020;" horiz-adv-x="1105" 
d="M510 0v1020h-397v86h397v369h86v-369h459v-86h-459v-1020h-86z" />
    <glyph glyph-name="daggerdbl" unicode="&#x2021;" horiz-adv-x="765" 
d="M340 0v504h-217v86h217v330h-217v86h217v469h86v-469h217v-86h-217v-330h217v-86h-217v-504h-86z" />
    <glyph glyph-name="bullet" unicode="&#x2022;" horiz-adv-x="1269" 
d="M639 440q-88 0 -148.5 59t-60.5 146t60.5 146t148.5 59q83 0 142 -59t59 -146t-59 -146t-142 -59z" />
    <glyph glyph-name="ellipsis" unicode="&#x2026;" horiz-adv-x="1187" 
d="M225 -6q-32 0 -53.5 21.5t-21.5 53.5t21.5 53.5t53.5 21.5t54 -21.5t22 -53.5q0 -31 -22 -53t-54 -22zM594 -6q-32 0 -54 21.5t-22 53.5t22 53.5t54 21.5t54 -21.5t22 -53.5q0 -31 -22 -53t-54 -22zM963 -6q-32 0 -54 21.5t-22 53.5t22 53.5t54 21.5t53.5 -21.5
t21.5 -53.5q0 -31 -22 -53t-53 -22z" />
    <glyph glyph-name="perthousand" unicode="&#x2030;" horiz-adv-x="2707" 
d="M492 768q-153 0 -261 108t-108 261q0 150 110 259t259 109q153 0 260.5 -107.5t107.5 -260.5t-108 -261t-260 -108zM246 0l-62 61l1418 1414l61 -60zM492 854q115 0 198.5 83.5t83.5 199.5q0 115 -83 198.5t-199 83.5t-199.5 -83.5t-83.5 -198.5t83.5 -199t199.5 -84z
M1356 -31q-153 0 -261 108t-108 261q0 150 110.5 259.5t258.5 109.5q152 0 260 -107.5t108 -261.5t-108 -261.5t-260 -107.5zM2216 -31q-153 0 -261 108t-108 261q0 150 110.5 259.5t258.5 109.5q153 0 261 -108t108 -261t-108 -261t-261 -108zM1356 55q115 0 198.5 83.5
t83.5 199.5t-83.5 199.5t-198.5 83.5q-116 0 -199.5 -83.5t-83.5 -199.5t83.5 -199.5t199.5 -83.5zM2216 55q116 0 199.5 83.5t83.5 199.5t-83.5 199.5t-199.5 83.5t-199.5 -83.5t-83.5 -199.5t83.5 -199.5t199.5 -83.5z" />
    <glyph glyph-name="guilsinglleft" unicode="&#x2039;" horiz-adv-x="1167" 
d="M790 172l-474 473l474 473l61 -59l-414 -414l414 -414z" />
    <glyph glyph-name="guilsinglright" unicode="&#x203a;" horiz-adv-x="1167" 
d="M378 172l-62 59l414 414l-414 414l62 59l473 -473z" />
    <glyph glyph-name="fraction" unicode="&#x2044;" horiz-adv-x="374" 
d="M-334 0l-76 61l1121 1414l73 -60z" />
    <glyph glyph-name="uni2060" unicode="&#x2060;" horiz-adv-x="0" 
 />
    <glyph glyph-name="uni2070" unicode="&#x2070;" horiz-adv-x="880" 
d="M440 528q-126 0 -211.5 85.5t-85.5 211.5v371q0 126 85.5 211.5t211.5 85.5t211.5 -85.5t85.5 -211.5v-371q0 -126 -85.5 -211.5t-211.5 -85.5zM440 610q88 0 150.5 62.5t62.5 150.5v377q0 88 -62.5 149.5t-150.5 61.5t-150.5 -61.5t-62.5 -149.5v-377q0 -88 62.5 -150.5
t150.5 -62.5z" />
    <glyph glyph-name="uni2074" unicode="&#x2074;" horiz-adv-x="827" 
d="M539 553v182h-437v82l312 658h94l-311 -658h342v275h84v-275h102v-82h-102v-182h-84z" />
    <glyph glyph-name="uni2075" unicode="&#x2075;" horiz-adv-x="815" 
d="M401 532q-107 0 -189 64.5t-110 167.5l80 20q20 -75 82 -121.5t137 -46.5q96 0 162 66.5t66 159.5q0 94 -67.5 160.5t-160.5 66.5q-127 0 -194 -108l-78 36l27 478h491v-80h-420l-16 -323q80 75 199 75q126 0 214.5 -89t88.5 -216q0 -126 -92.5 -218t-219.5 -92z" />
    <glyph glyph-name="uni2076" unicode="&#x2076;" horiz-adv-x="913" 
d="M457 526q-131 0 -222.5 92.5t-91.5 225.5v327q0 138 91.5 230t226.5 92q81 0 150 -36.5t112 -100.5l-68 -53q-31 50 -82 79t-112 29q-98 0 -165 -69t-67 -164v-153q42 55 103 86.5t131 31.5q129 0 218 -88.5t89 -216.5q0 -129 -92 -220.5t-221 -91.5zM457 608
q95 0 161 67t66 163q0 94 -66 159.5t-161 65.5t-161.5 -65.5t-66.5 -159.5q0 -95 66.5 -162.5t161.5 -67.5z" />
    <glyph glyph-name="uni2077" unicode="&#x2077;" horiz-adv-x="706" 
d="M170 553l344 840h-432v82h522v-82l-342 -840h-92z" />
    </font>
</defs>
</svg>
