<?xml version="1.0" standalone="no"?>
<!DOCTYPE svg PUBLIC "-//W3C//DTD SVG 1.1//EN" "http://www.w3.org/Graphics/SVG/1.1/DTD/svg11.dtd" >
<svg xmlns="http://www.w3.org/2000/svg" xmlns:xlink="http://www.w3.org/1999/xlink" version="1.1">
<metadata>
Created by FontForge 20201107 at Fri Dec 22 17:26:08 2023
 By 
Copyright (c) 2020 WCYS &#38; Co. with Reserved Font Name "Hauora" and "Hauora Sans"
</metadata>
<defs>
<font id="Hauora-Regular" horiz-adv-x="1216" >
  <font-face 
    font-family="Hauora"
    font-weight="400"
    font-stretch="normal"
    units-per-em="2048"
    panose-1="0 0 0 0 0 0 0 0 0 0"
    ascent="1638"
    descent="-410"
    x-height="1106"
    cap-height="1475"
    bbox="-371 -532 2576 2287.03"
    underline-thickness="51"
    underline-position="-127"
    unicode-range="U+000D-FB02"
  />
<missing-glyph horiz-adv-x="1515" 
d="M205 0v1475h1106v-1475h-1106zM385 1363l373 -528l372 528h-745zM316 1266v-1057l373 528zM826 737l373 -528v1057zM385 112h745l-372 529z" />
    <glyph glyph-name="parenleft_c_parenright.liga" unicode="&#x28;c&#x29;" horiz-adv-x="1850" 
d="M925 -54q-155 0 -296 60t-242.5 162t-162 243t-60.5 296t60.5 296t162.5 242.5t242.5 161.5t295.5 60t296 -60t243 -161.5t162.5 -242.5t60.5 -296t-60.5 -296t-162.5 -243t-243 -162t-296 -60zM925 92q167 0 308 82.5t223 224t82 309.5q0 167 -82 308t-223 223t-308 82
q-168 0 -309.5 -82t-224 -223t-82.5 -308q0 -168 82.5 -309.5t224 -224t309.5 -82.5zM934 275q-188 0 -296 134q-93 116 -93 301q2 184 93 297q107 134 302 134q115 0 202 -52q107 -67 141 -184l-126 -38q-27 68 -87 113q-56 40 -135 40q-121 0 -193 -91q-61 -77 -61 -218
q0 -140 61 -223q66 -92 193 -92q80 0 137 39q54 38 82 108l129 -35q-43 -110 -130 -171q-92 -62 -219 -62z" />
    <glyph glyph-name="space_less_three_space.liga" unicode="&#x20;&#x3c;&#x33;&#x20;" horiz-adv-x="2390" 
d="M1195 -31q-57 0 -94 40l-418 441q-58 62 -85.5 139.5t-25 152.5t31 147.5t76.5 126.5t118 87.5t150 33.5q124 0 247 -93q117 93 246 93q81 0 151.5 -33.5t118.5 -88.5t76 -127.5t30 -147.5t-26 -152t-85 -138l-417 -441q-37 -40 -94 -40zM1195 99l418 440q47 49 65 114
t5.5 125.5t-43 113t-84 84.5t-115.5 32q-124 0 -246 -134q-131 134 -247 134q-79 0 -140 -50.5t-87 -122t-13.5 -154t69.5 -142.5z" />
    <glyph glyph-name="f_f" unicode="ff" horiz-adv-x="1356" 
d="M253 0v977h-192v129h192v82q0 76 14 133.5t55 102.5q45 49 104 65t138 16h142v-127h-132q-87 0 -129 -42.5t-42 -131.5v-98h481v82q0 77 13.5 134t54.5 102q45 49 104.5 65t138.5 16h141v-127h-131q-87 0 -129 -42.5t-42 -131.5v-98h302v-129h-302v-977h-150v977h-481
v-977h-150z" />
    <glyph glyph-name="f_f_l" unicode="ffl" horiz-adv-x="1909" 
d="M253 0v977h-192v129h192v82q0 76 14 133.5t55 102.5q45 49 104 65t138 16h142v-127h-132q-87 0 -129 -42.5t-42 -131.5v-98h481v82q0 77 13.5 134t54.5 102q45 49 104.5 65t138.5 16h141v-127h-131q-87 0 -129 -42.5t-42 -131.5v-98h561v399h151v-1505h-151v977h-561
v-977h-150v977h-481v-977h-150z" />
    <glyph glyph-name="t_t.liga" unicode="tt" horiz-adv-x="1518" 
d="M745 0q-97 -18 -184 -16t-160.5 40t-108.5 108q-7 15 -13 31t-9.5 29t-6 32.5t-4 30.5t-2 34.5t-0.5 33v38.5v39v577h-237v129h237v307h150v-307h547v307h151v-307h338v-129h-338v-570v-42.5v-41t1 -32t3.5 -32.5t6.5 -25.5t11 -25.5q35 -66 117 -82.5t199 6.5v-132
q-72 -15 -139.5 -16t-129 12t-110 48t-74.5 88q-8 15 -13.5 31t-9.5 29t-6.5 32.5t-4 30t-2 35t-0.5 33.5v38.5v38.5v577h-547v-570v-42.5v-41t1 -32t3.5 -32.5t6.5 -25.5t11 -25.5q35 -66 117 -82.5t199 6.5v-132z" />
    <glyph glyph-name="fi" unicode="fi" horiz-adv-x="1234" 
d="M253 0v977h-192v129h192v82q0 76 14 133.5t55 102.5q45 49 104 65t138 16h142v-127h-132q-87 0 -129 -42.5t-42 -131.5v-98h303v-129h-303v-977h-150zM996 1296q-45 0 -75 30t-30 74t30 74t75 30q44 0 74.5 -30t30.5 -74t-30.5 -74t-74.5 -30zM921 0v1106h150v-1106h-150
z" />
    <glyph glyph-name="fl" unicode="fl" horiz-adv-x="1278" 
d="M253 0v977h-192v129h192v82q0 76 14 133.5t55 102.5q45 49 104 65t138 16h142v-127h-132q-87 0 -129 -42.5t-42 -131.5v-98h562v399h150v-1505h-150v977h-562v-977h-150z" />
    <glyph glyph-name="hyphen_hyphen.liga" unicode="&#x2d;&#x2d;" horiz-adv-x="1105" 
d="M123 581v129h860v-129h-860z" />
    <glyph glyph-name="hyphen_greater.liga" unicode="&#x2d;&#x3e;" horiz-adv-x="1709" 
d="M116 581v129h1250l-335 336l81 79l480 -480l-480 -480l-81 80l336 336h-1251z" />
    <glyph glyph-name="less_hyphen.liga" unicode="&#x3c;&#x2d;" horiz-adv-x="2050" 
d="M1592 581h-1250l336 -336l-81 -80l-481 480l481 480l81 -79l-335 -336h1249v-129z" />
    <glyph glyph-name=".notdef" horiz-adv-x="1515" 
d="M205 0v1475h1106v-1475h-1106zM385 1363l373 -528l372 528h-745zM316 1266v-1057l373 528zM826 737l373 -528v1057zM385 112h745l-372 529z" />
    <glyph glyph-name=".null" horiz-adv-x="1228" 
 />
    <glyph glyph-name="nonmarkingreturn" horiz-adv-x="1926" 
 />
    <glyph glyph-name="CR" unicode="&#xd;" horiz-adv-x="1228" 
 />
    <glyph glyph-name="space" unicode=" " horiz-adv-x="409" 
 />
    <glyph glyph-name="exclam" unicode="!" horiz-adv-x="642" 
d="M246 389v1086h150v-1086h-150zM321 -11q-44 0 -74.5 30t-30.5 73q0 44 30.5 74.5t74.5 30.5t74.5 -30.5t30.5 -74.5q0 -43 -30.5 -73t-74.5 -30z" />
    <glyph glyph-name="quotedbl" unicode="&#x22;" horiz-adv-x="802" 
d="M123 1106v369h150v-369h-150zM447 1106v369h151v-369h-151z" />
    <glyph glyph-name="numbersign" unicode="#" horiz-adv-x="1885" 
d="M421 1l119 443h-417l38 145h418l87 329h-417l39 144h418l109 413h151l-112 -413h343l110 413h150l-111 -413h416l-39 -144h-415l-89 -329h416l-39 -145h-415l-119 -443h-150l118 443h-341l-119 -443h-149zM728 589h342l87 329h-341z" />
    <glyph glyph-name="dollar" unicode="$" horiz-adv-x="1206" 
d="M532 -202v177q-185 23 -308 134.5t-155 284.5l146 26q34 -142 146 -224t271 -82q161 0 260 78t99 205q0 94 -55.5 150.5t-186.5 96.5l-328 102q-146 45 -221.5 135t-75.5 218q0 167 111 275.5t297 126.5v177h151v-179q180 -23 298 -134.5t149 -290.5l-150 -28
q-22 141 -125.5 227.5t-253.5 87.5q-141 1 -234 -71.5t-93 -184.5q0 -83 59 -139.5t187 -95.5l282 -85q178 -54 257 -144t79 -240q0 -183 -123.5 -299.5t-331.5 -130.5v-173h-151z" />
    <glyph glyph-name="percent" unicode="%" horiz-adv-x="1846" 
d="M492 768q-153 0 -261 108t-108 261q0 150 110 259t259 109q153 0 260.5 -107.5t107.5 -260.5t-108 -261t-260 -108zM287 0l-103 102l1376 1373l102 -102zM492 904q94 0 163 69t69 164t-69 163.5t-163 68.5q-95 0 -164 -69t-69 -163q0 -95 69.5 -164t163.5 -69zM1355 -31
q-153 0 -261 108t-108 261q0 150 110.5 259.5t258.5 109.5q153 0 260.5 -107.5t107.5 -261.5t-107.5 -261.5t-260.5 -107.5zM1355 105q94 0 163 69t69 164q0 94 -68.5 163t-163.5 69t-164.5 -69t-69.5 -163q0 -95 69.5 -164t164.5 -69z" />
    <glyph glyph-name="ampersand" unicode="&#x26;" horiz-adv-x="1334" 
d="M617 -31q-265 0 -403 147q-106 113 -112 287q-2 175 97 291q52 64 144 104q-85 88 -121.5 155t-36.5 160q0 115 58.5 209t159.5 139q97 43 217 43q190 0 299 -95q74 -58 111 -155l-145 -43q-22 56 -72 94q-71 55 -191 55q-89 0 -158 -34q-123 -62 -123 -212
q0 -59 18.5 -99t61.5 -91q34 -37 106 -102l467 -433q6 46 6 110l-1 216h143v-227q0 -139 -23 -217l191 -175l-100 -105l-162 153q-34 -43 -85 -78.5t-104 -54.5q-95 -42 -242 -42zM620 115q127 0 195 37q70 37 124 98l-479 438q-92 -27 -145 -91q-60 -73 -58 -186
q3 -118 70 -189q45 -54 124 -80.5t169 -26.5z" />
    <glyph glyph-name="quotesingle" unicode="'" horiz-adv-x="437" 
d="M123 1106v369h150v-369h-150z" />
    <glyph glyph-name="parenleft" unicode="(" horiz-adv-x="872" 
d="M673 -368q-182 209 -285 485.5t-101 558.5q-2 282 101 558t285 485l110 -86q-356 -424 -358 -957q1 -257 92.5 -505t265.5 -451z" />
    <glyph glyph-name="parenright" unicode=")" horiz-adv-x="872" 
d="M200 -368l-111 88q174 203 265.5 451t92.5 505q-2 533 -358 957l111 86q182 -209 285 -485t101 -558q2 -282 -101 -558.5t-285 -485.5z" />
    <glyph glyph-name="asterisk" unicode="*" horiz-adv-x="893" 
d="M265 798l-112 82l161 209l-253 76l43 132l249 -88l-6 266h139l-6 -266l248 88l43 -132l-252 -76l160 -209l-113 -82l-149 217z" />
    <glyph glyph-name="plus" unicode="+" horiz-adv-x="1167" 
d="M519 269v404h-403v129h403v403h129v-403h404v-129h-404v-404h-129z" />
    <glyph glyph-name="comma" unicode="," horiz-adv-x="543" 
d="M190 216h152l-143 -492h-104z" />
    <glyph glyph-name="hyphen" unicode="-" horiz-adv-x="860" 
d="M123 581v129h614v-129h-614z" />
    <glyph glyph-name="period" unicode="." horiz-adv-x="519" 
d="M259 -11q-44 0 -74 29.5t-30 73.5t30 74.5t74 30.5t75 -30.5t31 -74.5q0 -43 -31 -73t-75 -30z" />
    <glyph glyph-name="slash" unicode="/" horiz-adv-x="793" 
d="M516 1475h155l-393 -1475h-155z" />
    <glyph glyph-name="zero" unicode="0" horiz-adv-x="1249" 
d="M625 -31q-205 0 -343.5 138.5t-138.5 343.5v573q0 205 138.5 343t343.5 138t343 -138t138 -343v-573q0 -205 -138 -343.5t-343 -138.5zM625 115q136 0 232 96t96 232v588q0 137 -96 233.5t-232 96.5t-232.5 -97t-96.5 -233v-588q0 -136 96.5 -232t232.5 -96z" />
    <glyph glyph-name="one" unicode="1" horiz-adv-x="798" 
d="M400 0v1307l-277 -167v169l277 166h153v-1475h-153z" />
    <glyph glyph-name="two" unicode="2" horiz-adv-x="1167" 
d="M102 1l1 137l667 602q81 72 111.5 142t30.5 153q0 137 -93 231.5t-228 94.5q-139 0 -233.5 -96.5t-92.5 -228.5h-153q0 201 138 335t343 134q200 0 336 -136.5t136 -334.5q0 -133 -48 -224t-161 -192l-524 -473h733v-144h-963z" />
    <glyph glyph-name="three" unicode="3" horiz-adv-x="1132" 
d="M540 -30q-165 0 -288.5 86.5t-169.5 236.5l143 43q36 -107 120.5 -164.5t192.5 -55.5q147 3 231.5 93.5t84.5 240.5t-87.5 241.5t-230.5 91.5q-84 0 -166 -41l-76 120l506 468h-660v145h852v-147l-431 -413q200 1 324.5 -128.5t124.5 -336.5q0 -212 -132.5 -346
t-337.5 -134z" />
    <glyph glyph-name="four" unicode="4" horiz-adv-x="1207" 
d="M793 0v286h-691v143l494 1046h169l-494 -1046h522v430h151v-430h161v-143h-161v-286h-151z" />
    <glyph glyph-name="five" unicode="5" horiz-adv-x="1182" 
d="M579 -31q-170 0 -301.5 102.5t-175.5 265.5l145 39q29 -117 124 -188t212 -71q146 0 246.5 102t100.5 245q0 145 -103 245.5t-244 100.5q-100 0 -176.5 -43.5t-124.5 -116.5l-138 58l45 767h788v-145h-650l-30 -490q127 111 299 111q203 0 343.5 -141.5t140.5 -345.5
q0 -133 -68 -247t-183.5 -181t-249.5 -67z" />
    <glyph glyph-name="six" unicode="6" horiz-adv-x="1270" 
d="M642 -31q-209 0 -354 147t-145 362v511q0 222 145.5 368.5t364.5 146.5q126 0 234 -55.5t177 -154.5l-116 -95q-47 74 -126 118t-169 44q-153 0 -255 -106.5t-102 -252.5v-226q67 81 160.5 127.5t199.5 46.5q134 0 246 -64.5t176 -177t64 -246.5t-67.5 -247.5
t-183 -179.5t-249.5 -66zM642 116q145 0 246.5 100.5t101.5 245.5t-101 246.5t-246 101.5t-246 -101.5t-101 -246.5q0 -143 101 -244.5t245 -101.5z" />
    <glyph glyph-name="seven" unicode="7" horiz-adv-x="1028" 
d="M222 0l543 1328h-683v147h844v-147l-542 -1328h-162z" />
    <glyph glyph-name="eight" unicode="8" horiz-adv-x="1188" 
d="M593 -31q-208 0 -339 122.5t-131 322.5q0 123 51.5 219.5t154.5 156.5q-83 50 -127 134t-44 185q0 182 121 289t314 107q194 0 315 -107t121 -289q0 -103 -43.5 -187t-128.5 -134q102 -59 155.5 -156t53.5 -218q0 -200 -131.5 -322.5t-341.5 -122.5zM593 859
q127 0 201.5 64.5t74.5 185.5t-74.5 184.5t-201.5 63.5t-201.5 -63.5t-74.5 -184.5t74.5 -185.5t201.5 -64.5zM593 114q143 0 228 78.5t85 221.5q0 144 -84.5 222t-228.5 78t-227.5 -78t-83.5 -222q0 -143 84.5 -221.5t226.5 -78.5z" />
    <glyph glyph-name="nine" unicode="9" horiz-adv-x="1270" 
d="M629 1504q137 0 251.5 -66.5t180.5 -183.5t66 -258v-512q0 -222 -145 -368.5t-365 -146.5q-125 0 -232 55.5t-177 154.5l115 95q48 -74 126 -117t168 -43q153 0 256 106t103 251v226q-68 -81 -162 -127.5t-200 -46.5q-204 0 -344 142t-140 347q0 134 67.5 247.5t182 179
t249.5 65.5zM629 1359q-145 0 -246 -101t-101 -246t100.5 -246t245.5 -101t246.5 101t101.5 246q0 144 -101.5 245.5t-245.5 101.5z" />
    <glyph glyph-name="colon" unicode=":" horiz-adv-x="612" 
d="M313 756q-44 0 -74 30t-30 73q0 44 30 74.5t74 30.5t74.5 -30.5t30.5 -74.5q0 -43 -30.5 -73t-74.5 -30zM312 153q-44 0 -74 29.5t-30 73.5t30 74t74 30t75 -30t31 -74q0 -43 -31 -73t-75 -30z" />
    <glyph glyph-name="semicolon" unicode=";" horiz-adv-x="625" 
d="M312 920q-44 0 -74 30t-30 73q0 44 30 74t74 30t75 -30t31 -74q0 -43 -31 -73t-75 -30zM271 216h151l-143 -492h-103z" />
    <glyph glyph-name="less" unicode="&#x3c;" horiz-adv-x="1167" 
d="M1052 340l-936 343v109l936 343v-135l-734 -263l734 -263v-134z" />
    <glyph glyph-name="equal" unicode="=" horiz-adv-x="1168" 
d="M116 847v129h936v-129h-936zM117 499v129h935v-129h-935z" />
    <glyph glyph-name="greater" unicode="&#x3e;" horiz-adv-x="1167" 
d="M116 340v134l733 263l-733 263v135l936 -343v-109z" />
    <glyph glyph-name="question" unicode="?" horiz-adv-x="1072" 
d="M432 402q0 92 9 149.5t39 114.5q27 51 72 91.5t101.5 82t89.5 76.5q67 77 67 193q0 106 -52 164q-71 87 -224 87q-139 0 -209 -73q-69 -64 -67 -176h-156q4 85 36 161t91 127q117 105 303 105q226 0 342 -131q96 -105 96 -262q0 -169 -121 -293q-24 -26 -112 -95.5
t-113 -115.5q-8 -14 -13.5 -26.5t-9 -28.5t-5.5 -24.5t-3 -29t-1 -27.5v-34.5v-34.5h-160zM512 -11q-44 0 -74 29.5t-30 73.5t30 74.5t74 30.5t74.5 -30.5t30.5 -74.5q0 -43 -30.5 -73t-74.5 -30z" />
    <glyph glyph-name="at" unicode="@" horiz-adv-x="1850" 
d="M929 -215q-161 0 -303 57.5t-243.5 157.5t-160 241t-58.5 301q0 228 98 405.5t273 275.5t399 98q151 0 278 -41t216 -111.5t150 -165t87.5 -202t20.5 -221.5q-10 -193 -91.5 -292t-227.5 -99q-79 0 -141.5 31t-95.5 88q-77 -94 -226 -94q-139 0 -225.5 88.5t-86.5 229.5
q0 145 88.5 232.5t226.5 87.5q126 0 207 -71v42h109l-1 -333q0 -171 152 -171q81 0 125 66t49 183q6 151 -40 271.5t-131 196.5t-196 116t-240 40q-150 0 -273 -52t-202.5 -141t-122.5 -206.5t-41 -249.5q2 -180 85.5 -324t227.5 -224.5t321 -80.5q183 0 331 85l48 -115
q-175 -99 -386 -99zM912 345q83 0 132.5 48t49.5 141q0 92 -48 141t-131 49q-92 0 -140.5 -49.5t-48.5 -140.5t49.5 -140t136.5 -49z" />
    <glyph glyph-name="A" unicode="A" horiz-adv-x="1297" 
d="M41 0l508 1475h200l507 -1475h-156l-124 357h-654l-124 -357h-157zM370 499h557l-280 807z" />
    <glyph glyph-name="B" unicode="B" horiz-adv-x="1255" 
d="M143 0v1475h570q182 0 296 -110t114 -270q0 -100 -46.5 -183.5t-126.5 -129.5q117 -51 181 -146t64 -222q0 -190 -119 -302t-316 -112h-617zM295 846h417q107 0 181.5 71t74.5 180q0 104 -72 169.5t-184 65.5h-417v-486zM295 144h428q138 0 227 72.5t89 195.5t-82 207
t-206 84h-456v-559z" />
    <glyph glyph-name="C" unicode="C" horiz-adv-x="1465" 
d="M740 -31q-216 0 -370.5 98t-231.5 269.5t-77 400.5t77 400.5t231.5 269.5t370.5 98q251 0 416 -128.5t227 -355.5l-153 -40q-48 179 -172.5 279.5t-317.5 100.5q-252 0 -385 -169t-135 -455q-1 -187 56 -325.5t176 -218t288 -79.5q193 0 317.5 100.5t172.5 279.5l153 -40
q-62 -227 -227 -356t-416 -129z" />
    <glyph glyph-name="D" unicode="D" horiz-adv-x="1375" 
d="M143 0v1475h448q110 0 189 -10q163 -22 279 -125t171.5 -257.5t55.5 -345.5q0 -192 -55.5 -346t-171.5 -257t-279 -125q-69 -9 -189 -9h-448zM299 144h292q106 0 174 13q94 16 164.5 67.5t113 129.5t63 174t20.5 209q0 114 -21 210.5t-63.5 174.5t-112.5 129t-164 67
q-63 12 -174 12h-292v-1186z" />
    <glyph glyph-name="E" unicode="E" horiz-adv-x="1167" 
d="M143 0v1475h922v-145h-771v-510h648v-144h-648v-532h771v-144h-922z" />
    <glyph glyph-name="F" unicode="F" horiz-adv-x="1031" 
d="M143 0v1475h847v-151h-696v-512h573v-149h-573v-663h-151z" />
    <glyph glyph-name="G" unicode="G" horiz-adv-x="1443" 
d="M734 -31q-312 0 -492.5 208t-180.5 560q0 351 179.5 559t493.5 208q228 0 376 -104.5t209 -287.5l-152 -37q-51 132 -160 208t-267 76q-252 1 -384.5 -167t-134.5 -455q-2 -284 132 -453t387 -170q231 -1 350 132.5t131 376.5h-470v129h627q4 -43 4 -87q0 -151 -41 -277
t-120 -220t-203.5 -146.5t-283.5 -52.5z" />
    <glyph glyph-name="H" unicode="H" horiz-adv-x="1401" 
d="M143 0v1475h151v-665h815v665h149v-1475h-149v666h-815v-666h-151z" />
    <glyph glyph-name="I" unicode="I" horiz-adv-x="478" 
d="M164 0v1475h150v-1475h-150z" />
    <glyph glyph-name="J" unicode="J" horiz-adv-x="949" 
d="M395 -30q-147 0 -253 81.5t-142 219.5l151 36q19 -83 86.5 -137.5t156.5 -54.5q63 0 120 29t89 89q14 27 21 64.5t8 66.5t1 90v1021h151v-1021v-35.5v-34.5t-0.5 -30.5t-1 -31t-2.5 -28t-4.5 -29.5t-6 -26.5t-8 -28t-11 -26t-14.5 -28.5q-53 -92 -142 -139t-199 -47z" />
    <glyph glyph-name="K" unicode="K" horiz-adv-x="1215" 
d="M143 0v1475h147v-722l678 722h191l-605 -649l661 -826h-193l-570 717l-162 -173v-544h-147z" />
    <glyph glyph-name="L" unicode="L" horiz-adv-x="1045" 
d="M164 0v1475h150v-1331h701v-144h-851z" />
    <glyph glyph-name="M" unicode="M" horiz-adv-x="1721" 
d="M143 0v1475h139l579 -1241l577 1241h140v-1474h-143v1138l-526 -1139h-97l-524 1139v-1139h-145z" />
    <glyph glyph-name="N" unicode="N" horiz-adv-x="1401" 
d="M143 0v1475h152l812 -1209v1209h151v-1475h-151l-812 1209v-1209h-152z" />
    <glyph glyph-name="O" unicode="O" horiz-adv-x="1481" 
d="M740 -31q-216 0 -370.5 98t-231.5 269.5t-77 400.5t77 400.5t231.5 269.5t370.5 98t371 -98t232 -269.5t77 -400.5t-77 -400.5t-232 -269.5t-371 -98zM740 114q169 0 288 79.5t176 218t57 325.5t-57 325.5t-176 218t-288 80.5q-169 0 -286.5 -79.5t-174 -218
t-58.5 -326.5q-2 -284 132 -453t387 -170z" />
    <glyph glyph-name="P" unicode="P" horiz-adv-x="1236" 
d="M143 0v1475h570q47 0 103 -9q169 -26 264.5 -149.5t95.5 -299.5t-96 -299.5t-264 -149.5q-49 -8 -103 -8h-419v-560h-151zM294 703h415q47 0 91 10q108 23 164.5 108.5t56.5 195.5t-56.5 196t-164.5 109q-41 8 -91 8h-415v-627z" />
    <glyph glyph-name="Q" unicode="Q" horiz-adv-x="1481" 
d="M740 -31q-216 0 -370.5 98t-231.5 269.5t-77 400.5t77 400.5t231.5 269.5t370.5 98t371 -98t232 -269.5t77 -400.5q0 -325 -153 -528l135 -136l-100 -103l-136 135q-170 -136 -426 -136zM740 114q192 0 318 100l-150 147l103 103l143 -143q107 163 107 416
q0 187 -57 325.5t-176 218t-288 80.5q-169 0 -286.5 -79.5t-174 -218t-58.5 -326.5q-2 -284 132 -453t387 -170z" />
    <glyph glyph-name="R" unicode="R" horiz-adv-x="1291" 
d="M143 0v1475h570q47 0 103 -9q169 -26 264.5 -142t95.5 -280q0 -142 -81.5 -255.5t-224.5 -153.5l329 -635h-174l-316 614h-415v-614h-151zM294 759h415q60 0 91 8q109 28 165 104.5t56 172.5q0 97 -56.5 176t-164.5 102q-41 8 -91 8h-415v-571z" />
    <glyph glyph-name="S" unicode="S" horiz-adv-x="1262" 
d="M655 -31q-232 0 -390.5 114.5t-195.5 310.5l153 26q37 -142 155.5 -224t284.5 -82t272 76.5t106 205.5q0 54 -20 96t-56 69.5t-70.5 43.5t-79.5 30l-374 111q-314 92 -314 354q0 184 141 294.5t363 109.5q221 -1 370.5 -116t185.5 -314l-158 -28q-22 142 -132.5 227.5
t-266.5 87.5q-148 1 -246 -72t-98 -183q0 -43 17 -78.5t41 -58.5t63 -43t68.5 -30.5t72.5 -22.5l289 -85q35 -10 58.5 -17.5t64.5 -25t69 -36t62 -49t55 -65.5t35 -85t14 -108q0 -134 -71 -233t-192 -149.5t-276 -50.5z" />
    <glyph glyph-name="T" unicode="T" horiz-adv-x="1221" 
d="M536 0v1330h-516v145h1181v-145h-515v-1330h-150z" />
    <glyph glyph-name="U" unicode="U" horiz-adv-x="1437" 
d="M719 -31q-255 0 -415.5 154.5t-160.5 408.5v942l152 1v-923q0 -89 26 -163.5t68.5 -124.5t98.5 -85t114.5 -51t116.5 -16q75 0 147.5 26.5t135.5 78t102 138.5t39 197v923h151v-943q0 -253 -160.5 -408t-414.5 -155z" />
    <glyph glyph-name="V" unicode="V" horiz-adv-x="1235" 
d="M518 0l-508 1475h157l449 -1304l453 1304h157l-508 -1475h-200z" />
    <glyph glyph-name="W" unicode="W" horiz-adv-x="1915" 
d="M460 0l-426 1475h156l346 -1218l343 1217l157 1l345 -1218l343 1218h158l-425 -1475h-151l-349 1209l-346 -1209h-151z" />
    <glyph glyph-name="X" unicode="X" horiz-adv-x="1241" 
d="M20 0l511 746l-497 729h182l405 -603l404 603h183l-497 -729l510 -746h-183l-417 620l-417 -620h-184z" />
    <glyph glyph-name="Y" unicode="Y" horiz-adv-x="1138" 
d="M495 0v617l-495 858h174l396 -685l395 685h174l-493 -858v-617h-151z" />
    <glyph glyph-name="Z" unicode="Z" horiz-adv-x="1257" 
d="M102 0v32l806 1298h-785v145h1032v-35l-802 -1297h795v-143h-1046z" />
    <glyph glyph-name="bracketleft" unicode="[" horiz-adv-x="833" 
d="M287 -446v2265h383v-140h-244v-1986h244v-139h-383z" />
    <glyph glyph-name="backslash" unicode="\" horiz-adv-x="793" 
d="M278 1475l393 -1475h-155l-393 1475h155z" />
    <glyph glyph-name="bracketright" unicode="]" horiz-adv-x="833" 
d="M547 -446h-383v139h244v1986h-244v140h383v-2265z" />
    <glyph glyph-name="asciicircum" unicode="^" horiz-adv-x="1371" 
d="M216 1015l479 482l483 -481l-91 -91l-392 390l-389 -391z" />
    <glyph glyph-name="underscore" unicode="_" horiz-adv-x="1351" 
d="M0 -218v129h1352v-129h-1352z" />
    <glyph glyph-name="grave" unicode="`" horiz-adv-x="1002" 
d="M505 1966l72 -317h-103l-123 317h154z" />
    <glyph glyph-name="a" unicode="a" horiz-adv-x="1137" 
d="M460 -31q-180 0 -279 94t-99 234q0 246 282 321q126 30 503 79q-2 154 -70.5 225.5t-224.5 71.5q-241 0 -302 -213l-146 43q39 150 154 231.5t296 81.5q152 0 258.5 -57.5t149.5 -164.5q33 -79 33 -228v-687h-134v182q-64 -104 -172 -158.5t-249 -54.5zM477 99
q154 0 253 81t121 210q14 63 14 176q-335 -39 -441 -68q-192 -57 -192 -201q0 -81 60.5 -139.5t184.5 -58.5z" />
    <glyph glyph-name="b" unicode="b" horiz-adv-x="1212" 
d="M142 0v1475h152v-500q128 162 352 162q148 0 259 -77t168 -208.5t57 -297.5q0 -167 -57 -298.5t-169.5 -209t-263.5 -77.5q-233 0 -362 185v-154h-136zM625 110q112 0 191 59t117 158t38 227q0 197 -89 319.5t-260 122.5q-168 0 -256 -120t-88 -322q0 -131 37 -229
t116 -156.5t194 -58.5z" />
    <glyph glyph-name="c" unicode="c" horiz-adv-x="1133" 
d="M602 -31q-245 0 -381 160.5t-139 423.5q3 266 140 425t381 159q167 0 292 -82.5t171 -224.5l-147 -47q-39 98 -123.5 153.5t-193.5 55.5q-177 0 -267.5 -118.5t-92.5 -320.5q2 -204 94 -321.5t266 -117.5q228 0 312 202l152 -45q-62 -148 -181 -225t-283 -77z" />
    <glyph glyph-name="d" unicode="d" horiz-adv-x="1213" 
d="M572 -31q-151 0 -263.5 77.5t-169.5 209t-57 298.5q0 166 57 297.5t168 208.5t259 77q225 0 353 -162v500h151v-1475h-135v154q-129 -185 -363 -185zM588 110q115 0 194 58.5t116 156.5t37 229q0 202 -88 322t-256 120q-171 0 -260 -122.5t-89 -319.5q0 -128 38 -227
t117 -158t191 -59z" />
    <glyph glyph-name="e" unicode="e" horiz-adv-x="1197" 
d="M611 -31q-242 0 -385.5 158t-143.5 421q0 271 141.5 430t381.5 159q246 0 381.5 -167t127.5 -459h-871q10 -190 103.5 -293.5t258.5 -103.5q118 0 206.5 54.5t140.5 158.5l141 -55q-66 -144 -193 -223.5t-289 -79.5zM609 998q-159 0 -252 -93t-111 -268h710
q-36 361 -347 361z" />
    <glyph glyph-name="f" unicode="f" horiz-adv-x="726" 
d="M253 0v977h-192v129h192v82q0 76 14 133.5t55 102.5q45 49 104 65t138 16h142v-127h-132q-87 0 -129 -42.5t-42 -131.5v-98h303v-129h-303v-977h-150z" />
    <glyph glyph-name="g" unicode="g" horiz-adv-x="1212" 
d="M572 -31q-151 0 -263.5 77.5t-169.5 209t-57 298.5q0 166 57 297.5t168 208.5t259 77q239 0 369 -183v152h134v-1091q0 -101 -12 -176q-58 -361 -474 -361q-136 0 -253 60t-184 183l137 76q43 -87 124 -130t176 -43q177 0 256.5 97t78.5 296v114q-128 -162 -346 -162z
M588 110q115 0 194 58.5t116 156.5t37 229q0 202 -88 322t-256 120q-171 0 -260 -122.5t-89 -319.5q0 -128 38 -227t117 -158t191 -59z" />
    <glyph glyph-name="h" unicode="h" 
d="M142 0v1475h137v-523q124 182 371 182q96 0 173 -31t127 -82t83 -120.5t47 -142t14 -150.5v-608h-152v564q0 94 -18 170t-55 134t-100 90t-147 32q-158 0 -243 -105.5t-85 -294.5v-590h-152z" />
    <glyph glyph-name="i" unicode="i" horiz-adv-x="478" 
d="M239 1296q-44 0 -74.5 30t-30.5 74t30.5 74t74.5 30t74.5 -30t30.5 -74t-30.5 -74t-74.5 -30zM164 0v1106h150v-1106h-150z" />
    <glyph glyph-name="j" unicode="j" horiz-adv-x="513" 
d="M281 1296q-44 0 -74.5 30t-30.5 74t30.5 74t74.5 30t74 -30t30 -74t-30 -74t-74 -30zM-20 -492v146h62q164 0 164 167v1285h149v-1323q0 -275 -268 -275h-107z" />
    <glyph glyph-name="k" unicode="k" horiz-adv-x="1015" 
d="M142 0l1 1475h145v-850l509 481h187l-488 -469l515 -637h-180l-437 539l-106 -102v-437h-146z" />
    <glyph glyph-name="l" unicode="l" horiz-adv-x="478" 
d="M164 0v1505h150v-1505h-150z" />
    <glyph glyph-name="m" unicode="m" horiz-adv-x="1736" 
d="M142 0v1106h136v-117q53 69 133.5 108t177.5 39q110 0 194 -48.5t128 -138.5q49 88 137 137.5t198 49.5q168 0 268 -103.5t100 -277.5l-1 -755h-151l1 726q0 126 -70.5 200t-181.5 74q-49 0 -93.5 -16t-82.5 -49t-60 -90t-22 -131l-1 -714h-148l1 716q0 131 -69.5 207.5
t-185.5 76.5t-186 -78t-70 -208v-714h-152z" />
    <glyph glyph-name="n" unicode="n" 
d="M142 0v1106h137v-154q124 182 371 182q96 0 173 -31t127 -82t83 -120.5t47 -142t14 -150.5v-608h-152v564q0 94 -18 170t-55 134t-100 90t-147 32q-158 0 -243 -105.5t-85 -294.5v-590h-152z" />
    <glyph glyph-name="o" unicode="o" horiz-adv-x="1211" 
d="M605 -31q-243 0 -383 161.5t-140 423.5q0 263 141 423t382 160q163 0 282.5 -74.5t180.5 -205.5t61 -303q0 -264 -140.5 -424.5t-383.5 -160.5zM605 114q179 0 272 119t93 321q0 205 -93 321.5t-272 116.5q-180 0 -271.5 -118.5t-91.5 -319.5q0 -204 93.5 -322
t269.5 -118z" />
    <glyph glyph-name="p" unicode="p" horiz-adv-x="1212" 
d="M142 -492v1598h136v-152q130 183 368 183q148 0 259 -77t168 -208.5t57 -297.5q0 -167 -57 -298.5t-169.5 -209t-263.5 -77.5q-217 0 -346 163v-624h-152zM625 110q112 0 191 59t117 158t38 227q0 197 -89 319.5t-260 122.5q-168 0 -256 -120t-88 -322q0 -131 37 -229
t116 -156.5t194 -58.5z" />
    <glyph glyph-name="q" unicode="q" horiz-adv-x="1213" 
d="M572 -31q-151 0 -263.5 77.5t-169.5 209t-57 298.5q0 166 57 297.5t168 208.5t259 77q239 0 369 -183v152h135v-1598h-151v624q-129 -163 -347 -163zM588 110q115 0 194 58.5t116 156.5t37 229q0 202 -88 322t-256 120q-171 0 -260 -122.5t-89 -319.5q0 -128 38 -227
t117 -158t191 -59z" />
    <glyph glyph-name="r" unicode="r" horiz-adv-x="738" 
d="M143 0v1106h136v-175q37 65 86 102q63 55 157.5 74.5t164.5 -1.5v-141q-158 37 -264 -51q-40 -31 -67 -73.5t-39.5 -92t-17.5 -95t-5 -101.5v-552h-151z" />
    <glyph glyph-name="s" unicode="s" horiz-adv-x="1075" 
d="M556 -30q-194 0 -320 84t-154 234l154 25q24 -95 111.5 -150t216.5 -55q126 0 199 52.5t73 143.5q0 40 -11 65t-48.5 49t-97.5 44.5t-171 50.5q-225 61 -308.5 126.5t-83.5 181.5q0 141 116.5 228.5t303.5 87.5t312 -89t142 -234l-153 -28q-16 97 -97 154t-206 59
q-118 2 -192 -45.5t-74 -125.5q0 -45 27.5 -75.5t95.5 -57.5t201 -61q228 -58 314 -129t86 -199q0 -157 -116.5 -246.5t-319.5 -89.5z" />
    <glyph glyph-name="t" unicode="t" horiz-adv-x="820" 
d="M745 0q-97 -18 -184 -16t-160.5 40t-108.5 108q-7 15 -13 31t-9.5 29t-6 32.5t-4 30.5t-2 34.5t-0.5 33v38.5v39v577h-237v129h237v307h150v-307h338v-129h-338v-570v-42.5v-41t1 -32t3.5 -32.5t6.5 -25.5t11 -25.5q35 -66 117 -82.5t199 6.5v-132z" />
    <glyph glyph-name="u" unicode="u" 
d="M566 -28q-96 0 -173 31t-126.5 82t-82.5 120.5t-47 142t-14 150.5v608h151v-564q0 -127 31 -219.5t104.5 -149.5t185.5 -57q158 0 243 105.5t85 294.5v590h150v-1106h-135v154q-61 -89 -156.5 -135.5t-215.5 -46.5z" />
    <glyph glyph-name="v" unicode="v" horiz-adv-x="1040" 
d="M442 0l-401 1106h153l326 -909l325 909h154l-401 -1106h-156z" />
    <glyph glyph-name="w" unicode="w" horiz-adv-x="1571" 
d="M379 0l-338 1107l150 -1l263 -859l263 859h137l263 -859l264 859h150l-338 -1106h-131l-277 881l-275 -881h-131z" />
    <glyph glyph-name="x" unicode="x" horiz-adv-x="1079" 
d="M20 0l433 559l-423 547h180l331 -431l327 431h181l-423 -547l433 -559h-181l-337 443l-339 -443h-182z" />
    <glyph glyph-name="y" unicode="y" horiz-adv-x="1080" 
d="M301 -492l182 494l-449 1104h160l362 -909l336 909h154l-594 -1598h-151z" />
    <glyph glyph-name="z" unicode="z" horiz-adv-x="1084" 
d="M41 0v32l714 934h-661v140h908v-35l-712 -931h674v-140h-923z" />
    <glyph glyph-name="braceleft" unicode="{" horiz-adv-x="859" 
d="M648 -446q-107 0 -175.5 68t-68.5 174v668q0 31 -18 59l-87 122q-28 41 0 82l87 122q18 29 18 59v667q0 106 69 175t175 69h122v-145h-116q-44 0 -74.5 -31t-30.5 -75v-660q0 -79 -46 -143l-57 -79l57 -79q46 -64 46 -143v-662q0 -43 31 -73.5t74 -30.5h116v-144h-122z
" />
    <glyph glyph-name="bar" unicode="|" horiz-adv-x="519" 
d="M184 0v1475h151v-1475h-151z" />
    <glyph glyph-name="braceright" unicode="}" horiz-adv-x="859" 
d="M211 -446h-122v144h115q44 0 75 30.5t31 73.5v662q0 81 45 143l58 79l-58 79q-45 62 -45 143v660q0 44 -31 75t-75 31h-115v145h122q106 0 175 -69t69 -175v-667q0 -30 18 -59l87 -122q26 -41 0 -82l-87 -122q-18 -28 -18 -59v-668q0 -106 -68.5 -174t-175.5 -68z" />
    <glyph glyph-name="asciitilde" unicode="~" horiz-adv-x="1355" 
d="M894 477q-54 0 -118 25.5t-112 56.5t-102 56.5t-92 25.5q-53 0 -72 -44.5t0 -95.5h-149q-33 131 26 220.5t185 89.5q55 0 119.5 -25.5t112 -56.5t102 -56.5t92.5 -25.5q50 0 69.5 42.5t0.5 101.5h151q33 -130 -26 -222t-187 -92z" />
    <glyph glyph-name="uni00A0" unicode="&#xa0;" horiz-adv-x="409" 
 />
    <glyph glyph-name="exclamdown" unicode="&#xa1;" horiz-adv-x="642" 
d="M321 1117q44 0 74.5 -30t30.5 -73q0 -44 -30.5 -74.5t-74.5 -30.5t-74.5 30.5t-30.5 74.5q0 43 30.5 73t74.5 30zM246 717h150v-1086h-150v1086z" />
    <glyph glyph-name="cent" unicode="&#xa2;" horiz-adv-x="1133" 
d="M544 -60v186q-219 20 -339 177t-123 404q3 249 123.5 404t338.5 175v189h129v-190q142 -17 246.5 -96t146.5 -205l-147 -47q-39 98 -123.5 153.5t-193.5 55.5q-177 0 -267.5 -118.5t-92.5 -320.5q2 -204 94 -322t266 -118q228 0 312 203l152 -45q-57 -131 -157 -206.5
t-236 -90.5v-188h-129z" />
    <glyph glyph-name="sterling" unicode="&#xa3;" horiz-adv-x="1169" 
d="M69 0v144h104q60 0 102.5 43t42.5 103v386h-249v144h249v300q0 168 111 276.5t277 108.5q272 0 395 -363l-137 -45q-44 134 -106.5 199t-154.5 65q-105 0 -169 -68t-64 -178v-295h373v-144h-373v-532h577v-144h-978z" />
    <glyph glyph-name="currency" unicode="&#xa4;" horiz-adv-x="1313" 
d="M164 143l-103 103l168 168q-109 144 -109 325t109 323l-168 168l103 101l167 -167q144 112 325 112q184 0 328 -111l166 166l102 -101l-167 -167q110 -143 110 -324q0 -182 -111 -326l168 -167l-102 -103l-168 167q-142 -109 -326 -109q-183 0 -324 110zM656 336
q166 0 285 119t119 282q0 109 -55.5 202t-148.5 147t-200 54q-166 0 -283.5 -118t-117.5 -285q0 -107 53.5 -199.5t146 -147t201.5 -54.5z" />
    <glyph glyph-name="yen" unicode="&#xa5;" horiz-adv-x="1138" 
d="M181 230v129h314v170h-314v129h290l-471 817h174l396 -685l395 685h174l-470 -817h290v-129h-313v-170h313v-129h-313v-230h-151v230h-314z" />
    <glyph glyph-name="brokenbar" unicode="&#xa6;" horiz-adv-x="519" 
d="M184 718v757h151v-757h-151zM184 -319v756h151v-756h-151z" />
    <glyph glyph-name="section" unicode="&#xa7;" horiz-adv-x="1075" 
d="M561 -316q-79 0 -150 18.5t-132 55.5t-104 99.5t-59 143.5l153 26q18 -69 68.5 -117.5t109 -68.5t121.5 -20q103 0 175 52t72 144q0 36 -15 63.5t-32.5 44.5t-67.5 36.5t-84 29.5t-118 32q-7 2 -11 3q-79 21 -132.5 38.5t-107 43.5t-84 55.5t-49.5 70.5t-19 93
q0 100 62 168t161 96q-95 40 -141.5 96t-46.5 146q0 101 59.5 175t147 107.5t186.5 33.5q163 0 282 -89t137 -234l-154 -28q-14 75 -59 124.5t-99.5 69t-116.5 19.5q-97 0 -164 -47t-67 -122q0 -33 14 -58.5t39.5 -43.5t61.5 -32.5t78.5 -27t93.5 -25.5l36 -9
q83 -21 135.5 -38t108.5 -44t86.5 -58t50.5 -77.5t20 -106.5q0 -99 -47.5 -167.5t-130.5 -96.5q144 -78 144 -236q0 -160 -115.5 -249t-295.5 -89zM571 347q36 -9 113 -31q71 20 118 72.5t47 127.5q0 36 -15 63.5t-32.5 44.5t-67.5 36.5t-84 29.5t-118 32q-7 2 -11 3
q-31 8 -64 18q-209 -67 -209 -199q0 -28 8 -49.5t32 -40t40.5 -30t63 -26.5t67 -21t82.5 -22q20 -5 30 -8z" />
    <glyph glyph-name="dieresis" unicode="&#xa8;" horiz-adv-x="1045" 
d="M718 1668q-45 0 -75.5 30.5t-30.5 74.5t30.5 74t75.5 30q44 0 74 -30t30 -74t-30 -74.5t-74 -30.5zM328 1668q-44 0 -74.5 30.5t-30.5 74.5t30.5 74t74.5 30t74 -30t30 -74t-30 -74.5t-74 -30.5z" />
    <glyph glyph-name="copyright" unicode="&#xa9;" horiz-adv-x="1645" 
d="M822 -54q-155 0 -296 60t-242.5 162t-162 243t-60.5 296t60.5 296t162.5 242.5t242.5 161.5t295.5 60t296 -60t243 -161.5t162.5 -242.5t60.5 -296t-60.5 -296t-162.5 -243t-243 -162t-296 -60zM822 92q167 0 308.5 82.5t223.5 224t82 309.5q0 125 -48.5 238.5
t-131 195.5t-196 130.5t-238.5 48.5q-168 0 -309.5 -82t-223.5 -223t-82 -308q0 -168 82 -309.5t223.5 -224t309.5 -82.5zM831 275q-187 0 -295 134q-94 117 -94 301q2 183 94 297q107 134 302 134q114 0 201 -52q108 -67 142 -184l-126 -38q-27 68 -87 113q-56 40 -135 40
q-121 0 -193 -91q-61 -77 -61 -218q0 -140 61 -223q66 -92 193 -92q80 0 137 39q54 38 82 108l129 -35q-43 -110 -130 -171q-92 -62 -220 -62z" />
    <glyph glyph-name="ordfeminine" unicode="&#xaa;" horiz-adv-x="1137" 
d="M460 -31q-180 0 -279 94t-99 234q0 246 282 321q126 30 503 79q-2 154 -70.5 225.5t-224.5 71.5q-241 0 -302 -213l-146 43q39 150 154 231.5t296 81.5q152 0 258.5 -57.5t149.5 -164.5q33 -79 33 -228v-687h-134v182q-64 -104 -172 -158.5t-249 -54.5zM477 99
q154 0 253 81t121 210q14 63 14 176q-335 -39 -441 -68q-192 -57 -192 -201q0 -81 60.5 -139.5t184.5 -58.5z" />
    <glyph glyph-name="guillemotleft" unicode="&#xab;" horiz-adv-x="1096" 
d="M869 109l-354 445l354 444l92 -70l-298 -374l298 -375zM518 109l-354 445l354 444l91 -70l-299 -374l299 -375z" />
    <glyph glyph-name="logicalnot" unicode="&#xac;" horiz-adv-x="1228" 
d="M977 399v253h-854v129h983v-382h-129z" />
    <glyph glyph-name="uni00AD" unicode="&#xad;" horiz-adv-x="860" 
d="M123 581v129h614v-129h-614z" />
    <glyph glyph-name="registered" unicode="&#xae;" horiz-adv-x="1280" 
d="M640 589q-135 0 -249.5 66.5t-181 181t-66.5 249.5q0 204 146 350t351 146t351 -146t146 -350q0 -135 -66.5 -249.5t-181 -181t-249.5 -66.5zM641 706q156 0 267.5 111.5t111.5 268.5t-111.5 268t-267.5 111q-158 0 -269 -111t-111 -268q0 -158 111 -269t269 -111z
M473 851v476h208q66 0 111.5 -45t46.5 -110q0 -42 -23.5 -80.5t-64.5 -58.5l90 -182h-90l-82 167h-116v-167h-80zM553 1093h128q31 0 53.5 23t22.5 56q0 35 -22.5 57t-53.5 22h-128v-158z" />
    <glyph glyph-name="macron" unicode="&#xaf;" horiz-adv-x="1004" 
d="M246 1720v128h513v-128h-513z" />
    <glyph glyph-name="degree" unicode="&#xb0;" horiz-adv-x="921" 
d="M430 768q-153 0 -261 108t-108 261q0 150 110 259t259 109q153 0 261 -107.5t108 -260.5t-108 -261t-261 -108zM430 904q94 0 163.5 69t69.5 164q0 94 -69 163t-164 69q-94 0 -163 -68.5t-69 -163.5t69 -164t163 -69z" />
    <glyph glyph-name="plusminus" unicode="&#xb1;" horiz-adv-x="1167" 
d="M519 326v403h-403v129h403v403h129v-403h404v-129h-404v-403h-129zM116 105v129h936v-129h-936z" />
    <glyph glyph-name="uni00B2" unicode="&#xb2;" horiz-adv-x="819" 
d="M102 553l1 102l410 370q86 77 86 171q0 81 -53 136.5t-132 55.5q-81 0 -136.5 -57t-53.5 -133h-118q0 130 87.5 213.5t221.5 83.5q129 0 215.5 -86t86.5 -214q0 -85 -32 -140t-110 -124l-296 -268h438v-110h-615z" />
    <glyph glyph-name="uni00B3" unicode="&#xb3;" horiz-adv-x="797" 
d="M374 531q-104 0 -183.5 56.5t-108.5 153.5l109 32q21 -64 70.5 -98.5t112.5 -32.5q84 1 134 54t50 139t-51 139t-135 53q-45 0 -97 -22l-55 89l300 272h-401v109h546v-110l-252 -240q119 -7 190.5 -87t71.5 -203q0 -133 -85.5 -218.5t-215.5 -85.5z" />
    <glyph glyph-name="acute" unicode="&#xb4;" horiz-adv-x="1002" 
d="M498 1966h153l-122 -317h-103z" />
    <glyph glyph-name="uni00B5" unicode="&#xb5;" horiz-adv-x="1235" 
d="M142 -492v1598h152v-564q0 -94 18 -170t55 -134t100 -90t148 -32q158 0 242.5 105.5t84.5 294.5v590h151v-1106h-136v157q-60 -92 -155.5 -138.5t-215.5 -46.5q-201 0 -308 143v-607h-136z" />
    <glyph glyph-name="paragraph" unicode="&#xb6;" horiz-adv-x="1299" 
d="M705 -289v849h-92q-54 0 -104 8q-167 26 -262.5 149.5t-95.5 299.5t95 299.5t263 149.5q57 9 104 9h242v-1764h-150zM999 -289v1764h151v-1764h-151z" />
    <glyph glyph-name="periodcentered" unicode="&#xb7;" horiz-adv-x="463" 
d="M234 536q-47 0 -79 31.5t-32 77.5t32 78t79 32q43 0 75 -32t32 -78t-32 -77.5t-75 -31.5z" />
    <glyph glyph-name="cedilla" unicode="&#xb8;" horiz-adv-x="813" 
d="M376 -492q-62 0 -130 32l39 105q52 -19 79 -19q38 0 60.5 24t22.5 56q0 18 -8.5 33t-18.5 24.5t-32.5 19.5t-35 14.5t-41.5 13.5l76 211h112l-53 -144q124 -56 124 -176q0 -82 -57 -138t-137 -56z" />
    <glyph glyph-name="uni00B9" unicode="&#xb9;" horiz-adv-x="657" 
d="M297 553v796l-174 -106v127l174 105h115v-922h-115z" />
    <glyph glyph-name="ordmasculine" unicode="&#xba;" horiz-adv-x="1211" 
d="M605 -31q-243 0 -383 161.5t-140 423.5q0 263 141 423t382 160q163 0 282.5 -74.5t180.5 -205.5t61 -303q0 -264 -140.5 -424.5t-383.5 -160.5zM605 114q179 0 272 119t93 321q0 205 -93 321.5t-272 116.5q-180 0 -271.5 -118.5t-91.5 -319.5q0 -204 93.5 -322
t269.5 -118z" />
    <glyph glyph-name="guillemotright" unicode="&#xbb;" horiz-adv-x="1096" 
d="M227 109l-91 70l299 375l-299 374l91 70l355 -444zM579 109l-91 70l298 375l-298 374l91 70l354 -444z" />
    <glyph glyph-name="onequarter" unicode="&#xbc;" horiz-adv-x="1993" 
d="M390 0l-103 80l1076 1400l101 -80zM297 553v796l-174 -106v127l174 105h115v-922h-115zM1537 0v169h-424v110l304 643h130l-305 -643h295v259h115v-259h96v-110h-96v-169h-115z" />
    <glyph glyph-name="onehalf" unicode="&#xbd;" horiz-adv-x="1912" 
d="M390 0l-103 80l1076 1400l101 -80zM297 553v796l-174 -106v127l174 105h115v-922h-115zM1196 0l2 102l409 370q87 77 87 171q0 81 -54 136.5t-133 55.5q-81 0 -136 -57t-53 -133h-118q0 130 87.5 213.5t221.5 83.5q129 0 215 -86t86 -214q0 -85 -32 -140t-109 -124
l-296 -268h437v-110h-614z" />
    <glyph glyph-name="threequarters" unicode="&#xbe;" horiz-adv-x="2006" 
d="M530 0l-103 80l1076 1400l102 -80zM374 531q-104 0 -183.5 56.5t-108.5 153.5l109 32q21 -64 70.5 -98.5t112.5 -32.5q84 1 134 54t50 139t-51 139t-135 53q-45 0 -97 -22l-55 89l300 272h-401v109h546v-110l-252 -240q119 -7 190.5 -87t71.5 -203q0 -133 -85.5 -218.5
t-215.5 -85.5zM1672 0v169h-424v110l304 643h130l-305 -643h295v259h115v-259h96v-110h-96v-169h-115z" />
    <glyph glyph-name="questiondown" unicode="&#xbf;" horiz-adv-x="1072" 
d="M560 1117q44 0 74.5 -30t30.5 -73q0 -44 -30.5 -74.5t-74.5 -30.5t-74 30.5t-30 74.5t30 73.5t74 29.5zM640 703q0 -92 -9 -149t-39 -114q-21 -40 -55 -75.5t-65.5 -58t-73 -55t-69.5 -62.5q-67 -77 -67 -192q0 -105 52 -164q72 -87 225 -87q140 0 210 73q67 62 65 176
h156q-4 -85 -36 -161t-91 -127q-115 -105 -303 -105q-226 0 -342 131q-96 105 -96 262q0 167 121 293q27 29 77 67t90 73.5t60 70.5q9 16 15 33t9 28t4.5 33.5t2 30.5t0 39t-0.5 40h160z" />
    <glyph glyph-name="Agrave" unicode="&#xc0;" horiz-adv-x="1297" 
d="M601 1966l72 -317h-103l-123 317h154zM1256 0h-156l-123 357h-655l-124 -357h-157l508 1475h200zM371 499h557l-278 807z" />
    <glyph glyph-name="Aacute" unicode="&#xc1;" horiz-adv-x="1297" 
d="M696 1966h154l-122 -317h-103zM41 0l508 1475h200l507 -1475h-156l-124 357h-654l-124 -357h-157zM370 499h557l-280 807z" />
    <glyph glyph-name="Acircumflex" unicode="&#xc2;" horiz-adv-x="1297" 
d="M344 1649l235 276h139l235 -276h-153l-152 177l-150 -177h-154zM41 0l508 1475h200l507 -1475h-156l-124 357h-654l-124 -357h-157zM370 499h557l-280 807z" />
    <glyph glyph-name="Atilde" unicode="&#xc3;" horiz-adv-x="1297" 
d="M803 1702q-49 0 -107.5 29t-109.5 58t-84 29q-38 0 -51 -32t1 -67h-107q-24 93 18 156t132 63q50 0 108.5 -29t109.5 -57.5t84 -28.5q35 0 49 30t1 71h106q24 -93 -18 -157.5t-132 -64.5zM41 0l508 1475h200l507 -1475h-156l-124 357h-654l-124 -357h-157zM370 499h557
l-280 807z" />
    <glyph glyph-name="Adieresis" unicode="&#xc4;" horiz-adv-x="1297" 
d="M845 1668q-45 0 -75.5 30.5t-30.5 74.5t30.5 74t75.5 30q44 0 74 -30t30 -74t-30 -74.5t-74 -30.5zM455 1668q-44 0 -74.5 30.5t-30.5 74.5t30.5 74t74.5 30t74 -30t30 -74t-30 -74.5t-74 -30.5zM41 0l508 1475h200l507 -1475h-156l-124 357h-654l-124 -357h-157z
M370 499h557l-280 807z" />
    <glyph glyph-name="Aring" unicode="&#xc5;" horiz-adv-x="1297" 
d="M650 1594q-92 0 -158.5 66t-66.5 159q0 92 66.5 158t158.5 66q93 0 158.5 -66t65.5 -158q0 -93 -65.5 -159t-158.5 -66zM650 1706q46 0 79.5 33.5t33.5 79.5t-33 79t-80 33q-46 0 -79 -33t-33 -79t33 -79.5t79 -33.5zM41 0l508 1475h200l507 -1475h-156l-124 357h-654
l-124 -357h-157zM370 499h557l-280 807z" />
    <glyph glyph-name="AE" unicode="&#xc6;" horiz-adv-x="1881" 
d="M41 0l508 1475h1230v-145h-772v-510h649v-144h-649v-532h772v-144h-922v357h-536l-123 -357h-157zM370 499h487v831h-202z" />
    <glyph glyph-name="Ccedilla" unicode="&#xc7;" horiz-adv-x="1465" 
d="M726 -492q-62 0 -131 32l39 105q52 -19 80 -19q38 0 60.5 24t22.5 56q0 18 -8.5 33t-18.5 24.5t-32.5 19.5t-35.5 14.5t-42 13.5l58 158q-209 5 -358.5 104.5t-224 269.5t-74.5 394q0 229 77 400.5t231.5 269.5t370.5 98q251 0 416 -128.5t227 -355.5l-153 -40
q-48 179 -172.5 279.5t-317.5 100.5q-252 0 -385 -169t-135 -455q-1 -187 56 -325.5t176 -218t288 -79.5q193 0 317.5 100.5t172.5 279.5l153 -40q-57 -206 -198 -332t-355 -149l-34 -95q124 -55 124 -176q0 -82 -57.5 -138t-136.5 -56z" />
    <glyph glyph-name="Egrave" unicode="&#xc8;" horiz-adv-x="1167" 
d="M602 1966l73 -317h-104l-121 317h152zM143 0v1475h922v-145h-771v-510h648v-144h-648v-532h771v-144h-922z" />
    <glyph glyph-name="Eacute" unicode="&#xc9;" horiz-adv-x="1167" 
d="M663 1966h152l-122 -317h-103zM143 0v1475h922v-145h-771v-510h648v-144h-648v-532h771v-144h-922z" />
    <glyph glyph-name="Ecircumflex" unicode="&#xca;" horiz-adv-x="1167" 
d="M288 1649l235 276h140l234 -276h-154l-150 177l-152 -177h-153zM143 0v1475h922v-145h-771v-510h648v-144h-648v-532h771v-144h-922z" />
    <glyph glyph-name="Edieresis" unicode="&#xcb;" horiz-adv-x="1167" 
d="M777 1668q-44 0 -74 30.5t-30 74.5t30 74t74 30t75 -30.5t31 -73.5q0 -44 -31 -74.5t-75 -30.5zM388 1668q-45 0 -75 30.5t-30 74.5t30 74t75 30q44 0 74.5 -30t30.5 -74t-30.5 -74.5t-74.5 -30.5zM143 0v1475h922v-145h-771v-510h648v-144h-648v-532h771v-144h-922z" />
    <glyph glyph-name="Igrave" unicode="&#xcc;" horiz-adv-x="478" 
d="M203 1966l71 -317h-102l-123 317h154zM164 0v1475h150v-1475h-150z" />
    <glyph glyph-name="Iacute" unicode="&#xcd;" horiz-adv-x="478" 
d="M275 1966h153l-122 -317h-103zM164 0v1475h150v-1475h-150z" />
    <glyph glyph-name="Icircumflex" unicode="&#xce;" horiz-adv-x="478" 
d="M-67 1649l235 276h139l235 -276h-154l-150 177l-151 -177h-154zM164 0v1475h150v-1475h-150z" />
    <glyph glyph-name="Idieresis" unicode="&#xcf;" horiz-adv-x="478" 
d="M433 1668q-44 0 -74 30.5t-30 74.5t30 74t74 30t75 -30.5t31 -73.5q0 -44 -31 -74.5t-75 -30.5zM44 1668q-45 0 -75 30.5t-30 74.5t30 74t75 30q44 0 74 -30t30 -74t-30 -74.5t-74 -30.5zM164 0v1475h150v-1475h-150z" />
    <glyph glyph-name="Eth" unicode="&#xd0;" horiz-adv-x="1362" 
d="M131 0v673h-111v129h111v673h448q110 0 189 -10q163 -22 279 -125t171.5 -257.5t55.5 -345.5q0 -192 -55.5 -346t-171.5 -257t-279 -125q-69 -9 -189 -9h-448zM287 144h292q106 0 174 13q94 16 164.5 67.5t113 129.5t63 174t20.5 209q0 114 -21 210.5t-63.5 174.5
t-112.5 129t-164 67q-63 12 -174 12h-292v-528h379v-129h-379v-529z" />
    <glyph glyph-name="Ntilde" unicode="&#xd1;" horiz-adv-x="1401" 
d="M882 1651q-39 0 -84.5 18t-79.5 39.5t-72 39.5t-65 18q-38 0 -51 -30t-1 -68h-106q-24 93 18 156t131 63q39 0 85 -18t80 -39.5t73 -39.5t66 -18q35 0 49 30t1 71h106q24 -93 -18 -157.5t-132 -64.5zM143 0v1475h152l812 -1209v1209h151v-1475h-151l-812 1209v-1209h-152
z" />
    <glyph glyph-name="Ograve" unicode="&#xd2;" horiz-adv-x="1481" 
d="M703 1966l72 -317h-103l-122 317h153zM740 -31q-216 0 -370.5 98t-231.5 269.5t-77 400.5t77 400.5t231.5 269.5t370.5 98t371 -98t232 -269.5t77 -400.5t-77 -400.5t-232 -269.5t-371 -98zM740 114q169 0 288 79.5t176 218t57 325.5t-57 325.5t-176 218t-288 80.5
q-169 0 -286.5 -79.5t-174 -218t-58.5 -326.5q-2 -284 132 -453t387 -170z" />
    <glyph glyph-name="Oacute" unicode="&#xd3;" horiz-adv-x="1481" 
d="M792 1966h153l-122 -317h-103zM740 -31q-216 0 -370.5 98t-231.5 269.5t-77 400.5t77 400.5t231.5 269.5t370.5 98t371 -98t232 -269.5t77 -400.5t-77 -400.5t-232 -269.5t-371 -98zM740 114q169 0 288 79.5t176 218t57 325.5t-57 325.5t-176 218t-288 80.5
q-169 0 -286.5 -79.5t-174 -218t-58.5 -326.5q-2 -284 132 -453t387 -170z" />
    <glyph glyph-name="Ocircumflex" unicode="&#xd4;" horiz-adv-x="1481" 
d="M435 1649l235 276h139l234 -276h-153l-151 177l-150 -177h-154zM740 -31q-216 0 -370.5 98t-231.5 269.5t-77 400.5t77 400.5t231.5 269.5t370.5 98t371 -98t232 -269.5t77 -400.5t-77 -400.5t-232 -269.5t-371 -98zM740 114q169 0 288 79.5t176 218t57 325.5t-57 325.5
t-176 218t-288 80.5q-169 0 -286.5 -79.5t-174 -218t-58.5 -326.5q-2 -284 132 -453t387 -170z" />
    <glyph glyph-name="Otilde" unicode="&#xd5;" horiz-adv-x="1481" 
d="M909 1651q-39 0 -84.5 18t-79.5 39.5t-72 39.5t-65 18q-38 0 -51 -31.5t1 -66.5h-106q-24 93 17.5 156t131.5 63q39 0 85 -18t80 -39.5t72 -39.5t65 -18q35 0 49 30t1 71h107q24 -93 -18 -157.5t-133 -64.5zM740 -31q-216 0 -370.5 98t-231.5 269.5t-77 400.5t77 400.5
t231.5 269.5t370.5 98t371 -98t232 -269.5t77 -400.5t-77 -400.5t-232 -269.5t-371 -98zM740 114q169 0 288 79.5t176 218t57 325.5t-57 325.5t-176 218t-288 80.5q-169 0 -286.5 -79.5t-174 -218t-58.5 -326.5q-2 -284 132 -453t387 -170z" />
    <glyph glyph-name="Odieresis" unicode="&#xd6;" horiz-adv-x="1481" 
d="M935 1668q-44 0 -74.5 30.5t-30.5 74.5t30.5 74t74.5 30t74.5 -30t30.5 -74t-30.5 -74.5t-74.5 -30.5zM546 1668q-45 0 -75.5 30.5t-30.5 74.5t30.5 74t75.5 30q44 0 74 -30t30 -74t-30 -74.5t-74 -30.5zM740 -31q-216 0 -370.5 98t-231.5 269.5t-77 400.5t77 400.5
t231.5 269.5t370.5 98t371 -98t232 -269.5t77 -400.5t-77 -400.5t-232 -269.5t-371 -98zM740 114q169 0 288 79.5t176 218t57 325.5t-57 325.5t-176 218t-288 80.5q-169 0 -286.5 -79.5t-174 -218t-58.5 -326.5q-2 -284 132 -453t387 -170z" />
    <glyph glyph-name="multiply" unicode="&#xd7;" horiz-adv-x="1167" 
d="M869 356l-285 285l-286 -285l-91 91l286 285l-285 285l91 92l285 -286l284 286l91 -92l-284 -285l286 -285z" />
    <glyph glyph-name="Oslash" unicode="&#xd8;" horiz-adv-x="1481" 
d="M146 -27l-107 98l155 169q-133 199 -133 497q0 229 77 400.5t231.5 269.5t370.5 98q286 0 463 -169l147 160l107 -96l-161 -177q124 -197 124 -486q0 -229 -77 -400.5t-232 -269.5t-371 -98q-275 0 -451 159zM221 737q-2 -226 83 -380l796 865q-134 138 -360 139
q-169 0 -286.5 -79.5t-174 -218t-58.5 -326.5zM740 114q169 0 288 79.5t176 218t57 325.5q0 216 -77 367l-792 -862q133 -127 348 -128z" />
    <glyph glyph-name="Ugrave" unicode="&#xd9;" horiz-adv-x="1437" 
d="M707 1966l72 -317h-103l-122 317h153zM719 -31q-255 0 -415.5 154.5t-160.5 408.5v942l152 1v-923q0 -89 26 -163.5t68.5 -124.5t98.5 -85t114.5 -51t116.5 -16q75 0 147.5 26.5t135.5 78t102 138.5t39 197v923h151v-943q0 -253 -160.5 -408t-414.5 -155z" />
    <glyph glyph-name="Uacute" unicode="&#xda;" horiz-adv-x="1437" 
d="M736 1966h153l-122 -317h-103zM719 -31q-255 0 -415.5 154.5t-160.5 408.5v942l152 1v-923q0 -89 26 -163.5t68.5 -124.5t98.5 -85t114.5 -51t116.5 -16q75 0 147.5 26.5t135.5 78t102 138.5t39 197v923h151v-943q0 -253 -160.5 -408t-414.5 -155z" />
    <glyph glyph-name="Ucircumflex" unicode="&#xdb;" horiz-adv-x="1437" 
d="M413 1649l235 276h139l235 -276h-154l-150 177l-152 -177h-153zM719 -31q-255 0 -415.5 154.5t-160.5 408.5v942l152 1v-923q0 -89 26 -163.5t68.5 -124.5t98.5 -85t114.5 -51t116.5 -16q75 0 147.5 26.5t135.5 78t102 138.5t39 197v923h151v-943q0 -253 -160.5 -408
t-414.5 -155z" />
    <glyph glyph-name="Udieresis" unicode="&#xdc;" horiz-adv-x="1437" 
d="M913 1668q-44 0 -74 30.5t-30 74.5t30 74t74 30t74.5 -30t30.5 -74t-30.5 -74.5t-74.5 -30.5zM523 1668q-44 0 -74 30.5t-30 74.5t30 74t74 30t75 -30.5t31 -73.5q0 -44 -31 -74.5t-75 -30.5zM719 -31q-255 0 -415.5 154.5t-160.5 408.5v942l152 1v-923q0 -89 26 -163.5
t68.5 -124.5t98.5 -85t114.5 -51t116.5 -16q75 0 147.5 26.5t135.5 78t102 138.5t39 197v923h151v-943q0 -253 -160.5 -408t-414.5 -155z" />
    <glyph glyph-name="Yacute" unicode="&#xdd;" horiz-adv-x="1138" 
d="M584 1966h152l-122 -317h-103zM495 0v617l-495 858h174l396 -685l395 685h174l-493 -858v-617h-151z" />
    <glyph glyph-name="Thorn" unicode="&#xde;" horiz-adv-x="1217" 
d="M143 0v1475h152v-280h402q74 0 155 -29q108 -38 179 -119q59 -62 92 -143.5t33 -166.5q1 -80 -28 -156.5t-82 -137.5q-62 -75 -155.5 -118.5t-193.5 -43.5h-402v-281h-152zM295 425h401q64 0 127.5 31t106.5 84q73 89 70 197q-3 131 -90 219q-40 42 -98 68t-116 26h-401
v-625z" />
    <glyph glyph-name="germandbls" unicode="&#xdf;" horiz-adv-x="1225" 
d="M640 -30q-119 0 -188 30v148q77 -28 174 -28q148 0 235.5 79t87.5 223q0 136 -106.5 214t-283.5 81v138q114 11 187 75.5t73 179.5q0 118 -71 184.5t-188 66.5q-84 0 -147.5 -37t-90.5 -111q-23 -62 -23 -165v-1048h-157v1089q0 103 27 174q43 121 144 181.5t245 60.5
q186 0 301 -106t115 -288q0 -107 -46 -188t-131 -115q51 -10 103 -39.5t98.5 -76.5t75.5 -118t29 -153q0 -209 -120.5 -330t-342.5 -121z" />
    <glyph glyph-name="agrave" unicode="&#xe0;" horiz-adv-x="1137" 
d="M552 1597l72 -317h-103l-123 317h154zM460 -31q-180 0 -279 94t-99 234q0 246 282 321q126 30 503 79q-2 154 -70.5 225.5t-224.5 71.5q-241 0 -302 -213l-146 43q39 150 154 231.5t296 81.5q152 0 258.5 -57.5t149.5 -164.5q33 -79 33 -228v-687h-134v182
q-64 -104 -172 -158.5t-249 -54.5zM477 99q154 0 253 81t121 210q14 63 14 176q-335 -39 -441 -68q-192 -57 -192 -201q0 -81 60.5 -139.5t184.5 -58.5z" />
    <glyph glyph-name="aacute" unicode="&#xe1;" horiz-adv-x="1137" 
d="M614 1597h154l-123 -317h-102zM460 -31q-180 0 -279 94t-99 234q0 246 282 321q126 30 503 79q-2 154 -70.5 225.5t-224.5 71.5q-241 0 -302 -213l-146 43q39 150 154 231.5t296 81.5q152 0 258.5 -57.5t149.5 -164.5q33 -79 33 -228v-687h-134v182q-64 -104 -172 -158.5
t-249 -54.5zM477 99q154 0 253 81t121 210q14 63 14 176q-335 -39 -441 -68q-192 -57 -192 -201q0 -81 60.5 -139.5t184.5 -58.5z" />
    <glyph glyph-name="acircumflex" unicode="&#xe2;" horiz-adv-x="1137" 
d="M280 1280l235 276h139l235 -276h-154l-150 177l-152 -177h-153zM460 -31q-180 0 -279 94t-99 234q0 246 282 321q126 30 503 79q-2 154 -70.5 225.5t-224.5 71.5q-241 0 -302 -213l-146 43q39 150 154 231.5t296 81.5q152 0 258.5 -57.5t149.5 -164.5q33 -79 33 -228
v-687h-134v182q-64 -104 -172 -158.5t-249 -54.5zM477 99q154 0 253 81t121 210q14 63 14 176q-335 -39 -441 -68q-192 -57 -192 -201q0 -81 60.5 -139.5t184.5 -58.5z" />
    <glyph glyph-name="atilde" unicode="&#xe3;" horiz-adv-x="1137" 
d="M749 1282q-49 0 -107 29t-110 58t-85 29q-37 0 -50.5 -32t0.5 -67h-106q-24 93 18 156.5t131 63.5q50 0 108 -29t109.5 -58t84.5 -29q35 0 49.5 30t2.5 71h106q24 -93 -18 -157.5t-133 -64.5zM460 -31q-180 0 -279 94t-99 234q0 246 282 321q126 30 503 79
q-2 154 -70.5 225.5t-224.5 71.5q-241 0 -302 -213l-146 43q39 150 154 231.5t296 81.5q152 0 258.5 -57.5t149.5 -164.5q33 -79 33 -228v-687h-134v182q-64 -104 -172 -158.5t-249 -54.5zM477 99q154 0 253 81t121 210q14 63 14 176q-335 -39 -441 -68q-192 -57 -192 -201
q0 -81 60.5 -139.5t184.5 -58.5z" />
    <glyph glyph-name="adieresis" unicode="&#xe4;" horiz-adv-x="1137" 
d="M787 1299q-45 0 -75 30.5t-30 74.5t30 74t75 30q44 0 74.5 -30t30.5 -74t-30.5 -74.5t-74.5 -30.5zM397 1299q-44 0 -74 30.5t-30 74.5t30 74t74 30t74.5 -30t30.5 -74t-30.5 -74.5t-74.5 -30.5zM460 -31q-180 0 -279 94t-99 234q0 246 282 321q126 30 503 79
q-2 154 -70.5 225.5t-224.5 71.5q-241 0 -302 -213l-146 43q39 150 154 231.5t296 81.5q152 0 258.5 -57.5t149.5 -164.5q33 -79 33 -228v-687h-134v182q-64 -104 -172 -158.5t-249 -54.5zM477 99q154 0 253 81t121 210q14 63 14 176q-335 -39 -441 -68q-192 -57 -192 -201
q0 -81 60.5 -139.5t184.5 -58.5z" />
    <glyph glyph-name="aring" unicode="&#xe5;" horiz-adv-x="1137" 
d="M584 1226q-93 0 -159 65.5t-66 158.5q0 92 66.5 158t158.5 66q93 0 158.5 -65.5t65.5 -158.5t-65 -158.5t-159 -65.5zM584 1337q47 0 79.5 33.5t32.5 79.5q0 47 -32.5 80t-79.5 33q-46 0 -79.5 -33.5t-33.5 -79.5t33.5 -79.5t79.5 -33.5zM460 -31q-180 0 -279 94t-99 234
q0 246 282 321q126 30 503 79q-2 154 -70.5 225.5t-224.5 71.5q-241 0 -302 -213l-146 43q39 150 154 231.5t296 81.5q152 0 258.5 -57.5t149.5 -164.5q33 -79 33 -228v-687h-134v182q-64 -104 -172 -158.5t-249 -54.5zM477 99q154 0 253 81t121 210q14 63 14 176
q-335 -39 -441 -68q-192 -57 -192 -201q0 -81 60.5 -139.5t184.5 -58.5z" />
    <glyph glyph-name="ae" unicode="&#xe6;" horiz-adv-x="1929" 
d="M470 -31q-182 0 -285 88.5t-103 240.5q0 50 12.5 92.5t31 73.5t50 56t59.5 41.5t69.5 29.5t70 19.5t72 11.5t63.5 6.5t56 3.5l300 10q12 352 -289 352q-116 0 -198.5 -49t-111.5 -153l-143 44q39 141 162 221t292 80q287 0 390 -209q65 100 167 154.5t234 54.5
q237 0 360.5 -170t116.5 -456h-824q8 -185 96.5 -291t247.5 -106q109 0 193.5 53.5t132.5 159.5l133 -55q-61 -145 -181 -224t-273 -79q-152 0 -264 71.5t-173 199.5q-67 -143 -189 -207t-275 -64zM1366 998q-153 0 -238.5 -95.5t-102.5 -262.5h671q-35 358 -330 358z
M477 99q116 0 209 53t134 138q44 86 46 234l-280 -9q-36 -1 -59 -2.5t-64 -7t-68.5 -13.5t-61 -24t-53.5 -38t-34 -55t-14 -75q0 -95 65 -148t180 -53z" />
    <glyph glyph-name="ccedilla" unicode="&#xe7;" horiz-adv-x="1133" 
d="M552 -492q-62 0 -130 32l39 105q52 -19 79 -19q38 0 61 24t23 56q0 18 -8.5 33t-18.5 24.5t-33 19.5t-35 14l-42 14l59 160q-220 20 -340.5 177.5t-123.5 404.5q3 266 140 425t381 159q167 0 292 -82.5t171 -224.5l-147 -47q-39 98 -123.5 153.5t-193.5 55.5
q-177 0 -267.5 -118.5t-92.5 -320.5q2 -204 94 -321.5t266 -117.5q228 0 312 202l152 -45q-57 -135 -162 -211.5t-248 -88.5l-33 -93q123 -56 123 -176q0 -82 -57 -138t-137 -56z" />
    <glyph glyph-name="egrave" unicode="&#xe8;" horiz-adv-x="1197" 
d="M587 1597l71 -317h-103l-122 317h154zM611 -31q-242 0 -385.5 158t-143.5 421q0 271 141.5 430t381.5 159q246 0 381.5 -167t127.5 -459h-871q10 -190 103.5 -293.5t258.5 -103.5q118 0 206.5 54.5t140.5 158.5l141 -55q-66 -144 -193 -223.5t-289 -79.5zM609 998
q-159 0 -252 -93t-111 -268h710q-36 361 -347 361z" />
    <glyph glyph-name="eacute" unicode="&#xe9;" horiz-adv-x="1197" 
d="M660 1597h154l-122 -317h-103zM611 -31q-242 0 -385.5 158t-143.5 421q0 271 141.5 430t381.5 159q246 0 381.5 -167t127.5 -459h-871q10 -190 103.5 -293.5t258.5 -103.5q118 0 206.5 54.5t140.5 158.5l141 -55q-66 -144 -193 -223.5t-289 -79.5zM609 998
q-159 0 -252 -93t-111 -268h710q-36 361 -347 361z" />
    <glyph glyph-name="ecircumflex" unicode="&#xea;" horiz-adv-x="1197" 
d="M300 1280l235 276h139l234 -276h-153l-151 177l-150 -177h-154zM611 -31q-242 0 -385.5 158t-143.5 421q0 271 141.5 430t381.5 159q246 0 381.5 -167t127.5 -459h-871q10 -190 103.5 -293.5t258.5 -103.5q118 0 206.5 54.5t140.5 158.5l141 -55q-66 -144 -193 -223.5
t-289 -79.5zM609 998q-159 0 -252 -93t-111 -268h710q-36 361 -347 361z" />
    <glyph glyph-name="edieresis" unicode="&#xeb;" horiz-adv-x="1197" 
d="M800 1299q-44 0 -74.5 30.5t-30.5 74.5t30.5 74t74.5 30t74.5 -30t30.5 -74t-30.5 -74.5t-74.5 -30.5zM411 1299q-45 0 -75.5 30.5t-30.5 74.5t30.5 74t75.5 30q44 0 74 -30t30 -74t-30 -74.5t-74 -30.5zM611 -31q-242 0 -385.5 158t-143.5 421q0 271 141.5 430
t381.5 159q246 0 381.5 -167t127.5 -459h-871q10 -190 103.5 -293.5t258.5 -103.5q118 0 206.5 54.5t140.5 158.5l141 -55q-66 -144 -193 -223.5t-289 -79.5zM609 998q-159 0 -252 -93t-111 -268h710q-36 361 -347 361z" />
    <glyph glyph-name="igrave" unicode="&#xec;" horiz-adv-x="478" 
d="M203 1597l71 -317h-102l-123 317h154zM164 0v1106h150v-1106h-150z" />
    <glyph glyph-name="iacute" unicode="&#xed;" horiz-adv-x="478" 
d="M275 1597h153l-122 -317h-103zM164 0v1106h150v-1106h-150z" />
    <glyph glyph-name="icircumflex" unicode="&#xee;" horiz-adv-x="478" 
d="M-60 1280l235 276h139l235 -276h-154l-150 177l-152 -177h-153zM164 0v1106h150v-1106h-150z" />
    <glyph glyph-name="idieresis" unicode="&#xef;" horiz-adv-x="478" 
d="M433 1299q-44 0 -74 30.5t-30 74.5t30 74t74 30t75 -30.5t31 -73.5q0 -44 -31 -74.5t-75 -30.5zM44 1299q-45 0 -75 30.5t-30 74.5t30 74t75 30q44 0 74 -30t30 -74t-30 -74.5t-74 -30.5zM164 0v1106h150v-1106h-150z" />
    <glyph glyph-name="eth" unicode="&#xf0;" horiz-adv-x="1192" 
d="M597 -31q-235 -2 -374 147.5t-141 398.5q2 251 141 400t374 147q104 2 197.5 -37t162.5 -115q-29 248 -212 381l-113 -139l-95 80l98 120q-84 34 -183 42l20 126q140 -8 252 -59l115 142l96 -81l-102 -125q89 -67 147 -171q75 -119 103 -274.5t28 -432.5
q0 -252 -139 -402t-375 -148zM597 109q173 0 266 108.5t93 299.5t-95 299.5t-264 106.5q-172 2 -266 -107t-94 -300q0 -194 93.5 -300.5t266.5 -106.5z" />
    <glyph glyph-name="ntilde" unicode="&#xf1;" 
d="M763 1282q-49 0 -107.5 29t-109.5 58t-84 29q-37 0 -50 -30.5t-1 -68.5h-107q-24 93 18.5 156.5t131.5 63.5q39 0 85 -18t80 -40t72.5 -40t65.5 -18q35 0 49 30t1 71h106q24 -93 -18 -157.5t-132 -64.5zM142 0v1106h137v-154q124 182 371 182q96 0 173 -31t127 -82
t83 -120.5t47 -142t14 -150.5v-608h-152v564q0 94 -18 170t-55 134t-100 90t-147 32q-158 0 -243 -105.5t-85 -294.5v-590h-152z" />
    <glyph glyph-name="ograve" unicode="&#xf2;" horiz-adv-x="1211" 
d="M563 1597l72 -317h-103l-122 317h153zM605 -31q-243 0 -383 161.5t-140 423.5q0 263 141 423t382 160q163 0 282.5 -74.5t180.5 -205.5t61 -303q0 -264 -140.5 -424.5t-383.5 -160.5zM605 114q179 0 272 119t93 321q0 205 -93 321.5t-272 116.5q-180 0 -271.5 -118.5
t-91.5 -319.5q0 -204 93.5 -322t269.5 -118z" />
    <glyph glyph-name="oacute" unicode="&#xf3;" horiz-adv-x="1211" 
d="M638 1597h154l-122 -317h-104zM605 -31q-243 0 -383 161.5t-140 423.5q0 263 141 423t382 160q163 0 282.5 -74.5t180.5 -205.5t61 -303q0 -264 -140.5 -424.5t-383.5 -160.5zM605 114q179 0 272 119t93 321q0 205 -93 321.5t-272 116.5q-180 0 -271.5 -118.5
t-91.5 -319.5q0 -204 93.5 -322t269.5 -118z" />
    <glyph glyph-name="ocircumflex" unicode="&#xf4;" horiz-adv-x="1211" 
d="M300 1280l236 276h139l234 -276h-153l-151 177l-151 -177h-154zM605 -31q-243 0 -383 161.5t-140 423.5q0 263 141 423t382 160q163 0 282.5 -74.5t180.5 -205.5t61 -303q0 -264 -140.5 -424.5t-383.5 -160.5zM605 114q179 0 272 119t93 321q0 205 -93 321.5t-272 116.5
q-180 0 -271.5 -118.5t-91.5 -319.5q0 -204 93.5 -322t269.5 -118z" />
    <glyph glyph-name="otilde" unicode="&#xf5;" horiz-adv-x="1211" 
d="M761 1282q-49 0 -107.5 29t-109.5 58t-84 29q-37 0 -50 -30.5t-1 -68.5h-107q-24 93 18.5 156.5t131.5 63.5q39 0 85 -18t80 -40t72.5 -40t65.5 -18q35 0 49 30t1 71h106q24 -93 -18 -157.5t-132 -64.5zM605 -31q-243 0 -383 161.5t-140 423.5q0 263 141 423t382 160
q163 0 282.5 -74.5t180.5 -205.5t61 -303q0 -264 -140.5 -424.5t-383.5 -160.5zM605 114q179 0 272 119t93 321q0 205 -93 321.5t-272 116.5q-180 0 -271.5 -118.5t-91.5 -319.5q0 -204 93.5 -322t269.5 -118z" />
    <glyph glyph-name="odieresis" unicode="&#xf6;" horiz-adv-x="1211" 
d="M801 1299q-44 0 -74.5 30.5t-30.5 74.5t30.5 74t74.5 30t74 -30t30 -74t-30 -74.5t-74 -30.5zM411 1299q-44 0 -74.5 30.5t-30.5 74.5t30.5 74t74.5 30t74.5 -30t30.5 -74t-30.5 -74.5t-74.5 -30.5zM605 -31q-243 0 -383 161.5t-140 423.5q0 263 141 423t382 160
q163 0 282.5 -74.5t180.5 -205.5t61 -303q0 -264 -140.5 -424.5t-383.5 -160.5zM605 114q179 0 272 119t93 321q0 205 -93 321.5t-272 116.5q-180 0 -271.5 -118.5t-91.5 -319.5q0 -204 93.5 -322t269.5 -118z" />
    <glyph glyph-name="divide" unicode="&#xf7;" horiz-adv-x="1167" 
d="M586 976q-43 0 -72.5 29t-29.5 71q0 43 29.5 72.5t72.5 29.5t72 -29.5t29 -72.5q0 -42 -29 -71t-72 -29zM116 673v129h936v-129h-936zM586 301q-43 0 -72.5 29.5t-29.5 71.5q0 43 29.5 72.5t72.5 29.5t72 -29.5t29 -72.5q0 -42 -29 -71.5t-72 -29.5z" />
    <glyph glyph-name="oslash" unicode="&#xf8;" horiz-adv-x="1211" 
d="M143 -10l-102 102l122 122q-81 142 -81 340q0 263 141 423t382 160q216 0 353 -129l110 108l102 -101l-121 -121q80 -140 80 -340q0 -264 -140.5 -424.5t-383.5 -160.5q-216 0 -352 130zM242 554q0 -134 42 -233l576 574q-94 97 -255 97q-180 0 -271.5 -118.5
t-91.5 -319.5zM605 114q179 0 272 119t93 321q0 137 -41 234l-577 -576q93 -98 253 -98z" />
    <glyph glyph-name="ugrave" unicode="&#xf9;" 
d="M583 1597l71 -317h-102l-123 317h154zM566 -28q-96 0 -173 31t-126.5 82t-82.5 120.5t-47 142t-14 150.5v608h151v-564q0 -127 31 -219.5t104.5 -149.5t185.5 -57q158 0 243 105.5t85 294.5v590h150v-1106h-135v154q-61 -89 -156.5 -135.5t-215.5 -46.5z" />
    <glyph glyph-name="uacute" unicode="&#xfa;" 
d="M626 1597h152l-122 -317h-103zM566 -28q-96 0 -173 31t-126.5 82t-82.5 120.5t-47 142t-14 150.5v608h151v-564q0 -127 31 -219.5t104.5 -149.5t185.5 -57q158 0 243 105.5t85 294.5v590h150v-1106h-135v154q-61 -89 -156.5 -135.5t-215.5 -46.5z" />
    <glyph glyph-name="ucircumflex" unicode="&#xfb;" 
d="M292 1280l234 276h140l234 -276h-154l-150 177l-151 -177h-153zM566 -28q-96 0 -173 31t-126.5 82t-82.5 120.5t-47 142t-14 150.5v608h151v-564q0 -127 31 -219.5t104.5 -149.5t185.5 -57q158 0 243 105.5t85 294.5v590h150v-1106h-135v154q-61 -89 -156.5 -135.5
t-215.5 -46.5z" />
    <glyph glyph-name="udieresis" unicode="&#xfc;" 
d="M792 1299q-44 0 -74.5 30.5t-30.5 74.5t30.5 74t74.5 30t74.5 -30t30.5 -74t-30.5 -74.5t-74.5 -30.5zM402 1299q-45 0 -75 30.5t-30 74.5t30 74t75 30q44 0 74.5 -30t30.5 -74t-30.5 -74.5t-74.5 -30.5zM566 -28q-96 0 -173 31t-126.5 82t-82.5 120.5t-47 142t-14 150.5
v608h151v-564q0 -127 31 -219.5t104.5 -149.5t185.5 -57q158 0 243 105.5t85 294.5v590h150v-1106h-135v154q-61 -89 -156.5 -135.5t-215.5 -46.5z" />
    <glyph glyph-name="yacute" unicode="&#xfd;" horiz-adv-x="1080" 
d="M573 1597h153l-122 -317h-103zM301 -492l182 494l-449 1104h160l362 -909l336 909h154l-594 -1598h-151z" />
    <glyph glyph-name="thorn" unicode="&#xfe;" horiz-adv-x="1212" 
d="M142 -492v1598h1v369h151v-499q129 161 352 161q148 0 259 -77t168 -208.5t57 -297.5q0 -167 -57 -298.5t-169.5 -209t-263.5 -77.5q-217 0 -346 163v-624h-152zM625 110q112 0 191 59t117 158t38 227q0 197 -89 319.5t-260 122.5q-168 0 -256 -120t-88 -322
q0 -131 37 -229t116 -156.5t194 -58.5z" />
    <glyph glyph-name="ydieresis" unicode="&#xff;" horiz-adv-x="1080" 
d="M744 1299q-44 0 -74 30.5t-30 74.5t30 74t74 30t75 -30.5t31 -73.5q0 -44 -31 -74.5t-75 -30.5zM355 1299q-45 0 -75 30.5t-30 74.5t30 74t75 30q44 0 74.5 -30t30.5 -74t-30.5 -74.5t-74.5 -30.5zM301 -492l182 494l-449 1104h160l362 -909l336 909h154l-594 -1598h-151
z" />
    <glyph glyph-name="Amacron" unicode="&#x100;" horiz-adv-x="1297" 
d="M393 1720v128h513v-128h-513zM41 0l508 1475h200l507 -1475h-156l-124 357h-654l-124 -357h-157zM370 499h557l-280 807z" />
    <glyph glyph-name="amacron" unicode="&#x101;" horiz-adv-x="1137" 
d="M357 1352v128h513v-128h-513zM460 -31q-180 0 -279 94t-99 234q0 246 282 321q126 30 503 79q-2 154 -70.5 225.5t-224.5 71.5q-241 0 -302 -213l-146 43q39 150 154 231.5t296 81.5q152 0 258.5 -57.5t149.5 -164.5q33 -79 33 -228v-687h-134v182q-64 -104 -172 -158.5
t-249 -54.5zM477 99q154 0 253 81t121 210q14 63 14 176q-335 -39 -441 -68q-192 -57 -192 -201q0 -81 60.5 -139.5t184.5 -58.5z" />
    <glyph glyph-name="Abreve" unicode="&#x102;" horiz-adv-x="1297" 
d="M650 1606q-110 0 -187 77t-77 187h125q0 -58 40.5 -98.5t98.5 -40.5t99 40.5t41 98.5h124q0 -109 -77.5 -186.5t-186.5 -77.5zM41 0l508 1475h200l507 -1475h-156l-124 357h-654l-124 -357h-157zM370 499h557l-280 807z" />
    <glyph glyph-name="abreve" unicode="&#x103;" horiz-adv-x="1137" 
d="M585 1237q-109 0 -186.5 77.5t-77.5 186.5h124q0 -58 41 -98.5t99 -40.5t98.5 40.5t40.5 98.5h125q0 -109 -77.5 -186.5t-186.5 -77.5zM460 -31q-180 0 -279 94t-99 234q0 246 282 321q126 30 503 79q-2 154 -70.5 225.5t-224.5 71.5q-241 0 -302 -213l-146 43
q39 150 154 231.5t296 81.5q152 0 258.5 -57.5t149.5 -164.5q33 -79 33 -228v-687h-134v182q-64 -104 -172 -158.5t-249 -54.5zM477 99q154 0 253 81t121 210q14 63 14 176q-335 -39 -441 -68q-192 -57 -192 -201q0 -81 60.5 -139.5t184.5 -58.5z" />
    <glyph glyph-name="Aogonek" unicode="&#x104;" horiz-adv-x="1297" 
d="M41 0l508 1475h200l507 -1475q-96 -59 -163.5 -140.5t-67.5 -145.5q0 -37 23 -61.5t55 -24.5q46 0 94 50l66 -80q-71 -92 -173 -92q-81 0 -138.5 60t-57.5 140q0 78 53.5 163t143.5 159l-115 329h-654l-124 -357h-157zM370 499h557l-280 807z" />
    <glyph glyph-name="aogonek" unicode="&#x105;" horiz-adv-x="1137" 
d="M460 -31q-180 0 -279 94t-99 234q0 246 282 321q126 30 503 79q-2 154 -70.5 225.5t-224.5 71.5q-241 0 -302 -213l-146 43q39 150 154 231.5t296 81.5q152 0 258.5 -57.5t149.5 -164.5q33 -79 33 -228v-687q-97 -59 -164.5 -140.5t-67.5 -145.5q0 -37 23 -61.5t55 -24.5
q46 0 94 50l66 -80q-71 -92 -173 -92q-81 0 -138.5 60t-57.5 140q0 85 63 177t166 170v129q-64 -104 -172 -158.5t-249 -54.5zM477 99q154 0 253 81t121 210q14 63 14 176q-335 -39 -441 -68q-192 -57 -192 -201q0 -81 60.5 -139.5t184.5 -58.5z" />
    <glyph glyph-name="Cacute" unicode="&#x106;" horiz-adv-x="1465" 
d="M787 1966h154l-122 -317h-103zM740 -31q-216 0 -370.5 98t-231.5 269.5t-77 400.5t77 400.5t231.5 269.5t370.5 98q251 0 416 -128.5t227 -355.5l-153 -40q-48 179 -172.5 279.5t-317.5 100.5q-252 0 -385 -169t-135 -455q-1 -187 56 -325.5t176 -218t288 -79.5
q193 0 317.5 100.5t172.5 279.5l153 -40q-62 -227 -227 -356t-416 -129z" />
    <glyph glyph-name="cacute" unicode="&#x107;" horiz-adv-x="1133" 
d="M651 1597h153l-122 -317h-103zM602 -31q-245 0 -381 160.5t-139 423.5q3 266 140 425t381 159q167 0 292 -82.5t171 -224.5l-147 -47q-39 98 -123.5 153.5t-193.5 55.5q-177 0 -267.5 -118.5t-92.5 -320.5q2 -204 94 -321.5t266 -117.5q228 0 312 202l152 -45
q-62 -148 -181 -225t-283 -77z" />
    <glyph glyph-name="Ccircumflex" unicode="&#x108;" horiz-adv-x="1465" 
d="M435 1649l236 276h139l234 -276h-153l-151 177l-151 -177h-154zM740 -31q-216 0 -370.5 98t-231.5 269.5t-77 400.5t77 400.5t231.5 269.5t370.5 98q251 0 416 -128.5t227 -355.5l-153 -40q-48 179 -172.5 279.5t-317.5 100.5q-252 0 -385 -169t-135 -455
q-1 -187 56 -325.5t176 -218t288 -79.5q193 0 317.5 100.5t172.5 279.5l153 -40q-62 -227 -227 -356t-416 -129z" />
    <glyph glyph-name="ccircumflex" unicode="&#x109;" horiz-adv-x="1133" 
d="M300 1280l236 276h139l234 -276h-153l-151 177l-151 -177h-154zM602 -31q-245 0 -381 160.5t-139 423.5q3 266 140 425t381 159q167 0 292 -82.5t171 -224.5l-147 -47q-39 98 -123.5 153.5t-193.5 55.5q-177 0 -267.5 -118.5t-92.5 -320.5q2 -204 94 -321.5t266 -117.5
q228 0 312 202l152 -45q-62 -148 -181 -225t-283 -77z" />
    <glyph glyph-name="Cdotaccent" unicode="&#x10a;" horiz-adv-x="1465" 
d="M758 1693q-45 0 -75.5 30t-30.5 74t30.5 74.5t75.5 30.5q44 0 74 -30.5t30 -74.5t-30 -74t-74 -30zM740 -31q-216 0 -370.5 98t-231.5 269.5t-77 400.5t77 400.5t231.5 269.5t370.5 98q251 0 416 -128.5t227 -355.5l-153 -40q-48 179 -172.5 279.5t-317.5 100.5
q-252 0 -385 -169t-135 -455q-1 -187 56 -325.5t176 -218t288 -79.5q193 0 317.5 100.5t172.5 279.5l153 -40q-62 -227 -227 -356t-416 -129z" />
    <glyph glyph-name="cdotaccent" unicode="&#x10b;" horiz-adv-x="1133" 
d="M622 1324q-44 0 -74.5 30t-30.5 74t30.5 74.5t74.5 30.5t74 -30.5t30 -74.5t-30 -74t-74 -30zM602 -31q-245 0 -381 160.5t-139 423.5q3 266 140 425t381 159q167 0 292 -82.5t171 -224.5l-147 -47q-39 98 -123.5 153.5t-193.5 55.5q-177 0 -267.5 -118.5t-92.5 -320.5
q2 -204 94 -321.5t266 -117.5q228 0 312 202l152 -45q-62 -148 -181 -225t-283 -77z" />
    <glyph glyph-name="Ccaron" unicode="&#x10c;" horiz-adv-x="1465" 
d="M474 1925h154l151 -177l151 177h153l-234 -276h-139zM740 -31q-216 0 -370.5 98t-231.5 269.5t-77 400.5t77 400.5t231.5 269.5t370.5 98q251 0 416 -128.5t227 -355.5l-153 -40q-48 179 -172.5 279.5t-317.5 100.5q-252 0 -385 -169t-135 -455q-1 -187 56 -325.5
t176 -218t288 -79.5q193 0 317.5 100.5t172.5 279.5l153 -40q-62 -227 -227 -356t-416 -129z" />
    <glyph glyph-name="ccaron" unicode="&#x10d;" horiz-adv-x="1133" 
d="M298 1556h154l150 -177l151 177h153l-234 -276h-140zM602 -31q-245 0 -381 160.5t-139 423.5q3 266 140 425t381 159q167 0 292 -82.5t171 -224.5l-147 -47q-39 98 -123.5 153.5t-193.5 55.5q-177 0 -267.5 -118.5t-92.5 -320.5q2 -204 94 -321.5t266 -117.5
q228 0 312 202l152 -45q-62 -148 -181 -225t-283 -77z" />
    <glyph glyph-name="Dcaron" unicode="&#x10e;" horiz-adv-x="1375" 
d="M299 1925h154l150 -177l152 177h153l-235 -276h-139zM143 0v1475h448q110 0 189 -10q163 -22 279 -125t171.5 -257.5t55.5 -345.5q0 -192 -55.5 -346t-171.5 -257t-279 -125q-69 -9 -189 -9h-448zM299 144h292q106 0 174 13q94 16 164.5 67.5t113 129.5t63 174t20.5 209
q0 114 -21 210.5t-63.5 174.5t-112.5 129t-164 67q-63 12 -174 12h-292v-1186z" />
    <glyph glyph-name="dcaron" unicode="&#x10f;" horiz-adv-x="1470" 
d="M1345 1488h150l-143 -492h-103zM572 -31q-151 0 -263.5 77.5t-169.5 209t-57 298.5q0 166 57 297.5t168 208.5t259 77q225 0 353 -162v500h151v-1475h-135v154q-129 -185 -363 -185zM588 110q115 0 194 58.5t116 156.5t37 229q0 202 -88 322t-256 120q-171 0 -260 -122.5
t-89 -319.5q0 -128 38 -227t117 -158t191 -59z" />
    <glyph glyph-name="Dcroat" unicode="&#x110;" horiz-adv-x="1362" 
d="M131 0v673h-111v129h111v673h448q110 0 189 -10q163 -22 279 -125t171.5 -257.5t55.5 -345.5q0 -192 -55.5 -346t-171.5 -257t-279 -125q-69 -9 -189 -9h-448zM287 144h292q106 0 174 13q94 16 164.5 67.5t113 129.5t63 174t20.5 209q0 114 -21 210.5t-63.5 174.5
t-112.5 129t-164 67q-63 12 -174 12h-292v-528h379v-129h-379v-529z" />
    <glyph glyph-name="dcroat" unicode="&#x111;" horiz-adv-x="1213" 
d="M572 -31q-151 0 -263.5 77.5t-169.5 209t-57 298.5q0 166 57 297.5t168 208.5t259 77q225 0 353 -162v240h-220v128h220v132h151v-132h143v-128h-143v-1215h-135v154q-129 -185 -363 -185zM588 110q115 0 194 58.5t116 156.5t37 229q0 202 -88 322t-256 120
q-171 0 -260 -122.5t-89 -319.5q0 -128 38 -227t117 -158t191 -59z" />
    <glyph glyph-name="Emacron" unicode="&#x112;" horiz-adv-x="1167" 
d="M351 1720v128h513v-128h-513zM143 0v1475h922v-145h-771v-510h648v-144h-648v-532h771v-144h-922z" />
    <glyph glyph-name="emacron" unicode="&#x113;" horiz-adv-x="1197" 
d="M370 1352v128h513v-128h-513zM611 -31q-242 0 -385.5 158t-143.5 421q0 271 141.5 430t381.5 159q246 0 381.5 -167t127.5 -459h-871q10 -190 103.5 -293.5t258.5 -103.5q118 0 206.5 54.5t140.5 158.5l141 -55q-66 -144 -193 -223.5t-289 -79.5zM609 998
q-159 0 -252 -93t-111 -268h710q-36 361 -347 361z" />
    <glyph glyph-name="Edotaccent" unicode="&#x116;" horiz-adv-x="1167" 
d="M610 1693q-44 0 -74 30t-30 74t30 74.5t74 30.5t75 -30.5t31 -74.5q0 -43 -31 -73.5t-75 -30.5zM143 0v1475h922v-145h-771v-510h648v-144h-648v-532h771v-144h-922z" />
    <glyph glyph-name="edotaccent" unicode="&#x117;" horiz-adv-x="1197" 
d="M606 1324q-44 0 -74 30t-30 74t30 74.5t74 30.5t75 -30.5t31 -74.5q0 -43 -31 -73.5t-75 -30.5zM611 -31q-242 0 -385.5 158t-143.5 421q0 271 141.5 430t381.5 159q246 0 381.5 -167t127.5 -459h-871q10 -190 103.5 -293.5t258.5 -103.5q118 0 206.5 54.5t140.5 158.5
l141 -55q-66 -144 -193 -223.5t-289 -79.5zM609 998q-159 0 -252 -93t-111 -268h710q-36 361 -347 361z" />
    <glyph glyph-name="Eogonek" unicode="&#x118;" horiz-adv-x="1167" 
d="M143 0v1475h922v-145h-771v-510h648v-144h-648v-532h771v-144q-97 -59 -164.5 -140.5t-67.5 -145.5q0 -37 22.5 -61.5t54.5 -24.5q47 0 95 50l66 -80q-71 -92 -173 -92q-81 0 -139 60t-58 140q0 70 45 147t121 147h-724z" />
    <glyph glyph-name="eogonek" unicode="&#x119;" horiz-adv-x="1197" 
d="M611 -31q-242 0 -385.5 158t-143.5 421q0 271 141.5 430t381.5 159q246 0 381.5 -167t127.5 -459h-871q10 -190 103.5 -293.5t258.5 -103.5q118 0 206.5 54.5t140.5 158.5l141 -55q-7 -16 -29 -56q-37 -68 -121.5 -184t-87.5 -121q-64 -98 -81 -160q-16 -63 13 -93
q21 -22 50 -23.5t55 11t50 33.5l68 -81q-39 -47 -95 -72q-62 -25 -122.5 -11.5t-101.5 58.5q-38 41 -47.5 98.5t11.5 118.5q24 74 95 172q17 23 23 30q-84 -23 -162 -23zM609 998q-159 0 -252 -93t-111 -268h710q-36 361 -347 361z" />
    <glyph glyph-name="Ecaron" unicode="&#x11a;" horiz-adv-x="1167" 
d="M306 1925h154l150 -177l151 177h153l-234 -276h-139zM143 0v1475h922v-145h-771v-510h648v-144h-648v-532h771v-144h-922z" />
    <glyph glyph-name="ecaron" unicode="&#x11b;" horiz-adv-x="1197" 
d="M300 1556h154l150 -177l151 177h153l-234 -276h-139zM611 -31q-242 0 -385.5 158t-143.5 421q0 271 141.5 430t381.5 159q246 0 381.5 -167t127.5 -459h-871q10 -190 103.5 -293.5t258.5 -103.5q118 0 206.5 54.5t140.5 158.5l141 -55q-66 -144 -193 -223.5t-289 -79.5z
M609 998q-159 0 -252 -93t-111 -268h710q-36 361 -347 361z" />
    <glyph glyph-name="Gcircumflex" unicode="&#x11c;" horiz-adv-x="1443" 
d="M415 1649l234 276h139l235 -276h-154l-150 177l-151 -177h-153zM734 -31q-312 0 -492.5 208t-180.5 560q0 351 179.5 559t493.5 208q228 0 376 -104.5t209 -287.5l-152 -37q-51 132 -160 208t-267 76q-252 1 -384.5 -167t-134.5 -455q-2 -284 132 -453t387 -170
q231 -1 350 132.5t131 376.5h-470v129h627q4 -43 4 -87q0 -151 -41 -277t-120 -220t-203.5 -146.5t-283.5 -52.5z" />
    <glyph glyph-name="gcircumflex" unicode="&#x11d;" horiz-adv-x="1212" 
d="M285 1280l235 276h139l235 -276h-154l-150 177l-152 -177h-153zM572 -31q-151 0 -263.5 77.5t-169.5 209t-57 298.5q0 166 57 297.5t168 208.5t259 77q239 0 369 -183v152h134v-1091q0 -101 -12 -176q-58 -361 -474 -361q-136 0 -253 60t-184 183l137 76q43 -87 124 -130
t176 -43q177 0 256.5 97t78.5 296v114q-128 -162 -346 -162zM588 110q115 0 194 58.5t116 156.5t37 229q0 202 -88 322t-256 120q-171 0 -260 -122.5t-89 -319.5q0 -128 38 -227t117 -158t191 -59z" />
    <glyph glyph-name="Gbreve" unicode="&#x11e;" horiz-adv-x="1443" 
d="M740 1606q-110 0 -187 77t-77 187h125q0 -58 40.5 -98.5t98.5 -40.5t99 40.5t41 98.5h125q0 -109 -78 -186.5t-187 -77.5zM734 -31q-312 0 -492.5 208t-180.5 560q0 351 179.5 559t493.5 208q228 0 376 -104.5t209 -287.5l-152 -37q-51 132 -160 208t-267 76
q-252 1 -384.5 -167t-134.5 -455q-2 -284 132 -453t387 -170q231 -1 350 132.5t131 376.5h-470v129h627q4 -43 4 -87q0 -151 -41 -277t-120 -220t-203.5 -146.5t-283.5 -52.5z" />
    <glyph glyph-name="gbreve" unicode="&#x11f;" horiz-adv-x="1212" 
d="M648 1237q-110 0 -187 77.5t-77 186.5h125q0 -58 40.5 -98.5t98.5 -40.5t98.5 40.5t40.5 98.5h125q0 -109 -77.5 -186.5t-186.5 -77.5zM572 -31q-151 0 -263.5 77.5t-169.5 209t-57 298.5q0 166 57 297.5t168 208.5t259 77q239 0 369 -183v152h134v-1091q0 -101 -12 -176
q-58 -361 -474 -361q-136 0 -253 60t-184 183l137 76q43 -87 124 -130t176 -43q177 0 256.5 97t78.5 296v114q-128 -162 -346 -162zM588 110q115 0 194 58.5t116 156.5t37 229q0 202 -88 322t-256 120q-171 0 -260 -122.5t-89 -319.5q0 -128 38 -227t117 -158t191 -59z" />
    <glyph glyph-name="Gdotaccent" unicode="&#x120;" horiz-adv-x="1443" 
d="M756 1693q-44 0 -74.5 30t-30.5 74t30.5 74.5t74.5 30.5t74.5 -30.5t30.5 -74.5t-30.5 -74t-74.5 -30zM734 -31q-312 0 -492.5 208t-180.5 560q0 351 179.5 559t493.5 208q228 0 376 -104.5t209 -287.5l-152 -37q-51 132 -160 208t-267 76q-252 1 -384.5 -167
t-134.5 -455q-2 -284 132 -453t387 -170q231 -1 350 132.5t131 376.5h-470v129h627q4 -43 4 -87q0 -151 -41 -277t-120 -220t-203.5 -146.5t-283.5 -52.5z" />
    <glyph glyph-name="gdotaccent" unicode="&#x121;" horiz-adv-x="1212" 
d="M643 1324q-44 0 -74 30t-30 74t30 74.5t74 30.5t75 -30.5t31 -74.5q0 -43 -31 -73.5t-75 -30.5zM572 -31q-151 0 -263.5 77.5t-169.5 209t-57 298.5q0 166 57 297.5t168 208.5t259 77q239 0 369 -183v152h134v-1091q0 -101 -12 -176q-58 -361 -474 -361q-136 0 -253 60
t-184 183l137 76q43 -87 124 -130t176 -43q177 0 256.5 97t78.5 296v114q-128 -162 -346 -162zM588 110q115 0 194 58.5t116 156.5t37 229q0 202 -88 322t-256 120q-171 0 -260 -122.5t-89 -319.5q0 -128 38 -227t117 -158t191 -59z" />
    <glyph glyph-name="uni0122" unicode="&#x122;" horiz-adv-x="1443" 
d="M734 -31q-312 0 -492.5 208t-180.5 560q0 351 179.5 559t493.5 208q228 0 376 -104.5t209 -287.5l-152 -37q-51 132 -160 208t-267 76q-252 1 -384.5 -167t-134.5 -455q-2 -284 132 -453t387 -170q231 -1 350 132.5t131 376.5h-470v129h627q4 -43 4 -87q0 -151 -41 -277
t-120 -220t-203.5 -146.5t-283.5 -52.5zM696 -215h154l-123 -317h-102z" />
    <glyph glyph-name="uni0123" unicode="&#x123;" horiz-adv-x="1212" 
d="M674 1332h-154l123 318h102zM572 -31q-151 0 -263.5 77.5t-169.5 209t-57 298.5q0 166 57 297.5t168 208.5t259 77q239 0 369 -183v152h134v-1091q0 -101 -12 -176q-58 -361 -474 -361q-136 0 -253 60t-184 183l137 76q43 -87 124 -130t176 -43q177 0 256.5 97t78.5 296
v114q-128 -162 -346 -162zM588 110q115 0 194 58.5t116 156.5t37 229q0 202 -88 322t-256 120q-171 0 -260 -122.5t-89 -319.5q0 -128 38 -227t117 -158t191 -59z" />
    <glyph glyph-name="Hcircumflex" unicode="&#x124;" horiz-adv-x="1401" 
d="M395 1649l235 276h139l236 -276h-154l-152 177l-150 -177h-154zM143 0v1475h151v-665h815v665h149v-1475h-149v666h-815v-666h-151z" />
    <glyph glyph-name="hcircumflex" unicode="&#x125;" 
d="M-95 1649l234 276h140l235 -276h-154l-151 177l-151 -177h-153zM142 0v1475h137v-523q124 182 371 182q96 0 173 -31t127 -82t83 -120.5t47 -142t14 -150.5v-608h-152v564q0 94 -18 170t-55 134t-100 90t-147 32q-158 0 -243 -105.5t-85 -294.5v-590h-152z" />
    <glyph glyph-name="Hbar" unicode="&#x126;" horiz-adv-x="1442" 
d="M164 0v1017h-144v144h144v314h150v-314h815v314h150v-314h143v-144h-143v-1017h-150v666h-815v-666h-150zM314 810h815v207h-815v-207z" />
    <glyph glyph-name="hbar" unicode="&#x127;" 
d="M142 0v1215h-130v128h130v132h137v-132h246v-128h-246v-263q124 182 371 182q96 0 173 -31t127 -82t83 -120.5t47 -142t14 -150.5v-608h-152v564q0 94 -18 170t-55 134t-100 90t-147 32q-158 0 -243 -105.5t-85 -294.5v-590h-152z" />
    <glyph glyph-name="Itilde" unicode="&#x128;" horiz-adv-x="478" 
d="M392 1651q-39 0 -84 18t-79 39.5t-72.5 39.5t-65.5 18q-37 0 -50.5 -31.5t0.5 -66.5h-107q-24 93 18.5 156t131.5 63q50 0 108 -28.5t109.5 -57.5t84.5 -29q35 0 49 29.5t2 71.5h107q24 -92 -18.5 -157t-133.5 -65zM164 0v1475h150v-1475h-150z" />
    <glyph glyph-name="itilde" unicode="&#x129;" horiz-adv-x="478" 
d="M392 1282q-49 0 -107 29t-109.5 58t-84.5 29q-37 0 -50.5 -32t0.5 -67h-107q-24 93 18.5 156.5t131.5 63.5q50 0 108.5 -29t109.5 -58t84 -29q35 0 49 29.5t2 71.5h107q24 -92 -18.5 -157t-133.5 -65zM164 0v1106h150v-1106h-150z" />
    <glyph glyph-name="Imacron" unicode="&#x12a;" horiz-adv-x="478" 
d="M-17 1720v128h513v-128h-513zM164 0v1475h150v-1475h-150z" />
    <glyph glyph-name="imacron" unicode="&#x12b;" horiz-adv-x="478" 
d="M-17 1352v128h513v-128h-513zM164 0v1106h150v-1106h-150z" />
    <glyph glyph-name="Iogonek" unicode="&#x12e;" horiz-adv-x="478" 
d="M146 -494q-81 0 -138 60t-57 140q0 82 58.5 170.5t154.5 164.5v1434h150v-1475q-97 -59 -164.5 -140.5t-67.5 -145.5q0 -37 23 -61.5t55 -24.5q46 0 94 50l67 -80q-72 -92 -175 -92z" />
    <glyph glyph-name="iogonek" unicode="&#x12f;" horiz-adv-x="478" 
d="M239 1296q-44 0 -74.5 30t-30.5 74t30.5 74t74.5 30t74.5 -30t30.5 -74t-30.5 -74t-74.5 -30zM146 -494q-81 0 -138 60t-57 140q0 82 58.5 170.5t154.5 164.5v1065h150v-1106q-97 -59 -164.5 -140.5t-67.5 -145.5q0 -37 23 -61.5t55 -24.5q46 0 94 50l67 -80
q-72 -92 -175 -92z" />
    <glyph glyph-name="Idotaccent" unicode="&#x130;" horiz-adv-x="478" 
d="M240 1693q-45 0 -75.5 30t-30.5 74t30.5 74.5t75.5 30.5q44 0 74 -30.5t30 -74.5t-30 -74t-74 -30zM164 0v1475h150v-1475h-150z" />
    <glyph glyph-name="dotlessi" unicode="&#x131;" horiz-adv-x="478" 
d="M164 0v1106h150v-1106h-150z" />
    <glyph glyph-name="Jcircumflex" unicode="&#x134;" horiz-adv-x="949" 
d="M402 1649l236 276h139l235 -276h-154l-150 177l-152 -177h-154zM395 -30q-147 0 -253 81.5t-142 219.5l151 36q19 -83 86.5 -137.5t156.5 -54.5q63 0 120 29t89 89q14 27 21 64.5t8 66.5t1 90v1021h151v-1021v-35.5v-34.5t-0.5 -30.5t-1 -31t-2.5 -28t-4.5 -29.5
t-6 -26.5t-8 -28t-11 -26t-14.5 -28.5q-53 -92 -142 -139t-199 -47z" />
    <glyph glyph-name="jcircumflex" unicode="&#x135;" horiz-adv-x="513" 
d="M-26 1280l235 276h139l236 -276h-154l-151 177l-151 -177h-154zM-20 -492v146h62q164 0 164 167v1285h149v-1323q0 -275 -268 -275h-107z" />
    <glyph glyph-name="uni0136" unicode="&#x136;" horiz-adv-x="1215" 
d="M143 0v1475h147v-722l678 722h191l-605 -649l661 -826h-193l-570 717l-162 -173v-544h-147zM589 -215h153l-121 -317h-104z" />
    <glyph glyph-name="uni0137" unicode="&#x137;" horiz-adv-x="1015" 
d="M142 0l1 1475h145v-850l509 481h187l-488 -469l515 -637h-180l-437 539l-106 -102v-437h-146zM504 -215h153l-122 -317h-103z" />
    <glyph glyph-name="Lacute" unicode="&#x139;" horiz-adv-x="1045" 
d="M275 1966h153l-122 -317h-103zM164 0v1475h150v-1331h701v-144h-851z" />
    <glyph glyph-name="lacute" unicode="&#x13a;" horiz-adv-x="478" 
d="M275 1966h153l-122 -317h-103zM164 0v1505h150v-1505h-150z" />
    <glyph glyph-name="uni013B" unicode="&#x13b;" horiz-adv-x="1045" 
d="M164 0v1475h150v-1331h701v-144h-851zM536 -215h153l-122 -317h-103z" />
    <glyph glyph-name="uni013C" unicode="&#x13c;" horiz-adv-x="478" 
d="M164 0v1505h150v-1505h-150zM185 -215h154l-122 -317h-103z" />
    <glyph glyph-name="Lcaron" unicode="&#x13d;" horiz-adv-x="1045" 
d="M724 1488h152l-144 -492h-103zM164 0v1475h150v-1331h701v-144h-851z" />
    <glyph glyph-name="lcaron" unicode="&#x13e;" horiz-adv-x="678" 
d="M164 0v1505h150v-1505h-150zM552 1488h151l-143 -492h-103z" />
    <glyph glyph-name="Lslash" unicode="&#x141;" horiz-adv-x="1058" 
d="M177 0v470l-91 -53v169l91 52v837h151v-751l363 209v-168l-363 -209v-412h700v-144h-851z" />
    <glyph glyph-name="lslash" unicode="&#x142;" horiz-adv-x="770" 
d="M310 0v627l-227 -132v169l227 130v711h151v-624l226 130v-168l-226 -130v-713h-151z" />
    <glyph glyph-name="Nacute" unicode="&#x143;" horiz-adv-x="1401" 
d="M754 1966h153l-123 -317h-102zM143 0v1475h152l812 -1209v1209h151v-1475h-151l-812 1209v-1209h-152z" />
    <glyph glyph-name="nacute" unicode="&#x144;" 
d="M666 1597h153l-122 -317h-103zM142 0v1106h137v-154q124 182 371 182q96 0 173 -31t127 -82t83 -120.5t47 -142t14 -150.5v-608h-152v564q0 94 -18 170t-55 134t-100 90t-147 32q-158 0 -243 -105.5t-85 -294.5v-590h-152z" />
    <glyph glyph-name="uni0145" unicode="&#x145;" horiz-adv-x="1401" 
d="M143 0v1475h152l812 -1209v1209h151v-1475h-151l-812 1209v-1209h-152zM669 -215h152l-122 -317h-103z" />
    <glyph glyph-name="uni0146" unicode="&#x146;" 
d="M142 0v1106h137v-154q124 182 371 182q96 0 173 -31t127 -82t83 -120.5t47 -142t14 -150.5v-608h-152v564q0 94 -18 170t-55 134t-100 90t-147 32q-158 0 -243 -105.5t-85 -294.5v-590h-152zM568 -215h153l-122 -317h-103z" />
    <glyph glyph-name="Ncaron" unicode="&#x147;" horiz-adv-x="1401" 
d="M421 1925h153l152 -177l151 177h153l-234 -276h-140zM143 0v1475h152l812 -1209v1209h151v-1475h-151l-812 1209v-1209h-152z" />
    <glyph glyph-name="ncaron" unicode="&#x148;" 
d="M307 1556h154l150 -177l152 177h153l-235 -276h-139zM142 0v1106h137v-154q124 182 371 182q96 0 173 -31t127 -82t83 -120.5t47 -142t14 -150.5v-608h-152v564q0 94 -18 170t-55 134t-100 90t-147 32q-158 0 -243 -105.5t-85 -294.5v-590h-152z" />
    <glyph glyph-name="Eng" unicode="&#x14a;" horiz-adv-x="1401" 
d="M1107 1475h151v-1664q0 -111 -50.5 -165t-155.5 -54q-54 0 -111 14v125q49 -6 69 -6q63 0 88.5 31.5t25.5 114.5q0 100 -68 206l-761 1132v-1209h-152v1475h152l812 -1209v1209z" />
    <glyph glyph-name="eng" unicode="&#x14b;" 
d="M142 0v1106h137v-154q124 182 371 182q96 0 173 -31t127 -82t83 -120.5t47 -142t14 -150.5v-797q0 -186 -143 -213q-85 -13 -174 8v121q55 -7 91.5 -0.5t55 43t18.5 110.5v684q0 94 -18 170t-55 134t-100 90t-147 32q-158 0 -243 -105.5t-85 -294.5v-590h-152z" />
    <glyph glyph-name="Omacron" unicode="&#x14c;" horiz-adv-x="1481" 
d="M484 1720v128h513v-128h-513zM740 -31q-216 0 -370.5 98t-231.5 269.5t-77 400.5t77 400.5t231.5 269.5t370.5 98t371 -98t232 -269.5t77 -400.5t-77 -400.5t-232 -269.5t-371 -98zM740 114q169 0 288 79.5t176 218t57 325.5t-57 325.5t-176 218t-288 80.5
q-169 0 -286.5 -79.5t-174 -218t-58.5 -326.5q-2 -284 132 -453t387 -170z" />
    <glyph glyph-name="omacron" unicode="&#x14d;" horiz-adv-x="1211" 
d="M349 1352v128h514v-128h-514zM605 -31q-243 0 -383 161.5t-140 423.5q0 263 141 423t382 160q163 0 282.5 -74.5t180.5 -205.5t61 -303q0 -264 -140.5 -424.5t-383.5 -160.5zM605 114q179 0 272 119t93 321q0 205 -93 321.5t-272 116.5q-180 0 -271.5 -118.5
t-91.5 -319.5q0 -204 93.5 -322t269.5 -118z" />
    <glyph glyph-name="Ohungarumlaut" unicode="&#x150;" horiz-adv-x="1481" 
d="M961 1966h153l-122 -317h-103zM578 1966h152l-122 -317h-103zM740 -31q-216 0 -370.5 98t-231.5 269.5t-77 400.5t77 400.5t231.5 269.5t370.5 98t371 -98t232 -269.5t77 -400.5t-77 -400.5t-232 -269.5t-371 -98zM740 114q169 0 288 79.5t176 218t57 325.5t-57 325.5
t-176 218t-288 80.5q-169 0 -286.5 -79.5t-174 -218t-58.5 -326.5q-2 -284 132 -453t387 -170z" />
    <glyph glyph-name="ohungarumlaut" unicode="&#x151;" horiz-adv-x="1211" 
d="M827 1597h153l-122 -317h-103zM443 1597h154l-123 -317h-102zM605 -31q-243 0 -383 161.5t-140 423.5q0 263 141 423t382 160q163 0 282.5 -74.5t180.5 -205.5t61 -303q0 -264 -140.5 -424.5t-383.5 -160.5zM605 114q179 0 272 119t93 321q0 205 -93 321.5t-272 116.5
q-180 0 -271.5 -118.5t-91.5 -319.5q0 -204 93.5 -322t269.5 -118z" />
    <glyph glyph-name="OE" unicode="&#x152;" horiz-adv-x="2292" 
d="M740 -31q-216 0 -370.5 98t-231.5 269.5t-77 400.5t77 400.5t231.5 269.5t370.5 98q349 0 529 -243v213h921v-145h-771v-510h648v-144h-648v-532h771v-144h-921v213q-181 -244 -529 -244zM740 114q169 0 288 79.5t176 218t57 325.5t-57 325.5t-176 218t-288 80.5
q-169 0 -286.5 -79.5t-174 -218t-58.5 -326.5q-2 -284 132 -453t387 -170z" />
    <glyph glyph-name="oe" unicode="&#x153;" horiz-adv-x="2086" 
d="M605 -31q-243 0 -383 161.5t-140 423.5q0 263 141 423t382 160q153 0 266.5 -64.5t179.5 -182.5q67 119 180.5 183t263.5 64q246 0 381 -166.5t127 -459.5h-870q9 -190 103 -293.5t259 -103.5q118 0 206.5 54.5t140.5 158.5l140 -55q-66 -145 -193 -224t-289 -79
q-152 0 -267 64.5t-182 183.5q-66 -118 -180 -183t-266 -65zM1499 998q-160 0 -252.5 -93t-110.5 -268h710q-36 361 -347 361zM605 114q179 0 272 119t93 321q0 205 -93 321.5t-272 116.5q-180 0 -271.5 -118.5t-91.5 -319.5q0 -204 93.5 -322t269.5 -118z" />
    <glyph glyph-name="Racute" unicode="&#x154;" horiz-adv-x="1291" 
d="M628 1966h153l-122 -317h-103zM143 0v1475h570q47 0 103 -9q169 -26 264.5 -142t95.5 -280q0 -142 -81.5 -255.5t-224.5 -153.5l329 -635h-174l-316 614h-415v-614h-151zM294 759h415q60 0 91 8q109 28 165 104.5t56 172.5q0 97 -56.5 176t-164.5 102q-41 8 -91 8h-415
v-571z" />
    <glyph glyph-name="racute" unicode="&#x155;" horiz-adv-x="738" 
d="M378 1597h152l-121 -317h-104zM143 0v1106h136v-175q37 65 86 102q63 55 157.5 74.5t164.5 -1.5v-141q-158 37 -264 -51q-40 -31 -67 -73.5t-39.5 -92t-17.5 -95t-5 -101.5v-552h-151z" />
    <glyph glyph-name="uni0156" unicode="&#x156;" horiz-adv-x="1291" 
d="M143 0v1475h570q47 0 103 -9q169 -26 264.5 -142t95.5 -280q0 -142 -81.5 -255.5t-224.5 -153.5l329 -635h-174l-316 614h-415v-614h-151zM294 759h415q60 0 91 8q109 28 165 104.5t56 172.5q0 97 -56.5 176t-164.5 102q-41 8 -91 8h-415v-571zM579 -215h152l-122 -317
h-103z" />
    <glyph glyph-name="uni0157" unicode="&#x157;" horiz-adv-x="738" 
d="M143 0v1106h136v-175q37 65 86 102q63 55 157.5 74.5t164.5 -1.5v-141q-158 37 -264 -51q-40 -31 -67 -73.5t-39.5 -92t-17.5 -95t-5 -101.5v-552h-151zM166 -215h153l-122 -317h-103z" />
    <glyph glyph-name="Rcaron" unicode="&#x158;" horiz-adv-x="1291" 
d="M285 1925h153l151 -177l151 177h154l-236 -276h-139zM143 0v1475h570q47 0 103 -9q169 -26 264.5 -142t95.5 -280q0 -142 -81.5 -255.5t-224.5 -153.5l329 -635h-174l-316 614h-415v-614h-151zM294 759h415q60 0 91 8q109 28 165 104.5t56 172.5q0 97 -56.5 176
t-164.5 102q-41 8 -91 8h-415v-571z" />
    <glyph glyph-name="rcaron" unicode="&#x159;" horiz-adv-x="738" 
d="M110 1556h153l152 -177l150 177h154l-235 -276h-139zM143 0v1106h136v-175q37 65 86 102q63 55 157.5 74.5t164.5 -1.5v-141q-158 37 -264 -51q-40 -31 -67 -73.5t-39.5 -92t-17.5 -95t-5 -101.5v-552h-151z" />
    <glyph glyph-name="Sacute" unicode="&#x15a;" horiz-adv-x="1262" 
d="M674 1966h153l-122 -317h-103zM655 -31q-232 0 -390.5 114.5t-195.5 310.5l153 26q37 -142 155.5 -224t284.5 -82t272 76.5t106 205.5q0 54 -20 96t-56 69.5t-70.5 43.5t-79.5 30l-374 111q-314 92 -314 354q0 184 141 294.5t363 109.5q221 -1 370.5 -116t185.5 -314
l-158 -28q-22 142 -132.5 227.5t-266.5 87.5q-148 1 -246 -72t-98 -183q0 -43 17 -78.5t41 -58.5t63 -43t68.5 -30.5t72.5 -22.5l289 -85q35 -10 58.5 -17.5t64.5 -25t69 -36t62 -49t55 -65.5t35 -85t14 -108q0 -134 -71 -233t-192 -149.5t-276 -50.5z" />
    <glyph glyph-name="sacute" unicode="&#x15b;" horiz-adv-x="1075" 
d="M575 1597h153l-122 -317h-103zM556 -30q-194 0 -320 84t-154 234l154 25q24 -95 111.5 -150t216.5 -55q126 0 199 52.5t73 143.5q0 40 -11 65t-48.5 49t-97.5 44.5t-171 50.5q-225 61 -308.5 126.5t-83.5 181.5q0 141 116.5 228.5t303.5 87.5t312 -89t142 -234l-153 -28
q-16 97 -97 154t-206 59q-118 2 -192 -45.5t-74 -125.5q0 -45 27.5 -75.5t95.5 -57.5t201 -61q228 -58 314 -129t86 -199q0 -157 -116.5 -246.5t-319.5 -89.5z" />
    <glyph glyph-name="Scircumflex" unicode="&#x15c;" horiz-adv-x="1262" 
d="M342 1649l236 276h139l234 -276h-153l-151 177l-151 -177h-154zM655 -31q-232 0 -390.5 114.5t-195.5 310.5l153 26q37 -142 155.5 -224t284.5 -82t272 76.5t106 205.5q0 54 -20 96t-56 69.5t-70.5 43.5t-79.5 30l-374 111q-314 92 -314 354q0 184 141 294.5t363 109.5
q221 -1 370.5 -116t185.5 -314l-158 -28q-22 142 -132.5 227.5t-266.5 87.5q-148 1 -246 -72t-98 -183q0 -43 17 -78.5t41 -58.5t63 -43t68.5 -30.5t72.5 -22.5l289 -85q35 -10 58.5 -17.5t64.5 -25t69 -36t62 -49t55 -65.5t35 -85t14 -108q0 -134 -71 -233t-192 -149.5
t-276 -50.5z" />
    <glyph glyph-name="scircumflex" unicode="&#x15d;" horiz-adv-x="1075" 
d="M252 1280l235 276h140l234 -276h-153l-151 177l-151 -177h-154zM556 -30q-194 0 -320 84t-154 234l154 25q24 -95 111.5 -150t216.5 -55q126 0 199 52.5t73 143.5q0 40 -11 65t-48.5 49t-97.5 44.5t-171 50.5q-225 61 -308.5 126.5t-83.5 181.5q0 141 116.5 228.5
t303.5 87.5t312 -89t142 -234l-153 -28q-16 97 -97 154t-206 59q-118 2 -192 -45.5t-74 -125.5q0 -45 27.5 -75.5t95.5 -57.5t201 -61q228 -58 314 -129t86 -199q0 -157 -116.5 -246.5t-319.5 -89.5z" />
    <glyph glyph-name="Scedilla" unicode="&#x15e;" horiz-adv-x="1262" 
d="M626 -492q-62 0 -130 32l39 105q52 -19 78 -19q38 0 61 24t23 56q0 18 -8.5 33t-18.5 24.5t-32.5 19.5t-35 14.5t-41.5 13.5l57 159q-218 9 -365.5 122.5t-183.5 301.5l153 26q37 -142 155.5 -224t284.5 -82t272 76.5t106 205.5q0 54 -20 96t-56 69.5t-70.5 43.5
t-79.5 30l-374 111q-314 92 -314 354q0 184 141 294.5t363 109.5q221 -1 370.5 -116t185.5 -314l-158 -28q-22 142 -132.5 227.5t-266.5 87.5q-148 1 -246 -72t-98 -183q0 -43 17 -78.5t41 -58.5t63 -43t68.5 -30.5t72.5 -22.5l289 -85q35 -10 58.5 -17.5t64.5 -25t69 -36
t62 -49t55 -65.5t35 -85t14 -108q0 -184 -128 -297.5t-336 -132.5l-34 -94q124 -56 124 -176q0 -82 -57 -138t-137 -56z" />
    <glyph glyph-name="scedilla" unicode="&#x15f;" horiz-adv-x="1075" 
d="M524 -492q-62 0 -130 32l39 105q50 -19 79 -19q38 0 60.5 24t22.5 56q0 18 -8.5 33t-18.5 24.5t-32 19.5t-34.5 14.5t-41.5 13.5l57 160q-179 8 -293.5 91.5t-141.5 225.5l154 25q24 -95 111.5 -150t216.5 -55q126 0 199 52.5t73 143.5q0 40 -11 65t-48.5 49t-97.5 44.5
t-171 50.5q-225 61 -308.5 126.5t-83.5 181.5q0 141 116.5 228.5t303.5 87.5t312 -89t142 -234l-153 -28q-16 97 -97 154t-206 59q-118 2 -192 -45.5t-74 -125.5q0 -45 27.5 -75.5t95.5 -57.5t201 -61q228 -58 314 -129t86 -199q0 -141 -96 -229t-267 -103l-34 -96
q123 -56 123 -176q0 -82 -57 -138t-137 -56z" />
    <glyph glyph-name="Scaron" unicode="&#x160;" horiz-adv-x="1262" 
d="M353 1925h154l150 -177l151 177h154l-235 -276h-139zM655 -31q-232 0 -390.5 114.5t-195.5 310.5l153 26q37 -142 155.5 -224t284.5 -82t272 76.5t106 205.5q0 54 -20 96t-56 69.5t-70.5 43.5t-79.5 30l-374 111q-314 92 -314 354q0 184 141 294.5t363 109.5
q221 -1 370.5 -116t185.5 -314l-158 -28q-22 142 -132.5 227.5t-266.5 87.5q-148 1 -246 -72t-98 -183q0 -43 17 -78.5t41 -58.5t63 -43t68.5 -30.5t72.5 -22.5l289 -85q35 -10 58.5 -17.5t64.5 -25t69 -36t62 -49t55 -65.5t35 -85t14 -108q0 -134 -71 -233t-192 -149.5
t-276 -50.5z" />
    <glyph glyph-name="scaron" unicode="&#x161;" horiz-adv-x="1075" 
d="M255 1556h154l150 -177l151 177h153l-234 -276h-140zM556 -30q-194 0 -320 84t-154 234l154 25q24 -95 111.5 -150t216.5 -55q126 0 199 52.5t73 143.5q0 40 -11 65t-48.5 49t-97.5 44.5t-171 50.5q-225 61 -308.5 126.5t-83.5 181.5q0 141 116.5 228.5t303.5 87.5
t312 -89t142 -234l-153 -28q-16 97 -97 154t-206 59q-118 2 -192 -45.5t-74 -125.5q0 -45 27.5 -75.5t95.5 -57.5t201 -61q228 -58 314 -129t86 -199q0 -157 -116.5 -246.5t-319.5 -89.5z" />
    <glyph glyph-name="uni0162" unicode="&#x162;" horiz-adv-x="1221" 
d="M536 0v1330h-516v145h1181v-145h-515v-1330h-21l-48 -131q123 -56 123 -177q0 -82 -56.5 -137.5t-136.5 -55.5q-62 0 -130 32l39 103q49 -17 79 -17q38 0 60 24t22 56q0 22 -10 38.5t-33.5 29t-39.5 19t-52 17.5l72 199h-18z" />
    <glyph glyph-name="uni0163" unicode="&#x163;" horiz-adv-x="820" 
d="M438 -492q-62 0 -130 32l39 105q50 -19 79 -19q38 0 60.5 24t22.5 56q0 18 -8.5 33t-18.5 24.5t-32 19.5t-34.5 14.5t-41.5 13.5l69 194q-105 36 -151 127q-7 15 -13 31t-9.5 29t-6 32.5t-4 30.5t-2 34.5t-0.5 33v38.5v39v577h-237v129h237v307h150v-307h338v-129h-338
v-570v-42.5v-41t1 -32t3.5 -32.5t6.5 -25.5t11 -25.5q35 -66 117 -82.5t199 6.5v-132q-104 -21 -198 -14l-38 -108q123 -56 123 -176q0 -82 -57 -138t-137 -56z" />
    <glyph glyph-name="Tcaron" unicode="&#x164;" horiz-adv-x="1221" 
d="M305 1925h154l150 -177l152 177h153l-235 -276h-139zM536 0v1330h-516v145h1181v-145h-515v-1330h-150z" />
    <glyph glyph-name="tcaron" unicode="&#x165;" horiz-adv-x="820" 
d="M701 1687h151l-143 -492h-103zM745 0q-97 -18 -184 -16t-160.5 40t-108.5 108q-7 15 -13 31t-9.5 29t-6 32.5t-4 30.5t-2 34.5t-0.5 33v38.5v39v577h-237v129h237v307h150v-307h338v-129h-338v-570v-42.5v-41t1 -32t3.5 -32.5t6.5 -25.5t11 -25.5q35 -66 117 -82.5
t199 6.5v-132z" />
    <glyph glyph-name="Tbar" unicode="&#x166;" horiz-adv-x="1221" 
d="M536 0v663h-375v149h375v518h-516v145h1181v-145h-515v-518h376v-149h-376v-663h-150z" />
    <glyph glyph-name="tbar" unicode="&#x167;" horiz-adv-x="861" 
d="M20 496v129h237v352h-237v129h237v307h150v-307h338v-129h-338v-352h352v-129h-352v-89v-42.5v-41t1 -32t3.5 -32.5t6.5 -25.5t11 -25.5q35 -66 117 -82.5t199 6.5v-132q-97 -18 -184 -16t-160.5 40t-108.5 108q-7 15 -13 31t-9.5 29t-6 32.5t-4 30.5t-2 34.5t-0.5 33
v38.5v39v96h-237z" />
    <glyph glyph-name="Utilde" unicode="&#x168;" horiz-adv-x="1437" 
d="M883 1651q-39 0 -84.5 18t-79.5 39.5t-72 39.5t-65 18q-38 0 -51 -30t-1 -68h-106q-24 93 18 156t131 63q39 0 85 -18t80 -39.5t73 -39.5t66 -18q35 0 49 30t1 71h106q24 -93 -18 -157.5t-132 -64.5zM719 -31q-255 0 -415.5 154.5t-160.5 408.5v942l152 1v-923
q0 -89 26 -163.5t68.5 -124.5t98.5 -85t114.5 -51t116.5 -16q75 0 147.5 26.5t135.5 78t102 138.5t39 197v923h151v-943q0 -253 -160.5 -408t-414.5 -155z" />
    <glyph glyph-name="utilde" unicode="&#x169;" 
d="M775 1282q-49 0 -107.5 29t-109.5 58t-84 29q-37 0 -50 -30.5t-1 -68.5h-107q-24 93 18.5 156.5t131.5 63.5q39 0 85 -18t80 -40t72.5 -40t65.5 -18q35 0 49 30t1 71h107q24 -93 -18 -157.5t-133 -64.5zM566 -28q-96 0 -173 31t-126.5 82t-82.5 120.5t-47 142t-14 150.5
v608h151v-564q0 -127 31 -219.5t104.5 -149.5t185.5 -57q158 0 243 105.5t85 294.5v590h150v-1106h-135v154q-61 -89 -156.5 -135.5t-215.5 -46.5z" />
    <glyph glyph-name="Umacron" unicode="&#x16a;" horiz-adv-x="1437" 
d="M462 1720v128h514v-128h-514zM719 -31q-255 0 -415.5 154.5t-160.5 408.5v942l152 1v-923q0 -89 26 -163.5t68.5 -124.5t98.5 -85t114.5 -51t116.5 -16q75 0 147.5 26.5t135.5 78t102 138.5t39 197v923h151v-943q0 -253 -160.5 -408t-414.5 -155z" />
    <glyph glyph-name="umacron" unicode="&#x16b;" 
d="M341 1352v128h513v-128h-513zM566 -28q-96 0 -173 31t-126.5 82t-82.5 120.5t-47 142t-14 150.5v608h151v-564q0 -127 31 -219.5t104.5 -149.5t185.5 -57q158 0 243 105.5t85 294.5v590h150v-1106h-135v154q-61 -89 -156.5 -135.5t-215.5 -46.5z" />
    <glyph glyph-name="Ubreve" unicode="&#x16c;" horiz-adv-x="1437" 
d="M719 1606q-109 0 -186.5 77t-77.5 187h125q0 -58 40.5 -98.5t98.5 -40.5t98.5 40.5t40.5 98.5h125q0 -110 -77.5 -187t-186.5 -77zM719 -31q-255 0 -415.5 154.5t-160.5 408.5v942l152 1v-923q0 -89 26 -163.5t68.5 -124.5t98.5 -85t114.5 -51t116.5 -16q75 0 147.5 26.5
t135.5 78t102 138.5t39 197v923h151v-943q0 -253 -160.5 -408t-414.5 -155z" />
    <glyph glyph-name="ubreve" unicode="&#x16d;" 
d="M598 1237q-110 0 -187 77.5t-77 186.5h125q0 -58 40.5 -98.5t98.5 -40.5t98.5 40.5t40.5 98.5h125q0 -109 -77 -186.5t-187 -77.5zM566 -28q-96 0 -173 31t-126.5 82t-82.5 120.5t-47 142t-14 150.5v608h151v-564q0 -127 31 -219.5t104.5 -149.5t185.5 -57
q158 0 243 105.5t85 294.5v590h150v-1106h-135v154q-61 -89 -156.5 -135.5t-215.5 -46.5z" />
    <glyph glyph-name="Uring" unicode="&#x16e;" horiz-adv-x="1437" 
d="M722 1594q-92 0 -158.5 66t-66.5 159q0 92 66.5 158t158.5 66q93 0 158.5 -66t65.5 -158q0 -93 -65.5 -159t-158.5 -66zM722 1706q46 0 79.5 33.5t33.5 79.5t-33 79t-80 33q-46 0 -79.5 -33t-33.5 -79t33.5 -79.5t79.5 -33.5zM719 -31q-255 0 -415.5 154.5t-160.5 408.5
v942l152 1v-923q0 -89 26 -163.5t68.5 -124.5t98.5 -85t114.5 -51t116.5 -16q75 0 147.5 26.5t135.5 78t102 138.5t39 197v923h151v-943q0 -253 -160.5 -408t-414.5 -155z" />
    <glyph glyph-name="uring" unicode="&#x16f;" 
d="M599 1226q-93 0 -159 65.5t-66 158.5q0 92 66.5 158t158.5 66q93 0 158.5 -66t65.5 -158q0 -93 -65.5 -158.5t-158.5 -65.5zM599 1337q46 0 79.5 33.5t33.5 79.5t-33 79.5t-80 33.5q-46 0 -79.5 -33.5t-33.5 -79.5t33.5 -79.5t79.5 -33.5zM566 -28q-96 0 -173 31
t-126.5 82t-82.5 120.5t-47 142t-14 150.5v608h151v-564q0 -127 31 -219.5t104.5 -149.5t185.5 -57q158 0 243 105.5t85 294.5v590h150v-1106h-135v154q-61 -89 -156.5 -135.5t-215.5 -46.5z" />
    <glyph glyph-name="Uhungarumlaut" unicode="&#x170;" horiz-adv-x="1437" 
d="M927 1966h153l-122 -317h-103zM544 1966h152l-122 -317h-103zM719 -31q-255 0 -415.5 154.5t-160.5 408.5v942l152 1v-923q0 -89 26 -163.5t68.5 -124.5t98.5 -85t114.5 -51t116.5 -16q75 0 147.5 26.5t135.5 78t102 138.5t39 197v923h151v-943q0 -253 -160.5 -408
t-414.5 -155z" />
    <glyph glyph-name="uhungarumlaut" unicode="&#x171;" 
d="M814 1597h153l-122 -317h-104zM430 1597h154l-123 -317h-103zM566 -28q-96 0 -173 31t-126.5 82t-82.5 120.5t-47 142t-14 150.5v608h151v-564q0 -127 31 -219.5t104.5 -149.5t185.5 -57q158 0 243 105.5t85 294.5v590h150v-1106h-135v154q-61 -89 -156.5 -135.5
t-215.5 -46.5z" />
    <glyph glyph-name="Uogonek" unicode="&#x172;" horiz-adv-x="1437" 
d="M719 -31q-255 0 -415.5 154.5t-160.5 408.5v942l152 1v-923q0 -89 26 -163.5t68.5 -124.5t98.5 -85t114.5 -51t116.5 -16q75 0 147.5 26.5t135.5 78t102 138.5t39 197v923h151v-943q0 -163 -70 -289t-195 -197q-85 -59 -140.5 -131.5t-55.5 -131.5q0 -37 22.5 -61
t54.5 -24q48 0 95 49l65 -80q-34 -45 -79.5 -68.5t-93.5 -23.5q-81 0 -138.5 60t-57.5 141q0 91 77 195q-38 -2 -59 -2z" />
    <glyph glyph-name="uogonek" unicode="&#x173;" 
d="M566 -28q-96 0 -173 31t-126.5 82t-82.5 120.5t-47 142t-14 150.5v608h151v-564q0 -127 31 -219.5t104.5 -149.5t185.5 -57q158 0 243 105.5t85 294.5v590h150v-1106q-97 -59 -164.5 -140.5t-67.5 -145.5q0 -37 23 -61.5t55 -24.5q46 0 94 50l66 -80q-71 -92 -173 -92
q-81 0 -138.5 60t-57.5 140q0 85 63 177t165 169v102q-61 -89 -156.5 -135.5t-215.5 -46.5z" />
    <glyph glyph-name="Wcircumflex" unicode="&#x174;" horiz-adv-x="1915" 
d="M653 1649l235 276h139l236 -276h-154l-152 177l-150 -177h-154zM460 0l-426 1475h156l346 -1218l343 1217l157 1l345 -1218l343 1218h158l-425 -1475h-151l-349 1209l-346 -1209h-151z" />
    <glyph glyph-name="wcircumflex" unicode="&#x175;" horiz-adv-x="1571" 
d="M480 1280l235 276h139l235 -276h-154l-151 177l-150 -177h-154zM379 0l-338 1107l150 -1l263 -859l263 859h137l263 -859l264 859h150l-338 -1106h-131l-277 881l-275 -881h-131z" />
    <glyph glyph-name="Ycircumflex" unicode="&#x176;" horiz-adv-x="1138" 
d="M264 1649l235 276h139l235 -276h-153l-152 177l-150 -177h-154zM495 0v617l-495 858h174l396 -685l395 685h174l-493 -858v-617h-151z" />
    <glyph glyph-name="ycircumflex" unicode="&#x177;" horiz-adv-x="1080" 
d="M251 1280l234 276h140l234 -276h-153l-151 177l-151 -177h-153zM301 -492l182 494l-449 1104h160l362 -909l336 909h154l-594 -1598h-151z" />
    <glyph glyph-name="Ydieresis" unicode="&#x178;" horiz-adv-x="1138" 
d="M765 1668q-45 0 -75.5 30.5t-30.5 74.5t30.5 74t75.5 30q44 0 74 -30t30 -74t-30 -74.5t-74 -30.5zM375 1668q-44 0 -74.5 30.5t-30.5 74.5t30.5 74t74.5 30t74 -30t30 -74t-30 -74.5t-74 -30.5zM495 0v617l-495 858h174l396 -685l395 685h174l-493 -858v-617h-151z" />
    <glyph glyph-name="Zacute" unicode="&#x179;" horiz-adv-x="1257" 
d="M654 1966h154l-123 -317h-102zM102 0v32l806 1298h-785v145h1032v-35l-802 -1297h795v-143h-1046z" />
    <glyph glyph-name="zacute" unicode="&#x17a;" horiz-adv-x="1084" 
d="M609 1597h154l-123 -317h-102zM41 0v32l714 934h-661v140h908v-35l-712 -931h674v-140h-923z" />
    <glyph glyph-name="Zdotaccent" unicode="&#x17b;" horiz-adv-x="1257" 
d="M676 1693q-45 0 -75.5 30t-30.5 74t30.5 74.5t75.5 30.5q44 0 74 -30.5t30 -74.5t-30 -74t-74 -30zM102 0v32l806 1298h-785v145h1032v-35l-802 -1297h795v-143h-1046z" />
    <glyph glyph-name="zdotaccent" unicode="&#x17c;" horiz-adv-x="1084" 
d="M555 1324q-45 0 -75 30t-30 74t30 74.5t75 30.5q44 0 74 -30.5t30 -74.5t-30 -74t-74 -30zM41 0v32l714 934h-661v140h908v-35l-712 -931h674v-140h-923z" />
    <glyph glyph-name="Zcaron" unicode="&#x17d;" horiz-adv-x="1257" 
d="M361 1925h154l151 -177l150 177h154l-235 -276h-139zM102 0v32l806 1298h-785v145h1032v-35l-802 -1297h795v-143h-1046z" />
    <glyph glyph-name="zcaron" unicode="&#x17e;" horiz-adv-x="1084" 
d="M260 1556h154l150 -177l152 177h153l-235 -276h-139zM41 0v32l714 934h-661v140h908v-35l-712 -931h674v-140h-923z" />
    <glyph glyph-name="florin" unicode="&#x192;" horiz-adv-x="1470" 
d="M329 -31q-115 0 -260 61l63 130q13 -7 36 -15.5t69 -19.5t85 -11q43 0 82 15.5t76 48t64.5 92t40.5 139.5l43 264h-361v129h382l50 308q20 125 88.5 217t159 135t191.5 43q83 0 158.5 -21.5t105.5 -40.5l-71 -126l-3 1q-2 2 -7.5 4.5t-13.5 6t-19 7t-22.5 7t-26 7
t-29.5 6t-32 4t-34 1.5q-40 0 -79.5 -9.5t-84.5 -33t-78.5 -74t-45.5 -122.5l-52 -320h452v-129h-474l-47 -287q-16 -96 -49 -170.5t-73.5 -120t-91 -75t-97 -40.5t-95.5 -11z" />
    <glyph glyph-name="Ohorn" unicode="&#x1a0;" horiz-adv-x="1481" 
d="M740 -31q-216 0 -370.5 98t-231.5 269.5t-77 400.5t77 400.5t231.5 269.5t370.5 98q114 0 211 -27q79 -19 129 5t62.5 67.5t7.5 111.5h126q27 -187 -79 -254q-24 -16 -51 -24q134 -98 204 -264.5t70 -382.5q0 -229 -77 -400.5t-232 -269.5t-371 -98zM740 114
q169 0 288 79.5t176 218t57 325.5t-57 325.5t-176 218t-288 80.5q-169 0 -286.5 -79.5t-174 -218t-58.5 -326.5q-2 -284 132 -453t387 -170z" />
    <glyph glyph-name="ohorn" unicode="&#x1a1;" horiz-adv-x="1211" 
d="M605 -31q-243 0 -383 161.5t-140 423.5q0 263 141 423t382 160q96 0 180 -28q91 -23 143 2q50 24 62 67.5t7 111.5h126q27 -187 -79 -254q-38 -23 -82 -30q82 -77 124.5 -193t42.5 -259q0 -264 -140.5 -424.5t-383.5 -160.5zM605 114q179 0 272 119t93 321
q0 205 -93 321.5t-272 116.5q-180 0 -271.5 -118.5t-91.5 -319.5q0 -204 93.5 -322t269.5 -118z" />
    <glyph glyph-name="Uhorn" unicode="&#x1af;" horiz-adv-x="1437" 
d="M719 -31q-255 0 -415.5 154.5t-160.5 408.5v942l152 1v-923q0 -89 26 -163.5t68.5 -124.5t98.5 -85t114.5 -51t116.5 -16q75 0 147.5 26.5t135.5 78t102 138.5t39 197v923h46q77 3 92 6q43 9 65 37.5t23.5 64.5t-0.5 76h126q26 -184 -78 -253q-48 -33 -123 -35v-839
q0 -253 -160.5 -408t-414.5 -155z" />
    <glyph glyph-name="uhorn" unicode="&#x1b0;" 
d="M566 -28q-96 0 -173 31t-126.5 82t-82.5 120.5t-47 142t-14 150.5v608h151v-564q0 -127 31 -219.5t104.5 -149.5t185.5 -57q158 0 243 105.5t85 294.5v590h24q77 3 92 6q43 9 65 37.5t23.5 64.5t-0.5 76h126q26 -184 -77 -253q-44 -28 -103 -33v-1004h-135v154
q-61 -89 -156.5 -135.5t-215.5 -46.5z" />
    <glyph glyph-name="uni0218" unicode="&#x218;" horiz-adv-x="1262" 
d="M655 -31q-232 0 -390.5 114.5t-195.5 310.5l153 26q37 -142 155.5 -224t284.5 -82t272 76.5t106 205.5q0 54 -20 96t-56 69.5t-70.5 43.5t-79.5 30l-374 111q-314 92 -314 354q0 184 141 294.5t363 109.5q221 -1 370.5 -116t185.5 -314l-158 -28q-22 142 -132.5 227.5
t-266.5 87.5q-148 1 -246 -72t-98 -183q0 -43 17 -78.5t41 -58.5t63 -43t68.5 -30.5t72.5 -22.5l289 -85q35 -10 58.5 -17.5t64.5 -25t69 -36t62 -49t55 -65.5t35 -85t14 -108q0 -134 -71 -233t-192 -149.5t-276 -50.5zM629 -215h153l-123 -317h-102z" />
    <glyph glyph-name="uni0219" unicode="&#x219;" horiz-adv-x="1075" 
d="M556 -30q-194 0 -320 84t-154 234l154 25q24 -95 111.5 -150t216.5 -55q126 0 199 52.5t73 143.5q0 40 -11 65t-48.5 49t-97.5 44.5t-171 50.5q-225 61 -308.5 126.5t-83.5 181.5q0 141 116.5 228.5t303.5 87.5t312 -89t142 -234l-153 -28q-16 97 -97 154t-206 59
q-118 2 -192 -45.5t-74 -125.5q0 -45 27.5 -75.5t95.5 -57.5t201 -61q228 -58 314 -129t86 -199q0 -157 -116.5 -246.5t-319.5 -89.5zM494 -215h153l-123 -317h-102z" />
    <glyph glyph-name="uni021A" unicode="&#x21a;" horiz-adv-x="1221" 
d="M536 0v1330h-516v145h1181v-145h-515v-1330h-150zM558 -215h153l-122 -317h-104z" />
    <glyph glyph-name="uni021B" unicode="&#x21b;" horiz-adv-x="820" 
d="M745 0q-97 -18 -184 -16t-160.5 40t-108.5 108q-7 15 -13 31t-9.5 29t-6 32.5t-4 30.5t-2 34.5t-0.5 33v38.5v39v577h-237v129h237v307h150v-307h338v-129h-338v-570v-42.5v-41t1 -32t3.5 -32.5t6.5 -25.5t11 -25.5q35 -66 117 -82.5t199 6.5v-132zM374 -215h153
l-121 -317h-104z" />
    <glyph glyph-name="uni0259" unicode="&#x259;" horiz-adv-x="1197" 
d="M587 1137q241 0 384.5 -158t143.5 -421q0 -271 -141.5 -430t-381.5 -159q-246 0 -381 166.5t-127 459.5h870q-9 190 -103 293.5t-259 103.5q-240 0 -347 -213l-141 55q66 145 193.5 224t289.5 79zM588 108q160 0 252.5 93t110.5 268h-710q36 -361 347 -361z" />
    <glyph glyph-name="circumflex" unicode="&#x2c6;" horiz-adv-x="1073" 
d="M230 1649l236 276h139l235 -276h-154l-150 177l-152 -177h-154z" />
    <glyph glyph-name="caron" unicode="&#x2c7;" horiz-adv-x="1056" 
d="M230 1925h154l152 -177l150 177h154l-235 -276h-139z" />
    <glyph glyph-name="breve" unicode="&#x2d8;" horiz-adv-x="1019" 
d="M510 1606q-110 0 -187 77t-77 187h125q0 -58 40.5 -98.5t98.5 -40.5t98.5 40.5t40.5 98.5h125q0 -110 -77 -187t-187 -77z" />
    <glyph glyph-name="dotaccent" unicode="&#x2d9;" horiz-adv-x="666" 
d="M334 1693q-45 0 -75.5 30t-30.5 74t30.5 74.5t75.5 30.5q44 0 74 -30.5t30 -74.5t-30 -74t-74 -30z" />
    <glyph glyph-name="ring" unicode="&#x2da;" horiz-adv-x="987" 
d="M494 1594q-92 0 -158.5 66t-66.5 159q0 92 66.5 158t158.5 66q93 0 158.5 -65.5t65.5 -158.5t-65.5 -159t-158.5 -66zM494 1706q47 0 79.5 33.5t32.5 79.5q0 47 -32.5 79.5t-79.5 32.5q-46 0 -79.5 -33t-33.5 -79t33.5 -79.5t79.5 -33.5z" />
    <glyph glyph-name="ogonek" unicode="&#x2db;" horiz-adv-x="862" 
d="M441 -494q-81 0 -138.5 60t-57.5 140q0 96 79.5 200.5t202.5 183.5l81 -90q-97 -59 -164.5 -140.5t-67.5 -145.5q0 -37 23 -61.5t55 -24.5q46 0 94 50l66 -80q-71 -92 -173 -92z" />
    <glyph glyph-name="tilde" unicode="&#x2dc;" horiz-adv-x="1105" 
d="M707 1651q-39 0 -84.5 18t-79.5 39.5t-72 39.5t-65 18q-38 0 -51.5 -31.5t0.5 -66.5h-106q-24 93 17.5 156t131.5 63q50 0 108 -28.5t109.5 -57.5t84.5 -29q35 0 49.5 30t1.5 71h106q24 -93 -18 -157.5t-132 -64.5z" />
    <glyph glyph-name="hungarumlaut" unicode="&#x2dd;" horiz-adv-x="1086" 
d="M702 1966h153l-122 -317h-103zM318 1966h154l-123 -317h-102z" />
    <glyph glyph-name="uni0374" unicode="&#x374;" horiz-adv-x="512" 
d="M195 1475h153l-122 -318h-103z" />
    <glyph glyph-name="uni0375" unicode="&#x375;" horiz-adv-x="512" 
d="M195 -115h153l-122 -317h-103z" />
    <glyph glyph-name="uni037E" unicode="&#x37e;" horiz-adv-x="625" 
d="M312 920q-44 0 -74 30t-30 73q0 44 30 74t74 30t75 -30t31 -74q0 -43 -31 -73t-75 -30zM271 216h151l-143 -492h-103z" />
    <glyph glyph-name="tonos" unicode="&#x384;" horiz-adv-x="1228" 
d="M575 1475h154l-122 -318h-103z" />
    <glyph glyph-name="dieresistonos" unicode="&#x385;" horiz-adv-x="1228" 
d="M597 1597h154l-122 -317h-104zM883 1305q-42 0 -71 28.5t-29 69.5q0 42 29 70.5t71 28.5t71 -28.5t29 -70.5q0 -41 -29 -69.5t-71 -28.5zM354 1305q-43 0 -71.5 28.5t-28.5 69.5q0 42 28.5 70.5t71.5 28.5q42 0 71 -28.5t29 -70.5q0 -41 -29 -69.5t-71 -28.5z" />
    <glyph glyph-name="Alphatonos" unicode="&#x386;" horiz-adv-x="1298" 
d="M42 0l508 1475h200l507 -1475h-156l-124 357h-655l-123 -357h-157zM195 1475h153l-122 -318h-103zM371 499h557l-280 807z" />
    <glyph glyph-name="anoteleia" unicode="&#x387;" horiz-adv-x="1228" 
d="M234 536q-47 0 -79 31.5t-32 77.5t32 78t79 32q43 0 75 -32t32 -78t-32 -77.5t-75 -31.5z" />
    <glyph glyph-name="Epsilontonos" unicode="&#x388;" horiz-adv-x="1449" 
d="M426 0v1475h922v-145h-771v-510h648v-144h-648v-532h771v-144h-922zM136 1475h154l-123 -318h-102z" />
    <glyph glyph-name="Etatonos" unicode="&#x389;" horiz-adv-x="1676" 
d="M418 0v1475h150v-665h815v665h150v-1475h-150v666h-815v-666h-150zM129 1475h153l-122 -318h-104z" />
    <glyph glyph-name="Iotatonos" unicode="&#x38a;" horiz-adv-x="708" 
d="M415 0v1475h150v-1475h-150zM129 1475h153l-122 -318h-104z" />
    <glyph glyph-name="Omicrontonos" unicode="&#x38c;" horiz-adv-x="1680" 
d="M940 -31q-216 0 -370.5 98t-231.5 269.5t-77 400.5t77 400.5t231.5 269.5t370.5 98t370.5 -98t231.5 -269.5t77 -400.5t-77 -400.5t-231.5 -269.5t-370.5 -98zM150 1475h152l-122 -318h-103zM940 114q169 0 287.5 79.5t175 218t56.5 325.5t-56.5 325.5t-175 218
t-287.5 80.5q-169 0 -287 -79.5t-174.5 -218.5t-57.5 -326q-2 -284 132 -453t387 -170z" />
    <glyph glyph-name="Upsilontonos" unicode="&#x38e;" horiz-adv-x="1523" 
d="M880 0v617l-495 858h174l396 -685l395 685h174l-493 -858v-617h-151zM164 1475h152l-121 -318h-104z" />
    <glyph glyph-name="Omegatonos" unicode="&#x38f;" horiz-adv-x="1710" 
d="M269 0v144h279q-134 107 -209.5 268t-75.5 361q0 207 80.5 372t236.5 262t362 97t362 -97t236.5 -262t80.5 -372q0 -200 -75.5 -361t-209.5 -268h277v-144h-484l3 144q58 30 113 83t104 126t79.5 174t32.5 212q3 126 -32 238.5t-101 197t-166 134.5t-220 50
q-119 0 -218 -49.5t-164 -133.5t-101 -195t-36 -235q0 -115 31 -218t81.5 -177t106 -125t114.5 -82v-144h-487zM156 1475h152l-122 -318h-103z" />
    <glyph glyph-name="iotadieresistonos" unicode="&#x390;" horiz-adv-x="795" 
d="M322 1597h153l-123 -317h-102zM607 1305q-42 0 -70.5 28.5t-28.5 69.5q0 42 28.5 70.5t70.5 28.5t71 -28.5t29 -70.5q0 -41 -29 -69.5t-71 -28.5zM78 1305q-42 0 -71 28.5t-29 69.5q0 42 29 70.5t71 28.5t71 -28.5t29 -70.5q0 -41 -29 -69.5t-71 -28.5zM454 -9
q-152 20 -215 139q-8 15 -14 31t-9.5 28t-6.5 32l-4.5 30t-2 35t-0.5 34v40v40v706h150v-699v-43v-40.5t1 -31.5t3.5 -32.5t7 -25.5t11.5 -28q41 -72 133 -82t183 8v-132q-116 -27 -237 -9z" />
    <glyph glyph-name="Alpha" unicode="&#x391;" horiz-adv-x="1297" 
d="M41 0l508 1475h200l507 -1475h-156l-124 357h-654l-124 -357h-157zM370 499h557l-280 807z" />
    <glyph glyph-name="Beta" unicode="&#x392;" horiz-adv-x="1255" 
d="M143 0v1475h570q182 0 296 -110t114 -270q0 -100 -46.5 -183.5t-126.5 -129.5q117 -51 181 -146t64 -222q0 -190 -119 -302t-316 -112h-617zM295 846h417q107 0 181.5 71t74.5 180q0 104 -72 169.5t-184 65.5h-417v-486zM295 144h428q138 0 227 72.5t89 195.5t-82 207
t-206 84h-456v-559z" />
    <glyph glyph-name="Gamma" unicode="&#x393;" horiz-adv-x="1085" 
d="M143 0v1475h922v-145h-771v-1330h-151z" />
    <glyph glyph-name="uni0394" unicode="&#x394;" horiz-adv-x="1297" 
d="M549 1475h200l507 -1475h-1215zM647 1304l-399 -1160h802z" />
    <glyph glyph-name="Epsilon" unicode="&#x395;" horiz-adv-x="1167" 
d="M143 0v1475h922v-145h-771v-510h648v-144h-648v-532h771v-144h-922z" />
    <glyph glyph-name="Zeta" unicode="&#x396;" horiz-adv-x="1257" 
d="M102 0v32l806 1298h-785v145h1032v-35l-802 -1297h795v-143h-1046z" />
    <glyph glyph-name="Eta" unicode="&#x397;" horiz-adv-x="1401" 
d="M143 0v1475h151v-665h815v665h149v-1475h-149v666h-815v-666h-151z" />
    <glyph glyph-name="Theta" unicode="&#x398;" horiz-adv-x="1481" 
d="M740 -31q-216 0 -370.5 98t-231.5 269.5t-77 400.5t77 400.5t231.5 269.5t370.5 98t371 -98t232 -269.5t77 -400.5t-77 -400.5t-232 -269.5t-371 -98zM740 114q169 0 288 79.5t176 218t57 325.5t-57 325.5t-176 218t-288 80.5q-169 0 -286.5 -79.5t-174 -218
t-58.5 -326.5q-2 -284 132 -453t387 -170zM484 673v129h513v-129h-513z" />
    <glyph glyph-name="Iota" unicode="&#x399;" horiz-adv-x="478" 
d="M164 0v1475h150v-1475h-150z" />
    <glyph glyph-name="Kappa" unicode="&#x39a;" horiz-adv-x="1215" 
d="M143 0v1475h147v-722l678 722h191l-605 -649l661 -826h-193l-570 717l-162 -173v-544h-147z" />
    <glyph glyph-name="Lambda" unicode="&#x39b;" horiz-adv-x="1235" 
d="M518 1475h200l508 -1475h-157l-453 1304l-449 -1304h-157z" />
    <glyph glyph-name="Mu" unicode="&#x39c;" horiz-adv-x="1721" 
d="M143 0v1475h139l579 -1241l577 1241h140v-1474h-143v1138l-526 -1139h-97l-524 1139v-1139h-145z" />
    <glyph glyph-name="Nu" unicode="&#x39d;" horiz-adv-x="1401" 
d="M143 0v1475h152l812 -1209v1209h151v-1475h-151l-812 1209v-1209h-152z" />
    <glyph glyph-name="Xi" unicode="&#x39e;" horiz-adv-x="1416" 
d="M143 1330v145h1130v-145h-1130zM246 666v144h924v-144h-924zM143 0v144h1130v-144h-1130z" />
    <glyph glyph-name="Omicron" unicode="&#x39f;" horiz-adv-x="1481" 
d="M740 -31q-216 0 -370.5 98t-231.5 269.5t-77 400.5t77 400.5t231.5 269.5t370.5 98t371 -98t232 -269.5t77 -400.5t-77 -400.5t-232 -269.5t-371 -98zM740 114q169 0 288 79.5t176 218t57 325.5t-57 325.5t-176 218t-288 80.5q-169 0 -286.5 -79.5t-174 -218
t-58.5 -326.5q-2 -284 132 -453t387 -170z" />
    <glyph glyph-name="Pi" unicode="&#x3a0;" horiz-adv-x="1416" 
d="M143 0v1475h1130v-1475h-151v1330h-828v-1330h-151z" />
    <glyph glyph-name="Rho" unicode="&#x3a1;" horiz-adv-x="1236" 
d="M143 0v1475h570q47 0 103 -9q169 -26 264.5 -149.5t95.5 -299.5t-96 -299.5t-264 -149.5q-49 -8 -103 -8h-419v-560h-151zM294 703h415q47 0 91 10q108 23 164.5 108.5t56.5 195.5t-56.5 196t-164.5 109q-41 8 -91 8h-415v-627z" />
    <glyph glyph-name="Sigma" unicode="&#x3a3;" horiz-adv-x="1331" 
d="M143 0v138l590 599l-590 597v141h1045v-145h-833l570 -575v-35l-570 -576h807v-144h-1019z" />
    <glyph glyph-name="Tau" unicode="&#x3a4;" horiz-adv-x="1221" 
d="M536 0v1330h-516v145h1181v-145h-515v-1330h-150z" />
    <glyph glyph-name="Upsilon" unicode="&#x3a5;" horiz-adv-x="1138" 
d="M495 0v617l-495 858h174l396 -685l395 685h174l-493 -858v-617h-151z" />
    <glyph glyph-name="Phi" unicode="&#x3a6;" horiz-adv-x="1455" 
d="M652 0v196q-114 -19 -220 11.5t-189 103t-132.5 195t-49.5 276.5q0 124 32 228.5t88.5 177t131 120t161.5 63.5t178 1v103h150v-103q114 19 220.5 -12t189 -104.5t132.5 -196.5t50 -277t-50 -276.5t-132.5 -195t-189 -103t-220.5 -11.5v-196h-150zM652 339v893
q-192 27 -313.5 -102t-121.5 -348q0 -218 121 -344t314 -99zM802 339q193 -27 314.5 99t121.5 341q0 142 -54 251.5t-154.5 164.5t-227.5 37v-893z" />
    <glyph glyph-name="Chi" unicode="&#x3a7;" horiz-adv-x="1241" 
d="M20 0l511 746l-497 729h182l405 -603l404 603h183l-497 -729l510 -746h-183l-417 620l-417 -620h-184z" />
    <glyph glyph-name="Psi" unicode="&#x3a8;" horiz-adv-x="1465" 
d="M657 0v358q-182 5 -307.5 93.5t-175.5 245.5q-31 84 -31 194v584h145v-504q0 -116 17 -190q32 -132 124.5 -206.5t227.5 -75.5v976h151v-976q136 1 229.5 78t123.5 210q17 75 17 184v504h144v-584q0 -106 -31 -193q-52 -157 -178 -246t-305 -94v-358h-151z" />
    <glyph glyph-name="uni03A9" unicode="&#x3a9;" horiz-adv-x="1481" 
d="M69 0v144h277q-134 107 -209.5 268t-75.5 361q0 207 80.5 372t236.5 262t362 97q155 0 284 -56t215 -154.5t133.5 -232t47.5 -288.5q0 -200 -75 -361t-209 -268h276v-144h-483l1 144q58 30 113.5 83t104.5 126t79.5 174t33.5 212q3 169 -58 309t-182 225.5t-281 85.5
q-119 0 -218 -49.5t-164 -133.5t-101 -195t-36 -235q0 -115 31 -218t82 -177t106.5 -125t113.5 -82v-144h-485z" />
    <glyph glyph-name="Iotadieresis" unicode="&#x3aa;" horiz-adv-x="478" 
d="M433 1668q-44 0 -74 30.5t-30 74.5t30 74t74 30t75 -30.5t31 -73.5q0 -44 -31 -74.5t-75 -30.5zM44 1668q-45 0 -75 30.5t-30 74.5t30 74t75 30q44 0 74 -30t30 -74t-30 -74.5t-74 -30.5zM164 0v1475h150v-1475h-150z" />
    <glyph glyph-name="Upsilondieresis" unicode="&#x3ab;" horiz-adv-x="1138" 
d="M765 1668q-45 0 -75.5 30.5t-30.5 74.5t30.5 74t75.5 30q44 0 74 -30t30 -74t-30 -74.5t-74 -30.5zM375 1668q-44 0 -74.5 30.5t-30.5 74.5t30.5 74t74.5 30t74 -30t30 -74t-30 -74.5t-74 -30.5zM495 0v617l-495 858h174l396 -685l395 685h174l-493 -858v-617h-151z" />
    <glyph glyph-name="alphatonos" unicode="&#x3ac;" horiz-adv-x="1247" 
d="M640 1597h153l-122 -317h-104zM574 -31q-153 0 -265.5 77.5t-169.5 208.5t-57 298t57 298t171.5 208.5t268.5 77.5q137 0 238 -63.5t152 -179.5v212h135v-1106h-135v215q-52 -117 -155 -181.5t-240 -64.5zM590 110q168 0 256.5 122t88.5 322q0 202 -88 322t-256 120
t-258.5 -121t-90.5 -321q0 -197 90 -320.5t258 -123.5z" />
    <glyph glyph-name="epsilontonos" unicode="&#x3ad;" horiz-adv-x="1037" 
d="M520 1597h154l-122 -317h-103zM496 -31q-179 0 -296.5 93t-117.5 248q0 85 37.5 159t108.5 109q-117 89 -117 240q0 147 108 233t273 86q269 0 439 -187l-96 -101q-61 65 -149 104.5t-183 39.5q-104 0 -171 -47.5t-67 -137.5q0 -87 67.5 -129.5t186.5 -42.5h130v-129
h-131q-145 0 -213.5 -41.5t-68.5 -140.5q0 -98 73 -154.5t196 -56.5q233 0 356 209l121 -77q-71 -132 -196 -204.5t-290 -72.5z" />
    <glyph glyph-name="etatonos" unicode="&#x3ae;" 
d="M666 1597h153l-122 -317h-103zM142 0v1106h137v-154q124 182 371 182q96 0 173 -31t127 -82t83 -120.5t47 -142t14 -150.5v-608h-152v564q0 94 -18 170t-55 134t-100 90t-147 32q-158 0 -243 -105.5t-85 -294.5v-590h-152z" />
    <glyph glyph-name="iotatonos" unicode="&#x3af;" horiz-adv-x="698" 
d="M276 1597h153l-122 -317h-103zM386 -9q-152 20 -215 139q-8 15 -14 31t-9.5 28t-6.5 32l-4.5 30t-2 35t-0.5 34v40v40v706h151v-699q0 -15 -0.5 -43t0 -40t1.5 -32t3 -32t6.5 -26.5t11.5 -27.5q41 -72 133 -82q93 -10 184 8v-132q-117 -27 -238 -9z" />
    <glyph glyph-name="upsilondieresistonos" unicode="&#x3b0;" horiz-adv-x="1190" 
d="M578 1597h153l-123 -317h-102zM863 1305q-42 0 -70.5 28.5t-28.5 69.5q0 42 28.5 70.5t70.5 28.5t71 -28.5t29 -70.5q0 -41 -29 -69.5t-71 -28.5zM334 1305q-42 0 -71 28.5t-29 69.5q0 42 29 70.5t71 28.5t71 -28.5t29 -70.5q0 -41 -29 -69.5t-71 -28.5zM123 505v601h151
v-564q0 -127 31 -219.5t104.5 -149.5t185.5 -57q85 0 148 32t100 90t55 134t18 170v564h152v-601q0 -88 -14.5 -163.5t-49 -144.5t-88 -118t-135.5 -78t-186 -29t-186 29t-135 78t-87.5 118t-49 144.5t-14.5 163.5z" />
    <glyph glyph-name="alpha" unicode="&#x3b1;" horiz-adv-x="1247" 
d="M574 -31q-153 0 -265.5 77.5t-169.5 208.5t-57 298t57 298t171.5 208.5t268.5 77.5q137 0 238 -63.5t152 -179.5v212h135v-1106h-135v215q-52 -117 -155 -181.5t-240 -64.5zM590 110q168 0 256.5 122t88.5 322q0 202 -88 322t-256 120t-258.5 -121t-90.5 -321
q0 -197 90 -320.5t258 -123.5z" />
    <glyph glyph-name="beta" unicode="&#x3b2;" horiz-adv-x="1162" 
d="M142 -492v1598q0 85 25 157q40 115 142 178.5t245 63.5q188 0 303.5 -106t115.5 -286q0 -110 -45 -190.5t-132 -114.5q56 -11 108 -41t97.5 -78t73 -120.5t27.5 -159.5q0 -198 -130 -319t-357 -121q-204 0 -323 113v-574h-150zM622 114q144 0 234.5 83.5t90.5 217.5
q0 142 -103.5 220t-285.5 82v138q117 13 188.5 77t71.5 180t-71 182.5t-189 66.5q-82 0 -146.5 -37t-90.5 -111q-23 -61 -23 -165v-616q0 -86 15 -138q26 -82 113.5 -131t195.5 -49z" />
    <glyph glyph-name="gamma" unicode="&#x3b3;" horiz-adv-x="1040" 
d="M442 -369v369l-401 1106h155l324 -909l327 909h152l-401 -1106v-369h-156z" />
    <glyph glyph-name="delta" unicode="&#x3b4;" horiz-adv-x="1211" 
d="M603 -30q-242 0 -381.5 145t-139.5 386q0 201 99 338t274 165q-99 42 -156.5 104t-57.5 156q0 85 49.5 149t151.5 83q44 9 122 9h380v-127h-346q-59 0 -104 -9q-48 -12 -76.5 -40t-28.5 -71q0 -25 10 -46t33.5 -39.5t47 -32.5t68 -31.5t78 -29t92.5 -31.5l63 -21
q165 -48 256.5 -185t91.5 -330q0 -244 -140.5 -393t-385.5 -149zM606 115q174 0 265 107t91 293q0 185 -91 289t-265 104q-175 0 -265 -106t-90 -290q0 -186 91.5 -291.5t263.5 -105.5z" />
    <glyph glyph-name="epsilon" unicode="&#x3b5;" horiz-adv-x="1037" 
d="M496 -31q-179 0 -296.5 93t-117.5 248q0 85 37.5 159t108.5 109q-117 89 -117 240q0 147 108 233t273 86q269 0 439 -187l-96 -101q-61 65 -149 104.5t-183 39.5q-104 0 -171 -47.5t-67 -137.5q0 -87 67.5 -129.5t186.5 -42.5h130v-129h-131q-145 0 -213.5 -41.5
t-68.5 -140.5q0 -98 73 -154.5t196 -56.5q233 0 356 209l121 -77q-71 -132 -196 -204.5t-290 -72.5z" />
    <glyph glyph-name="zeta" unicode="&#x3b6;" horiz-adv-x="1033" 
d="M863 -246q3 50 -2.5 87.5t-15 64t-31 44t-43 27.5t-60.5 15t-72.5 6.5t-88.5 1.5q-67 0 -120 5.5t-109 19.5t-97 41t-74.5 67t-50.5 101.5t-17 140.5q0 125 61 249t238 310q325 329 398 401h-636v140h863v-124q-316 -321 -477 -473q-164 -167 -226 -276t-62 -214
q0 -60 16.5 -103.5t46.5 -71t79 -43.5t105.5 -22.5t133.5 -6.5q109 0 183 -17q109 -27 163.5 -117.5t31.5 -252.5h-137z" />
    <glyph glyph-name="eta" unicode="&#x3b7;" 
d="M142 0v1106h137v-154q124 182 371 182q96 0 173 -31t127 -82t83 -120.5t47 -142t14 -150.5v-608h-152v564q0 94 -18 170t-55 134t-100 90t-147 32q-158 0 -243 -105.5t-85 -294.5v-590h-152z" />
    <glyph glyph-name="theta" unicode="&#x3b8;" horiz-adv-x="1346" 
d="M673 -31q-115 0 -211.5 39.5t-166 110t-118 167t-72 210.5t-23.5 241q0 159 38 297t110 243.5t186 166t257 60.5q115 0 212 -39.5t166.5 -110t118 -166.5t72 -210t23.5 -241q0 -164 -38 -303t-110 -243t-186 -163t-258 -59zM673 1359q-130 0 -225.5 -76t-144.5 -199
t-59 -282h859q-5 117 -35.5 217.5t-83 176.5t-132.5 119.5t-179 43.5zM673 114q99 0 178 43.5t131.5 120t83 177t37.5 218.5h-860q8 -159 57.5 -283t146 -200t226.5 -76z" />
    <glyph glyph-name="iota" unicode="&#x3b9;" horiz-adv-x="698" 
d="M386 -9q-152 20 -215 139q-8 15 -14 31t-9.5 28t-6.5 32l-4.5 30t-2 35t-0.5 34v40v40v706h151v-699q0 -15 -0.5 -43t0 -40t1.5 -32t3 -32t6.5 -26.5t11.5 -27.5q41 -72 133 -82q93 -10 184 8v-132q-117 -27 -238 -9z" />
    <glyph glyph-name="kappa" unicode="&#x3ba;" horiz-adv-x="1061" 
d="M142 0l1 1106h152v-533l493 533h201l-518 -553l586 -553h-219l-543 532v-532h-153z" />
    <glyph glyph-name="lambda" unicode="&#x3bb;" horiz-adv-x="1081" 
d="M82 0l401 1106q-53 138 -80 179q-46 71 -128 84q-23 3 -51 3h-51v133h68q75 0 120 -11q44 -10 80.5 -35.5t61.5 -56.5t50 -80.5t40.5 -90t37.5 -102.5q5 -15 8 -23l401 -1106h-154l-325 909l-327 -909h-152z" />
    <glyph glyph-name="uni03BC" unicode="&#x3bc;" horiz-adv-x="1235" 
d="M142 -492v1598h152v-564q0 -94 18 -170t55 -134t100 -90t148 -32q158 0 242.5 105.5t84.5 294.5v590h151v-1106h-136v157q-60 -92 -155.5 -138.5t-215.5 -46.5q-201 0 -308 143v-607h-136z" />
    <glyph glyph-name="nu" unicode="&#x3bd;" horiz-adv-x="1040" 
d="M442 0l-401 1106h153l326 -909l325 909h154l-401 -1106h-156z" />
    <glyph glyph-name="xi" unicode="&#x3be;" horiz-adv-x="1127" 
d="M982 -246q5 70 -5 115t-29.5 72t-66.5 39.5t-94 16t-133 3.5q-152 0 -264 31t-178.5 89.5t-98 135t-31.5 174.5q0 139 62 230t179 126q-88 51 -138.5 136.5t-50.5 198.5q0 96 38.5 171.5t104.5 121t149 68.5t177 23q173 0 300 -75.5t202 -208.5l-123 -92
q-64 114 -154 173t-225 59q-140 0 -224.5 -62t-84.5 -182q0 -118 83 -184t231 -72q43 -2 159 -2v-145q-20 0 -168 -5q-67 -3 -118.5 -11.5t-98 -27.5t-76 -48t-47 -74t-17.5 -105q0 -159 118.5 -230t349.5 -72q148 -3 206 -17q112 -26 171 -117t31 -253h-136z" />
    <glyph glyph-name="omicron" unicode="&#x3bf;" horiz-adv-x="1211" 
d="M605 -31q-243 0 -383 161.5t-140 423.5q0 263 141 423t382 160q163 0 282.5 -74.5t180.5 -205.5t61 -303q0 -264 -140.5 -424.5t-383.5 -160.5zM605 114q179 0 272 119t93 321q0 205 -93 321.5t-272 116.5q-180 0 -271.5 -118.5t-91.5 -319.5q0 -204 93.5 -322
t269.5 -118z" />
    <glyph glyph-name="pi" unicode="&#x3c0;" horiz-adv-x="1339" 
d="M273 0v967h-219v139h1231v-139h-219v-967h-150v967h-493v-967h-150z" />
    <glyph glyph-name="rho" unicode="&#x3c1;" horiz-adv-x="1223" 
d="M142 -492v978q0 112 9 179q22 212 150.5 342t339.5 130q159 0 274 -77.5t171 -207.5t56 -296q0 -168 -57.5 -300t-170 -209.5t-262.5 -77.5q-119 0 -212.5 49t-145.5 133v-643h-152zM636 110q169 0 260 122.5t91 322.5q0 201 -89 321t-262 120q-170 0 -256.5 -119
t-86.5 -321q0 -203 87 -324.5t256 -121.5z" />
    <glyph glyph-name="uni03C2" unicode="&#x3c2;" horiz-adv-x="1133" 
d="M878 -246q3 58 -3 98.5t-23 66.5t-42 41.5t-61.5 23t-80 11t-100.5 5.5h-12q-110 4 -195 38.5t-136.5 86t-84.5 122t-45.5 138t-12.5 142.5q0 289 136 449.5t380 160.5q172 0 295.5 -81t172.5 -226l-147 -47q-40 99 -124 154t-198 55q-172 0 -259.5 -121t-88.5 -320
q-1 -57 6 -107.5t29 -108t58 -98.5t101 -68.5t151 -27.5q158 0 224 -17q111 -26 165 -118t31 -252h-136z" />
    <glyph glyph-name="sigma" unicode="&#x3c3;" horiz-adv-x="1239" 
d="M605 -31q-156 0 -275.5 74t-183.5 203t-64 293q0 222 112.5 372.5t306.5 184.5q57 10 214 10h476v-139h-225q77 -71 120 -183t43 -245q0 -164 -64 -293t-184 -203t-276 -74zM605 114q176 0 270.5 115.5t94.5 309.5q0 191 -95 306.5t-270 116.5q-176 1 -269.5 -116.5
t-93.5 -306.5q0 -195 95.5 -310t267.5 -115z" />
    <glyph glyph-name="tau" unicode="&#x3c4;" horiz-adv-x="1061" 
d="M695 -9q-152 20 -215 139q-8 15 -14 31t-9.5 28t-6.5 32l-4.5 30t-2 35t-0.5 34v40v40v567h-392v139h935v-139h-392v-560q0 -15 -0.5 -43t0 -40t1.5 -32t3 -32t6.5 -26.5t11.5 -27.5q41 -72 134 -82q92 -10 183 8v-132q-117 -27 -238 -9z" />
    <glyph glyph-name="upsilon" unicode="&#x3c5;" horiz-adv-x="1190" 
d="M123 505v601h151v-564q0 -127 31 -219.5t104.5 -149.5t185.5 -57q85 0 148 32t100 90t55 134t18 170v564h152v-601q0 -88 -14.5 -163.5t-49 -144.5t-88 -118t-135.5 -78t-186 -29t-186 29t-135 78t-87.5 118t-49 144.5t-14.5 163.5z" />
    <glyph glyph-name="phi" unicode="&#x3c6;" horiz-adv-x="1502" 
d="M668 -461v439q-121 -19 -228 11.5t-186.5 103.5t-125.5 191.5t-46 267.5q0 198 79 339t212 201.5t295 34.5v339h139v-339q162 26 295 -34.5t212 -201.5t79 -339q0 -149 -46 -267.5t-125.5 -191.5t-186.5 -103.5t-228 -11.5v-439h-139zM807 119q84 -14 159.5 5.5t137 70
t97.5 142.5t36 215t-36 215t-96.5 143t-137 70.5t-160.5 5.5v-867zM668 119v867q-84 14 -160.5 -5.5t-137 -71t-96.5 -143.5t-36 -214t36.5 -214t97.5 -143t137 -70.5t159 -5.5z" />
    <glyph glyph-name="chi" unicode="&#x3c7;" horiz-adv-x="1079" 
d="M20 0l433 559l-423 547h180l331 -431l327 431h181l-423 -547l433 -559h-181l-337 443l-339 -443h-182z" />
    <glyph glyph-name="psi" unicode="&#x3c8;" horiz-adv-x="1424" 
d="M639 -461v421q-178 5 -306.5 94t-178.5 244q-31 85 -31 195v613h144v-534q0 -113 18 -189q32 -130 129 -205.5t225 -77.5v1006h146v-1006q129 2 227.5 80t128.5 208q16 70 16 184v534h145v-613q0 -106 -31 -193q-50 -152 -178.5 -243.5t-307.5 -96.5v-421h-146z" />
    <glyph glyph-name="omega" unicode="&#x3c9;" horiz-adv-x="1590" 
d="M496 -32q-201 0 -307.5 146t-106.5 384q0 442 359 639l95 -126q-156 -92 -225 -211.5t-69 -292.5q0 -176 69 -285t199 -109q54 0 93.5 20t62.5 51.5t36.5 81.5t17.5 99t4 115v223h142v-223q0 -66 4 -114.5t17.5 -98.5t36 -82t62 -52t94.5 -20q132 0 200.5 110.5
t68.5 283.5q0 174 -70 293.5t-225 210.5l94 126q360 -197 360 -640q0 -238 -107 -383.5t-305 -145.5q-105 0 -184.5 47.5t-116.5 144.5q-36 -97 -115.5 -144.5t-183.5 -47.5z" />
    <glyph glyph-name="iotadieresis" unicode="&#x3ca;" horiz-adv-x="693" 
d="M433 1299q-44 0 -74 30.5t-30 74.5t30 74t74 30t75 -30.5t31 -73.5q0 -44 -31 -74.5t-75 -30.5zM44 1299q-45 0 -75 30.5t-30 74.5t30 74t75 30q44 0 74 -30t30 -74t-30 -74.5t-74 -30.5zM386 -9q-152 20 -215 139q-8 15 -14 31t-9.5 28t-6.5 32l-4.5 30t-2 35t-0.5 34
v40v40v706h151v-699q0 -15 -0.5 -43t0 -40t1.5 -32t3 -32t6.5 -26.5t11.5 -27.5q41 -72 133 -82q93 -10 184 8v-132q-117 -27 -238 -9z" />
    <glyph glyph-name="upsilondieresis" unicode="&#x3cb;" horiz-adv-x="1190" 
d="M790 1299q-44 0 -74.5 30.5t-30.5 74.5t30.5 74t74.5 30t74.5 -30t30.5 -74t-30.5 -74.5t-74.5 -30.5zM400 1299q-45 0 -75 30.5t-30 74.5t30 74t75 30q44 0 74.5 -30t30.5 -74t-30.5 -74.5t-74.5 -30.5zM123 505v601h151v-564q0 -127 31 -219.5t104.5 -149.5t185.5 -57
q85 0 148 32t100 90t55 134t18 170v564h152v-601q0 -88 -14.5 -163.5t-49 -144.5t-88 -118t-135.5 -78t-186 -29t-186 29t-135 78t-87.5 118t-49 144.5t-14.5 163.5z" />
    <glyph glyph-name="omicrontonos" unicode="&#x3cc;" horiz-adv-x="1211" 
d="M638 1597h154l-122 -317h-104zM605 -31q-243 0 -383 161.5t-140 423.5q0 263 141 423t382 160q163 0 282.5 -74.5t180.5 -205.5t61 -303q0 -264 -140.5 -424.5t-383.5 -160.5zM605 114q179 0 272 119t93 321q0 205 -93 321.5t-272 116.5q-180 0 -271.5 -118.5
t-91.5 -319.5q0 -204 93.5 -322t269.5 -118z" />
    <glyph glyph-name="upsilontonos" unicode="&#x3cd;" horiz-adv-x="1190" 
d="M601 1597h154l-122 -317h-104zM123 505v601h151v-564q0 -127 31 -219.5t104.5 -149.5t185.5 -57q85 0 148 32t100 90t55 134t18 170v564h152v-601q0 -88 -14.5 -163.5t-49 -144.5t-88 -118t-135.5 -78t-186 -29t-186 29t-135 78t-87.5 118t-49 144.5t-14.5 163.5z" />
    <glyph glyph-name="omegatonos" unicode="&#x3ce;" horiz-adv-x="1590" 
d="M800 1597h153l-123 -317h-102zM496 -32q-201 0 -307.5 146t-106.5 384q0 442 359 639l95 -126q-156 -92 -225 -211.5t-69 -292.5q0 -176 69 -285t199 -109q54 0 93.5 20t62.5 51.5t36.5 81.5t17.5 99t4 115v223h142v-223q0 -66 4 -114.5t17.5 -98.5t36 -82t62 -52
t94.5 -20q132 0 200.5 110.5t68.5 283.5q0 174 -70 293.5t-225 210.5l94 126q360 -197 360 -640q0 -238 -107 -383.5t-305 -145.5q-105 0 -184.5 47.5t-116.5 144.5q-36 -97 -115.5 -144.5t-183.5 -47.5z" />
    <glyph glyph-name="uni0400" unicode="&#x400;" horiz-adv-x="1167" 
d="M602 1966l73 -317h-104l-121 317h152zM143 0v1475h922v-145h-771v-510h648v-144h-648v-532h771v-144h-922z" />
    <glyph glyph-name="uni0401" unicode="&#x401;" horiz-adv-x="1167" 
d="M777 1668q-44 0 -74 30.5t-30 74.5t30 74t74 30t75 -30.5t31 -73.5q0 -44 -31 -74.5t-75 -30.5zM388 1668q-45 0 -75 30.5t-30 74.5t30 74t75 30q44 0 74.5 -30t30.5 -74t-30.5 -74.5t-74.5 -30.5zM143 0v1475h922v-145h-771v-510h648v-144h-648v-532h771v-144h-922z" />
    <glyph glyph-name="uni0402" unicode="&#x402;" horiz-adv-x="1323" 
d="M151 0v1335h-151v140h614v-140h-328v-385q128 187 429 187q255 0 390.5 -140.5t135.5 -417.5q0 -269 -130.5 -424t-387.5 -155v152q180 0 273.5 114.5t93.5 320.5q0 209 -99 306t-290 97q-306 0 -375 -238q-25 -85 -25 -250v-502h-150z" />
    <glyph glyph-name="uni0403" unicode="&#x403;" horiz-adv-x="1085" 
d="M498 1966h153l-122 -317h-103zM143 0v1475h922v-145h-771v-1330h-151z" />
    <glyph glyph-name="uni0404" unicode="&#x404;" horiz-adv-x="1467" 
d="M762 -31q-160 0 -290 59.5t-214 163.5t-128 243.5t-41 301.5q3 231 80.5 403t229.5 268.5t363 96.5q250 0 419.5 -133.5t224.5 -375.5l-154 -22q-41 179 -168 281t-316 104q-232 3 -366 -147t-151 -402h541v-144h-541q12 -226 121 -370q132 -179 396 -182
q175 -2 302.5 95.5t176.5 268.5l149 -39q-58 -223 -226 -346.5t-408 -123.5z" />
    <glyph glyph-name="uni0405" unicode="&#x405;" horiz-adv-x="1262" 
d="M655 -31q-232 0 -390.5 114.5t-195.5 310.5l153 26q37 -142 155.5 -224t284.5 -82t272 76.5t106 205.5q0 54 -20 96t-56 69.5t-70.5 43.5t-79.5 30l-374 111q-314 92 -314 354q0 184 141 294.5t363 109.5q221 -1 370.5 -116t185.5 -314l-158 -28q-22 142 -132.5 227.5
t-266.5 87.5q-148 1 -246 -72t-98 -183q0 -43 17 -78.5t41 -58.5t63 -43t68.5 -30.5t72.5 -22.5l289 -85q35 -10 58.5 -17.5t64.5 -25t69 -36t62 -49t55 -65.5t35 -85t14 -108q0 -134 -71 -233t-192 -149.5t-276 -50.5z" />
    <glyph glyph-name="uni0406" unicode="&#x406;" horiz-adv-x="478" 
d="M164 0v1475h150v-1475h-150z" />
    <glyph glyph-name="uni0407" unicode="&#x407;" horiz-adv-x="478" 
d="M433 1668q-44 0 -74 30.5t-30 74.5t30 74t74 30t75 -30.5t31 -73.5q0 -44 -31 -74.5t-75 -30.5zM44 1668q-45 0 -75 30.5t-30 74.5t30 74t75 30q44 0 74 -30t30 -74t-30 -74.5t-74 -30.5zM164 0v1475h150v-1475h-150z" />
    <glyph glyph-name="uni0408" unicode="&#x408;" horiz-adv-x="949" 
d="M395 -30q-147 0 -253 81.5t-142 219.5l151 36q19 -83 86.5 -137.5t156.5 -54.5q63 0 120 29t89 89q14 27 21 64.5t8 66.5t1 90v1021h151v-1021v-35.5v-34.5t-0.5 -30.5t-1 -31t-2.5 -28t-4.5 -29.5t-6 -26.5t-8 -28t-11 -26t-14.5 -28.5q-53 -92 -142 -139t-199 -47z" />
    <glyph glyph-name="uni0409" unicode="&#x409;" horiz-adv-x="2231" 
d="M20 0v134q48 -4 78 1.5t54 23t40 59.5t29 98t28 152q63 396 89 1007h931v-561h418q53 0 104 -8q168 -26 263 -149t95 -299q0 -177 -95 -300.5t-263 -149.5q-51 -8 -104 -8h-570v1330h-634q-1 -17 -6 -93t-6.5 -100.5t-6 -95t-7.5 -105t-8.5 -99t-10.5 -109.5t-12 -104
t-14.5 -114.5t-16.5 -112.5q-9 -55 -17 -95.5t-20.5 -87t-27 -78t-35 -63t-47 -49t-59.5 -29t-75.5 -10t-93.5 14.5zM1682 771h-413v-627h413q45 0 93 9q73 16 123.5 63.5t73.5 109t23 132.5q0 110 -56.5 195.5t-163.5 108.5q-41 9 -93 9z" />
    <glyph glyph-name="uni040A" unicode="&#x40a;" horiz-adv-x="2167" 
d="M143 0v1475h151v-561h760v561h149v-561h420q52 0 103 -8q168 -26 264 -149t96 -299t-95.5 -300t-264.5 -150q-51 -8 -103 -8h-569v770h-760v-770h-151zM1203 144h416q43 0 91 9q73 16 123.5 63.5t73.5 109t23 132.5q0 110 -56.5 195.5t-163.5 108.5q-41 9 -91 9h-416
v-627z" />
    <glyph glyph-name="uni040B" unicode="&#x40b;" horiz-adv-x="1324" 
d="M0 1335v140h614v-140h-320v-461q149 85 362 85q141 0 243.5 -40t163.5 -115t89.5 -172.5t28.5 -222.5v-409h-152v356q0 220 -89 338t-298 118q-212 0 -348 -102v-710h-151v1335h-143z" />
    <glyph glyph-name="uni040C" unicode="&#x40c;" horiz-adv-x="1215" 
d="M666 1966h153l-122 -317h-103zM143 0v1475h151v-697l673 697h192l-687 -712l743 -763h-196l-725 737v-737h-151z" />
    <glyph glyph-name="uni040D" unicode="&#x40d;" horiz-adv-x="1401" 
d="M691 1966l72 -317h-103l-122 317h153zM143 0v1475h152v-1209l812 1209h151v-1475h-151v1209l-812 -1209h-152z" />
    <glyph glyph-name="uni040E" unicode="&#x40e;" horiz-adv-x="1275" 
d="M632 1606q-109 0 -186.5 77.5t-77.5 186.5h125q0 -58 41 -98.5t98 -40.5q58 0 98.5 40.5t40.5 98.5h125q0 -110 -77 -187t-187 -77zM392 0l166 349l-524 1126h167l436 -964l444 964h161l-686 -1475h-164z" />
    <glyph glyph-name="uni040F" unicode="&#x40f;" horiz-adv-x="1502" 
d="M676 -246v246h-533v1475h151v-1331h914v1331h151v-1475h-533v-246h-150z" />
    <glyph glyph-name="uni0410" unicode="&#x410;" horiz-adv-x="1297" 
d="M41 0l508 1475h200l507 -1475h-156l-124 357h-654l-124 -357h-157zM370 499h557l-280 807z" />
    <glyph glyph-name="uni0411" unicode="&#x411;" horiz-adv-x="1236" 
d="M143 0v1475h911v-145h-760v-429h419q51 0 103 -7q167 -23 263.5 -146t96.5 -297t-96.5 -297.5t-263.5 -146.5q-52 -7 -103 -7h-570zM294 144h415q45 0 91 9q108 21 164.5 104.5t56.5 193.5t-56.5 193.5t-164.5 104.5q-41 8 -91 8h-415v-613z" />
    <glyph glyph-name="uni0412" unicode="&#x412;" horiz-adv-x="1255" 
d="M143 0v1475h570q182 0 296 -110t114 -270q0 -100 -46.5 -183.5t-126.5 -129.5q117 -51 181 -146t64 -222q0 -190 -119 -302t-316 -112h-617zM295 846h417q107 0 181.5 71t74.5 180q0 104 -72 169.5t-184 65.5h-417v-486zM295 144h428q138 0 227 72.5t89 195.5t-82 207
t-206 84h-456v-559z" />
    <glyph glyph-name="uni0413" unicode="&#x413;" horiz-adv-x="1085" 
d="M143 0v1475h922v-145h-771v-1330h-151z" />
    <glyph glyph-name="uni0414" unicode="&#x414;" horiz-adv-x="1510" 
d="M75 -246v390q37 0 69 10t56 24.5t44.5 42.5t34.5 51.5t26 65t19 70t14.5 79.5t11 80t9.5 84q8 78 14.5 150.5t13 172t9 142t9.5 184.5t9 176l909 -1v-1331h105v-390h-149v246h-1054v-246h-150zM362 144h810v1186l-618 1q-23 -478 -48 -725q-20 -197 -49 -299.5
t-95 -162.5z" />
    <glyph glyph-name="uni0415" unicode="&#x415;" horiz-adv-x="1167" 
d="M143 0v1475h922v-145h-771v-510h648v-144h-648v-532h771v-144h-922z" />
    <glyph glyph-name="uni0416" unicode="&#x416;" horiz-adv-x="1823" 
d="M20 0l654 763l-597 712h189l571 -690v690h150v-690l571 690h189l-597 -712l653 -763h-192l-624 730v-730h-150v730l-623 -730h-194z" />
    <glyph glyph-name="uni0417" unicode="&#x417;" horiz-adv-x="1221" 
d="M615 -31q-212 0 -350 89.5t-196 227.5l137 80q39 -112 145 -182t270 -70q178 0 275 82t97 222q0 73 -27 124t-78 79t-111.5 41t-140.5 16q-148 5 -168 5v145q117 0 159 2q147 6 230.5 76.5t83.5 189.5q0 123 -87 194t-230 71q-245 0 -371 -232l-123 92q72 130 201 207
t297 77q95 0 179.5 -25.5t150.5 -75t104.5 -128t38.5 -177.5q0 -117 -51.5 -207t-137.5 -136q115 -35 178 -121t63 -220q0 -202 -147 -324t-391 -122z" />
    <glyph glyph-name="uni0418" unicode="&#x418;" horiz-adv-x="1401" 
d="M1258 0h-151v1209l-812 -1209h-152v1475h152v-1209l812 1209h151v-1475z" />
    <glyph glyph-name="uni0419" unicode="&#x419;" horiz-adv-x="1401" 
d="M713 1606q-109 0 -186.5 77t-77.5 187h124q0 -58 41 -98.5t99 -40.5t98.5 40.5t40.5 98.5h125q0 -110 -77.5 -187t-186.5 -77zM143 0v1475h152v-1209l812 1209h151v-1475h-151v1209l-812 -1209h-152z" />
    <glyph glyph-name="uni041A" unicode="&#x41a;" horiz-adv-x="1215" 
d="M143 0v1475h147v-722l678 722h191l-605 -649l661 -826h-193l-570 717l-162 -173v-544h-147z" />
    <glyph glyph-name="uni041B" unicode="&#x41b;" horiz-adv-x="1432" 
d="M41 0v134q113 -10 153 49t75 285q63 396 89 1007h931v-1475h-150v1330h-635q-1 -17 -6 -93t-6.5 -100.5t-6 -95t-7.5 -105t-8.5 -99t-10.5 -109.5t-12 -104t-14.5 -114.5t-16.5 -112.5q-9 -55 -17 -95.5t-20.5 -87t-27 -78t-35 -63t-47 -49t-59.5 -29t-75.5 -10
t-93.5 14.5z" />
    <glyph glyph-name="uni041C" unicode="&#x41c;" horiz-adv-x="1721" 
d="M143 0v1475h139l579 -1241l577 1241h140v-1474h-143v1138l-526 -1139h-97l-524 1139v-1139h-145z" />
    <glyph glyph-name="uni041D" unicode="&#x41d;" horiz-adv-x="1401" 
d="M143 0v1475h151v-665h815v665h149v-1475h-149v666h-815v-666h-151z" />
    <glyph glyph-name="uni041E" unicode="&#x41e;" horiz-adv-x="1481" 
d="M740 -31q-216 0 -370.5 98t-231.5 269.5t-77 400.5t77 400.5t231.5 269.5t370.5 98t371 -98t232 -269.5t77 -400.5t-77 -400.5t-232 -269.5t-371 -98zM740 114q169 0 288 79.5t176 218t57 325.5t-57 325.5t-176 218t-288 80.5q-169 0 -286.5 -79.5t-174 -218
t-58.5 -326.5q-2 -284 132 -453t387 -170z" />
    <glyph glyph-name="uni041F" unicode="&#x41f;" horiz-adv-x="1416" 
d="M143 0v1475h1130v-1475h-151v1330h-828v-1330h-151z" />
    <glyph glyph-name="uni0420" unicode="&#x420;" horiz-adv-x="1236" 
d="M143 0v1475h570q47 0 103 -9q169 -26 264.5 -149.5t95.5 -299.5t-96 -299.5t-264 -149.5q-49 -8 -103 -8h-419v-560h-151zM294 703h415q47 0 91 10q108 23 164.5 108.5t56.5 195.5t-56.5 196t-164.5 109q-41 8 -91 8h-415v-627z" />
    <glyph glyph-name="uni0421" unicode="&#x421;" horiz-adv-x="1465" 
d="M740 -31q-216 0 -370.5 98t-231.5 269.5t-77 400.5t77 400.5t231.5 269.5t370.5 98q251 0 416 -128.5t227 -355.5l-153 -40q-48 179 -172.5 279.5t-317.5 100.5q-252 0 -385 -169t-135 -455q-1 -187 56 -325.5t176 -218t288 -79.5q193 0 317.5 100.5t172.5 279.5l153 -40
q-62 -227 -227 -356t-416 -129z" />
    <glyph glyph-name="uni0422" unicode="&#x422;" horiz-adv-x="1221" 
d="M536 0v1330h-516v145h1181v-145h-515v-1330h-150z" />
    <glyph glyph-name="uni0423" unicode="&#x423;" horiz-adv-x="1275" 
d="M392 0l166 349l-524 1126h167l436 -964l444 964h161l-686 -1475h-164z" />
    <glyph glyph-name="uni0424" unicode="&#x424;" horiz-adv-x="1455" 
d="M652 0v196q-114 -19 -220 11.5t-189 103t-132.5 195t-49.5 276.5q0 124 32 228.5t88.5 177t131 120t161.5 63.5t178 1v103h150v-103q114 19 220.5 -12t189 -104.5t132.5 -196.5t50 -277t-50 -276.5t-132.5 -195t-189 -103t-220.5 -11.5v-196h-150zM652 339v893
q-192 27 -313.5 -102t-121.5 -348q0 -218 121 -344t314 -99zM802 339q193 -27 314.5 99t121.5 341q0 142 -54 251.5t-154.5 164.5t-227.5 37v-893z" />
    <glyph glyph-name="uni0425" unicode="&#x425;" horiz-adv-x="1241" 
d="M20 0l511 746l-497 729h182l405 -603l404 603h183l-497 -729l510 -746h-183l-417 620l-417 -620h-184z" />
    <glyph glyph-name="uni0426" unicode="&#x426;" horiz-adv-x="1467" 
d="M1296 -191v191h-1153v1475h151v-1336h846v1322h150v-1322h157v-330h-151z" />
    <glyph glyph-name="uni0427" unicode="&#x427;" horiz-adv-x="1324" 
d="M1030 0v600q-149 -85 -362 -85q-141 0 -243.5 40t-163.5 115t-89.5 173t-28.5 223v409h152v-357q0 -85 12 -153t40 -125.5t72 -96t110.5 -59.5t153.5 -21q109 0 199 29t148 73v710h151v-1475h-151z" />
    <glyph glyph-name="uni0428" unicode="&#x428;" horiz-adv-x="1856" 
d="M143 0v1475h151v-1331h559v1331h151v-1331h560v1331h149v-1475h-1570z" />
    <glyph glyph-name="uni0429" unicode="&#x429;" horiz-adv-x="1890" 
d="M143 0v1475h151v-1331h559v1331h151v-1331h560v1331h149v-1336h157v-330h-151v191h-1576z" />
    <glyph glyph-name="uni042A" unicode="&#x42a;" horiz-adv-x="1265" 
d="M177 0v1346h-190v129h341v-561h418q54 0 105 -8q168 -26 263 -149t95 -299q0 -177 -95 -300.5t-263 -149.5q-51 -8 -105 -8h-569zM328 144h414q45 0 93 9q73 16 123.5 63.5t73.5 109t23 132.5q0 110 -56.5 195.5t-163.5 108.5q-41 9 -93 9h-414v-627z" />
    <glyph glyph-name="uni042B" unicode="&#x42b;" horiz-adv-x="1612" 
d="M142 0v1475h151v-561h419q53 0 104 -8q168 -26 263.5 -149t95.5 -299t-95.5 -300t-263.5 -150q-51 -8 -104 -8h-570zM1320 0v1475h149v-1475h-149zM293 144h415q44 0 92 9q73 16 123.5 63.5t73.5 109t23 132.5q0 110 -56.5 195.5t-163.5 108.5q-41 9 -92 9h-415v-627z
" />
    <glyph glyph-name="uni042C" unicode="&#x42c;" horiz-adv-x="1256" 
d="M142 0v1475h151v-561h419q53 0 104 -8q168 -26 263.5 -149t95.5 -299t-95.5 -300t-263.5 -150q-51 -8 -104 -8h-570zM293 144h415q44 0 92 9q73 16 123.5 63.5t73.5 109t23 132.5q0 110 -56.5 195.5t-163.5 108.5q-41 9 -92 9h-415v-627z" />
    <glyph glyph-name="uni042D" unicode="&#x42d;" horiz-adv-x="1439" 
d="M706 -31q-240 0 -408 123.5t-226 346.5l148 39q49 -171 176 -268.5t303 -95.5q265 3 397 182q109 144 119 370h-540v144h542q-11 165 -72 287.5t-175.5 193t-270.5 68.5q-189 -2 -316.5 -104t-168.5 -281l-153 22q55 242 225 375.5t420 133.5q211 0 362.5 -96.5
t228.5 -268.5t81 -403q3 -162 -41 -301.5t-128 -243.5t-213.5 -163.5t-289.5 -59.5z" />
    <glyph glyph-name="uni042E" unicode="&#x42e;" horiz-adv-x="1879" 
d="M143 0v1475h151v-663h343q9 147 50.5 271t113.5 219t181 148.5t244 53.5q115 0 212 -39.5t166.5 -110t118 -166.5t72 -210t23.5 -241q0 -164 -38 -303t-110 -243t-186 -163t-258 -59q-135 0 -244 54t-181 149t-113.5 219.5t-50.5 271.5h-343v-663h-151zM1226 114
q105 0 188.5 49.5t135.5 135.5t79.5 197.5t28.5 240.5q1 173 -45.5 311.5t-146.5 224.5t-240 86q-139 0 -238 -86t-145 -224t-48 -312q-2 -173 45 -312t147 -225t239 -86z" />
    <glyph glyph-name="uni042F" unicode="&#x42f;" horiz-adv-x="1291" 
d="M266 0h-173l329 635q-144 40 -225 153.5t-81 255.5q0 164 95 280t264 142q57 9 104 9h569v-1475h-150v614h-414zM998 759v571h-415q-48 0 -91 -8q-107 -23 -164 -102t-57 -176q0 -96 56.5 -172.5t164.5 -104.5q31 -8 91 -8h415z" />
    <glyph glyph-name="uni0430" unicode="&#x430;" horiz-adv-x="1137" 
d="M460 -31q-180 0 -279 94t-99 234q0 246 282 321q126 30 503 79q-2 154 -70.5 225.5t-224.5 71.5q-241 0 -302 -213l-146 43q39 150 154 231.5t296 81.5q152 0 258.5 -57.5t149.5 -164.5q33 -79 33 -228v-687h-134v182q-64 -104 -172 -158.5t-249 -54.5zM477 99
q154 0 253 81t121 210q14 63 14 176q-335 -39 -441 -68q-192 -57 -192 -201q0 -81 60.5 -139.5t184.5 -58.5z" />
    <glyph glyph-name="uni0431" unicode="&#x431;" horiz-adv-x="1193" 
d="M587 -32q-235 2 -365.5 152.5t-137.5 443.5q-5 133 13.5 292.5t49.5 245.5q26 76 76.5 142t115.5 108q76 51 183.5 78.5t259 45.5t203.5 29l16 -136q-39 -8 -174 -24.5t-240.5 -41.5t-170.5 -67q-160 -98 -183 -384q62 97 166.5 148.5t230.5 51.5q221 0 351.5 -149.5
t130.5 -389.5q0 -249 -142 -397.5t-383 -147.5zM598 113q171 0 263 106.5t92 290.5q0 185 -94 291t-263 106t-260.5 -105.5t-91.5 -291.5q0 -187 91.5 -292t262.5 -105z" />
    <glyph glyph-name="uni0432" unicode="&#x432;" horiz-adv-x="1096" 
d="M142 0v1106h456q96 0 177 -20q94 -26 150.5 -101.5t56.5 -180.5q0 -115 -69 -187q-30 -35 -69 -51q32 -6 70 -28q121 -73 121 -237q0 -112 -52.5 -184.5t-146.5 -99.5q-61 -17 -179 -17h-515zM294 617h309q70 0 118 17q51 18 77 61.5t26 100.5q0 59 -27.5 102t-80.5 61
q-52 18 -133 18h-289v-360zM294 128h356q62 0 113 13q58 14 87.5 59.5t29.5 104.5q0 72 -42.5 118.5t-113.5 57.5q-31 7 -95 7h-335v-360z" />
    <glyph glyph-name="uni0433" unicode="&#x433;" horiz-adv-x="952" 
d="M143 0v1106h758v-144h-607v-962h-151z" />
    <glyph glyph-name="uni0434" unicode="&#x434;" horiz-adv-x="1225" 
d="M61 -246v375q90 0 132.5 57.5t69.5 198.5q25 124 38.5 283.5t25.5 437.5h731v-977h106v-375h-145v246h-813v-246h-145zM316 129h592v848h-442q-22 -464 -63 -636q-17 -82 -35.5 -131.5t-51.5 -80.5z" />
    <glyph glyph-name="uni0435" unicode="&#x435;" horiz-adv-x="1197" 
d="M611 -31q-242 0 -385.5 158t-143.5 421q0 271 141.5 430t381.5 159q246 0 381.5 -167t127.5 -459h-871q10 -190 103.5 -293.5t258.5 -103.5q118 0 206.5 54.5t140.5 158.5l141 -55q-66 -144 -193 -223.5t-289 -79.5zM609 998q-159 0 -252 -93t-111 -268h710
q-36 361 -347 361z" />
    <glyph glyph-name="uni0436" unicode="&#x436;" horiz-adv-x="1430" 
d="M20 0l467 553l-447 553h170l436 -546v546h139v-546l437 546h169l-448 -553l467 -553h-175l-450 546v-546h-139v546l-450 -546h-176z" />
    <glyph glyph-name="uni0437" unicode="&#x437;" horiz-adv-x="1037" 
d="M542 -31q-165 0 -290.5 72.5t-197.5 204.5l121 77q124 -209 357 -209q123 0 196.5 56.5t73.5 154.5q0 99 -69 140.5t-214 41.5h-131v129h129q120 0 187.5 42.5t67.5 129.5q0 90 -67 137.5t-170 47.5q-95 0 -183 -39.5t-150 -104.5l-97 101q172 187 441 187q165 0 273 -86
t108 -233q0 -149 -119 -240q71 -35 109 -109t38 -159q0 -155 -117 -248t-296 -93z" />
    <glyph glyph-name="uni0438" unicode="&#x438;" horiz-adv-x="1165" 
d="M1022 1106v-1106h-146v861l-607 -861h-127v1106h147v-854l607 854h126z" />
    <glyph glyph-name="uni0439" unicode="&#x439;" horiz-adv-x="1165" 
d="M602 1237q-110 0 -187 77.5t-77 186.5h125q0 -58 40.5 -98.5t98.5 -40.5t98.5 40.5t40.5 98.5h125q0 -109 -77 -186.5t-187 -77.5zM1022 1106v-1106h-146v861l-607 -861h-127v1106h147v-854l607 854h126z" />
    <glyph glyph-name="uni043A" unicode="&#x43a;" horiz-adv-x="1061" 
d="M142 0l1 1106h152v-533l493 533h201l-518 -553l586 -553h-219l-543 532v-532h-153z" />
    <glyph glyph-name="uni043B" unicode="&#x43b;" horiz-adv-x="1178" 
d="M41 0v132q23 -4 42 -4.5t34 3.5t26.5 10.5t20.5 18.5t15.5 24.5t11.5 31.5t9 37t8 43q40 235 76 810h751v-1106h-149v962h-463q-37 -530 -80 -748q-9 -48 -20 -82t-27.5 -63t-38.5 -46t-52.5 -26t-71 -8t-92.5 11z" />
    <glyph glyph-name="uni043C" unicode="&#x43c;" horiz-adv-x="1416" 
d="M142 0v1106h134l432 -905l432 905h133v-1106h-146v784l-371 -784h-96l-371 784v-784h-147z" />
    <glyph glyph-name="uni043D" unicode="&#x43d;" horiz-adv-x="1210" 
d="M142 0v1106h151v-480h623v480h151v-1106h-151v481h-623v-481h-151z" />
    <glyph glyph-name="uni043E" unicode="&#x43e;" horiz-adv-x="1211" 
d="M605 -31q-243 0 -383 161.5t-140 423.5q0 263 141 423t382 160q163 0 282.5 -74.5t180.5 -205.5t61 -303q0 -264 -140.5 -424.5t-383.5 -160.5zM605 114q179 0 272 119t93 321q0 205 -93 321.5t-272 116.5q-180 0 -271.5 -118.5t-91.5 -319.5q0 -204 93.5 -322
t269.5 -118z" />
    <glyph glyph-name="uni043F" unicode="&#x43f;" horiz-adv-x="1165" 
d="M142 0v1106h880v-1106h-151v962h-578v-962h-151z" />
    <glyph glyph-name="uni0440" unicode="&#x440;" horiz-adv-x="1212" 
d="M142 -492v1598h136v-152q130 183 368 183q148 0 259 -77t168 -208.5t57 -297.5q0 -167 -57 -298.5t-169.5 -209t-263.5 -77.5q-217 0 -346 163v-624h-152zM625 110q112 0 191 59t117 158t38 227q0 197 -89 319.5t-260 122.5q-168 0 -256 -120t-88 -322q0 -131 37 -229
t116 -156.5t194 -58.5z" />
    <glyph glyph-name="uni0441" unicode="&#x441;" horiz-adv-x="1133" 
d="M602 -31q-245 0 -381 160.5t-139 423.5q3 266 140 425t381 159q167 0 292 -82.5t171 -224.5l-147 -47q-39 98 -123.5 153.5t-193.5 55.5q-177 0 -267.5 -118.5t-92.5 -320.5q2 -204 94 -321.5t266 -117.5q228 0 312 202l152 -45q-62 -148 -181 -225t-283 -77z" />
    <glyph glyph-name="uni0442" unicode="&#x442;" horiz-adv-x="1037" 
d="M443 0v967h-392v139h935v-139h-392v-967h-151z" />
    <glyph glyph-name="uni0443" unicode="&#x443;" horiz-adv-x="1080" 
d="M301 -492l182 494l-449 1104h160l362 -909l336 909h154l-594 -1598h-151z" />
    <glyph glyph-name="uni0444" unicode="&#x444;" horiz-adv-x="1474" 
d="M668 -461v439q-121 -19 -228 11.5t-186.5 103.5t-125.5 191.5t-46 267.5q0 198 79 339t212 201.5t295 34.5v339h139v-339q162 26 295 -34.5t212 -201.5t79 -339q0 -149 -46 -267.5t-125.5 -191.5t-186.5 -103.5t-228 -11.5v-439h-139zM807 119q84 -14 159.5 5.5t137 70
t97.5 142.5t36 215t-36 215t-96.5 143t-137 70.5t-160.5 5.5v-867zM668 119v867q-84 14 -160.5 -5.5t-137 -71t-96.5 -143.5t-36 -214t36.5 -214t97.5 -143t137 -70.5t159 -5.5z" />
    <glyph glyph-name="uni0445" unicode="&#x445;" horiz-adv-x="1079" 
d="M20 0l433 559l-423 547h180l331 -431l327 431h181l-423 -547l433 -559h-181l-337 443l-339 -443h-182z" />
    <glyph glyph-name="uni0446" unicode="&#x446;" horiz-adv-x="1264" 
d="M1094 -191v191h-952v1106h151v-962h578v962h151v-967h222v-330h-150z" />
    <glyph glyph-name="uni0447" unicode="&#x447;" horiz-adv-x="1114" 
d="M820 0v412q-134 -69 -310 -69q-168 0 -273 75t-136 216q-19 85 -19 228v244h151v-244q0 -97 12 -161q42 -226 296 -226q169 0 279 78v553h151v-1106h-151z" />
    <glyph glyph-name="uni0448" unicode="&#x448;" horiz-adv-x="1553" 
d="M142 0v1106h147v-967h414v967h147v-967h414v967h146v-1106h-1268z" />
    <glyph glyph-name="uni0449" unicode="&#x449;" horiz-adv-x="1574" 
d="M1404 -191v191h-1262v1106h147v-967h414v967h147v-967h414v967h146v-967h144v-330h-150z" />
    <glyph glyph-name="uni044A" unicode="&#x44a;" horiz-adv-x="1143" 
d="M193 0l-2 977h-150v129h302v-417h258q117 0 178 -10q283 -54 283 -334q0 -137 -71 -221t-188 -110q-65 -14 -188 -14h-422zM343 129h266q105 0 153 13q63 17 103.5 66t40.5 137q0 171 -157 204q-54 11 -140 11h-266v-431z" />
    <glyph glyph-name="uni044B" unicode="&#x44b;" horiz-adv-x="1372" 
d="M144 0l-2 1106h152v-417h192q117 0 178 -10q282 -57 282 -334q0 -137 -70.5 -221t-188.5 -110q-64 -14 -187 -14h-356zM1078 0v1106h151v-1106h-151zM294 129h200q104 0 152 13q63 17 104 66t41 137q0 171 -158 204q-54 11 -139 11h-200v-431z" />
    <glyph glyph-name="uni044C" unicode="&#x44c;" horiz-adv-x="1094" 
d="M144 0l-2 1106h152v-417h259q116 0 177 -10q283 -53 283 -334q0 -137 -70.5 -221t-187.5 -110q-65 -14 -189 -14h-422zM294 129h266q105 0 154 13q62 17 102.5 66t40.5 137q0 171 -158 204q-53 11 -139 11h-266v-431z" />
    <glyph glyph-name="uni044D" unicode="&#x44d;" horiz-adv-x="1134" 
d="M534 -31q-165 0 -284 77t-181 225l151 45q84 -202 312 -202q160 0 250.5 99.5t105.5 274.5h-495v129h495q-13 173 -102.5 274t-249.5 101q-111 0 -195.5 -55t-124.5 -154l-147 47q46 142 171 224.5t297 82.5q241 0 378.5 -160t137.5 -425t-138.5 -424t-380.5 -159z" />
    <glyph glyph-name="uni044E" unicode="&#x44e;" horiz-adv-x="1619" 
d="M1014 -31q-218 0 -351 137.5t-154 371.5h-216v-478h-151v1106h151v-478h215q20 236 155 372.5t352 136.5q243 0 383 -161t140 -421q0 -264 -140.5 -425t-383.5 -161zM1011 114q181 0 274 118t93 322q0 206 -93.5 322t-272.5 116q-173 0 -267.5 -115.5t-94.5 -321.5
q0 -204 93.5 -322.5t267.5 -118.5z" />
    <glyph glyph-name="uni044F" unicode="&#x44f;" horiz-adv-x="1131" 
d="M82 0l291 437q-115 28 -185 109.5t-70 210.5q0 133 72.5 219.5t186.5 114.5q66 15 187 15h423l1 -1106h-151v417h-258q-36 0 -53 1l-279 -418h-165zM570 546h267v431h-267q-96 0 -151 -15q-59 -17 -102.5 -69.5t-43.5 -133.5q0 -80 43.5 -131t116.5 -70q49 -12 137 -12z
" />
    <glyph glyph-name="uni0450" unicode="&#x450;" horiz-adv-x="1197" 
d="M587 1597l71 -317h-103l-122 317h154zM611 -31q-242 0 -385.5 158t-143.5 421q0 271 141.5 430t381.5 159q246 0 381.5 -167t127.5 -459h-871q10 -190 103.5 -293.5t258.5 -103.5q118 0 206.5 54.5t140.5 158.5l141 -55q-66 -144 -193 -223.5t-289 -79.5zM609 998
q-159 0 -252 -93t-111 -268h710q-36 361 -347 361z" />
    <glyph glyph-name="uni0451" unicode="&#x451;" horiz-adv-x="1197" 
d="M800 1299q-44 0 -74.5 30.5t-30.5 74.5t30.5 74t74.5 30t74.5 -30t30.5 -74t-30.5 -74.5t-74.5 -30.5zM411 1299q-45 0 -75.5 30.5t-30.5 74.5t30.5 74t75.5 30q44 0 74 -30t30 -74t-30 -74.5t-74 -30.5zM611 -31q-242 0 -385.5 158t-143.5 421q0 271 141.5 430
t381.5 159q246 0 381.5 -167t127.5 -459h-871q10 -190 103.5 -293.5t258.5 -103.5q118 0 206.5 54.5t140.5 158.5l141 -55q-66 -144 -193 -223.5t-289 -79.5zM609 998q-159 0 -252 -93t-111 -268h710q-36 361 -347 361z" />
    <glyph glyph-name="uni0452" unicode="&#x452;" 
d="M949 -402q-79 -17 -172 8v121q55 -7 91.5 -0.5t55 43t18.5 110.5v684q0 94 -18 170t-55 134t-100 90t-147 32q-158 0 -243 -105.5t-85 -294.5v-590h-151v1215h-131v128h131v132h136v-132h246v-128h-246v-266q60 92 155.5 138.5t215.5 46.5q96 0 173 -31t127 -82
t83 -120.5t47 -142t14 -150.5v-797q0 -186 -145 -213z" />
    <glyph glyph-name="uni0453" unicode="&#x453;" horiz-adv-x="952" 
d="M484 1597h154l-123 -317h-102zM143 0v1106h758v-144h-607v-962h-151z" />
    <glyph glyph-name="uni0454" unicode="&#x454;" horiz-adv-x="1134" 
d="M601 -31q-242 0 -380.5 159t-138.5 424t137.5 425t378.5 160q172 0 297 -82.5t171 -224.5l-147 -47q-40 99 -124.5 154t-195.5 55q-160 0 -249.5 -101t-102.5 -274h494v-129h-494q15 -175 105 -274.5t250 -99.5q228 0 312 202l152 -45q-62 -148 -181 -225t-284 -77z" />
    <glyph glyph-name="uni0455" unicode="&#x455;" horiz-adv-x="1075" 
d="M556 -30q-194 0 -320 84t-154 234l154 25q24 -95 111.5 -150t216.5 -55q126 0 199 52.5t73 143.5q0 40 -11 65t-48.5 49t-97.5 44.5t-171 50.5q-225 61 -308.5 126.5t-83.5 181.5q0 141 116.5 228.5t303.5 87.5t312 -89t142 -234l-153 -28q-16 97 -97 154t-206 59
q-118 2 -192 -45.5t-74 -125.5q0 -45 27.5 -75.5t95.5 -57.5t201 -61q228 -58 314 -129t86 -199q0 -157 -116.5 -246.5t-319.5 -89.5z" />
    <glyph glyph-name="uni0456" unicode="&#x456;" horiz-adv-x="478" 
d="M239 1296q-44 0 -74.5 30t-30.5 74t30.5 74t74.5 30t74.5 -30t30.5 -74t-30.5 -74t-74.5 -30zM164 0v1106h150v-1106h-150z" />
    <glyph glyph-name="uni0457" unicode="&#x457;" horiz-adv-x="478" 
d="M433 1299q-44 0 -74 30.5t-30 74.5t30 74t74 30t75 -30.5t31 -73.5q0 -44 -31 -74.5t-75 -30.5zM44 1299q-45 0 -75 30.5t-30 74.5t30 74t75 30q44 0 74 -30t30 -74t-30 -74.5t-74 -30.5zM164 0v1106h150v-1106h-150z" />
    <glyph glyph-name="uni0458" unicode="&#x458;" horiz-adv-x="513" 
d="M281 1296q-44 0 -74.5 30t-30.5 74t30.5 74t74.5 30t74 -30t30 -74t-30 -74t-74 -30zM-20 -492v146h62q164 0 164 167v1285h149v-1323q0 -275 -268 -275h-107z" />
    <glyph glyph-name="uni0459" unicode="&#x459;" horiz-adv-x="1715" 
d="M41 0v132q23 -4 41.5 -4.5t33.5 3.5t26 10t20 18.5t15.5 24.5t12 32t9.5 37t9 43q39 225 76 810h697v-417h191q118 0 179 -10q125 -22 203.5 -103.5t78.5 -228.5q0 -140 -72 -224t-187 -109q-67 -14 -187 -14h-357l-1 962h-406q-37 -530 -80 -748q-9 -48 -20 -82
t-27.5 -63t-38.5 -46t-52.5 -26t-71 -8t-92.5 11zM981 129h200q101 0 152 13q61 16 103 65.5t42 140.5q0 167 -158 201q-51 11 -139 11h-200v-431z" />
    <glyph glyph-name="uni045A" unicode="&#x45a;" horiz-adv-x="1647" 
d="M142 0v1106h151v-417h469v417h151v-417h192q117 0 178 -10q59 -11 108.5 -34.5t89.5 -62.5t62.5 -99t22.5 -136q0 -140 -72 -224t-187 -109q-67 -14 -188 -14h-356l-1 560h-469v-560h-151zM913 129h200q102 0 153 13q61 16 102.5 65.5t41.5 140.5q0 167 -158 201
q-51 11 -139 11h-200v-431z" />
    <glyph glyph-name="uni045B" unicode="&#x45b;" 
d="M142 0v1215h-130v128h130v132h137v-132h246v-128h-246v-263q124 182 371 182q96 0 173 -31t127 -82t83 -120.5t47 -142t14 -150.5v-608h-152v564q0 94 -18 170t-55 134t-100 90t-147 32q-158 0 -243 -105.5t-85 -294.5v-590h-152z" />
    <glyph glyph-name="uni045C" unicode="&#x45c;" horiz-adv-x="1061" 
d="M516 1597h153l-122 -317h-104zM142 0l1 1106h152v-533l493 533h201l-518 -553l586 -553h-219l-543 532v-532h-153z" />
    <glyph glyph-name="uni045D" unicode="&#x45d;" horiz-adv-x="1165" 
d="M628 1597l71 -317h-102l-123 317h154zM1022 1106v-1106h-146v861l-607 -861h-127v1106h147v-854l607 854h126z" />
    <glyph glyph-name="uni045E" unicode="&#x45e;" horiz-adv-x="1080" 
d="M583 1237q-110 0 -187.5 77.5t-77.5 186.5h125q0 -58 41 -98.5t99 -40.5t98.5 40.5t40.5 98.5h125q0 -109 -77.5 -186.5t-186.5 -77.5zM301 -492l182 494l-449 1104h160l362 -909l336 909h154l-594 -1598h-151z" />
    <glyph glyph-name="uni045F" unicode="&#x45f;" horiz-adv-x="1165" 
d="M529 -246v246h-387v1106h151v-962h578v962h151v-1106h-342v-246h-151z" />
    <glyph glyph-name="uni0490" unicode="&#x490;" horiz-adv-x="1105" 
d="M143 0v1475h792v191h150v-336h-791v-1330h-151z" />
    <glyph glyph-name="uni0491" unicode="&#x491;" horiz-adv-x="952" 
d="M143 0v1106h608v191h150v-335h-607v-962h-151z" />
    <glyph glyph-name="Ustraitcy" unicode="&#x4ae;" horiz-adv-x="1138" 
d="M495 0v617l-495 858h174l396 -685l395 685h174l-493 -858v-617h-151z" />
    <glyph glyph-name="ustraitcy" unicode="&#x4af;" horiz-adv-x="1040" 
d="M442 -369v369l-401 1106h155l324 -909l327 909h152l-401 -1106v-369h-156z" />
    <glyph glyph-name="uni04BA" unicode="&#x4ba;" horiz-adv-x="1324" 
d="M294 1475v-601q149 85 362 85q141 0 243.5 -40t163.5 -115t89.5 -172.5t28.5 -222.5v-409h-152v356q0 220 -89 338t-298 118q-212 0 -348 -102v-710h-151v1475h151z" />
    <glyph glyph-name="uni04BB" unicode="&#x4bb;" horiz-adv-x="1141" 
d="M322 1106v-412q134 69 310 69q167 0 271.5 -75t136.5 -216q20 -89 20 -228v-244h-152v244q0 96 -12 160q-41 227 -295 227q-169 0 -279 -78v-553h-151v1106h151z" />
    <glyph glyph-name="uni04E8" unicode="&#x4e8;" horiz-adv-x="1522" 
d="M740 -31q-216 0 -370.5 98t-231.5 269.5t-77 400.5t77 400.5t231.5 269.5t370.5 98t371 -98t232 -269.5t77 -400.5t-77 -400.5t-232 -269.5t-371 -98zM740 1361q-157 0 -270.5 -69t-173 -191t-72.5 -289h1033q-12 166 -72 287.5t-173.5 191t-271.5 70.5zM740 114
q158 0 271.5 69t173.5 191t72 289h-1034q10 -166 70.5 -287.5t174.5 -191t272 -70.5z" />
    <glyph glyph-name="uni04E9" unicode="&#x4e9;" horiz-adv-x="1211" 
d="M605 -31q-243 0 -383 161.5t-140 423.5q0 263 141 423t382 160q163 0 282.5 -74.5t180.5 -205.5t61 -303q0 -264 -140.5 -424.5t-383.5 -160.5zM605 992q-164 0 -255.5 -100.5t-105.5 -274.5h724q-14 176 -106.5 275.5t-256.5 99.5zM605 114q164 0 256 100t107 274h-723
q14 -175 106.5 -274.5t253.5 -99.5z" />
    <glyph glyph-name="Wgrave" unicode="&#x1e80;" horiz-adv-x="1915" 
d="M915 1966l72 -317h-102l-123 317h153zM460 0l-426 1475h156l346 -1218l343 1217l157 1l345 -1218l343 1218h158l-425 -1475h-151l-349 1209l-346 -1209h-151z" />
    <glyph glyph-name="wgrave" unicode="&#x1e81;" horiz-adv-x="1571" 
d="M743 1597l72 -317h-103l-122 317h153zM379 0l-338 1107l150 -1l263 -859l263 859h137l263 -859l264 859h150l-338 -1106h-131l-277 881l-275 -881h-131z" />
    <glyph glyph-name="Wacute" unicode="&#x1e82;" horiz-adv-x="1915" 
d="M1000 1966h154l-122 -317h-103zM460 0l-426 1475h156l346 -1218l343 1217l157 1l345 -1218l343 1218h158l-425 -1475h-151l-349 1209l-346 -1209h-151z" />
    <glyph glyph-name="wacute" unicode="&#x1e83;" horiz-adv-x="1571" 
d="M828 1597h154l-123 -317h-102zM379 0l-338 1107l150 -1l263 -859l263 859h137l263 -859l264 859h150l-338 -1106h-131l-277 881l-275 -881h-131z" />
    <glyph glyph-name="Wdieresis" unicode="&#x1e84;" horiz-adv-x="1915" 
d="M1154 1668q-45 0 -75 30.5t-30 74.5t30 74t75 30q44 0 74 -30t30 -74t-30 -74.5t-74 -30.5zM764 1668q-44 0 -74.5 30.5t-30.5 74.5t30.5 74t74.5 30t74 -30t30 -74t-30 -74.5t-74 -30.5zM460 0l-426 1475h156l346 -1218l343 1217l157 1l345 -1218l343 1218h158
l-425 -1475h-151l-349 1209l-346 -1209h-151z" />
    <glyph glyph-name="wdieresis" unicode="&#x1e85;" horiz-adv-x="1571" 
d="M980 1299q-44 0 -74 30.5t-30 74.5t30 74t74 30t74.5 -30t30.5 -74t-30.5 -74.5t-74.5 -30.5zM591 1299q-45 0 -75.5 30.5t-30.5 74.5t30.5 74t75.5 30q44 0 74 -30t30 -74t-30 -74.5t-74 -30.5zM379 0l-338 1107l150 -1l263 -859l263 859h137l263 -859l264 859h150
l-338 -1106h-131l-277 881l-275 -881h-131z" />
    <glyph glyph-name="uni1E9E" unicode="&#x1e9e;" horiz-adv-x="1448" 
d="M859 -31q-99 0 -194 31v148q83 -28 184 -28q144 0 235.5 78.5t91.5 222.5q0 138 -105.5 218t-287.5 85l-17 111l258 441q-139 83 -295 83q-165 0 -270 -78.5t-136 -210.5q-24 -104 -24 -261v-809h-157v884q0 144 28 248q28 103 85.5 178t134.5 116t160.5 60t177.5 19
q151 0 269 -48t223 -120l-281 -496q74 -10 141.5 -41t123.5 -82t89 -128.5t33 -171.5q0 -210 -123.5 -329.5t-343.5 -119.5z" />
    <glyph glyph-name="uni1EA0" unicode="&#x1ea0;" horiz-adv-x="1297" 
d="M41 0l508 1475h200l507 -1475h-156l-124 357h-654l-124 -357h-157zM370 499h557l-280 807zM649 -413q-44 0 -74 30.5t-30 74.5t30 74t74 30t74.5 -30t30.5 -74t-30.5 -74.5t-74.5 -30.5z" />
    <glyph glyph-name="uni1EA1" unicode="&#x1ea1;" horiz-adv-x="1137" 
d="M460 -31q-180 0 -279 94t-99 234q0 246 282 321q126 30 503 79q-2 154 -70.5 225.5t-224.5 71.5q-241 0 -302 -213l-146 43q39 150 154 231.5t296 81.5q152 0 258.5 -57.5t149.5 -164.5q33 -79 33 -228v-687h-134v182q-64 -104 -172 -158.5t-249 -54.5zM477 99
q154 0 253 81t121 210q14 63 14 176q-335 -39 -441 -68q-192 -57 -192 -201q0 -81 60.5 -139.5t184.5 -58.5zM561 -413q-45 0 -75 30.5t-30 74.5t30 74t75 30q44 0 74.5 -30t30.5 -74t-30.5 -74.5t-74.5 -30.5z" />
    <glyph glyph-name="uni1EA2" unicode="&#x1ea2;" horiz-adv-x="1297" 
d="M529 1880l-48 79q42 43 98 60t112.5 -2.5t90.5 -78.5q35 -64 23 -122.5t-54 -103t-100 -65.5l-50 69q63 29 87.5 74t-0.5 91q-17 29 -45.5 36.5t-57.5 -3.5t-56 -34zM41 0l508 1475h200l507 -1475h-156l-124 357h-654l-124 -357h-157zM370 499h557l-280 807z" />
    <glyph glyph-name="uni1EA3" unicode="&#x1ea3;" horiz-adv-x="1137" 
d="M469 1514l-49 79q43 43 99 60t112 -2.5t90 -77.5q34 -65 22.5 -123.5t-53.5 -103.5t-100 -65l-49 70q63 29 87.5 74.5t-0.5 90.5q-17 29 -45.5 36t-58 -4t-55.5 -34zM460 -31q-180 0 -279 94t-99 234q0 246 282 321q126 30 503 79q-2 154 -70.5 225.5t-224.5 71.5
q-241 0 -302 -213l-146 43q39 150 154 231.5t296 81.5q152 0 258.5 -57.5t149.5 -164.5q33 -79 33 -228v-687h-134v182q-64 -104 -172 -158.5t-249 -54.5zM477 99q154 0 253 81t121 210q14 63 14 176q-335 -39 -441 -68q-192 -57 -192 -201q0 -81 60.5 -139.5t184.5 -58.5z
" />
    <glyph glyph-name="uni1EA4" unicode="&#x1ea4;" horiz-adv-x="1297" 
d="M1016 2181h152l-121 -317h-104zM343 1649l235 276h139l235 -276h-153l-152 177l-150 -177h-154zM41 0l508 1475h200l507 -1475h-156l-124 357h-654l-124 -357h-157zM370 499h557l-280 807z" />
    <glyph glyph-name="uni1EA5" unicode="&#x1ea5;" horiz-adv-x="1137" 
d="M961 1812h152l-122 -317h-103zM288 1280l234 276h140l235 -276h-154l-151 177l-151 -177h-153zM460 -31q-180 0 -279 94t-99 234q0 246 282 321q126 30 503 79q-2 154 -70.5 225.5t-224.5 71.5q-241 0 -302 -213l-146 43q39 150 154 231.5t296 81.5q152 0 258.5 -57.5
t149.5 -164.5q33 -79 33 -228v-687h-134v182q-64 -104 -172 -158.5t-249 -54.5zM477 99q154 0 253 81t121 210q14 63 14 176q-335 -39 -441 -68q-192 -57 -192 -201q0 -81 60.5 -139.5t184.5 -58.5z" />
    <glyph glyph-name="uni1EA6" unicode="&#x1ea6;" horiz-adv-x="1297" 
d="M945 2181l73 -317h-104l-121 317h152zM343 1649l235 276h139l235 -276h-153l-152 177l-150 -177h-154zM41 0l508 1475h200l507 -1475h-156l-124 357h-654l-124 -357h-157zM370 499h557l-280 807z" />
    <glyph glyph-name="uni1EA7" unicode="&#x1ea7;" horiz-adv-x="1137" 
d="M895 1812l73 -317h-104l-122 317h153zM293 1280l234 276h140l235 -276h-153l-152 177l-151 -177h-153zM460 -31q-180 0 -279 94t-99 234q0 246 282 321q126 30 503 79q-2 154 -70.5 225.5t-224.5 71.5q-241 0 -302 -213l-146 43q39 150 154 231.5t296 81.5
q152 0 258.5 -57.5t149.5 -164.5q33 -79 33 -228v-687h-134v182q-64 -104 -172 -158.5t-249 -54.5zM477 99q154 0 253 81t121 210q14 63 14 176q-335 -39 -441 -68q-192 -57 -192 -201q0 -81 60.5 -139.5t184.5 -58.5z" />
    <glyph glyph-name="uni1EA8" unicode="&#x1ea8;" horiz-adv-x="1297" 
d="M949 1880l-49 79q42 43 98 60t112.5 -2.5t90.5 -78.5q35 -64 23 -122.5t-54 -103t-100 -65.5l-50 69q63 29 88 74.5t0 90.5q-17 29 -45.5 36.5t-58 -3.5t-55.5 -34zM344 1649l235 276h139l235 -276h-153l-152 177l-150 -177h-154zM41 0l508 1475h200l507 -1475h-156
l-124 357h-654l-124 -357h-157zM370 499h557l-280 807z" />
    <glyph glyph-name="uni1EA9" unicode="&#x1ea9;" horiz-adv-x="1137" 
d="M872 1511l-49 79q43 43 99 60t112 -2t90 -78q35 -64 23 -123t-54 -103.5t-100 -65.5l-49 70q63 29 87.5 74t-0.5 90q-17 29 -45.5 36.5t-58 -3.5t-55.5 -34zM267 1280l236 276h139l235 -276h-154l-151 177l-151 -177h-154zM460 -31q-180 0 -279 94t-99 234q0 246 282 321
q126 30 503 79q-2 154 -70.5 225.5t-224.5 71.5q-241 0 -302 -213l-146 43q39 150 154 231.5t296 81.5q152 0 258.5 -57.5t149.5 -164.5q33 -79 33 -228v-687h-134v182q-64 -104 -172 -158.5t-249 -54.5zM477 99q154 0 253 81t121 210q14 63 14 176q-335 -39 -441 -68
q-192 -57 -192 -201q0 -81 60.5 -139.5t184.5 -58.5z" />
    <glyph glyph-name="uni1EAA" unicode="&#x1eaa;" horiz-adv-x="1297" 
d="M807 1976q-49 0 -107.5 29t-109.5 58t-84 29q-38 0 -50.5 -30t-0.5 -68h-107q-24 93 18.5 156t131.5 63q39 0 85 -18t80 -40t72.5 -40t65.5 -18q35 0 49 30.5t1 71.5h106q24 -93 -18 -158t-132 -65zM341 1649l234 276h140l235 -276h-153l-152 177l-150 -177h-154zM41 0
l508 1475h200l507 -1475h-156l-124 357h-654l-124 -357h-157zM370 499h557l-280 807z" />
    <glyph glyph-name="uni1EAB" unicode="&#x1eab;" horiz-adv-x="1137" 
d="M742 1608q-49 0 -107 29t-109.5 57.5t-84.5 28.5q-37 0 -50.5 -31.5t0.5 -66.5h-106q-24 93 18 156t131 63q50 0 108 -29t109.5 -57.5t84.5 -28.5q35 0 49 29.5t2 71.5h107q24 -92 -18.5 -157t-133.5 -65zM278 1280l234 276h139l235 -276h-154l-150 177l-151 -177h-153z
M460 -31q-180 0 -279 94t-99 234q0 246 282 321q126 30 503 79q-2 154 -70.5 225.5t-224.5 71.5q-241 0 -302 -213l-146 43q39 150 154 231.5t296 81.5q152 0 258.5 -57.5t149.5 -164.5q33 -79 33 -228v-687h-134v182q-64 -104 -172 -158.5t-249 -54.5zM477 99q154 0 253 81
t121 210q14 63 14 176q-335 -39 -441 -68q-192 -57 -192 -201q0 -81 60.5 -139.5t184.5 -58.5z" />
    <glyph glyph-name="uni1EAC" unicode="&#x1eac;" horiz-adv-x="1297" 
d="M344 1649l235 276h139l235 -276h-153l-152 177l-150 -177h-154zM41 0l508 1475h200l507 -1475h-156l-124 357h-654l-124 -357h-157zM370 499h557l-280 807zM649 -413q-44 0 -74 30.5t-30 74.5t30 74t74 30t74.5 -30t30.5 -74t-30.5 -74.5t-74.5 -30.5z" />
    <glyph glyph-name="uni1EAD" unicode="&#x1ead;" horiz-adv-x="1137" 
d="M280 1280l235 276h139l235 -276h-154l-150 177l-152 -177h-153zM460 -31q-180 0 -279 94t-99 234q0 246 282 321q126 30 503 79q-2 154 -70.5 225.5t-224.5 71.5q-241 0 -302 -213l-146 43q39 150 154 231.5t296 81.5q152 0 258.5 -57.5t149.5 -164.5q33 -79 33 -228
v-687h-134v182q-64 -104 -172 -158.5t-249 -54.5zM477 99q154 0 253 81t121 210q14 63 14 176q-335 -39 -441 -68q-192 -57 -192 -201q0 -81 60.5 -139.5t184.5 -58.5zM561 -413q-45 0 -75 30.5t-30 74.5t30 74t75 30q44 0 74.5 -30t30.5 -74t-30.5 -74.5t-74.5 -30.5z" />
    <glyph glyph-name="uni1EAE" unicode="&#x1eae;" horiz-adv-x="1297" 
d="M680 2243h154l-122 -318h-104zM649 1606q-109 0 -186.5 77t-77.5 187h125q0 -58 40.5 -98.5t98.5 -40.5t98.5 40.5t40.5 98.5h125q0 -109 -77.5 -186.5t-186.5 -77.5zM41 0l508 1475h200l507 -1475h-156l-124 357h-654l-124 -357h-157zM370 499h557l-280 807z" />
    <glyph glyph-name="uni1EAF" unicode="&#x1eaf;" horiz-adv-x="1137" 
d="M614 1874h153l-122 -318h-103zM583 1237q-110 0 -187.5 77.5t-77.5 186.5h125q0 -58 41 -98.5t99 -40.5t98.5 40.5t40.5 98.5h125q0 -109 -77.5 -186.5t-186.5 -77.5zM460 -31q-180 0 -279 94t-99 234q0 246 282 321q126 30 503 79q-2 154 -70.5 225.5t-224.5 71.5
q-241 0 -302 -213l-146 43q39 150 154 231.5t296 81.5q152 0 258.5 -57.5t149.5 -164.5q33 -79 33 -228v-687h-134v182q-64 -104 -172 -158.5t-249 -54.5zM477 99q154 0 253 81t121 210q14 63 14 176q-335 -39 -441 -68q-192 -57 -192 -201q0 -81 60.5 -139.5t184.5 -58.5z
" />
    <glyph glyph-name="uni1EB0" unicode="&#x1eb0;" horiz-adv-x="1297" 
d="M617 2243l72 -318h-102l-123 318h153zM649 1606q-109 0 -186.5 77t-77.5 187h125q0 -58 40.5 -98.5t98.5 -40.5q57 0 98 40.5t41 98.5h125q0 -109 -77.5 -186.5t-186.5 -77.5zM41 0l508 1475h200l507 -1475h-156l-124 357h-654l-124 -357h-157zM370 499h557l-280 807z
" />
    <glyph glyph-name="uni1EB1" unicode="&#x1eb1;" horiz-adv-x="1137" 
d="M558 1874l72 -318h-103l-123 318h154zM590 1237q-110 0 -187 77.5t-77 186.5h125q0 -58 40.5 -98.5t98.5 -40.5q57 0 98 40.5t41 98.5h125q0 -109 -77.5 -186.5t-186.5 -77.5zM460 -31q-180 0 -279 94t-99 234q0 246 282 321q126 30 503 79q-2 154 -70.5 225.5
t-224.5 71.5q-241 0 -302 -213l-146 43q39 150 154 231.5t296 81.5q152 0 258.5 -57.5t149.5 -164.5q33 -79 33 -228v-687h-134v182q-64 -104 -172 -158.5t-249 -54.5zM477 99q154 0 253 81t121 210q14 63 14 176q-335 -39 -441 -68q-192 -57 -192 -201q0 -81 60.5 -139.5
t184.5 -58.5z" />
    <glyph glyph-name="uni1EB2" unicode="&#x1eb2;" horiz-adv-x="1297" 
d="M504 2140l-48 79q42 43 98 60t112.5 -2t90.5 -78q35 -64 23 -123t-54 -103.5t-100 -65.5l-51 69q63 29 88 74t0 91q-17 29 -45.5 36.5t-57.5 -3.5t-56 -34zM649 1606q-109 0 -186.5 77t-77.5 187h125q0 -58 40.5 -98.5t98.5 -40.5t98.5 40.5t40.5 98.5h125
q0 -109 -77.5 -186.5t-186.5 -77.5zM41 0l508 1475h200l507 -1475h-156l-124 357h-654l-124 -357h-157zM370 499h557l-280 807z" />
    <glyph glyph-name="uni1EB3" unicode="&#x1eb3;" horiz-adv-x="1137" 
d="M459 1772l-48 78q42 43 98 60t112.5 -2t90.5 -78q35 -64 23 -123t-54 -103.5t-100 -65.5l-51 70q63 29 87.5 74t-0.5 91q-17 29 -45 36t-57 -3.5t-56 -33.5zM604 1237q-110 0 -187 77.5t-77 186.5h125q0 -58 40.5 -98.5t98.5 -40.5t98.5 40.5t40.5 98.5h125
q0 -109 -77.5 -186.5t-186.5 -77.5zM460 -31q-180 0 -279 94t-99 234q0 246 282 321q126 30 503 79q-2 154 -70.5 225.5t-224.5 71.5q-241 0 -302 -213l-146 43q39 150 154 231.5t296 81.5q152 0 258.5 -57.5t149.5 -164.5q33 -79 33 -228v-687h-134v182
q-64 -104 -172 -158.5t-249 -54.5zM477 99q154 0 253 81t121 210q14 63 14 176q-335 -39 -441 -68q-192 -57 -192 -201q0 -81 60.5 -139.5t184.5 -58.5z" />
    <glyph glyph-name="uni1EB4" unicode="&#x1eb4;" horiz-adv-x="1297" 
d="M788 1928q-39 0 -84.5 18.5t-79.5 40t-72 40t-65 18.5q-38 0 -50.5 -30t-0.5 -69h-106q-24 93 18 156.5t131 63.5q39 0 85 -18.5t80 -40t72.5 -40t65.5 -18.5q35 0 49.5 30t1.5 72h106q24 -93 -18 -158t-133 -65zM632 1606q-110 0 -187 77t-77 187h125q0 -58 40.5 -98.5
t98.5 -40.5t98.5 40.5t40.5 98.5h125q0 -110 -77 -187t-187 -77zM41 0l508 1475h200l507 -1475h-156l-124 357h-654l-124 -357h-157zM370 499h557l-280 807z" />
    <glyph glyph-name="uni1EB5" unicode="&#x1eb5;" horiz-adv-x="1137" 
d="M718 1560q-49 0 -107.5 29t-109.5 58t-84 29q-38 0 -50.5 -30t-0.5 -69h-107q-24 93 18.5 156.5t131.5 63.5q50 0 108.5 -29.5t110 -58.5t84.5 -29q35 0 49 30.5t1 72.5h106q24 -93 -18 -158t-132 -65zM561 1237q-109 0 -186.5 77.5t-77.5 186.5h125q0 -58 40.5 -98.5
t98.5 -40.5t98.5 40.5t40.5 98.5h125q0 -109 -77.5 -186.5t-186.5 -77.5zM460 -31q-180 0 -279 94t-99 234q0 246 282 321q126 30 503 79q-2 154 -70.5 225.5t-224.5 71.5q-241 0 -302 -213l-146 43q39 150 154 231.5t296 81.5q152 0 258.5 -57.5t149.5 -164.5
q33 -79 33 -228v-687h-134v182q-64 -104 -172 -158.5t-249 -54.5zM477 99q154 0 253 81t121 210q14 63 14 176q-335 -39 -441 -68q-192 -57 -192 -201q0 -81 60.5 -139.5t184.5 -58.5z" />
    <glyph glyph-name="uni1EB6" unicode="&#x1eb6;" horiz-adv-x="1297" 
d="M650 1606q-110 0 -187 77t-77 187h125q0 -58 40.5 -98.5t98.5 -40.5t99 40.5t41 98.5h124q0 -109 -77.5 -186.5t-186.5 -77.5zM41 0l508 1475h200l507 -1475h-156l-124 357h-654l-124 -357h-157zM370 499h557l-280 807zM649 -413q-44 0 -74 30.5t-30 74.5t30 74t74 30
t74.5 -30t30.5 -74t-30.5 -74.5t-74.5 -30.5z" />
    <glyph glyph-name="uni1EB7" unicode="&#x1eb7;" horiz-adv-x="1137" 
d="M585 1237q-109 0 -186.5 77.5t-77.5 186.5h124q0 -58 41 -98.5t99 -40.5t98.5 40.5t40.5 98.5h125q0 -109 -77.5 -186.5t-186.5 -77.5zM460 -31q-180 0 -279 94t-99 234q0 246 282 321q126 30 503 79q-2 154 -70.5 225.5t-224.5 71.5q-241 0 -302 -213l-146 43
q39 150 154 231.5t296 81.5q152 0 258.5 -57.5t149.5 -164.5q33 -79 33 -228v-687h-134v182q-64 -104 -172 -158.5t-249 -54.5zM477 99q154 0 253 81t121 210q14 63 14 176q-335 -39 -441 -68q-192 -57 -192 -201q0 -81 60.5 -139.5t184.5 -58.5zM561 -413q-45 0 -75 30.5
t-30 74.5t30 74t75 30q44 0 74.5 -30t30.5 -74t-30.5 -74.5t-74.5 -30.5z" />
    <glyph glyph-name="uni1EB8" unicode="&#x1eb8;" horiz-adv-x="1228" 
d="M143 0v1475h922v-145h-771v-510h648v-144h-648v-532h771v-144h-922zM604 -413q-44 0 -74 30.5t-30 74.5t30 74t74 30t75 -30.5t31 -73.5q0 -44 -31 -74.5t-75 -30.5z" />
    <glyph glyph-name="uni1EB9" unicode="&#x1eb9;" horiz-adv-x="1197" 
d="M611 -31q-242 0 -385.5 158t-143.5 421q0 271 141.5 430t381.5 159q246 0 381.5 -167t127.5 -459h-871q10 -190 103.5 -293.5t258.5 -103.5q118 0 206.5 54.5t140.5 158.5l141 -55q-66 -144 -193 -223.5t-289 -79.5zM609 998q-159 0 -252 -93t-111 -268h710
q-36 361 -347 361zM613 -413q-45 0 -75 30.5t-30 74.5t30 74t75 30q44 0 74.5 -30t30.5 -74t-30.5 -74.5t-74.5 -30.5z" />
    <glyph glyph-name="uni1EBA" unicode="&#x1eba;" horiz-adv-x="1167" 
d="M497 1880l-50 79q42 43 98.5 60t113 -2.5t90.5 -78.5q35 -64 22.5 -122.5t-54.5 -103t-100 -65.5l-50 69q63 29 88 74.5t0 90.5q-17 29 -45.5 36.5t-57.5 -3.5t-55 -34zM143 0v1475h922v-145h-771v-510h648v-144h-648v-532h771v-144h-922z" />
    <glyph glyph-name="uni1EBB" unicode="&#x1ebb;" horiz-adv-x="1228" 
d="M500 1514l-49 79q43 43 99 60t112 -2.5t90 -77.5q34 -65 22.5 -123.5t-53.5 -103.5t-100 -65l-50 70q63 29 87.5 74.5t-0.5 90.5q-17 29 -45.5 36t-57.5 -4t-55 -34zM611 -31q-242 0 -385.5 158t-143.5 421q0 271 141.5 430t381.5 159q246 0 381.5 -167t127.5 -459h-871
q10 -190 103.5 -293.5t258.5 -103.5q118 0 206.5 54.5t140.5 158.5l141 -55q-66 -144 -193 -223.5t-289 -79.5zM609 998q-159 0 -252 -93t-111 -268h710q-36 361 -347 361z" />
    <glyph glyph-name="uni1EBC" unicode="&#x1ebc;" horiz-adv-x="1167" 
d="M751 1651q-39 0 -84 18t-79 39.5t-72.5 39.5t-65.5 18q-38 0 -50.5 -30t-0.5 -68h-106q-24 93 18 156t131 63q50 0 108 -28.5t109.5 -57.5t84.5 -29q35 0 49.5 30t2.5 71h106q24 -93 -18 -157.5t-133 -64.5zM143 0v1475h922v-145h-771v-510h648v-144h-648v-532h771v-144
h-922z" />
    <glyph glyph-name="uni1EBD" unicode="&#x1ebd;" horiz-adv-x="1197" 
d="M766 1282q-49 0 -107.5 29t-109.5 58t-84 29q-38 0 -51 -32t1 -67h-107q-24 93 18 156.5t132 63.5q50 0 108 -29t109.5 -58t84.5 -29q35 0 49 30t1 71h106q24 -93 -18 -157.5t-132 -64.5zM611 -31q-242 0 -385.5 158t-143.5 421q0 271 141.5 430t381.5 159
q246 0 381.5 -167t127.5 -459h-871q10 -190 103.5 -293.5t258.5 -103.5q118 0 206.5 54.5t140.5 158.5l141 -55q-66 -144 -193 -223.5t-289 -79.5zM609 998q-159 0 -252 -93t-111 -268h710q-36 361 -347 361z" />
    <glyph glyph-name="uni1EBE" unicode="&#x1ebe;" horiz-adv-x="1167" 
d="M964 2181h153l-123 -317h-102zM291 1649l235 276h140l234 -276h-154l-150 177l-152 -177h-153zM143 0v1475h922v-145h-771v-510h648v-144h-648v-532h771v-144h-922z" />
    <glyph glyph-name="uni1EBF" unicode="&#x1ebf;" horiz-adv-x="1197" 
d="M990 1812h154l-122 -317h-103zM318 1280l235 276h139l235 -276h-154l-150 177l-151 -177h-154zM611 -31q-242 0 -385.5 158t-143.5 421q0 271 141.5 430t381.5 159q246 0 381.5 -167t127.5 -459h-871q10 -190 103.5 -293.5t258.5 -103.5q118 0 206.5 54.5t140.5 158.5
l141 -55q-66 -144 -193 -223.5t-289 -79.5zM609 998q-159 0 -252 -93t-111 -268h710q-36 361 -347 361z" />
    <glyph glyph-name="uni1EC0" unicode="&#x1ec0;" horiz-adv-x="1167" 
d="M936 2181l72 -317h-103l-123 317h154zM334 1649l234 276h140l234 -276h-154l-150 177l-151 -177h-153zM143 0v1475h922v-145h-771v-510h648v-144h-648v-532h771v-144h-922z" />
    <glyph glyph-name="uni1EC1" unicode="&#x1ec1;" horiz-adv-x="1197" 
d="M901 1812l73 -317h-104l-121 317h152zM299 1280l235 276h139l235 -276h-153l-152 177l-150 -177h-154zM611 -31q-242 0 -385.5 158t-143.5 421q0 271 141.5 430t381.5 159q246 0 381.5 -167t127.5 -459h-871q10 -190 103.5 -293.5t258.5 -103.5q118 0 206.5 54.5
t140.5 158.5l141 -55q-66 -144 -193 -223.5t-289 -79.5zM609 998q-159 0 -252 -93t-111 -268h710q-36 361 -347 361z" />
    <glyph glyph-name="uni1EC2" unicode="&#x1ec2;" horiz-adv-x="1228" 
d="M911 1880l-48 79q42 43 98 60t112.5 -2.5t90.5 -78.5q35 -64 23 -122.5t-54 -103t-100 -65.5l-50 69q63 29 87.5 74t-0.5 91q-17 29 -45.5 36.5t-57.5 -3.5t-56 -34zM307 1649l235 276h139l234 -276h-153l-151 177l-150 -177h-154zM143 0v1475h922v-145h-771v-510h648
v-144h-648v-532h771v-144h-922z" />
    <glyph glyph-name="uni1EC3" unicode="&#x1ec3;" horiz-adv-x="1197" 
d="M914 1511l-49 79q43 43 99 60t112 -2t90 -78q35 -64 23 -123t-54 -103.5t-100 -65.5l-49 70q63 29 87.5 74t-0.5 90q-17 29 -45.5 36.5t-58 -3.5t-55.5 -34zM309 1280l236 276h139l235 -276h-154l-151 177l-151 -177h-154zM611 -31q-242 0 -385.5 158t-143.5 421
q0 271 141.5 430t381.5 159q246 0 381.5 -167t127.5 -459h-871q10 -190 103.5 -293.5t258.5 -103.5q118 0 206.5 54.5t140.5 158.5l141 -55q-66 -144 -193 -223.5t-289 -79.5zM609 998q-159 0 -252 -93t-111 -268h710q-36 361 -347 361z" />
    <glyph glyph-name="uni1EC4" unicode="&#x1ec4;" horiz-adv-x="1167" 
d="M761 1976q-49 0 -107.5 29t-109.5 58t-84 29q-38 0 -50.5 -30t-0.5 -68h-107q-24 93 18.5 156t131.5 63q39 0 85 -18t80 -40t72.5 -40t65.5 -18q35 0 49 30.5t1 71.5h106q24 -93 -18 -158t-132 -65zM295 1649l234 276h140l235 -276h-153l-152 177l-150 -177h-154zM143 0
v1475h922v-145h-771v-510h648v-144h-648v-532h771v-144h-922z" />
    <glyph glyph-name="uni1EC5" unicode="&#x1ec5;" horiz-adv-x="1197" 
d="M771 1608q-49 0 -107 29t-109.5 57.5t-84.5 28.5q-37 0 -50.5 -31.5t0.5 -66.5h-107q-24 93 18.5 156t131.5 63q50 0 108.5 -29t109.5 -57.5t84 -28.5q35 0 49 29.5t2 71.5h107q24 -92 -18.5 -157t-133.5 -65zM306 1280l235 276h139l234 -276h-153l-151 177l-150 -177
h-154zM611 -31q-242 0 -385.5 158t-143.5 421q0 271 141.5 430t381.5 159q246 0 381.5 -167t127.5 -459h-871q10 -190 103.5 -293.5t258.5 -103.5q118 0 206.5 54.5t140.5 158.5l141 -55q-66 -144 -193 -223.5t-289 -79.5zM609 998q-159 0 -252 -93t-111 -268h710
q-36 361 -347 361z" />
    <glyph glyph-name="uni1EC6" unicode="&#x1ec6;" horiz-adv-x="1167" 
d="M288 1649l235 276h140l234 -276h-154l-150 177l-152 -177h-153zM143 0v1475h922v-145h-771v-510h648v-144h-648v-532h771v-144h-922zM604 -413q-44 0 -74 30.5t-30 74.5t30 74t74 30t75 -30.5t31 -73.5q0 -44 -31 -74.5t-75 -30.5z" />
    <glyph glyph-name="uni1EC7" unicode="&#x1ec7;" horiz-adv-x="1197" 
d="M300 1280l235 276h139l234 -276h-153l-151 177l-150 -177h-154zM611 -31q-242 0 -385.5 158t-143.5 421q0 271 141.5 430t381.5 159q246 0 381.5 -167t127.5 -459h-871q10 -190 103.5 -293.5t258.5 -103.5q118 0 206.5 54.5t140.5 158.5l141 -55q-66 -144 -193 -223.5
t-289 -79.5zM609 998q-159 0 -252 -93t-111 -268h710q-36 361 -347 361zM599 -413q-45 0 -75 30.5t-30 74.5t30 74t75 30q44 0 74 -30t30 -74t-30 -74.5t-74 -30.5z" />
    <glyph glyph-name="uni1EC8" unicode="&#x1ec8;" horiz-adv-x="478" 
d="M110 1880l-50 79q42 43 98 60t112.5 -2.5t90.5 -78.5q35 -64 23 -122.5t-54 -103t-100 -65.5l-50 69q63 29 88 74.5t0 90.5q-17 29 -45.5 36.5t-57.5 -3.5t-55 -34zM164 0v1475h150v-1475h-150z" />
    <glyph glyph-name="uni1EC9" unicode="&#x1ec9;" horiz-adv-x="478" 
d="M105 1514l-49 79q43 43 99 60t112 -2.5t90 -77.5q34 -65 22.5 -123.5t-53.5 -103.5t-100 -65l-49 70q63 29 87.5 74.5t-0.5 90.5q-17 29 -45.5 36t-58 -4t-55.5 -34zM164 0v1106h150v-1106h-150z" />
    <glyph glyph-name="uni1ECA" unicode="&#x1eca;" horiz-adv-x="478" 
d="M164 0v1475h150v-1475h-150zM240 -413q-45 0 -75.5 30.5t-30.5 74.5t30.5 74t75.5 30q44 0 74 -30t30 -74t-30 -74.5t-74 -30.5z" />
    <glyph glyph-name="uni1ECB" unicode="&#x1ecb;" horiz-adv-x="478" 
d="M239 1296q-44 0 -74.5 30t-30.5 74t30.5 74t74.5 30t74.5 -30t30.5 -74t-30.5 -74t-74.5 -30zM164 0v1106h150v-1106h-150zM240 -413q-45 0 -75.5 30.5t-30.5 74.5t30.5 74t75.5 30q44 0 74 -30t30 -74t-30 -74.5t-74 -30.5z" />
    <glyph glyph-name="uni1ECC" unicode="&#x1ecc;" horiz-adv-x="1481" 
d="M740 -31q-216 0 -370.5 98t-231.5 269.5t-77 400.5t77 400.5t231.5 269.5t370.5 98t371 -98t232 -269.5t77 -400.5t-77 -400.5t-232 -269.5t-371 -98zM740 114q169 0 288 79.5t176 218t57 325.5t-57 325.5t-176 218t-288 80.5q-169 0 -286.5 -79.5t-174 -218
t-58.5 -326.5q-2 -284 132 -453t387 -170zM725 -413q-45 0 -75 30.5t-30 74.5t30 74t75 30q44 0 74 -30t30 -74t-30 -74.5t-74 -30.5z" />
    <glyph glyph-name="uni1ECD" unicode="&#x1ecd;" horiz-adv-x="1211" 
d="M605 -31q-243 0 -383 161.5t-140 423.5q0 263 141 423t382 160q163 0 282.5 -74.5t180.5 -205.5t61 -303q0 -264 -140.5 -424.5t-383.5 -160.5zM605 114q179 0 272 119t93 321q0 205 -93 321.5t-272 116.5q-180 0 -271.5 -118.5t-91.5 -319.5q0 -204 93.5 -322
t269.5 -118zM606 -413q-44 0 -74 30.5t-30 74.5t30 74t74 30t74.5 -30t30.5 -74t-30.5 -74.5t-74.5 -30.5z" />
    <glyph glyph-name="uni1ECE" unicode="&#x1ece;" horiz-adv-x="1481" 
d="M655 1880l-48 79q42 43 98 60t112.5 -2.5t90.5 -78.5q35 -64 23 -122.5t-54 -103t-100 -65.5l-50 69q63 29 87.5 74t-0.5 91q-17 29 -45.5 36.5t-57.5 -3.5t-56 -34zM740 -31q-216 0 -370.5 98t-231.5 269.5t-77 400.5t77 400.5t231.5 269.5t370.5 98t371 -98t232 -269.5
t77 -400.5t-77 -400.5t-232 -269.5t-371 -98zM740 114q169 0 288 79.5t176 218t57 325.5t-57 325.5t-176 218t-288 80.5q-169 0 -286.5 -79.5t-174 -218t-58.5 -326.5q-2 -284 132 -453t387 -170z" />
    <glyph glyph-name="uni1ECF" unicode="&#x1ecf;" horiz-adv-x="1211" 
d="M500 1514l-49 79q43 43 99 60t112 -2.5t90 -77.5q34 -65 22.5 -123.5t-53.5 -103.5t-100 -65l-50 70q63 29 87.5 74.5t-0.5 90.5q-17 29 -45.5 36t-57.5 -4t-55 -34zM605 -31q-243 0 -383 161.5t-140 423.5q0 263 141 423t382 160q163 0 282.5 -74.5t180.5 -205.5
t61 -303q0 -264 -140.5 -424.5t-383.5 -160.5zM605 114q179 0 272 119t93 321q0 205 -93 321.5t-272 116.5q-180 0 -271.5 -118.5t-91.5 -319.5q0 -204 93.5 -322t269.5 -118z" />
    <glyph glyph-name="uni1ED0" unicode="&#x1ed0;" horiz-adv-x="1481" 
d="M1120 2181h154l-122 -317h-103zM449 1649l234 276h139l235 -276h-154l-150 177l-151 -177h-153zM740 -31q-216 0 -370.5 98t-231.5 269.5t-77 400.5t77 400.5t231.5 269.5t370.5 98t371 -98t232 -269.5t77 -400.5t-77 -400.5t-232 -269.5t-371 -98zM740 114
q169 0 288 79.5t176 218t57 325.5t-57 325.5t-176 218t-288 80.5q-169 0 -286.5 -79.5t-174 -218t-58.5 -326.5q-2 -284 132 -453t387 -170z" />
    <glyph glyph-name="uni1ED1" unicode="&#x1ed1;" horiz-adv-x="1211" 
d="M984 1812h154l-122 -317h-104zM312 1280l235 276h139l235 -276h-154l-151 177l-150 -177h-154zM605 -31q-243 0 -383 161.5t-140 423.5q0 263 141 423t382 160q163 0 282.5 -74.5t180.5 -205.5t61 -303q0 -264 -140.5 -424.5t-383.5 -160.5zM605 114q179 0 272 119
t93 321q0 205 -93 321.5t-272 116.5q-180 0 -271.5 -118.5t-91.5 -319.5q0 -204 93.5 -322t269.5 -118z" />
    <glyph glyph-name="uni1ED2" unicode="&#x1ed2;" horiz-adv-x="1481" 
d="M1038 2181l72 -317h-103l-122 317h153zM435 1649l236 276h139l234 -276h-153l-151 177l-151 -177h-154zM740 -31q-216 0 -370.5 98t-231.5 269.5t-77 400.5t77 400.5t231.5 269.5t370.5 98t371 -98t232 -269.5t77 -400.5t-77 -400.5t-232 -269.5t-371 -98zM740 114
q169 0 288 79.5t176 218t57 325.5t-57 325.5t-176 218t-288 80.5q-169 0 -286.5 -79.5t-174 -218t-58.5 -326.5q-2 -284 132 -453t387 -170z" />
    <glyph glyph-name="uni1ED3" unicode="&#x1ed3;" horiz-adv-x="1211" 
d="M925 1812l71 -317h-102l-123 317h154zM323 1280l234 276h139l235 -276h-154l-150 177l-151 -177h-153zM605 -31q-243 0 -383 161.5t-140 423.5q0 263 141 423t382 160q163 0 282.5 -74.5t180.5 -205.5t61 -303q0 -264 -140.5 -424.5t-383.5 -160.5zM605 114
q179 0 272 119t93 321q0 205 -93 321.5t-272 116.5q-180 0 -271.5 -118.5t-91.5 -319.5q0 -204 93.5 -322t269.5 -118z" />
    <glyph glyph-name="uni1ED4" unicode="&#x1ed4;" horiz-adv-x="1481" 
d="M1065 1880l-49 79q42 43 98 60t112.5 -2.5t90.5 -78.5q35 -64 23 -122.5t-54 -103t-100 -65.5l-50 69q63 29 88 74.5t0 90.5q-17 29 -45.5 36.5t-58 -3.5t-55.5 -34zM460 1649l234 276h140l235 -276h-154l-151 177l-151 -177h-153zM740 -31q-216 0 -370.5 98
t-231.5 269.5t-77 400.5t77 400.5t231.5 269.5t370.5 98t371 -98t232 -269.5t77 -400.5t-77 -400.5t-232 -269.5t-371 -98zM740 114q169 0 288 79.5t176 218t57 325.5t-57 325.5t-176 218t-288 80.5q-169 0 -286.5 -79.5t-174 -218t-58.5 -326.5q-2 -284 132 -453t387 -170z
" />
    <glyph glyph-name="uni1ED5" unicode="&#x1ed5;" horiz-adv-x="1211" 
d="M904 1511l-49 79q43 43 99 60t112 -2t90 -78q35 -64 23 -123t-54 -103.5t-100 -65.5l-49 70q63 29 87.5 74t-0.5 90q-17 29 -45.5 36.5t-58 -3.5t-55.5 -34zM299 1280l236 276h139l234 -276h-153l-151 177l-151 -177h-154zM605 -31q-243 0 -383 161.5t-140 423.5
q0 263 141 423t382 160q163 0 282.5 -74.5t180.5 -205.5t61 -303q0 -264 -140.5 -424.5t-383.5 -160.5zM605 114q179 0 272 119t93 321q0 205 -93 321.5t-272 116.5q-180 0 -271.5 -118.5t-91.5 -319.5q0 -204 93.5 -322t269.5 -118z" />
    <glyph glyph-name="uni1ED6" unicode="&#x1ed6;" horiz-adv-x="1481" 
d="M894 1976q-49 0 -107 29t-109.5 58t-84.5 29q-37 0 -50.5 -31.5t0.5 -66.5h-107q-24 93 18.5 156t131.5 63q50 0 108 -29t109.5 -58t84.5 -29q35 0 49 30t2 72h107q24 -93 -18.5 -158t-133.5 -65zM429 1649l235 276h139l234 -276h-153l-151 177l-150 -177h-154zM740 -31
q-216 0 -370.5 98t-231.5 269.5t-77 400.5t77 400.5t231.5 269.5t370.5 98t371 -98t232 -269.5t77 -400.5t-77 -400.5t-232 -269.5t-371 -98zM740 114q169 0 288 79.5t176 218t57 325.5t-57 325.5t-176 218t-288 80.5q-169 0 -286.5 -79.5t-174 -218t-58.5 -326.5
q-2 -284 132 -453t387 -170z" />
    <glyph glyph-name="uni1ED7" unicode="&#x1ed7;" horiz-adv-x="1211" 
d="M778 1608q-49 0 -107.5 29t-109.5 57.5t-84 28.5q-38 0 -51 -31.5t1 -66.5h-106q-24 93 17.5 156t131.5 63q50 0 108 -29t109.5 -57.5t84.5 -28.5q35 0 49 30t1 71h107q24 -93 -18 -157.5t-133 -64.5zM312 1280l236 276h139l235 -276h-154l-151 177l-151 -177h-154z
M605 -31q-243 0 -383 161.5t-140 423.5q0 263 141 423t382 160q163 0 282.5 -74.5t180.5 -205.5t61 -303q0 -264 -140.5 -424.5t-383.5 -160.5zM605 114q179 0 272 119t93 321q0 205 -93 321.5t-272 116.5q-180 0 -271.5 -118.5t-91.5 -319.5q0 -204 93.5 -322t269.5 -118z
" />
    <glyph glyph-name="uni1ED8" unicode="&#x1ed8;" horiz-adv-x="1481" 
d="M435 1649l235 276h139l234 -276h-153l-151 177l-150 -177h-154zM740 -31q-216 0 -370.5 98t-231.5 269.5t-77 400.5t77 400.5t231.5 269.5t370.5 98t371 -98t232 -269.5t77 -400.5t-77 -400.5t-232 -269.5t-371 -98zM740 114q169 0 288 79.5t176 218t57 325.5t-57 325.5
t-176 218t-288 80.5q-169 0 -286.5 -79.5t-174 -218t-58.5 -326.5q-2 -284 132 -453t387 -170zM741 -413q-45 0 -75 30.5t-30 74.5t30 74t75 30q44 0 74.5 -30t30.5 -74t-30.5 -74.5t-74.5 -30.5z" />
    <glyph glyph-name="uni1ED9" unicode="&#x1ed9;" horiz-adv-x="1211" 
d="M300 1280l236 276h139l234 -276h-153l-151 177l-151 -177h-154zM605 -31q-243 0 -383 161.5t-140 423.5q0 263 141 423t382 160q163 0 282.5 -74.5t180.5 -205.5t61 -303q0 -264 -140.5 -424.5t-383.5 -160.5zM605 114q179 0 272 119t93 321q0 205 -93 321.5t-272 116.5
q-180 0 -271.5 -118.5t-91.5 -319.5q0 -204 93.5 -322t269.5 -118zM614 -413q-45 0 -75 30.5t-30 74.5t30 74t75 30q44 0 74.5 -30t30.5 -74t-30.5 -74.5t-74.5 -30.5z" />
    <glyph glyph-name="uni1EDA" unicode="&#x1eda;" horiz-adv-x="1481" 
d="M792 1966h153l-122 -317h-103zM740 -31q-216 0 -370.5 98t-231.5 269.5t-77 400.5t77 400.5t231.5 269.5t370.5 98q114 0 211 -27q79 -19 129 5t62.5 67.5t7.5 111.5h126q27 -187 -79 -254q-24 -16 -51 -24q134 -98 204 -264.5t70 -382.5q0 -229 -77 -400.5t-232 -269.5
t-371 -98zM740 114q169 0 288 79.5t176 218t57 325.5t-57 325.5t-176 218t-288 80.5q-169 0 -286.5 -79.5t-174 -218t-58.5 -326.5q-2 -284 132 -453t387 -170z" />
    <glyph glyph-name="uni1EDB" unicode="&#x1edb;" horiz-adv-x="1247" 
d="M638 1597h154l-122 -317h-104zM605 -31q-243 0 -383 161.5t-140 423.5q0 263 141 423t382 160q96 0 180 -28q91 -23 143 2q50 24 62 67.5t7 111.5h126q27 -187 -79 -254q-38 -23 -82 -30q82 -77 124.5 -193t42.5 -259q0 -264 -140.5 -424.5t-383.5 -160.5zM605 114
q179 0 272 119t93 321q0 205 -93 321.5t-272 116.5q-180 0 -271.5 -118.5t-91.5 -319.5q0 -204 93.5 -322t269.5 -118z" />
    <glyph glyph-name="uni1EDC" unicode="&#x1edc;" horiz-adv-x="1481" 
d="M703 1966l72 -317h-103l-122 317h153zM740 -31q-216 0 -370.5 98t-231.5 269.5t-77 400.5t77 400.5t231.5 269.5t370.5 98q114 0 211 -27q79 -19 129 5t62.5 67.5t7.5 111.5h126q27 -187 -79 -254q-24 -16 -51 -24q134 -98 204 -264.5t70 -382.5q0 -229 -77 -400.5
t-232 -269.5t-371 -98zM740 114q169 0 288 79.5t176 218t57 325.5t-57 325.5t-176 218t-288 80.5q-169 0 -286.5 -79.5t-174 -218t-58.5 -326.5q-2 -284 132 -453t387 -170z" />
    <glyph glyph-name="uni1EDD" unicode="&#x1edd;" horiz-adv-x="1247" 
d="M563 1597l72 -317h-103l-122 317h153zM605 -31q-243 0 -383 161.5t-140 423.5q0 263 141 423t382 160q96 0 180 -28q91 -23 143 2q50 24 62 67.5t7 111.5h126q27 -187 -79 -254q-38 -23 -82 -30q82 -77 124.5 -193t42.5 -259q0 -264 -140.5 -424.5t-383.5 -160.5z
M605 114q179 0 272 119t93 321q0 205 -93 321.5t-272 116.5q-180 0 -271.5 -118.5t-91.5 -319.5q0 -204 93.5 -322t269.5 -118z" />
    <glyph glyph-name="uni1EDE" unicode="&#x1ede;" horiz-adv-x="1481" 
d="M655 1880l-48 79q42 43 98 60t112.5 -2.5t90.5 -78.5q35 -64 23 -122.5t-54 -103t-100 -65.5l-50 69q63 29 87.5 74t-0.5 91q-17 29 -45.5 36.5t-57.5 -3.5t-56 -34zM740 -31q-216 0 -370.5 98t-231.5 269.5t-77 400.5t77 400.5t231.5 269.5t370.5 98q114 0 211 -27
q79 -19 129 5t62.5 67.5t7.5 111.5h126q27 -187 -79 -254q-24 -16 -51 -24q134 -98 204 -264.5t70 -382.5q0 -229 -77 -400.5t-232 -269.5t-371 -98zM740 114q169 0 288 79.5t176 218t57 325.5t-57 325.5t-176 218t-288 80.5q-169 0 -286.5 -79.5t-174 -218t-58.5 -326.5
q-2 -284 132 -453t387 -170z" />
    <glyph glyph-name="uni1EDF" unicode="&#x1edf;" horiz-adv-x="1211" 
d="M500 1514l-49 79q43 43 99 60t112 -2.5t90 -77.5q34 -65 22.5 -123.5t-53.5 -103.5t-100 -65l-50 70q63 29 87.5 74.5t-0.5 90.5q-17 29 -45.5 36t-57.5 -4t-55 -34zM605 -31q-243 0 -383 161.5t-140 423.5q0 263 141 423t382 160q96 0 180 -28q91 -23 143 2
q50 24 62 67.5t7 111.5h126q27 -187 -79 -254q-38 -23 -82 -30q82 -77 124.5 -193t42.5 -259q0 -264 -140.5 -424.5t-383.5 -160.5zM605 114q179 0 272 119t93 321q0 205 -93 321.5t-272 116.5q-180 0 -271.5 -118.5t-91.5 -319.5q0 -204 93.5 -322t269.5 -118z" />
    <glyph glyph-name="uni1EE0" unicode="&#x1ee0;" horiz-adv-x="1481" 
d="M894 1651q-39 0 -84.5 18t-79.5 39.5t-72 39.5t-65 18q-38 0 -50.5 -30t-0.5 -68h-107q-24 93 18.5 156t131.5 63q39 0 85 -18t80 -39.5t72.5 -39.5t65.5 -18q35 0 49 30t1 71h106q24 -93 -18 -157.5t-132 -64.5zM740 -31q-216 0 -370.5 98t-231.5 269.5t-77 400.5
t77 400.5t231.5 269.5t370.5 98q114 0 211 -27q79 -19 129 5t62.5 67.5t7.5 111.5h126q27 -187 -79 -254q-24 -16 -51 -24q134 -98 204 -264.5t70 -382.5q0 -229 -77 -400.5t-232 -269.5t-371 -98zM740 114q169 0 288 79.5t176 218t57 325.5t-57 325.5t-176 218t-288 80.5
q-169 0 -286.5 -79.5t-174 -218t-58.5 -326.5q-2 -284 132 -453t387 -170z" />
    <glyph glyph-name="uni1EE1" unicode="&#x1ee1;" horiz-adv-x="1211" 
d="M766 1282q-49 0 -107.5 29t-109.5 58t-84 29q-38 0 -51 -32t1 -67h-107q-24 93 18 156.5t132 63.5q50 0 108 -29t109.5 -58t84.5 -29q35 0 49 30t1 71h106q24 -93 -18 -157.5t-132 -64.5zM605 -31q-243 0 -383 161.5t-140 423.5q0 263 141 423t382 160q96 0 180 -28
q91 -23 143 2q50 24 62 67.5t7 111.5h126q27 -187 -79 -254q-38 -23 -82 -30q82 -77 124.5 -193t42.5 -259q0 -264 -140.5 -424.5t-383.5 -160.5zM605 114q179 0 272 119t93 321q0 205 -93 321.5t-272 116.5q-180 0 -271.5 -118.5t-91.5 -319.5q0 -204 93.5 -322t269.5 -118
z" />
    <glyph glyph-name="uni1EE2" unicode="&#x1ee2;" horiz-adv-x="1481" 
d="M740 -31q-216 0 -370.5 98t-231.5 269.5t-77 400.5t77 400.5t231.5 269.5t370.5 98q114 0 211 -27q79 -19 129 5t62.5 67.5t7.5 111.5h126q27 -187 -79 -254q-24 -16 -51 -24q134 -98 204 -264.5t70 -382.5q0 -229 -77 -400.5t-232 -269.5t-371 -98zM740 114
q169 0 288 79.5t176 218t57 325.5t-57 325.5t-176 218t-288 80.5q-169 0 -286.5 -79.5t-174 -218t-58.5 -326.5q-2 -284 132 -453t387 -170zM750 -413q-45 0 -75.5 30.5t-30.5 74.5t30.5 74t75.5 30q44 0 74 -30t30 -74t-30 -74.5t-74 -30.5z" />
    <glyph glyph-name="uni1EE3" unicode="&#x1ee3;" horiz-adv-x="1211" 
d="M605 -31q-243 0 -383 161.5t-140 423.5q0 263 141 423t382 160q96 0 180 -28q91 -23 143 2q50 24 62 67.5t7 111.5h126q27 -187 -79 -254q-38 -23 -82 -30q82 -77 124.5 -193t42.5 -259q0 -264 -140.5 -424.5t-383.5 -160.5zM605 114q179 0 272 119t93 321
q0 205 -93 321.5t-272 116.5q-180 0 -271.5 -118.5t-91.5 -319.5q0 -204 93.5 -322t269.5 -118zM613 -413q-45 0 -75 30.5t-30 74.5t30 74t75 30q44 0 74.5 -30t30.5 -74t-30.5 -74.5t-74.5 -30.5z" />
    <glyph glyph-name="uni1EE4" unicode="&#x1ee4;" horiz-adv-x="1437" 
d="M719 -31q-255 0 -415.5 154.5t-160.5 408.5v942l152 1v-923q0 -89 26 -163.5t68.5 -124.5t98.5 -85t114.5 -51t116.5 -16q75 0 147.5 26.5t135.5 78t102 138.5t39 197v923h151v-943q0 -253 -160.5 -408t-414.5 -155zM733 -413q-45 0 -75 30.5t-30 74.5t30 74t75 30
q44 0 74.5 -30t30.5 -74t-30.5 -74.5t-74.5 -30.5z" />
    <glyph glyph-name="uni1EE5" unicode="&#x1ee5;" 
d="M566 -28q-96 0 -173 31t-126.5 82t-82.5 120.5t-47 142t-14 150.5v608h151v-564q0 -127 31 -219.5t104.5 -149.5t185.5 -57q158 0 243 105.5t85 294.5v590h150v-1106h-135v154q-61 -89 -156.5 -135.5t-215.5 -46.5zM603 -413q-45 0 -75 30.5t-30 74.5t30 74t75 30
q44 0 74.5 -30t30.5 -74t-30.5 -74.5t-74.5 -30.5z" />
    <glyph glyph-name="uni1EE6" unicode="&#x1ee6;" horiz-adv-x="1437" 
d="M618 1880l-48 79q42 43 98 60t112.5 -2.5t90.5 -78.5q35 -64 23 -122.5t-54 -103t-100 -65.5l-50 69q63 29 87.5 74t-0.5 91q-17 29 -45.5 36.5t-57.5 -3.5t-56 -34zM719 -31q-255 0 -415.5 154.5t-160.5 408.5v942l152 1v-923q0 -89 26 -163.5t68.5 -124.5t98.5 -85
t114.5 -51t116.5 -16q75 0 147.5 26.5t135.5 78t102 138.5t39 197v923h151v-943q0 -253 -160.5 -408t-414.5 -155z" />
    <glyph glyph-name="uni1EE7" unicode="&#x1ee7;" 
d="M500 1514l-49 79q43 43 99 60t112 -2.5t90 -77.5q34 -65 22.5 -123.5t-53.5 -103.5t-100 -65l-50 70q63 29 87.5 74.5t-0.5 90.5q-17 29 -45.5 36t-57.5 -4t-55 -34zM566 -28q-96 0 -173 31t-126.5 82t-82.5 120.5t-47 142t-14 150.5v608h151v-564q0 -127 31 -219.5
t104.5 -149.5t185.5 -57q158 0 243 105.5t85 294.5v590h150v-1106h-135v154q-61 -89 -156.5 -135.5t-215.5 -46.5z" />
    <glyph glyph-name="uni1EE8" unicode="&#x1ee8;" horiz-adv-x="1437" 
d="M736 1966h153l-122 -317h-103zM719 -31q-255 0 -415.5 154.5t-160.5 408.5v942l152 1v-923q0 -89 26 -163.5t68.5 -124.5t98.5 -85t114.5 -51t116.5 -16q75 0 147.5 26.5t135.5 78t102 138.5t39 197v923h46q77 3 92 6q43 9 65 37.5t23.5 64.5t-0.5 76h126
q26 -184 -78 -253q-48 -33 -123 -35v-839q0 -253 -160.5 -408t-414.5 -155z" />
    <glyph glyph-name="uni1EE9" unicode="&#x1ee9;" 
d="M626 1597h152l-122 -317h-103zM566 -28q-96 0 -173 31t-126.5 82t-82.5 120.5t-47 142t-14 150.5v608h151v-564q0 -127 31 -219.5t104.5 -149.5t185.5 -57q158 0 243 105.5t85 294.5v590h24q77 3 92 6q43 9 65 37.5t23.5 64.5t-0.5 76h126q26 -184 -77 -253
q-44 -28 -103 -33v-1004h-135v154q-61 -89 -156.5 -135.5t-215.5 -46.5z" />
    <glyph glyph-name="uni1EEA" unicode="&#x1eea;" horiz-adv-x="1437" 
d="M707 1966l72 -317h-103l-122 317h153zM719 -31q-255 0 -415.5 154.5t-160.5 408.5v942l152 1v-923q0 -89 26 -163.5t68.5 -124.5t98.5 -85t114.5 -51t116.5 -16q75 0 147.5 26.5t135.5 78t102 138.5t39 197v923h46q77 3 92 6q43 9 65 37.5t23.5 64.5t-0.5 76h126
q26 -184 -78 -253q-48 -33 -123 -35v-839q0 -253 -160.5 -408t-414.5 -155z" />
    <glyph glyph-name="uni1EEB" unicode="&#x1eeb;" 
d="M583 1597l71 -317h-102l-123 317h154zM566 -28q-96 0 -173 31t-126.5 82t-82.5 120.5t-47 142t-14 150.5v608h151v-564q0 -127 31 -219.5t104.5 -149.5t185.5 -57q158 0 243 105.5t85 294.5v590h67q34 2 49 5q43 9 65 37.5t23.5 64.5t-0.5 76h126q26 -184 -77 -253
q-43 -27 -103 -34v-1002h-135v154q-61 -89 -156.5 -135.5t-215.5 -46.5z" />
    <glyph glyph-name="uni1EEC" unicode="&#x1eec;" horiz-adv-x="1437" 
d="M618 1880l-48 79q42 43 98 60t112.5 -2.5t90.5 -78.5q35 -64 23 -122.5t-54 -103t-100 -65.5l-50 69q63 29 87.5 74t-0.5 91q-17 29 -45.5 36.5t-57.5 -3.5t-56 -34zM719 -31q-255 0 -415.5 154.5t-160.5 408.5v942l152 1v-923q0 -89 26 -163.5t68.5 -124.5t98.5 -85
t114.5 -51t116.5 -16q75 0 147.5 26.5t135.5 78t102 138.5t39 197v923h46q77 3 92 6q43 9 65 37.5t23.5 64.5t-0.5 76h126q26 -184 -78 -253q-48 -33 -123 -35v-839q0 -253 -160.5 -408t-414.5 -155z" />
    <glyph glyph-name="uni1EED" unicode="&#x1eed;" 
d="M500 1514l-49 79q43 43 99 60t112 -2.5t90 -77.5q34 -65 22.5 -123.5t-53.5 -103.5t-100 -65l-50 70q63 29 87.5 74.5t-0.5 90.5q-17 29 -45.5 36t-57.5 -4t-55 -34zM566 -28q-96 0 -173 31t-126.5 82t-82.5 120.5t-47 142t-14 150.5v608h151v-564q0 -127 31 -219.5
t104.5 -149.5t185.5 -57q158 0 243 105.5t85 294.5v590h24q77 3 92 6q43 9 65 37.5t23.5 64.5t-0.5 76h126q26 -184 -77 -253q-44 -28 -103 -33v-1004h-135v154q-61 -89 -156.5 -135.5t-215.5 -46.5z" />
    <glyph glyph-name="uni1EEE" unicode="&#x1eee;" horiz-adv-x="1437" 
d="M883 1651q-39 0 -84.5 18t-79.5 39.5t-72 39.5t-65 18q-38 0 -51.5 -31.5t0.5 -66.5h-106q-24 93 17.5 156t131.5 63q39 0 85 -18t80 -39.5t72.5 -39.5t65.5 -18q35 0 49 30t1 71h106q24 -93 -18 -157.5t-132 -64.5zM719 -31q-255 0 -415.5 154.5t-160.5 408.5v942l152 1
v-923q0 -89 26 -163.5t68.5 -124.5t98.5 -85t114.5 -51t116.5 -16q75 0 147.5 26.5t135.5 78t102 138.5t39 197v923h46q77 3 92 6q43 9 65 37.5t23.5 64.5t-0.5 76h126q26 -184 -78 -253q-48 -33 -123 -35v-839q0 -253 -160.5 -408t-414.5 -155z" />
    <glyph glyph-name="uni1EEF" unicode="&#x1eef;" 
d="M766 1282q-49 0 -107.5 29t-109.5 58t-84 29q-38 0 -51 -32t1 -67h-107q-24 93 18 156.5t132 63.5q50 0 108 -29t109.5 -58t84.5 -29q35 0 49 30t1 71h106q24 -93 -18 -157.5t-132 -64.5zM566 -28q-96 0 -173 31t-126.5 82t-82.5 120.5t-47 142t-14 150.5v608h151v-564
q0 -127 31 -219.5t104.5 -149.5t185.5 -57q158 0 243 105.5t85 294.5v590h24q77 3 92 6q43 9 65 37.5t23.5 64.5t-0.5 76h126q26 -184 -77 -253q-44 -28 -103 -33v-1004h-135v154q-61 -89 -156.5 -135.5t-215.5 -46.5z" />
    <glyph glyph-name="uni1EF0" unicode="&#x1ef0;" horiz-adv-x="1437" 
d="M719 -31q-255 0 -415.5 154.5t-160.5 408.5v942l152 1v-923q0 -89 26 -163.5t68.5 -124.5t98.5 -85t114.5 -51t116.5 -16q75 0 147.5 26.5t135.5 78t102 138.5t39 197v923h46q77 3 92 6q43 9 65 37.5t23.5 64.5t-0.5 76h126q26 -184 -78 -253q-48 -33 -123 -35v-839
q0 -253 -160.5 -408t-414.5 -155zM730 -413q-44 0 -74 30.5t-30 74.5t30 74t74 30t74.5 -30t30.5 -74t-30.5 -74.5t-74.5 -30.5z" />
    <glyph glyph-name="uni1EF1" unicode="&#x1ef1;" 
d="M566 -28q-96 0 -173 31t-126.5 82t-82.5 120.5t-47 142t-14 150.5v608h151v-564q0 -127 31 -219.5t104.5 -149.5t185.5 -57q158 0 243 105.5t85 294.5v590h25q77 3 93 6q43 9 65 37.5t23 64.5t-1 76h126q26 -184 -77 -253q-44 -28 -104 -33v-1004h-135v154
q-61 -89 -156.5 -135.5t-215.5 -46.5zM613 -413q-45 0 -75 30.5t-30 74.5t30 74t75 30q44 0 74.5 -30t30.5 -74t-30.5 -74.5t-74.5 -30.5z" />
    <glyph glyph-name="Ygrave" unicode="&#x1ef2;" horiz-adv-x="1138" 
d="M542 1966l72 -317h-103l-122 317h153zM495 0v617l-495 858h174l396 -685l395 685h174l-493 -858v-617h-151z" />
    <glyph glyph-name="ygrave" unicode="&#x1ef3;" horiz-adv-x="1080" 
d="M524 1597l73 -317h-103l-122 317h152zM301 -492l182 494l-449 1104h160l362 -909l336 909h154l-594 -1598h-151z" />
    <glyph glyph-name="uni1EF4" unicode="&#x1ef4;" horiz-adv-x="1138" 
d="M495 0v617l-495 858h174l396 -685l395 685h174l-493 -858v-617h-151zM569 -413q-44 0 -74 30.5t-30 74.5t30 74t74 30t75 -30.5t31 -73.5q0 -44 -31 -74.5t-75 -30.5z" />
    <glyph glyph-name="uni1EF5" unicode="&#x1ef5;" horiz-adv-x="1080" 
d="M301 -492l182 494l-449 1104h160l362 -909l336 909h154l-594 -1598h-151zM819 -413q-44 0 -74 30.5t-30 74.5t30 74t74 30t75 -30.5t31 -73.5q0 -44 -31 -74.5t-75 -30.5z" />
    <glyph glyph-name="uni1EF6" unicode="&#x1ef6;" horiz-adv-x="1138" 
d="M455 1880l-49 79q43 43 99 60t112 -2.5t90 -78.5q35 -64 22.5 -122.5t-54.5 -103t-100 -65.5l-49 69q63 29 87.5 74.5t-0.5 90.5q-17 29 -45.5 36.5t-57.5 -3.5t-55 -34zM495 0v617l-495 858h174l396 -685l395 685h174l-493 -858v-617h-151z" />
    <glyph glyph-name="uni1EF7" unicode="&#x1ef7;" horiz-adv-x="1080" 
d="M438 1514l-49 79q43 43 99 60t112 -2.5t90 -77.5q34 -65 22.5 -123.5t-53.5 -103.5t-100 -65l-49 70q63 29 87.5 74.5t-0.5 90.5q-17 29 -45.5 36t-58 -4t-55.5 -34zM301 -492l182 494l-449 1104h160l362 -909l336 909h154l-594 -1598h-151z" />
    <glyph glyph-name="uni1EF8" unicode="&#x1ef8;" horiz-adv-x="1138" 
d="M735 1651q-39 0 -84 18t-79 39.5t-72.5 39.5t-65.5 18q-37 0 -50.5 -31.5t0.5 -66.5h-106q-24 93 18 156t131 63q39 0 85 -18t80 -39.5t72 -39.5t65 -18q35 0 49 29.5t2 71.5h107q24 -92 -18.5 -157t-133.5 -65zM495 0v617l-495 858h174l396 -685l395 685h174l-493 -858
v-617h-151z" />
    <glyph glyph-name="uni1EF9" unicode="&#x1ef9;" horiz-adv-x="1080" 
d="M707 1282q-49 0 -107.5 29t-109.5 58t-84 29q-38 0 -51.5 -32t0.5 -67h-106q-24 93 18 156.5t131 63.5q50 0 108 -29t109.5 -58t84.5 -29q35 0 49.5 30t1.5 71h106q24 -93 -18 -157.5t-132 -64.5zM301 -492l182 494l-449 1104h160l362 -909l336 909h154l-594 -1598h-151z
" />
    <glyph glyph-name="uni2011" unicode="&#x2011;" horiz-adv-x="860" 
d="M123 581v129h614v-129h-614z" />
    <glyph glyph-name="endash" unicode="&#x2013;" horiz-adv-x="1105" 
d="M123 581v129h860v-129h-860z" />
    <glyph glyph-name="emdash" unicode="&#x2014;" horiz-adv-x="1597" 
d="M123 581v129h1352v-129h-1352z" />
    <glyph glyph-name="quoteleft" unicode="&#x2018;" horiz-adv-x="453" 
d="M243 1475l95 -492h-102l-144 492h151z" />
    <glyph glyph-name="quoteright" unicode="&#x2019;" horiz-adv-x="453" 
d="M211 1475h151l-143 -492h-103z" />
    <glyph glyph-name="quotesinglbase" unicode="&#x201a;" horiz-adv-x="543" 
d="M190 216h152l-143 -492h-104z" />
    <glyph glyph-name="quotedblleft" unicode="&#x201c;" horiz-adv-x="762" 
d="M548 1056h-152l144 492h103zM288 1056h-152l144 492h103z" />
    <glyph glyph-name="quotedblright" unicode="&#x201d;" horiz-adv-x="762" 
d="M231 1488h152l-143 -492h-104zM492 1488h151l-143 -492h-104z" />
    <glyph glyph-name="quotedblbase" unicode="&#x201e;" horiz-adv-x="762" 
d="M231 216h152l-143 -492h-104zM492 216h151l-143 -492h-104z" />
    <glyph glyph-name="uni201F" unicode="&#x201f;" horiz-adv-x="762" 
d="M531 1488l96 -492h-104l-143 492h151zM271 1488l96 -492h-104l-143 492h151z" />
    <glyph glyph-name="dagger" unicode="&#x2020;" horiz-adv-x="1105" 
d="M478 0v977h-362v129h362v369h150v-369h424v-129h-424v-977h-150z" />
    <glyph glyph-name="daggerdbl" unicode="&#x2021;" horiz-adv-x="838" 
d="M344 0v481h-220v129h220v300h-220v129h220v436h151v-436h221v-129h-221v-300h221v-129h-221v-481h-151z" />
    <glyph glyph-name="bullet" unicode="&#x2022;" horiz-adv-x="1338" 
d="M674 407q-103 0 -173.5 68.5t-70.5 169.5q0 102 71 170.5t173 68.5q96 0 165 -69t69 -170t-69 -169.5t-165 -68.5z" />
    <glyph glyph-name="ellipsis" unicode="&#x2026;" horiz-adv-x="1294" 
d="M251 -11q-44 0 -74.5 30t-30.5 73q0 44 30.5 74.5t74.5 30.5t74.5 -30.5t30.5 -74.5q0 -43 -30.5 -73t-74.5 -30zM647 -11q-44 0 -74 29.5t-30 73.5t30 74.5t74 30.5t74.5 -30.5t30.5 -74.5q0 -43 -30.5 -73t-74.5 -30zM1043 -11q-45 0 -75 29.5t-30 73.5t30 74.5
t75 30.5q44 0 74.5 -30.5t30.5 -74.5q0 -43 -30.5 -73t-74.5 -30z" />
    <glyph glyph-name="perthousand" unicode="&#x2030;" horiz-adv-x="2699" 
d="M492 768q-153 0 -261 108t-108 261q0 150 110 259t259 109q153 0 260.5 -107.5t107.5 -260.5t-108 -261t-260 -108zM287 0l-103 102l1376 1373l102 -102zM492 904q94 0 163 69t69 164t-69 163.5t-163 68.5q-95 0 -164 -69t-69 -163q0 -95 69.5 -164t163.5 -69zM1355 -31
q-153 0 -261 108t-108 261q0 150 110.5 259.5t258.5 109.5q153 0 260.5 -107.5t107.5 -261.5t-107.5 -261.5t-260.5 -107.5zM2208 -31q-153 0 -261 108t-108 261q0 150 110.5 259.5t258.5 109.5q152 0 260 -107.5t108 -261.5t-108 -261.5t-260 -107.5zM1355 105q94 0 163 69
t69 164q0 94 -68.5 163t-163.5 69t-164.5 -69t-69.5 -163q0 -95 69.5 -164t164.5 -69zM2208 105q94 0 163 69t69 164q0 94 -69 163t-163 69q-95 0 -164 -69t-69 -163t69.5 -163.5t163.5 -69.5z" />
    <glyph glyph-name="guilsinglleft" unicode="&#x2039;" horiz-adv-x="1167" 
d="M778 165l-480 480l480 480l91 -90l-390 -390l390 -390z" />
    <glyph glyph-name="guilsinglright" unicode="&#x203a;" horiz-adv-x="1167" 
d="M389 165l-91 90l390 390l-390 390l91 90l480 -480z" />
    <glyph glyph-name="fraction" unicode="&#x2044;" horiz-adv-x="436" 
d="M-267 0l-104 80l1077 1400l101 -80z" />
    <glyph glyph-name="uni2060" unicode="&#x2060;" horiz-adv-x="0" 
 />
    <glyph glyph-name="uni2070" unicode="&#x2070;" horiz-adv-x="912" 
d="M456 529q-137 0 -225 89.5t-88 230.5v323q0 140 88 230.5t225 90.5t225 -90t88 -231v-323q0 -141 -87 -230.5t-226 -89.5zM456 638q86 0 141.5 59.5t55.5 150.5v328q0 90 -55.5 148.5t-141.5 58.5q-85 0 -141 -58.5t-56 -148.5v-328q0 -90 55.5 -150t141.5 -60z" />
    <glyph glyph-name="uni2074" unicode="&#x2074;" horiz-adv-x="839" 
d="M527 553v169h-425v109l305 644h130l-305 -644h295v260h115v-260h95v-109h-95v-169h-115z" />
    <glyph glyph-name="uni2075" unicode="&#x2075;" horiz-adv-x="820" 
d="M401 532q-106 0 -188 64.5t-111 166.5l110 29q17 -66 71.5 -107t120.5 -41q83 0 141 58t58 140q0 83 -58.5 141t-140.5 58q-113 0 -172 -88l-101 39l28 483h495v-108h-396l-15 -282q75 61 175 61q127 0 213.5 -87.5t86.5 -216.5q0 -127 -94 -218.5t-223 -91.5z" />
    <glyph glyph-name="uni2076" unicode="&#x2076;" horiz-adv-x="907" 
d="M461 526q-134 0 -226 93t-92 232v309q0 147 92 240t235 93q76 0 143 -31.5t113 -89.5l-87 -77q-63 88 -169 88q-90 0 -149.5 -62t-59.5 -149v-128q85 98 213 98q129 0 216 -87.5t87 -216.5t-93 -220.5t-223 -91.5zM461 636q84 0 141.5 59t57.5 143q0 83 -57.5 140.5
t-141.5 57.5t-142 -57.5t-58 -140.5q0 -84 58 -143t142 -59z" />
    <glyph glyph-name="uni2077" unicode="&#x2077;" horiz-adv-x="726" 
d="M169 553l333 812h-420v110h542v-110l-331 -812h-124z" />
    <glyph glyph-name="uni2078" unicode="&#x2078;" horiz-adv-x="852" 
d="M426 526q-134 0 -218.5 78.5t-84.5 205.5q0 156 122 233q-99 67 -99 196q0 116 77.5 185t202.5 69t202.5 -69t77.5 -185q0 -132 -101 -196q125 -78 125 -233q0 -127 -85 -205.5t-219 -78.5zM426 1096q73 0 116 36.5t43 106.5t-43 106.5t-116 36.5q-72 0 -115 -37
t-43 -106t43 -106t115 -37zM426 636q83 0 132 45.5t49 128.5q0 85 -48.5 130.5t-132.5 45.5t-133 -45.5t-49 -130.5q0 -83 49.5 -128.5t132.5 -45.5z" />
    <glyph glyph-name="uni2079" unicode="&#x2079;" horiz-adv-x="907" 
d="M446 1493q134 0 226 -93t92 -232v-309q0 -147 -92 -240t-235 -93q-76 0 -143 31.5t-113 89.5l87 77q63 -88 169 -88q90 0 149.5 62t59.5 149v128q-84 -97 -213 -97t-216 87.5t-87 216.5t93 220t223 91zM446 1383q-84 0 -141.5 -58.5t-57.5 -142.5q0 -83 57.5 -141
t141.5 -58t142 58t58 141q0 84 -58 142.5t-142 58.5z" />
    <glyph glyph-name="uni2080" unicode="&#x2080;" horiz-adv-x="912" 
d="M456 -24q-137 0 -225 89.5t-88 230.5v324q0 140 88 230t225 90t225 -89.5t88 -230.5v-324q0 -141 -87 -230.5t-226 -89.5zM456 85q86 0 141.5 59.5t55.5 150.5v328q0 90 -55.5 148.5t-141.5 58.5q-85 0 -141 -58.5t-56 -148.5v-328q0 -90 55.5 -150t141.5 -60z" />
    <glyph glyph-name="uni2081" unicode="&#x2081;" horiz-adv-x="657" 
d="M297 0v796l-174 -106v127l174 105h115v-922h-115z" />
    <glyph glyph-name="uni2082" unicode="&#x2082;" horiz-adv-x="819" 
d="M102 0l1 102l410 370q86 77 86 171q0 81 -53 136.5t-132 55.5q-81 0 -136.5 -57t-53.5 -133h-118q0 130 87.5 213.5t221.5 83.5q129 0 215.5 -86t86.5 -214q0 -85 -32 -140t-110 -124l-296 -268h438v-110h-615z" />
    <glyph glyph-name="uni2083" unicode="&#x2083;" horiz-adv-x="797" 
d="M374 -22q-104 0 -183.5 56.5t-108.5 153.5l109 32q21 -64 70.5 -98.5t112.5 -32.5q84 1 134 54t50 139t-51 139t-135 53q-45 0 -97 -22l-55 89l300 272h-401v109h546v-110l-252 -240q119 -7 190.5 -87t71.5 -203q0 -133 -85.5 -218.5t-215.5 -85.5z" />
    <glyph glyph-name="uni2084" unicode="&#x2084;" horiz-adv-x="839" 
d="M527 0v169h-425v110l305 643h130l-305 -643h295v259h115v-259h95v-110h-95v-169h-115z" />
    <glyph glyph-name="uni2085" unicode="&#x2085;" horiz-adv-x="820" 
d="M401 -20q-106 0 -188 64t-111 166l110 29q17 -66 71.5 -107t120.5 -41q83 0 141 58t58 140q0 83 -58.5 141t-140.5 58q-113 0 -172 -88l-101 39l28 483h495v-108h-396l-15 -282q75 61 175 61q127 0 213.5 -87.5t86.5 -216.5q0 -127 -94 -218t-223 -91z" />
    </font>
</defs>
</svg>
