<?xml version="1.0" encoding="UTF-8"?>
<svg id="Capa_2" data-name="Capa 2" xmlns="http://www.w3.org/2000/svg" viewBox="0 0 19 19">
  <g id="Footer_Content" data-name="Footer Content">
    <path d="M9.5,1.71c2.54,0,2.84,0,3.84,.06,2.57,.12,3.78,1.34,3.89,3.89,.05,1,.05,1.3,.05,3.84s0,2.84-.05,3.84c-.12,2.55-1.32,3.78-3.89,3.89-1,.05-1.3,.06-3.84,.06s-2.84,0-3.84-.06c-2.58-.12-3.78-1.35-3.89-3.9-.05-1-.06-1.3-.06-3.84s.01-2.84,.06-3.84c.12-2.55,1.32-3.78,3.89-3.89,1-.05,1.3-.05,3.84-.05Zm0-1.71c-2.58,0-2.9,.01-3.92,.06C2.13,.22,.22,2.13,.06,5.58c-.05,1.01-.06,1.34-.06,3.92s.01,2.9,.06,3.92c.16,3.45,2.07,5.37,5.53,5.53,1.01,.05,1.34,.06,3.92,.06s2.9-.01,3.92-.06c3.45-.16,5.37-2.07,5.53-5.53,.05-1.01,.06-1.34,.06-3.92s-.01-2.9-.06-3.92C18.79,2.14,16.87,.22,13.42,.06,12.4,.01,12.08,0,9.5,0Zm0,4.62c-2.69,0-4.88,2.18-4.88,4.88s2.18,4.88,4.88,4.88,4.88-2.18,4.88-4.88-2.18-4.88-4.88-4.88Zm0,8.04c-1.75,0-3.17-1.42-3.17-3.17s1.42-3.17,3.17-3.17,3.17,1.42,3.17,3.17-1.42,3.17-3.17,3.17ZM14.57,3.29c-.63,0-1.14,.51-1.14,1.14s.51,1.14,1.14,1.14,1.14-.51,1.14-1.14-.51-1.14-1.14-1.14Z"/>
  </g>
</svg>