<?xml version="1.0" encoding="UTF-8"?>
<svg id="Capa_2" data-name="Capa 2" xmlns="http://www.w3.org/2000/svg" viewBox="0 0 147.07 50">
  <defs>
    <style>
      .cls-1 {
        letter-spacing: -.02em;
      }

      .cls-2 {
        fill: #eb7d39;
      }

      .cls-3 {
        fill: #fff;
        font-family: YesevaOne-Regular, 'Yeseva One';
        font-size: 21px;
      }

      .cls-4 {
        letter-spacing: 0em;
      }
    </style>
  </defs>
  <g id="Hero_Content" data-name="Hero Content">
    <g id="Logo">
      <g>
        <path class="cls-2" d="M25.05,0c3.67,0,7.19,.77,10.51,2.33,4.09,1.92,7.42,4.74,10,8.44,1.57,2.26,2.73,4.71,3.48,7.35,.38,1.34,.64,2.71,.8,4.1,.16,1.35,.18,2.71,.12,4.06-.16,3.3-.95,6.45-2.37,9.43-1.64,3.45-3.95,6.37-6.92,8.77-2.75,2.21-5.82,3.78-9.23,4.68-1.71,.46-3.45,.72-5.22,.81-2.35,.12-4.67-.14-6.94-.74-2.72-.72-5.24-1.89-7.57-3.46-2.64-1.78-4.91-3.95-6.8-6.51-1.93-2.62-3.36-5.48-4.19-8.63-.38-1.45-.63-2.93-.69-4.43-.04-1.21-.03-2.42,.1-3.63,.3-2.92,1.07-5.71,2.35-8.35,1.82-3.75,4.4-6.87,7.75-9.35,2.67-1.97,5.62-3.35,8.85-4.16C21,.24,23.05,0,25.05,0Zm2.04,9.93c.08-.25,.14-.46,.21-.67,.07-.21,.15-.42,.25-.62,.81-1.74,2.08-2.99,3.88-3.68,.79-.3,1.62-.45,2.46-.5,.07,0,.14-.01,.21-.02-.07-.08-.14-.11-.21-.14-2.57-1.09-5.26-1.69-8.05-1.79-2.24-.08-4.46,.12-6.64,.7-1.96,.52-3.8,1.3-5.54,2.35-.04,.03-.08,.07-.14,.12,1.86,.51,3.52,1.34,4.99,2.54-.08,0-.16-.02-.23-.04-1.7-.45-3.41-.59-5.16-.31-2.53,.41-4.58,1.63-6.12,3.67-.52,.69-.96,1.43-1.43,2.16-.03,.05-.05,.11-.1,.21,1.67-.55,3.34-.85,5.05-.88,1.71-.03,3.38,.18,5.01,.68-.4,.03-.79,.04-1.19,.05-1.65,.07-3.25,.38-4.8,.96-2.72,1.01-4.88,2.73-6.37,5.24-.11,.18-.18,.36-.22,.57-.19,.96-.33,1.94-.39,2.92-.07,1.11-.06,2.22,.03,3.32,0,.06,.03,.11,.05,.17,.45-.49,.86-.97,1.31-1.41,.44-.44,.91-.86,1.4-1.25,.49-.39,1.01-.76,1.55-1.1,.53-.34,1.08-.63,1.64-.95-.07-.07-.13-.12-.19-.17-.67-.62-.95-1.38-.82-2.29,.1-.7,.39-1.32,.78-1.89,.03-.05,.08-.1,.13-.16,.11,.06,.21,.1,.3,.16,1.32,.85,1.92,2.06,1.83,3.62-.11,.31,.05,.49,.29,.64,.07,.04,.13,.09,.2,.13,.66,.42,1.37,.73,2.11,.97,.9,.29,1.82,.46,2.78,.46,.14,0,.23-.04,.3-.17,.36-.76,.49-1.55,.35-2.38-.04-.24-.11-.47-.17-.75,1.06,.53,1.75,1.34,2.18,2.41,.07-.05,.11-.09,.15-.12,.46-.43,.75-.96,.9-1.56,.21-.81,.17-1.63,.03-2.45-.12-.72-.32-1.42-.57-2.11-.03-.08-.05-.15-.08-.24,.05,0,.07,0,.08,0,.06,.02,.12,.04,.18,.07,.94,.38,1.75,.95,2.45,1.69,1.05,1.11,1.74,2.43,2.18,3.88,.12,.39,.21,.79,.32,1.2,.27,.1,.55,.18,.82,.3,.99,.41,1.8,1.05,2.45,1.9,.09,.12,.12,.23,.07,.37-.06,.19-.11,.38-.17,.57-1.36,4.15-4.03,7.14-7.99,8.96-1.16,.54-2.39,.88-3.66,1.07-.11,.02-.19,.06-.23,.17-.02,.05-.04,.1-.07,.15-.58,1.4-.93,2.86-1.01,4.37-.07,1.37,.11,2.7,.58,3.99,.05,.14,.13,.24,.27,.3,1.91,.92,3.91,1.55,6,1.89,.04,0,.09,0,.17-.01-.79-2.67-.68-5.33-.04-7.99,.02,.04,.03,.07,.03,.11,.16,1,.39,1.99,.71,2.95,.6,1.82,1.45,3.51,2.56,5.07,.09,.12,.18,.18,.34,.17,.43-.02,.86-.02,1.28-.03,1.49-.05,2.94-.3,4.38-.68,.26-.07,.51-.15,.79-.23-.06-.1-.09-.16-.13-.23-.65-1.02-1.24-2.06-1.78-3.14-1.1-2.23-1.92-4.55-2.33-7.01-.04-.24-.07-.49-.1-.73,.05,.02,.07,.04,.08,.07,.25,.46,.5,.92,.76,1.37,1.12,1.92,2.37,3.75,3.85,5.41,.9,1.02,1.88,1.95,3,2.73,.14,.1,.24,.1,.38,.02,2-1.09,3.83-2.42,5.5-3.97,.06-.05,.11-.11,.18-.19-1.94-1.05-3.66-2.34-5.17-3.91-1.51-1.58-2.76-3.33-3.62-5.35,2.95,3.18,6.57,5.24,10.74,6.4,.05-.1,.1-.18,.13-.26,.73-1.5,1.28-3.07,1.64-4.7,.34-1.51,.5-3.03,.34-4.58-.02-.21-.02-.43-.11-.64-3.23,.79-6.43,.73-9.61-.21,.04-.02,.07-.03,.11-.03,.54-.04,1.09-.07,1.63-.13,1.71-.19,3.36-.63,4.95-1.3,.66-.28,1.31-.57,1.9-.98,.53-.37,1.01-.79,1.39-1.32,.31-.43,.51-.91,.56-1.44,.02-.16-.03-.26-.17-.35-.69-.49-1.38-.99-2.07-1.48-.15-.11-.29-.23-.44-.35,.1-.03,.19-.02,.27,0,.51,.1,1.03,.2,1.54,.3,.37,.07,.75,.14,1.12,.21,.08,.02,.17,.05,.24-.05,.1-.16,.2-.32,.3-.48-.08-.09-.13-.15-.19-.21-1.22-1.3-2.59-2.4-4.09-3.35-2.31-1.46-4.79-2.53-7.43-3.2-1.48-.38-2.98-.62-4.5-.72-1.39-.09-2.77-.07-4.15,.07-1.21,.12-2.4,.35-3.58,.63-.06,.01-.11,.02-.19,.03,.23-.88,.65-1.61,1.28-2.22,.93-.89,2.05-1.31,3.33-1.33Zm-9.81,16.93c-.04-.6-.29-1.04-.78-1.31-.54-.3-1.09-.26-1.59,.09-.41,.29-.62,.69-.63,1.22h3ZM29.84,8.71s.05,.02,.06,.02c.81,0,1.63,0,2.44,0,.03,0,.07-.03,.09-.04,.02-.59-.49-1.31-1.35-1.28-.71,.02-1.3,.64-1.25,1.29Z"/>
        <path class="cls-2" d="M34.3,17.58c-.04-.77-.37-1.36-1.02-1.74-.73-.42-1.48-.4-2.18,.07-.58,.39-.88,.94-.9,1.67h4.1Z"/>
        <path class="cls-2" d="M34.3,17.58h-4.1c.02-.73,.32-1.29,.9-1.67,.7-.46,1.45-.49,2.18-.07,.65,.38,.98,.96,1.02,1.74Z"/>
      </g>
      <text class="cls-3" transform="translate(62.41 18.07)"><tspan x="0" y="0">R</tspan><tspan class="cls-4" x="14.7" y="0">e</tspan><tspan x="26.25" y="0">al </tspan><tspan x="0" y="25.2">Bio</tspan><tspan class="cls-1" x="34.23" y="25.2">P</tspan><tspan x="47.98" y="25.2">arc</tspan></text>
    </g>
  </g>
</svg>