<?xml version="1.0" encoding="UTF-8"?>
<svg fill="" id="Capa_2" data-name="Capa 2" xmlns="http://www.w3.org/2000/svg" viewBox="0 0 13.52 13.07">
  <defs>
    <style>
      .cls-1 {
        fill: #171311;
      }
    </style>
  </defs>
  <g id="Footer_Content" data-name="Footer Content">
    <g id="ozRojg.tif">
      <path class="cls-1" d="M8.91,7.86c-2.62,0-4.98,0-7.35,0-.83,0-1.49-.14-1.55-1.15-.06-1.01,.36-1.44,1.4-1.42,2.42,.04,4.85,.01,7.69,.01-1.15-1.13-1.98-1.98-2.85-2.81-.67-.64-.94-1.26-.17-2.03,.77-.77,1.38-.48,2.03,.18,1.6,1.63,3.22,3.25,4.85,4.85,.78,.76,.74,1.4-.03,2.15-1.64,1.59-3.26,3.21-4.86,4.84-.68,.69-1.32,.84-2.04,.1-.78-.8-.37-1.4,.27-2.02,.82-.8,1.59-1.65,2.61-2.7Z"/>
    </g>
  </g>
</svg>