<?xml version="1.0" encoding="UTF-8"?>
<svg id="Capa_2" data-name="Capa 2" xmlns="http://www.w3.org/2000/svg" viewBox="0 0 19 15.44">
  <g id="Footer_Content" data-name="Footer Content">
    <path d="M19,1.83c-.7,.31-1.45,.52-2.24,.61,.81-.48,1.42-1.25,1.71-2.16-.75,.45-1.59,.77-2.48,.95-.71-.76-1.72-1.23-2.85-1.23-2.52,0-4.37,2.35-3.8,4.79C6.12,4.62,3.25,3.07,1.32,.71,.3,2.47,.79,4.76,2.53,5.92c-.64-.02-1.24-.2-1.76-.49-.04,1.81,1.25,3.5,3.13,3.87-.55,.15-1.15,.18-1.76,.07,.5,1.55,1.93,2.68,3.64,2.71-1.64,1.28-3.7,1.86-5.77,1.61,1.73,1.11,3.77,1.75,5.98,1.75,7.24,0,11.33-6.11,11.08-11.59,.76-.55,1.42-1.24,1.95-2.02Z"/>
  </g>
</svg>