<?xml version="1.0" encoding="UTF-8"?>
<svg id="Capa_2" data-name="Capa 2" xmlns="http://www.w3.org/2000/svg" viewBox="0 0 184 190">
  <defs>
    <style>
      .cls-1 {
        fill: #fff;
      }
    </style>
  </defs>
  <g id="Capa_1-2" data-name="Capa 1">
    <g>
      <path class="cls-1" d="M184,190H0V0H184V190ZM10.13,96.27c1.52,25.7,14.24,44.25,35.17,56.45,30.48,17.77,61.68,17.02,91.58-1.87,19.68-12.42,30.6-30.73,32.34-54.58H10.13ZM16.31,20.81c-.96,2.7-1.87,4.83-2.48,7.05-5.85,21.06-1.63,40.43,9.69,58.72,2,3.23,3.77,4.14,7.55,3.08,21.78-6.08,43.65-11.85,65.48-17.77,5.78-1.57,11.53-3.28,18.2-5.19C81.44,51.18,49.21,36.15,16.31,20.81Zm47.96,18.49c17.87,8.68,34.74,16.96,51.72,25.01,1.74,.82,4.25,.78,6.18,.29,10.48-2.69,20.92-5.55,31.3-8.61,1.64-.48,3.55-1.99,4.21-3.51,5.07-11.72,6.81-24,5.06-36.68-.48-3.5-1.56-6.92-2.44-10.67-32.33,11.5-63.67,22.66-96.02,34.17Zm-32.25,52.89c.04,.34,.08,.68,.12,1.01,1.76,0,3.51,0,5.27,0,40.3,0,80.6,0,120.9,0,11.11,0,11.2,.02,13.34-10.91,1.8-9.18,2.33-18.35-.88-27.71-46.54,12.61-92.64,25.11-138.75,37.6Zm141.46,77.39l-.21-1.04H10.92c-.03,.46-.06,.91-.09,1.37,1.53,.19,3.11,.2,4.57,.63,2.68,.78,5.27,1.85,7.94,2.69,1.37,.43,2.82,.87,4.24,.87,43.46,.04,86.92,.04,130.38,0,1.41,0,2.85-.41,4.21-.86,2.66-.88,5.26-1.96,7.91-2.87,1.09-.38,2.26-.53,3.4-.78Z"/>
      <path d="M10.13,96.27H169.22c-1.73,23.86-12.66,42.16-32.34,54.58-29.9,18.88-61.1,19.64-91.58,1.87-20.92-12.2-33.64-30.75-35.17-56.45Z"/>
      <path d="M16.31,20.81c32.9,15.34,65.14,30.37,98.44,45.9-6.68,1.91-12.42,3.62-18.2,5.19-21.83,5.92-43.7,11.69-65.48,17.77-3.78,1.05-5.54,.15-7.55-3.08C12.19,68.3,7.97,48.93,13.82,27.86c.62-2.22,1.53-4.36,2.48-7.05Z"/>
      <path d="M64.27,39.31c32.35-11.51,63.69-22.67,96.02-34.17,.88,3.75,1.95,7.17,2.44,10.67,1.75,12.68,.01,24.96-5.06,36.68-.66,1.52-2.57,3.02-4.21,3.51-10.38,3.06-20.82,5.92-31.3,8.61-1.93,.5-4.44,.53-6.18-.29-16.98-8.05-33.85-16.32-51.72-25.01Z"/>
      <path d="M32.02,92.19c46.11-12.49,92.21-24.99,138.75-37.6,3.21,9.35,2.69,18.53,.88,27.71-2.14,10.93-2.24,10.91-13.34,10.91-40.3,0-80.6,0-120.9,0-1.76,0-3.51,0-5.27,0-.04-.34-.08-.68-.12-1.01Z"/>
      <path d="M173.48,169.58c-1.14,.25-2.31,.41-3.4,.78-2.65,.91-5.25,1.99-7.91,2.87-1.35,.45-2.8,.86-4.21,.86-43.46,.05-86.92,.05-130.38,0-1.42,0-2.87-.44-4.24-.87-2.67-.84-5.26-1.92-7.94-2.69-1.46-.42-3.04-.43-4.57-.63,.03-.46,.06-.91,.09-1.37H173.27l.21,1.04Z"/>
    </g>
  </g>
</svg>