<svg xmlns="http://www.w3.org/2000/svg" width="18" height="18" viewBox="0 0 18 18" fill="none">
<path d="M9 12C10.6569 12 12 10.6569 12 9C12 7.34315 10.6569 6 9 6C7.34315 6 6 7.34315 6 9C6 10.6569 7.34315 12 9 12Z" stroke="#272621" stroke-width="1.125" stroke-linecap="round" stroke-linejoin="round"/>
<path d="M2.25 12V6C2.25 3.92893 3.92893 2.25 6 2.25H12C14.0711 2.25 15.75 3.92893 15.75 6V12C15.75 14.0711 14.0711 15.75 12 15.75H6C3.92893 15.75 2.25 14.0711 2.25 12Z" stroke="#272621" stroke-width="1.125"/>
<path d="M13.125 4.8825L13.1325 4.87417" stroke="#272621" stroke-width="1.125" stroke-linecap="round" stroke-linejoin="round"/>
</svg>