<?xml version="1.0" encoding="UTF-8"?>
<svg id="Capa_2" data-name="Capa 2" xmlns="http://www.w3.org/2000/svg" viewBox="0 0 156.16 37">
  <defs>
    <style>
      .cls-1, .cls-2 {
        fill: #f7f2e245;
      }

      .cls-2 {
        fill-rule: evenodd;
      }
    </style>
  </defs>
  <g id="Capa_1-2" data-name="Capa 1">
    <path class="cls-2" d="M129.21,33.74c-.95,2.08-2.83,3.08-5.09,3.08-3.92,0-6.22-3-6.22-7.03s2.31-7.11,6.31-7.11c2.22,0,4,.97,4.95,2.92v-9.36h1.92v20.26h-1.67l-.19-2.75Zm-9.36-4c0,3.11,1.69,5.34,4.61,5.34s4.67-2.22,4.67-5.34-1.72-5.34-4.67-5.34-4.61,2.25-4.61,5.34Zm-21.28,6.75v-11.84h2.7v-1.61h-2.7v-4.25h-1.89v4.25h-2.7v1.61h2.7v11.84h1.89Zm14.64-13.45v7.14c0,3.2-1.53,4.92-4.11,4.92-2.14,0-3.56-1.14-3.56-4.33v-7.75h-1.94v8.36c0,3.28,1.72,5.45,4.89,5.45,2.11,0,3.97-1.06,4.72-2.61l.25,2.28h1.67v-13.45h-1.92Zm22.81-3.7c.78,0,1.44-.64,1.44-1.42s-.67-1.44-1.44-1.44-1.42,.67-1.42,1.44,.64,1.42,1.42,1.42Zm-.95,17.14h1.92v-13.45h-1.92v13.45Zm11.81,.33c-3.94,0-6.83-2.97-6.83-7.06s2.89-7.09,6.83-7.09,6.84,2.97,6.84,7.09-2.89,7.06-6.84,7.06Zm0-12.42c-2.89,0-4.89,2.22-4.89,5.34s2,5.36,4.89,5.36,4.89-2.2,4.89-5.36-2.03-5.34-4.89-5.34Zm-59.64,12.42c-3.03,0-4.92-1.61-4.92-4.11h1.83c0,1.56,1.17,2.53,3.06,2.53,2.08,0,3.31-.89,3.31-2.33,0-1.11-.56-1.75-2.14-2.14l-2.31-.58c-2.33-.58-3.47-1.81-3.47-3.64,0-2.36,1.97-3.86,4.86-3.86s4.67,1.56,4.75,4.06h-1.86c-.06-1.56-1.14-2.47-2.95-2.47s-2.95,.81-2.95,2.25c0,1.03,.72,1.75,2.2,2.11l2.31,.58c2.33,.58,3.39,1.67,3.39,3.61,0,2.42-2.06,4-5.11,4Z"/>
    <path class="cls-1" d="M25.01,32.57v-1.47h-1.32v1.42c0,.41-.05,.76-.1,1.07-.15,1.07-.66,1.72-1.27,1.98-.2,.1-.41,.15-.66,.15-1.07,0-1.78-.76-1.78-2.69v-13.29c-.05-6.09-3.09-8.73-9.54-8.73C4.51,11.01,.61,14.36,.61,16.89l-.05,.05c0,1.32,.91,2.18,1.98,2.23,.05,.05,.15,.05,.25,.05,1.17,0,2.18-.66,2.18-2.08,0-1.01-.66-1.78-1.67-1.83-.1-.05-.25-.05-.36-.05,.96-1.27,2.84-2.69,5.88-2.94,.3,0,.66-.05,1.01-.05,4.51,0,6.65,2.33,6.95,5.58,0,.25,.05,.51,.05,.81,0,2.08-.81,2.43-10.4,5.48-.51,.15-.91,.3-1.37,.46-3.96,1.52-5.07,3.6-5.07,6.34,0,3.25,2.38,5.43,5.99,5.94,.66,.1,1.37,.15,2.08,.1,3.75-.05,6.8-1.52,8.83-4.11h.25c.15,1.72,.86,2.89,2.03,3.5,.71,.46,1.52,.66,2.49,.61,1.88-.05,3.35-1.32,3.35-4.41Zm-16.38,3.04c-3.15,0-5.43-1.62-5.43-5.07,0-6.19,7.91-5.58,13.65-8.83v6.9c0,.81-.2,1.62-.51,2.38-1.01,2.69-3.91,4.62-7.71,4.62Z"/>
    <path class="cls-1" d="M39.32,35.31h-3.55c-1.01,0-1.27-.51-1.27-1.62v-13.59c2.08-4.06,4.87-7.46,7.76-7.46,.51,0,.86,.1,1.17,.3-.61,.25-.96,.81-.96,1.47,0,1.42,1.01,2.13,2.18,2.13s2.18-.86,2.18-2.33c0-1.67-1.42-3.2-3.91-3.2-3.2,0-6.14,2.74-8.22,6.19h-.25v-5.68h-7.25v1.27h2.99c1.01,0,1.27,.51,1.27,1.52v19.43c0,1.07-.25,1.57-1.27,1.57h-2.99v1.22h12.12v-1.22Z"/>
    <path class="cls-1" d="M57.98,35.31h-2.89c-.91,0-1.27-.51-1.27-1.62v-6.75l5.17-4.77,7.66,11.16c.76,1.22,.36,1.98-.76,1.98h-1.78v1.22h10.8v-1.22h-.81c-2.03,0-3.09-.71-4.51-2.74l-8.47-12.23,5.02-4.67c2.54-2.33,3.8-2.89,5.99-2.89h84.03v-1.27H62.7v1.27h1.78c1.42,0,1.98,.76,.66,1.98l-11.31,10.5V0h-7.3V1.22h2.99c.91,0,1.22,.51,1.22,1.57v30.94c0,1.07-.3,1.57-1.22,1.57h-2.99v1.22h11.46v-1.22Z"/>
  </g>
</svg>