<svg xmlns="http://www.w3.org/2000/svg" width="94" height="70" viewBox="0 0 94 70" fill="none">
<path fill-rule="evenodd" clip-rule="evenodd" d="M61.4893 65.9555C60.2505 68.6883 57.7727 70 54.8213 70C49.6837 70 46.6594 66.0648 46.6594 60.7814C46.6594 55.4615 49.6837 51.4534 54.9306 51.4534C57.8456 51.4534 60.1776 52.7287 61.4165 55.2794V43H63.9306V69.5628H61.7444L61.4893 65.9555ZM49.21 60.7085C49.21 64.7895 51.4327 67.7045 55.2586 67.7045C59.1209 67.7045 61.38 64.7895 61.38 60.7085C61.38 56.664 59.1209 53.7126 55.2586 53.7126C51.4327 53.7126 49.21 56.664 49.21 60.7085Z" fill="#272621"/>
<path d="M21.3056 69.5628V54.0405H24.84V51.9271H21.3056V46.3522H18.8279V51.9271H15.2935V54.0405H18.8279V69.5628H21.3056Z" fill="#272621"/>
<path d="M40.5026 51.9271V61.2915C40.5026 65.4818 38.4986 67.7409 35.1099 67.7409C32.3042 67.7409 30.4459 66.247 30.4459 62.0567V51.8907H27.8953V62.8583C27.8953 67.1579 30.1544 70 34.3083 70C37.0775 70 39.5188 68.6154 40.5026 66.5749L40.8306 69.5628H43.0168V51.9271H40.5026Z" fill="#272621"/>
<path d="M70.4159 47.081C71.4361 47.081 72.3106 46.2429 72.3106 45.2227C72.3106 44.2024 71.4361 43.3279 70.4159 43.3279C69.3957 43.3279 68.5576 44.2024 68.5576 45.2227C68.5576 46.2429 69.3957 47.081 70.4159 47.081Z" fill="#272621"/>
<path d="M69.177 69.5628H71.6912V51.9271H69.177V69.5628Z" fill="#272621"/>
<path fill-rule="evenodd" clip-rule="evenodd" d="M84.6589 70C79.4848 70 75.6953 66.1012 75.6953 60.7449C75.6953 55.3522 79.4848 51.4534 84.6589 51.4534C89.833 51.4534 93.6224 55.3522 93.6224 60.7449C93.6224 66.1012 89.833 70 84.6589 70ZM84.6589 53.7126C80.8694 53.7126 78.2459 56.6275 78.2459 60.7085C78.2459 64.8623 80.8694 67.7409 84.6589 67.7409C88.4119 67.7409 91.0718 64.8623 91.0718 60.7085C91.0718 56.6275 88.4119 53.7126 84.6589 53.7126Z" fill="#272621"/>
<path d="M6.44939 69.9996C2.47773 69.9996 0 67.8862 0 64.6068H2.40486C2.40486 66.6473 3.93522 67.9226 6.41296 67.9226C9.14575 67.9226 10.749 66.7566 10.749 64.8619C10.749 63.4044 10.0202 62.5664 7.94332 62.0562L4.91903 61.2911C1.8583 60.5259 0.364372 58.9226 0.364372 56.5178C0.364372 53.4206 2.95142 51.453 6.74089 51.453C10.4575 51.453 12.8623 53.4935 12.9717 56.7728H10.5304C10.4575 54.7324 9.03644 53.5299 6.66802 53.5299C4.19028 53.5299 2.80567 54.5866 2.80567 56.4813C2.80567 57.8295 3.75304 58.7769 5.68421 59.2506L8.7085 60.0158C11.7692 60.7809 13.1538 62.202 13.1538 64.7526C13.1538 67.9226 10.4575 69.9996 6.44939 69.9996Z" fill="#272621"/>
<path d="M34.0085 32.5668V31.0957H32.6896V32.5161C32.6896 32.9219 32.6389 33.277 32.5881 33.5814C32.4359 34.6466 31.9287 35.3061 31.32 35.5597C31.117 35.6612 30.9141 35.7119 30.6605 35.7119C29.5952 35.7119 28.885 34.951 28.885 33.0234V19.7329C28.8343 13.6456 25.7907 11.0078 19.3483 11.0078C13.5147 11.0078 9.60873 14.3558 9.60873 16.8921L9.558 16.9429C9.558 18.2618 10.4711 19.1241 11.5364 19.1749C11.5871 19.2256 11.6885 19.2256 11.79 19.2256C12.9567 19.2256 13.9713 18.5661 13.9713 17.1458C13.9713 16.1312 13.3118 15.3703 12.2973 15.3196C12.1958 15.2689 12.0436 15.2689 11.9422 15.2689C12.906 14.0007 14.7829 12.5803 17.8265 12.3267C18.1309 12.3267 18.486 12.276 18.8411 12.276C23.3558 12.276 25.4863 14.6094 25.7907 17.856C25.7907 18.1096 25.8414 18.3632 25.8414 18.6676C25.8414 20.7474 25.0298 21.1025 15.4423 24.1461C14.9351 24.2983 14.5293 24.4505 14.0727 24.6027C10.116 26.1245 9 28.2043 9 30.9436C9 34.1901 11.3842 36.3714 14.9858 36.8786C15.6453 36.9801 16.3554 37.0308 17.0656 36.9801C20.8194 36.9294 23.8631 35.4583 25.8921 32.8712H26.1458C26.298 34.5959 27.0081 35.7626 28.1749 36.3714C28.885 36.8279 29.6967 37.0308 30.6605 36.9801C32.5374 36.9294 34.0085 35.6612 34.0085 32.5668ZM17.6236 35.6105C14.4785 35.6105 12.1958 33.9872 12.1958 30.5377C12.1958 24.349 20.1092 24.9578 25.8414 21.7112V28.6101C25.8414 29.4218 25.6385 30.2334 25.3341 30.9943C24.3196 33.6828 21.4282 35.6105 17.6236 35.6105Z" fill="#272621"/>
<path d="M48.3151 35.3061H44.7642C43.7497 35.3061 43.4961 34.7988 43.4961 33.6828V20.088C45.5759 16.0298 48.3659 12.6311 51.2573 12.6311C51.7646 12.6311 52.1197 12.7325 52.424 12.9354C51.8153 13.1891 51.4602 13.7471 51.4602 14.4065C51.4602 15.8269 52.4748 16.5371 53.6415 16.5371C54.8589 16.5371 55.8228 15.6747 55.8228 14.2036C55.8228 12.5296 54.4024 11.0078 51.9168 11.0078C48.721 11.0078 45.7788 13.7471 43.699 17.1965H43.4453V11.5151H36.1913V12.7832H39.1842C40.1988 12.7832 40.4524 13.2905 40.4524 14.3051V33.7336C40.4524 34.7988 40.1988 35.3061 39.1842 35.3061H36.1913V36.5236H48.3151V35.3061Z" fill="#272621"/>
<path d="M66.9784 35.3061H64.0869C63.1738 35.3061 62.8187 34.7988 62.8187 33.6828V26.9361L67.9929 22.1678L75.6527 33.3277C76.4136 34.5452 76.0078 35.3061 74.8918 35.3061H73.1164V36.5236H83.9212V35.3061H83.1096C81.0805 35.3061 80.0153 34.5959 78.5949 32.5668L70.1235 20.3416L75.1454 15.6747C77.6818 13.3412 78.95 12.7832 81.1312 12.7832H84.1608V11.5151H71.696V12.7832H73.4714C74.8918 12.7832 75.4498 13.5442 74.1309 14.7616L62.8187 25.2621V0H55.514V1.21745H58.5069C59.42 1.21745 59.7244 1.72472 59.7244 2.78999V33.7336C59.7244 34.7988 59.42 35.3061 58.5069 35.3061H55.514V36.5236H66.9784V35.3061Z" fill="#272621"/>
</svg>