<svg width="157" height="37" viewBox="0 0 157 37" fill="none" xmlns="http://www.w3.org/2000/svg">
<path fill-rule="evenodd" clip-rule="evenodd" d="M129.214 33.7386C128.269 35.8227 126.38 36.823 124.129 36.823C120.211 36.823 117.905 33.822 117.905 29.7928C117.905 25.7359 120.211 22.6793 124.212 22.6793C126.435 22.6793 128.214 23.6519 129.159 25.597V16.2327H131.076V36.4895H129.409L129.214 33.7386ZM119.85 29.7373C119.85 32.8494 121.545 35.0724 124.463 35.0724C127.408 35.0724 129.131 32.8494 129.131 29.7373C129.131 26.6529 127.408 24.4021 124.463 24.4021C121.545 24.4021 119.85 26.6529 119.85 29.7373ZM98.5699 36.4895V24.6522H101.265V23.0406H98.5699V18.7891H96.6804V23.0406H93.985V24.6522H96.6804V36.4895H98.5699ZM113.21 23.0406V30.1819C113.21 33.3774 111.681 35.1002 109.097 35.1002C106.958 35.1002 105.54 33.9609 105.54 30.7654V23.0128H103.595V31.3767C103.595 34.6556 105.318 36.823 108.486 36.823C110.598 36.823 112.459 35.7671 113.21 34.211L113.46 36.4895H115.127V23.0406H113.21ZM136.022 19.3449C136.8 19.3449 137.467 18.7058 137.467 17.9277C137.467 17.1497 136.8 16.4828 136.022 16.4828C135.244 16.4828 134.604 17.1497 134.604 17.9277C134.604 18.7058 135.244 19.3449 136.022 19.3449ZM135.077 36.4895H136.994V23.0406H135.077V36.4895ZM146.883 36.823C142.938 36.823 140.048 33.8498 140.048 29.765C140.048 25.6525 142.938 22.6793 146.883 22.6793C150.829 22.6793 153.719 25.6525 153.719 29.765C153.719 33.8498 150.829 36.823 146.883 36.823ZM146.883 24.4021C143.993 24.4021 141.993 26.6251 141.993 29.7373C141.993 32.905 143.993 35.1002 146.883 35.1002C149.745 35.1002 151.774 32.905 151.774 29.7373C151.774 26.6251 149.745 24.4021 146.883 24.4021ZM87.2404 36.823C84.2115 36.823 82.322 35.2113 82.322 32.7105H84.156C84.156 34.2666 85.323 35.2391 87.2126 35.2391C89.2966 35.2391 90.5192 34.3499 90.5192 32.905C90.5192 31.7935 89.9635 31.1544 88.3796 30.7654L86.0733 30.1819C83.7392 29.5983 82.5999 28.3757 82.5999 26.5417C82.5999 24.1798 84.5728 22.6793 87.4626 22.6793C90.2969 22.6793 92.1309 24.2354 92.2143 26.7362H90.3525C90.2969 25.1802 89.2132 24.2632 87.4071 24.2632C85.5175 24.2632 84.4616 25.069 84.4616 26.514C84.4616 27.5421 85.1841 28.2645 86.6568 28.6258L88.9632 29.2093C91.2973 29.7928 92.3532 30.8765 92.3532 32.8216C92.3532 35.2391 90.2969 36.823 87.2404 36.823Z" fill="#272621"/>
<path d="M25.0085 32.5668V31.0957H23.6896V32.5161C23.6896 32.9219 23.6389 33.277 23.5881 33.5814C23.4359 34.6467 22.9287 35.3061 22.32 35.5597C22.117 35.6612 21.9141 35.7119 21.6605 35.7119C20.5952 35.7119 19.885 34.951 19.885 33.0234V19.7329C19.8343 13.6456 16.7907 11.0078 10.3483 11.0078C4.51472 11.0078 0.608726 14.3558 0.608726 16.8921L0.557998 16.9429C0.557998 18.2618 1.47109 19.1241 2.53636 19.1749C2.58709 19.2256 2.68854 19.2256 2.78999 19.2256C3.95672 19.2256 4.97126 18.5661 4.97126 17.1458C4.97126 16.1312 4.31181 15.3703 3.29727 15.3196C3.19581 15.2689 3.04363 15.2689 2.94218 15.2689C3.90599 14.0007 5.7829 12.5803 8.82653 12.3267C9.13089 12.3267 9.48598 12.276 9.84107 12.276C14.3558 12.276 16.4863 14.6094 16.7907 17.856C16.7907 18.1096 16.8414 18.3632 16.8414 18.6676C16.8414 20.7474 16.0298 21.1025 6.44235 24.1461C5.93508 24.2983 5.52926 24.4505 5.07272 24.6027C1.116 26.1245 0 28.2043 0 30.9436C0 34.1901 2.38418 36.3714 5.9858 36.8786C6.64526 36.9801 7.35544 37.0308 8.06562 36.9801C11.8194 36.9294 14.8631 35.4583 16.8921 32.8712H17.1458C17.298 34.5959 18.0081 35.7626 19.1749 36.3714C19.885 36.8279 20.6967 37.0308 21.6605 36.9801C23.5374 36.9294 25.0085 35.6612 25.0085 32.5668ZM8.62362 35.6105C5.47853 35.6105 3.19581 33.9872 3.19581 30.5377C3.19581 24.349 11.1092 24.9578 16.8414 21.7112V28.6101C16.8414 29.4218 16.6385 30.2334 16.3341 30.9943C15.3196 33.6828 12.4282 35.6105 8.62362 35.6105Z" fill="#272621"/>
<path d="M39.3151 35.3061H35.7642C34.7497 35.3061 34.4961 34.7988 34.4961 33.6828V20.088C36.5759 16.0298 39.3659 12.6311 42.2573 12.6311C42.7646 12.6311 43.1197 12.7325 43.424 12.9354C42.8153 13.1891 42.4602 13.7471 42.4602 14.4065C42.4602 15.8269 43.4748 16.5371 44.6415 16.5371C45.8589 16.5371 46.8228 15.6747 46.8228 14.2036C46.8228 12.5296 45.4024 11.0078 42.9168 11.0078C39.721 11.0078 36.7788 13.7471 34.699 17.1965H34.4453V11.5151H27.1913V12.7832H30.1842C31.1988 12.7832 31.4524 13.2905 31.4524 14.3051V33.7336C31.4524 34.7988 31.1988 35.3061 30.1842 35.3061H27.1913V36.5236H39.3151V35.3061Z" fill="#272621"/>
<path d="M57.9784 35.3061H55.0869C54.1738 35.3061 53.8187 34.7988 53.8187 33.6828V26.9361L58.9929 22.1678L66.6527 33.3277C67.4136 34.5452 67.0078 35.3061 65.8918 35.3061H64.1164V36.5236H74.9212V35.3061H74.1096C72.0805 35.3061 71.0152 34.5959 69.5949 32.5668L61.1235 20.3416L66.1454 15.6747C68.6818 13.3412 69.95 12.7832 72.1312 12.7832H156.161V11.5151H62.696V12.7832H64.4714C65.8918 12.7832 66.4498 13.5442 65.1309 14.7616L53.8187 25.2621V0H46.514V1.21745H49.5069C50.42 1.21745 50.7244 1.72472 50.7244 2.78999V33.7336C50.7244 34.7988 50.42 35.3061 49.5069 35.3061H46.514V36.5236H57.9784V35.3061Z" fill="#272621"/>
</svg>
