<?xml version="1.0" encoding="UTF-8"?>
<svg id="Capa_2" data-name="Capa 2" xmlns="http://www.w3.org/2000/svg" viewBox="0 0 85 125.08">
  <defs>
    <style>
      .cls-1 {
        fill: #fff;
        stroke-width: 1.5px;
      }

      .cls-1, .cls-2 {
        stroke: #0093de;
      }

      .cls-3 {
        fill: #a6a6a6;
      }

      .cls-4 {
        fill: #a5a5a5;
      }

      .cls-2 {
        fill: none;
        stroke-width: 2.5px;
      }
    </style>
  </defs>
  <g id="Capa_1-2" data-name="Capa 1">
    <g id="X29jI4.tif">
      <g>
        <path class="cls-4" d="M43.69,57.71c-.29,.43-.62,.16-.91,.14-1.38-.09-2.03,.53-1.78,1.76,.15,.76,.87,1.07,1.45,1.26,.92,.31,1.18,.84,1.04,1.71-.02,.14-.03,.3,0,.44,.16,.69,.32,1.42,1.03,1.74,.74,.33,1.36-.06,1.88-.59,.89-.9,2.1-1.27,3.17-1.84,.97-.52,3.13,.55,3.6,1.57,.24,.51,.11,.93-.31,1.24-.32,.25-.69,.45-1.04,.65-.86,.48-1.01,.9-.59,1.8,.2,.42,.45,.82,.69,1.23,.52,.88,.41,1.69-.3,2.4-.64,.64-1.09,1.36-1.38,2.21-.27,.79-.91,1.29-1.57,1.73-.85,.57-1.33,1.35-1.65,2.3-.38,1.14-.85,2.24-1.32,3.34-.38,.88-1.01,1.45-1.97,1.72-1.57,.45-1.7,.7-1.71,2.37,0,.55-.1,1.11-.12,1.66-.06,1.13,.34,1.59,1.48,1.74,1.15,.15,1.45,.81,.83,1.77-.37,.57-.94,.77-1.43,.38-1.8-1.43-3.43-.86-4.94,.39-.94,.77-2.25,1.03-2.91,2.17-.15,.25-.42,.4-.71,.49-1.53,.49-3.07,2.94-2.82,4.55,.23,1.49,.18,2.87-.81,4.17-.49,.65-.69,1.54-.95,2.35-.31,.95-.66,1.88-1.25,2.7-.31,.42-.27,.88-.18,1.35,.21,1.1,0,1.48-1.04,1.7-.66,.14-1.03,.49-1.4,1.05-1.05,1.59-2,3.29-3.33,4.62-1.77,1.77-4.09,2.49-6.61,1.8-1.52-.41-3.05-.85-4.39-1.75-.21-.14-.49-.25-.74-.27-1.07-.06-1.97-.29-2.54-1.38-.3-.58-1.02-.59-1.56-.19-1.23,.93-2.65,.8-3.97,.57-1.19-.21-2.02-1.15-2.54-2.24-.29-.61,.03-1.05,.62-1.34,1.13-.56,1.36-1.24,.73-2.32-.33-.56-.05-1.03,.12-1.5,.73-1.97,1.76-3.76,3.2-5.31,2.13-2.31,3.87-4.92,5.78-7.4,.81-1.06,1.65-2.06,3.18-2.03,.36,0,.69-.22,1-.49,1.04-.9,2.12-1.76,3.18-2.63,.09-.07,.19-.16,.3-.19,2.67-.75,3.81-3.21,5.57-4.97,.46-.45,.8-1,1.48-1.18,.5-.13,.64-.66,.96-.98,1.15-1.13,2.24-2.3,3.21-3.6,1.51-2.02,2.26-4.28,2.41-6.76,.06-.98,.37-1.62,1.43-2,1.83-.67,2.5-2.34,2.97-4.09,.34-1.27,.13-2.56,.27-3.85,.13-1.21,.83-1.92,1.75-2.47,.77-.47,1.52-.91,2.22-1.51,.9-.77,2.08-.47,3.19-.2Z"/>
        <path class="cls-4" d="M79.39,47.13c-.47-.48-.42-.91-.18-1.35,.21-.39,.14-.59-.34-.62-.44-.03-.87-.08-1.3-.16-2.44-.46-4.15,1.32-5.27,2.94-.46,.67-.45,1.54,.14,2.21,.56,.64,.54,1.29,.28,2.03-.86,2.47-2.36,4.57-3.94,6.6-.98,1.25-1.91,2.52-2.66,3.91-1.06,1.96-2.7,3.45-4.17,5.07-.37,.41-.9,.66-1.41,.88-1.1,.47-1.73,.23-2.27-.87-.06-.13-.11-.35-.2-.37-1.06-.23-1.83-1.17-2.98-1.15-.2,0-.46,.12-.57-.08-.15-.24,.08-.46,.23-.61,1.23-1.24,2.07-2.74,3.01-4.2,1.22-1.9,1.26-3.97,.94-6.02-.27-1.72-1.52-2.83-3.26-3.16-.98-.19-1.75-.59-2.32-1.39-.73-1.04-1.71-1.64-2.99-1.77-1.08-.11-1.76-.77-2.03-1.8-.27-1.01,.14-1.91,1.05-2.6,.8-.59,1.71-.91,2.67-1.07,1.94-.31,2.72-1.66,3.09-3.37,.17-.8,.24-1.62,.38-2.42,.15-.87,.28-1.73,1.11-2.29,.49-.33,.22-.71-.09-1.02-.55-.56-.85-1.09,.08-1.58,.33-.18,.34-.53,.22-.86-.2-.58-.41-1.16-.62-1.73-.06-.16-.21-.32-.21-.48,0-1.21-.63-2.14-1.26-3.09-.18-.27-.28-.64,0-.89,.25-.23,.38,.14,.55,.26,.33,.23,.61,.1,.87-.13,.25-.22,.5-.46,.37-.82-.13-.37-.43-.53-.82-.55-.94-.04-1.57-.43-2.1-1.21-.57-.85-1.08-1.74-1.76-2.52-.24-.27-.52-.65-.15-1.01,.38-.37,.73-.1,1.08,.17,.31,.23,.54,.85,1.06,.36,.31-.29,.03-1.31-.42-1.56-.58-.33-1.2-.43-1.86-.27-.66,.16-1.23-.08-1.37-.76-.34-1.61-1.4-2.75-2.41-3.91-.73-.83-1.31-1.73-1.75-2.72-.43-.99-1.06-1.81-1.88-2.51-.29-.24-.54-.54-.75-.85-.27-.39-.37-.79,.11-1.15,.52-.39,.49-.85,.17-1.39-.9-1.51-1.7-3.08-3.13-4.19-.07-.05-.12-.13-.14-.21-.06-.2,.03-.39,.19-.44,.63-.21,1.26-.49,1.94-.37,.23,.04,.26,.26,.19,.5-.25,.85,.1,1.53,.63,2.18,.33,.41,.63,.84,.94,1.28,.24,.34,.43,.68,.98,.43,.41-.18,.51,.28,.68,.53,.24,.35,.43,.51,.92,.27,1.11-.55,2.54-.05,3.18,1.01,.21,.35,.42,.71,.58,1.08,.3,.66,.62,1.23,1.5,.78,.3-.15,.51,.09,.61,.35,.43,1.1,1.14,2.04,1.74,3.04,.38,.64,.4,1.27,.01,1.91-.45,.76-.37,1.44,.25,2.07,.36,.38,.68,.81,1.03,1.2,.76,.84,.99,1.76,.52,2.83-.38,.87,0,3.28,.79,3.98,.45,.39,1.03,.46,1.55,.53,1.1,.14,1.65,.76,1.9,1.77,.06,.26,.13,.51,.23,.75,.15,.36,.41,.57,.82,.52,.41-.05,.49-.41,.54-.71,.09-.52,.09-1.04-.19-1.54-.3-.52-.53-1.06-.05-1.62,.06-.08,.11-.27,.07-.32-.56-.61-.07-1.65-.92-2.15-.22-.13-.35-.43-.15-.69,.23-.3,.53-.2,.79-.06,.64,.34,.95,.97,1.14,1.61,.19,.62,.44,.94,1.12,.66,.16-.07,.36-.16,.46,.04,.04,.09-.03,.3-.12,.39-.42,.42-.22,.55,.19,.87,.49,.39,.44,1.12,.51,1.72,.16,1.42,.27,2.85,.37,4.28,.05,.74,.37,1.3,1,1.66,2.28,1.32,4.61,2.58,7.08,3.49,1.89,.7,3.66,.56,5.08-1.16,.74-.9,1.6-1.7,2.67-2.26,.79-.41,1.5-.4,2.23,.1,.29,.2,.58,.4,.88,.58,1.09,.65,1.2,.77,.55,1.83-.97,1.57-1.35,3.27-1.55,5.06-.16,1.47-.93,2.58-2.44,3.02-.61,.18-.85,.63-.87,1.18-.02,.8-.12,1.59,.25,2.41,.25,.54-.38,1.09-.6,1.72Z"/>
        <path class="cls-3" d="M13.03,122.05c-.05,.08-.11,.23-.22,.31-.79,.58-1.48,1.35-2.54,1.46-.57,.06-1.06,.26-1.37,.82-.16,.28-.43,.59-.78,.37-.39-.24-.21-.64-.03-.93,.4-.64,.8-1.29,1.16-1.96,.39-.74,.56-1.47,.25-2.27-.18-.47-.22-.97,.27-1.25,.5-.29,.87,.09,1.22,.42,.26,.25,.43,.55,.55,.88,.24,.63,.5,1.25,1.15,1.6,.18,.1,.31,.26,.33,.55Z"/>
      </g>
    </g>
    <g id="Combined">
      <g id="south-island-alpine-lakes-itinerary">
        <path id="Path-5" class="cls-2" d="M40.4,90.5c-1.26-.04-2.93,.33-4.99,1.11-1.35,.51-4.2,2.66-6.7,3.39-3.24,.95-6.16,.47-7.15,.66-.83,.16-1.39,2.68-1.6,3.26-.89,2.43-3.54,5.12-7.95,8.08"/>
        <g id="Group">
          <g id="Oval-Copy">
            <circle class="cls-1" cx="11.91" cy="107" r="3.75"/>
          </g>
        </g>
        <g id="Group-2" data-name="Group">
          <g id="Oval-Copy-2" data-name="Oval-Copy">
            <circle class="cls-1" cx="40.41" cy="90.5" r="3.75"/>
          </g>
        </g>
        <g id="Group-3" data-name="Group">
          <g id="Oval-Copy-3" data-name="Oval-Copy">
            <circle class="cls-1" cx="21.56" cy="95.66" r="3.75"/>
          </g>
        </g>
      </g>
    </g>
  </g>
</svg>