<?xml version="1.0" encoding="UTF-8"?>
<svg id="Capa_2" data-name="Capa 2" xmlns="http://www.w3.org/2000/svg" viewBox="0 0 335.31 303.53">
  <defs>
    <style>
      .cls-1 {
        fill: #fff;
      }
    </style>
  </defs>
  <g id="Capa_1-2" data-name="Capa 1">
    <path class="cls-1" d="M167.71,41.45c7.88-11.82,15.53-23.31,23.19-34.79,.83-1.24,1.63-2.53,2.59-3.66,2.68-3.16,7.15-3.85,10.45-1.71,3.48,2.26,4.59,6.67,2.56,10.54-.75,1.43-1.7,2.76-2.59,4.11-8.15,12.25-16.24,24.54-24.54,36.68-1.65,2.42-1.72,3.99-.04,6.5,50.98,76.31,101.87,152.69,152.77,229.06,.83,1.24,1.72,2.47,2.37,3.81,2.46,5.06-.66,10.77-6.23,11.46-1.11,.14-2.24,.07-3.37,.07-104.79,0-209.59,0-314.38,0-.37,0-.75-.02-1.12,0-3.66,.18-6.65-.97-8.44-4.36-1.71-3.25-.87-6.21,1.08-9.11,9.71-14.5,19.38-29.04,29.06-43.56,41.56-62.35,83.11-124.72,124.76-187.02,1.81-2.71,1.83-4.47-.02-7.16-8.88-12.96-17.5-26.1-26.22-39.17-2.05-3.07-2.59-6.21-.49-9.44,1.89-2.92,4.81-4.42,8.02-3.35,2.27,.76,4.64,2.52,6,4.49,7.52,10.87,14.75,21.94,22.08,32.93,.75,1.13,1.53,2.23,2.51,3.68Zm-.03,28.84C119.36,142.8,71.31,214.9,22.86,287.6h4.35c22.83,0,45.66-.06,68.49,.07,2.87,.02,4.46-.94,6.01-3.28,19.21-29,38.71-57.81,57.69-86.96,4.65-7.15,12.28-6.63,16.63,.05,18.97,29.16,38.49,57.96,57.7,86.96,1.57,2.37,3.19,3.23,6.03,3.22,22.7-.12,45.41-.07,68.11-.07,1.29,0,2.59,0,4.68,0-48.49-72.76-96.47-144.73-144.84-217.31Zm48.86,217.09c-16.42-24.63-32.51-48.78-48.86-73.31-16.39,24.6-32.45,48.71-48.84,73.31h97.7Z"/>
  </g>
</svg>