<?xml version="1.0" standalone="no"?>
<!DOCTYPE svg PUBLIC "-//W3C//DTD SVG 1.1//EN" "http://www.w3.org/Graphics/SVG/1.1/DTD/svg11.dtd" >
<svg xmlns="http://www.w3.org/2000/svg" xmlns:xlink="http://www.w3.org/1999/xlink" version="1.1">
<metadata>
Created by FontForge 20170731 at Mon Jan 29 15:30:51 2018
 By Aleksey,,,
Alice Savoie. Le caractere Faune est une commande du Centre national des arts plastiques.
</metadata>
<defs>
<font id="Faune-TextRegular" horiz-adv-x="500" >
  <font-face 
    font-family="Faune Text"
    font-weight="400"
    font-stretch="normal"
    units-per-em="1000"
    panose-1="2 0 0 0 0 0 0 0 0 0"
    ascent="800"
    descent="-200"
    x-height="475"
    cap-height="690"
    bbox="-38 -250 1067 997"
    underline-thickness="77"
    underline-position="-325"
    unicode-range="U+0020-FB02"
  />
<missing-glyph 
d="M60 0v690h380v-690h-380zM151 630l99 -215l99 215h-198zM124 550v-410l94 205zM282 345l94 -205v410zM151 60h198l-99 215z" />
    <glyph glyph-name="fi" unicode="fi" horiz-adv-x="555" 
d="M92 0v422v3v3h-77v37l74 10h1q-2 26 -5 45.5t-3 47.5t7 53.5t22.5 45t41 31.5t60.5 12q49 0 73 -22t31 -50q2 -10 2.5 -22t-0.5 -25h-29q-2 23 -17 38t-43 15q-38 0 -52 -22.5t-14 -53.5q1 -25 6.5 -44.5t10.5 -48.5h198l97 5v-480h-97v428h-192q1 -12 1.5 -26.5
t0.5 -30.5v-371h-97zM384 612v98h97v-98h-97z" />
    <glyph glyph-name="fl" unicode="fl" horiz-adv-x="563" 
d="M92 0v422v3v3h-77v37l74 10v0q-2 26 -5.5 45.5t-3.5 47.5t8 53.5t25 45t43.5 31.5t61.5 12q49 0 74 -22t32 -50q2 -10 2.5 -22t-0.5 -25h-30q-2 23 -17.5 38t-42.5 15q-37 0 -54.5 -22.5t-17.5 -53.5q1 -25 6.5 -44.5t10.5 -48.5h121v-47h-115q1 -12 1.5 -26.5t0.5 -30.5
v-371h-97zM391 705l97 5v-710h-97v705z" />
    <glyph glyph-name=".notdef" 
d="M60 0v690h380v-690h-380zM151 630l99 -215l99 215h-198zM124 550v-410l94 205zM282 345l94 -205v410zM151 60h198l-99 215z" />
    <glyph glyph-name=".null" horiz-adv-x="0" 
 />
    <glyph glyph-name="nonmarkingreturn" horiz-adv-x="333" 
 />
    <glyph glyph-name="space" unicode=" " horiz-adv-x="230" 
 />
    <glyph glyph-name="exclam" unicode="!" horiz-adv-x="294" 
d="M188 192h-82l-15 498h112zM90 44q0 23 15.5 37.5t43.5 14.5q25 0 40 -14.5t15 -37.5q0 -25 -15 -39.5t-40 -14.5q-28 0 -43.5 14.5t-15.5 39.5z" />
    <glyph glyph-name="quotedbl" unicode="&#x22;" horiz-adv-x="294" 
d="M109 537h-69v173h69v-173zM259 537h-69v173h69v-173z" />
    <glyph glyph-name="numbersign" unicode="#" horiz-adv-x="625" 
d="M194 0h-90l28 187h-110v64h119l25 171h-107v64h117l26 179h90l-26 -179h140l27 179h90l-27 -179h108v-64h-117l-26 -171h106v-64h-115l-28 -187h-90l28 187h-140zM231 251h140l26 171h-141z" />
    <glyph glyph-name="dollar" unicode="$" horiz-adv-x="585" 
d="M325 -87h-63v78q-99 5 -154.5 55.5t-55.5 143.5h44q5 -67 52.5 -97.5t113.5 -31.5v241q-3 1 -6.5 2t-6.5 2q-78 22 -125.5 64t-47.5 125q0 81 51 129.5t135 55.5v70h63v-71q84 -9 131 -59t47 -128h-47q-3 55 -41.5 84t-89.5 33v-224q3 -1 6 -1.5t6 -1.5q84 -23 135 -68
t51 -130q0 -84 -57 -133.5t-141 -58.5v-79zM185 504q0 -34 20 -57.5t57 -39.5v196q-36 -9 -56.5 -33.5t-20.5 -65.5zM410 173q0 38 -22.5 62.5t-62.5 43.5v-211q37 10 61 36t24 69z" />
    <glyph glyph-name="percent" unicode="%" horiz-adv-x="650" 
d="M142 447q-54 0 -88 33.5t-34 84.5q0 54 34 86.5t88 32.5q53 0 87 -32.5t34 -86.5q0 -51 -34 -84.5t-87 -33.5zM448 670h77l-340 -670h-78zM142 506q25 0 42 17.5t17 41.5t-17 41.5t-42 17.5t-42 -17.5t-17 -41.5t17 -41.5t42 -17.5zM510 -10q-54 0 -88 33.5t-34 85.5
q0 54 34 86t88 32q52 0 86 -32t34 -86q0 -52 -34 -85.5t-86 -33.5zM509 50q25 0 42 17t17 41q0 25 -17 42t-42 17t-42 -17t-17 -42q0 -24 17 -41t42 -17z" />
    <glyph glyph-name="ampersand" unicode="&#x26;" horiz-adv-x="722" 
d="M705 124q0 -62 -32.5 -98t-98.5 -36q-31 0 -60.5 10.5t-60.5 37.5q-37 -23 -80 -35.5t-89 -12.5q-54 0 -99.5 13.5t-79 40t-52 66t-18.5 90.5t17 87t44.5 61t63 41t71.5 27q-13 33 -21 64t-8 56q0 43 14.5 74t39.5 50.5t58.5 28.5t70.5 9q40 0 69 -11t48 -29.5t28.5 -42
t9.5 -48.5q0 -39 -16.5 -66.5t-43.5 -46.5t-62 -31t-72 -21q16 -34 35 -69.5t38 -72.5q19 -36 35 -64.5t30 -50.5q31 33 51 81.5t24 112.5h51q0 -75 -24 -137t-65 -108q19 -21 38 -30t42 -9q27 0 45 16t19 53h40zM303 544q0 -22 6.5 -47t17.5 -53q57 16 100 40t43 77
q0 34 -19.5 56.5t-59.5 22.5q-41 0 -64.5 -24t-23.5 -72zM321 228l-38 74t-35 73q-49 -20 -77.5 -56.5t-28.5 -98.5q0 -39 13 -67.5t34 -46.5t50 -27t60 -9q28 0 54.5 5.5t51.5 15.5q-19 25 -40.5 59.5t-43.5 77.5z" />
    <glyph glyph-name="quotesingle" unicode="'" horiz-adv-x="149" 
d="M109 537h-69v173h69v-173z" />
    <glyph glyph-name="parenleft" unicode="(" horiz-adv-x="324" 
d="M158 270q0 -91 17.5 -163.5t40.5 -125t45.5 -85.5t32.5 -46l-49 -43q-25 19 -58.5 59t-63.5 99t-51.5 136t-21.5 169t21 170t51.5 137.5t64 100.5t58.5 60l49 -43q-10 -13 -32.5 -46.5t-45.5 -87t-40.5 -127t-17.5 -164.5z" />
    <glyph glyph-name="parenright" unicode=")" horiz-adv-x="324" 
d="M166 275q0 91 -17.5 163.5t-40.5 125t-45.5 85.5t-32.5 46l49 43q25 -19 58.5 -59t63.5 -99t51.5 -136t21.5 -169t-21 -170t-51.5 -137.5t-64 -100.5t-58.5 -60l-49 43q10 13 32.5 46.5t45.5 87t40.5 127t17.5 164.5z" />
    <glyph glyph-name="asterisk" unicode="*" horiz-adv-x="483" 
d="M398 371l-81 -56l-75 153l-71 -155l-82 55l123 123l-157 12l23 93l141 -67l-26 161h98l-27 -161l142 67l22 -93l-156 -12z" />
    <glyph glyph-name="plus" unicode="+" horiz-adv-x="585" 
d="M332 94h-79v178h-173v79h173v178h79v-178h173v-79h-173v-178z" />
    <glyph glyph-name="comma" unicode="," horiz-adv-x="254" 
d="M52 -137q20 14 45.5 52t29.5 78q-26 0 -41 14t-15 40q0 24 16 40t39 16q29 0 44 -18t15 -44q0 -37 -12 -71t-29 -61.5t-36.5 -47t-34.5 -27.5z" />
    <glyph glyph-name="hyphen" unicode="-" horiz-adv-x="367" 
d="M60 343h247v-77h-247v77z" />
    <glyph glyph-name="period" unicode="." horiz-adv-x="254" 
d="M70 48q0 22 15.5 39t42.5 17q25 0 40.5 -17t15.5 -39q0 -25 -15 -41.5t-40 -16.5q-28 0 -43.5 16.5t-15.5 41.5z" />
    <glyph glyph-name="slash" unicode="/" horiz-adv-x="443" 
d="M110 -88h-95l318 798h95z" />
    <glyph glyph-name="zero" unicode="0" horiz-adv-x="588" 
d="M295 -10q-53 0 -100 19.5t-81.5 61.5t-54.5 107.5t-20 156.5q0 87 19 152t52.5 107.5t81 64t103.5 21.5q53 0 99.5 -19.5t80.5 -60.5t54 -106t20 -155q0 -87 -18.5 -153t-52 -109.5t-80.5 -65t-103 -21.5zM304 75q70 0 112.5 67t42.5 198q0 137 -46 197t-109 60
q-71 0 -113.5 -64t-42.5 -198q0 -143 45.5 -201.5t110.5 -58.5z" />
    <glyph glyph-name="one" unicode="1" horiz-adv-x="412" 
d="M263 677h59v-677h-102v567l-164 -88l-18 48z" />
    <glyph glyph-name="two" unicode="2" horiz-adv-x="570" 
d="M521 3h-450v57q67 62 126.5 112.5t103.5 97t69.5 92.5t25.5 98q0 57 -31 96t-94 39q-41 0 -71 -16t-46.5 -43t-20 -62t6.5 -73h-58q-16 47 -11 96.5t30.5 89.5t73 66t116.5 26q104 0 159 -58t55 -150q0 -58 -24 -107.5t-64.5 -95t-95 -90.5t-115.5 -95h315v-80z" />
    <glyph glyph-name="three" unicode="3" horiz-adv-x="564" 
d="M507 187q0 -92 -63 -144.5t-167 -52.5q-108 0 -170.5 52.5t-53.5 164.5h58q-1 -61 38.5 -97t104.5 -36q66 0 105 33.5t39 93.5q0 63 -45 87t-114 24h-62v69h56q59 0 103.5 21t44.5 82q0 54 -32.5 84.5t-92.5 30.5q-67 0 -99.5 -36.5t-31.5 -93.5h-56q-4 51 10 90.5t42 66
t69 40.5t90 14q91 0 149 -45.5t58 -131.5q0 -69 -41 -105.5t-98 -50.5q66 -13 112.5 -49t46.5 -111z" />
    <glyph glyph-name="four" unicode="4" horiz-adv-x="585" 
d="M561 185h-118v-185h-101v185h-307v69l311 420h97v-409h118v-80zM125 265h217v294z" />
    <glyph glyph-name="five" unicode="5" horiz-adv-x="565" 
d="M516 231q0 -109 -60 -175t-167 -66q-48 0 -91 12t-74 37t-47 64.5t-11 94.5h54q0 -57 38 -90.5t107 -33.5q68 0 107.5 42.5t39.5 111.5q0 67 -39.5 104t-104.5 37q-34 0 -60 -10t-43 -22v0v0q-13 -10 -21.5 -19t-11.5 -13l-51 19l11 346h382v-80h-297l-10 -210
q19 20 55 39.5t92 19.5q96 0 149 -55.5t53 -152.5z" />
    <glyph glyph-name="six" unicode="6" horiz-adv-x="573" 
d="M306 680q60 0 101 -16.5t65 -44t33 -63t7 -72.5h-55q-1 17 -7.5 37.5t-21.5 37.5t-40.5 28.5t-65.5 11.5q-84 0 -129.5 -67.5t-45.5 -200.5q0 -12 0.5 -28t1.5 -33q11 67 60 106t126 39q38 0 72 -12t59 -37t40 -63.5t15 -90.5q0 -54 -17 -96t-46.5 -70t-69.5 -42t-86 -14
q-134 0 -194.5 90t-60.5 245q0 74 15.5 139t47 113t80.5 75.5t116 27.5zM303 346q-66 0 -99.5 -39.5t-33.5 -98.5q0 -57 32.5 -96t95.5 -39q59 0 94 38.5t35 99.5q0 68 -35.5 101.5t-88.5 33.5z" />
    <glyph glyph-name="seven" unicode="7" horiz-adv-x="522" 
d="M487 670v-56q-137 -189 -193 -343.5t-64 -270.5h-107q7 136 69 283t196 307h-338v80h437z" />
    <glyph glyph-name="eight" unicode="8" horiz-adv-x="579" 
d="M290 -10q-116 0 -177.5 50t-61.5 142q0 72 41 114.5t104 56.5q-61 15 -93 55.5t-32 100.5q0 77 54 124t164 47t165 -47t55 -124q0 -60 -32.5 -100.5t-92.5 -55.5q63 -14 104 -56.5t41 -114.5q0 -92 -62.5 -142t-176.5 -50zM290 386q54 0 87 27t33 81q0 49 -31.5 78
t-88.5 29q-58 0 -89 -29t-31 -78q0 -54 33 -81t87 -27zM290 69q56 0 95.5 31.5t39.5 96.5q0 63 -39.5 91.5t-95.5 28.5q-54 0 -94.5 -29t-40.5 -91q0 -66 38.5 -97t96.5 -31z" />
    <glyph glyph-name="nine" unicode="9" horiz-adv-x="573" 
d="M272 -10q-60 0 -101 16.5t-65 44t-33 63t-7 72.5h55q1 -17 7.5 -37.5t21.5 -37.5t40.5 -28.5t65.5 -11.5q84 0 129.5 67.5t45.5 200.5q0 12 -0.5 28t-1.5 33q-11 -67 -60 -106t-126 -39q-38 0 -72 12t-59 37t-40 63.5t-15 90.5q0 54 17 96t46.5 70t69.5 42t86 14
q134 0 194.5 -90t60.5 -245q0 -74 -15.5 -139t-47 -113t-80.5 -75.5t-116 -27.5zM275 324q66 0 99.5 39.5t33.5 98.5q0 57 -32.5 96t-95.5 39q-59 0 -94 -38.5t-35 -99.5q0 -68 35.5 -101.5t88.5 -33.5z" />
    <glyph glyph-name="colon" unicode=":" horiz-adv-x="254" 
d="M70 416q0 21 15.5 38.5t43.5 17.5q25 0 40 -17.5t15 -38.5q0 -22 -15 -40t-40 -18q-28 0 -43.5 18t-15.5 40zM70 49q0 20 15.5 37.5t43.5 17.5q25 0 40 -17.5t15 -37.5q0 -23 -15 -41t-40 -18q-28 0 -43.5 18t-15.5 41z" />
    <glyph glyph-name="semicolon" unicode=";" horiz-adv-x="255" 
d="M70 415q0 21 15.5 38.5t43.5 17.5q25 0 40 -17.5t15 -38.5q0 -22 -15 -40t-40 -18q-28 0 -43.5 18t-15.5 40zM52 -136q20 14 45.5 52t29.5 78q-26 0 -41 14t-15 40q0 24 16 39.5t39 15.5q29 0 44 -17.5t15 -43.5q0 -37 -12 -71.5t-29 -61.5t-36.5 -46.5t-34.5 -27.5z" />
    <glyph glyph-name="less" unicode="&#x3c;" horiz-adv-x="575" 
d="M480 171l-31 -67l-364 174v62l364 174l31 -67l-296 -138z" />
    <glyph glyph-name="equal" unicode="=" horiz-adv-x="585" 
d="M505 239v-79h-425v79h425zM505 463v-79h-425v79h425z" />
    <glyph glyph-name="greater" unicode="&#x3e;" horiz-adv-x="575" 
d="M490 278l-364 -174l-31 67l296 138l-296 138l31 67l364 -174v-62z" />
    <glyph glyph-name="question" unicode="?" horiz-adv-x="496" 
d="M229 289l-6 -97h-55l-6 133q34 0 67.5 7t59.5 24.5t42 47t16 75.5q0 59 -32.5 96t-97.5 37q-54 0 -86.5 -31t-36.5 -81h-47q-2 52 12.5 90t40.5 61.5t62.5 35t77.5 11.5q91 0 149 -51.5t58 -147.5q0 -63 -22 -103t-55 -63t-71 -32.5t-70 -11.5zM142 44q0 23 15.5 37.5
t43.5 14.5q25 0 40 -14.5t15 -37.5q0 -25 -15 -39.5t-40 -14.5q-28 0 -43.5 14.5t-15.5 39.5z" />
    <glyph glyph-name="at" unicode="@" horiz-adv-x="835" 
d="M669 17l39 -50q-10 -10 -31.5 -26.5t-55.5 -32.5t-81 -28t-107 -12q-102 0 -176.5 29t-122.5 79.5t-71 121.5t-23 153q0 78 25.5 153.5t76 133.5t125.5 93.5t174 35.5q81 0 147 -24.5t111.5 -68t70.5 -105t25 -135.5q0 -77 -22.5 -128t-55.5 -80.5t-71.5 -41.5t-69.5 -12
q-48 0 -68 21.5t-22 60.5q-20 -35 -51.5 -57t-74.5 -22q-59 0 -95 39.5t-36 111.5q0 46 13 88t37 73.5t59 50.5t79 19q41 0 65 -18.5t34 -52.5l1 4l14 55h65l-26 -152q-1 -4 -2.5 -15.5t-3.5 -24t-3.5 -24.5t-2.5 -17q-6 -44 1.5 -61.5t32.5 -17.5q19 0 41.5 9.5t42 32
t33 61.5t13.5 98q0 124 -75 196t-208 72q-83 0 -144.5 -30.5t-101.5 -79.5t-59.5 -112t-19.5 -128q0 -73 21 -132t62 -100.5t102.5 -64t142.5 -22.5q49 0 87.5 10t66.5 24t46 28t27 22zM491 303q0 36 -16.5 60.5t-50.5 24.5q-27 0 -47.5 -15t-33.5 -38t-19.5 -51t-6.5 -53
q0 -37 15 -61.5t50 -24.5q25 0 45.5 14t34.5 36t21.5 50.5t7.5 57.5z" />
    <glyph glyph-name="A" unicode="A" horiz-adv-x="620" 
d="M100 0h-85l246 691h107l232 -691h-121l-58 185h-257zM189 260h209l-100 317z" />
    <glyph glyph-name="B" unicode="B" horiz-adv-x="591" 
d="M80 690h211q51 0 94 -9t74.5 -30t49 -54t17.5 -81q0 -75 -45 -110.5t-108 -47.5q81 -10 133 -48.5t52 -121.5q0 -50 -18 -86t-49 -58.5t-72 -33t-87 -10.5h-252v690zM274 615h-91v-224h85q29 0 57 4.5t50 17t35.5 34t13.5 55.5q0 66 -42.5 89.5t-107.5 23.5zM299 319
h-116v-244h126q29 0 55.5 6t47 20t32.5 38t12 59q0 68 -45.5 94.5t-111.5 26.5z" />
    <glyph glyph-name="C" unicode="C" horiz-adv-x="614" 
d="M40 339q0 86 24 153.5t65.5 113t97.5 69t119 23.5q65 0 108.5 -21t69 -50t35.5 -61.5t8 -54.5h-53q-2 9 -11 25.5t-27 32.5t-46.5 28t-69.5 12q-45 0 -83.5 -17.5t-66.5 -51.5t-44 -85t-16 -116q0 -68 16 -118.5t43.5 -82.5t65 -48t80.5 -16q45 0 77.5 13t53.5 31.5
t31.5 38.5t12.5 33h49q0 -25 -11.5 -59.5t-39 -65.5t-74 -53t-115.5 -22q-63 0 -118 21t-95 64t-63 109t-23 155z" />
    <glyph glyph-name="D" unicode="D" horiz-adv-x="664" 
d="M80 690h189q91 0 158 -26t110.5 -71.5t65 -108.5t21.5 -135q0 -100 -30 -167.5t-79.5 -107.5t-113.5 -57t-132 -17h-189v690zM270 615h-87v-540h87q113 0 179 70t66 204q0 58 -14.5 107t-44.5 84.5t-76.5 55t-109.5 19.5z" />
    <glyph glyph-name="E" unicode="E" horiz-adv-x="530" 
d="M433 325h-250v-247h307v-75h-410v685h403v-75h-300v-213h250v-75z" />
    <glyph glyph-name="F" unicode="F" horiz-adv-x="485" 
d="M415 312h-232v-312h-103v688h400v-75h-297v-226h232v-75z" />
    <glyph glyph-name="G" unicode="G" horiz-adv-x="645" 
d="M40 342q0 88 26 155t69.5 111.5t101 67t119.5 22.5q66 0 110.5 -20.5t71 -49.5t36.5 -61t8 -56h-53q-2 9 -11.5 25.5t-28.5 32.5t-49 28t-72 12q-44 0 -84 -17.5t-69.5 -51.5t-47 -85t-17.5 -119q0 -128 58.5 -197t154.5 -69q37 0 62.5 7.5t42 18t26 22t13.5 19.5v131
h-116v75h209v-220q-12 -21 -31.5 -44.5t-48.5 -43t-69.5 -32.5t-95.5 -13q-71 0 -129.5 22.5t-99.5 66.5t-63.5 110.5t-22.5 152.5z" />
    <glyph glyph-name="H" unicode="H" horiz-adv-x="683" 
d="M80 690h103v-291h317v291h103v-690h-103v324h-317v-324h-103v690z" />
    <glyph glyph-name="I" unicode="I" horiz-adv-x="273" 
d="M85 690h103v-690h-103v690z" />
    <glyph glyph-name="J" unicode="J" horiz-adv-x="438" 
d="M15 180h50q2 -39 24 -72t75 -33q60 0 81 45.5t21 123.5v446h102v-448q0 -54 -9 -100t-29.5 -80t-55 -53t-85.5 -19t-85 16t-53.5 42t-27.5 60.5t-8 71.5z" />
    <glyph glyph-name="K" unicode="K" horiz-adv-x="606" 
d="M81 0v690h103v-323l282 323h94l-247 -282l280 -408h-128l-222 328l-59 -67v-261h-103z" />
    <glyph glyph-name="L" unicode="L" horiz-adv-x="505" 
d="M80 690h103v-610h312v-77h-415v687z" />
    <glyph glyph-name="M" unicode="M" horiz-adv-x="820" 
d="M153 0h-83l26 693h109l215 -527l216 527h88l26 -693h-88l-20 509l-202 -497h-60l-207 508z" />
    <glyph glyph-name="N" unicode="N" horiz-adv-x="676" 
d="M596 690v-695h-83l-352 531v-526h-81v690h101l333 -507v507h82z" />
    <glyph glyph-name="O" unicode="O" horiz-adv-x="700" 
d="M40 344q0 82 23 148t64 111.5t98.5 70t126.5 24.5q59 0 115 -20.5t98.5 -62.5t68.5 -107.5t26 -154.5q0 -84 -21.5 -151.5t-61 -114t-97 -72t-128.5 -25.5q-63 0 -120 21.5t-99.5 65t-67.5 110.5t-25 157zM568 349q0 65 -17.5 113.5t-46 80.5t-65.5 48t-76 16
q-93 0 -153 -70t-60 -193q0 -70 18 -121t48 -84t68.5 -48.5t78.5 -15.5q43 0 80.5 17.5t65 52t43.5 86t16 118.5z" />
    <glyph glyph-name="P" unicode="P" horiz-adv-x="563" 
d="M80 690h230q51 0 94 -13t74.5 -39t49 -64t17.5 -87q0 -56 -18.5 -96.5t-50 -66t-74 -37.5t-89.5 -12h-130v-275h-103v690zM284 615h-101v-265h108q29 0 56.5 6.5t48.5 22t34 41t13 63.5q0 71 -46 101.5t-113 30.5z" />
    <glyph glyph-name="Q" unicode="Q" horiz-adv-x="700" 
d="M40 344q0 82 23 148t64 111.5t98.5 70t126.5 24.5q59 0 115 -20.5t98.5 -62.5t68.5 -107.5t26 -154.5q0 -149 -67 -244t-183 -114q4 -41 30.5 -61.5t75.5 -20.5q35 0 57 15t24 43h39q0 -57 -40 -88t-104 -31q-83 0 -131 36t-52 104q-56 7 -105.5 31.5t-85.5 68t-57 107
t-21 145.5zM568 349q0 65 -17.5 113.5t-46 80.5t-65.5 48t-76 16q-93 0 -153 -70t-60 -193q0 -70 18 -121t48 -84t68.5 -48.5t78.5 -15.5q43 0 80.5 17.5t65 52t43.5 86t16 118.5z" />
    <glyph glyph-name="R" unicode="R" horiz-adv-x="607" 
d="M591 33q-13 -18 -32.5 -29t-47.5 -11q-64 0 -85 40t-26 143q-4 70 -32.5 97t-88.5 27h-96v-300h-103v690h223q51 0 94.5 -10.5t74.5 -32t49 -55.5t18 -80q0 -81 -48.5 -122t-117.5 -52q61 -7 98.5 -43.5t39.5 -113.5q3 -81 10.5 -107.5t35.5 -26.5q7 0 14 2t11 5z
M285 615h-102v-243h94q29 0 57.5 6t51.5 20t37 37.5t14 57.5q0 64 -43.5 93t-108.5 29z" />
    <glyph glyph-name="S" unicode="S" horiz-adv-x="553" 
d="M38 204h55q3 -37 18.5 -63.5t38 -43t52 -24t60.5 -7.5q59 0 100.5 24.5t41.5 86.5q0 59 -44.5 85.5t-120.5 48.5q-80 23 -129 67t-49 129q0 90 62.5 140.5t159.5 50.5q101 0 159.5 -51t51.5 -141h-54q-4 57 -45.5 87t-98.5 30t-93 -27t-36 -81q0 -51 43.5 -76.5
t115.5 -45.5q87 -25 137.5 -71.5t50.5 -133.5q0 -48 -18.5 -85t-50 -62t-75 -38t-92.5 -13q-110 0 -175 54t-65 160z" />
    <glyph glyph-name="T" unicode="T" horiz-adv-x="553" 
d="M328 0h-103v611h-225v77h553v-77h-225v-611z" />
    <glyph glyph-name="U" unicode="U" horiz-adv-x="658" 
d="M70 313v377h110v-358q0 -114 34 -184t135 -70q49 0 80 18t48.5 50t24 78.5t6.5 103.5v362h80v-371q0 -70 -12.5 -130.5t-41.5 -104.5t-77 -69t-119 -25q-81 0 -133.5 25t-82 68.5t-41 102.5t-11.5 127z" />
    <glyph glyph-name="V" unicode="V" horiz-adv-x="603" 
d="M3 690h121l197 -576l204 576h83l-247 -693h-110z" />
    <glyph glyph-name="W" unicode="W" horiz-adv-x="928" 
d="M13 690h112l150 -564l174 561h76l165 -555l147 558h87l-188 -693h-108l-156 498l-159 -498h-108z" />
    <glyph glyph-name="X" unicode="X" horiz-adv-x="595" 
d="M17 690h131l159 -258l165 258h91l-212 -321l234 -369h-132l-172 288l-179 -288h-92l222 349z" />
    <glyph glyph-name="Y" unicode="Y" horiz-adv-x="551" 
d="M333 285v-285h-103v288l-233 402h127l176 -310l174 310h86z" />
    <glyph glyph-name="Z" unicode="Z" horiz-adv-x="553" 
d="M40 72l339 541h-323v75h449v-69l-341 -541h349v-75h-473v69z" />
    <glyph glyph-name="bracketleft" unicode="[" horiz-adv-x="323" 
d="M293 -135v-52h-203v924h203v-52h-106v-820h106z" />
    <glyph glyph-name="backslash" unicode="\" horiz-adv-x="443" 
d="M110 710l318 -798h-95l-318 798h95z" />
    <glyph glyph-name="bracketright" unicode="]" horiz-adv-x="323" 
d="M233 737v-924h-203v52h106v820h-106v52h203z" />
    <glyph glyph-name="asciicircum" unicode="^" horiz-adv-x="562" 
d="M249 683h53l170 -276l-46 -27l-151 230l-151 -230l-45 27z" />
    <glyph glyph-name="underscore" unicode="_" horiz-adv-x="531" 
d="M0 -173h530v-77h-530v77z" />
    <glyph glyph-name="grave" unicode="`" 
d="M149 710l61 56l136 -182l-40 -33z" />
    <glyph glyph-name="a" unicode="a" horiz-adv-x="480" 
d="M38 115q0 57 40 100.5t135 43.5q24 0 51.5 -5.5t45.5 -13.5v66q0 57 -26 85t-76 28q-49 0 -76.5 -28.5t-32.5 -66.5h-38q0 33 9.5 63.5t30 53t53.5 36t79 13.5q86 0 127.5 -45t41.5 -121v-190q0 -61 12.5 -79.5t29.5 -18.5q4 0 9 1.5t9 4.5l9 -17q-7 -13 -25 -23t-41 -10
q-40 0 -64.5 17.5t-29.5 66.5q-19 -36 -54 -61t-90 -25q-63 0 -96 36t-33 89zM134 123q0 -34 18.5 -52t52.5 -18q28 0 48 13t32.5 33.5t18.5 46t6 51.5v5q-13 4 -33 7.5t-40 3.5q-53 0 -78 -24.5t-25 -65.5z" />
    <glyph glyph-name="b" unicode="b" horiz-adv-x="550" 
d="M73 705l97 5v-339q17 52 54 85.5t97 33.5q35 0 69 -14.5t60.5 -44.5t43 -77t16.5 -111q0 -116 -53.5 -184.5t-135.5 -68.5q-56 0 -97.5 34.5t-59.5 106.5l-9 -131h-82v705zM411 233q0 95 -37.5 137.5t-84.5 42.5q-53 0 -86 -45t-33 -138q0 -80 37 -125.5t83 -45.5
q55 0 88 48t33 126z" />
    <glyph glyph-name="c" unicode="c" horiz-adv-x="469" 
d="M40 228q0 55 14.5 103t42 83.5t66.5 55.5t88 20q43 0 72.5 -11t48.5 -28t28.5 -39.5t12.5 -44.5q1 -12 1 -23.5t-1 -21.5h-44q-2 16 -7.5 32.5t-17.5 30t-31 22.5t-48 9q-62 0 -94 -53t-32 -130q0 -87 40 -132t94 -45t84 29.5t37 80.5h35q0 -76 -44 -126t-131 -50
q-40 0 -78.5 12.5t-68.5 40.5t-48.5 73.5t-18.5 111.5z" />
    <glyph glyph-name="d" unicode="d" horiz-adv-x="550" 
d="M40 238q0 116 53.5 184t135.5 68q51 0 91 -32t60 -92v339l97 5v-710h-77l-10 137q-13 -71 -51.5 -109t-109.5 -38q-35 0 -69 14.5t-60.5 44.5t-43 77t-16.5 112zM380 243q0 80 -37 125t-83 45q-55 0 -88 -47.5t-33 -125.5q0 -95 37.5 -138t84.5 -43q53 0 86 45.5
t33 138.5z" />
    <glyph glyph-name="e" unicode="e" horiz-adv-x="480" 
d="M40 225q0 55 14.5 103.5t42 84.5t67 56.5t88.5 20.5q48 0 81 -14t53 -37t29 -52t9 -58q0 -18 -2.5 -44t-3.5 -36h-280v-16q0 -82 35.5 -128.5t104.5 -46.5q60 0 91 30t36 78h35q0 -81 -48.5 -128.5t-135.5 -47.5q-100 0 -158 59.5t-58 175.5zM258 414q-46 0 -76 -30.5
t-40 -83.5h202q1 2 1.5 9.5t0.5 17.5q0 31 -17 59t-71 28z" />
    <glyph glyph-name="f" unicode="f" horiz-adv-x="305" 
d="M92 0v422v3v3h-77v37l75 10v0q-2 28 -5 48t-3 49q0 57 37 97.5t105 40.5q49 0 76 -21t34 -52q2 -10 2.5 -21.5t-0.5 -24.5h-30q-2 23 -18 38t-49 15q-38 0 -56.5 -22.5t-18.5 -53.5q1 -25 6.5 -44.5t10.5 -48.5h126v-47h-120q1 -12 1.5 -26.5t0.5 -30.5v-371h-97z" />
    <glyph glyph-name="g" unicode="g" horiz-adv-x="503" 
d="M51 321q0 74 51 121.5t140 47.5q46 0 87 -18.5t66 -52.5q4 44 21.5 57.5t34.5 13.5q30 0 41.5 -15t12.5 -33q1 -8 -0.5 -16t-3.5 -14h-17q0 12 -5 21.5t-20 9.5t-24.5 -14.5t-9.5 -49.5v-60v0q-2 -75 -50 -122t-133 -47q-19 0 -38 2.5t-36 7.5q-13 -6 -29 -19t-16 -35
q0 -26 26 -37.5t89 -11.5h48q93 0 142 -33.5t49 -104.5q0 -77 -61 -123t-180 -46q-105 0 -155 38t-50 101q0 16 4.5 28t8.5 21h36q-1 -6 -2.5 -14.5t-1.5 -16.5q0 -49 40 -71t117 -22q81 0 116.5 22t35.5 62q0 31 -27.5 47.5t-85.5 16.5h-60q-79 0 -117.5 25t-38.5 84
q0 39 27 64t52 38q-38 20 -61 57t-23 91zM337 317q0 47 -28 76.5t-69 29.5q-46 0 -73 -32t-27 -77q0 -55 29 -82t70 -27q43 0 70.5 30t27.5 82z" />
    <glyph glyph-name="h" unicode="h" horiz-adv-x="540" 
d="M475 0h-97v255q0 80 -20.5 117t-74.5 37q-57 0 -84.5 -56t-28.5 -155v-198h-97v705l97 5v-376q12 63 47 109.5t108 46.5q87 0 118.5 -52t31.5 -138v-300z" />
    <glyph glyph-name="i" unicode="i" horiz-adv-x="252" 
d="M76 475l97 5v-480h-97v475zM74 612v98h107v-98h-107z" />
    <glyph glyph-name="j" unicode="j" horiz-adv-x="268" 
d="M-27 -133h30q3 -23 13 -36.5t33 -13.5t34.5 24t11.5 74v560l97 5v-528q0 -101 -28 -151.5t-94 -50.5q-31 0 -50 10.5t-29.5 27t-14 37.5t-3.5 42zM95 612v98h107v-98h-107z" />
    <glyph glyph-name="k" unicode="k" horiz-adv-x="497" 
d="M73 705l97 5v-424l194 189h95l-167 -160l192 -315h-113l-146 250l-55 -52v-198h-97v705z" />
    <glyph glyph-name="l" unicode="l" horiz-adv-x="247" 
d="M75 705l97 5v-710h-97v705z" />
    <glyph glyph-name="m" unicode="m" horiz-adv-x="824" 
d="M463 0h-97v255q0 80 -18.5 117t-71.5 37q-57 0 -83 -56.5t-26 -154.5v-198h-97v475l84 5l10 -144v-4q10 64 44 111t109 47q81 0 111.5 -44.5t33.5 -119.5q6 33 17.5 63t30 52.5t45 35.5t62.5 13q87 0 114.5 -52t27.5 -138v-300h-97v255q0 80 -18.5 117t-71.5 37
q-29 0 -50 -16t-34 -45t-19 -68.5t-6 -86.5v-193z" />
    <glyph glyph-name="n" unicode="n" horiz-adv-x="537" 
d="M472 0h-97v255q0 80 -20.5 117t-73.5 37q-57 0 -85.5 -56t-28.5 -155v-198h-97v475l84 5l10 -144v-5q10 66 45.5 112.5t112.5 46.5q87 0 118.5 -52t31.5 -138v-300z" />
    <glyph glyph-name="o" unicode="o" horiz-adv-x="516" 
d="M40 239q0 116 61.5 183.5t157.5 67.5q46 0 85.5 -16.5t68.5 -48t46 -79t17 -109.5q0 -116 -58 -181.5t-159 -65.5q-47 0 -87.5 16t-69.5 47t-45.5 78t-16.5 108zM379 241q0 78 -31.5 125.5t-89.5 47.5q-55 0 -88 -46t-33 -127q0 -90 33 -136t89 -46q53 0 86.5 45
t33.5 137z" />
    <glyph glyph-name="p" unicode="p" horiz-adv-x="547" 
d="M70 475l82 5l9 -131q14 63 52 102t105 39q35 0 69 -14.5t60.5 -44.5t43 -77t16.5 -111q0 -116 -53.5 -184.5t-135.5 -68.5q-52 0 -92 30t-59 93v-353h-97v715zM408 231q0 96 -37.5 139.5t-83.5 43.5q-54 0 -87 -46t-33 -139q0 -81 37 -125.5t83 -44.5q56 0 88.5 47
t32.5 125z" />
    <glyph glyph-name="q" unicode="q" horiz-adv-x="548" 
d="M40 238q0 116 53.5 184t135.5 68q54 0 95.5 -34t60.5 -100l1 6l10 113l82 5v-720h-98v340q-18 -52 -54.5 -81t-96.5 -29q-35 0 -69 14.5t-60.5 44.5t-43 77t-16.5 112zM380 243q0 80 -37 125t-83 45q-55 0 -88 -47t-33 -125q0 -96 37.5 -139t84.5 -43q53 0 86 45.5
t33 138.5z" />
    <glyph glyph-name="r" unicode="r" horiz-adv-x="409" 
d="M70 475l82 5l8 -145q5 31 14.5 59t25 49.5t38.5 34t54 12.5q29 0 48.5 -12.5t31 -31t16.5 -40t5 -39.5q0 -16 -2 -27t-5 -21h-41q0 11 -1 23t-5 22q-6 19 -20.5 31.5t-41.5 12.5q-63 0 -86.5 -62.5t-23.5 -168.5v-177h-97v475z" />
    <glyph glyph-name="s" unicode="s" horiz-adv-x="441" 
d="M38 154h42q9 -52 40.5 -81t85.5 -29q40 0 70 15.5t30 55.5q0 34 -22.5 52t-79.5 32q-72 19 -111 51.5t-39 95.5q0 66 48.5 105t126.5 39q75 0 119 -38t37 -104h-44q-2 33 -27.5 58.5t-74.5 25.5q-40 0 -65.5 -16t-25.5 -53q0 -35 27 -50t88 -31q76 -20 108 -56t32 -90
q0 -67 -50.5 -106.5t-131.5 -39.5q-92 0 -137.5 43.5t-45.5 120.5z" />
    <glyph glyph-name="t" unicode="t" horiz-adv-x="346" 
d="M82 145v283h-77v37l77 10v113l97 7v-120h129v-47h-129v-297q0 -33 12 -54t47 -21q29 0 42.5 13t13.5 35h25q0 -54 -25.5 -84t-84.5 -30q-66 0 -96.5 37t-30.5 118z" />
    <glyph glyph-name="u" unicode="u" horiz-adv-x="537" 
d="M373 130l-1 11q-12 -62 -47.5 -106.5t-109.5 -44.5q-87 0 -118.5 52t-31.5 138v295l97 5v-255q0 -80 20.5 -116.5t74.5 -36.5q57 0 85 56t28 155v192l97 5v-480h-89z" />
    <glyph glyph-name="v" unicode="v" horiz-adv-x="453" 
d="M8 475h107l122 -364l124 364h85l-170 -475h-98z" />
    <glyph glyph-name="w" unicode="w" horiz-adv-x="705" 
d="M10 475h104l106 -353l111 324h67l113 -324l105 353h79l-144 -475h-89l-113 313l-113 -313h-80z" />
    <glyph glyph-name="x" unicode="x" horiz-adv-x="458" 
d="M329 0l-118 195l-117 -195h-81l156 245l-143 230h110l107 -174l106 174h80l-145 -224l161 -251h-116z" />
    <glyph glyph-name="y" unicode="y" horiz-adv-x="464" 
d="M17 -139h25q0 -18 12 -31.5t40 -13.5t44.5 21t32.5 67l32 85l-195 486h104l141 -348l117 348h86l-230 -615q-24 -62 -55.5 -86t-63.5 -24q-36 0 -54.5 13t-26.5 31t-8.5 37t-0.5 30z" />
    <glyph glyph-name="z" unicode="z" horiz-adv-x="429" 
d="M35 53l250 352h-234v70h340v-65l-240 -340h243v-70h-359v53z" />
    <glyph glyph-name="braceleft" unicode="{" horiz-adv-x="361" 
d="M238 151q0 -40 -1.5 -71t-3.5 -57.5t-3.5 -53.5t-1.5 -60q0 -43 18 -57.5t49 -14.5h21v-49h-51q-54 0 -95.5 26t-41.5 90q0 53 5 111.5t5 135.5q0 27 -10 44.5t-21.5 27.5t-21.5 14l-10 4v42l10 4t21.5 14t21.5 27.5t10 44.5q0 78 -5 136t-5 111q0 64 41.5 90t95.5 26h51
v-49h-21q-31 0 -49 -14.5t-18 -57.5q0 -33 1.5 -60t3.5 -53.5t3.5 -57.5t1.5 -71q0 -26 -9 -45.5t-21.5 -32.5t-27 -21t-26.5 -12q12 -4 26.5 -12t27 -21t21.5 -32.5t9 -45.5z" />
    <glyph glyph-name="bar" unicode="|" horiz-adv-x="264" 
d="M174 -153h-84v893h84v-893z" />
    <glyph glyph-name="braceright" unicode="}" horiz-adv-x="361" 
d="M123 373q0 40 1.5 71t3.5 57.5t3.5 53.5t1.5 60q0 43 -18 57.5t-49 14.5h-21v49h51q54 0 95.5 -26t41.5 -90q0 -53 -5 -111.5t-5 -135.5q0 -27 10 -44.5t21.5 -27.5t21.5 -14l10 -4v-42l-10 -4t-21.5 -14t-21.5 -27.5t-10 -44.5q0 -78 5 -136t5 -111q0 -64 -41.5 -90
t-95.5 -26h-51v49h21q31 0 49 14.5t18 57.5q0 33 -1.5 60t-3.5 53.5t-3.5 57.5t-1.5 71q0 26 9 45.5t21.5 32.5t27 21t26.5 12q-12 4 -26.5 12t-27 21t-21.5 32.5t-9 45.5z" />
    <glyph glyph-name="asciitilde" unicode="~" horiz-adv-x="585" 
d="M197 384q33 0 56.5 -11t45.5 -25q21 -13 42.5 -24t48.5 -11q38 0 52 20t16 51h49q-2 -62 -27.5 -104.5t-89.5 -42.5q-33 0 -58 11t-47 25q-20 13 -40.5 24t-47.5 11q-38 0 -53 -22.5t-16 -47.5h-50q2 60 28.5 103t90.5 43z" />
    <glyph glyph-name="exclamdown" unicode="&#xa1;" horiz-adv-x="294" 
d="M204 431q0 -23 -15.5 -37.5t-43.5 -14.5q-25 0 -40 14.5t-15 37.5q0 25 15 39.5t40 14.5q28 0 43.5 -14.5t15.5 -39.5zM106 283h82l15 -498h-112z" />
    <glyph glyph-name="cent" unicode="&#xa2;" horiz-adv-x="570" 
d="M327 0h-62v99q-35 4 -68.5 19.5t-59.5 43.5t-41.5 70.5t-15.5 101.5q0 51 12.5 96.5t36.5 80t58.5 56.5t77.5 28v95h62v-95q73 -8 105.5 -47t36.5 -81q1 -10 0.5 -19.5t-1.5 -18.5h-45q-2 31 -25.5 62t-87.5 31q-32 0 -56.5 -14t-41 -38.5t-25 -58t-8.5 -71.5
q0 -87 40.5 -130t103.5 -43q49 0 85 27.5t40 78.5h36q0 -70 -41.5 -118t-115.5 -56v-99z" />
    <glyph glyph-name="sterling" unicode="&#xa3;" horiz-adv-x="585" 
d="M423 369v-59h-174q6 -20 10 -41t4 -43q0 -28 -9 -52t-22.5 -43t-30.5 -34.5t-32 -27.5q24 14 55.5 26t66.5 12q29 0 49 -6t36 -12.5t32 -12.5t38 -6q26 0 45 11.5t34 33.5l23 -20q-15 -42 -47 -72t-83 -30q-31 0 -52 6t-40 13t-41 13t-56 6q-39 0 -83 -13t-67 -24l-22 53
l17 11.5t38 33t38 52.5t17 71q0 26 -4.5 49t-10.5 46h-95v59h80q-6 25 -10 53.5t-4 63.5q0 38 13.5 73.5t39.5 62t65 42.5t90 16q82 0 134.5 -42.5t59.5 -129.5h-55q-13 38 -42.5 64t-83.5 26q-57 0 -91.5 -33.5t-35.5 -93.5q0 -29 4.5 -54t10.5 -48h191z" />
    <glyph glyph-name="currency" unicode="&#xa4;" horiz-adv-x="575" 
d="M72 131l62 63q-14 22 -22 47.5t-8 53.5q0 30 8.5 57.5t24.5 49.5l-65 66l45 45l65 -67q22 15 48.5 23t55.5 8q31 0 57.5 -8.5t48.5 -23.5l66 68l46 -45l-67 -68q16 -22 24 -49t8 -56q0 -28 -7.5 -53t-20.5 -46l63 -65l-46 -45l-61 63q-22 -17 -50.5 -26.5t-60.5 -9.5
q-31 0 -59 9.5t-50 25.5l-60 -62zM287 187q47 0 76 32t29 76t-29 75.5t-76 31.5t-76 -31.5t-29 -75.5t29 -76t76 -32z" />
    <glyph glyph-name="yen" unicode="&#xa5;" horiz-adv-x="585" 
d="M508 234v-57h-162v-177h-96v177h-164v57h164v49l-23 38h-141v57h106l-177 292h122l178 -301l176 301h80l-172 -292h109v-57h-142l-20 -34v-53h162z" />
    <glyph glyph-name="brokenbar" unicode="&#xa6;" horiz-adv-x="264" 
d="M174 417h-84v323h84v-323zM174 -153h-84v323h84v-323z" />
    <glyph glyph-name="section" unicode="&#xa7;" horiz-adv-x="530" 
d="M123 8q6 -40 34.5 -71t87.5 -31q53 0 83 21.5t30 62.5q0 45 -40.5 66t-100.5 44q-69 26 -110 62.5t-41 104.5q0 50 26.5 84.5t58.5 54.5q-36 22 -58 52t-22 75q0 75 52 116.5t140 41.5q84 0 132 -44.5t48 -110.5h-42q-5 40 -35 67.5t-84 27.5q-48 0 -76 -20t-28 -64
q0 -42 35 -61.5t92 -41.5q69 -26 114.5 -62.5t45.5 -107.5q0 -47 -25 -83.5t-58 -56.5q36 -22 59 -52.5t23 -76.5q0 -79 -56 -118.5t-144 -39.5q-84 0 -133.5 45.5t-49.5 115.5h42zM283 179q13 -4 25 -9.5t24 -10.5q22 15 32.5 36.5t10.5 49.5q0 48 -33.5 71.5t-93.5 45.5
q-12 4 -24 9t-23 10q-19 -14 -32 -36t-13 -50q0 -47 33 -70.5t94 -45.5z" />
    <glyph glyph-name="dieresis" unicode="&#xa8;" 
d="M118 616v94h93v-94h-93zM292 616v94h93v-94h-93z" />
    <glyph glyph-name="copyright" unicode="&#xa9;" horiz-adv-x="773" 
d="M386 -12q-75 0 -137.5 25.5t-107 72t-69 112t-24.5 144.5q0 80 26 145.5t71 111.5t107 71t134 25t134.5 -25t107.5 -71t71 -111.5t26 -145.5q0 -79 -26 -144.5t-71 -112t-107.5 -72t-134.5 -25.5zM385 53q60 0 110 21.5t85 59.5t55 91.5t20 116.5t-20 116t-55 91
t-85 59.5t-110 21.5t-109.5 -21t-84.5 -59t-54 -91.5t-19 -116.5q0 -62 18.5 -115.5t52.5 -91.5t84 -60t112 -22zM490 396q-1 26 -20 47.5t-60 21.5q-43 0 -67 -33.5t-24 -93.5q0 -64 29 -95t70 -31q42 0 65 21.5t27 59.5h29q0 -57 -35.5 -97.5t-106.5 -40.5
q-32 0 -63.5 8.5t-56.5 29t-40.5 55t-15.5 86.5q0 93 48 145t126 52q36 0 61.5 -10.5t41.5 -26.5t23.5 -36t7.5 -39q0 -4 -0.5 -10.5t-1.5 -12.5h-37z" />
    <glyph glyph-name="ordfeminine" unicode="&#xaa;" horiz-adv-x="328" 
d="M266 402q-25 0 -43.5 14t-19.5 42q-10 -22 -30.5 -40t-58.5 -18q-43 0 -64.5 21.5t-21.5 52.5q0 34 25.5 61.5t90.5 27.5q18 0 31.5 -2.5t23.5 -6.5v31q0 28 -12.5 46.5t-48.5 18.5q-34 0 -47.5 -16.5t-16.5 -38.5h-30q0 37 22 70t91 33q62 0 86.5 -28.5t24.5 -73.5v-103
q0 -28 1.5 -40.5t11.5 -18.5q7 -4 13.5 -2t10.5 6l6 -12q-6 -10 -17.5 -17t-27.5 -7zM138 442q18 0 29.5 8.5t18.5 20.5t10 26t3 25v5l-16 4t-23 3q-33 0 -48.5 -14.5t-15.5 -38.5q0 -20 10.5 -29.5t31.5 -9.5z" />
    <glyph glyph-name="guillemotleft" unicode="&#xab;" horiz-adv-x="487" 
d="M243 424l-116 -175l116 -175h-87l-111 167v16l111 167h87zM442 424l-116 -175l116 -175h-87l-111 167v16l111 167h87z" />
    <glyph glyph-name="logicalnot" unicode="&#xac;" horiz-adv-x="585" 
d="M500 176h-79v188h-346v79h425v-267z" />
    <glyph glyph-name="registered" unicode="&#xae;" horiz-adv-x="571" 
d="M286 213q-56 0 -102.5 19.5t-79.5 52.5t-51.5 79t-18.5 98t18 97.5t51 79t80 52.5t103 19t102.5 -19t79.5 -52.5t51 -79t18 -97.5t-18 -98t-51 -79t-79.5 -52.5t-102.5 -19.5zM285 264q48 0 84.5 15.5t61 42.5t36.5 63t12 76t-13 76t-38 63t-61 42.5t-82 15.5
q-48 0 -84.5 -15.5t-60.5 -42.5t-36.5 -63t-12.5 -76t12.5 -76t36.5 -63t60.5 -42.5t84.5 -15.5zM374 330q-28 0 -39.5 15t-11.5 52q0 25 -11.5 35.5t-34.5 10.5h-29v-110h-58v262h102q47 0 73.5 -16.5t26.5 -52.5q0 -29 -16.5 -44t-43.5 -21q25 -3 37.5 -15.5t12.5 -40.5
q0 -25 1.5 -37t11.5 -12q4 0 6.5 1.5t3.5 2.5l6 -11q-6 -9 -16 -14t-21 -5zM280 557h-32v-80h33q25 0 40 8.5t15 30.5t-15 31.5t-41 9.5z" />
    <glyph glyph-name="macron" unicode="&#xaf;" 
d="M112 710h276v-62h-276v62z" />
    <glyph glyph-name="degree" unicode="&#xb0;" horiz-adv-x="391" 
d="M196 392q-72 0 -114 42t-42 107t42 107t114 42t113.5 -42t41.5 -107t-41.5 -107t-113.5 -42zM196 448q36 0 61.5 25t25.5 68t-25.5 68.5t-61.5 25.5t-61.5 -25.5t-25.5 -68.5t25.5 -68t61.5 -25z" />
    <glyph glyph-name="plusminus" unicode="&#xb1;" horiz-adv-x="585" 
d="M332 104h-79v183h-173v74h173v173h79v-173h173v-74h-173v-183zM506 67v-74h-425v74h425z" />
    <glyph glyph-name="twosuperior" unicode="&#xb2;" horiz-adv-x="357" 
d="M328 407h-287v33q40 34 75.5 64.5t62 58.5t42 56.5t15.5 58.5q0 32 -17 53t-53 21q-47 0 -66.5 -33t-9.5 -77h-43q-10 28 -7 59t19.5 56t47 41t74.5 16q67 0 102.5 -35.5t35.5 -92.5q0 -34 -14 -63t-37.5 -55t-54.5 -51.5t-66 -51.5h181v-58z" />
    <glyph glyph-name="threesuperior" unicode="&#xb3;" horiz-adv-x="353" 
d="M320 518q0 -55 -40.5 -87.5t-106.5 -32.5t-108 31.5t-37 103.5h41q1 -34 23.5 -53.5t62.5 -19.5q37 0 60 17.5t23 51.5t-26.5 47t-66.5 13h-38v46h35q35 0 60.5 12t25.5 46q0 29 -19 45t-53 16q-40 0 -59.5 -19.5t-19.5 -50.5h-38q-5 64 35.5 97t100.5 33q57 0 95 -27.5
t38 -79.5q0 -41 -25 -63t-59 -31q40 -7 68 -29t28 -66z" />
    <glyph glyph-name="acute" unicode="&#xb4;" 
d="M151 584l136 182l61 -56l-157 -159z" />
    <glyph glyph-name="mu" unicode="&#xb5;" horiz-adv-x="580" 
d="M167 -250h-97v725l97 5v-255q0 -80 22 -116.5t76 -36.5q57 0 83.5 56t26.5 155v192l97 5v-352q0 -32 7 -52t33 -20q16 0 23.5 11t7.5 26h25q0 -43 -19.5 -73t-70.5 -30t-74.5 35t-23.5 93v4q-12 -56 -39.5 -94t-77.5 -38q-34 0 -58 14.5t-38 40.5v-295z" />
    <glyph glyph-name="paragraph" unicode="&#xb6;" horiz-adv-x="592" 
d="M304 -113h-49v425q-91 0 -147.5 49.5t-56.5 139.5q0 46 16.5 81t44 59t65 36.5t78.5 12.5h307v-73h-60v-730h-103v730h-95v-730z" />
    <glyph glyph-name="periodcentered" unicode="&#xb7;" horiz-adv-x="234" 
d="M60 349q0 22 15.5 39t42.5 17q25 0 40.5 -17t15.5 -39q0 -25 -15 -41.5t-40 -16.5q-28 0 -43.5 16.5t-15.5 41.5z" />
    <glyph glyph-name="cedilla" unicode="&#xb8;" 
d="M185 -115h24q-1 -22 7.5 -32.5t28.5 -10.5q15 0 24.5 10t9.5 29q0 27 -16 36t-42 4l-19 10l20 73l31 -4l-7 -46q41 6 68.5 -12t27.5 -61q0 -40 -23.5 -60t-59.5 -20q-45 0 -61.5 25t-12.5 59z" />
    <glyph glyph-name="onesuperior" unicode="&#xb9;" horiz-adv-x="261" 
d="M163 812h45v-407h-78v327l-94 -44l-14 35z" />
    <glyph glyph-name="ordmasculine" unicode="&#xba;" horiz-adv-x="331" 
d="M166 400q-27 0 -53 8.5t-45.5 26t-32 45.5t-12.5 67q0 70 40.5 110.5t103.5 40.5q26 0 51.5 -9t45.5 -27t32.5 -46.5t12.5 -67.5q0 -71 -39 -109.5t-104 -38.5zM166 451q30 0 51 23t21 76q0 44 -20.5 68t-51.5 24t-51.5 -23.5t-20.5 -69.5q0 -51 21.5 -74.5t50.5 -23.5z
" />
    <glyph glyph-name="guillemotright" unicode="&#xbb;" horiz-adv-x="487" 
d="M442 241l-111 -167h-87l116 175l-116 175h87l111 -167v-16zM243 241l-111 -167h-87l116 175l-116 175h87l111 -167v-16z" />
    <glyph glyph-name="onequarter" unicode="&#xbc;" horiz-adv-x="689" 
d="M22 600l109 71h40v-312h-72v239l-65 -29zM474 670h77l-340 -670h-78zM554 0v79h-134v46l140 186h64v-183h51v-49h-51v-79h-70zM467 128h87v116z" />
    <glyph glyph-name="onehalf" unicode="&#xbd;" horiz-adv-x="716" 
d="M22 600l109 71h40v-312h-72v239l-65 -29zM474 670h77l-340 -670h-78zM472 178q-7 22 -5 45.5t14.5 43.5t36 33t57.5 13q51 0 78 -27t27 -70q0 -51 -35.5 -87t-86.5 -76h129v-53h-219v32q55 47 96.5 88t41.5 85q0 22 -12 36t-34 14q-31 0 -43.5 -22.5t-4.5 -54.5h-40z" />
    <glyph glyph-name="threequarters" unicode="&#xbe;" horiz-adv-x="723" 
d="M37 572q-5 52 27.5 77t76.5 25q43 0 72 -22t29 -62q0 -31 -17 -47t-41 -23q28 -7 47.5 -23.5t19.5 -49.5q0 -42 -30.5 -67.5t-82.5 -25.5q-51 0 -82.5 26t-26.5 81h36q-1 -23 13.5 -37t42.5 -14q25 0 39.5 13t14.5 36q0 21 -15.5 31.5t-44.5 10.5h-25v34h23q26 0 41 10
t15 32q0 19 -12.5 30.5t-34.5 11.5q-25 0 -38.5 -12.5t-12.5 -34.5h-34zM508 670h77l-340 -670h-78zM589 0v79h-135v46l140 186h64v-183h51v-49h-51v-79h-69zM501 128h88v117z" />
    <glyph glyph-name="questiondown" unicode="&#xbf;" horiz-adv-x="491" 
d="M350 431q0 -23 -15.5 -37.5t-43.5 -14.5q-25 0 -40 14.5t-15 37.5q0 25 15 39.5t40 14.5q28 0 43.5 -14.5t15.5 -39.5zM263 186l6 97h55l6 -133q-34 0 -67.5 -7t-59.5 -24.5t-42 -47t-16 -75.5q0 -59 32.5 -96t97.5 -37q54 0 86.5 31t36.5 81h47q2 -52 -12.5 -90
t-40.5 -61.5t-62.5 -35t-77.5 -11.5q-91 0 -149 51.5t-58 147.5q0 63 22 103t55 63t71 32.5t70 11.5z" />
    <glyph glyph-name="Agrave" unicode="&#xc0;" horiz-adv-x="620" 
d="M100 0h-85l246 691h107l232 -691h-121l-58 185h-257zM189 260h209l-100 317zM190 808l54 67l165 -118l-26 -27z" />
    <glyph glyph-name="Aacute" unicode="&#xc1;" horiz-adv-x="620" 
d="M100 0h-85l246 691h107l232 -691h-121l-58 185h-257zM189 260h209l-100 317zM224 757l165 118l54 -67l-193 -78z" />
    <glyph glyph-name="Acircumflex" unicode="&#xc2;" horiz-adv-x="620" 
d="M100 0h-85l246 691h107l232 -691h-121l-58 185h-257zM189 260h209l-100 317zM149 763l139 110h46l140 -110l-24 -34l-139 72l-139 -72z" />
    <glyph glyph-name="Atilde" unicode="&#xc3;" horiz-adv-x="620" 
d="M100 0h-85l246 691h107l232 -691h-121l-58 185h-257zM189 260h209l-100 317zM382 804q29 0 36.5 21.5t1.5 46.5h26q19 -55 0 -94t-73 -39q-28 0 -45 10.5t-30.5 23t-27.5 23t-36 10.5q-28 0 -36 -20.5t-2 -46.5h-26q-19 57 0.5 94.5t73.5 37.5q29 0 47 -10.5t31.5 -23
t26.5 -23t33 -10.5z" />
    <glyph glyph-name="Adieresis" unicode="&#xc4;" horiz-adv-x="620" 
d="M100 0h-85l246 691h107l232 -691h-121l-58 185h-257zM189 260h209l-100 317zM184 750v94h93v-94h-93zM358 750v94h93v-94h-93z" />
    <glyph glyph-name="Aring" unicode="&#xc5;" horiz-adv-x="620" 
d="M100 0h-85l246 691h107l232 -691h-121l-58 185h-257zM189 260h209l-100 317zM206 815q0 43 29.5 72t75.5 29q48 0 77 -29t29 -72q0 -42 -29 -71t-77 -29q-46 0 -75.5 29t-29.5 71zM363 808q0 22 -14.5 37.5t-36.5 15.5q-23 0 -37.5 -15.5t-14.5 -37.5t14.5 -37t37.5 -15
q22 0 36.5 15t14.5 37z" />
    <glyph glyph-name="AE" unicode="&#xc6;" horiz-adv-x="835" 
d="M737 303h-220v-225h278v-75h-380v232h-187l-138 -235h-90l413 688h374v-75h-270v-235h220v-75zM272 310h143v242z" />
    <glyph glyph-name="Ccedilla" unicode="&#xc7;" horiz-adv-x="614" 
d="M40 339q0 86 24 153.5t65.5 113t97.5 69t119 23.5q65 0 108.5 -21t69 -50t35.5 -61.5t8 -54.5h-53q-2 9 -11 25.5t-27 32.5t-46.5 28t-69.5 12q-45 0 -83.5 -17.5t-66.5 -51.5t-44 -85t-16 -116q0 -68 16 -118.5t43.5 -82.5t65 -48t80.5 -16q45 0 77.5 13t53.5 31.5
t31.5 38.5t12.5 33h49q0 -25 -11.5 -59.5t-39 -65.5t-74 -53t-115.5 -22q-63 0 -118 21t-95 64t-63 109t-23 155zM275 -115h24q-1 -22 7.5 -32.5t28.5 -10.5q15 0 24.5 10t9.5 29q0 27 -16 36t-42 4l-19 10l20 73l31 -4l-7 -46q41 6 68.5 -12t27.5 -61q0 -40 -23.5 -60
t-59.5 -20q-45 0 -61.5 25t-12.5 59z" />
    <glyph glyph-name="Egrave" unicode="&#xc8;" horiz-adv-x="530" 
d="M433 325h-250v-247h307v-75h-410v685h403v-75h-300v-213h250v-75zM161 808l54 67l165 -118l-26 -27z" />
    <glyph glyph-name="Eacute" unicode="&#xc9;" horiz-adv-x="530" 
d="M433 325h-250v-247h307v-75h-410v685h403v-75h-300v-213h250v-75zM188 757l165 118l54 -67l-193 -78z" />
    <glyph glyph-name="Ecircumflex" unicode="&#xca;" horiz-adv-x="530" 
d="M433 325h-250v-247h307v-75h-410v685h403v-75h-300v-213h250v-75zM125 763l139 110h46l140 -110l-24 -34l-139 72l-139 -72z" />
    <glyph glyph-name="Edieresis" unicode="&#xcb;" horiz-adv-x="530" 
d="M433 325h-250v-247h307v-75h-410v685h403v-75h-300v-213h250v-75zM154 750v94h93v-94h-93zM328 750v94h93v-94h-93z" />
    <glyph glyph-name="Igrave" unicode="&#xcc;" horiz-adv-x="273" 
d="M85 690h103v-690h-103v690zM3 808l54 67l165 -118l-26 -27z" />
    <glyph glyph-name="Iacute" unicode="&#xcd;" horiz-adv-x="273" 
d="M85 690h103v-690h-103v690zM51 757l165 118l54 -67l-193 -78z" />
    <glyph glyph-name="Icircumflex" unicode="&#xce;" horiz-adv-x="273" 
d="M137 806l-108 -76l-25 29l110 114h45l110 -114l-25 -29zM85 690h103v-690h-103v690z" />
    <glyph glyph-name="Idieresis" unicode="&#xcf;" horiz-adv-x="273" 
d="M85 690h103v-690h-103v690zM3 750v94h93v-94h-93zM177 750v94h93v-94h-93z" />
    <glyph glyph-name="Eth" unicode="&#xd0;" horiz-adv-x="664" 
d="M10 383h70v307h189q91 0 158 -26t110.5 -71.5t65 -108.5t21.5 -135q0 -100 -30 -167.5t-79.5 -107.5t-113.5 -57t-132 -17h-189v333h-70v50zM344 333h-161v-258h87q113 0 179 70t66 204q0 58 -14.5 107t-44.5 84.5t-76.5 55t-109.5 19.5h-87v-232h161v-50z" />
    <glyph glyph-name="Ntilde" unicode="&#xd1;" horiz-adv-x="676" 
d="M596 690v-695h-83l-352 531v-526h-81v690h101l333 -507v507h82zM435 804q29 0 36.5 21.5t1.5 46.5h26q19 -55 0 -94t-73 -39q-28 0 -45 10.5t-30.5 23t-27.5 23t-36 10.5q-28 0 -36 -20.5t-2 -46.5h-26q-19 57 0.5 94.5t73.5 37.5q29 0 47 -10.5t31.5 -23t26.5 -23
t33 -10.5z" />
    <glyph glyph-name="Ograve" unicode="&#xd2;" horiz-adv-x="700" 
d="M40 344q0 82 23 148t64 111.5t98.5 70t126.5 24.5q59 0 115 -20.5t98.5 -62.5t68.5 -107.5t26 -154.5q0 -84 -21.5 -151.5t-61 -114t-97 -72t-128.5 -25.5q-63 0 -120 21.5t-99.5 65t-67.5 110.5t-25 157zM568 349q0 65 -17.5 113.5t-46 80.5t-65.5 48t-76 16
q-93 0 -153 -70t-60 -193q0 -70 18 -121t48 -84t68.5 -48.5t78.5 -15.5q43 0 80.5 17.5t65 52t43.5 86t16 118.5zM233 808l54 67l165 -118l-26 -27z" />
    <glyph glyph-name="Oacute" unicode="&#xd3;" horiz-adv-x="700" 
d="M40 344q0 82 23 148t64 111.5t98.5 70t126.5 24.5q59 0 115 -20.5t98.5 -62.5t68.5 -107.5t26 -154.5q0 -84 -21.5 -151.5t-61 -114t-97 -72t-128.5 -25.5q-63 0 -120 21.5t-99.5 65t-67.5 110.5t-25 157zM568 349q0 65 -17.5 113.5t-46 80.5t-65.5 48t-76 16
q-93 0 -153 -70t-60 -193q0 -70 18 -121t48 -84t68.5 -48.5t78.5 -15.5q43 0 80.5 17.5t65 52t43.5 86t16 118.5zM263 757l165 118l54 -67l-193 -78z" />
    <glyph glyph-name="Ocircumflex" unicode="&#xd4;" horiz-adv-x="700" 
d="M40 344q0 82 23 148t64 111.5t98.5 70t126.5 24.5q59 0 115 -20.5t98.5 -62.5t68.5 -107.5t26 -154.5q0 -84 -21.5 -151.5t-61 -114t-97 -72t-128.5 -25.5q-63 0 -120 21.5t-99.5 65t-67.5 110.5t-25 157zM568 349q0 65 -17.5 113.5t-46 80.5t-65.5 48t-76 16
q-93 0 -153 -70t-60 -193q0 -70 18 -121t48 -84t68.5 -48.5t78.5 -15.5q43 0 80.5 17.5t65 52t43.5 86t16 118.5zM190 763l139 110h46l140 -110l-24 -34l-139 72l-139 -72z" />
    <glyph glyph-name="Otilde" unicode="&#xd5;" horiz-adv-x="700" 
d="M40 344q0 82 23 148t64 111.5t98.5 70t126.5 24.5q59 0 115 -20.5t98.5 -62.5t68.5 -107.5t26 -154.5q0 -84 -21.5 -151.5t-61 -114t-97 -72t-128.5 -25.5q-63 0 -120 21.5t-99.5 65t-67.5 110.5t-25 157zM568 349q0 65 -17.5 113.5t-46 80.5t-65.5 48t-76 16
q-93 0 -153 -70t-60 -193q0 -70 18 -121t48 -84t68.5 -48.5t78.5 -15.5q43 0 80.5 17.5t65 52t43.5 86t16 118.5zM429 804q29 0 36.5 21.5t1.5 46.5h26q19 -55 0 -94t-73 -39q-28 0 -45 10.5t-30.5 23t-27.5 23t-36 10.5q-28 0 -36 -20.5t-2 -46.5h-26q-19 57 0.5 94.5
t73.5 37.5q29 0 47 -10.5t31.5 -23t26.5 -23t33 -10.5z" />
    <glyph glyph-name="Odieresis" unicode="&#xd6;" horiz-adv-x="700" 
d="M40 344q0 82 23 148t64 111.5t98.5 70t126.5 24.5q59 0 115 -20.5t98.5 -62.5t68.5 -107.5t26 -154.5q0 -84 -21.5 -151.5t-61 -114t-97 -72t-128.5 -25.5q-63 0 -120 21.5t-99.5 65t-67.5 110.5t-25 157zM568 349q0 65 -17.5 113.5t-46 80.5t-65.5 48t-76 16
q-93 0 -153 -70t-60 -193q0 -70 18 -121t48 -84t68.5 -48.5t78.5 -15.5q43 0 80.5 17.5t65 52t43.5 86t16 118.5zM216 750v94h93v-94h-93zM390 750v94h93v-94h-93z" />
    <glyph glyph-name="multiply" unicode="&#xd7;" horiz-adv-x="585" 
d="M115 179l122 122l-122 123l56 55l122 -122l122 122l56 -55l-122 -123l122 -122l-56 -56l-122 122l-122 -122z" />
    <glyph glyph-name="Oslash" unicode="&#xd8;" horiz-adv-x="700" 
d="M40 344q0 82 23 148t64 111.5t98.5 70t126.5 24.5q50 0 98 -14.5t88 -44.5l43 56h80l-77 -101q35 -42 55.5 -102t20.5 -139q0 -84 -21.5 -151.5t-61 -114t-97 -72t-128.5 -25.5q-52 0 -100 14.5t-87 43.5l-43 -56h-82l78 101q-37 43 -57.5 106t-20.5 145zM150 344
q0 -51 10 -91t26 -71l295 383q-25 21 -56 31.5t-62 10.5q-93 0 -153 -70t-60 -193zM568 349q0 53 -12 95t-31 73l-299 -389q29 -27 64.5 -40t72.5 -13q43 0 80.5 17.5t65 52t43.5 86t16 118.5z" />
    <glyph glyph-name="Ugrave" unicode="&#xd9;" horiz-adv-x="658" 
d="M70 313v377h110v-358q0 -114 34 -184t135 -70q49 0 80 18t48.5 50t24 78.5t6.5 103.5v362h80v-371q0 -70 -12.5 -130.5t-41.5 -104.5t-77 -69t-119 -25q-81 0 -133.5 25t-82 68.5t-41 102.5t-11.5 127zM227 808l54 67l165 -118l-26 -27z" />
    <glyph glyph-name="Uacute" unicode="&#xda;" horiz-adv-x="658" 
d="M70 313v377h110v-358q0 -114 34 -184t135 -70q49 0 80 18t48.5 50t24 78.5t6.5 103.5v362h80v-371q0 -70 -12.5 -130.5t-41.5 -104.5t-77 -69t-119 -25q-81 0 -133.5 25t-82 68.5t-41 102.5t-11.5 127zM264 757l165 118l54 -67l-193 -78z" />
    <glyph glyph-name="Ucircumflex" unicode="&#xdb;" horiz-adv-x="658" 
d="M70 313v377h110v-358q0 -114 34 -184t135 -70q49 0 80 18t48.5 50t24 78.5t6.5 103.5v362h80v-371q0 -70 -12.5 -130.5t-41.5 -104.5t-77 -69t-119 -25q-81 0 -133.5 25t-82 68.5t-41 102.5t-11.5 127zM182 763l139 110h46l140 -110l-24 -34l-139 72l-139 -72z" />
    <glyph glyph-name="Udieresis" unicode="&#xdc;" horiz-adv-x="658" 
d="M70 313v377h110v-358q0 -114 34 -184t135 -70q49 0 80 18t48.5 50t24 78.5t6.5 103.5v362h80v-371q0 -70 -12.5 -130.5t-41.5 -104.5t-77 -69t-119 -25q-81 0 -133.5 25t-82 68.5t-41 102.5t-11.5 127zM213 750v94h93v-94h-93zM387 750v94h93v-94h-93z" />
    <glyph glyph-name="Yacute" unicode="&#xdd;" horiz-adv-x="551" 
d="M333 285v-285h-103v288l-233 402h127l176 -310l174 310h86zM222 757l165 118l54 -67l-193 -78z" />
    <glyph glyph-name="Thorn" unicode="&#xde;" horiz-adv-x="563" 
d="M80 690h103v-133h127q51 0 94 -13t74.5 -39t49 -64t17.5 -87q0 -56 -18.5 -96.5t-50 -66t-74 -37.5t-89.5 -12h-130v-142h-103v690zM284 482h-101v-265h108q29 0 56.5 7t48.5 22t34 41t13 63q0 69 -46 100.5t-113 31.5z" />
    <glyph glyph-name="germandbls" unicode="&#xdf;" horiz-adv-x="590" 
d="M75 460q0 54 12.5 100.5t40 79.5t71 51.5t104.5 18.5q90 0 139.5 -42t49.5 -101q0 -42 -17.5 -66t-42.5 -43q-22 -17 -41 -34t-19 -45q0 -32 23 -44t56 -33q18 -10 36 -23t32.5 -31t24 -42.5t9.5 -55.5q0 -74 -49 -117.5t-122 -43.5q-69 0 -108 35.5t-39 107.5h36
q5 -42 27 -67t65 -25q34 0 60.5 22t26.5 62q0 46 -27 65.5t-61 41.5q-37 25 -60.5 49.5t-23.5 61.5q0 38 25 64.5t51 49.5q20 18 37 41t17 57q0 39 -27.5 64.5t-73.5 25.5q-68 0 -101.5 -49.5t-33.5 -153.5v-441h-97v460z" />
    <glyph glyph-name="agrave" unicode="&#xe0;" horiz-adv-x="480" 
d="M38 115q0 57 40 100.5t135 43.5q24 0 51.5 -5.5t45.5 -13.5v66q0 57 -26 85t-76 28q-49 0 -76.5 -28.5t-32.5 -66.5h-38q0 33 9.5 63.5t30 53t53.5 36t79 13.5q86 0 127.5 -45t41.5 -121v-190q0 -61 12.5 -79.5t29.5 -18.5q4 0 9 1.5t9 4.5l9 -17q-7 -13 -25 -23t-41 -10
q-40 0 -64.5 17.5t-29.5 66.5q-19 -36 -54 -61t-90 -25q-63 0 -96 36t-33 89zM134 123q0 -34 18.5 -52t52.5 -18q28 0 48 13t32.5 33.5t18.5 46t6 51.5v5q-13 4 -33 7.5t-40 3.5q-53 0 -78 -24.5t-25 -65.5zM119 710l61 56l136 -182l-40 -33z" />
    <glyph glyph-name="aacute" unicode="&#xe1;" horiz-adv-x="480" 
d="M38 115q0 57 40 100.5t135 43.5q24 0 51.5 -5.5t45.5 -13.5v66q0 57 -26 85t-76 28q-49 0 -76.5 -28.5t-32.5 -66.5h-38q0 33 9.5 63.5t30 53t53.5 36t79 13.5q86 0 127.5 -45t41.5 -121v-190q0 -61 12.5 -79.5t29.5 -18.5q4 0 9 1.5t9 4.5l9 -17q-7 -13 -25 -23t-41 -10
q-40 0 -64.5 17.5t-29.5 66.5q-19 -36 -54 -61t-90 -25q-63 0 -96 36t-33 89zM134 123q0 -34 18.5 -52t52.5 -18q28 0 48 13t32.5 33.5t18.5 46t6 51.5v5q-13 4 -33 7.5t-40 3.5q-53 0 -78 -24.5t-25 -65.5zM176 584l136 182l61 -56l-157 -159z" />
    <glyph glyph-name="acircumflex" unicode="&#xe2;" horiz-adv-x="480" 
d="M38 115q0 57 40 100.5t135 43.5q24 0 51.5 -5.5t45.5 -13.5v66q0 57 -26 85t-76 28q-49 0 -76.5 -28.5t-32.5 -66.5h-38q0 33 9.5 63.5t30 53t53.5 36t79 13.5q86 0 127.5 -45t41.5 -121v-190q0 -61 12.5 -79.5t29.5 -18.5q4 0 9 1.5t9 4.5l9 -17q-7 -13 -25 -23t-41 -10
q-40 0 -64.5 17.5t-29.5 66.5q-19 -36 -54 -61t-90 -25q-63 0 -96 36t-33 89zM134 123q0 -34 18.5 -52t52.5 -18q28 0 48 13t32.5 33.5t18.5 46t6 51.5v5q-13 4 -33 7.5t-40 3.5q-53 0 -78 -24.5t-25 -65.5zM78 582l136 171h53l136 -171l-34 -32l-128 126l-129 -126z" />
    <glyph glyph-name="atilde" unicode="&#xe3;" horiz-adv-x="480" 
d="M38 115q0 57 40 100.5t135 43.5q24 0 51.5 -5.5t45.5 -13.5v66q0 57 -26 85t-76 28q-49 0 -76.5 -28.5t-32.5 -66.5h-38q0 33 9.5 63.5t30 53t53.5 36t79 13.5q86 0 127.5 -45t41.5 -121v-190q0 -61 12.5 -79.5t29.5 -18.5q4 0 9 1.5t9 4.5l9 -17q-7 -13 -25 -23t-41 -10
q-40 0 -64.5 17.5t-29.5 66.5q-19 -36 -54 -61t-90 -25q-63 0 -96 36t-33 89zM134 123q0 -34 18.5 -52t52.5 -18q28 0 48 13t32.5 33.5t18.5 46t6 51.5v5q-13 4 -33 7.5t-40 3.5q-53 0 -78 -24.5t-25 -65.5zM95 581q-22 66 -2 109t72 43q31 0 49 -13t31 -28t25.5 -28
t33.5 -13q30 0 37 25.5t-1 57.5h26q21 -64 1.5 -108t-71.5 -44q-29 0 -46 13t-29.5 28t-26.5 28t-37 13q-30 0 -37.5 -25.5t0.5 -57.5h-25z" />
    <glyph glyph-name="adieresis" unicode="&#xe4;" horiz-adv-x="480" 
d="M38 115q0 57 40 100.5t135 43.5q24 0 51.5 -5.5t45.5 -13.5v66q0 57 -26 85t-76 28q-49 0 -76.5 -28.5t-32.5 -66.5h-38q0 33 9.5 63.5t30 53t53.5 36t79 13.5q86 0 127.5 -45t41.5 -121v-190q0 -61 12.5 -79.5t29.5 -18.5q4 0 9 1.5t9 4.5l9 -17q-7 -13 -25 -23t-41 -10
q-40 0 -64.5 17.5t-29.5 66.5q-19 -36 -54 -61t-90 -25q-63 0 -96 36t-33 89zM134 123q0 -34 18.5 -52t52.5 -18q28 0 48 13t32.5 33.5t18.5 46t6 51.5v5q-13 4 -33 7.5t-40 3.5q-53 0 -78 -24.5t-25 -65.5zM110 616v94h93v-94h-93zM284 616v94h93v-94h-93z" />
    <glyph glyph-name="aring" unicode="&#xe5;" horiz-adv-x="480" 
d="M38 115q0 57 40 100.5t135 43.5q24 0 51.5 -5.5t45.5 -13.5v66q0 57 -26 85t-76 28q-49 0 -76.5 -28.5t-32.5 -66.5h-38q0 33 9.5 63.5t30 53t53.5 36t79 13.5q86 0 127.5 -45t41.5 -121v-190q0 -61 12.5 -79.5t29.5 -18.5q4 0 9 1.5t9 4.5l9 -17q-7 -13 -25 -23t-41 -10
q-40 0 -64.5 17.5t-29.5 66.5q-19 -36 -54 -61t-90 -25q-63 0 -96 36t-33 89zM134 123q0 -34 18.5 -52t52.5 -18q28 0 48 13t32.5 33.5t18.5 46t6 51.5v5q-13 4 -33 7.5t-40 3.5q-53 0 -78 -24.5t-25 -65.5zM137 682q0 44 30.5 74t77.5 30q50 0 80 -30t30 -74
q0 -43 -30 -73.5t-80 -30.5q-48 0 -78 30.5t-30 73.5zM301 675q0 25 -15.5 41.5t-39.5 16.5q-25 0 -40.5 -16.5t-15.5 -41.5q0 -24 15.5 -40t40.5 -16q24 0 39.5 16t15.5 40z" />
    <glyph glyph-name="ae" unicode="&#xe6;" horiz-adv-x="746" 
d="M706 169q0 -76 -48 -127.5t-135 -51.5q-62 0 -105.5 23.5t-68.5 68.5q-25 -38 -68.5 -65t-101.5 -27q-72 0 -106.5 34.5t-34.5 87.5q0 57 40 100.5t135 43.5q24 0 51.5 -6t45.5 -13v69q0 54 -26 84.5t-83 30.5q-54 0 -80.5 -29t-30.5 -68h-29q0 33 9 63.5t29 53t51.5 36
t75.5 13.5q56 0 90.5 -22t51.5 -59q25 37 64.5 59t90.5 22q46 0 78 -14t51.5 -37t28.5 -52t9 -58q0 -18 -2 -43t-4 -35h-280v-1v-17q0 -82 35 -128.5t107 -46.5q60 0 94 31t36 80h30zM524 414q-44 0 -75 -30t-41 -86h203q0 2 1 10.5t1 18.5q0 13 -3 28.5t-12.5 28.5
t-27 21.5t-46.5 8.5zM205 53q28 0 48 12.5t32.5 33t18.5 46.5t6 52v5q-13 4 -33.5 7.5t-39.5 3.5q-53 0 -80 -24.5t-27 -65.5q0 -34 20.5 -52t54.5 -18z" />
    <glyph glyph-name="ccedilla" unicode="&#xe7;" horiz-adv-x="469" 
d="M40 228q0 55 14.5 103t42 83.5t66.5 55.5t88 20q43 0 72.5 -11t48.5 -28t28.5 -39.5t12.5 -44.5q1 -12 1 -23.5t-1 -21.5h-44q-2 16 -7.5 32.5t-17.5 30t-31 22.5t-48 9q-62 0 -94 -53t-32 -130q0 -87 40 -132t94 -45t84 29.5t37 80.5h35q0 -76 -44 -126t-131 -50
q-40 0 -78.5 12.5t-68.5 40.5t-48.5 73.5t-18.5 111.5zM187 -115h24q-1 -22 7.5 -32.5t28.5 -10.5q15 0 24.5 10t9.5 29q0 27 -16 36t-42 4l-19 10l20 73l31 -4l-7 -46q41 6 68.5 -12t27.5 -61q0 -40 -23.5 -60t-59.5 -20q-45 0 -61.5 25t-12.5 59z" />
    <glyph glyph-name="egrave" unicode="&#xe8;" horiz-adv-x="480" 
d="M40 225q0 55 14.5 103.5t42 84.5t67 56.5t88.5 20.5q48 0 81 -14t53 -37t29 -52t9 -58q0 -18 -2.5 -44t-3.5 -36h-280v-16q0 -82 35.5 -128.5t104.5 -46.5q60 0 91 30t36 78h35q0 -81 -48.5 -128.5t-135.5 -47.5q-100 0 -158 59.5t-58 175.5zM258 414q-46 0 -76 -30.5
t-40 -83.5h202q1 2 1.5 9.5t0.5 17.5q0 31 -17 59t-71 28zM138 710l61 56l136 -182l-40 -33z" />
    <glyph glyph-name="eacute" unicode="&#xe9;" horiz-adv-x="480" 
d="M40 225q0 55 14.5 103.5t42 84.5t67 56.5t88.5 20.5q48 0 81 -14t53 -37t29 -52t9 -58q0 -18 -2.5 -44t-3.5 -36h-280v-16q0 -82 35.5 -128.5t104.5 -46.5q60 0 91 30t36 78h35q0 -81 -48.5 -128.5t-135.5 -47.5q-100 0 -158 59.5t-58 175.5zM258 414q-46 0 -76 -30.5
t-40 -83.5h202q1 2 1.5 9.5t0.5 17.5q0 31 -17 59t-71 28zM196 584l136 182l61 -56l-157 -159z" />
    <glyph glyph-name="ecircumflex" unicode="&#xea;" horiz-adv-x="480" 
d="M40 225q0 55 14.5 103.5t42 84.5t67 56.5t88.5 20.5q48 0 81 -14t53 -37t29 -52t9 -58q0 -18 -2.5 -44t-3.5 -36h-280v-16q0 -82 35.5 -128.5t104.5 -46.5q60 0 91 30t36 78h35q0 -81 -48.5 -128.5t-135.5 -47.5q-100 0 -158 59.5t-58 175.5zM258 414q-46 0 -76 -30.5
t-40 -83.5h202q1 2 1.5 9.5t0.5 17.5q0 31 -17 59t-71 28zM98 582l136 171h53l136 -171l-34 -32l-128 126l-129 -126z" />
    <glyph glyph-name="edieresis" unicode="&#xeb;" horiz-adv-x="480" 
d="M40 225q0 55 14.5 103.5t42 84.5t67 56.5t88.5 20.5q48 0 81 -14t53 -37t29 -52t9 -58q0 -18 -2.5 -44t-3.5 -36h-280v-16q0 -82 35.5 -128.5t104.5 -46.5q60 0 91 30t36 78h35q0 -81 -48.5 -128.5t-135.5 -47.5q-100 0 -158 59.5t-58 175.5zM258 414q-46 0 -76 -30.5
t-40 -83.5h202q1 2 1.5 9.5t0.5 17.5q0 31 -17 59t-71 28zM128 616v94h93v-94h-93zM302 616v94h93v-94h-93z" />
    <glyph glyph-name="igrave" unicode="&#xec;" horiz-adv-x="250" 
d="M76 475l97 5v-480h-97v475zM9 710l61 56l136 -182l-40 -33z" />
    <glyph glyph-name="iacute" unicode="&#xed;" horiz-adv-x="250" 
d="M76 475l97 5v-480h-97v475zM45 584l136 182l61 -56l-157 -159z" />
    <glyph glyph-name="icircumflex" unicode="&#xee;" horiz-adv-x="250" 
d="M76 475l97 5v-480h-97v475zM-35 582l136 171h53l136 -171l-34 -32l-128 126l-129 -126z" />
    <glyph glyph-name="idieresis" unicode="&#xef;" horiz-adv-x="250" 
d="M76 475l97 5v-480h-97v475zM-6 616v94h93v-94h-93zM168 616v94h93v-94h-93z" />
    <glyph glyph-name="eth" unicode="&#xf0;" horiz-adv-x="519" 
d="M260 -11q-54 0 -95 18.5t-69 51t-42 77.5t-14 96q0 108 48.5 175.5t134.5 67.5q57 0 96.5 -29.5t60.5 -87.5l3 2q-10 73 -45 129.5t-86 96.5l-55 -55h-59l80 80q-26 16 -54.5 30.5t-58.5 25.5l57 43q28 -10 53.5 -23t50.5 -29l50 50h58l-74 -74q80 -60 129.5 -153
t49.5 -222q0 -134 -61 -202t-158 -68zM262 58q52 0 85.5 45.5t33.5 124.5q0 72 -30 122.5t-93 50.5q-32 0 -55.5 -14t-38 -37.5t-21 -55t-6.5 -66.5q0 -32 6.5 -62.5t21 -54.5t38.5 -38.5t59 -14.5z" />
    <glyph glyph-name="ntilde" unicode="&#xf1;" horiz-adv-x="537" 
d="M472 0h-97v255q0 80 -20.5 117t-73.5 37q-57 0 -85.5 -56t-28.5 -155v-198h-97v475l84 5l10 -144v-5q10 66 45.5 112.5t112.5 46.5q87 0 118.5 -52t31.5 -138v-300zM123 581q-22 66 -2 109t72 43q31 0 49 -13t31 -28t25.5 -28t33.5 -13q30 0 37 25.5t-1 57.5h26
q21 -64 1.5 -108t-71.5 -44q-29 0 -46 13t-29.5 28t-26.5 28t-37 13q-30 0 -37.5 -25.5t0.5 -57.5h-25z" />
    <glyph glyph-name="ograve" unicode="&#xf2;" horiz-adv-x="516" 
d="M40 239q0 116 61.5 183.5t157.5 67.5q46 0 85.5 -16.5t68.5 -48t46 -79t17 -109.5q0 -116 -58 -181.5t-159 -65.5q-47 0 -87.5 16t-69.5 47t-45.5 78t-16.5 108zM379 241q0 78 -31.5 125.5t-89.5 47.5q-55 0 -88 -46t-33 -127q0 -90 33 -136t89 -46q53 0 86.5 45
t33.5 137zM139 710l61 56l136 -182l-40 -33z" />
    <glyph glyph-name="oacute" unicode="&#xf3;" horiz-adv-x="516" 
d="M40 239q0 116 61.5 183.5t157.5 67.5q46 0 85.5 -16.5t68.5 -48t46 -79t17 -109.5q0 -116 -58 -181.5t-159 -65.5q-47 0 -87.5 16t-69.5 47t-45.5 78t-16.5 108zM379 241q0 78 -31.5 125.5t-89.5 47.5q-55 0 -88 -46t-33 -127q0 -90 33 -136t89 -46q53 0 86.5 45
t33.5 137zM181 584l136 182l61 -56l-157 -159z" />
    <glyph glyph-name="ocircumflex" unicode="&#xf4;" horiz-adv-x="516" 
d="M40 239q0 116 61.5 183.5t157.5 67.5q46 0 85.5 -16.5t68.5 -48t46 -79t17 -109.5q0 -116 -58 -181.5t-159 -65.5q-47 0 -87.5 16t-69.5 47t-45.5 78t-16.5 108zM379 241q0 78 -31.5 125.5t-89.5 47.5q-55 0 -88 -46t-33 -127q0 -90 33 -136t89 -46q53 0 86.5 45
t33.5 137zM98 582l136 171h53l136 -171l-34 -32l-128 126l-129 -126z" />
    <glyph glyph-name="otilde" unicode="&#xf5;" horiz-adv-x="516" 
d="M40 239q0 116 61.5 183.5t157.5 67.5q46 0 85.5 -16.5t68.5 -48t46 -79t17 -109.5q0 -116 -58 -181.5t-159 -65.5q-47 0 -87.5 16t-69.5 47t-45.5 78t-16.5 108zM379 241q0 78 -31.5 125.5t-89.5 47.5q-55 0 -88 -46t-33 -127q0 -90 33 -136t89 -46q53 0 86.5 45
t33.5 137zM120 581q-22 66 -2 109t72 43q31 0 49 -13t31 -28t25.5 -28t33.5 -13q30 0 37 25.5t-1 57.5h26q21 -64 1.5 -108t-71.5 -44q-29 0 -46 13t-29.5 28t-26.5 28t-37 13q-30 0 -37.5 -25.5t0.5 -57.5h-25z" />
    <glyph glyph-name="odieresis" unicode="&#xf6;" horiz-adv-x="516" 
d="M40 239q0 116 61.5 183.5t157.5 67.5q46 0 85.5 -16.5t68.5 -48t46 -79t17 -109.5q0 -116 -58 -181.5t-159 -65.5q-47 0 -87.5 16t-69.5 47t-45.5 78t-16.5 108zM379 241q0 78 -31.5 125.5t-89.5 47.5q-55 0 -88 -46t-33 -127q0 -90 33 -136t89 -46q53 0 86.5 45
t33.5 137zM128 616v94h93v-94h-93zM302 616v94h93v-94h-93z" />
    <glyph glyph-name="divide" unicode="&#xf7;" horiz-adv-x="585" 
d="M505 351v-79h-425v79h425z" />
    <glyph glyph-name="oslash" unicode="&#xf8;" horiz-adv-x="519" 
d="M40 239q0 116 61.5 183.5t157.5 67.5q37 0 70.5 -11t61.5 -32l29 38h59l-55 -72q25 -31 38.5 -75.5t13.5 -100.5q0 -116 -58 -181.5t-159 -65.5q-37 0 -69.5 9.5t-59.5 28.5l-27 -36h-60l52 68q-26 31 -40.5 76.5t-14.5 102.5zM137 241q0 -31 4.5 -57.5t11.5 -47.5
l186 242q-15 17 -35.5 26.5t-45.5 9.5q-55 0 -88 -46t-33 -127zM379 241q0 27 -4 50.5t-11 42.5l-184 -241q15 -17 35 -25.5t44 -8.5q53 0 86.5 45t33.5 137z" />
    <glyph glyph-name="ugrave" unicode="&#xf9;" horiz-adv-x="537" 
d="M373 130l-1 11q-12 -62 -47.5 -106.5t-109.5 -44.5q-87 0 -118.5 52t-31.5 138v295l97 5v-255q0 -80 20.5 -116.5t74.5 -36.5q57 0 85 56t28 155v192l97 5v-480h-89zM159 710l61 56l136 -182l-40 -33z" />
    <glyph glyph-name="uacute" unicode="&#xfa;" horiz-adv-x="537" 
d="M373 130l-1 11q-12 -62 -47.5 -106.5t-109.5 -44.5q-87 0 -118.5 52t-31.5 138v295l97 5v-255q0 -80 20.5 -116.5t74.5 -36.5q57 0 85 56t28 155v192l97 5v-480h-89zM197 584l136 182l61 -56l-157 -159z" />
    <glyph glyph-name="ucircumflex" unicode="&#xfb;" horiz-adv-x="537" 
d="M373 130l-1 11q-12 -62 -47.5 -106.5t-109.5 -44.5q-87 0 -118.5 52t-31.5 138v295l97 5v-255q0 -80 20.5 -116.5t74.5 -36.5q57 0 85 56t28 155v192l97 5v-480h-89zM110 582l136 171h53l136 -171l-34 -32l-128 126l-129 -126z" />
    <glyph glyph-name="udieresis" unicode="&#xfc;" horiz-adv-x="537" 
d="M373 130l-1 11q-12 -62 -47.5 -106.5t-109.5 -44.5q-87 0 -118.5 52t-31.5 138v295l97 5v-255q0 -80 20.5 -116.5t74.5 -36.5q57 0 85 56t28 155v192l97 5v-480h-89zM142 616v94h93v-94h-93zM316 616v94h93v-94h-93z" />
    <glyph glyph-name="yacute" unicode="&#xfd;" horiz-adv-x="464" 
d="M17 -139h25q0 -18 12 -31.5t40 -13.5t44.5 21t32.5 67l32 85l-195 486h104l141 -348l117 348h86l-230 -615q-24 -62 -55.5 -86t-63.5 -24q-36 0 -54.5 13t-26.5 31t-8.5 37t-0.5 30zM174 584l136 182l61 -56l-157 -159z" />
    <glyph glyph-name="thorn" unicode="&#xfe;" horiz-adv-x="547" 
d="M70 474l82 5l9 -131q14 63 52 102t105 39q35 0 69 -14.5t60.5 -44.5t43 -77t16.5 -111q0 -116 -53.5 -184.5t-135.5 -68.5q-52 0 -92 30t-59 93v-353h-97v715zM408 230q0 96 -37.5 139.5t-83.5 43.5q-54 0 -87 -46t-33 -139q0 -81 37 -125.5t83 -44.5q56 0 88.5 47
t32.5 125zM70 705l97 5v-710h-97v705z" />
    <glyph glyph-name="ydieresis" unicode="&#xff;" horiz-adv-x="464" 
d="M17 -139h25q0 -18 12 -31.5t40 -13.5t44.5 21t32.5 67l32 85l-195 486h104l141 -348l117 348h86l-230 -615q-24 -62 -55.5 -86t-63.5 -24q-36 0 -54.5 13t-26.5 31t-8.5 37t-0.5 30zM113 616v94h93v-94h-93zM287 616v94h93v-94h-93z" />
    <glyph glyph-name="Amacron" unicode="&#x100;" horiz-adv-x="620" 
d="M100 0h-85l246 691h107l232 -691h-121l-58 185h-257zM189 260h209l-100 317zM174 838h276v-62h-276v62z" />
    <glyph glyph-name="amacron" unicode="&#x101;" horiz-adv-x="480" 
d="M38 115q0 57 40 100.5t135 43.5q24 0 51.5 -5.5t45.5 -13.5v66q0 57 -26 85t-76 28q-49 0 -76.5 -28.5t-32.5 -66.5h-38q0 33 9.5 63.5t30 53t53.5 36t79 13.5q86 0 127.5 -45t41.5 -121v-190q0 -61 12.5 -79.5t29.5 -18.5q4 0 9 1.5t9 4.5l9 -17q-7 -13 -25 -23t-41 -10
q-40 0 -64.5 17.5t-29.5 66.5q-19 -36 -54 -61t-90 -25q-63 0 -96 36t-33 89zM134 123q0 -34 18.5 -52t52.5 -18q28 0 48 13t32.5 33.5t18.5 46t6 51.5v5q-13 4 -33 7.5t-40 3.5q-53 0 -78 -24.5t-25 -65.5zM105 710h276v-62h-276v62z" />
    <glyph glyph-name="Abreve" unicode="&#x102;" horiz-adv-x="620" 
d="M100 0h-85l246 691h107l232 -691h-121l-58 185h-257zM189 260h209l-100 317zM172 876h36q4 -23 26 -48t85 -25q60 0 83 25t27 48h36q2 -25 -5 -50.5t-24 -45.5t-46 -32.5t-71 -12.5t-71 12.5t-46.5 32.5t-24.5 45.5t-5 50.5z" />
    <glyph glyph-name="abreve" unicode="&#x103;" horiz-adv-x="480" 
d="M38 115q0 57 40 100.5t135 43.5q24 0 51.5 -5.5t45.5 -13.5v66q0 57 -26 85t-76 28q-49 0 -76.5 -28.5t-32.5 -66.5h-38q0 33 9.5 63.5t30 53t53.5 36t79 13.5q86 0 127.5 -45t41.5 -121v-190q0 -61 12.5 -79.5t29.5 -18.5q4 0 9 1.5t9 4.5l9 -17q-7 -13 -25 -23t-41 -10
q-40 0 -64.5 17.5t-29.5 66.5q-19 -36 -54 -61t-90 -25q-63 0 -96 36t-33 89zM134 123q0 -34 18.5 -52t52.5 -18q28 0 48 13t32.5 33.5t18.5 46t6 51.5v5q-13 4 -33 7.5t-40 3.5q-53 0 -78 -24.5t-25 -65.5zM251 576q-43 0 -71.5 16t-45.5 40t-23 54t-4 58h37q1 -13 6 -29.5
t16.5 -31.5t32 -25t52.5 -10t52.5 10t32 25t16.5 31.5t7 29.5h36q2 -28 -4 -58t-23 -54t-45.5 -40t-71.5 -16z" />
    <glyph glyph-name="Aogonek" unicode="&#x104;" horiz-adv-x="620" 
d="M100 0h-85l246 691h107l232 -691h-51q-37 -10 -68 -45t-31 -79q0 -14 6.5 -26t27.5 -12q18 0 26.5 14t8.5 33h23q2 -38 -15.5 -65t-61.5 -27q-40 0 -58.5 21.5t-18.5 52.5q0 43 27.5 75.5t64.5 57.5h-1l-58 185h-257zM189 260h209l-100 317z" />
    <glyph glyph-name="aogonek" unicode="&#x105;" horiz-adv-x="480" 
d="M38 115q0 57 40 100.5t135 43.5q24 0 51.5 -5.5t45.5 -13.5v66q0 57 -26 85t-76 28q-49 0 -76.5 -28.5t-32.5 -66.5h-38q0 33 9.5 63.5t30 53t53.5 36t79 13.5q86 0 127.5 -45t41.5 -121v-190q0 -61 12.5 -79.5t29.5 -18.5q4 0 9 1.5t9 4.5l9 -17q-4 -8 -13 -15.5
t-21 -11.5q-31 -16 -53.5 -45t-22.5 -70q0 -19 9 -32t30 -13q19 0 27.5 14t8.5 33h23q2 -38 -15.5 -65t-62.5 -27q-40 0 -60.5 22t-20.5 56q0 42 26 70.5t62 51.5q-32 3 -52.5 21.5t-24.5 61.5q-19 -36 -54 -61t-90 -25q-63 0 -96 36t-33 89zM134 123q0 -34 18.5 -52
t52.5 -18q28 0 48 13t32.5 33.5t18.5 46t6 51.5v5q-13 4 -33 7.5t-40 3.5q-53 0 -78 -24.5t-25 -65.5z" />
    <glyph glyph-name="Cacute" unicode="&#x106;" horiz-adv-x="614" 
d="M40 339q0 86 24 153.5t65.5 113t97.5 69t119 23.5q65 0 108.5 -21t69 -50t35.5 -61.5t8 -54.5h-53q-2 9 -11 25.5t-27 32.5t-46.5 28t-69.5 12q-45 0 -83.5 -17.5t-66.5 -51.5t-44 -85t-16 -116q0 -68 16 -118.5t43.5 -82.5t65 -48t80.5 -16q45 0 77.5 13t53.5 31.5
t31.5 38.5t12.5 33h49q0 -25 -11.5 -59.5t-39 -65.5t-74 -53t-115.5 -22q-63 0 -118 21t-95 64t-63 109t-23 155zM273 757l165 118l54 -67l-193 -78z" />
    <glyph glyph-name="cacute" unicode="&#x107;" horiz-adv-x="469" 
d="M40 228q0 55 14.5 103t42 83.5t66.5 55.5t88 20q43 0 72.5 -11t48.5 -28t28.5 -39.5t12.5 -44.5q1 -12 1 -23.5t-1 -21.5h-44q-2 16 -7.5 32.5t-17.5 30t-31 22.5t-48 9q-62 0 -94 -53t-32 -130q0 -87 40 -132t94 -45t84 29.5t37 80.5h35q0 -76 -44 -126t-131 -50
q-40 0 -78.5 12.5t-68.5 40.5t-48.5 73.5t-18.5 111.5zM179 584l136 182l61 -56l-157 -159z" />
    <glyph glyph-name="Ccircumflex" unicode="&#x108;" horiz-adv-x="614" 
d="M40 339q0 86 24 153.5t65.5 113t97.5 69t119 23.5q65 0 108.5 -21t69 -50t35.5 -61.5t8 -54.5h-53q-2 9 -11 25.5t-27 32.5t-46.5 28t-69.5 12q-45 0 -83.5 -17.5t-66.5 -51.5t-44 -85t-16 -116q0 -68 16 -118.5t43.5 -82.5t65 -48t80.5 -16q45 0 77.5 13t53.5 31.5
t31.5 38.5t12.5 33h49q0 -25 -11.5 -59.5t-39 -65.5t-74 -53t-115.5 -22q-63 0 -118 21t-95 64t-63 109t-23 155zM177 763l139 110h46l140 -110l-24 -34l-139 72l-139 -72z" />
    <glyph glyph-name="ccircumflex" unicode="&#x109;" horiz-adv-x="469" 
d="M40 228q0 55 14.5 103t42 83.5t66.5 55.5t88 20q43 0 72.5 -11t48.5 -28t28.5 -39.5t12.5 -44.5q1 -12 1 -23.5t-1 -21.5h-44q-2 16 -7.5 32.5t-17.5 30t-31 22.5t-48 9q-62 0 -94 -53t-32 -130q0 -87 40 -132t94 -45t84 29.5t37 80.5h35q0 -76 -44 -126t-131 -50
q-40 0 -78.5 12.5t-68.5 40.5t-48.5 73.5t-18.5 111.5zM98 582l136 171h53l136 -171l-34 -32l-128 126l-129 -126z" />
    <glyph glyph-name="Cdotaccent" unicode="&#x10a;" horiz-adv-x="614" 
d="M40 339q0 86 24 153.5t65.5 113t97.5 69t119 23.5q65 0 108.5 -21t69 -50t35.5 -61.5t8 -54.5h-53q-2 9 -11 25.5t-27 32.5t-46.5 28t-69.5 12q-45 0 -83.5 -17.5t-66.5 -51.5t-44 -85t-16 -116q0 -68 16 -118.5t43.5 -82.5t65 -48t80.5 -16q45 0 77.5 13t53.5 31.5
t31.5 38.5t12.5 33h49q0 -25 -11.5 -59.5t-39 -65.5t-74 -53t-115.5 -22q-63 0 -118 21t-95 64t-63 109t-23 155zM292 749v98h107v-98h-107z" />
    <glyph glyph-name="cdotaccent" unicode="&#x10b;" horiz-adv-x="469" 
d="M40 228q0 55 14.5 103t42 83.5t66.5 55.5t88 20q43 0 72.5 -11t48.5 -28t28.5 -39.5t12.5 -44.5q1 -12 1 -23.5t-1 -21.5h-44q-2 16 -7.5 32.5t-17.5 30t-31 22.5t-48 9q-62 0 -94 -53t-32 -130q0 -87 40 -132t94 -45t84 29.5t37 80.5h35q0 -76 -44 -126t-131 -50
q-40 0 -78.5 12.5t-68.5 40.5t-48.5 73.5t-18.5 111.5zM205 612v98h107v-98h-107z" />
    <glyph glyph-name="Ccaron" unicode="&#x10c;" horiz-adv-x="614" 
d="M40 339q0 86 24 153.5t65.5 113t97.5 69t119 23.5q65 0 108.5 -21t69 -50t35.5 -61.5t8 -54.5h-53q-2 9 -11 25.5t-27 32.5t-46.5 28t-69.5 12q-45 0 -83.5 -17.5t-66.5 -51.5t-44 -85t-16 -116q0 -68 16 -118.5t43.5 -82.5t65 -48t80.5 -16q45 0 77.5 13t53.5 31.5
t31.5 38.5t12.5 33h49q0 -25 -11.5 -59.5t-39 -65.5t-74 -53t-115.5 -22q-63 0 -118 21t-95 64t-63 109t-23 155zM185 839l24 34l139 -72l139 72l23 -34l-139 -110h-46z" />
    <glyph glyph-name="ccaron" unicode="&#x10d;" horiz-adv-x="470" 
d="M40 228q0 55 14.5 103t42 83.5t66.5 55.5t88 20q43 0 72.5 -11t48.5 -28t28.5 -39.5t12.5 -44.5q1 -12 1 -23.5t-1 -21.5h-44q-2 16 -7.5 32.5t-17.5 30t-31 22.5t-48 9q-62 0 -94 -53t-32 -130q0 -87 40 -132t94 -45t84 29.5t37 80.5h35q0 -76 -44 -126t-131 -50
q-40 0 -78.5 12.5t-68.5 40.5t-48.5 73.5t-18.5 111.5zM95 730l36 28l126 -126l127 126l36 -28l-136 -173h-53z" />
    <glyph glyph-name="Dcaron" unicode="&#x10e;" horiz-adv-x="664" 
d="M80 690h189q91 0 158 -26t110.5 -71.5t65 -108.5t21.5 -135q0 -100 -30 -167.5t-79.5 -107.5t-113.5 -57t-132 -17h-189v690zM270 615h-87v-540h87q113 0 179 70t66 204q0 58 -14.5 107t-44.5 84.5t-76.5 55t-109.5 19.5zM133 839l24 34l139 -72l139 72l23 -34l-139 -110
h-46z" />
    <glyph glyph-name="dcaron" unicode="&#x10f;" horiz-adv-x="649" 
d="M40 238q0 116 53.5 184t135.5 68q51 0 91 -32t60 -92v339l97 5v-710h-77l-10 137q-13 -71 -51.5 -109t-109.5 -38q-35 0 -69 14.5t-60.5 44.5t-43 77t-16.5 112zM380 243q0 80 -37 125t-83 45q-55 0 -88 -47.5t-33 -125.5q0 -95 37.5 -138t84.5 -43q53 0 86 45.5
t33 138.5zM556 511l38 199h80l-62 -199h-56z" />
    <glyph glyph-name="Dcroat" unicode="&#x110;" horiz-adv-x="664" 
d="M10 383h70v307h189q91 0 158 -26t110.5 -71.5t65 -108.5t21.5 -135q0 -100 -30 -167.5t-79.5 -107.5t-113.5 -57t-132 -17h-189v333h-70v50zM344 333h-161v-258h87q113 0 179 70t66 204q0 58 -14.5 107t-44.5 84.5t-76.5 55t-109.5 19.5h-87v-232h161v-50z" />
    <glyph glyph-name="dcroat" unicode="&#x111;" horiz-adv-x="558" 
d="M40 238q0 116 53.5 184t135.5 68q51 0 91 -32t60 -92v209h-145v47h145v83l97 5v-88h69v-47h-69v-575h-77l-10 137q-13 -71 -51.5 -109t-109.5 -38q-35 0 -69 14.5t-60.5 44.5t-43 77t-16.5 112zM380 243q0 80 -37 125t-83 45q-55 0 -88 -47.5t-33 -125.5q0 -95 37.5 -138
t84.5 -43q53 0 86 45.5t33 138.5z" />
    <glyph glyph-name="Emacron" unicode="&#x112;" horiz-adv-x="530" 
d="M433 325h-250v-247h307v-75h-410v685h403v-75h-300v-213h250v-75zM147 838h276v-62h-276v62z" />
    <glyph glyph-name="emacron" unicode="&#x113;" horiz-adv-x="480" 
d="M40 225q0 55 14.5 103.5t42 84.5t67 56.5t88.5 20.5q48 0 81 -14t53 -37t29 -52t9 -58q0 -18 -2.5 -44t-3.5 -36h-280v-16q0 -82 35.5 -128.5t104.5 -46.5q60 0 91 30t36 78h35q0 -81 -48.5 -128.5t-135.5 -47.5q-100 0 -158 59.5t-58 175.5zM258 414q-46 0 -76 -30.5
t-40 -83.5h202q1 2 1.5 9.5t0.5 17.5q0 31 -17 59t-71 28zM122 710h276v-62h-276v62z" />
    <glyph glyph-name="Ebreve" unicode="&#x114;" horiz-adv-x="530" 
d="M433 325h-250v-247h307v-75h-410v685h403v-75h-300v-213h250v-75zM140 876h36q4 -23 26 -48t85 -25q60 0 83 25t27 48h36q2 -25 -5 -50.5t-24 -45.5t-46 -32.5t-71 -12.5t-71 12.5t-46.5 32.5t-24.5 45.5t-5 50.5z" />
    <glyph glyph-name="ebreve" unicode="&#x115;" horiz-adv-x="480" 
d="M40 225q0 55 14.5 103.5t42 84.5t67 56.5t88.5 20.5q48 0 81 -14t53 -37t29 -52t9 -58q0 -18 -2.5 -44t-3.5 -36h-280v-16q0 -82 35.5 -128.5t104.5 -46.5q60 0 91 30t36 78h35q0 -81 -48.5 -128.5t-135.5 -47.5q-100 0 -158 59.5t-58 175.5zM258 414q-46 0 -76 -30.5
t-40 -83.5h202q1 2 1.5 9.5t0.5 17.5q0 31 -17 59t-71 28zM265 576q-43 0 -71.5 16t-45.5 40t-23 54t-4 58h37q1 -13 6 -29.5t16.5 -31.5t32 -25t52.5 -10t52.5 10t32 25t16.5 31.5t7 29.5h36q2 -28 -4 -58t-23 -54t-45.5 -40t-71.5 -16z" />
    <glyph glyph-name="Edotaccent" unicode="&#x116;" horiz-adv-x="530" 
d="M433 325h-250v-247h307v-75h-410v685h403v-75h-300v-213h250v-75zM233 749v98h107v-98h-107z" />
    <glyph glyph-name="edotaccent" unicode="&#x117;" horiz-adv-x="480" 
d="M40 225q0 55 14.5 103.5t42 84.5t67 56.5t88.5 20.5q48 0 81 -14t53 -37t29 -52t9 -58q0 -18 -2.5 -44t-3.5 -36h-280v-16q0 -82 35.5 -128.5t104.5 -46.5q60 0 91 30t36 78h35q0 -81 -48.5 -128.5t-135.5 -47.5q-100 0 -158 59.5t-58 175.5zM258 414q-46 0 -76 -30.5
t-40 -83.5h202q1 2 1.5 9.5t0.5 17.5q0 31 -17 59t-71 28zM207 612v98h107v-98h-107z" />
    <glyph glyph-name="Eogonek" unicode="&#x118;" horiz-adv-x="530" 
d="M320 -125q0 39 21 71.5t60 56.5h-321v685h403v-75h-300v-213h250v-75h-250v-247h307v-75h-3q-26 0 -46 -11.5t-33 -29t-19.5 -38.5t-6.5 -40q0 -22 8.5 -34t28.5 -12q19 0 27.5 14t8.5 33h24q1 -38 -16.5 -65t-62.5 -27q-40 0 -60 21.5t-20 60.5z" />
    <glyph glyph-name="eogonek" unicode="&#x119;" horiz-adv-x="480" 
d="M40 225q0 55 14.5 103.5t42 84.5t67 56.5t88.5 20.5q48 0 81 -14t53 -37t29 -52t9 -58q0 -18 -2.5 -44t-3.5 -36h-280v-16q0 -82 35.5 -128.5t104.5 -46.5q60 0 91 30t36 78h35q0 -81 -48.5 -128.5t-135.5 -47.5q-100 0 -158 59.5t-58 175.5zM258 414q-46 0 -76 -30.5
t-40 -83.5h202q1 2 1.5 9.5t0.5 17.5q0 31 -17 59t-71 28zM269 -123q0 31 12.5 57.5t32 50t43.5 45.5t46 44l11 -4q-31 -40 -53.5 -90t-22.5 -94q0 -21 8 -33t29 -12q16 0 24.5 12.5t8.5 31.5h27q1 -38 -16.5 -65t-61.5 -27q-40 0 -64 19t-24 65z" />
    <glyph glyph-name="Ecaron" unicode="&#x11a;" horiz-adv-x="530" 
d="M433 325h-250v-247h307v-75h-410v685h403v-75h-300v-213h250v-75zM128 839l24 34l139 -72l139 72l23 -34l-139 -110h-46z" />
    <glyph glyph-name="ecaron" unicode="&#x11b;" horiz-adv-x="480" 
d="M40 225q0 55 14.5 103.5t42 84.5t67 56.5t88.5 20.5q48 0 81 -14t53 -37t29 -52t9 -58q0 -18 -2.5 -44t-3.5 -36h-280v-16q0 -82 35.5 -128.5t104.5 -46.5q60 0 91 30t36 78h35q0 -81 -48.5 -128.5t-135.5 -47.5q-100 0 -158 59.5t-58 175.5zM258 414q-46 0 -76 -30.5
t-40 -83.5h202q1 2 1.5 9.5t0.5 17.5q0 31 -17 59t-71 28zM92 730l36 28l126 -126l127 126l36 -28l-136 -173h-53z" />
    <glyph glyph-name="Gcircumflex" unicode="&#x11c;" horiz-adv-x="645" 
d="M40 342q0 88 26 155t69.5 111.5t101 67t119.5 22.5q66 0 110.5 -20.5t71 -49.5t36.5 -61t8 -56h-53q-2 9 -11.5 25.5t-28.5 32.5t-49 28t-72 12q-44 0 -84 -17.5t-69.5 -51.5t-47 -85t-17.5 -119q0 -128 58.5 -197t154.5 -69q37 0 62.5 7.5t42 18t26 22t13.5 19.5v131
h-116v75h209v-220q-12 -21 -31.5 -44.5t-48.5 -43t-69.5 -32.5t-95.5 -13q-71 0 -129.5 22.5t-99.5 66.5t-63.5 110.5t-22.5 152.5zM188 763l139 110h46l140 -110l-24 -34l-139 72l-139 -72z" />
    <glyph glyph-name="gcircumflex" unicode="&#x11d;" horiz-adv-x="503" 
d="M51 321q0 74 51 121.5t140 47.5q46 0 87 -18.5t66 -52.5q4 44 21.5 57.5t34.5 13.5q30 0 41.5 -15t12.5 -33q1 -8 -0.5 -16t-3.5 -14h-17q0 12 -5 21.5t-20 9.5t-24.5 -14.5t-9.5 -49.5v-60v0q-2 -75 -50 -122t-133 -47q-19 0 -38 2.5t-36 7.5q-13 -6 -29 -19t-16 -35
q0 -26 26 -37.5t89 -11.5h48q93 0 142 -33.5t49 -104.5q0 -77 -61 -123t-180 -46q-105 0 -155 38t-50 101q0 16 4.5 28t8.5 21h36q-1 -6 -2.5 -14.5t-1.5 -16.5q0 -49 40 -71t117 -22q81 0 116.5 22t35.5 62q0 31 -27.5 47.5t-85.5 16.5h-60q-79 0 -117.5 25t-38.5 84
q0 39 27 64t52 38q-38 20 -61 57t-23 91zM337 317q0 47 -28 76.5t-69 29.5q-46 0 -73 -32t-27 -77q0 -55 29 -82t70 -27q43 0 70.5 30t27.5 82zM86 582l136 171h53l136 -171l-34 -32l-128 126l-129 -126z" />
    <glyph glyph-name="Gbreve" unicode="&#x11e;" horiz-adv-x="645" 
d="M40 342q0 88 26 155t69.5 111.5t101 67t119.5 22.5q66 0 110.5 -20.5t71 -49.5t36.5 -61t8 -56h-53q-2 9 -11.5 25.5t-28.5 32.5t-49 28t-72 12q-44 0 -84 -17.5t-69.5 -51.5t-47 -85t-17.5 -119q0 -128 58.5 -197t154.5 -69q37 0 62.5 7.5t42 18t26 22t13.5 19.5v131
h-116v75h209v-220q-12 -21 -31.5 -44.5t-48.5 -43t-69.5 -32.5t-95.5 -13q-71 0 -129.5 22.5t-99.5 66.5t-63.5 110.5t-22.5 152.5zM203 876h36q4 -23 26 -48t85 -25q60 0 83 25t27 48h36q2 -25 -5 -50.5t-24 -45.5t-46 -32.5t-71 -12.5t-71 12.5t-46.5 32.5t-24.5 45.5
t-5 50.5z" />
    <glyph glyph-name="gbreve" unicode="&#x11f;" horiz-adv-x="503" 
d="M51 321q0 74 51 121.5t140 47.5q46 0 87 -18.5t66 -52.5q4 44 21.5 57.5t34.5 13.5q30 0 41.5 -15t12.5 -33q1 -8 -0.5 -16t-3.5 -14h-17q0 12 -5 21.5t-20 9.5t-24.5 -14.5t-9.5 -49.5v-60v0q-2 -75 -50 -122t-133 -47q-19 0 -38 2.5t-36 7.5q-13 -6 -29 -19t-16 -35
q0 -26 26 -37.5t89 -11.5h48q93 0 142 -33.5t49 -104.5q0 -77 -61 -123t-180 -46q-105 0 -155 38t-50 101q0 16 4.5 28t8.5 21h36q-1 -6 -2.5 -14.5t-1.5 -16.5q0 -49 40 -71t117 -22q81 0 116.5 22t35.5 62q0 31 -27.5 47.5t-85.5 16.5h-60q-79 0 -117.5 25t-38.5 84
q0 39 27 64t52 38q-38 20 -61 57t-23 91zM337 317q0 47 -28 76.5t-69 29.5q-46 0 -73 -32t-27 -77q0 -55 29 -82t70 -27q43 0 70.5 30t27.5 82zM246 576q-43 0 -71.5 16t-45.5 40t-23 54t-4 58h37q1 -13 6 -29.5t16.5 -31.5t32 -25t52.5 -10t52.5 10t32 25t16.5 31.5t7 29.5
h36q2 -28 -4 -58t-23 -54t-45.5 -40t-71.5 -16z" />
    <glyph glyph-name="Gdotaccent" unicode="&#x120;" horiz-adv-x="645" 
d="M40 342q0 88 26 155t69.5 111.5t101 67t119.5 22.5q66 0 110.5 -20.5t71 -49.5t36.5 -61t8 -56h-53q-2 9 -11.5 25.5t-28.5 32.5t-49 28t-72 12q-44 0 -84 -17.5t-69.5 -51.5t-47 -85t-17.5 -119q0 -128 58.5 -197t154.5 -69q37 0 62.5 7.5t42 18t26 22t13.5 19.5v131
h-116v75h209v-220q-12 -21 -31.5 -44.5t-48.5 -43t-69.5 -32.5t-95.5 -13q-71 0 -129.5 22.5t-99.5 66.5t-63.5 110.5t-22.5 152.5zM297 749v98h107v-98h-107z" />
    <glyph glyph-name="gdotaccent" unicode="&#x121;" horiz-adv-x="503" 
d="M51 321q0 74 51 121.5t140 47.5q46 0 87 -18.5t66 -52.5q4 44 21.5 57.5t34.5 13.5q30 0 41.5 -15t12.5 -33q1 -8 -0.5 -16t-3.5 -14h-17q0 12 -5 21.5t-20 9.5t-24.5 -14.5t-9.5 -49.5v-60v0q-2 -75 -50 -122t-133 -47q-19 0 -38 2.5t-36 7.5q-13 -6 -29 -19t-16 -35
q0 -26 26 -37.5t89 -11.5h48q93 0 142 -33.5t49 -104.5q0 -77 -61 -123t-180 -46q-105 0 -155 38t-50 101q0 16 4.5 28t8.5 21h36q-1 -6 -2.5 -14.5t-1.5 -16.5q0 -49 40 -71t117 -22q81 0 116.5 22t35.5 62q0 31 -27.5 47.5t-85.5 16.5h-60q-79 0 -117.5 25t-38.5 84
q0 39 27 64t52 38q-38 20 -61 57t-23 91zM337 317q0 47 -28 76.5t-69 29.5q-46 0 -73 -32t-27 -77q0 -55 29 -82t70 -27q43 0 70.5 30t27.5 82zM192 612v98h107v-98h-107z" />
    <glyph glyph-name="Gcommaaccent" unicode="&#x122;" horiz-adv-x="645" 
d="M40 342q0 88 26 155t69.5 111.5t101 67t119.5 22.5q66 0 110.5 -20.5t71 -49.5t36.5 -61t8 -56h-53q-2 9 -11.5 25.5t-28.5 32.5t-49 28t-72 12q-44 0 -84 -17.5t-69.5 -51.5t-47 -85t-17.5 -119q0 -128 58.5 -197t154.5 -69q37 0 62.5 7.5t42 18t26 22t13.5 19.5v131
h-116v75h209v-220q-12 -21 -31.5 -44.5t-48.5 -43t-69.5 -32.5t-95.5 -13q-71 0 -129.5 22.5t-99.5 66.5t-63.5 110.5t-22.5 152.5zM282 -218l46 163h78l-75 -174z" />
    <glyph glyph-name="gcommaaccent" unicode="&#x123;" horiz-adv-x="503" 
d="M51 321q0 74 51 121.5t140 47.5q46 0 87 -18.5t66 -52.5q4 44 21.5 57.5t34.5 13.5q30 0 41.5 -15t12.5 -33q1 -8 -0.5 -16t-3.5 -14h-17q0 12 -5 21.5t-20 9.5t-24.5 -14.5t-9.5 -49.5v-60v0q-2 -75 -50 -122t-133 -47q-19 0 -38 2.5t-36 7.5q-13 -6 -29 -19t-16 -35
q0 -26 26 -37.5t89 -11.5h48q93 0 142 -33.5t49 -104.5q0 -77 -61 -123t-180 -46q-105 0 -155 38t-50 101q0 16 4.5 28t8.5 21h36q-1 -6 -2.5 -14.5t-1.5 -16.5q0 -49 40 -71t117 -22q81 0 116.5 22t35.5 62q0 31 -27.5 47.5t-85.5 16.5h-60q-79 0 -117.5 25t-38.5 84
q0 39 27 64t52 38q-38 20 -61 57t-23 91zM337 317q0 47 -28 76.5t-69 29.5q-46 0 -73 -32t-27 -77q0 -55 29 -82t70 -27q43 0 70.5 30t27.5 82zM217 564l72 172l49 -11l-45 -161h-76z" />
    <glyph glyph-name="Hcircumflex" unicode="&#x124;" horiz-adv-x="683" 
d="M80 690h103v-291h317v291h103v-690h-103v324h-317v-324h-103v690zM179 763l139 110h46l140 -110l-24 -34l-139 72l-139 -72z" />
    <glyph glyph-name="hcircumflex" unicode="&#x125;" horiz-adv-x="540" 
d="M125 807l-112 -79l-26 28l118 114h40l118 -114l-25 -28zM475 0h-97v255q0 80 -20.5 117t-74.5 37q-57 0 -84.5 -56t-28.5 -155v-198h-97v705l97 5v-376q12 63 47 109.5t108 46.5q87 0 118.5 -52t31.5 -138v-300z" />
    <glyph glyph-name="Hbar" unicode="&#x126;" horiz-adv-x="683" 
d="M80 690h103v-99h317v99h103v-99h70v-50h-70v-541h-103v324h-317v-324h-103v541h-70v50h70v99zM183 399h317v142h-317v-142z" />
    <glyph glyph-name="hbar" unicode="&#x127;" horiz-adv-x="540" 
d="M475 0h-97v255q0 80 -20.5 117t-74.5 37q-57 0 -84.5 -56t-28.5 -155v-198h-97v575h-60v47h60v83l97 5v-88h154v-47h-154v-241q12 63 47 109.5t108 46.5q87 0 118.5 -52t31.5 -138v-300z" />
    <glyph glyph-name="Itilde" unicode="&#x128;" horiz-adv-x="273" 
d="M85 690h103v-690h-103v690zM214 804q29 0 36.5 21.5t1.5 46.5h26q19 -55 0 -94t-73 -39q-28 0 -45 10.5t-30.5 23t-27.5 23t-36 10.5q-28 0 -36 -20.5t-2 -46.5h-26q-19 57 0.5 94.5t73.5 37.5q29 0 47 -10.5t31.5 -23t26.5 -23t33 -10.5z" />
    <glyph glyph-name="itilde" unicode="&#x129;" horiz-adv-x="250" 
d="M76 475l97 5v-480h-97v475zM-7 581q-22 66 -2 109t72 43q31 0 49 -13t31 -28t25.5 -28t33.5 -13q30 0 37 25.5t-1 57.5h26q21 -64 1.5 -108t-71.5 -44q-29 0 -46 13t-29.5 28t-26.5 28t-37 13q-30 0 -37.5 -25.5t0.5 -57.5h-25z" />
    <glyph glyph-name="Imacron" unicode="&#x12a;" horiz-adv-x="273" 
d="M24 838h225v-62h-225v62zM85 690h103v-690h-103v690z" />
    <glyph glyph-name="imacron" unicode="&#x12b;" horiz-adv-x="250" 
d="M76 475l97 5v-480h-97v475zM-11 710h276v-62h-276v62z" />
    <glyph glyph-name="Ibreve" unicode="&#x12c;" horiz-adv-x="273" 
d="M85 690h103v-690h-103v690zM-9 876h36q4 -23 26 -48t85 -25q60 0 83 25t27 48h36q2 -25 -5 -50.5t-24 -45.5t-46 -32.5t-71 -12.5t-71 12.5t-46.5 32.5t-24.5 45.5t-5 50.5z" />
    <glyph glyph-name="ibreve" unicode="&#x12d;" horiz-adv-x="250" 
d="M76 475l97 5v-480h-97v475zM128 576q-43 0 -71.5 16t-45.5 40t-23 54t-4 58h37q1 -13 6 -29.5t16.5 -31.5t32 -25t52.5 -10t52.5 10t32 25t16.5 31.5t7 29.5h36q2 -28 -4 -58t-23 -54t-45.5 -40t-71.5 -16z" />
    <glyph glyph-name="Iogonek" unicode="&#x12e;" horiz-adv-x="273" 
d="M56 -124q0 37 22 69t48 55h-41v690h103v-690h-1q-32 -13 -50.5 -46.5t-18.5 -68.5q0 -23 9 -35t30 -12q18 0 26.5 14t8.5 33h24q1 -38 -16.5 -65t-61.5 -27q-40 0 -61 21.5t-21 61.5z" />
    <glyph glyph-name="iogonek" unicode="&#x12f;" horiz-adv-x="250" 
d="M74 612v98h107v-98h-107zM49 -123q0 37 22.5 68.5t48.5 54.5h-44v475l97 5v-480q-27 -10 -45 -43.5t-18 -68.5q0 -23 9 -36.5t30 -13.5q19 0 27.5 14t8.5 33h23q2 -38 -15.5 -65t-62.5 -27q-40 0 -60.5 22t-20.5 62z" />
    <glyph glyph-name="Idotaccent" unicode="&#x130;" horiz-adv-x="273" 
d="M85 690h103v-690h-103v690zM83 749v98h107v-98h-107z" />
    <glyph glyph-name="dotlessi" unicode="&#x131;" horiz-adv-x="250" 
d="M76 475l97 5v-480h-97v475z" />
    <glyph glyph-name="IJ" unicode="&#x132;" horiz-adv-x="712" 
d="M85 690h103v-690h-103v690zM289 180h50q2 -39 24 -72t75 -33q60 0 81 45.5t21 123.5v446h102v-448q0 -54 -9 -100t-29.5 -80t-55 -53t-85.5 -19t-85 16t-53.5 42t-27.5 60.5t-8 71.5z" />
    <glyph glyph-name="ij" unicode="&#x133;" horiz-adv-x="521" 
d="M76 475l97 5v-480h-97v475zM74 612v98h107v-98h-107zM226 -133h30q3 -23 13 -36.5t33 -13.5t34.5 24t11.5 74v560l97 5v-528q0 -101 -28 -151.5t-94 -50.5q-31 0 -50 10.5t-29.5 27t-14 37.5t-3.5 42zM348 612v98h107v-98h-107z" />
    <glyph glyph-name="Jcircumflex" unicode="&#x134;" horiz-adv-x="438" 
d="M313 806l-108 -76l-25 29l110 114h45l110 -114l-25 -29zM15 180h50q2 -39 24 -72t75 -33q60 0 81 45.5t21 123.5v446h102v-448q0 -54 -9 -100t-29.5 -80t-55 -53t-85.5 -19t-85 16t-53.5 42t-27.5 60.5t-8 71.5z" />
    <glyph glyph-name="jcircumflex" unicode="&#x135;" horiz-adv-x="268" 
d="M-27 -133h30q3 -23 13 -36.5t33 -13.5t34.5 24t11.5 74v560l97 5v-528q0 -101 -28 -151.5t-94 -50.5q-31 0 -50 10.5t-29.5 27t-14 37.5t-3.5 42zM-22 582l136 171h53l136 -171l-34 -32l-128 126l-129 -126z" />
    <glyph glyph-name="Kcommaaccent" unicode="&#x136;" horiz-adv-x="606" 
d="M81 0v690h103v-323l282 323h94l-247 -282l280 -408h-128l-222 328l-59 -67v-261h-103zM233 -218l46 163h78l-75 -174z" />
    <glyph glyph-name="kcommaaccent" unicode="&#x137;" horiz-adv-x="497" 
d="M73 705l97 5v-424l194 189h95l-167 -160l192 -315h-113l-146 250l-55 -52v-198h-97v705zM188 -218l46 163h78l-75 -174z" />
    <glyph glyph-name="Lacute" unicode="&#x139;" horiz-adv-x="505" 
d="M80 690h103v-610h312v-77h-415v687zM101 757l165 118l54 -67l-193 -78z" />
    <glyph glyph-name="lacute" unicode="&#x13a;" horiz-adv-x="247" 
d="M75 705l97 5v-710h-97v705zM24 757l165 118l54 -67l-193 -78z" />
    <glyph glyph-name="Lcommaaccent" unicode="&#x13b;" horiz-adv-x="505" 
d="M80 690h103v-610h312v-77h-415v687zM223 -218l46 163h78l-75 -174z" />
    <glyph glyph-name="lcommaaccent" unicode="&#x13c;" horiz-adv-x="247" 
d="M75 705l97 5v-710h-97v705zM46 -218l46 163h78l-75 -174z" />
    <glyph glyph-name="Lcaron" unicode="&#x13d;" horiz-adv-x="505" 
d="M80 690h103v-610h312v-77h-415v687zM308 501l38 199h80l-62 -199h-56z" />
    <glyph glyph-name="lcaron" unicode="&#x13e;" horiz-adv-x="343" 
d="M75 705l97 5v-710h-97v705zM246 511l38 199h80l-62 -199h-56z" />
    <glyph glyph-name="Ldot" unicode="&#x13f;" horiz-adv-x="505" 
d="M80 690h103v-610h312v-77h-415v687zM326 319v98h107v-98h-107z" />
    <glyph glyph-name="ldot" unicode="&#x140;" horiz-adv-x="331" 
d="M75 705l97 5v-710h-97v705zM235 313v90h96v-90h-96z" />
    <glyph glyph-name="Lslash" unicode="&#x141;" horiz-adv-x="505" 
d="M15 176v78l65 44v392h103v-322l142 97v-78l-142 -97v-210h312v-77h-415v217z" />
    <glyph glyph-name="lslash" unicode="&#x142;" horiz-adv-x="247" 
d="M8 191v79l67 60v375l97 5v-294l67 60v-79l-67 -60v-337h-97v251z" />
    <glyph glyph-name="Nacute" unicode="&#x143;" horiz-adv-x="676" 
d="M596 690v-695h-83l-352 531v-526h-81v690h101l333 -507v507h82zM249 757l165 118l54 -67l-193 -78z" />
    <glyph glyph-name="nacute" unicode="&#x144;" horiz-adv-x="537" 
d="M472 0h-97v255q0 80 -20.5 117t-73.5 37q-57 0 -85.5 -56t-28.5 -155v-198h-97v475l84 5l10 -144v-5q10 66 45.5 112.5t112.5 46.5q87 0 118.5 -52t31.5 -138v-300zM200 584l136 182l61 -56l-157 -159z" />
    <glyph glyph-name="Ncommaaccent" unicode="&#x145;" horiz-adv-x="676" 
d="M596 690v-695h-83l-352 531v-526h-81v690h101l333 -507v507h82zM257 -218l46 163h78l-75 -174z" />
    <glyph glyph-name="ncommaaccent" unicode="&#x146;" horiz-adv-x="537" 
d="M472 0h-97v255q0 80 -20.5 117t-73.5 37q-57 0 -85.5 -56t-28.5 -155v-198h-97v475l84 5l10 -144v-5q10 66 45.5 112.5t112.5 46.5q87 0 118.5 -52t31.5 -138v-300zM190 -218l46 163h78l-75 -174z" />
    <glyph glyph-name="Ncaron" unicode="&#x147;" horiz-adv-x="676" 
d="M596 690v-695h-83l-352 531v-526h-81v690h101l333 -507v507h82zM191 839l24 34l139 -72l139 72l23 -34l-139 -110h-46z" />
    <glyph glyph-name="ncaron" unicode="&#x148;" horiz-adv-x="537" 
d="M472 0h-97v255q0 80 -20.5 117t-73.5 37q-57 0 -85.5 -56t-28.5 -155v-198h-97v475l84 5l10 -144v-5q10 66 45.5 112.5t112.5 46.5q87 0 118.5 -52t31.5 -138v-300zM121 730l36 28l126 -126l127 126l36 -28l-136 -173h-53z" />
    <glyph glyph-name="Eng" unicode="&#x14a;" horiz-adv-x="676" 
d="M426 -247q-46 0 -77.5 14t-49.5 37t-26 52t-8 60h49q1 -37 23 -65t72 -28q56 0 80.5 42.5t24.5 129.5l-353 533v-528h-81v690h101l333 -508v508h82v-695q-1 -110 -38 -176t-132 -66z" />
    <glyph glyph-name="eng" unicode="&#x14b;" horiz-adv-x="537" 
d="M350 -205q-30 0 -48.5 10.5t-28.5 26.5t-13.5 36.5t-3.5 39.5h25q1 -22 12 -34.5t37 -12.5q27 0 39.5 23t12.5 73q0 11 -1 32.5t-2.5 46.5t-2.5 51.5t-1 46.5v121q0 80 -20.5 117t-73.5 37q-57 0 -85.5 -56t-28.5 -155v-198h-97v475l84 5l9 -148q10 66 46.5 112t112.5 46
q87 0 118.5 -52t31.5 -138v-303q0 -101 -27.5 -151.5t-94.5 -50.5z" />
    <glyph glyph-name="Omacron" unicode="&#x14c;" horiz-adv-x="700" 
d="M40 344q0 82 23 148t64 111.5t98.5 70t126.5 24.5q59 0 115 -20.5t98.5 -62.5t68.5 -107.5t26 -154.5q0 -84 -21.5 -151.5t-61 -114t-97 -72t-128.5 -25.5q-63 0 -120 21.5t-99.5 65t-67.5 110.5t-25 157zM568 349q0 65 -17.5 113.5t-46 80.5t-65.5 48t-76 16
q-93 0 -153 -70t-60 -193q0 -70 18 -121t48 -84t68.5 -48.5t78.5 -15.5q43 0 80.5 17.5t65 52t43.5 86t16 118.5zM217 838h276v-62h-276v62z" />
    <glyph glyph-name="omacron" unicode="&#x14d;" horiz-adv-x="516" 
d="M40 239q0 116 61.5 183.5t157.5 67.5q46 0 85.5 -16.5t68.5 -48t46 -79t17 -109.5q0 -116 -58 -181.5t-159 -65.5q-47 0 -87.5 16t-69.5 47t-45.5 78t-16.5 108zM379 241q0 78 -31.5 125.5t-89.5 47.5q-55 0 -88 -46t-33 -127q0 -90 33 -136t89 -46q53 0 86.5 45
t33.5 137zM123 710h276v-62h-276v62z" />
    <glyph glyph-name="Obreve" unicode="&#x14e;" horiz-adv-x="700" 
d="M40 344q0 82 23 148t64 111.5t98.5 70t126.5 24.5q59 0 115 -20.5t98.5 -62.5t68.5 -107.5t26 -154.5q0 -84 -21.5 -151.5t-61 -114t-97 -72t-128.5 -25.5q-63 0 -120 21.5t-99.5 65t-67.5 110.5t-25 157zM568 349q0 65 -17.5 113.5t-46 80.5t-65.5 48t-76 16
q-93 0 -153 -70t-60 -193q0 -70 18 -121t48 -84t68.5 -48.5t78.5 -15.5q43 0 80.5 17.5t65 52t43.5 86t16 118.5zM205 876h36q4 -23 26 -48t85 -25q60 0 83 25t27 48h36q2 -25 -5 -50.5t-24 -45.5t-46 -32.5t-71 -12.5t-71 12.5t-46.5 32.5t-24.5 45.5t-5 50.5z" />
    <glyph glyph-name="obreve" unicode="&#x14f;" horiz-adv-x="516" 
d="M40 239q0 116 61.5 183.5t157.5 67.5q46 0 85.5 -16.5t68.5 -48t46 -79t17 -109.5q0 -116 -58 -181.5t-159 -65.5q-47 0 -87.5 16t-69.5 47t-45.5 78t-16.5 108zM379 241q0 78 -31.5 125.5t-89.5 47.5q-55 0 -88 -46t-33 -127q0 -90 33 -136t89 -46q53 0 86.5 45
t33.5 137zM262 576q-43 0 -71.5 16t-45.5 40t-23 54t-4 58h37q1 -13 6 -29.5t16.5 -31.5t32 -25t52.5 -10t52.5 10t32 25t16.5 31.5t7 29.5h36q2 -28 -4 -58t-23 -54t-45.5 -40t-71.5 -16z" />
    <glyph glyph-name="Ohungarumlaut" unicode="&#x150;" horiz-adv-x="700" 
d="M40 344q0 82 23 148t64 111.5t98.5 70t126.5 24.5q59 0 115 -20.5t98.5 -62.5t68.5 -107.5t26 -154.5q0 -84 -21.5 -151.5t-61 -114t-97 -72t-128.5 -25.5q-63 0 -120 21.5t-99.5 65t-67.5 110.5t-25 157zM568 349q0 65 -17.5 113.5t-46 80.5t-65.5 48t-76 16
q-93 0 -153 -70t-60 -193q0 -70 18 -121t48 -84t68.5 -48.5t78.5 -15.5q43 0 80.5 17.5t65 52t43.5 86t16 118.5zM237 752l128 120l43 -46l-136 -109zM397 752l128 120l43 -46l-136 -109z" />
    <glyph glyph-name="ohungarumlaut" unicode="&#x151;" horiz-adv-x="516" 
d="M40 239q0 116 61.5 183.5t157.5 67.5q46 0 85.5 -16.5t68.5 -48t46 -79t17 -109.5q0 -116 -58 -181.5t-159 -65.5q-47 0 -87.5 16t-69.5 47t-45.5 78t-16.5 108zM379 241q0 78 -31.5 125.5t-89.5 47.5q-55 0 -88 -46t-33 -127q0 -90 33 -136t89 -46q53 0 86.5 45
t33.5 137zM133 577l83 186l64 -26l-99 -183zM303 577l89 183l61 -30l-102 -176z" />
    <glyph glyph-name="OE" unicode="&#x152;" horiz-adv-x="963" 
d="M40 344q0 82 21.5 148t60.5 111.5t94 70t120 24.5q61 0 115 -26t92 -78v94h372v-75h-280v-213h230v-75h-230v-247h288v-75h-380v97q-35 -51 -87.5 -80.5t-119.5 -29.5q-60 0 -114.5 21.5t-94.5 65t-63.5 110.5t-23.5 157zM541 349q0 64 -16 112.5t-43 80.5t-62.5 48
t-75.5 16q-86 0 -140.5 -70t-54.5 -192q0 -70 16.5 -121t44 -84t62.5 -48.5t72 -15.5q85 0 141 68t56 206z" />
    <glyph glyph-name="oe" unicode="&#x153;" horiz-adv-x="813" 
d="M40 239q0 116 61.5 183.5t157.5 67.5q57 0 101.5 -26t69.5 -76q25 47 64.5 74.5t90.5 27.5q48 0 81 -14t53 -37t29 -52t9 -58q0 -18 -2.5 -43l-3.5 -35h-280v-1v-17q0 -82 34.5 -128.5t107.5 -46.5q60 0 94 31t36 80h30q0 -76 -48.5 -127.5t-135.5 -51.5q-59 0 -100.5 22
t-64.5 65q-25 -41 -66.5 -64t-98.5 -23q-47 0 -87.5 16t-69.5 47t-45.5 78t-16.5 108zM379 241q0 78 -31.5 125.5t-89.5 47.5q-55 0 -88 -46t-33 -127q0 -90 33 -136t89 -46q53 0 86.5 45t33.5 137zM591 414q-45 0 -75.5 -30t-40.5 -86h202q1 2 1.5 10.5t0.5 18.5
q0 13 -3 28.5t-12 28.5t-26.5 21.5t-46.5 8.5z" />
    <glyph glyph-name="Racute" unicode="&#x154;" horiz-adv-x="607" 
d="M591 33q-13 -18 -32.5 -29t-47.5 -11q-64 0 -85 40t-26 143q-4 70 -32.5 97t-88.5 27h-96v-300h-103v690h223q51 0 94.5 -10.5t74.5 -32t49 -55.5t18 -80q0 -81 -48.5 -122t-117.5 -52q61 -7 98.5 -43.5t39.5 -113.5q3 -81 10.5 -107.5t35.5 -26.5q7 0 14 2t11 5z
M285 615h-102v-243h94q29 0 57.5 6t51.5 20t37 37.5t14 57.5q0 64 -43.5 93t-108.5 29zM193 757l165 118l54 -67l-193 -78z" />
    <glyph glyph-name="racute" unicode="&#x155;" horiz-adv-x="409" 
d="M70 475l82 5l8 -145q5 31 14.5 59t25 49.5t38.5 34t54 12.5q29 0 48.5 -12.5t31 -31t16.5 -40t5 -39.5q0 -16 -2 -27t-5 -21h-41q0 11 -1 23t-5 22q-6 19 -20.5 31.5t-41.5 12.5q-63 0 -86.5 -62.5t-23.5 -168.5v-177h-97v475zM156 584l136 182l61 -56l-157 -159z" />
    <glyph glyph-name="Rcommaaccent" unicode="&#x156;" horiz-adv-x="607" 
d="M591 33q-13 -18 -32.5 -29t-47.5 -11q-64 0 -85 40t-26 143q-4 70 -32.5 97t-88.5 27h-96v-300h-103v690h223q51 0 94.5 -10.5t74.5 -32t49 -55.5t18 -80q0 -81 -48.5 -122t-117.5 -52q61 -7 98.5 -43.5t39.5 -113.5q3 -81 10.5 -107.5t35.5 -26.5q7 0 14 2t11 5z
M285 615h-102v-243h94q29 0 57.5 6t51.5 20t37 37.5t14 57.5q0 64 -43.5 93t-108.5 29zM231 -218l46 163h78l-75 -174z" />
    <glyph glyph-name="rcommaaccent" unicode="&#x157;" horiz-adv-x="409" 
d="M70 475l82 5l8 -145q5 31 14.5 59t25 49.5t38.5 34t54 12.5q29 0 48.5 -12.5t31 -31t16.5 -40t5 -39.5q0 -16 -2 -27t-5 -21h-41q0 11 -1 23t-5 22q-6 19 -20.5 31.5t-41.5 12.5q-63 0 -86.5 -62.5t-23.5 -168.5v-177h-97v475zM40 -218l46 163h78l-75 -174z" />
    <glyph glyph-name="Rcaron" unicode="&#x158;" horiz-adv-x="607" 
d="M591 33q-13 -18 -32.5 -29t-47.5 -11q-64 0 -85 40t-26 143q-4 70 -32.5 97t-88.5 27h-96v-300h-103v690h223q51 0 94.5 -10.5t74.5 -32t49 -55.5t18 -80q0 -81 -48.5 -122t-117.5 -52q61 -7 98.5 -43.5t39.5 -113.5q3 -81 10.5 -107.5t35.5 -26.5q7 0 14 2t11 5z
M285 615h-102v-243h94q29 0 57.5 6t51.5 20t37 37.5t14 57.5q0 64 -43.5 93t-108.5 29zM137 839l24 34l139 -72l139 72l23 -34l-139 -110h-46z" />
    <glyph glyph-name="rcaron" unicode="&#x159;" horiz-adv-x="409" 
d="M70 475l82 5l8 -145q5 31 14.5 59t25 49.5t38.5 34t54 12.5q29 0 48.5 -12.5t31 -31t16.5 -40t5 -39.5q0 -16 -2 -27t-5 -21h-41q0 11 -1 23t-5 22q-6 19 -20.5 31.5t-41.5 12.5q-63 0 -86.5 -62.5t-23.5 -168.5v-177h-97v475zM66 730l36 28l126 -126l127 126l36 -28
l-136 -173h-53z" />
    <glyph glyph-name="Sacute" unicode="&#x15a;" horiz-adv-x="553" 
d="M38 204h55q3 -37 18.5 -63.5t38 -43t52 -24t60.5 -7.5q59 0 100.5 24.5t41.5 86.5q0 59 -44.5 85.5t-120.5 48.5q-80 23 -129 67t-49 129q0 90 62.5 140.5t159.5 50.5q101 0 159.5 -51t51.5 -141h-54q-4 57 -45.5 87t-98.5 30t-93 -27t-36 -81q0 -51 43.5 -76.5
t115.5 -45.5q87 -25 137.5 -71.5t50.5 -133.5q0 -48 -18.5 -85t-50 -62t-75 -38t-92.5 -13q-110 0 -175 54t-65 160zM196 757l165 118l54 -67l-193 -78z" />
    <glyph glyph-name="sacute" unicode="&#x15b;" horiz-adv-x="441" 
d="M38 154h42q9 -52 40.5 -81t85.5 -29q40 0 70 15.5t30 55.5q0 34 -22.5 52t-79.5 32q-72 19 -111 51.5t-39 95.5q0 66 48.5 105t126.5 39q75 0 119 -38t37 -104h-44q-2 33 -27.5 58.5t-74.5 25.5q-40 0 -65.5 -16t-25.5 -53q0 -35 27 -50t88 -31q76 -20 108 -56t32 -90
q0 -67 -50.5 -106.5t-131.5 -39.5q-92 0 -137.5 43.5t-45.5 120.5zM151 584l136 182l61 -56l-157 -159z" />
    <glyph glyph-name="Scircumflex" unicode="&#x15c;" horiz-adv-x="553" 
d="M38 204h55q3 -37 18.5 -63.5t38 -43t52 -24t60.5 -7.5q59 0 100.5 24.5t41.5 86.5q0 59 -44.5 85.5t-120.5 48.5q-80 23 -129 67t-49 129q0 90 62.5 140.5t159.5 50.5q101 0 159.5 -51t51.5 -141h-54q-4 57 -45.5 87t-98.5 30t-93 -27t-36 -81q0 -51 43.5 -76.5
t115.5 -45.5q87 -25 137.5 -71.5t50.5 -133.5q0 -48 -18.5 -85t-50 -62t-75 -38t-92.5 -13q-110 0 -175 54t-65 160zM118 763l139 110h46l140 -110l-24 -34l-139 72l-139 -72z" />
    <glyph glyph-name="scircumflex" unicode="&#x15d;" horiz-adv-x="441" 
d="M38 154h42q9 -52 40.5 -81t85.5 -29q40 0 70 15.5t30 55.5q0 34 -22.5 52t-79.5 32q-72 19 -111 51.5t-39 95.5q0 66 48.5 105t126.5 39q75 0 119 -38t37 -104h-44q-2 33 -27.5 58.5t-74.5 25.5q-40 0 -65.5 -16t-25.5 -53q0 -35 27 -50t88 -31q76 -20 108 -56t32 -90
q0 -67 -50.5 -106.5t-131.5 -39.5q-92 0 -137.5 43.5t-45.5 120.5zM63 582l136 171h53l136 -171l-34 -32l-128 126l-129 -126z" />
    <glyph glyph-name="Scedilla" unicode="&#x15e;" horiz-adv-x="553" 
d="M38 204h55q3 -37 18.5 -63.5t38 -43t52 -24t60.5 -7.5q59 0 100.5 24.5t41.5 86.5q0 59 -44.5 85.5t-120.5 48.5q-80 23 -129 67t-49 129q0 90 62.5 140.5t159.5 50.5q101 0 159.5 -51t51.5 -141h-54q-4 57 -45.5 87t-98.5 30t-93 -27t-36 -81q0 -51 43.5 -76.5
t115.5 -45.5q87 -25 137.5 -71.5t50.5 -133.5q0 -48 -18.5 -85t-50 -62t-75 -38t-92.5 -13q-110 0 -175 54t-65 160zM225 -115h24q-1 -22 7.5 -32.5t28.5 -10.5q15 0 24.5 10t9.5 29q0 27 -16 36t-42 4l-19 10l20 73l31 -4l-7 -46q41 6 68.5 -12t27.5 -61q0 -40 -23.5 -60
t-59.5 -20q-45 0 -61.5 25t-12.5 59z" />
    <glyph glyph-name="scedilla" unicode="&#x15f;" horiz-adv-x="441" 
d="M38 154h42q9 -52 40.5 -81t85.5 -29q40 0 70 15.5t30 55.5q0 34 -22.5 52t-79.5 32q-72 19 -111 51.5t-39 95.5q0 66 48.5 105t126.5 39q75 0 119 -38t37 -104h-44q-2 33 -27.5 58.5t-74.5 25.5q-40 0 -65.5 -16t-25.5 -53q0 -35 27 -50t88 -31q76 -20 108 -56t32 -90
q0 -67 -50.5 -106.5t-131.5 -39.5q-92 0 -137.5 43.5t-45.5 120.5zM165 -115h24q-1 -22 7.5 -32.5t28.5 -10.5q15 0 24.5 10t9.5 29q0 27 -16 36t-42 4l-19 10l20 73l31 -4l-7 -46q41 6 68.5 -12t27.5 -61q0 -40 -23.5 -60t-59.5 -20q-45 0 -61.5 25t-12.5 59z" />
    <glyph glyph-name="Scaron" unicode="&#x160;" horiz-adv-x="553" 
d="M38 204h55q3 -37 18.5 -63.5t38 -43t52 -24t60.5 -7.5q59 0 100.5 24.5t41.5 86.5q0 59 -44.5 85.5t-120.5 48.5q-80 23 -129 67t-49 129q0 90 62.5 140.5t159.5 50.5q101 0 159.5 -51t51.5 -141h-54q-4 57 -45.5 87t-98.5 30t-93 -27t-36 -81q0 -51 43.5 -76.5
t115.5 -45.5q87 -25 137.5 -71.5t50.5 -133.5q0 -48 -18.5 -85t-50 -62t-75 -38t-92.5 -13q-110 0 -175 54t-65 160zM113 839l24 34l139 -72l139 72l23 -34l-139 -110h-46z" />
    <glyph glyph-name="scaron" unicode="&#x161;" horiz-adv-x="441" 
d="M38 154h42q9 -52 40.5 -81t85.5 -29q40 0 70 15.5t30 55.5q0 34 -22.5 52t-79.5 32q-72 19 -111 51.5t-39 95.5q0 66 48.5 105t126.5 39q75 0 119 -38t37 -104h-44q-2 33 -27.5 58.5t-74.5 25.5q-40 0 -65.5 -16t-25.5 -53q0 -35 27 -50t88 -31q76 -20 108 -56t32 -90
q0 -67 -50.5 -106.5t-131.5 -39.5q-92 0 -137.5 43.5t-45.5 120.5zM60 730l36 28l126 -126l127 126l36 -28l-136 -173h-53z" />
    <glyph glyph-name="Tcedilla" unicode="&#x162;" horiz-adv-x="553" 
d="M328 0h-103v611h-225v77h553v-77h-225v-611zM213 -115h24q-1 -22 7.5 -32.5t28.5 -10.5q15 0 24.5 10t9.5 29q0 27 -16 36t-42 4l-19 10l20 73l31 -4l-7 -46q41 6 68.5 -12t27.5 -61q0 -40 -23.5 -60t-59.5 -20q-45 0 -61.5 25t-12.5 59z" />
    <glyph glyph-name="tcedilla" unicode="&#x163;" horiz-adv-x="346" 
d="M82 145v283h-77v37l77 10v113l97 7v-120h129v-47h-129v-297q0 -33 12 -54t47 -21q29 0 42.5 13t13.5 35h25q0 -54 -25.5 -84t-84.5 -30q-66 0 -96.5 37t-30.5 118zM135 -115h24q-1 -22 7.5 -32.5t28.5 -10.5q15 0 24.5 10t9.5 29q0 27 -16 36t-42 4l-19 10l20 73l31 -4
l-7 -46q41 6 68.5 -12t27.5 -61q0 -40 -23.5 -60t-59.5 -20q-45 0 -61.5 25t-12.5 59z" />
    <glyph glyph-name="Tcaron" unicode="&#x164;" horiz-adv-x="553" 
d="M328 0h-103v611h-225v77h553v-77h-225v-611zM114 839l24 34l139 -72l139 72l23 -34l-139 -110h-46z" />
    <glyph glyph-name="tcaron" unicode="&#x165;" horiz-adv-x="351" 
d="M280 526l37 184h80l-62 -184h-55zM82 145v283h-77v37l77 10v113l97 7v-120h129v-47h-129v-297q0 -33 12 -54t47 -21q29 0 42.5 13t13.5 35h25q0 -54 -25.5 -84t-84.5 -30q-66 0 -96.5 37t-30.5 118z" />
    <glyph glyph-name="Tbar" unicode="&#x166;" horiz-adv-x="553" 
d="M328 0h-103v312h-128v50h128v249h-225v77h553v-77h-225v-249h128v-50h-128v-312z" />
    <glyph glyph-name="tbar" unicode="&#x167;" horiz-adv-x="351" 
d="M85 145v93h-70v47h70v143h-77v37l77 10v113l97 7v-120h129v-47h-129v-143h122v-47h-122v-107q0 -33 12 -54t47 -21q29 0 42.5 13t13.5 35h25q0 -54 -25.5 -84t-84.5 -30q-66 0 -96.5 37t-30.5 118z" />
    <glyph glyph-name="Utilde" unicode="&#x168;" horiz-adv-x="658" 
d="M70 313v377h110v-358q0 -114 34 -184t135 -70q49 0 80 18t48.5 50t24 78.5t6.5 103.5v362h80v-371q0 -70 -12.5 -130.5t-41.5 -104.5t-77 -69t-119 -25q-81 0 -133.5 25t-82 68.5t-41 102.5t-11.5 127zM422 804q29 0 36.5 21.5t1.5 46.5h26q19 -55 0 -94t-73 -39
q-28 0 -45 10.5t-30.5 23t-27.5 23t-36 10.5q-28 0 -36 -20.5t-2 -46.5h-26q-19 57 0.5 94.5t73.5 37.5q29 0 47 -10.5t31.5 -23t26.5 -23t33 -10.5z" />
    <glyph glyph-name="utilde" unicode="&#x169;" horiz-adv-x="537" 
d="M373 130l-1 11q-12 -62 -47.5 -106.5t-109.5 -44.5q-87 0 -118.5 52t-31.5 138v295l97 5v-255q0 -80 20.5 -116.5t74.5 -36.5q57 0 85 56t28 155v192l97 5v-480h-89zM138 581q-22 66 -2 109t72 43q31 0 49 -13t31 -28t25.5 -28t33.5 -13q30 0 37 25.5t-1 57.5h26
q21 -64 1.5 -108t-71.5 -44q-29 0 -46 13t-29.5 28t-26.5 28t-37 13q-30 0 -37.5 -25.5t0.5 -57.5h-25z" />
    <glyph glyph-name="Umacron" unicode="&#x16a;" horiz-adv-x="658" 
d="M70 313v377h110v-358q0 -114 34 -184t135 -70q49 0 80 18t48.5 50t24 78.5t6.5 103.5v362h80v-371q0 -70 -12.5 -130.5t-41.5 -104.5t-77 -69t-119 -25q-81 0 -133.5 25t-82 68.5t-41 102.5t-11.5 127zM207 838h276v-62h-276v62z" />
    <glyph glyph-name="umacron" unicode="&#x16b;" horiz-adv-x="537" 
d="M373 130l-1 11q-12 -62 -47.5 -106.5t-109.5 -44.5q-87 0 -118.5 52t-31.5 138v295l97 5v-255q0 -80 20.5 -116.5t74.5 -36.5q57 0 85 56t28 155v192l97 5v-480h-89zM132 710h276v-62h-276v62z" />
    <glyph glyph-name="Ubreve" unicode="&#x16c;" horiz-adv-x="658" 
d="M70 313v377h110v-358q0 -114 34 -184t135 -70q49 0 80 18t48.5 50t24 78.5t6.5 103.5v362h80v-371q0 -70 -12.5 -130.5t-41.5 -104.5t-77 -69t-119 -25q-81 0 -133.5 25t-82 68.5t-41 102.5t-11.5 127zM200 876h36q4 -23 26 -48t85 -25q60 0 83 25t27 48h36
q2 -25 -5 -50.5t-24 -45.5t-46 -32.5t-71 -12.5t-71 12.5t-46.5 32.5t-24.5 45.5t-5 50.5z" />
    <glyph glyph-name="ubreve" unicode="&#x16d;" horiz-adv-x="537" 
d="M373 130l-1 11q-12 -62 -47.5 -106.5t-109.5 -44.5q-87 0 -118.5 52t-31.5 138v295l97 5v-255q0 -80 20.5 -116.5t74.5 -36.5q57 0 85 56t28 155v192l97 5v-480h-89zM276 576q-43 0 -71.5 16t-45.5 40t-23 54t-4 58h37q1 -13 6 -29.5t16.5 -31.5t32 -25t52.5 -10t52.5 10
t32 25t16.5 31.5t7 29.5h36q2 -28 -4 -58t-23 -54t-45.5 -40t-71.5 -16z" />
    <glyph glyph-name="Uring" unicode="&#x16e;" horiz-adv-x="658" 
d="M70 313v377h110v-358q0 -114 34 -184t135 -70q49 0 80 18t48.5 50t24 78.5t6.5 103.5v362h80v-371q0 -70 -12.5 -130.5t-41.5 -104.5t-77 -69t-119 -25q-81 0 -133.5 25t-82 68.5t-41 102.5t-11.5 127zM243 815q0 43 29.5 72t75.5 29q48 0 77 -29t29 -72q0 -42 -29 -71
t-77 -29q-46 0 -75.5 29t-29.5 71zM400 808q0 22 -14.5 37.5t-36.5 15.5q-23 0 -37.5 -15.5t-14.5 -37.5t14.5 -37t37.5 -15q22 0 36.5 15t14.5 37z" />
    <glyph glyph-name="uring" unicode="&#x16f;" horiz-adv-x="537" 
d="M373 130l-1 11q-12 -62 -47.5 -106.5t-109.5 -44.5q-87 0 -118.5 52t-31.5 138v295l97 5v-255q0 -80 20.5 -116.5t74.5 -36.5q57 0 85 56t28 155v192l97 5v-480h-89zM164 682q0 44 30.5 74t77.5 30q50 0 80 -30t30 -74q0 -43 -30 -73.5t-80 -30.5q-48 0 -78 30.5
t-30 73.5zM328 675q0 25 -15.5 41.5t-39.5 16.5q-25 0 -40.5 -16.5t-15.5 -41.5q0 -24 15.5 -40t40.5 -16q24 0 39.5 16t15.5 40z" />
    <glyph glyph-name="Uhungarumlaut" unicode="&#x170;" horiz-adv-x="658" 
d="M70 313v377h110v-358q0 -114 34 -184t135 -70q49 0 80 18t48.5 50t24 78.5t6.5 103.5v362h80v-371q0 -70 -12.5 -130.5t-41.5 -104.5t-77 -69t-119 -25q-81 0 -133.5 25t-82 68.5t-41 102.5t-11.5 127zM220 752l128 120l43 -46l-136 -109zM380 752l128 120l43 -46
l-136 -109z" />
    <glyph glyph-name="uhungarumlaut" unicode="&#x171;" horiz-adv-x="537" 
d="M373 130l-1 11q-12 -62 -47.5 -106.5t-109.5 -44.5q-87 0 -118.5 52t-31.5 138v295l97 5v-255q0 -80 20.5 -116.5t74.5 -36.5q57 0 85 56t28 155v192l97 5v-480h-89zM148 577l83 186l64 -26l-99 -183zM318 577l89 183l61 -30l-102 -176z" />
    <glyph glyph-name="Uogonek" unicode="&#x172;" horiz-adv-x="658" 
d="M70 313v377h110v-358q0 -114 34 -184t135 -70q49 0 80 18t48.5 50t24 78.5t6.5 103.5v362h80v-371q0 -70 -12.5 -130.5t-41.5 -104.5t-77 -69t-119 -25q-81 0 -133.5 25t-82 68.5t-41 102.5t-11.5 127zM378 -123q0 31 12.5 57.5t32 50t43.5 45.5t46 44l11 -4
q-31 -40 -53.5 -90t-22.5 -94q0 -21 8 -33t29 -12q16 0 24.5 12.5t8.5 31.5h27q1 -38 -16.5 -65t-61.5 -27q-40 0 -64 19t-24 65z" />
    <glyph glyph-name="uogonek" unicode="&#x173;" horiz-adv-x="537" 
d="M313 -133q0 43 27.5 75.5t64.5 57.5h-27l-5 130l-1 11q-12 -62 -47.5 -106.5t-109.5 -44.5q-87 0 -118.5 52t-31.5 138v295l97 5v-255q0 -80 20.5 -116.5t74.5 -36.5q57 0 85 56t28 155v192l97 5v-480q-37 -12 -65 -45t-28 -77q0 -14 7 -27t28 -13q19 0 27 14t8 33h23
q2 -38 -15 -65t-62 -27q-40 0 -58.5 21.5t-18.5 52.5z" />
    <glyph glyph-name="Wcircumflex" unicode="&#x174;" horiz-adv-x="928" 
d="M13 690h112l150 -564l174 561h76l165 -555l147 558h87l-188 -693h-108l-156 498l-159 -498h-108zM329 763l139 110h46l140 -110l-24 -34l-139 72l-139 -72z" />
    <glyph glyph-name="wcircumflex" unicode="&#x175;" horiz-adv-x="705" 
d="M10 475h104l106 -353l111 324h67l113 -324l105 353h79l-144 -475h-89l-113 313l-113 -313h-80zM211 582l136 171h53l136 -171l-34 -32l-128 126l-129 -126z" />
    <glyph glyph-name="Ycircumflex" unicode="&#x176;" horiz-adv-x="551" 
d="M333 285v-285h-103v288l-233 402h127l176 -310l174 310h86zM134 763l139 110h46l140 -110l-24 -34l-139 72l-139 -72z" />
    <glyph glyph-name="ycircumflex" unicode="&#x177;" horiz-adv-x="464" 
d="M17 -139h25q0 -18 12 -31.5t40 -13.5t44.5 21t32.5 67l32 85l-195 486h104l141 -348l117 348h86l-230 -615q-24 -62 -55.5 -86t-63.5 -24q-36 0 -54.5 13t-26.5 31t-8.5 37t-0.5 30zM84 582l136 171h53l136 -171l-34 -32l-128 126l-129 -126z" />
    <glyph glyph-name="Ydieresis" unicode="&#x178;" horiz-adv-x="551" 
d="M333 285v-285h-103v288l-233 402h127l176 -310l174 310h86zM159 750v94h93v-94h-93zM333 750v94h93v-94h-93z" />
    <glyph glyph-name="Zacute" unicode="&#x179;" horiz-adv-x="553" 
d="M40 72l339 541h-323v75h449v-69l-341 -541h349v-75h-473v69zM202 755l165 118l54 -67l-193 -78z" />
    <glyph glyph-name="zacute" unicode="&#x17a;" horiz-adv-x="429" 
d="M35 53l250 352h-234v70h340v-65l-240 -340h243v-70h-359v53zM146 584l136 182l61 -56l-157 -159z" />
    <glyph glyph-name="Zdotaccent" unicode="&#x17b;" horiz-adv-x="553" 
d="M40 72l339 541h-323v75h449v-69l-341 -541h349v-75h-473v69zM230 749v98h107v-98h-107z" />
    <glyph glyph-name="zdotaccent" unicode="&#x17c;" horiz-adv-x="429" 
d="M35 53l250 352h-234v70h340v-65l-240 -340h243v-70h-359v53zM173 612v98h107v-98h-107z" />
    <glyph glyph-name="Zcaron" unicode="&#x17d;" horiz-adv-x="553" 
d="M40 72l339 541h-323v75h449v-69l-341 -541h349v-75h-473v69zM125 839l24 34l139 -72l139 72l23 -34l-139 -110h-46z" />
    <glyph glyph-name="zcaron" unicode="&#x17e;" horiz-adv-x="429" 
d="M35 53l250 352h-234v70h340v-65l-240 -340h243v-70h-359v53zM67 730l36 28l126 -126l127 126l36 -28l-136 -173h-53z" />
    <glyph glyph-name="Schwa" unicode="&#x18f;" horiz-adv-x="686" 
d="M635 349q0 -85 -23 -152t-64 -113t-98 -70.5t-125 -24.5q-80 0 -131 26.5t-79 65.5t-38 85t-10 86q0 16 1.5 38t2.5 33h455v4.5v4.5v21q-1 66 -18.5 114.5t-46.5 79t-67.5 45t-80.5 14.5q-43 0 -75.5 -10.5t-56.5 -26.5t-39.5 -36.5t-24.5 -39.5h-47q8 52 31.5 91t58 64
t79 37.5t93.5 12.5q65 0 121 -22.5t96 -66.5t63 -109.5t23 -150.5zM327 74q72 0 124 45t68 134h-351q-1 -12 1 -41.5t17 -60t48 -54t93 -23.5z" />
    <glyph glyph-name="florin" unicode="&#x192;" horiz-adv-x="585" 
d="M270 481q6 38 17.5 74.5t31.5 64t50 44t73 16.5q54 0 80 -27t29 -51l-30 -19q-6 10 -20.5 20t-40.5 10q-49 0 -69 -43.5t-32 -119.5l-7 -42h114v-57h-123l-45 -272q-6 -38 -18 -74.5t-31.5 -64t-50 -44t-73.5 -16.5q-54 0 -80.5 27t-29.5 50l29 20q6 -9 21.5 -19.5
t41.5 -10.5q50 0 69 44t32 120l40 240h-92v57h102z" />
    <glyph glyph-name="Aringacute" unicode="&#x1fa;" horiz-adv-x="620" 
d="M100 0h-85l246 691h107l232 -691h-121l-58 185h-257zM189 260h209l-100 317zM207 750q0 43 29.5 72t75.5 29q48 0 77 -29t29 -72q0 -42 -29 -71t-77 -29q-46 0 -75.5 29t-29.5 71zM364 743q0 22 -14.5 37.5t-36.5 15.5q-23 0 -37.5 -15.5t-14.5 -37.5t14.5 -37t37.5 -15
q22 0 36.5 15t14.5 37zM209 879l165 118l54 -67l-193 -78z" />
    <glyph glyph-name="aringacute" unicode="&#x1fb;" horiz-adv-x="480" 
d="M38 115q0 57 40 100.5t135 43.5q24 0 51.5 -5.5t45.5 -13.5v66q0 57 -26 85t-76 28q-49 0 -76.5 -28.5t-32.5 -66.5h-38q0 33 9.5 63.5t30 53t53.5 36t79 13.5q86 0 127.5 -45t41.5 -121v-190q0 -61 12.5 -79.5t29.5 -18.5q4 0 9 1.5t9 4.5l9 -17q-7 -13 -25 -23t-41 -10
q-40 0 -64.5 17.5t-29.5 66.5q-19 -36 -54 -61t-90 -25q-63 0 -96 36t-33 89zM134 123q0 -34 18.5 -52t52.5 -18q28 0 48 13t32.5 33.5t18.5 46t6 51.5v5q-13 4 -33 7.5t-40 3.5q-53 0 -78 -24.5t-25 -65.5zM132 637q0 44 30.5 74t77.5 30q50 0 80 -30t30 -74
q0 -43 -30 -73.5t-80 -30.5q-48 0 -78 30.5t-30 73.5zM296 630q0 25 -15.5 41.5t-39.5 16.5q-25 0 -40.5 -16.5t-15.5 -41.5q0 -24 15.5 -40t40.5 -16q24 0 39.5 16t15.5 40zM148 810l165 118l54 -67l-193 -78z" />
    <glyph glyph-name="AEacute" unicode="&#x1fc;" horiz-adv-x="835" 
d="M737 303h-220v-225h278v-75h-380v232h-187l-138 -235h-90l413 688h374v-75h-270v-235h220v-75zM272 310h143v242zM495 757l165 118l54 -67l-193 -78z" />
    <glyph glyph-name="aeacute" unicode="&#x1fd;" horiz-adv-x="746" 
d="M706 169q0 -76 -48 -127.5t-135 -51.5q-62 0 -105.5 23.5t-68.5 68.5q-25 -38 -68.5 -65t-101.5 -27q-72 0 -106.5 34.5t-34.5 87.5q0 57 40 100.5t135 43.5q24 0 51.5 -6t45.5 -13v69q0 54 -26 84.5t-83 30.5q-54 0 -80.5 -29t-30.5 -68h-29q0 33 9 63.5t29 53t51.5 36
t75.5 13.5q56 0 90.5 -22t51.5 -59q25 37 64.5 59t90.5 22q46 0 78 -14t51.5 -37t28.5 -52t9 -58q0 -18 -2 -43t-4 -35h-280v-1v-17q0 -82 35 -128.5t107 -46.5q60 0 94 31t36 80h30zM524 414q-44 0 -75 -30t-41 -86h203q0 2 1 10.5t1 18.5q0 13 -3 28.5t-12.5 28.5
t-27 21.5t-46.5 8.5zM205 53q28 0 48 12.5t32.5 33t18.5 46.5t6 52v5q-13 4 -33.5 7.5t-39.5 3.5q-53 0 -80 -24.5t-27 -65.5q0 -34 20.5 -52t54.5 -18zM371 584l136 182l61 -56l-157 -159z" />
    <glyph glyph-name="Oslashacute" unicode="&#x1fe;" horiz-adv-x="700" 
d="M40 344q0 82 23 148t64 111.5t98.5 70t126.5 24.5q50 0 98 -14.5t88 -44.5l43 56h80l-77 -101q35 -42 55.5 -102t20.5 -139q0 -84 -21.5 -151.5t-61 -114t-97 -72t-128.5 -25.5q-52 0 -100 14.5t-87 43.5l-43 -56h-82l78 101q-37 43 -57.5 106t-20.5 145zM150 344
q0 -51 10 -91t26 -71l295 383q-25 21 -56 31.5t-62 10.5q-93 0 -153 -70t-60 -193zM568 349q0 53 -12 95t-31 73l-299 -389q29 -27 64.5 -40t72.5 -13q43 0 80.5 17.5t65 52t43.5 86t16 118.5zM262 757l165 118l54 -67l-193 -78z" />
    <glyph glyph-name="oslashacute" unicode="&#x1ff;" horiz-adv-x="519" 
d="M40 239q0 116 61.5 183.5t157.5 67.5q37 0 70.5 -11t61.5 -32l29 38h59l-55 -72q25 -31 38.5 -75.5t13.5 -100.5q0 -116 -58 -181.5t-159 -65.5q-37 0 -69.5 9.5t-59.5 28.5l-27 -36h-60l52 68q-26 31 -40.5 76.5t-14.5 102.5zM137 241q0 -31 4.5 -57.5t11.5 -47.5
l186 242q-15 17 -35.5 26.5t-45.5 9.5q-55 0 -88 -46t-33 -127zM379 241q0 27 -4 50.5t-11 42.5l-184 -241q15 -17 35 -25.5t44 -8.5q53 0 86.5 45t33.5 137zM180 584l136 182l61 -56l-157 -159z" />
    <glyph glyph-name="Scommaaccent" unicode="&#x218;" horiz-adv-x="553" 
d="M38 204h55q3 -37 18.5 -63.5t38 -43t52 -24t60.5 -7.5q59 0 100.5 24.5t41.5 86.5q0 59 -44.5 85.5t-120.5 48.5q-80 23 -129 67t-49 129q0 90 62.5 140.5t159.5 50.5q101 0 159.5 -51t51.5 -141h-54q-4 57 -45.5 87t-98.5 30t-93 -27t-36 -81q0 -51 43.5 -76.5
t115.5 -45.5q87 -25 137.5 -71.5t50.5 -133.5q0 -48 -18.5 -85t-50 -62t-75 -38t-92.5 -13q-110 0 -175 54t-65 160zM205 -218l46 163h78l-75 -174z" />
    <glyph glyph-name="scommaaccent" unicode="&#x219;" horiz-adv-x="441" 
d="M38 154h42q9 -52 40.5 -81t85.5 -29q40 0 70 15.5t30 55.5q0 34 -22.5 52t-79.5 32q-72 19 -111 51.5t-39 95.5q0 66 48.5 105t126.5 39q75 0 119 -38t37 -104h-44q-2 33 -27.5 58.5t-74.5 25.5q-40 0 -65.5 -16t-25.5 -53q0 -35 27 -50t88 -31q76 -20 108 -56t32 -90
q0 -67 -50.5 -106.5t-131.5 -39.5q-92 0 -137.5 43.5t-45.5 120.5zM140 -218l46 163h78l-75 -174z" />
    <glyph glyph-name="Tcommaaccent" unicode="&#x21a;" horiz-adv-x="553" 
d="M328 0h-103v611h-225v77h553v-77h-225v-611zM191 -218l46 163h78l-75 -174z" />
    <glyph glyph-name="tcommaaccent" unicode="&#x21b;" horiz-adv-x="346" 
d="M82 145v283h-77v37l77 10v113l97 7v-120h129v-47h-129v-297q0 -33 12 -54t47 -21q29 0 42.5 13t13.5 35h25q0 -54 -25.5 -84t-84.5 -30q-66 0 -96.5 37t-30.5 118zM127 -218l46 163h78l-75 -174z" />
    <glyph glyph-name="dotlessj" unicode="&#x237;" horiz-adv-x="268" 
d="M-27 -133h30q3 -23 13 -36.5t33 -13.5t34.5 24t11.5 74v560l97 5v-528q0 -101 -28 -151.5t-94 -50.5q-31 0 -50 10.5t-29.5 27t-14 37.5t-3.5 42z" />
    <glyph glyph-name="schwa" unicode="&#x259;" horiz-adv-x="480" 
d="M440 250q0 -55 -14.5 -103.5t-42 -84.5t-67 -56.5t-88.5 -20.5q-48 0 -81 14t-53 37t-29 52t-9 58q0 18 2.5 44t3.5 36h280v16q0 82 -35.5 128.5t-104.5 46.5q-60 0 -91 -30t-36 -78h-35q0 81 48.5 128.5t135.5 47.5q100 0 158 -59.5t58 -175.5zM222 61q46 0 76 30.5
t40 83.5h-202q-1 -2 -1.5 -9.5t-0.5 -17.5q0 -31 17 -59t71 -28z" />
    <glyph glyph-name="circumflex" unicode="&#x2c6;" 
d="M88 582l136 171h53l136 -171l-34 -32l-128 126l-129 -126z" />
    <glyph glyph-name="caron" unicode="&#x2c7;" 
d="M97 730l36 28l126 -126l127 126l36 -28l-136 -173h-53z" />
    <glyph glyph-name="breve" unicode="&#x2d8;" 
d="M251 576q-43 0 -71.5 16t-45.5 40t-23 54t-4 58h37q1 -13 6 -29.5t16.5 -31.5t32 -25t52.5 -10t52.5 10t32 25t16.5 31.5t7 29.5h36q2 -28 -4 -58t-23 -54t-45.5 -40t-71.5 -16z" />
    <glyph glyph-name="dotaccent" unicode="&#x2d9;" 
d="M197 612v98h107v-98h-107z" />
    <glyph glyph-name="ring" unicode="&#x2da;" 
d="M141 682q0 44 30.5 74t77.5 30q50 0 80 -30t30 -74q0 -43 -30 -73.5t-80 -30.5q-48 0 -78 30.5t-30 73.5zM305 675q0 25 -15.5 41.5t-39.5 16.5q-25 0 -40.5 -16.5t-15.5 -41.5q0 -24 15.5 -40t40.5 -16q24 0 39.5 16t15.5 40z" />
    <glyph glyph-name="ogonek" unicode="&#x2db;" 
d="M273 -123q0 31 12.5 57.5t32 50t43.5 45.5t46 44l11 -4q-31 -40 -53.5 -90t-22.5 -94q0 -21 8 -33t29 -12q16 0 24.5 12.5t8.5 31.5h27q1 -38 -16.5 -65t-61.5 -27q-40 0 -64 19t-24 65z" />
    <glyph glyph-name="tilde" unicode="&#x2dc;" 
d="M116 581q-22 66 -2 109t72 43q31 0 49 -13t31 -28t25.5 -28t33.5 -13q30 0 37 25.5t-1 57.5h26q21 -64 1.5 -108t-71.5 -44q-29 0 -46 13t-29.5 28t-26.5 28t-37 13q-30 0 -37.5 -25.5t0.5 -57.5h-25z" />
    <glyph glyph-name="hungarumlaut" unicode="&#x2dd;" 
d="M98 577l83 186l64 -26l-99 -183zM268 577l89 183l61 -30l-102 -176z" />
    <glyph glyph-name="pi" unicode="&#x3c0;" horiz-adv-x="625" 
d="M379 133v290h-159v-227q0 -64 -10.5 -111.5t-29.5 -84.5h-67q5 28 7.5 71t2.5 132v220h-113v52h583v-52h-117v-291q0 -31 9 -53.5t40 -22.5q19 0 30 10t12 35h25q0 -53 -23.5 -82t-74.5 -29q-57 0 -86 34.5t-29 108.5z" />
    <glyph glyph-name="Wgrave" unicode="&#x1e80;" horiz-adv-x="928" 
d="M13 690h112l150 -564l174 561h76l165 -555l147 558h87l-188 -693h-108l-156 498l-159 -498h-108zM339 808l54 67l165 -118l-26 -27z" />
    <glyph glyph-name="wgrave" unicode="&#x1e81;" horiz-adv-x="705" 
d="M10 475h104l106 -353l111 324h67l113 -324l105 353h79l-144 -475h-89l-113 313l-113 -313h-80zM244 710l61 56l136 -182l-40 -33z" />
    <glyph glyph-name="Wacute" unicode="&#x1e82;" horiz-adv-x="928" 
d="M13 690h112l150 -564l174 561h76l165 -555l147 558h87l-188 -693h-108l-156 498l-159 -498h-108zM432 757l165 118l54 -67l-193 -78z" />
    <glyph glyph-name="wacute" unicode="&#x1e83;" horiz-adv-x="705" 
d="M10 475h104l106 -353l111 324h67l113 -324l105 353h79l-144 -475h-89l-113 313l-113 -313h-80zM328 584l136 182l61 -56l-157 -159z" />
    <glyph glyph-name="Wdieresis" unicode="&#x1e84;" horiz-adv-x="928" 
d="M13 690h112l150 -564l174 561h76l165 -555l147 558h87l-188 -693h-108l-156 498l-159 -498h-108zM351 750v94h93v-94h-93zM525 750v94h93v-94h-93z" />
    <glyph glyph-name="wdieresis" unicode="&#x1e85;" horiz-adv-x="705" 
d="M10 475h104l106 -353l111 324h67l113 -324l105 353h79l-144 -475h-89l-113 313l-113 -313h-80zM244 616v94h93v-94h-93zM418 616v94h93v-94h-93z" />
    <glyph glyph-name="Ygrave" unicode="&#x1ef2;" horiz-adv-x="551" 
d="M333 285v-285h-103v288l-233 402h127l176 -310l174 310h86zM173 808l54 67l165 -118l-26 -27z" />
    <glyph glyph-name="ygrave" unicode="&#x1ef3;" horiz-adv-x="464" 
d="M17 -139h25q0 -18 12 -31.5t40 -13.5t44.5 21t32.5 67l32 85l-195 486h104l141 -348l117 348h86l-230 -615q-24 -62 -55.5 -86t-63.5 -24q-36 0 -54.5 13t-26.5 31t-8.5 37t-0.5 30zM133 710l61 56l136 -182l-40 -33z" />
    <glyph glyph-name="endash" unicode="&#x2013;" horiz-adv-x="566" 
d="M30 343h505v-77h-505v77z" />
    <glyph glyph-name="emdash" unicode="&#x2014;" horiz-adv-x="1000" 
d="M30 328h940v-77h-940v77z" />
    <glyph glyph-name="quoteleft" unicode="&#x2018;" horiz-adv-x="192" 
d="M156 680q-18 -13 -40 -45t-27 -69q26 0 40.5 -13.5t14.5 -39.5q0 -24 -15.5 -40t-39.5 -16q-28 0 -43.5 18t-15.5 44q0 33 10.5 64t26 56t33.5 43.5t34 27.5z" />
    <glyph glyph-name="quoteright" unicode="&#x2019;" horiz-adv-x="192" 
d="M36 487q18 14 40 45.5t27 68.5q-26 0 -40.5 14t-14.5 40q0 24 15.5 39.5t39.5 15.5q28 0 43.5 -17.5t15.5 -43.5q0 -33 -10.5 -64t-26 -56t-33.5 -43.5t-34 -28.5z" />
    <glyph glyph-name="quotesinglbase" unicode="&#x201a;" horiz-adv-x="194" 
d="M50 -137q20 14 45.5 52t29.5 78q-26 0 -41 14t-15 40q0 24 16 40t39 16q29 0 44 -18t15 -44q0 -37 -12 -71t-29 -61.5t-36.5 -47t-34.5 -27.5z" />
    <glyph glyph-name="quotedblleft" unicode="&#x201c;" horiz-adv-x="377" 
d="M156 680q-18 -13 -40 -45t-27 -69q26 0 40.5 -13.5t14.5 -39.5q0 -24 -15.5 -40t-39.5 -16q-28 0 -43.5 18t-15.5 44q0 33 10.5 64t26 56t33.5 43.5t34 27.5zM341 680q-18 -13 -40 -45t-27 -69q26 0 40.5 -13.5t14.5 -39.5q0 -24 -15.5 -40t-39.5 -16q-28 0 -43.5 18
t-15.5 44q0 33 10.5 64t26 56t33.5 43.5t34 27.5z" />
    <glyph glyph-name="quotedblright" unicode="&#x201d;" horiz-adv-x="377" 
d="M36 487q18 14 40 45.5t27 68.5q-26 0 -40.5 14t-14.5 40q0 24 15.5 39.5t39.5 15.5q28 0 43.5 -17.5t15.5 -43.5q0 -33 -10.5 -64t-26 -56t-33.5 -43.5t-34 -28.5zM221 487q18 14 40 45.5t27 68.5q-26 0 -40.5 14t-14.5 40q0 24 15.5 39.5t39.5 15.5q28 0 43.5 -17.5
t15.5 -43.5q0 -33 -10.5 -64t-26 -56t-33.5 -43.5t-34 -28.5z" />
    <glyph glyph-name="quotedblbase" unicode="&#x201e;" horiz-adv-x="379" 
d="M50 -137q20 14 45.5 52t29.5 78q-26 0 -41 14t-15 40q0 24 16 40t39 16q29 0 44 -18t15 -44q0 -37 -12 -71t-29 -61.5t-36.5 -47t-34.5 -27.5zM236 -137q20 14 45.5 52t29.5 78q-26 0 -41 14t-15 40q0 24 16 40t39 16q29 0 44 -18t15 -44q0 -37 -12 -71t-29 -61.5
t-36.5 -47t-34.5 -27.5z" />
    <glyph glyph-name="dagger" unicode="&#x2020;" horiz-adv-x="462" 
d="M211 -49q-9 22 -16 69.5t-13.5 99t-11.5 99.5t-9 72l45 166l-166 -43v114l167 -39l-42 202h132l-42 -202l167 39v-114l-166 43l39 -166q-4 -24 -9.5 -72t-11.5 -99.5t-13.5 -99t-16.5 -69.5h-33z" />
    <glyph glyph-name="daggerdbl" unicode="&#x2021;" horiz-adv-x="462" 
d="M165 -49l42 200l-167 -39v114l165 -43l-41 135l41 141l-165 -43v114l167 -39l-42 200h132l-42 -200l167 39v-114l-165 43l41 -141l-41 -135l165 43v-114l-167 39l42 -200h-132z" />
    <glyph glyph-name="bullet" unicode="&#x2022;" horiz-adv-x="387" 
d="M193 199q-57 0 -97.5 38t-40.5 100t40.5 100t97.5 38t98 -38t41 -100t-41 -100t-98 -38z" />
    <glyph glyph-name="ellipsis" unicode="&#x2026;" horiz-adv-x="674" 
d="M70 48q0 22 15.5 39t42.5 17q25 0 40.5 -17t15.5 -39q0 -25 -15 -41.5t-40 -16.5q-28 0 -43.5 16.5t-15.5 41.5zM280 48q0 22 15.5 39t42.5 17q25 0 40.5 -17t15.5 -39q0 -25 -15 -41.5t-40 -16.5q-28 0 -43.5 16.5t-15.5 41.5zM490 48q0 22 15.5 39t42.5 17
q25 0 40.5 -17t15.5 -39q0 -25 -15 -41.5t-40 -16.5q-28 0 -43.5 16.5t-15.5 41.5z" />
    <glyph glyph-name="perthousand" unicode="&#x2030;" horiz-adv-x="945" 
d="M142 447q-54 0 -88 33.5t-34 84.5q0 54 34 86.5t88 32.5q53 0 87 -32.5t34 -86.5q0 -51 -34 -84.5t-87 -33.5zM448 670h77l-340 -670h-78zM142 506q25 0 42 17.5t17 41.5t-17 41.5t-42 17.5t-42 -17.5t-17 -41.5t17 -41.5t42 -17.5zM510 -10q-54 0 -88 33.5t-34 85.5
q0 54 34 86t88 32q52 0 86 -32t34 -86q0 -52 -34 -85.5t-86 -33.5zM805 -10q-54 0 -88 33.5t-34 85.5q0 54 34 86t88 32q52 0 86 -32t34 -86q0 -52 -34 -85.5t-86 -33.5zM509 50q25 0 42 17t17 41q0 25 -17 42t-42 17t-42 -17t-17 -42q0 -24 17 -41t42 -17zM804 50
q25 0 42 17t17 41q0 25 -17 42t-42 17t-42 -17t-17 -42q0 -24 17 -41t42 -17z" />
    <glyph glyph-name="guilsinglleft" unicode="&#x2039;" horiz-adv-x="288" 
d="M243 424l-116 -175l116 -175h-87l-111 167v16l111 167h87z" />
    <glyph glyph-name="guilsinglright" unicode="&#x203a;" horiz-adv-x="288" 
d="M243 241l-111 -167h-87l116 175l-116 175h87l111 -167v-16z" />
    <glyph glyph-name="fraction" unicode="&#x2044;" horiz-adv-x="449" 
d="M355 670h77l-340 -670h-78z" />
    <glyph glyph-name="zerosuperior" unicode="&#x2070;" horiz-adv-x="372" 
d="M187 399q-69 0 -116.5 49t-47.5 158q0 105 46 156.5t118 51.5q69 0 115.5 -49t46.5 -157q0 -106 -45 -157.5t-117 -51.5zM193 461q40 0 64 36.5t24 110.5q0 78 -25.5 111.5t-62.5 33.5q-40 0 -64 -34.5t-24 -112.5q0 -81 25.5 -113t62.5 -32z" />
    <glyph glyph-name="i.superior" unicode="&#x2071;" horiz-adv-x="168" 
d="M42 767v67h82v-67h-82zM46 688l73 4v-287h-73v283z" />
    <glyph glyph-name="foursuperior" unicode="&#x2074;" horiz-adv-x="368" 
d="M354 512h-69v-107h-76v107h-190v49l192 248h74v-240h69v-57zM86 569h123v159z" />
    <glyph glyph-name="fivesuperior" unicode="&#x2075;" horiz-adv-x="355" 
d="M324 545q0 -67 -38 -107t-106 -40q-30 0 -57.5 7t-47.5 22.5t-30.5 40t-7.5 59.5h41q1 -32 23 -50t60 -18q40 0 62 23t22 60t-22.5 56.5t-57.5 19.5q-37 0 -56.5 -14.5t-24.5 -21.5l-38 14l8 212h244v-63h-180l-7 -110q12 12 33.5 23t54.5 11q59 0 92 -33t33 -91z" />
    <glyph glyph-name="sixsuperior" unicode="&#x2076;" horiz-adv-x="360" 
d="M191 814q75 0 105.5 -36t27.5 -87h-41q-2 21 -18 42t-60 21q-48 0 -76 -35.5t-28 -113.5v-12t1 -16q7 35 36.5 56.5t75.5 21.5q48 0 81.5 -30t33.5 -92q0 -66 -41 -100.5t-98 -34.5q-86 0 -125 55.5t-39 146.5q0 44 10 83t30 68t51.5 46t73.5 17zM190 604q-36 0 -55 -20
t-19 -53q0 -30 17.5 -50.5t53.5 -20.5q33 0 52.5 20.5t19.5 51.5q0 36 -19 54t-50 18z" />
    <glyph glyph-name="sevensuperior" unicode="&#x2077;" horiz-adv-x="330" 
d="M306 808v-41q-84 -113 -116 -201t-38 -161h-81q5 85 41.5 168.5t115.5 173.5h-200v61h278z" />
    <glyph glyph-name="eightsuperior" unicode="&#x2078;" horiz-adv-x="365" 
d="M182 400q-75 0 -114 31t-39 85q0 43 25 68.5t64 34.5q-38 9 -57.5 32.5t-19.5 60.5q0 46 34 75t106 29t107 -29t35 -75q0 -37 -20 -60.5t-58 -32.5q40 -9 65 -34.5t25 -68.5q0 -54 -39 -85t-114 -31zM182 639q31 0 48.5 16.5t17.5 44.5q0 25 -17 41.5t-49 16.5t-49 -16.5
t-17 -41.5q0 -28 17.5 -44.5t48.5 -16.5zM182 458q31 0 52.5 17t21.5 52q0 34 -21 51.5t-53 17.5q-31 0 -52.5 -17.5t-21.5 -51.5q0 -35 20.5 -52t53.5 -17z" />
    <glyph glyph-name="ninesuperior" unicode="&#x2079;" horiz-adv-x="360" 
d="M170 398q-75 0 -105.5 36.5t-26.5 86.5h41q2 -20 18 -41t60 -21q47 0 75 35t28 113v11.5t-1 14.5q-8 -34 -36.5 -55t-74.5 -21q-48 0 -82 30t-34 92q0 67 41 101t99 34q86 0 124.5 -55t38.5 -147q0 -44 -10 -83t-30 -68t-51.5 -46t-73.5 -17zM172 608q37 0 55.5 20
t18.5 53q0 31 -18 51.5t-53 20.5q-34 0 -53 -21t-19 -52q0 -35 19 -53.5t50 -18.5z" />
    <glyph glyph-name="n.superior" unicode="&#x207f;" horiz-adv-x="346" 
d="M307 405h-74v148q0 46 -11.5 66t-40.5 20q-32 0 -48.5 -31.5t-16.5 -92.5v-110h-73v283l63 4l8 -86q7 39 28.5 65.5t68.5 26.5q55 0 75.5 -31t20.5 -82v-180z" />
    <glyph glyph-name="zeroinferior" unicode="&#x2080;" horiz-adv-x="372" 
d="M187 -106q-69 0 -116.5 49t-47.5 158q0 105 46 156.5t118 51.5q69 0 115.5 -49t46.5 -157q0 -106 -45 -157.5t-117 -51.5zM193 -44q40 0 64 36.5t24 110.5q0 78 -25.5 111.5t-62.5 33.5q-40 0 -64 -34.5t-24 -112.5q0 -81 25.5 -113t62.5 -32z" />
    <glyph glyph-name="oneinferior" unicode="&#x2081;" horiz-adv-x="261" 
d="M163 307h45v-407h-78v327l-94 -44l-14 35z" />
    <glyph glyph-name="twoinferior" unicode="&#x2082;" horiz-adv-x="357" 
d="M328 -98h-287v33q40 34 75.5 64.5t62 58.5t42 56.5t15.5 58.5q0 32 -17 53t-53 21q-47 0 -66.5 -33t-9.5 -77h-43q-10 28 -7 59t19.5 56t47 41t74.5 16q67 0 102.5 -35.5t35.5 -92.5q0 -34 -14 -63t-37.5 -55t-54.5 -51.5t-66 -51.5h181v-58z" />
    <glyph glyph-name="threeinferior" unicode="&#x2083;" horiz-adv-x="353" 
d="M320 13q0 -55 -40.5 -87.5t-106.5 -32.5t-108 31.5t-37 103.5h41q1 -34 23.5 -53.5t62.5 -19.5q37 0 60 17.5t23 51.5t-26.5 47t-66.5 13h-38v46h35q35 0 60.5 12t25.5 46q0 29 -19 45t-53 16q-40 0 -59.5 -19.5t-19.5 -50.5h-38q-5 64 35.5 97t100.5 33q57 0 95 -27.5
t38 -79.5q0 -41 -25 -63t-59 -31q40 -7 68 -29t28 -66z" />
    <glyph glyph-name="fourinferior" unicode="&#x2084;" horiz-adv-x="368" 
d="M354 7h-69v-107h-76v107h-190v49l192 248h74v-240h69v-57zM86 64h123v159z" />
    <glyph glyph-name="fiveinferior" unicode="&#x2085;" horiz-adv-x="355" 
d="M324 40q0 -67 -38 -107t-106 -40q-30 0 -57.5 7t-47.5 22.5t-30.5 40t-7.5 59.5h41q1 -32 23 -50t60 -18q40 0 62 23t22 60t-22.5 56.5t-57.5 19.5q-37 0 -56.5 -14.5t-24.5 -21.5l-38 14l8 212h244v-63h-180l-7 -110q12 12 33.5 23t54.5 11q59 0 92 -33t33 -91z" />
    <glyph glyph-name="sixinferior" unicode="&#x2086;" horiz-adv-x="360" 
d="M191 309q75 0 105.5 -36t27.5 -87h-41q-2 21 -18 42t-60 21q-48 0 -76 -35.5t-28 -113.5v-12t1 -16q7 35 36.5 56.5t75.5 21.5q48 0 81.5 -30t33.5 -92q0 -66 -41 -100.5t-98 -34.5q-86 0 -125 55.5t-39 146.5q0 44 10 83t30 68t51.5 46t73.5 17zM190 99q-36 0 -55 -20
t-19 -53q0 -30 17.5 -50.5t53.5 -20.5q33 0 52.5 20.5t19.5 51.5q0 36 -19 54t-50 18z" />
    <glyph glyph-name="seveninferior" unicode="&#x2087;" horiz-adv-x="330" 
d="M306 303v-41q-84 -113 -116 -201t-38 -161h-81q5 85 41.5 168.5t115.5 173.5h-200v61h278z" />
    <glyph glyph-name="eightinferior" unicode="&#x2088;" horiz-adv-x="365" 
d="M182 -105q-75 0 -114 31t-39 85q0 43 25 68.5t64 34.5q-38 9 -57.5 32.5t-19.5 60.5q0 46 34 75t106 29t107 -29t35 -75q0 -37 -20 -60.5t-58 -32.5q40 -9 65 -34.5t25 -68.5q0 -54 -39 -85t-114 -31zM182 134q31 0 48.5 16.5t17.5 44.5q0 25 -17 41.5t-49 16.5
t-49 -16.5t-17 -41.5q0 -28 17.5 -44.5t48.5 -16.5zM182 -47q31 0 52.5 17t21.5 52q0 34 -21 51.5t-53 17.5q-31 0 -52.5 -17.5t-21.5 -51.5q0 -35 20.5 -52t53.5 -17z" />
    <glyph glyph-name="nineinferior" unicode="&#x2089;" horiz-adv-x="360" 
d="M170 -107q-75 0 -105.5 36.5t-26.5 86.5h41q2 -20 18 -41t60 -21q47 0 75 35t28 113v11.5t-1 14.5q-8 -34 -36.5 -55t-74.5 -21q-48 0 -82 30t-34 92q0 67 41 101t99 34q86 0 124.5 -55t38.5 -147q0 -44 -10 -83t-30 -68t-51.5 -46t-73.5 -17zM172 103q37 0 55.5 20
t18.5 53q0 31 -18 51.5t-53 20.5q-34 0 -53 -21t-19 -52q0 -35 19 -53.5t50 -18.5z" />
    <glyph glyph-name="Euro" unicode="&#x20ac;" horiz-adv-x="585" 
d="M438 291l-14 -57h-194q12 -84 56.5 -128t116.5 -44q50 0 83.5 16.5t52.5 34.5l29 -38q-22 -31 -67.5 -58t-115.5 -27q-104 0 -173.5 60.5t-87.5 183.5h-103l14 57h84v5v5v45v16.5t1 15.5h-76l14 57h68q21 119 94 182t174 63q66 0 109 -26t62 -52l-36 -41q-22 19 -52 32.5
t-69 13.5q-69 0 -115.5 -45.5t-60.5 -126.5h232l-14 -57h-224v-7.5v-7.5v-72h212z" />
    <glyph glyph-name="litre" unicode="&#x2113;" horiz-adv-x="437" 
d="M380 98q-4 -50 -35 -79t-86 -29q-70 0 -103 45t-33 152v19q-21 -10 -43 -20.5t-47 -20.5l-18 48q30 12 57 24.5t51 25.5v231q0 111 42.5 160t111.5 49q55 0 89.5 -37.5t34.5 -109.5q0 -81 -41 -154.5t-142 -140.5v-88q0 -61 15.5 -88.5t55.5 -27.5q28 0 44.5 10t23.5 31
h23zM218 523v-200q74 56 102.5 115.5t28.5 119.5q0 44 -18 65.5t-44 21.5q-27 0 -48 -26t-21 -96z" />
    <glyph glyph-name="numero" unicode="&#x2116;" horiz-adv-x="1052" 
d="M596 690v-695h-83l-352 531v-526h-81v690h101l333 -507v507h82zM836 392q-72 0 -114 42t-42 107t42 107t114 42t113.5 -42t41.5 -107t-41.5 -107t-113.5 -42zM836 448q36 0 61.5 25t25.5 68t-25.5 68.5t-61.5 25.5t-61.5 -25.5t-25.5 -68.5t25.5 -68t61.5 -25z" />
    <glyph glyph-name="uni2117" unicode="&#x2117;" horiz-adv-x="773" 
d="M386 -12q-75 0 -137.5 25.5t-107 72t-69 112t-24.5 144.5q0 80 26 145.5t71 111.5t107 71t134 25t134.5 -25t107.5 -71t71 -111.5t26 -145.5q0 -79 -26 -144.5t-71 -112t-107.5 -72t-134.5 -25.5zM385 53q60 0 110 21.5t85 59.5t55 91.5t20 116.5t-20 116t-55 91
t-85 59.5t-110 21.5t-109.5 -21t-84.5 -59t-54 -91.5t-19 -116.5q0 -62 18.5 -115.5t52.5 -91.5t84 -60t112 -22zM266 530h150q66 0 104.5 -29.5t38.5 -86.5q0 -62 -39.5 -92.5t-102.5 -30.5h-68v-134h-83v373zM389 473h-40v-126h44q37 0 61 13t24 51q0 34 -23.5 48
t-65.5 14z" />
    <glyph glyph-name="trademark" unicode="&#x2122;" horiz-adv-x="842" 
d="M445 320h-66l14 370h92l112 -253l117 253h73l14 -370h-66l-11 260l-118 -253h-38l-112 252zM220 320h-84v311h-121v57h318v-57h-113v-311z" />
    <glyph glyph-name="Omega" unicode="&#x2126;" horiz-adv-x="738" 
d="M318 107v-107h-258v74h194v9q-12 3 -46 16t-70.5 44.5t-64.5 87.5t-28 145q0 68 22 127t63 102t102 68t137 25q79 0 140 -25t101.5 -68t61.5 -102t21 -127q0 -88 -27.5 -144t-62.5 -88t-68.5 -45t-44.5 -16v-9h186v-74h-244v107q1 0 26.5 12.5t55.5 41.5t54.5 77.5
t24.5 120.5q0 49 -13.5 94t-40 79t-68 54.5t-96.5 20.5q-54 0 -95 -19t-68.5 -52t-41 -78.5t-13.5 -98.5q0 -72 25 -120.5t54.5 -77.5t55 -41.5t26.5 -12.5z" />
    <glyph glyph-name="estimated" unicode="&#x212e;" horiz-adv-x="761" 
d="M709 281h-528v-187q34 -31 82 -49.5t117 -18.5q96 0 159 29.5t109 90.5l25 -21q-39 -54 -109 -92t-184 -38q-78 0 -139.5 24.5t-103.5 66t-64.5 97.5t-22.5 118q0 63 23.5 119t66.5 97t104 65.5t136 24.5q74 0 135 -24.5t104 -65.5t66.5 -97t23.5 -119v-20zM380 576
q-65 0 -114.5 -18t-84.5 -52v-197h398v197q-35 33 -85.5 51.5t-113.5 18.5z" />
    <glyph glyph-name="arrowleft" unicode="&#x2190;" horiz-adv-x="703" 
d="M269 495l51 -48l-154 -147h487v-74h-487l154 -147l-51 -50l-234 233z" />
    <glyph glyph-name="arrowup" unicode="&#x2191;" horiz-adv-x="576" 
d="M326 0h-75v567l-147 -154l-49 51l233 234l233 -234l-49 -51l-146 153v-566z" />
    <glyph glyph-name="arrowright" unicode="&#x2192;" horiz-adv-x="703" 
d="M50 300h487l-154 147l51 48l234 -233l-234 -233l-51 50l154 147h-487v74z" />
    <glyph glyph-name="arrowdown" unicode="&#x2193;" horiz-adv-x="576" 
d="M250 690h75v-567l147 154l49 -51l-233 -234l-233 234l49 51l146 -153v566z" />
    <glyph glyph-name="arrowupleft" unicode="&#x2196;" horiz-adv-x="621" 
d="M90 475h330v-71l-210 5l363 -363l-52 -54l-364 364l5 -210h-72v329z" />
    <glyph glyph-name="arrowupright" unicode="&#x2197;" horiz-adv-x="621" 
d="M48 46l363 363l-210 -5v71h330v-329h-72l5 210l-364 -364z" />
    <glyph glyph-name="arrowdownright" unicode="&#x2198;" horiz-adv-x="621" 
d="M48 429l52 54l364 -364l-5 210h72v-329h-330v71l210 -5z" />
    <glyph glyph-name="arrowdownleft" unicode="&#x2199;" horiz-adv-x="621" 
d="M90 0v329h72l-5 -210l364 364l52 -54l-363 -363l210 5v-71h-330z" />
    <glyph glyph-name="partialdiff" unicode="&#x2202;" horiz-adv-x="546" 
d="M261 698q48 0 92.5 -20t78.5 -60.5t54.5 -103.5t20.5 -149q0 -82 -17 -151.5t-49 -118.5t-80 -77t-110 -28q-53 0 -92.5 18t-66 48.5t-40 72.5t-13.5 90q0 49 12.5 94.5t38 80.5t65.5 56t94 21q66 0 103.5 -31t54.5 -68v6q0 74 -15.5 123t-40 78t-55 41t-59.5 12
q-31 0 -56.5 -8t-44.5 -18l-25 52q22 15 60 27.5t90 12.5zM137 219q0 -69 28.5 -114t84.5 -45q57 0 97.5 47.5t53.5 157.5q-3 17 -10 40.5t-21.5 44t-38 35t-58.5 14.5q-36 0 -62 -14.5t-42 -39t-24 -57.5t-8 -69z" />
    <glyph glyph-name="Delta" unicode="&#x2206;" horiz-adv-x="629" 
d="M25 0v34l242 659h107l230 -659v-34h-579zM477 64l-176 523l-188 -523h364z" />
    <glyph glyph-name="product" unicode="&#x220f;" horiz-adv-x="683" 
d="M80 690h523v-820h-102v746h-318v-746h-103v820z" />
    <glyph glyph-name="summation" unicode="&#x2211;" horiz-adv-x="640" 
d="M75 -119v64l245 336l-239 344v65h484v-74h-369l216 -309v-47l-222 -305h375v-74h-490z" />
    <glyph glyph-name="minus" unicode="&#x2212;" horiz-adv-x="585" 
d="M505 351v-79h-425v79h425z" />
    <glyph glyph-name="radical" unicode="&#x221a;" horiz-adv-x="570" 
d="M163 274l110 -307l206 743h96l-252 -855h-103l-136 361h-84v58h163z" />
    <glyph glyph-name="infinity" unicode="&#x221e;" horiz-adv-x="585" 
d="M431 176q-48 0 -81.5 27.5t-61.5 68.5q-29 -41 -61 -69t-80 -28q-35 0 -58.5 12t-38 30.5t-20.5 42.5t-6 48q0 25 7 49.5t22.5 42.5t40 29.5t59.5 11.5q49 0 82.5 -27t61.5 -68q29 40 60.5 67.5t79.5 27.5q35 0 59 -11t38.5 -29.5t20.5 -42t6 -48.5q0 -24 -7 -48
t-22.5 -43t-40.5 -31t-60 -12zM158 237q30 0 52 22t39 50q-17 28 -39 49.5t-52 21.5q-37 0 -50.5 -23.5t-13.5 -47.5t13.5 -48t50.5 -24zM426 238q37 0 51.5 23t14.5 47t-14.5 47.5t-51.5 23.5q-30 0 -52 -21.5t-38 -49.5q17 -28 39 -49t51 -21z" />
    <glyph glyph-name="integral" unicode="&#x222b;" horiz-adv-x="349" 
d="M284 682q-38 0 -53 -27t-15 -88v-24l15 -499v-21q0 -93 -32.5 -137.5t-105.5 -44.5q-41 0 -66 18.5t-37 38.5l30 29q8 -7 19 -13t26 -6q39 0 53.5 28t14.5 88v24l-17 496v28q0 91 35 134t105 43q43 0 67.5 -19t35.5 -37l-30 -30q-7 7 -18 13t-27 6z" />
    <glyph glyph-name="approxequal" unicode="&#x2248;" horiz-adv-x="585" 
d="M133 345h-50q2 60 30.5 98.5t88.5 38.5q34 0 58.5 -11t46.5 -24q20 -11 41 -21t47 -10q34 0 49.5 17.5t18.5 48.5h49q-2 -63 -29.5 -100.5t-87.5 -37.5q-31 0 -54.5 9.5t-44.5 21.5q-22 13 -44 24t-50 11q-34 0 -50 -20t-19 -45zM133 128h-50q2 60 30.5 98.5t88.5 38.5
q32 0 55.5 -10t45.5 -23q22 -12 43.5 -22.5t48.5 -10.5q34 0 49.5 17.5t18.5 48.5h49q-2 -63 -29.5 -100.5t-87.5 -37.5q-33 0 -57.5 10t-46.5 23q-21 13 -41.5 23t-47.5 10q-34 0 -50 -20t-19 -45z" />
    <glyph glyph-name="notequal" unicode="&#x2260;" horiz-adv-x="585" 
d="M505 237v-74h-257l-49 -94h-70l49 94h-98v74h136l78 149h-214v74h253l50 97h69l-50 -97h103v-74h-142l-77 -149h219z" />
    <glyph glyph-name="lessequal" unicode="&#x2264;" horiz-adv-x="585" 
d="M488 233l-26 -71l-372 168v62l372 172l26 -70l-303 -133zM505 74v-74h-425v74h425z" />
    <glyph glyph-name="greaterequal" unicode="&#x2265;" horiz-adv-x="570" 
d="M495 330l-372 -168l-26 71l303 128l-303 133l26 70l372 -172v-62zM80 74h425v-74h-425v74z" />
    <glyph glyph-name="lozenge" unicode="&#x25ca;" horiz-adv-x="566" 
d="M515 362v-44l-192 -324h-80l-192 324v44l192 326h80zM284 88l141 254l-141 253l-142 -253z" />
    <glyph glyph-name="commaaccent" unicode="&#xf6c3;" 
d="M148 -218l46 163h78l-75 -174z" />
    <glyph glyph-name="fi.cap" horiz-adv-x="754" 
d="M415 312h-232v-312h-103v688h400v-75h-297v-226h232v-75zM566 690h103v-690h-103v690z" />
    <glyph glyph-name="fl.cap" horiz-adv-x="991" 
d="M415 312h-232v-312h-103v688h400v-75h-297v-226h232v-75zM566 690h103v-610h312v-77h-415v687z" />
    <glyph glyph-name="germandbls.cap" horiz-adv-x="1105" 
d="M38 204h55q3 -37 18.5 -63.5t38 -43t52 -24t60.5 -7.5q59 0 100.5 24.5t41.5 86.5q0 59 -44.5 85.5t-120.5 48.5q-80 23 -129 67t-49 129q0 90 62.5 140.5t159.5 50.5q101 0 159.5 -51t51.5 -141h-54q-4 57 -45.5 87t-98.5 30t-93 -27t-36 -81q0 -51 43.5 -76.5
t115.5 -45.5q87 -25 137.5 -71.5t50.5 -133.5q0 -48 -18.5 -85t-50 -62t-75 -38t-92.5 -13q-110 0 -175 54t-65 160zM591 204h55q3 -37 18.5 -63.5t38 -43t52 -24t60.5 -7.5q59 0 100.5 24.5t41.5 86.5q0 59 -44.5 85.5t-120.5 48.5q-80 23 -129 67t-49 129q0 90 62.5 140.5
t159.5 50.5q101 0 159.5 -51t51.5 -141h-54q-4 57 -45.5 87t-98.5 30t-93 -27t-36 -81q0 -51 43.5 -76.5t115.5 -45.5q87 -25 137.5 -71.5t50.5 -133.5q0 -48 -18.5 -85t-50 -62t-75 -38t-92.5 -13q-110 0 -175 54t-65 160z" />
    <glyph glyph-name="i.TRK" horiz-adv-x="252" 
d="M76 475l97 5v-480h-97v475zM74 612v98h107v-98h-107z" />
    <glyph glyph-name="A.small" horiz-adv-x="534" 
d="M96 0h-81l207 525h102l195 -525h-111l-48 138h-213zM170 202h167l-81 233z" />
    <glyph glyph-name="B.small" horiz-adv-x="528" 
d="M73 0v525h190q90 0 148.5 -29t58.5 -103q0 -54 -35.5 -80.5t-92.5 -36.5q69 -9 112.5 -39.5t43.5 -93.5q0 -72 -55.5 -107.5t-156.5 -35.5h-213zM242 461h-71v-160h69q61 0 98 17t37 61q0 48 -38 65t-95 17zM261 237h-90v-173h91q66 0 102 19.5t36 68.5q0 50 -40 67.5
t-99 17.5z" />
    <glyph glyph-name="C.small" horiz-adv-x="517" 
d="M40 258q0 130 69.5 202.5t182.5 72.5q57 0 95 -16.5t59 -40.5t29 -50.5t6 -46.5h-51q-2 8 -8.5 21t-20 25t-36.5 21t-57 9q-75 0 -119 -51t-44 -146q0 -98 45 -146t119 -48q37 0 63 9.5t42.5 23.5t25 29.5t10.5 27.5h41q0 -21 -8.5 -49.5t-30.5 -54t-61.5 -43
t-99.5 -17.5q-112 0 -181.5 67.5t-69.5 200.5z" />
    <glyph glyph-name="D.small" horiz-adv-x="580" 
d="M73 525h164q80 0 138 -19.5t95 -54t55 -82t18 -102.5q0 -76 -24.5 -127.5t-65.5 -82.5t-96 -44t-116 -13h-168v525zM240 458h-69v-391h74q89 0 141 49t52 151q0 83 -46 137t-152 54z" />
    <glyph glyph-name="E.small" horiz-adv-x="477" 
d="M388 238h-217v-168h273v-67h-371v520h364v-67h-266v-151h217v-67z" />
    <glyph glyph-name="F.small" horiz-adv-x="440" 
d="M73 523h362v-67h-264v-159h203v-67h-203v-230h-98v523z" />
    <glyph glyph-name="G.small" horiz-adv-x="571" 
d="M38 256q0 67 20 119t54.5 87t82 53t102.5 18q59 0 97.5 -16.5t60.5 -40t30 -50t6 -46.5h-50q-2 8 -9 21t-21.5 25t-38 20.5t-58.5 8.5q-73 0 -122 -54.5t-49 -149.5q0 -90 44.5 -141t122.5 -51q60 0 88.5 19.5t35.5 29.5v90h-103v64h182v-162q-10 -20 -27.5 -39.5
t-43 -35t-60.5 -25.5t-81 -10q-124 0 -193.5 69t-69.5 197z" />
    <glyph glyph-name="H.small" horiz-adv-x="600" 
d="M73 525h98v-218h259v218h98v-525h-98v240h-259v-240h-98v525z" />
    <glyph glyph-name="I.small" horiz-adv-x="254" 
d="M78 525h98v-525h-98v525z" />
    <glyph glyph-name="J.small" horiz-adv-x="393" 
d="M14 145h43q1 -32 22.5 -56.5t64.5 -24.5q50 0 68 35.5t18 92.5v333h98v-341q0 -41 -8 -76.5t-26.5 -61.5t-49.5 -41t-76 -15q-46 0 -76 13t-47 34t-24 49.5t-7 58.5z" />
    <glyph glyph-name="K.small" horiz-adv-x="548" 
d="M73 525h98v-243l238 243h92l-212 -214l241 -311h-123l-186 243l-50 -51v-192h-98v525z" />
    <glyph glyph-name="L.small" horiz-adv-x="447" 
d="M73 525h98v-453h266v-69h-364v522z" />
    <glyph glyph-name="M.small" horiz-adv-x="713" 
d="M86 525h111l168 -380l180 380h83l23 -525h-77l-18 381l-176 -372h-49l-176 391l-19 -400h-73z" />
    <glyph glyph-name="N.small" horiz-adv-x="601" 
d="M73 525h91l287 -370v370h78v-525h-74l-305 392v-392h-77v525z" />
    <glyph glyph-name="O.small" horiz-adv-x="598" 
d="M38 261q0 64 20 114.5t54.5 85.5t83 53.5t105.5 18.5q48 0 94.5 -16t83 -48.5t59 -83t22.5 -119.5q0 -131 -71.5 -203.5t-187.5 -72.5q-53 0 -101 16.5t-84 49.5t-57 84.5t-21 120.5zM476 265q0 48 -14.5 83.5t-38 58.5t-53 34.5t-60.5 11.5q-71 0 -119 -49t-48 -142
q0 -53 14.5 -91t38 -61.5t53.5 -34.5t60 -11q32 0 62.5 12t53.5 36.5t37 63t14 89.5z" />
    <glyph glyph-name="P.small" horiz-adv-x="499" 
d="M73 525h206q90 0 146 -42.5t56 -123.5q0 -43 -15.5 -74.5t-42.5 -52t-63.5 -30.5t-79.5 -10h-109v-192h-98v525zM254 458h-83v-199h88q49 0 86 23t37 77q0 50 -36 74.5t-92 24.5z" />
    <glyph glyph-name="Q.small" horiz-adv-x="598" 
d="M38 261q0 63 19.5 113.5t54 85.5t83 54t106.5 19q49 0 95.5 -16.5t82.5 -49t58.5 -82.5t22.5 -116q0 -110 -53.5 -182t-143.5 -91q5 -29 28 -45.5t62 -16.5q26 0 44.5 11t20.5 32h31q0 -46 -32.5 -71t-85.5 -25q-69 0 -109.5 30.5t-50.5 79.5q-48 4 -90.5 22t-74 51.5
t-50 82.5t-18.5 114zM476 265q0 48 -14.5 83.5t-38 58.5t-53 34.5t-60.5 11.5q-71 0 -119 -49t-48 -142q0 -53 14.5 -91t38 -61.5t53.5 -34.5t60 -11q32 0 62.5 12t53.5 36.5t37 63t14 89.5z" />
    <glyph glyph-name="R.small" horiz-adv-x="538" 
d="M512 38l6 -18q-10 -10 -27.5 -18t-42.5 -8q-54 0 -70.5 36t-20.5 97q-3 50 -25 71.5t-76 21.5h-85v-220h-98v525h208q93 0 145.5 -33t52.5 -102q0 -59 -32.5 -89.5t-83.5 -41.5q45 -10 66.5 -41.5t25.5 -83.5q3 -34 7.5 -55t13.5 -31q7 -7 15.5 -9t20.5 -1zM257 458h-86
v-171h90q50 0 84 19.5t34 70.5q0 45 -32.5 63t-89.5 18z" />
    <glyph glyph-name="S.small" horiz-adv-x="477" 
d="M223 52q50 0 81.5 18t31.5 56q0 49 -39.5 66.5t-102.5 35.5q-68 19 -106 51t-38 102q0 67 50.5 109.5t138.5 42.5q91 0 142 -41t47 -112h-51q-4 42 -39 65.5t-82 23.5q-49 0 -77 -17.5t-28 -55.5q0 -41 35 -59t95 -34q72 -19 116 -51.5t44 -104.5q0 -75 -57 -116
t-145 -41q-107 0 -155.5 48t-48.5 125h46q5 -52 42.5 -81.5t99.5 -29.5z" />
    <glyph glyph-name="T.small" horiz-adv-x="502" 
d="M8 523h486v-69h-194v-454h-98v454h-194v69z" />
    <glyph glyph-name="U.small" horiz-adv-x="573" 
d="M68 234v291h106v-278q0 -87 27.5 -134.5t102.5 -47.5q74 0 98 45.5t24 132.5v282h79v-287q0 -53 -10.5 -99t-35 -79t-65.5 -51.5t-100 -18.5q-69 0 -113 18.5t-69 51t-34.5 77.5t-9.5 97z" />
    <glyph glyph-name="V.small" horiz-adv-x="516" 
d="M3 525h114l155 -417l157 417h85l-205 -526h-101z" />
    <glyph glyph-name="W.small" horiz-adv-x="818" 
d="M8 525h109l127 -416l145 412h71l143 -410l126 414h82l-166 -526h-99l-134 368l-133 -368h-103z" />
    <glyph glyph-name="X.small" horiz-adv-x="536" 
d="M32 525h120l125 -192l127 192h91l-170 -247l187 -278h-120l-138 215l-142 -215h-92l184 269z" />
    <glyph glyph-name="Y.small" horiz-adv-x="495" 
d="M490 525l-189 -311v-214h-98v212l-198 313h109l151 -237l145 237h80z" />
    <glyph glyph-name="Z.small" horiz-adv-x="488" 
d="M35 63l292 395h-282v65h401v-60l-295 -396h302v-64h-418v60z" />
    <glyph glyph-name="Agrave.small" horiz-adv-x="534" 
d="M96 0h-81l207 525h102l195 -525h-111l-48 138h-213zM170 202h167l-81 233zM141 760l61 56l136 -182l-40 -33z" />
    <glyph glyph-name="Aacute.small" horiz-adv-x="534" 
d="M96 0h-81l207 525h102l195 -525h-111l-48 138h-213zM170 202h167l-81 233zM200 634l136 182l61 -56l-157 -159z" />
    <glyph glyph-name="Acircumflex.small" horiz-adv-x="534" 
d="M96 0h-81l207 525h102l195 -525h-111l-48 138h-213zM170 202h167l-81 233zM102 632l136 171h53l136 -171l-34 -32l-128 126l-129 -126z" />
    <glyph glyph-name="Atilde.small" horiz-adv-x="534" 
d="M96 0h-81l207 525h102l195 -525h-111l-48 138h-213zM170 202h167l-81 233zM130 631q-22 66 -2 109t72 43q31 0 49 -13t31 -28t25.5 -28t33.5 -13q30 0 37 25.5t-1 57.5h26q21 -64 1.5 -108t-71.5 -44q-29 0 -46 13t-29.5 28t-26.5 28t-37 13q-30 0 -37.5 -25.5t0.5 -57.5
h-25z" />
    <glyph glyph-name="Adieresis.small" horiz-adv-x="534" 
d="M96 0h-81l207 525h102l195 -525h-111l-48 138h-213zM170 202h167l-81 233zM131 666v94h93v-94h-93zM305 666v94h93v-94h-93z" />
    <glyph glyph-name="Amacron.small" horiz-adv-x="534" 
d="M96 0h-81l207 525h102l195 -525h-111l-48 138h-213zM170 202h167l-81 233zM126 760h276v-62h-276v62z" />
    <glyph glyph-name="Abreve.small" horiz-adv-x="534" 
d="M96 0h-81l207 525h102l195 -525h-111l-48 138h-213zM170 202h167l-81 233zM265 626q-43 0 -71.5 16t-45.5 40t-23 54t-4 58h37q1 -13 6 -29.5t16.5 -31.5t32 -25t52.5 -10t52.5 10t32 25t16.5 31.5t7 29.5h36q2 -28 -4 -58t-23 -54t-45.5 -40t-71.5 -16z" />
    <glyph glyph-name="Aring.small" horiz-adv-x="534" 
d="M96 0h-81l207 525h102l195 -525h-111l-48 138h-213zM170 202h167l-81 233zM156 732q0 44 30.5 74t77.5 30q50 0 80 -30t30 -74q0 -43 -30 -73.5t-80 -30.5q-48 0 -78 30.5t-30 73.5zM320 725q0 25 -15.5 41.5t-39.5 16.5q-25 0 -40.5 -16.5t-15.5 -41.5q0 -24 15.5 -40
t40.5 -16q24 0 39.5 16t15.5 40z" />
    <glyph glyph-name="Aringacute.small" horiz-adv-x="534" 
d="M96 0h-81l207 525h102l195 -525h-111l-48 138h-213zM170 202h167l-81 233zM161 686q0 44 30.5 74t77.5 30q50 0 80 -30t30 -74q0 -43 -30 -73.5t-80 -30.5q-48 0 -78 30.5t-30 73.5zM325 679q0 25 -15.5 41.5t-39.5 16.5q-25 0 -40.5 -16.5t-15.5 -41.5q0 -24 15.5 -40
t40.5 -16q24 0 39.5 16t15.5 40zM173 845l165 118l54 -67l-193 -78z" />
    <glyph glyph-name="Aogonek.small" horiz-adv-x="534" 
d="M96 0h-81l207 525h102l195 -525h-25q-24 0 -46 -11t-38.5 -29t-26 -40t-9.5 -44q0 -14 6.5 -26t26.5 -12q19 0 27 14t8 33h24q1 -38 -16 -65t-62 -27q-40 0 -58 21.5t-18 52.5q0 44 29 77t66 58l-47 136h-213zM170 202h167l-81 233z" />
    <glyph glyph-name="AE.small" horiz-adv-x="722" 
d="M97 0h-84l302 523h367v-65h-243v-164h194v-65h-194v-162h250v-64h-349v169h-145zM231 236h109v192z" />
    <glyph glyph-name="AEacute.small" horiz-adv-x="722" 
d="M97 0h-84l302 523h367v-65h-243v-164h194v-65h-194v-162h250v-64h-349v169h-145zM231 236h109v192zM416 634l136 182l61 -56l-157 -159z" />
    <glyph glyph-name="Cacute.small" horiz-adv-x="514" 
d="M40 258q0 130 69.5 202.5t182.5 72.5q57 0 95 -16.5t59 -40.5t29 -50.5t6 -46.5h-51q-2 8 -8.5 21t-20 25t-36.5 21t-57 9q-75 0 -119 -51t-44 -146q0 -98 45 -146t119 -48q37 0 63 9.5t42.5 23.5t25 29.5t10.5 27.5h41q0 -21 -8.5 -49.5t-30.5 -54t-61.5 -43
t-99.5 -17.5q-112 0 -181.5 67.5t-69.5 200.5zM222 634l136 182l61 -56l-157 -159z" />
    <glyph glyph-name="Ccircumflex.small" horiz-adv-x="514" 
d="M40 258q0 130 69.5 202.5t182.5 72.5q57 0 95 -16.5t59 -40.5t29 -50.5t6 -46.5h-51q-2 8 -8.5 21t-20 25t-36.5 21t-57 9q-75 0 -119 -51t-44 -146q0 -98 45 -146t119 -48q37 0 63 9.5t42.5 23.5t25 29.5t10.5 27.5h41q0 -21 -8.5 -49.5t-30.5 -54t-61.5 -43
t-99.5 -17.5q-112 0 -181.5 67.5t-69.5 200.5zM122 632l136 171h53l136 -171l-34 -32l-128 126l-129 -126z" />
    <glyph glyph-name="Ccaron.small" horiz-adv-x="514" 
d="M40 258q0 130 69.5 202.5t182.5 72.5q57 0 95 -16.5t59 -40.5t29 -50.5t6 -46.5h-51q-2 8 -8.5 21t-20 25t-36.5 21t-57 9q-75 0 -119 -51t-44 -146q0 -98 45 -146t119 -48q37 0 63 9.5t42.5 23.5t25 29.5t10.5 27.5h41q0 -21 -8.5 -49.5t-30.5 -54t-61.5 -43
t-99.5 -17.5q-112 0 -181.5 67.5t-69.5 200.5zM128 780l36 28l126 -126l127 126l36 -28l-136 -173h-53z" />
    <glyph glyph-name="Cdotaccent.small" horiz-adv-x="514" 
d="M40 258q0 130 69.5 202.5t182.5 72.5q57 0 95 -16.5t59 -40.5t29 -50.5t6 -46.5h-51q-2 8 -8.5 21t-20 25t-36.5 21t-57 9q-75 0 -119 -51t-44 -146q0 -98 45 -146t119 -48q37 0 63 9.5t42.5 23.5t25 29.5t10.5 27.5h41q0 -21 -8.5 -49.5t-30.5 -54t-61.5 -43
t-99.5 -17.5q-112 0 -181.5 67.5t-69.5 200.5zM237 662v98h107v-98h-107z" />
    <glyph glyph-name="Ccedilla.small" horiz-adv-x="514" 
d="M40 258q0 130 69.5 202.5t182.5 72.5q57 0 95 -16.5t59 -40.5t29 -50.5t6 -46.5h-51q-2 8 -8.5 21t-20 25t-36.5 21t-57 9q-75 0 -119 -51t-44 -146q0 -98 45 -146t119 -48q37 0 63 9.5t42.5 23.5t25 29.5t10.5 27.5h41q0 -21 -8.5 -49.5t-30.5 -54t-61.5 -43
t-99.5 -17.5q-112 0 -181.5 67.5t-69.5 200.5zM210 -115h24q-1 -22 7.5 -32.5t28.5 -10.5q15 0 24.5 10t9.5 29q0 27 -16 36t-42 4l-19 10l20 73l31 -4l-7 -46q41 6 68.5 -12t27.5 -61q0 -40 -23.5 -60t-59.5 -20q-45 0 -61.5 25t-12.5 59z" />
    <glyph glyph-name="Dcaron.small" horiz-adv-x="575" 
d="M73 525h164q80 0 138 -19.5t95 -54t55 -82t18 -102.5q0 -76 -24.5 -127.5t-65.5 -82.5t-96 -44t-116 -13h-168v525zM240 458h-69v-391h74q89 0 141 49t52 151q0 83 -46 137t-152 54zM102 780l36 28l126 -126l127 126l36 -28l-136 -173h-53z" />
    <glyph glyph-name="Dcroat.small" horiz-adv-x="575" 
d="M10 288h63v237h164q80 0 138 -19.5t95 -54t55 -82t18 -102.5q0 -76 -24.5 -127.5t-65.5 -82.5t-96 -44t-116 -13h-168v238h-63v50zM278 238h-107v-171h74q89 0 141 49t52 151q0 83 -46 137t-152 54h-69v-170h107v-50z" />
    <glyph glyph-name="Egrave.small" horiz-adv-x="474" 
d="M388 238h-217v-168h273v-67h-371v520h364v-67h-266v-151h217v-67zM134 760l61 56l136 -182l-40 -33z" />
    <glyph glyph-name="Eacute.small" horiz-adv-x="474" 
d="M388 238h-217v-168h273v-67h-371v520h364v-67h-266v-151h217v-67zM176 634l136 182l61 -56l-157 -159z" />
    <glyph glyph-name="Ecircumflex.small" horiz-adv-x="474" 
d="M388 238h-217v-168h273v-67h-371v520h364v-67h-266v-151h217v-67zM93 632l136 171h53l136 -171l-34 -32l-128 126l-129 -126z" />
    <glyph glyph-name="Ecaron.small" horiz-adv-x="474" 
d="M388 238h-217v-168h273v-67h-371v520h364v-67h-266v-151h217v-67zM98 780l36 28l126 -126l127 126l36 -28l-136 -173h-53z" />
    <glyph glyph-name="Edieresis.small" horiz-adv-x="474" 
d="M388 238h-217v-168h273v-67h-371v520h364v-67h-266v-151h217v-67zM126 666v94h93v-94h-93zM300 666v94h93v-94h-93z" />
    <glyph glyph-name="Emacron.small" horiz-adv-x="474" 
d="M388 238h-217v-168h273v-67h-371v520h364v-67h-266v-151h217v-67zM117 760h276v-62h-276v62z" />
    <glyph glyph-name="Ebreve.small" horiz-adv-x="474" 
d="M388 238h-217v-168h273v-67h-371v520h364v-67h-266v-151h217v-67zM260 626q-43 0 -71.5 16t-45.5 40t-23 54t-4 58h37q1 -13 6 -29.5t16.5 -31.5t32 -25t52.5 -10t52.5 10t32 25t16.5 31.5t7 29.5h36q2 -28 -4 -58t-23 -54t-45.5 -40t-71.5 -16z" />
    <glyph glyph-name="Edotaccent.small" horiz-adv-x="474" 
d="M388 238h-217v-168h273v-67h-371v520h364v-67h-266v-151h217v-67zM204 662v98h107v-98h-107z" />
    <glyph glyph-name="Eogonek.small" horiz-adv-x="474" 
d="M278 -125q0 39 23 71t56 57h-284v520h364v-67h-266v-151h217v-67h-217v-168h273v-67h-7q-22 0 -40 -11.5t-30.5 -29t-19.5 -38.5t-7 -40q0 -22 8.5 -34t28.5 -12q19 0 27.5 14t8.5 33h24q1 -38 -16.5 -65t-62.5 -27q-40 0 -60 21.5t-20 60.5z" />
    <glyph glyph-name="FI.small" horiz-adv-x="685" 
d="M73 523h362v-67h-264v-159h203v-67h-203v-230h-98v523zM514 525h98v-525h-98v525z" />
    <glyph glyph-name="FL.small" horiz-adv-x="880" 
d="M73 523h362v-67h-264v-159h203v-67h-203v-230h-98v523zM509 525h98v-453h266v-69h-364v522z" />
    <glyph glyph-name="Gcircumflex.small" horiz-adv-x="571" 
d="M38 256q0 67 20 119t54.5 87t82 53t102.5 18q59 0 97.5 -16.5t60.5 -40t30 -50t6 -46.5h-50q-2 8 -9 21t-21.5 25t-38 20.5t-58.5 8.5q-73 0 -122 -54.5t-49 -149.5q0 -90 44.5 -141t122.5 -51q60 0 88.5 19.5t35.5 29.5v90h-103v64h182v-162q-10 -20 -27.5 -39.5
t-43 -35t-60.5 -25.5t-81 -10q-124 0 -193.5 69t-69.5 197zM126 632l136 171h53l136 -171l-34 -32l-128 126l-129 -126z" />
    <glyph glyph-name="Gbreve.small" horiz-adv-x="571" 
d="M38 256q0 67 20 119t54.5 87t82 53t102.5 18q59 0 97.5 -16.5t60.5 -40t30 -50t6 -46.5h-50q-2 8 -9 21t-21.5 25t-38 20.5t-58.5 8.5q-73 0 -122 -54.5t-49 -149.5q0 -90 44.5 -141t122.5 -51q60 0 88.5 19.5t35.5 29.5v90h-103v64h182v-162q-10 -20 -27.5 -39.5
t-43 -35t-60.5 -25.5t-81 -10q-124 0 -193.5 69t-69.5 197zM291 626q-43 0 -71.5 16t-45.5 40t-23 54t-4 58h37q1 -13 6 -29.5t16.5 -31.5t32 -25t52.5 -10t52.5 10t32 25t16.5 31.5t7 29.5h36q2 -28 -4 -58t-23 -54t-45.5 -40t-71.5 -16z" />
    <glyph glyph-name="Gdotaccent.small" horiz-adv-x="571" 
d="M38 256q0 67 20 119t54.5 87t82 53t102.5 18q59 0 97.5 -16.5t60.5 -40t30 -50t6 -46.5h-50q-2 8 -9 21t-21.5 25t-38 20.5t-58.5 8.5q-73 0 -122 -54.5t-49 -149.5q0 -90 44.5 -141t122.5 -51q60 0 88.5 19.5t35.5 29.5v90h-103v64h182v-162q-10 -20 -27.5 -39.5
t-43 -35t-60.5 -25.5t-81 -10q-124 0 -193.5 69t-69.5 197zM243 662v98h107v-98h-107z" />
    <glyph glyph-name="Gcommaaccent.small" horiz-adv-x="571" 
d="M38 256q0 67 20 119t54.5 87t82 53t102.5 18q59 0 97.5 -16.5t60.5 -40t30 -50t6 -46.5h-50q-2 8 -9 21t-21.5 25t-38 20.5t-58.5 8.5q-73 0 -122 -54.5t-49 -149.5q0 -90 44.5 -141t122.5 -51q60 0 88.5 19.5t35.5 29.5v90h-103v64h182v-162q-10 -20 -27.5 -39.5
t-43 -35t-60.5 -25.5t-81 -10q-124 0 -193.5 69t-69.5 197zM218 -218l46 163h78l-75 -174z" />
    <glyph glyph-name="Hcircumflex.small" horiz-adv-x="595" 
d="M73 525h98v-218h259v218h98v-525h-98v240h-259v-240h-98v525zM135 632l136 171h53l136 -171l-34 -32l-128 126l-129 -126z" />
    <glyph glyph-name="Hbar.small" horiz-adv-x="595" 
d="M20 456h53v69h98v-69h259v69h98v-69h47v-50h-47v-406h-98v240h-259v-240h-98v406h-53v50zM171 307h259v99h-259v-99z" />
    <glyph glyph-name="Igrave.small" horiz-adv-x="249" 
d="M78 525h98v-525h-98v525zM9 760l61 56l136 -182l-40 -33z" />
    <glyph glyph-name="Iacute.small" horiz-adv-x="249" 
d="M78 525h98v-525h-98v525zM47 634l136 182l61 -56l-157 -159z" />
    <glyph glyph-name="Icircumflex.small" horiz-adv-x="249" 
d="M78 525h98v-525h-98v525zM-38 632l136 171h53l136 -171l-34 -32l-128 126l-129 -126z" />
    <glyph glyph-name="Itilde.small" horiz-adv-x="249" 
d="M78 525h98v-525h-98v525zM-10 631q-22 66 -2 109t72 43q31 0 49 -13t31 -28t25.5 -28t33.5 -13q30 0 37 25.5t-1 57.5h26q21 -64 1.5 -108t-71.5 -44q-29 0 -46 13t-29.5 28t-26.5 28t-37 13q-30 0 -37.5 -25.5t0.5 -57.5h-25z" />
    <glyph glyph-name="Idieresis.small" horiz-adv-x="249" 
d="M78 525h98v-525h-98v525zM-9 666v94h93v-94h-93zM165 666v94h93v-94h-93z" />
    <glyph glyph-name="Imacron.small" horiz-adv-x="249" 
d="M78 525h98v-525h-98v525zM-14 760h276v-62h-276v62z" />
    <glyph glyph-name="Ibreve.small" horiz-adv-x="249" 
d="M78 525h98v-525h-98v525zM125 626q-43 0 -71.5 16t-45.5 40t-23 54t-4 58h37q1 -13 6 -29.5t16.5 -31.5t32 -25t52.5 -10t52.5 10t32 25t16.5 31.5t7 29.5h36q2 -28 -4 -58t-23 -54t-45.5 -40t-71.5 -16z" />
    <glyph glyph-name="Idotaccent.small" horiz-adv-x="254" 
d="M78 525h98v-525h-98v525zM73 662v98h107v-98h-107z" />
    <glyph glyph-name="Iogonek.small" horiz-adv-x="249" 
d="M44 -124q0 37 22.5 69t48.5 55h-37v525h98v-525h-1q-32 -13 -50.5 -46.5t-18.5 -68.5q0 -23 9 -35t30 -12q18 0 26.5 14t8.5 33h24q1 -38 -16.5 -65t-61.5 -27q-40 0 -61 21.5t-21 61.5z" />
    <glyph glyph-name="IJ.small" horiz-adv-x="644" 
d="M78 525h98v-525h-98v525zM268 145h43q1 -32 22.5 -56.5t64.5 -24.5q50 0 68 35.5t18 92.5v333h98v-341q0 -41 -8 -76.5t-26.5 -61.5t-49.5 -41t-76 -15q-46 0 -76 13t-47 34t-24 49.5t-7 58.5z" />
    <glyph glyph-name="Jcircumflex.small" horiz-adv-x="390" 
d="M14 145h43q1 -32 22.5 -56.5t64.5 -24.5q50 0 68 35.5t18 92.5v333h98v-341q0 -41 -8 -76.5t-26.5 -61.5t-49.5 -41t-76 -15q-46 0 -76 13t-47 34t-24 49.5t-7 58.5zM108 632l136 171h53l136 -171l-34 -32l-128 126l-129 -126z" />
    <glyph glyph-name="Kcommaaccent.small" horiz-adv-x="543" 
d="M73 525h98v-243l238 243h92l-212 -214l241 -311h-123l-186 243l-50 -51v-192h-98v525zM197 -218l46 163h78l-75 -174z" />
    <glyph glyph-name="Lacute.small" horiz-adv-x="444" 
d="M73 525h98v-453h266v-69h-364v522zM92 634l136 182l61 -56l-157 -159z" />
    <glyph glyph-name="Lcaron.small" horiz-adv-x="443" 
d="M71 525h98v-453h266v-69h-364v522zM279 326l38 199h80l-62 -199h-56z" />
    <glyph glyph-name="Lcommaaccent.small" horiz-adv-x="444" 
d="M73 525h98v-453h266v-69h-364v522zM189 -218l46 163h78l-75 -174z" />
    <glyph glyph-name="Lslash.small" horiz-adv-x="444" 
d="M15 135v77l58 41v272h98v-204l112 79v-77l-112 -79v-172h266v-69h-364v173z" />
    <glyph glyph-name="Ldot.small" horiz-adv-x="454" 
d="M73 525h98v-453h266v-69h-364v522zM266 246v99h99v-99h-99z" />
    <glyph glyph-name="Nacute.small" horiz-adv-x="596" 
d="M73 525h91l287 -370v370h78v-525h-74l-305 392v-392h-77v525zM244 634l136 182l61 -56l-157 -159z" />
    <glyph glyph-name="Ncaron.small" horiz-adv-x="596" 
d="M73 525h91l287 -370v370h78v-525h-74l-305 392v-392h-77v525zM147 780l36 28l126 -126l127 126l36 -28l-136 -173h-53z" />
    <glyph glyph-name="Ntilde.small" horiz-adv-x="596" 
d="M73 525h91l287 -370v370h78v-525h-74l-305 392v-392h-77v525zM165 631q-22 66 -2 109t72 43q31 0 49 -13t31 -28t25.5 -28t33.5 -13q30 0 37 25.5t-1 57.5h26q21 -64 1.5 -108t-71.5 -44q-29 0 -46 13t-29.5 28t-26.5 28t-37 13q-30 0 -37.5 -25.5t0.5 -57.5h-25z" />
    <glyph glyph-name="Ncommaaccent.small" horiz-adv-x="596" 
d="M73 525h91l287 -370v370h78v-525h-74l-305 392v-392h-77v525zM217 -218l46 163h78l-75 -174z" />
    <glyph glyph-name="Ograve.small" horiz-adv-x="597" 
d="M38 261q0 64 20 114.5t54.5 85.5t83 53.5t105.5 18.5q48 0 94.5 -16t83 -48.5t59 -83t22.5 -119.5q0 -131 -71.5 -203.5t-187.5 -72.5q-53 0 -101 16.5t-84 49.5t-57 84.5t-21 120.5zM476 265q0 48 -14.5 83.5t-38 58.5t-53 34.5t-60.5 11.5q-71 0 -119 -49t-48 -142
q0 -53 14.5 -91t38 -61.5t53.5 -34.5t60 -11q32 0 62.5 12t53.5 36.5t37 63t14 89.5zM164 760l61 56l136 -182l-40 -33z" />
    <glyph glyph-name="Oacute.small" horiz-adv-x="597" 
d="M38 261q0 64 20 114.5t54.5 85.5t83 53.5t105.5 18.5q48 0 94.5 -16t83 -48.5t59 -83t22.5 -119.5q0 -131 -71.5 -203.5t-187.5 -72.5q-53 0 -101 16.5t-84 49.5t-57 84.5t-21 120.5zM476 265q0 48 -14.5 83.5t-38 58.5t-53 34.5t-60.5 11.5q-71 0 -119 -49t-48 -142
q0 -53 14.5 -91t38 -61.5t53.5 -34.5t60 -11q32 0 62.5 12t53.5 36.5t37 63t14 89.5zM226 634l136 182l61 -56l-157 -159z" />
    <glyph glyph-name="Ocircumflex.small" horiz-adv-x="597" 
d="M38 261q0 64 20 114.5t54.5 85.5t83 53.5t105.5 18.5q48 0 94.5 -16t83 -48.5t59 -83t22.5 -119.5q0 -131 -71.5 -203.5t-187.5 -72.5q-53 0 -101 16.5t-84 49.5t-57 84.5t-21 120.5zM476 265q0 48 -14.5 83.5t-38 58.5t-53 34.5t-60.5 11.5q-71 0 -119 -49t-48 -142
q0 -53 14.5 -91t38 -61.5t53.5 -34.5t60 -11q32 0 62.5 12t53.5 36.5t37 63t14 89.5zM136 632l136 171h53l136 -171l-34 -32l-128 126l-129 -126z" />
    <glyph glyph-name="Otilde.small" horiz-adv-x="597" 
d="M38 261q0 64 20 114.5t54.5 85.5t83 53.5t105.5 18.5q48 0 94.5 -16t83 -48.5t59 -83t22.5 -119.5q0 -131 -71.5 -203.5t-187.5 -72.5q-53 0 -101 16.5t-84 49.5t-57 84.5t-21 120.5zM476 265q0 48 -14.5 83.5t-38 58.5t-53 34.5t-60.5 11.5q-71 0 -119 -49t-48 -142
q0 -53 14.5 -91t38 -61.5t53.5 -34.5t60 -11q32 0 62.5 12t53.5 36.5t37 63t14 89.5zM164 631q-22 66 -2 109t72 43q31 0 49 -13t31 -28t25.5 -28t33.5 -13q30 0 37 25.5t-1 57.5h26q21 -64 1.5 -108t-71.5 -44q-29 0 -46 13t-29.5 28t-26.5 28t-37 13q-30 0 -37.5 -25.5
t0.5 -57.5h-25z" />
    <glyph glyph-name="Odieresis.small" horiz-adv-x="597" 
d="M38 261q0 64 20 114.5t54.5 85.5t83 53.5t105.5 18.5q48 0 94.5 -16t83 -48.5t59 -83t22.5 -119.5q0 -131 -71.5 -203.5t-187.5 -72.5q-53 0 -101 16.5t-84 49.5t-57 84.5t-21 120.5zM476 265q0 48 -14.5 83.5t-38 58.5t-53 34.5t-60.5 11.5q-71 0 -119 -49t-48 -142
q0 -53 14.5 -91t38 -61.5t53.5 -34.5t60 -11q32 0 62.5 12t53.5 36.5t37 63t14 89.5zM166 666v94h93v-94h-93zM340 666v94h93v-94h-93z" />
    <glyph glyph-name="Omacron.small" horiz-adv-x="597" 
d="M38 261q0 64 20 114.5t54.5 85.5t83 53.5t105.5 18.5q48 0 94.5 -16t83 -48.5t59 -83t22.5 -119.5q0 -131 -71.5 -203.5t-187.5 -72.5q-53 0 -101 16.5t-84 49.5t-57 84.5t-21 120.5zM476 265q0 48 -14.5 83.5t-38 58.5t-53 34.5t-60.5 11.5q-71 0 -119 -49t-48 -142
q0 -53 14.5 -91t38 -61.5t53.5 -34.5t60 -11q32 0 62.5 12t53.5 36.5t37 63t14 89.5zM160 760h276v-62h-276v62z" />
    <glyph glyph-name="Obreve.small" horiz-adv-x="597" 
d="M38 262q0 64 20 114.5t54.5 85.5t83 53.5t105.5 18.5q48 0 94.5 -16t83 -48.5t59 -83t22.5 -119.5q0 -131 -71.5 -203.5t-187.5 -72.5q-53 0 -101 16.5t-84 49.5t-57 84.5t-21 120.5zM476 266q0 48 -14.5 83.5t-38 58.5t-53 34.5t-60.5 11.5q-71 0 -119 -49t-48 -142
q0 -53 14.5 -91t38 -61.5t53.5 -34.5t60 -11q32 0 62.5 12t53.5 36.5t37 63t14 89.5zM299 626q-43 0 -71.5 16t-45.5 40t-23 54t-4 58h37q1 -13 6 -29.5t16.5 -31.5t32 -25t52.5 -10t52.5 10t32 25t16.5 31.5t7 29.5h36q2 -28 -4 -58t-23 -54t-45.5 -40t-71.5 -16z" />
    <glyph glyph-name="Ohungarumlaut.small" horiz-adv-x="597" 
d="M38 261q0 64 20 114.5t54.5 85.5t83 53.5t105.5 18.5q48 0 94.5 -16t83 -48.5t59 -83t22.5 -119.5q0 -131 -71.5 -203.5t-187.5 -72.5q-53 0 -101 16.5t-84 49.5t-57 84.5t-21 120.5zM476 265q0 48 -14.5 83.5t-38 58.5t-53 34.5t-60.5 11.5q-71 0 -119 -49t-48 -142
q0 -53 14.5 -91t38 -61.5t53.5 -34.5t60 -11q32 0 62.5 12t53.5 36.5t37 63t14 89.5zM174 627l83 186l64 -26l-99 -183zM344 627l89 183l61 -30l-102 -176z" />
    <glyph glyph-name="Oslash.small" horiz-adv-x="597" 
d="M38 261q0 64 20 114.5t54.5 85.5t83 53.5t105.5 18.5q41 0 81.5 -11.5t74.5 -35.5l34 39h71l-64 -75q28 -33 45 -78.5t17 -105.5q0 -131 -71.5 -203.5t-187.5 -72.5q-43 0 -83.5 11t-73.5 33l-36 -42h-73l67 78q-30 34 -47 81.5t-17 109.5zM143 262q0 -36 6.5 -64.5
t18.5 -50.5l236 276q-21 15 -45 22.5t-49 7.5q-71 0 -119 -49t-48 -142zM476 265q0 37 -9 67.5t-25 52.5l-240 -282q23 -20 51 -29.5t56 -9.5q32 0 62.5 12t53.5 36.5t37 63t14 89.5z" />
    <glyph glyph-name="Oslashacute.small" horiz-adv-x="597" 
d="M38 261q0 64 20 114.5t54.5 85.5t83 53.5t105.5 18.5q41 0 81.5 -11.5t74.5 -35.5l34 39h71l-64 -75q28 -33 45 -78.5t17 -105.5q0 -131 -71.5 -203.5t-187.5 -72.5q-43 0 -83.5 11t-73.5 33l-36 -42h-73l67 78q-30 34 -47 81.5t-17 109.5zM143 262q0 -36 6.5 -64.5
t18.5 -50.5l236 276q-21 15 -45 22.5t-49 7.5q-71 0 -119 -49t-48 -142zM476 265q0 37 -9 67.5t-25 52.5l-240 -282q23 -20 51 -29.5t56 -9.5q32 0 62.5 12t53.5 36.5t37 63t14 89.5zM230 634l136 182l61 -56l-157 -159z" />
    <glyph glyph-name="OE.small" horiz-adv-x="820" 
d="M38 261q0 124 69.5 198t181.5 74q55 0 100 -18.5t76 -56.5v65h317v-65h-250v-153h202v-65h-202v-173h257v-64h-324v64q-28 -37 -72.5 -57t-104.5 -20q-51 0 -97 16.5t-79.5 50t-53.5 85t-20 119.5zM450 265q0 94 -45.5 140.5t-105.5 46.5q-72 0 -114 -51t-42 -140
q0 -102 46 -149.5t108 -47.5q64 0 108.5 50t44.5 151z" />
    <glyph glyph-name="Racute.small" horiz-adv-x="533" 
d="M512 38l6 -18q-10 -10 -27.5 -18t-42.5 -8q-54 0 -70.5 36t-20.5 97q-3 50 -25 71.5t-76 21.5h-85v-220h-98v525h208q93 0 145.5 -33t52.5 -102q0 -59 -32.5 -89.5t-83.5 -41.5q45 -10 66.5 -41.5t25.5 -83.5q3 -34 7.5 -55t13.5 -31q7 -7 15.5 -9t20.5 -1zM257 458h-86
v-171h90q50 0 84 19.5t34 70.5q0 45 -32.5 63t-89.5 18zM166 634l136 182l61 -56l-157 -159z" />
    <glyph glyph-name="Rcaron.small" horiz-adv-x="533" 
d="M512 38l6 -18q-10 -10 -27.5 -18t-42.5 -8q-54 0 -70.5 36t-20.5 97q-3 50 -25 71.5t-76 21.5h-85v-220h-98v525h208q93 0 145.5 -33t52.5 -102q0 -59 -32.5 -89.5t-83.5 -41.5q45 -10 66.5 -41.5t25.5 -83.5q3 -34 7.5 -55t13.5 -31q7 -7 15.5 -9t20.5 -1zM257 458h-86
v-171h90q50 0 84 19.5t34 70.5q0 45 -32.5 63t-89.5 18zM97 780l36 28l126 -126l127 126l36 -28l-136 -173h-53z" />
    <glyph glyph-name="Rcommaaccent.small" horiz-adv-x="533" 
d="M512 38l6 -18q-10 -10 -27.5 -18t-42.5 -8q-54 0 -70.5 36t-20.5 97q-3 50 -25 71.5t-76 21.5h-85v-220h-98v525h208q93 0 145.5 -33t52.5 -102q0 -59 -32.5 -89.5t-83.5 -41.5q45 -10 66.5 -41.5t25.5 -83.5q3 -34 7.5 -55t13.5 -31q7 -7 15.5 -9t20.5 -1zM257 458h-86
v-171h90q50 0 84 19.5t34 70.5q0 45 -32.5 63t-89.5 18zM193 -218l46 163h78l-75 -174z" />
    <glyph glyph-name="germandbls.small" horiz-adv-x="957" 
d="M223 52q50 0 81.5 18t31.5 56q0 49 -39.5 66.5t-102.5 35.5q-68 19 -106 51t-38 102q0 67 50.5 109.5t138.5 42.5q91 0 142 -41t47 -112h-51q-4 42 -39 65.5t-82 23.5q-49 0 -77 -17.5t-28 -55.5q0 -41 35 -59t95 -34q72 -19 116 -51.5t44 -104.5q0 -75 -57 -116
t-145 -41q-107 0 -155.5 48t-48.5 125h46q5 -52 42.5 -81.5t99.5 -29.5zM703 52q50 0 81.5 18t31.5 56q0 49 -39.5 66.5t-102.5 35.5q-68 19 -106 51t-38 102q0 67 50.5 109.5t138.5 42.5q91 0 142 -41t47 -112h-51q-4 42 -39 65.5t-82 23.5q-49 0 -77 -17.5t-28 -55.5
q0 -41 35 -59t95 -34q72 -19 116 -51.5t44 -104.5q0 -75 -57 -116t-145 -41q-107 0 -155.5 48t-48.5 125h46q5 -52 42.5 -81.5t99.5 -29.5z" />
    <glyph glyph-name="Sacute.small" horiz-adv-x="477" 
d="M223 52q50 0 81.5 18t31.5 56q0 49 -39.5 66.5t-102.5 35.5q-68 19 -106 51t-38 102q0 67 50.5 109.5t138.5 42.5q91 0 142 -41t47 -112h-51q-4 42 -39 65.5t-82 23.5q-49 0 -77 -17.5t-28 -55.5q0 -41 35 -59t95 -34q72 -19 116 -51.5t44 -104.5q0 -75 -57 -116
t-145 -41q-107 0 -155.5 48t-48.5 125h46q5 -52 42.5 -81.5t99.5 -29.5zM162 634l136 182l61 -56l-157 -159z" />
    <glyph glyph-name="Scircumflex.small" horiz-adv-x="477" 
d="M223 52q50 0 81.5 18t31.5 56q0 49 -39.5 66.5t-102.5 35.5q-68 19 -106 51t-38 102q0 67 50.5 109.5t138.5 42.5q91 0 142 -41t47 -112h-51q-4 42 -39 65.5t-82 23.5q-49 0 -77 -17.5t-28 -55.5q0 -41 35 -59t95 -34q72 -19 116 -51.5t44 -104.5q0 -75 -57 -116
t-145 -41q-107 0 -155.5 48t-48.5 125h46q5 -52 42.5 -81.5t99.5 -29.5zM73 632l136 171h53l136 -171l-34 -32l-128 126l-129 -126z" />
    <glyph glyph-name="Scaron.small" horiz-adv-x="477" 
d="M223 52q50 0 81.5 18t31.5 56q0 49 -39.5 66.5t-102.5 35.5q-68 19 -106 51t-38 102q0 67 50.5 109.5t138.5 42.5q91 0 142 -41t47 -112h-51q-4 42 -39 65.5t-82 23.5q-49 0 -77 -17.5t-28 -55.5q0 -41 35 -59t95 -34q72 -19 116 -51.5t44 -104.5q0 -75 -57 -116
t-145 -41q-107 0 -155.5 48t-48.5 125h46q5 -52 42.5 -81.5t99.5 -29.5zM73 780l36 28l126 -126l127 126l36 -28l-136 -173h-53z" />
    <glyph glyph-name="Scedilla.small" horiz-adv-x="477" 
d="M223 52q50 0 81.5 18t31.5 56q0 49 -39.5 66.5t-102.5 35.5q-68 19 -106 51t-38 102q0 67 50.5 109.5t138.5 42.5q91 0 142 -41t47 -112h-51q-4 42 -39 65.5t-82 23.5q-49 0 -77 -17.5t-28 -55.5q0 -41 35 -59t95 -34q72 -19 116 -51.5t44 -104.5q0 -75 -57 -116
t-145 -41q-107 0 -155.5 48t-48.5 125h46q5 -52 42.5 -81.5t99.5 -29.5zM184 -115h24q-1 -22 7.5 -32.5t28.5 -10.5q15 0 24.5 10t9.5 29q0 27 -16 36t-42 4l-19 10l20 73l31 -4l-7 -46q41 6 68.5 -12t27.5 -61q0 -40 -23.5 -60t-59.5 -20q-45 0 -61.5 25t-12.5 59z" />
    <glyph glyph-name="Scommaaccent.small" horiz-adv-x="477" 
d="M223 52q50 0 81.5 18t31.5 56q0 49 -39.5 66.5t-102.5 35.5q-68 19 -106 51t-38 102q0 67 50.5 109.5t138.5 42.5q91 0 142 -41t47 -112h-51q-4 42 -39 65.5t-82 23.5q-49 0 -77 -17.5t-28 -55.5q0 -41 35 -59t95 -34q72 -19 116 -51.5t44 -104.5q0 -75 -57 -116
t-145 -41q-107 0 -155.5 48t-48.5 125h46q5 -52 42.5 -81.5t99.5 -29.5zM169 -218l46 163h78l-75 -174z" />
    <glyph glyph-name="Tcaron.small" horiz-adv-x="502" 
d="M8 523h486v-69h-194v-454h-98v454h-194v69zM88 780l36 28l126 -126l127 126l36 -28l-136 -173h-53z" />
    <glyph glyph-name="Tcommaaccent.small" horiz-adv-x="502" 
d="M8 523h486v-69h-194v-454h-98v454h-194v69zM169 -218l46 163h78l-75 -174z" />
    <glyph glyph-name="Tcedilla.small" horiz-adv-x="502" 
d="M8 523h486v-69h-194v-454h-98v454h-194v69zM186 -115h24q-1 -22 7.5 -32.5t28.5 -10.5q15 0 24.5 10t9.5 29q0 27 -16 36t-42 4l-19 10l20 73l31 -4l-7 -46q41 6 68.5 -12t27.5 -61q0 -40 -23.5 -60t-59.5 -20q-45 0 -61.5 25t-12.5 59z" />
    <glyph glyph-name="Tbar.small" horiz-adv-x="502" 
d="M107 287h95v167h-194v69h486v-69h-194v-167h95v-50h-95v-237h-98v237h-95v50z" />
    <glyph glyph-name="Ugrave.small" horiz-adv-x="568" 
d="M68 234v291h106v-278q0 -87 27.5 -134.5t102.5 -47.5q74 0 98 45.5t24 132.5v282h79v-287q0 -53 -10.5 -99t-35 -79t-65.5 -51.5t-100 -18.5q-69 0 -113 18.5t-69 51t-34.5 77.5t-9.5 97zM178 760l61 56l136 -182l-40 -33z" />
    <glyph glyph-name="Uacute.small" horiz-adv-x="568" 
d="M68 234v291h106v-278q0 -87 27.5 -134.5t102.5 -47.5q74 0 98 45.5t24 132.5v282h79v-287q0 -53 -10.5 -99t-35 -79t-65.5 -51.5t-100 -18.5q-69 0 -113 18.5t-69 51t-34.5 77.5t-9.5 97zM236 634l136 182l61 -56l-157 -159z" />
    <glyph glyph-name="Ucircumflex.small" horiz-adv-x="568" 
d="M68 234v291h106v-278q0 -87 27.5 -134.5t102.5 -47.5q74 0 98 45.5t24 132.5v282h79v-287q0 -53 -10.5 -99t-35 -79t-65.5 -51.5t-100 -18.5q-69 0 -113 18.5t-69 51t-34.5 77.5t-9.5 97zM136 632l136 171h53l136 -171l-34 -32l-128 126l-129 -126z" />
    <glyph glyph-name="Utilde.small" horiz-adv-x="568" 
d="M68 234v291h106v-278q0 -87 27.5 -134.5t102.5 -47.5q74 0 98 45.5t24 132.5v282h79v-287q0 -53 -10.5 -99t-35 -79t-65.5 -51.5t-100 -18.5q-69 0 -113 18.5t-69 51t-34.5 77.5t-9.5 97zM160 631q-22 66 -2 109t72 43q31 0 49 -13t31 -28t25.5 -28t33.5 -13
q30 0 37 25.5t-1 57.5h26q21 -64 1.5 -108t-71.5 -44q-29 0 -46 13t-29.5 28t-26.5 28t-37 13q-30 0 -37.5 -25.5t0.5 -57.5h-25z" />
    <glyph glyph-name="Udieresis.small" horiz-adv-x="568" 
d="M68 234v291h106v-278q0 -87 27.5 -134.5t102.5 -47.5q74 0 98 45.5t24 132.5v282h79v-287q0 -53 -10.5 -99t-35 -79t-65.5 -51.5t-100 -18.5q-69 0 -113 18.5t-69 51t-34.5 77.5t-9.5 97zM167 666v94h93v-94h-93zM341 666v94h93v-94h-93z" />
    <glyph glyph-name="Umacron.small" horiz-adv-x="568" 
d="M68 234v291h106v-278q0 -87 27.5 -134.5t102.5 -47.5q74 0 98 45.5t24 132.5v282h79v-287q0 -53 -10.5 -99t-35 -79t-65.5 -51.5t-100 -18.5q-69 0 -113 18.5t-69 51t-34.5 77.5t-9.5 97zM152 760h276v-62h-276v62z" />
    <glyph glyph-name="Ubreve.small" horiz-adv-x="568" 
d="M68 234v291h106v-278q0 -87 27.5 -134.5t102.5 -47.5q74 0 98 45.5t24 132.5v282h79v-287q0 -53 -10.5 -99t-35 -79t-65.5 -51.5t-100 -18.5q-69 0 -113 18.5t-69 51t-34.5 77.5t-9.5 97zM301 626q-43 0 -71.5 16t-45.5 40t-23 54t-4 58h37q1 -13 6 -29.5t16.5 -31.5
t32 -25t52.5 -10t52.5 10t32 25t16.5 31.5t7 29.5h36q2 -28 -4 -58t-23 -54t-45.5 -40t-71.5 -16z" />
    <glyph glyph-name="Uring.small" horiz-adv-x="568" 
d="M68 234v291h106v-278q0 -87 27.5 -134.5t102.5 -47.5q74 0 98 45.5t24 132.5v282h79v-287q0 -53 -10.5 -99t-35 -79t-65.5 -51.5t-100 -18.5q-69 0 -113 18.5t-69 51t-34.5 77.5t-9.5 97zM191 732q0 44 30.5 74t77.5 30q50 0 80 -30t30 -74q0 -43 -30 -73.5t-80 -30.5
q-48 0 -78 30.5t-30 73.5zM355 725q0 25 -15.5 41.5t-39.5 16.5q-25 0 -40.5 -16.5t-15.5 -41.5q0 -24 15.5 -40t40.5 -16q24 0 39.5 16t15.5 40z" />
    <glyph glyph-name="Uhungarumlaut.small" horiz-adv-x="568" 
d="M68 234v291h106v-278q0 -87 27.5 -134.5t102.5 -47.5q74 0 98 45.5t24 132.5v282h79v-287q0 -53 -10.5 -99t-35 -79t-65.5 -51.5t-100 -18.5q-69 0 -113 18.5t-69 51t-34.5 77.5t-9.5 97zM172 627l83 186l64 -26l-99 -183zM342 627l89 183l61 -30l-102 -176z" />
    <glyph glyph-name="Uogonek.small" horiz-adv-x="568" 
d="M68 234v291h106v-278q0 -87 27.5 -134.5t102.5 -47.5q74 0 98 45.5t24 132.5v282h79v-287q0 -53 -10.5 -99t-35 -79t-65.5 -51.5t-100 -18.5q-69 0 -113 18.5t-69 51t-34.5 77.5t-9.5 97zM320 -123q0 31 12.5 57.5t32 50t43.5 45.5t46 44l11 -4q-31 -40 -53.5 -90
t-22.5 -94q0 -21 8 -33t29 -12q16 0 24.5 12.5t8.5 31.5h27q1 -38 -16.5 -65t-61.5 -27q-40 0 -64 19t-24 65z" />
    <glyph glyph-name="Wgrave.small" horiz-adv-x="818" 
d="M8 525h109l127 -416l145 412h71l143 -410l126 414h82l-166 -526h-99l-134 368l-133 -368h-103zM277 760l61 56l136 -182l-40 -33z" />
    <glyph glyph-name="Wacute.small" horiz-adv-x="818" 
d="M8 525h109l127 -416l145 412h71l143 -410l126 414h82l-166 -526h-99l-134 368l-133 -368h-103zM391 634l136 182l61 -56l-157 -159z" />
    <glyph glyph-name="Wcircumflex.small" horiz-adv-x="818" 
d="M8 525h109l127 -416l145 412h71l143 -410l126 414h82l-166 -526h-99l-134 368l-133 -368h-103zM269 632l136 171h53l136 -171l-34 -32l-128 126l-129 -126z" />
    <glyph glyph-name="Wdieresis.small" horiz-adv-x="818" 
d="M8 525h109l127 -416l145 412h71l143 -410l126 414h82l-166 -526h-99l-134 368l-133 -368h-103zM299 666v94h93v-94h-93zM473 666v94h93v-94h-93z" />
    <glyph glyph-name="Ygrave.small" horiz-adv-x="490" 
d="M490 525l-189 -311v-214h-98v212l-198 313h109l151 -237l145 237h80zM133 760l61 56l136 -182l-40 -33z" />
    <glyph glyph-name="Yacute.small" horiz-adv-x="490" 
d="M490 525l-189 -311v-214h-98v212l-198 313h109l151 -237l145 237h80zM221 634l136 182l61 -56l-157 -159z" />
    <glyph glyph-name="Ycircumflex.small" horiz-adv-x="490" 
d="M490 525l-189 -311v-214h-98v212l-198 313h109l151 -237l145 237h80zM100 632l136 171h53l136 -171l-34 -32l-128 126l-129 -126z" />
    <glyph glyph-name="Ydieresis.small" horiz-adv-x="490" 
d="M490 525l-189 -311v-214h-98v212l-198 313h109l151 -237l145 237h80zM132 666v94h93v-94h-93zM306 666v94h93v-94h-93z" />
    <glyph glyph-name="Zacute.small" horiz-adv-x="488" 
d="M35 63l292 395h-282v65h401v-60l-295 -396h302v-64h-418v60zM179 634l136 182l61 -56l-157 -159z" />
    <glyph glyph-name="Zcaron.small" horiz-adv-x="488" 
d="M35 63l292 395h-282v65h401v-60l-295 -396h302v-64h-418v60zM99 780l36 28l126 -126l127 126l36 -28l-136 -173h-53z" />
    <glyph glyph-name="Zdotaccent.small" horiz-adv-x="488" 
d="M35 63l292 395h-282v65h401v-60l-295 -396h302v-64h-418v60zM200 662v98h107v-98h-107z" />
    <glyph glyph-name="Schwa.small" horiz-adv-x="569" 
d="M535 272q0 -61 -18.5 -113t-51.5 -89.5t-80 -58.5t-104 -21q-60 0 -99.5 16t-62.5 41.5t-32 58t-9 64.5q0 19 2 44.5t4 36.5h346v19q0 87 -47.5 138t-133.5 51q-72 0 -109 -36.5t-43 -86.5h-39q0 41 14.5 77.5t42.5 63t69 41.5t92 15q116 0 187.5 -68t71.5 -193zM274 64
q55 0 96.5 36t54.5 100h-259q0 -4 -1 -13t-1 -19q0 -15 4 -33.5t16 -34t33.5 -26t56.5 -10.5z" />
    <glyph glyph-name="Eng.small" horiz-adv-x="596" 
d="M382 -250q-80 0 -112 42.5t-32 99.5h47q1 -31 20 -54.5t62 -23.5q50 0 68.5 35t18.5 92v65l-300 388v-394h-78v525h92l286 -373v373h78v-577q0 -41 -7 -77t-24 -63t-46 -42.5t-73 -15.5z" />
    <glyph glyph-name="Eth.small" horiz-adv-x="575" 
d="M10 288h63v237h164q80 0 138 -19.5t95 -54t55 -82t18 -102.5q0 -76 -24.5 -127.5t-65.5 -82.5t-96 -44t-116 -13h-168v238h-63v50zM278 238h-107v-171h74q89 0 141 49t52 151q0 83 -46 137t-152 54h-69v-170h107v-50z" />
    <glyph glyph-name="Thorn.small" horiz-adv-x="496" 
d="M169 0h-99v525h99v-94h107q90 0 146.5 -43t56.5 -123q0 -43 -15.5 -75t-42.5 -52t-63.5 -30t-79.5 -10h-109v-98zM253 362h-84v-197h90q49 0 85.5 22.5t36.5 76.5q0 50 -35.5 74t-92.5 24z" />
    <glyph glyph-name="grave.cap" 
d="M138 808l54 67l165 -118l-26 -27z" />
    <glyph glyph-name="acute.cap" 
d="M138 757l165 118l54 -67l-193 -78z" />
    <glyph glyph-name="circumflex.cap" 
d="M88 763l139 110h46l140 -110l-24 -34l-139 72l-139 -72z" />
    <glyph glyph-name="caron.cap" 
d="M88 839l24 34l139 -72l139 72l23 -34l-139 -110h-46z" />
    <glyph glyph-name="caronSlovak" 
d="M196 511l38 199h80l-62 -199h-56z" />
    <glyph glyph-name="tilde.cap" 
d="M327 804q29 0 36.5 21.5t1.5 46.5h26q19 -55 0 -94t-73 -39q-28 0 -45 10.5t-30.5 23t-27.5 23t-36 10.5q-28 0 -36 -20.5t-2 -46.5h-26q-19 57 0.5 94.5t73.5 37.5q29 0 47 -10.5t31.5 -23t26.5 -23t33 -10.5z" />
    <glyph glyph-name="dieresis.cap" 
d="M118 750v94h93v-94h-93zM292 750v94h93v-94h-93z" />
    <glyph glyph-name="macron.cap" 
d="M112 838h276v-62h-276v62z" />
    <glyph glyph-name="breve.cap" 
d="M105 876h36q4 -23 26 -48t85 -25q60 0 83 25t27 48h36q2 -25 -5 -50.5t-24 -45.5t-46 -32.5t-71 -12.5t-71 12.5t-46.5 32.5t-24.5 45.5t-5 50.5z" />
    <glyph glyph-name="ring.cap" 
d="M144 815q0 43 29.5 72t75.5 29q48 0 77 -29t29 -72q0 -42 -29 -71t-77 -29q-46 0 -75.5 29t-29.5 71zM301 808q0 22 -14.5 37.5t-36.5 15.5q-23 0 -37.5 -15.5t-14.5 -37.5t14.5 -37t37.5 -15q22 0 36.5 15t14.5 37z" />
    <glyph glyph-name="hungarumlaut.cap" 
d="M85 752l128 120l43 -46l-136 -109zM245 752l128 120l43 -46l-136 -109z" />
    <glyph glyph-name="dotaccent.cap" 
d="M197 749v98h107v-98h-107z" />
    <glyph glyph-name="commaaccent.alt" 
d="M173 564l72 172l49 -11l-45 -161h-76z" />
    <glyph glyph-name="hyphen.cap" horiz-adv-x="367" 
d="M60 443h247v-77h-247v77z" />
    <glyph glyph-name="exclamdown.cap" horiz-adv-x="294" 
d="M204 646q0 -23 -15.5 -37.5t-43.5 -14.5q-25 0 -40 14.5t-15 37.5q0 25 15 39.5t40 14.5q28 0 43.5 -14.5t15.5 -39.5zM106 498h82l15 -498h-112z" />
    <glyph glyph-name="exclam.small" horiz-adv-x="274" 
d="M176 182h-77l-10 343h97zM83 44q0 23 15.5 37.5t40.5 14.5q23 0 37.5 -14.5t14.5 -37.5q0 -25 -14.5 -39.5t-37.5 -14.5q-25 0 -40.5 14.5t-15.5 39.5z" />
    <glyph glyph-name="exclamdown.small" horiz-adv-x="369" 
d="M191 481q0 -23 -15.5 -37.5t-40.5 -14.5q-23 0 -37.5 14.5t-14.5 37.5q0 25 14.5 39.5t37.5 14.5q25 0 40.5 -14.5t15.5 -39.5zM98 343h77l10 -343h-97z" />
    <glyph glyph-name="questiondown.cap" horiz-adv-x="495" 
d="M355 644q0 -23 -15.5 -37.5t-43.5 -14.5q-25 0 -40 14.5t-15 37.5q0 25 15 39.5t40 14.5q28 0 43.5 -14.5t15.5 -39.5zM268 399l6 97h55l6 -133q-34 0 -67.5 -7t-59.5 -24.5t-42 -47t-16 -75.5q0 -59 32.5 -96t97.5 -37q54 0 86.5 31t36.5 81h47q2 -52 -12.5 -90
t-40.5 -61.5t-62.5 -35t-77.5 -11.5q-91 0 -149 51.5t-58 147.5q0 63 22 103t55 63t71 32.5t70 11.5z" />
    <glyph glyph-name="question.small" horiz-adv-x="411" 
d="M199 179h-58l-5 103q24 1 48 6t43 16.5t31 31t12 48.5q0 41 -21.5 65.5t-67.5 24.5q-42 0 -64 -22.5t-25 -59.5h-45q-4 71 41.5 106t114.5 35q73 0 116 -35.5t43 -102.5q0 -41 -16 -68t-39.5 -42.5t-51.5 -22t-52 -7.5zM120 43q0 22 15 36t40 14q24 0 38.5 -14t14.5 -36
q0 -24 -15 -38.5t-38 -14.5q-25 0 -40 14.5t-15 38.5z" />
    <glyph glyph-name="questiondown.small" horiz-adv-x="410" 
d="M292 480q0 -22 -15 -36t-40 -14q-24 0 -38.5 14t-14.5 36q0 24 15 38.5t38 14.5q25 0 40 -14.5t15 -38.5zM213 344h58l5 -103q-24 -1 -48 -6t-43 -16.5t-31 -31t-12 -48.5q0 -41 21.5 -65.5t67.5 -24.5q42 0 64 22.5t25 59.5h45q4 -71 -41.5 -106t-114.5 -35
q-73 0 -116 35.5t-43 102.5q0 41 16 68t39.5 42.5t51.5 22t52 7.5z" />
    <glyph glyph-name="guilsinglleft.cap" horiz-adv-x="244" 
d="M243 524l-116 -175l116 -175h-87l-111 167v16l111 167h87z" />
    <glyph glyph-name="guilsinglright.cap" horiz-adv-x="244" 
d="M243 341l-111 -167h-87l116 175l-116 175h87l111 -167v-16z" />
    <glyph glyph-name="guillemotleft.cap" horiz-adv-x="487" 
d="M243 524l-116 -175l116 -175h-87l-111 167v16l111 167h87zM442 524l-116 -175l116 -175h-87l-111 167v16l111 167h87z" />
    <glyph glyph-name="guillemotright.cap" horiz-adv-x="487" 
d="M442 341l-111 -167h-87l116 175l-116 175h87l111 -167v-16zM243 341l-111 -167h-87l116 175l-116 175h87l111 -167v-16z" />
    <glyph glyph-name="endash.cap" horiz-adv-x="565" 
d="M30 438h505v-77h-505v77z" />
    <glyph glyph-name="emdash.cap" horiz-adv-x="1000" 
d="M30 418h940v-77h-940v77z" />
    <glyph glyph-name="periodcentered.cap" horiz-adv-x="234" 
d="M60 383q0 22 15.5 39t42.5 17q25 0 40.5 -17t15.5 -39q0 -25 -15 -41.5t-40 -16.5q-28 0 -43.5 16.5t-15.5 41.5z" />
    <glyph glyph-name="parenleft.cap" horiz-adv-x="324" 
d="M158 320q0 -91 17.5 -163.5t40.5 -125t45.5 -85.5t32.5 -46l-49 -43q-25 19 -58.5 59t-63.5 99t-51.5 136t-21.5 169t21 170t51.5 137.5t64 100.5t58.5 60l49 -43q-10 -13 -32.5 -46.5t-45.5 -87t-40.5 -127t-17.5 -164.5z" />
    <glyph glyph-name="parenright.cap" horiz-adv-x="324" 
d="M166 325q0 91 -17.5 163.5t-40.5 125t-45.5 85.5t-32.5 46l49 43q25 -19 58.5 -59t63.5 -99t51.5 -136t21.5 -169t-21 -170t-51.5 -137.5t-64 -100.5t-58.5 -60l-49 43q10 13 32.5 46.5t45.5 87t40.5 127t17.5 164.5z" />
    <glyph glyph-name="parenleft.small" horiz-adv-x="283" 
d="M147 258q0 -75 12.5 -135t29.5 -104t35 -73.5t29 -43.5l-44 -38q-24 19 -52 54.5t-51.5 84.5t-39.5 113.5t-16 140.5q0 77 16 141.5t40 114.5t52 85t51 53l44 -38q-10 -12 -27.5 -41t-35 -73t-30.5 -104.5t-13 -136.5z" />
    <glyph glyph-name="parenright.small" horiz-adv-x="283" 
d="M136 257q0 75 -12.5 135t-29.5 104t-35 73.5t-29 43.5l44 38q24 -19 52 -54.5t51.5 -84.5t39.5 -113.5t16 -140.5q0 -77 -16 -141.5t-40 -114.5t-52 -85t-51 -53l-44 38q10 12 27.5 41t35 73t30.5 104.5t13 136.5z" />
    <glyph glyph-name="bracketleft.cap" horiz-adv-x="323" 
d="M293 -70v-52h-203v924h203v-52h-106v-820h106z" />
    <glyph glyph-name="bracketright.cap" horiz-adv-x="323" 
d="M233 802v-924h-203v52h106v820h-106v52h203z" />
    <glyph glyph-name="bracketleft.small" horiz-adv-x="323" 
d="M293 -71v-52h-203v764h203v-52h-106v-660h106z" />
    <glyph glyph-name="bracketright.small" horiz-adv-x="323" 
d="M233 641v-764h-203v52h106v660h-106v52h203z" />
    <glyph glyph-name="braceleft.cap" horiz-adv-x="361" 
d="M238 211q0 -40 -1.5 -71t-3.5 -57.5t-3.5 -53.5t-1.5 -60q0 -43 18 -57.5t49 -14.5h21v-49h-51q-54 0 -95.5 26t-41.5 90q0 53 5 111.5t5 135.5q0 27 -10 44.5t-21.5 27.5t-21.5 14l-10 4v42l10 4t21.5 14t21.5 27.5t10 44.5q0 78 -5 136t-5 111q0 64 41.5 90t95.5 26h51
v-49h-21q-31 0 -49 -14.5t-18 -57.5q0 -33 1.5 -60t3.5 -53.5t3.5 -57.5t1.5 -71q0 -26 -9 -45.5t-21.5 -32.5t-27 -21t-26.5 -12q12 -4 26.5 -12t27 -21t21.5 -32.5t9 -45.5z" />
    <glyph glyph-name="braceright.cap" horiz-adv-x="361" 
d="M123 433q0 40 1.5 71t3.5 57.5t3.5 53.5t1.5 60q0 43 -18 57.5t-49 14.5h-21v49h51q54 0 95.5 -26t41.5 -90q0 -53 -5 -111.5t-5 -135.5q0 -27 10 -44.5t21.5 -27.5t21.5 -14l10 -4v-42l-10 -4t-21.5 -14t-21.5 -27.5t-10 -44.5q0 -78 5 -136t5 -111q0 -64 -41.5 -90
t-95.5 -26h-51v49h21q31 0 49 14.5t18 57.5q0 33 -1.5 60t-3.5 53.5t-3.5 57.5t-1.5 71q0 26 9 45.5t21.5 32.5t27 21t26.5 12q-12 4 -26.5 12t-27 21t-21.5 32.5t-9 45.5z" />
    <glyph glyph-name="braceleft.small" horiz-adv-x="351" 
d="M233 150q0 -42 -2 -74t-2 -75t17 -56t42 -13h21v-49h-48q-54 0 -90.5 24.5t-36.5 87.5q0 46 2 77.5t2 77.5q0 27 -10 44.5t-21.5 27.5t-21.5 14l-10 4v42l10 4t21.5 14t21.5 27.5t10 44.5q0 25 -0.5 43.5t-1.5 35.5t-1.5 35t-0.5 41q0 63 36.5 87.5t90.5 24.5h48v-49h-21
q-25 0 -42 -12.5t-17 -55.5t2 -73.5t2 -76.5q0 -26 -9 -45.5t-21.5 -32.5t-27 -21t-26.5 -12q12 -4 26.5 -12t27 -21t21.5 -32.5t9 -45.5z" />
    <glyph glyph-name="braceright.small" horiz-adv-x="351" 
d="M118 150q0 26 9 45.5t21.5 32.5t27 21t26.5 12q-12 4 -26.5 12t-27 21t-21.5 32.5t-9 45.5q0 46 2 76.5t2 73.5t-17 55.5t-42 12.5h-21v49h48q54 0 90.5 -24.5t36.5 -87.5q0 -23 -0.5 -41t-1.5 -35t-1.5 -35.5t-0.5 -43.5q0 -27 10 -44.5t21.5 -27.5t21.5 -14l10 -4v-42
l-10 -4t-21.5 -14t-21.5 -27.5t-10 -44.5q0 -46 2 -77.5t2 -77.5q0 -63 -36.5 -87.5t-90.5 -24.5h-48v49h21q25 0 42 13t17 56t-2 75t-2 74z" />
    <glyph glyph-name="at.cap" horiz-adv-x="835" 
d="M669 86l39 -50q-10 -10 -31.5 -26.5t-55.5 -32.5t-81 -28t-107 -12q-102 0 -176.5 29t-122.5 79.5t-71 121.5t-23 153q0 78 25.5 153.5t76 133.5t125.5 93.5t174 35.5q81 0 147 -24.5t111.5 -68t70.5 -105t25 -135.5q0 -77 -22.5 -128t-55.5 -80.5t-71.5 -41.5t-69.5 -12
q-48 0 -68 21.5t-22 60.5q-20 -35 -51.5 -57t-74.5 -22q-59 0 -95 39.5t-36 111.5q0 46 13 88t37 73.5t59 50.5t79 19q41 0 65 -18.5t34 -52.5l1 4l14 55h65l-26 -152q-1 -4 -2.5 -15.5t-3.5 -24t-3.5 -24.5t-2.5 -17q-6 -44 1.5 -61.5t32.5 -17.5q19 0 41.5 9.5t42 32
t33 61.5t13.5 98q0 124 -75 196t-208 72q-83 0 -144.5 -30.5t-101.5 -79.5t-59.5 -112t-19.5 -128q0 -73 21 -132t62 -100.5t102.5 -64t142.5 -22.5q49 0 87.5 10t66.5 24t46 28t27 22zM491 372q0 36 -16.5 60.5t-50.5 24.5q-27 0 -47.5 -15t-33.5 -38t-19.5 -51t-6.5 -53
q0 -37 15 -61.5t50 -24.5q25 0 45.5 14t34.5 36t21.5 50.5t7.5 57.5z" />
    <glyph glyph-name="at.small" horiz-adv-x="773" 
d="M523 248q-3 -16 -5 -30.5t-2 -24.5q0 -21 7 -30.5t25 -9.5q15 0 34.5 6.5t37 24.5t29.5 49t12 79q0 104 -67 166t-183 62q-71 0 -125 -24t-90.5 -64t-55.5 -93.5t-19 -111.5q0 -122 72 -196.5t215 -74.5q41 0 75.5 9t60 20.5t43 23.5t24.5 18l33 -47q-8 -8 -27.5 -22.5
t-49.5 -28t-71.5 -23.5t-93.5 -10q-91 0 -158 24.5t-109.5 68.5t-63 105t-20.5 133q0 71 24 135t69.5 112.5t113.5 77t155 28.5q76 0 135.5 -21t100 -58t61.5 -89.5t21 -114.5q0 -64 -20.5 -107.5t-50 -69t-63.5 -36.5t-62 -11q-43 0 -61.5 19t-19.5 52q-18 -31 -46 -49
t-65 -18q-62 0 -89.5 36.5t-27.5 93.5q0 38 11 73.5t31.5 62t51 42.5t69.5 16q37 0 59 -16t32 -45l2 13l11 41h58zM457 289q0 31 -13.5 52t-44.5 21q-22 0 -39 -12.5t-28.5 -32t-17 -43.5t-5.5 -46q0 -31 13 -50.5t44 -19.5q36 0 63.5 38.5t27.5 92.5z" />
    <glyph glyph-name="zeroslash" horiz-adv-x="588" 
d="M295 -10q-53 0 -100 19.5t-81.5 61.5t-54.5 107.5t-20 156.5q0 87 19 152t52.5 107.5t81 64t103.5 21.5q53 0 99.5 -19.5t80.5 -60.5t54 -106t20 -155q0 -87 -18.5 -153t-52 -109.5t-80.5 -65t-103 -21.5zM143 335q0 -54 7 -95t19 -72l232 391q-21 22 -46 32.5t-51 10.5
q-71 0 -116 -65t-45 -202zM304 70q70 0 115 67.5t45 202.5q0 57 -9 101t-24 75l-234 -395q22 -27 49 -39t58 -12z" />
    <glyph glyph-name="zeroslash.tab" horiz-adv-x="585" 
d="M293 -10q-53 0 -100 19.5t-81.5 61.5t-54.5 107.5t-20 156.5q0 87 19 152t52.5 107.5t81 64t103.5 21.5q53 0 99.5 -19.5t80.5 -60.5t54 -106t20 -155q0 -87 -18.5 -153t-52 -109.5t-80.5 -65t-103 -21.5zM141 335q0 -54 7 -95t19 -72l232 391q-21 22 -46 32.5t-51 10.5
q-71 0 -116 -65t-45 -202zM302 70q70 0 115 67.5t45 202.5q0 57 -9 101t-24 75l-234 -395q22 -27 49 -39t58 -12z" />
    <glyph glyph-name="zero.tab" horiz-adv-x="585" 
d="M293 -10q-53 0 -100 19.5t-81.5 61.5t-54.5 107.5t-20 156.5q0 87 19 152t52.5 107.5t81 64t103.5 21.5q53 0 99.5 -19.5t80.5 -60.5t54 -106t20 -155q0 -87 -18.5 -153t-52 -109.5t-80.5 -65t-103 -21.5zM302 75q70 0 112.5 67t42.5 198q0 137 -46 197t-109 60
q-71 0 -113.5 -64t-42.5 -198q0 -143 45.5 -201.5t110.5 -58.5z" />
    <glyph glyph-name="one.tab" horiz-adv-x="585" 
d="M107 3v67h175v508l-185 -41l-16 53l244 87h59v-607h150v-67h-427z" />
    <glyph glyph-name="two.tab" horiz-adv-x="585" 
d="M524 3h-450v57q67 62 126.5 112.5t103.5 97t69.5 92.5t25.5 98q0 57 -31 96t-94 39q-41 0 -71 -16t-46.5 -43t-20 -62t6.5 -73h-58q-16 47 -11 96.5t30.5 89.5t73 66t116.5 26q104 0 159 -58t55 -150q0 -58 -24 -107.5t-64.5 -95t-95 -90.5t-115.5 -95h315v-80z" />
    <glyph glyph-name="three.tab" horiz-adv-x="585" 
d="M516 187q0 -92 -63 -144.5t-167 -52.5q-108 0 -170.5 52.5t-53.5 164.5h58q-1 -61 38.5 -97t104.5 -36q66 0 105 33.5t39 93.5q0 63 -45 87t-114 24h-62v69h56q59 0 103.5 21t44.5 82q0 54 -32.5 84.5t-92.5 30.5q-67 0 -99.5 -36.5t-31.5 -93.5h-56q-4 51 10 90.5t42 66
t69 40.5t90 14q91 0 149 -45.5t58 -131.5q0 -69 -41 -105.5t-98 -50.5q66 -13 112.5 -49t46.5 -111z" />
    <glyph glyph-name="four.tab" horiz-adv-x="585" 
d="M561 185h-118v-185h-101v185h-307v69l311 420h97v-409h118v-80zM125 265h217v294z" />
    <glyph glyph-name="five.tab" horiz-adv-x="585" 
d="M524 231q0 -109 -60 -175t-167 -66q-48 0 -91 12t-74 37t-47 64.5t-11 94.5h54q0 -57 38 -90.5t107 -33.5q68 0 107.5 42.5t39.5 111.5q0 67 -39.5 104t-104.5 37q-34 0 -60 -10t-43 -22v0v0q-13 -10 -21.5 -19t-11.5 -13l-51 19l11 346h382v-80h-297l-10 -210
q19 20 55 39.5t92 19.5q96 0 149 -55.5t53 -152.5z" />
    <glyph glyph-name="six.tab" horiz-adv-x="585" 
d="M315 680q60 0 101 -16.5t65 -44t33 -63t7 -72.5h-55q-1 17 -7.5 37.5t-21.5 37.5t-40.5 28.5t-65.5 11.5q-84 0 -129.5 -67.5t-45.5 -200.5q0 -12 0.5 -28t1.5 -33q11 67 60 106t126 39q38 0 72 -12t59 -37t40 -63.5t15 -90.5q0 -54 -17 -96t-46.5 -70t-69.5 -42t-86 -14
q-134 0 -194.5 90t-60.5 245q0 74 15.5 139t47 113t80.5 75.5t116 27.5zM312 346q-66 0 -99.5 -39.5t-33.5 -98.5q0 -57 32.5 -96t95.5 -39q59 0 94 38.5t35 99.5q0 68 -35.5 101.5t-88.5 33.5z" />
    <glyph glyph-name="seven.tab" horiz-adv-x="585" 
d="M272 0h-107q4 64 26 137t59 148.5t87.5 153.5t110.5 152h-325v-116h-64v195h491v-56q-60 -80 -109.5 -165t-85.5 -165.5t-57.5 -154t-25.5 -129.5z" />
    <glyph glyph-name="eight.tab" horiz-adv-x="585" 
d="M293 -10q-116 0 -177.5 50t-61.5 142q0 72 41 114.5t104 56.5q-61 15 -93 55.5t-32 100.5q0 77 54 124t164 47t165 -47t55 -124q0 -60 -32.5 -100.5t-92.5 -55.5q63 -14 104 -56.5t41 -114.5q0 -92 -62.5 -142t-176.5 -50zM293 386q54 0 87 27t33 81q0 49 -31.5 78
t-88.5 29q-58 0 -89 -29t-31 -78q0 -54 33 -81t87 -27zM293 69q56 0 95.5 31.5t39.5 96.5q0 63 -39.5 91.5t-95.5 28.5q-54 0 -94.5 -29t-40.5 -91q0 -66 38.5 -97t96.5 -31z" />
    <glyph glyph-name="nine.tab" horiz-adv-x="585" 
d="M276 -10q-60 0 -101 16.5t-65 44t-33 63t-7 72.5h55q1 -17 7.5 -37.5t21.5 -37.5t40.5 -28.5t65.5 -11.5q84 0 129.5 67.5t45.5 200.5q0 12 -0.5 28t-1.5 33q-11 -67 -60 -106t-126 -39q-38 0 -72 12t-59 37t-40 63.5t-15 90.5q0 54 17 96t46.5 70t69.5 42t86 14
q134 0 194.5 -90t60.5 -245q0 -74 -15.5 -139t-47 -113t-80.5 -75.5t-116 -27.5zM279 324q66 0 99.5 39.5t33.5 98.5q0 57 -32.5 96t-95.5 39q-59 0 -94 -38.5t-35 -99.5q0 -68 35.5 -101.5t88.5 -33.5z" />
    <glyph glyph-name="zeroslash.small" 
d="M252 -9q-47 0 -88 15.5t-71 48t-47 83.5t-17 122q0 137 62 205t161 68q46 0 86.5 -15.5t69.5 -48.5t46 -84t17 -122q0 -137 -61 -204.5t-158 -67.5zM134 261q0 -42 6 -74t17 -54l174 298q-15 14 -33.5 20.5t-37.5 6.5q-57 0 -91.5 -47.5t-34.5 -149.5zM260 66q55 0 90 49
t35 148q0 40 -6.5 72t-16.5 55l-175 -298q15 -13 34 -19.5t39 -6.5z" />
    <glyph glyph-name="zero.small" 
d="M252 -9q-47 0 -88 15.5t-71 48t-47 83.5t-17 122q0 137 62 205t161 68q46 0 86.5 -15.5t69.5 -48.5t46 -84t17 -122q0 -137 -61 -204.5t-158 -67.5zM260 66q55 0 90 49t35 148q0 104 -37.5 149.5t-87.5 45.5q-57 0 -91.5 -47.5t-34.5 -149.5q0 -108 37 -151.5t89 -43.5z
" />
    <glyph glyph-name="one.small" horiz-adv-x="351" 
d="M33 410l188 115h57v-525h-99v427l-129 -60z" />
    <glyph glyph-name="two.small" 
d="M70 305q-14 37 -9.5 77.5t27.5 74t64 55t99 21.5q89 0 136.5 -48.5t47.5 -121.5q0 -44 -18.5 -81t-50 -70t-74.5 -66t-92 -68h246v-75h-383v41q56 46 104.5 86t84.5 76.5t57 72.5t21 75q0 43 -24 73t-74 30q-31 0 -54.5 -12.5t-37.5 -33t-18 -48.5t4 -58h-56z" />
    <glyph glyph-name="three.small" 
d="M67 363q-4 41 8.5 73t37.5 53.5t60 32.5t74 11q78 0 128 -36.5t50 -104.5q0 -54 -33.5 -83.5t-80.5 -41.5q54 -10 92.5 -38t38.5 -85q0 -72 -53.5 -113t-143.5 -41q-93 0 -147 43t-46 130h51q0 -44 31 -71t88 -27q52 0 83.5 23.5t31.5 67.5q0 46 -36.5 62.5t-91.5 16.5
h-49v60h43q54 0 87.5 20.5t33.5 65.5q0 40 -26 59.5t-75 19.5q-53 0 -81.5 -27.5t-27.5 -69.5h-47z" />
    <glyph glyph-name="four.small" 
d="M287 0v141h-267v59l270 325h94v-314h93v-70h-93v-141h-97zM106 211h181v218z" />
    <glyph glyph-name="five.small" 
d="M418 448h-251l-9 -150q17 16 46.5 30t72.5 14q81 0 126 -43.5t45 -119.5q0 -85 -50.5 -137t-142.5 -52q-41 0 -77.5 9t-63 29t-40.5 52t-10 78h52q1 -46 33 -69.5t83 -23.5q54 0 85 31t31 81t-32.5 76.5t-83.5 26.5q-46 0 -73.5 -19.5t-34.5 -27.5l-49 17l11 273h332v-75
z" />
    <glyph glyph-name="six.small" 
d="M266 533q51 0 86 -13.5t56 -35t29 -50t6 -58.5h-52q-1 12 -6.5 27t-18 27.5t-33 21t-51.5 8.5q-66 0 -104.5 -50t-38.5 -151q0 -5 0.5 -20t1.5 -31q9 53 48.5 85t103.5 32q68 0 113 -39t45 -120q0 -43 -15 -76t-40.5 -55t-60 -33.5t-73.5 -11.5q-113 0 -165.5 71.5
t-52.5 192.5q0 57 13.5 108t41 89t69.5 60t98 22zM263 264q-52 0 -77.5 -31t-25.5 -74q0 -42 25 -68.5t73 -26.5q47 0 74.5 28.5t27.5 72.5q0 49 -26 74t-71 25z" />
    <glyph glyph-name="seven.small" horiz-adv-x="456" 
d="M52 523h375v-50q-104 -137 -156 -253t-59 -219h-103q7 119 63 228t156 219h-276v75z" />
    <glyph glyph-name="eight.small" 
d="M455 141q0 -64 -48.5 -107.5t-155.5 -43.5q-108 0 -156.5 43.5t-48.5 107.5q0 51 30.5 86t87.5 48q-51 13 -76.5 44t-25.5 77q0 58 45.5 97.5t142.5 39.5q96 0 142 -39.5t46 -97.5q0 -46 -25 -77t-76 -43q56 -13 87 -48.5t31 -86.5zM250 304q49 0 71 21.5t22 56.5
q0 34 -23.5 57t-69.5 23t-69.5 -23t-23.5 -57q0 -35 22 -56.5t71 -21.5zM251 60q52 0 78 27t26 67q0 41 -26 65t-78 24q-51 0 -78 -24t-27 -65q0 -40 25.5 -67t79.5 -27z" />
    <glyph glyph-name="nine.small" 
d="M234 -10q-51 0 -86 13t-56 35t-29 50t-6 58h52q1 -12 7 -26.5t18 -27t32.5 -21t51.5 -8.5q66 0 104.5 49.5t38.5 150.5q0 5 -0.5 20t-1.5 31q-9 -52 -48.5 -84t-103.5 -32q-68 0 -112.5 39t-44.5 120q0 43 15 76t40 55t59.5 33.5t73.5 11.5q113 0 165.5 -71.5
t52.5 -192.5q0 -57 -13.5 -108t-41 -89t-69.5 -60t-98 -22zM237 259q52 0 77.5 30.5t25.5 73.5q0 42 -25 68.5t-73 26.5q-47 0 -74.5 -28.5t-27.5 -71.5q0 -50 26 -74.5t71 -24.5z" />
    <glyph glyph-name="zeroslash.small_tab" 
d="M252 -9q-47 0 -88 15.5t-71 48t-47 83.5t-17 122q0 137 62 205t161 68q46 0 86.5 -15.5t69.5 -48.5t46 -84t17 -122q0 -137 -61 -204.5t-158 -67.5zM134 261q0 -42 6 -74t17 -54l174 298q-15 14 -33.5 20.5t-37.5 6.5q-57 0 -91.5 -47.5t-34.5 -149.5zM260 66q55 0 90 49
t35 148q0 40 -6.5 72t-16.5 55l-175 -298q15 -13 34 -19.5t39 -6.5z" />
    <glyph glyph-name="zero.small_tab" 
d="M252 -9q-47 0 -88 15.5t-71 48t-47 83.5t-17 122q0 137 62 205t161 68q46 0 86.5 -15.5t69.5 -48.5t46 -84t17 -122q0 -137 -61 -204.5t-158 -67.5zM260 66q55 0 90 49t35 148q0 104 -37.5 149.5t-87.5 45.5q-57 0 -91.5 -47.5t-34.5 -149.5q0 -108 37 -151.5t89 -43.5z
" />
    <glyph glyph-name="one.small_tab" 
d="M79 3v61h147v374l-154 -34l-9 46l205 75h57v-461h122v-61h-368z" />
    <glyph glyph-name="two.small_tab" 
d="M70 305q-14 37 -9.5 77.5t27.5 74t64 55t99 21.5q89 0 136.5 -48.5t47.5 -121.5q0 -44 -18.5 -81t-50 -70t-74.5 -66t-92 -68h246v-75h-383v41q56 46 104.5 86t84.5 76.5t57 72.5t21 75q0 43 -24 73t-74 30q-31 0 -54.5 -12.5t-37.5 -33t-18 -48.5t4 -58h-56z" />
    <glyph glyph-name="three.small_tab" 
d="M67 363q-4 41 8.5 73t37.5 53.5t60 32.5t74 11q78 0 128 -36.5t50 -104.5q0 -54 -33.5 -83.5t-80.5 -41.5q54 -10 92.5 -38t38.5 -85q0 -72 -53.5 -113t-143.5 -41q-93 0 -147 43t-46 130h51q0 -44 31 -71t88 -27q52 0 83.5 23.5t31.5 67.5q0 46 -36.5 62.5t-91.5 16.5
h-49v60h43q54 0 87.5 20.5t33.5 65.5q0 40 -26 59.5t-75 19.5q-53 0 -81.5 -27.5t-27.5 -69.5h-47z" />
    <glyph glyph-name="four.small_tab" 
d="M287 0v141h-267v59l270 325h94v-314h93v-70h-93v-141h-97zM106 211h181v218z" />
    <glyph glyph-name="five.small_tab" 
d="M418 448h-251l-9 -150q17 16 46.5 30t72.5 14q81 0 126 -43.5t45 -119.5q0 -85 -50.5 -137t-142.5 -52q-41 0 -77.5 9t-63 29t-40.5 52t-10 78h52q1 -46 33 -69.5t83 -23.5q54 0 85 31t31 81t-32.5 76.5t-83.5 26.5q-46 0 -73.5 -19.5t-34.5 -27.5l-49 17l11 273h332v-75
z" />
    <glyph glyph-name="six.small_tab" 
d="M266 533q51 0 86 -13.5t56 -35t29 -50t6 -58.5h-52q-1 12 -6.5 27t-18 27.5t-33 21t-51.5 8.5q-66 0 -104.5 -50t-38.5 -151q0 -5 0.5 -20t1.5 -31q9 53 48.5 85t103.5 32q68 0 113 -39t45 -120q0 -43 -15 -76t-40.5 -55t-60 -33.5t-73.5 -11.5q-113 0 -165.5 71.5
t-52.5 192.5q0 57 13.5 108t41 89t69.5 60t98 22zM263 264q-52 0 -77.5 -31t-25.5 -74q0 -42 25 -68.5t73 -26.5q47 0 74.5 28.5t27.5 72.5q0 49 -26 74t-71 25z" />
    <glyph glyph-name="seven.small_tab" 
d="M272 1h-103q7 119 55.5 228.5t141.5 218.5h-241v-85h-58v160h395v-50q-101 -135 -143.5 -251.5t-46.5 -220.5z" />
    <glyph glyph-name="eight.small_tab" 
d="M455 141q0 -64 -48.5 -107.5t-155.5 -43.5q-108 0 -156.5 43.5t-48.5 107.5q0 51 30.5 86t87.5 48q-51 13 -76.5 44t-25.5 77q0 58 45.5 97.5t142.5 39.5q96 0 142 -39.5t46 -97.5q0 -46 -25 -77t-76 -43q56 -13 87 -48.5t31 -86.5zM250 304q49 0 71 21.5t22 56.5
q0 34 -23.5 57t-69.5 23t-69.5 -23t-23.5 -57q0 -35 22 -56.5t71 -21.5zM251 60q52 0 78 27t26 67q0 41 -26 65t-78 24q-51 0 -78 -24t-27 -65q0 -40 25.5 -67t79.5 -27z" />
    <glyph glyph-name="nine.small_tab" 
d="M234 -10q-51 0 -86 13t-56 35t-29 50t-6 58h52q1 -12 7 -26.5t18 -27t32.5 -21t51.5 -8.5q66 0 104.5 49.5t38.5 150.5q0 5 -0.5 20t-1.5 31q-9 -52 -48.5 -84t-103.5 -32q-68 0 -112.5 39t-44.5 120q0 43 15 76t40 55t59.5 33.5t73.5 11.5q113 0 165.5 -71.5
t52.5 -192.5q0 -57 -13.5 -108t-41 -89t-69.5 -60t-98 -22zM237 259q52 0 77.5 30.5t25.5 73.5q0 42 -25 68.5t-73 26.5q-47 0 -74.5 -28.5t-27.5 -71.5q0 -50 26 -74.5t71 -24.5z" />
    <glyph glyph-name="a.superior" horiz-adv-x="308" 
d="M22 473q0 35 26 61.5t86 26.5q15 0 31.5 -2.5t27.5 -6.5v31q0 30 -15 47t-47 17t-46.5 -16t-18.5 -35h-27q0 40 26.5 71t86.5 31q54 0 82 -28t28 -75v-107q0 -23 3.5 -36t11.5 -20q5 -4 9.5 -5.5t8.5 0.5l5 -9q-3 -7 -14 -12.5t-27 -5.5q-26 0 -43.5 10.5t-21.5 40.5
q-11 -22 -32.5 -37t-55.5 -15q-42 0 -63 21t-21 53zM93 481q0 -17 11 -26.5t30 -9.5q31 0 45 24t14 52v2q-7 2 -18 4t-24 2q-29 0 -43.5 -13t-14.5 -35z" />
    <glyph glyph-name="b.superior" horiz-adv-x="353" 
d="M44 824l74 4v-191q11 27 32.5 44t58.5 17q46 0 82.5 -36t36.5 -112q0 -69 -34 -110t-85 -41q-36 0 -60.5 18.5t-35.5 56.5l-6 -69h-63v419zM253 543q0 53 -20 76t-48 23q-29 0 -48 -23.5t-19 -77.5q0 -41 20 -66.5t48 -25.5q32 0 49.5 25.5t17.5 68.5z" />
    <glyph glyph-name="c.superior" horiz-adv-x="301" 
d="M25 541q0 66 36.5 111.5t99.5 45.5q57 0 80.5 -24t25.5 -52q1 -7 0.5 -14t-1.5 -13h-34q-1 18 -14 34t-47 16q-36 0 -53 -29.5t-17 -71.5q0 -48 20.5 -73t57.5 -25q32 0 50 15.5t21 43.5h26q0 -46 -28 -76t-85 -30q-25 0 -50 7t-44.5 23.5t-31.5 44t-12 67.5z" />
    <glyph glyph-name="d.superior" horiz-adv-x="353" 
d="M25 547q0 68 33.5 109.5t84.5 41.5q34 0 57 -17.5t35 -50.5v194l74 4v-423h-59l-7 79q-7 -40 -30 -62.5t-69 -22.5t-82.5 36t-36.5 112zM235 550q0 41 -19.5 66t-47.5 25q-33 0 -50.5 -25.5t-17.5 -67.5q0 -52 20 -75.5t48 -23.5q29 0 48 24t19 77z" />
    <glyph glyph-name="e.superior" horiz-adv-x="307" 
d="M25 540q0 65 37.5 111.5t99.5 46.5q60 0 85.5 -31.5t25.5 -68.5q0 -12 -1.5 -27.5t-2.5 -21.5h-172v-4q0 -46 21 -73t64 -27q32 0 53 17t22 43h26q0 -45 -31 -75.5t-88 -30.5q-64 0 -101.5 36t-37.5 105zM166 647q-25 0 -43 -18t-24 -49h113q1 1 1.5 6.5t0.5 10.5
q0 16 -8.5 33t-39.5 17z" />
    <glyph glyph-name="f.superior" horiz-adv-x="199" 
d="M55 405v245h-46v30l45 6q-1 17 -2.5 30.5t-0.5 29.5q4 34 27.5 58t66.5 24q34 0 52 -14t20 -36q1 -6 1.5 -13t-0.5 -15h-20q-1 12 -10 21t-29 9q-24 0 -35 -12.5t-11 -30.5q0 -13 3 -23.5t6 -26.5h78v-37h-73q1 -6 1 -13.5v-15.5v-216h-73z" />
    <glyph glyph-name="g.superior" horiz-adv-x="323" 
d="M306 359q0 -49 -39.5 -75.5t-116.5 -26.5q-62 0 -96.5 19t-34.5 56q0 10 2.5 17t6.5 13h25l-2 -8t-1 -8q0 -25 25 -36.5t72 -11.5q49 0 69 12.5t20 33.5q0 19 -15 26t-47 7h-41q-46 0 -72.5 16t-26.5 51q0 25 17 40.5t33 22.5q-25 12 -39.5 34.5t-14.5 54.5q0 44 33 73
t92 29q29 0 54.5 -10.5t41.5 -28.5q4 23 15.5 31t22.5 8q20 0 27.5 -10t8.5 -21q0 -5 -0.5 -10.5t-1.5 -9.5h-14q0 7 -3.5 12.5t-11.5 5.5t-14 -9t-6 -30v-27q0 -46 -31 -76t-88 -30q-12 0 -23 1.5t-21 3.5q-10 -4 -21.5 -11t-11.5 -19q0 -16 13 -20.5t51 -4.5h43
q60 0 90.5 -20t30.5 -64zM206 592q0 26 -15 41.5t-38 15.5q-26 0 -41 -17t-15 -41q0 -31 16 -44t40 -13q23 0 38 15t15 43z" />
    <glyph glyph-name="h.superior" horiz-adv-x="348" 
d="M308 405h-74v148q0 46 -11.5 66t-39.5 20q-32 0 -48.5 -32t-16.5 -94v-108h-74v419l74 4v-211q8 35 30 58t65 23q54 0 74.5 -31t20.5 -82v-180z" />
    <glyph glyph-name="j.superior" horiz-adv-x="176" 
d="M54 767v67h82v-67h-82zM-18 335h20q1 -13 7 -21.5t22 -8.5t23.5 12t7.5 40q0 13 -2.5 46.5t-2.5 60.5v224l73 4v-307q0 -63 -18.5 -95.5t-64.5 -32.5q-41 0 -53 26.5t-12 51.5z" />
    <glyph glyph-name="k.superior" horiz-adv-x="325" 
d="M44 824l74 4v-243l112 103h75l-106 -96l116 -187h-83l-85 140l-29 -26v-114h-74v419z" />
    <glyph glyph-name="l.superior" horiz-adv-x="163" 
d="M45 824l73 4v-423h-73v419z" />
    <glyph glyph-name="m.superior" horiz-adv-x="526" 
d="M302 405h-74v147q0 47 -11 67t-39 20q-31 0 -46 -31.5t-15 -94.5v-108h-74v283l63 4l8 -90v-1q6 40 27 68.5t69 28.5t68 -24.5t23 -65.5q8 37 30 63.5t66 26.5q54 0 72 -31t18 -82v-180h-74v147q0 47 -11.5 67t-39.5 20q-31 0 -45.5 -31.5t-14.5 -94.5v-108z" />
    <glyph glyph-name="o.superior" horiz-adv-x="332" 
d="M25 547q0 69 39.5 110t102.5 41q59 0 100 -38.5t41 -113.5q0 -69 -37.5 -108t-103.5 -39q-62 0 -102 37.5t-40 110.5zM235 548q0 42 -17.5 68t-51.5 26q-31 0 -49.5 -25t-18.5 -68q0 -50 18 -75t51 -25q30 0 49 24t19 75z" />
    <glyph glyph-name="p.superior" horiz-adv-x="351" 
d="M43 688l62 4l6 -73q9 35 31.5 57t64.5 22q46 0 83 -36t37 -112q0 -69 -34 -110t-85 -41q-34 0 -57 16t-35 48v-200h-73v425zM252 542q0 53 -20 76.5t-48 23.5q-30 0 -49 -24t-19 -78q0 -41 20 -66t48 -25q33 0 50.5 25.5t17.5 67.5z" />
    <glyph glyph-name="q.superior" horiz-adv-x="352" 
d="M25 547q0 68 33.5 109.5t84.5 41.5q36 0 60.5 -20t35.5 -58v3l8 65l62 4v-429h-74v192q-10 -27 -32 -41.5t-59 -14.5q-46 0 -82.5 36t-36.5 112zM235 550q0 41 -19.5 66.5t-47.5 25.5q-33 0 -50.5 -26t-17.5 -67q0 -52 20 -76t48 -24q29 0 48 24t19 77z" />
    <glyph glyph-name="r.superior" horiz-adv-x="266" 
d="M43 688l62 4l7 -88q6 37 23.5 65.5t55.5 28.5q35 0 49.5 -23.5t14.5 -47.5q0 -10 -1.5 -17t-3.5 -14h-32q1 2 1 4.5t-1 3.5q-1 13 -9 25t-28 12q-32 0 -48 -34.5t-16 -100.5v-101h-74v283z" />
    <glyph glyph-name="s.superior" horiz-adv-x="283" 
d="M28 500h32q4 -30 23.5 -45.5t49.5 -15.5q23 0 39 8.5t16 27.5q0 18 -13 27t-45 16q-46 11 -70 31t-24 59q0 40 30.5 65t82.5 25q50 0 77.5 -23.5t21.5 -64.5h-33q-1 19 -15 32.5t-42 13.5q-23 0 -36.5 -9t-13.5 -27q0 -17 13.5 -24.5t50.5 -17.5q48 -13 68 -35t20 -55
q0 -40 -31 -64.5t-86 -24.5q-59 0 -86.5 27.5t-28.5 73.5z" />
    <glyph glyph-name="t.superior" horiz-adv-x="225" 
d="M49 501v149h-45v31l45 6v66l74 5v-70h77v-38h-77v-159q0 -22 9 -33t26 -11t23.5 7.5t6.5 20.5h19q0 -35 -15.5 -55.5t-55.5 -20.5q-43 0 -65 24t-22 78z" />
    <glyph glyph-name="u.superior" horiz-adv-x="346" 
d="M232 484v2q-7 -36 -29 -61.5t-68 -25.5q-55 0 -75 30.5t-20 81.5v177l73 4v-148q0 -46 12 -66t40 -20q33 0 49 32t16 93v105l74 4v-287h-68z" />
    <glyph glyph-name="v.superior" horiz-adv-x="292" 
d="M4 688h81l69 -204l71 204h64l-105 -283h-75z" />
    <glyph glyph-name="w.superior" horiz-adv-x="448" 
d="M5 688h81l60 -197l64 183h51l64 -181l58 195h60l-90 -283h-63l-65 174l-66 -174h-64z" />
    <glyph glyph-name="x.superior" horiz-adv-x="296" 
d="M203 405l-68 111l-66 -111h-63l96 145l-88 138h87l59 -95l59 95h61l-90 -133l99 -150h-86z" />
    <glyph glyph-name="y.superior" horiz-adv-x="300" 
d="M11 333h19q0 -11 7 -20t24 -9q18 0 28 12.5t22 42.5l15 39l-123 290h80l80 -192l67 192h66l-144 -361q-16 -40 -37 -55t-43 -15q-25 0 -38 9t-18.5 21.5t-5.5 25.5t1 20z" />
    <glyph glyph-name="z.superior" horiz-adv-x="277" 
d="M23 443l145 190h-136v55h220v-47l-142 -185h144v-51h-231v38z" />
    <glyph glyph-name="ampersand.small" horiz-adv-x="615" 
d="M599 101q0 -54 -28 -82t-84 -28q-25 0 -51 8.5t-53 30.5q-32 -19 -69.5 -29t-77.5 -10q-90 0 -146.5 40.5t-56.5 119.5q0 37 14 64t36 47t51 33.5t59 22.5q-10 25 -15.5 47t-5.5 41q0 33 13 57t34.5 39.5t50 23t59.5 7.5q63 0 94.5 -30t31.5 -73q0 -55 -42.5 -81.5
t-105.5 -43.5q13 -24 28 -50.5t31 -52.5q15 -25 27.5 -46t22.5 -38q25 25 42 61.5t22 82.5h42q0 -54 -21 -101.5t-56 -83.5q15 -18 30.5 -26.5t36.5 -8.5q27 0 38.5 15.5t12.5 43.5h36zM267 415q0 -14 5.5 -32t15.5 -39q46 12 77.5 29t31.5 54q0 25 -16.5 41.5t-44.5 16.5
q-34 0 -51.5 -18t-17.5 -52zM273 169q-16 28 -32.5 55.5t-29.5 54.5q-37 -15 -59 -40.5t-22 -70.5q0 -54 36 -83.5t87 -29.5q23 0 45.5 4t43.5 12q-16 19 -33.5 43t-35.5 55z" />
    <glyph glyph-name="chevronleft" horiz-adv-x="568" 
d="M500 690l-335 -347l331 -343h-130l-331 343l334 347h131z" />
    <glyph glyph-name="chevronright" horiz-adv-x="568" 
d="M533 343l-331 -343h-130l331 343l-335 347h131z" />
    <glyph glyph-name="chevronup" horiz-adv-x="770" 
d="M720 249v-136l-337 379l-333 -375v135l333 376z" />
    <glyph glyph-name="chevrondown" horiz-adv-x="770" 
d="M720 491l-333 -376l-337 379v136l337 -379l333 375v-135z" />
    </font>
</defs>
</svg>
