<?xml version="1.0" standalone="no"?>
<!DOCTYPE svg PUBLIC "-//W3C//DTD SVG 1.1//EN" "http://www.w3.org/Graphics/SVG/1.1/DTD/svg11.dtd" >
<svg xmlns="http://www.w3.org/2000/svg" xmlns:xlink="http://www.w3.org/1999/xlink" version="1.1">
<metadata>
Created by FontForge 20170731 at Mon Jan 29 15:30:10 2018
 By Aleksey,,,
Alice Savoie. Le caractere Faune est une commande du Centre national des arts plastiques.
</metadata>
<defs>
<font id="Faune-DisplayThin" horiz-adv-x="550" >
  <font-face 
    font-family="Faune Thin"
    font-weight="250"
    font-stretch="normal"
    units-per-em="1000"
    panose-1="2 0 0 0 0 0 0 0 0 0"
    ascent="800"
    descent="-200"
    x-height="470"
    cap-height="690"
    bbox="-35 -250 1001 914"
    underline-thickness="12"
    underline-position="-262"
    unicode-range="U+0020-FB02"
  />
<missing-glyph horiz-adv-x="500" 
d="M80 0v690h340v-690h-340zM101 676l149 -316l149 316h-298zM94 660v-630l149 315zM257 345l149 -315v630zM101 14h298l-149 316z" />
    <glyph glyph-name="fi" unicode="fi" horiz-adv-x="497" 
d="M126 0v392q0 19 -1.5 36t-2.5 30h-92v12h90q-6 40 -15 67.5t-9 67.5q0 41 26 73t83 32q29 0 48.5 -8.5t29.5 -24.5q5 -9 8.5 -19.5t3.5 -23.5h-12q-1 31 -21 47.5t-57 16.5q-51 0 -74 -30t-23 -63q1 -37 9.5 -64.5t15.5 -70.5h140v-12h-139q2 -14 3 -30.5t1 -35.5v-392
h-12zM389 643q-9 0 -14 6t-5 13t5 12.5t14 5.5q8 0 13 -5.5t5 -12.5t-5 -13t-13 -6zM382 470h12v-470h-12v470z" />
    <glyph glyph-name="fl" unicode="fl" horiz-adv-x="504" 
d="M126 0v392q0 19 -1.5 36t-2.5 30h-92v12h90q-6 40 -15 67.5t-9 67.5q0 41 26 73t83 32q29 0 48.5 -8.5t29.5 -24.5q5 -9 8.5 -19.5t3.5 -23.5h-12q-1 31 -21 47.5t-57 16.5q-51 0 -74 -30t-23 -63q1 -37 9.5 -64.5t15.5 -70.5h140v-12h-139q2 -14 3 -30.5t1 -35.5v-392
h-12zM392 710h12v-710h-12v710z" />
    <glyph glyph-name=".notdef" horiz-adv-x="500" 
d="M80 0v690h340v-690h-340zM101 676l149 -316l149 316h-298zM94 660v-630l149 315zM257 345l149 -315v630zM101 14h298l-149 316z" />
    <glyph glyph-name=".null" horiz-adv-x="0" 
 />
    <glyph glyph-name="nonmarkingreturn" horiz-adv-x="333" 
 />
    <glyph glyph-name="space" unicode=" " horiz-adv-x="250" 
 />
    <glyph glyph-name="exclam" unicode="!" horiz-adv-x="277" 
d="M145 177h-14v513h14v-513zM120 14q0 7 5 12.5t14 5.5q8 0 13 -5.5t5 -12.5t-5 -13t-13 -6q-9 0 -14 6t-5 13z" />
    <glyph glyph-name="quotedbl" unicode="&#x22;" horiz-adv-x="244" 
d="M64 547h-14v163h14v-163zM194 547h-14v163h14v-163z" />
    <glyph glyph-name="numbersign" unicode="#" 
d="M127 0h-15l32 217h-124v14h126l32 218h-123v14h125l30 202h15l-30 -202h196l30 202h15l-30 -202h124v-14h-126l-33 -218h124v-14h-126l-32 -217h-15l32 217h-195zM161 231h195l33 218h-196z" />
    <glyph glyph-name="dollar" unicode="$" 
d="M275 -80h-14v76q-43 0 -80.5 9.5t-65 29t-43.5 51t-16 76.5h14q0 -41 15.5 -70.5t41.5 -47.5t61 -26t73 -8v341q-87 22 -127.5 61.5t-40.5 105.5q0 81 48 119t120 40v63h14v-63q37 0 69.5 -10t56.5 -29t38 -46.5t14 -62.5h-14q0 33 -13.5 58.5t-36 42t-52.5 25t-62 8.5
v-301q4 -1 7 -1.5t7 -1.5q103 -25 144.5 -71t41.5 -115q0 -44 -17 -77t-45 -55t-64 -33t-74 -12v-76zM107 518q0 -60 38 -95.5t116 -56.5v297q-66 -2 -110 -36t-44 -109zM285 345q-2 1 -5 1.5t-5 0.5v-337q35 1 69 11t59.5 30t41.5 50.5t16 71.5q0 64 -40 106t-136 66z" />
    <glyph glyph-name="percent" unicode="%" 
d="M435 665h15l-335 -665h-16zM116 470q-40 0 -68 28t-28 67q0 40 28 67.5t68 27.5q39 0 67 -27.5t28 -67.5q0 -39 -28 -67t-67 -28zM116 484q33 0 57 24t24 57q0 34 -24 57.5t-57 23.5q-34 0 -58 -23.5t-24 -57.5q0 -33 24 -57t58 -24zM435 -5q-40 0 -68 28t-28 67
q0 40 28 67.5t68 27.5q39 0 67 -27.5t28 -67.5q0 -39 -28 -67t-67 -28zM435 9q33 0 57 24t24 57q0 34 -24 57.5t-57 23.5q-34 0 -58 -23.5t-24 -57.5q0 -33 24 -57t58 -24z" />
    <glyph glyph-name="ampersand" unicode="&#x26;" horiz-adv-x="638" 
d="M618 78q0 -42 -16.5 -62.5t-57.5 -20.5q-30 0 -56 15t-56 52q-33 -31 -77.5 -48.5t-99.5 -17.5q-38 0 -76.5 13t-69 39.5t-50 68t-19.5 97.5q0 54 16.5 91t43.5 62t63 40.5t74 26.5q-10 34 -16 65t-6 57q0 72 37 106t100 34t93.5 -34t30.5 -82q0 -40 -17.5 -65
t-46.5 -40.5t-67 -26t-78 -20.5q-3 -1 -6 -1.5t-7 -1.5q13 -40 32 -82t41 -83q33 -60 59 -104t47 -73q40 43 59.5 104t19.5 132h14q0 -75 -21 -139.5t-63 -107.5q28 -34 51.5 -48.5t48.5 -14.5q31 0 46.5 15t15.5 54h14zM229 556q0 -25 5.5 -55.5t15.5 -63.5q3 1 6.5 2
t6.5 2q37 10 72.5 19t63.5 23.5t45.5 37.5t17.5 59q0 42 -27 72t-83 30q-57 0 -90 -30.5t-33 -95.5zM315 254q-22 43 -41.5 85t-32.5 82q-36 -10 -70 -24.5t-59.5 -38t-41.5 -58.5t-16 -86q0 -53 18 -91.5t46.5 -63.5t64.5 -37t72 -12q53 0 95 16.5t73 46.5
q-22 30 -48.5 74.5t-59.5 106.5z" />
    <glyph glyph-name="quotesingle" unicode="'" horiz-adv-x="114" 
d="M64 547h-14v163h14v-163z" />
    <glyph glyph-name="parenleft" unicode="(" horiz-adv-x="248" 
d="M62 270q0 -101 21 -181.5t46 -136t46.5 -86t22.5 -32.5l-9 -7q-1 1 -23.5 32t-48 87.5t-47 138.5t-21.5 185q0 102 21 184t47 138.5t48 87.5t24 33l9 -7q-1 -2 -22.5 -32.5t-46.5 -86t-46 -136t-21 -181.5z" />
    <glyph glyph-name="parenright" unicode=")" horiz-adv-x="248" 
d="M186 270q0 101 -21 181.5t-46 136t-46.5 86t-22.5 32.5l9 7q1 -1 23.5 -32t48 -87.5t47 -138.5t21.5 -185q0 -102 -21 -184t-47 -138.5t-48 -87.5t-24 -33l-9 7q1 2 22.5 32.5t46.5 86t46 136t21 181.5z" />
    <glyph glyph-name="asterisk" unicode="*" horiz-adv-x="500" 
d="M374 347l-9 -7l-115 152l-106 -156l-10 6l106 156l-160 51l4 12l160 -51v180h12v-179l160 50l4 -12l-160 -50z" />
    <glyph glyph-name="plus" unicode="+" 
d="M282 104h-14v198h-188v14h188v198h14v-198h188v-14h-188v-198z" />
    <glyph glyph-name="comma" unicode="," horiz-adv-x="197" 
d="M45 -135q4 4 12.5 17t17 30.5t16.5 39.5t10 44q-8 0 -14.5 4.5t-6.5 13.5q0 8 5 13t12 5q9 0 14 -6t5 -15q0 -24 -7.5 -48.5t-18 -46t-20.5 -37.5t-16 -22z" />
    <glyph glyph-name="hyphen" unicode="-" horiz-adv-x="337" 
d="M60 308h217v-12h-217v12z" />
    <glyph glyph-name="period" unicode="." horiz-adv-x="197" 
d="M80 14q0 7 5 12.5t14 5.5q8 0 13 -5.5t5 -12.5t-5 -13t-13 -6q-9 0 -14 6t-5 13z" />
    <glyph glyph-name="slash" unicode="/" horiz-adv-x="433" 
d="M45 -88h-15l358 798h15z" />
    <glyph glyph-name="zero" unicode="0" 
d="M277 -5q-42 0 -82.5 18.5t-71.5 58.5t-50.5 105t-19.5 157q0 83 17 147t46.5 107t70.5 65t90 22q41 0 80.5 -18t70.5 -57.5t50 -103t19 -153.5q0 -170 -62 -259t-158 -89zM277 9q92 0 149 88t57 246q0 84 -17.5 145t-46 99t-65.5 56t-77 18q-93 0 -151.5 -85.5
t-58.5 -241.5q0 -86 17.5 -148t47 -101t67.5 -57.5t78 -18.5z" />
    <glyph glyph-name="one" unicode="1" horiz-adv-x="371" 
d="M260 672h11v-672h-14v652l-203 -152l-9 11z" />
    <glyph glyph-name="two" unicode="2" 
d="M490 5h-402v12q81 79 149 140.5t116 115t75 105t27 110.5q0 74 -43 122.5t-127 48.5q-54 0 -92 -20.5t-58.5 -54t-23.5 -75t14 -83.5h-14q-17 45 -13 89.5t26.5 79t63 56.5t97.5 22q91 0 137.5 -52.5t46.5 -132.5q0 -58 -26 -110t-73 -105.5t-113.5 -115t-146.5 -138.5
h380v-14z" />
    <glyph glyph-name="three" unicode="3" 
d="M467 183q0 -88 -55 -138t-146 -50q-111 0 -157 52t-37 137h14q-9 -78 34.5 -126.5t145.5 -48.5q85 0 136 46t51 128t-56.5 118.5t-145.5 36.5h-77v14h75q36 0 69 9.5t58 28t40 47t15 66.5q0 74 -42.5 116t-120.5 42q-96 0 -137 -48t-30 -128h-15q-6 40 1.5 75t29.5 60.5
t59.5 40t91.5 14.5q85 0 131 -46t46 -126q0 -67 -42 -106.5t-102 -50.5q75 -9 120.5 -48.5t45.5 -114.5z" />
    <glyph glyph-name="four" unicode="4" 
d="M521 224h-142v-224h-14v224h-316v11l319 437h11v-434h142v-14zM69 238h296v407z" />
    <glyph glyph-name="five" unicode="5" 
d="M485 224q0 -50 -14 -92t-40.5 -72.5t-64.5 -47.5t-86 -17q-96 0 -149 48.5t-41 132.5h14q-10 -72 35.5 -119.5t140.5 -47.5q45 0 80.5 16.5t60 45t37.5 68t13 85.5q0 85 -48 139t-138 54q-43 0 -75.5 -12t-53 -27t-31 -27l-10.5 -12h-12v326h338v-14h-324v-289q7 8 21 20
t34.5 23t49 18.5t63.5 7.5q96 0 148 -57t52 -150z" />
    <glyph glyph-name="six" unicode="6" 
d="M293 675q60 0 96 -18t54.5 -43t24 -52.5t5.5 -46.5h-15q0 16 -5 41t-22 48.5t-50 40t-88 16.5q-59 0 -100 -25.5t-66 -70.5t-36.5 -107.5t-11.5 -135.5q0 -34 2 -58t6 -52q1 50 18.5 87.5t45.5 62t65.5 36.5t79.5 12q36 0 70.5 -11.5t60.5 -35.5t42 -63.5t16 -94.5
q0 -50 -15.5 -89.5t-42.5 -66t-63.5 -40.5t-77.5 -14q-113 0 -167.5 81.5t-54.5 245.5q0 77 12.5 142.5t39.5 112t71 72.5t106 26zM295 396q-50 0 -87 -16.5t-61 -43.5t-35.5 -63t-11.5 -75t12 -73.5t35.5 -60t58.5 -40.5t80 -15q38 0 72 13t59 38t39.5 61.5t14.5 83.5
q0 51 -15 87.5t-40 59.5t-56.5 33.5t-64.5 10.5z" />
    <glyph glyph-name="seven" unicode="7" horiz-adv-x="492" 
d="M452 665v-11q-73 -97 -128 -190.5t-91.5 -177.5t-54.5 -157t-18 -129h-15q0 58 18 131t53.5 155.5t89.5 175t126 189.5h-372v14h392z" />
    <glyph glyph-name="eight" unicode="8" 
d="M275 -5q-90 0 -149.5 45.5t-59.5 141.5q0 40 13 70.5t35 51.5t51 33.5t60 16.5q-65 9 -102 51t-37 108q0 77 50.5 119.5t138.5 42.5q87 0 138.5 -42.5t51.5 -119.5q0 -66 -38 -108t-102 -52q31 -4 60 -16.5t51 -33t35 -51t13 -70.5q0 -48 -16 -83.5t-44 -58t-66.5 -34
t-82.5 -11.5zM275 361q35 0 67.5 8.5t56.5 27t38 47.5t14 69q0 71 -48 109.5t-128 38.5q-81 0 -128 -38.5t-47 -109.5q0 -40 14 -69t38 -47.5t56 -27t67 -8.5zM275 9q40 0 75.5 10t62 30.5t42 53.5t15.5 79q0 43 -17 74.5t-44 51.5t-62.5 29.5t-71.5 9.5q-37 0 -72 -10
t-62 -30t-44 -51.5t-17 -73.5q0 -46 15.5 -79t42 -53.5t62 -30.5t75.5 -10z" />
    <glyph glyph-name="nine" unicode="9" 
d="M267 -5q-60 0 -96 18t-54.5 43t-24 52.5t-5.5 46.5h15q0 -16 5 -41t22 -48.5t50 -40t88 -16.5q59 0 100 25.5t66 70.5t36.5 107.5t11.5 135.5q0 34 -2 58t-6 52q-1 -50 -18.5 -87.5t-45.5 -62t-65.5 -36.5t-79.5 -12q-36 0 -70.5 11.5t-60.5 35.5t-42 63.5t-16 94.5
q0 50 15.5 89.5t42.5 66t63.5 40.5t77.5 14q113 0 167.5 -81.5t54.5 -245.5q0 -77 -12.5 -142.5t-39.5 -112t-71 -72.5t-106 -26zM265 274q50 0 87 16.5t61 43.5t35.5 63t11.5 75t-12 73.5t-35.5 60t-58.5 40.5t-80 15q-38 0 -72 -13t-59 -38t-39.5 -61.5t-14.5 -83.5
q0 -51 15 -87.5t40 -59.5t56.5 -33.5t64.5 -10.5z" />
    <glyph glyph-name="colon" unicode=":" horiz-adv-x="197" 
d="M80 424q0 7 5 12.5t14 5.5q8 0 13 -5.5t5 -12.5t-5 -13t-13 -6q-9 0 -14 6t-5 13zM80 14q0 7 5 12.5t14 5.5q8 0 13 -5.5t5 -12.5t-5 -13t-13 -6q-9 0 -14 6t-5 13z" />
    <glyph glyph-name="semicolon" unicode=";" horiz-adv-x="197" 
d="M80 424q0 7 5 12.5t14 5.5q8 0 13 -5.5t5 -12.5t-5 -13t-13 -6q-9 0 -14 6t-5 13zM46 -135q4 4 12.5 17t17 30.5t16.5 39.5t10 44q-8 0 -14.5 4.5t-6.5 13.5q0 8 5 13t12 5q9 0 14 -6t5 -15q0 -24 -7.5 -48.5t-18 -46t-20.5 -37.5t-16 -22z" />
    <glyph glyph-name="less" unicode="&#x3c;" 
d="M450 141l-6 -12l-344 174v12l344 174l6 -12l-332 -168z" />
    <glyph glyph-name="equal" unicode="=" 
d="M470 212v-14h-390v14h390zM470 420v-14h-390v14h390z" />
    <glyph glyph-name="greater" unicode="&#x3e;" 
d="M450 303l-344 -174l-6 12l332 168l-332 168l6 12l344 -174v-12z" />
    <glyph glyph-name="question" unicode="?" horiz-adv-x="456" 
d="M179 290v-113h-14v127q29 0 68.5 5.5t74.5 25.5t59.5 58.5t24.5 103.5q0 81 -44 132.5t-134 51.5q-67 0 -108.5 -36.5t-41.5 -98.5h-14q0 68 44.5 108.5t119.5 40.5q96 0 144 -55t48 -143q0 -68 -24.5 -108.5t-59.5 -62.5t-74.5 -29t-68.5 -7zM152 14q0 7 5 12.5t14 5.5
q8 0 13 -5.5t5 -12.5t-5 -13t-13 -6q-9 0 -14 6t-5 13z" />
    <glyph glyph-name="at" unicode="@" horiz-adv-x="766" 
d="M635 -10l8 -8q-1 -1 -15 -14t-42.5 -28t-72.5 -27t-106 -12q-92 0 -159.5 27t-111 74t-65 112.5t-21.5 140.5q0 73 22.5 141.5t66 120.5t109.5 84t151 32q69 0 127.5 -21.5t100.5 -61.5t65.5 -98t23.5 -129t-20.5 -117t-49 -71.5t-59 -35.5t-51.5 -10q-37 0 -52.5 17
t-15.5 50q0 9 1 19.5t2 22.5q-19 -43 -53.5 -72.5t-80.5 -29.5q-52 0 -78.5 35t-26.5 89q0 37 11 73.5t31.5 65.5t49.5 47t65 18q45 0 70.5 -26.5t31.5 -68.5l5 32l8 48h12l-31 -194q-3 -17 -4 -32t-1 -27q0 -25 12.5 -40t43.5 -15q20 0 48.5 9.5t55 34.5t45.5 68t19 110
q0 68 -22.5 123.5t-63 94t-97 59.5t-122.5 21q-82 0 -145.5 -30.5t-106 -81.5t-64 -117t-21.5 -137q0 -73 20.5 -136t62.5 -108.5t107.5 -71.5t154.5 -26q59 0 102 11.5t70 25.5t41 26.5t15 13.5zM483 301q0 47 -23 79t-71 32q-34 0 -61 -17.5t-45.5 -45t-28.5 -61.5
t-10 -68q0 -49 22.5 -80.5t70.5 -31.5q34 0 61 18t46 46t29 62.5t10 66.5z" />
    <glyph glyph-name="A" unicode="A" horiz-adv-x="585" 
d="M46 0h-16l256 692h14l255 -692h-16l-91 246h-311zM142 260h301l-150 409z" />
    <glyph glyph-name="B" unicode="B" horiz-adv-x="549" 
d="M100 690h147q47 0 87.5 -8.5t70.5 -28.5t47 -53t17 -82q0 -41 -14.5 -70t-38 -48t-53 -29.5t-59.5 -14.5q41 -3 78 -14t64 -32t42.5 -53t15.5 -76q0 -53 -18 -88.5t-47 -56t-65.5 -28.5t-72.5 -8h-201v690zM247 676h-133v-315h117q33 0 72.5 6t73 23t56 47.5t22.5 80.5
q0 46 -16.5 76.5t-44.5 48.5t-66 25.5t-81 7.5zM270 347h-156v-333h187q33 0 67 7.5t61 26t44 51t17 82.5q0 46 -18.5 77.5t-48.5 51t-70 28.5t-83 9z" />
    <glyph glyph-name="C" unicode="C" horiz-adv-x="614" 
d="M55 339q0 88 23.5 155t63.5 111.5t93 67t112 22.5q60 0 101.5 -18t66.5 -40t36.5 -41t12.5 -21l-12 -6q-1 2 -12 20t-34.5 38.5t-62.5 37t-96 16.5q-56 0 -107 -22t-88.5 -65t-60 -107t-22.5 -148q0 -85 21.5 -147t58 -102.5t85.5 -60t104 -19.5q63 0 106 20t68.5 44
t36.5 45t12 23l13 -5q-1 -3 -12.5 -25.5t-38 -48t-72 -46.5t-113.5 -21q-57 0 -108.5 20t-90 62t-61.5 107t-23 154z" />
    <glyph glyph-name="D" unicode="D" horiz-adv-x="657" 
d="M100 690h147q94 0 162 -28t110.5 -75t62.5 -109t20 -129q0 -102 -30.5 -169.5t-80.5 -107.5t-114 -56t-130 -16h-147v690zM247 676h-133v-662h133q64 0 125.5 15.5t109 54t77 103.5t29.5 162q0 64 -19 123.5t-59.5 104.5t-106 72t-156.5 27z" />
    <glyph glyph-name="E" unicode="E" horiz-adv-x="518" 
d="M418 356h-304v-337h364v-14h-378v680h378v-14h-364v-301h304v-14z" />
    <glyph glyph-name="F" unicode="F" horiz-adv-x="468" 
d="M388 356h-274v-356h-14v685h368v-14h-354v-301h274v-14z" />
    <glyph glyph-name="G" unicode="G" horiz-adv-x="641" 
d="M55 342q0 88 25 154.5t67 110.5t96.5 66t113.5 22q62 0 103 -18t66 -40t36 -41t12 -21l-12 -6q-1 2 -12 20t-34.5 38.5t-62.5 37t-96 16.5q-56 0 -108.5 -21.5t-92 -63.5t-63.5 -106t-24 -148q0 -85 23 -147.5t62 -103.5t92 -61t112 -20q54 0 92.5 13.5t63.5 29.5
t36.5 29.5l11.5 13.5v216h-178v14h192v-234q-1 -3 -14 -18t-39.5 -32.5t-67 -31.5t-97.5 -14q-62 0 -117 20.5t-96.5 63t-65.5 108t-24 154.5z" />
    <glyph glyph-name="H" unicode="H" horiz-adv-x="664" 
d="M100 690h14v-312h436v312h14v-690h-14v364h-436v-364h-14v690z" />
    <glyph glyph-name="I" unicode="I" horiz-adv-x="234" 
d="M110 690h14v-690h-14v690z" />
    <glyph glyph-name="J" unicode="J" horiz-adv-x="404" 
d="M20 136h14q0 -21 7.5 -43.5t23.5 -41t41.5 -30.5t61.5 -12q43 0 70.5 18t43.5 49.5t22 74t6 91.5v448h14v-450q0 -116 -34.5 -180.5t-121.5 -64.5q-40 0 -68.5 13t-46 33t-25.5 45t-8 50z" />
    <glyph glyph-name="K" unicode="K" horiz-adv-x="549" 
d="M101 0v288l-1 1l1 1v400h14v-384l347 384h17l-267 -297l307 -393h-18l-299 382l-87 -97v-285h-14z" />
    <glyph glyph-name="L" unicode="L" horiz-adv-x="488" 
d="M100 690h14v-671h364v-14h-378v685z" />
    <glyph glyph-name="M" unicode="M" horiz-adv-x="794" 
d="M93 0h-13l51 695h11l255 -647l255 647h11l51 -695h-13l-47 665l-251 -642h-12l-251 642z" />
    <glyph glyph-name="N" unicode="N" horiz-adv-x="664" 
d="M564 690v-695h-15l-435 669v-664h-14v690h14l436 -671v671h14z" />
    <glyph glyph-name="O" unicode="O" horiz-adv-x="700" 
d="M55 344q0 83 23.5 148.5t63.5 110.5t94 68.5t116 23.5q52 0 104.5 -19.5t94.5 -61t68 -106.5t26 -155q0 -84 -23 -151t-62.5 -112.5t-93 -69.5t-114.5 -24q-53 0 -106.5 20t-95.5 62t-68.5 108.5t-26.5 157.5zM631 353q0 85 -25 147.5t-64.5 102.5t-89.5 59t-100 19
q-59 0 -111 -23t-90 -66.5t-60 -106t-22 -141.5q0 -87 25 -150.5t65.5 -104t91 -60t101.5 -19.5q59 0 110 23.5t88.5 67.5t59 108t21.5 144z" />
    <glyph glyph-name="P" unicode="P" horiz-adv-x="504" 
d="M100 690h167q47 0 87.5 -9.5t70.5 -30.5t47 -54.5t17 -82.5q0 -53 -19 -88t-48.5 -55.5t-67 -28.5t-73.5 -8h-167v-333h-14v690zM267 676h-153v-329h167q33 0 67.5 7.5t62.5 26t46 50.5t18 82q0 46 -16.5 77t-44.5 50t-66 27.5t-81 8.5z" />
    <glyph glyph-name="Q" unicode="Q" horiz-adv-x="700" 
d="M55 344q0 83 23.5 148.5t63.5 110.5t94 68.5t116 23.5q52 0 104.5 -19.5t94.5 -61t68 -106.5t26 -155q0 -81 -21.5 -146t-58.5 -110.5t-87.5 -71.5t-108.5 -29q23 -49 57.5 -76.5t98.5 -27.5q47 0 72 20.5t25 54.5h14q0 -39 -26 -64t-85 -25q-72 0 -111.5 32t-60.5 86h-1
q-53 0 -106.5 20t-95.5 62t-68.5 108.5t-26.5 157.5zM631 353q0 85 -25 147.5t-64.5 102.5t-89.5 59t-100 19q-59 0 -111 -23t-90 -66.5t-60 -106t-22 -141.5q0 -87 25 -150.5t65.5 -104t91 -60t101.5 -19.5q59 0 110 23.5t88.5 67.5t59 108t21.5 144z" />
    <glyph glyph-name="R" unicode="R" horiz-adv-x="576" 
d="M556 47q0 -25 -15 -38.5t-39 -13.5q-47 0 -56.5 38.5t-12.5 142.5q-2 84 -52.5 125t-128.5 41h-138v-342h-14v690h167q47 0 87.5 -10.5t70.5 -32t47 -54.5t17 -79q0 -43 -15 -74t-39 -50.5t-55.5 -30t-63.5 -13.5q57 -13 93.5 -54t38.5 -116q3 -87 8 -127t45 -40
q18 0 29.5 9.5t11.5 28.5h14zM267 676h-153v-320h167q33 0 67.5 7.5t62.5 25t46 48.5t18 77q0 43 -16.5 73.5t-44.5 50t-66 29t-81 9.5z" />
    <glyph glyph-name="S" unicode="S" horiz-adv-x="528" 
d="M50 185h14q0 -47 15 -80.5t41.5 -54.5t63 -31t77.5 -10q38 0 74 9.5t63.5 29.5t44 52t16.5 76q0 66 -41.5 109.5t-140.5 68.5q-103 24 -151 64.5t-48 112.5q0 86 52.5 125t131.5 39q39 0 73.5 -10t60 -29t40 -46t14.5 -61h-14q0 32 -14 56.5t-37.5 41.5t-55.5 25.5
t-67 8.5q-72 0 -121 -35t-49 -115q0 -68 46.5 -104.5t142.5 -58.5q107 -26 149.5 -73.5t42.5 -118.5q0 -47 -17.5 -81.5t-47 -56.5t-68 -32.5t-79.5 -10.5q-45 0 -84 10.5t-67 33t-44 59t-16 87.5z" />
    <glyph glyph-name="T" unicode="T" horiz-adv-x="534" 
d="M274 0h-14v671h-260v14h534v-14h-260v-671z" />
    <glyph glyph-name="U" unicode="U" horiz-adv-x="640" 
d="M80 313v377h14v-377q0 -58 9.5 -113t34.5 -97t70 -68t115 -26q69 0 112.5 26t68 68t33.5 97t9 113v377h14v-377q0 -64 -10.5 -122t-37.5 -101.5t-73 -69t-116 -25.5q-72 0 -119.5 25.5t-74.5 69t-38 101.5t-11 122z" />
    <glyph glyph-name="V" unicode="V" horiz-adv-x="560" 
d="M0 690h15l265 -674l265 674h15l-274 -695h-12z" />
    <glyph glyph-name="W" unicode="W" horiz-adv-x="854" 
d="M15 690h15l176 -668l215 662h12l215 -664l176 670h15l-183 -695h-14l-215 664l-215 -664h-14z" />
    <glyph glyph-name="X" unicode="X" horiz-adv-x="552" 
d="M33 690h18l225 -323l225 323h18l-235 -336l248 -354h-18l-238 341l-238 -341h-18l247 354z" />
    <glyph glyph-name="Y" unicode="Y" horiz-adv-x="506" 
d="M501 690l-241 -386v-304h-14v304l-241 386h17l231 -370l231 370h17z" />
    <glyph glyph-name="Z" unicode="Z" horiz-adv-x="528" 
d="M45 17l406 654h-395v14h414v-11l-406 -654h419v-14h-438v11z" />
    <glyph glyph-name="bracketleft" unicode="[" horiz-adv-x="283" 
d="M233 -162v-12h-133v896h133v-12h-121v-872h121z" />
    <glyph glyph-name="backslash" unicode="\" horiz-adv-x="433" 
d="M45 710l358 -798h-15l-358 798h15z" />
    <glyph glyph-name="bracketright" unicode="]" horiz-adv-x="283" 
d="M183 722v-896h-133v12h121v872h-121v12h133z" />
    <glyph glyph-name="asciicircum" unicode="^" horiz-adv-x="503" 
d="M268 675h10l174 -280l-10 -6l-169 272l-169 -272l-10 6z" />
    <glyph glyph-name="underscore" unicode="_" horiz-adv-x="501" 
d="M0 -238h500v-12h-500v12z" />
    <glyph glyph-name="grave" unicode="`" horiz-adv-x="500" 
d="M177 722l9 10l137 -161l-9 -10z" />
    <glyph glyph-name="a" unicode="a" horiz-adv-x="463" 
d="M55 103q0 57 41 94t128 37q31 0 62.5 -5t53.5 -12v120q0 56 -30.5 93.5t-101.5 37.5q-70 0 -100 -37.5t-30 -91.5h-12q0 59 33.5 100t108.5 41q78 0 111 -40.5t33 -102.5v-247q0 -43 10.5 -63.5t38.5 -20.5q19 0 29.5 12.5t10.5 30.5h12q0 -16 -11 -35t-42 -19
q-32 0 -46 20.5t-14 74.5v42q-8 -26 -22 -51t-34 -44t-47 -30.5t-60 -11.5q-54 0 -88 27.5t-34 80.5zM67 103q0 -47 31.5 -71.5t78.5 -24.5q41 0 72 18.5t51 47t30 62.5t10 65v5q-22 7 -55 12t-61 5q-78 0 -117.5 -33t-39.5 -86z" />
    <glyph glyph-name="b" unicode="b" horiz-adv-x="526" 
d="M95 710h12v-387q17 77 63 117t112 40q31 0 64.5 -13t61 -41.5t45.5 -74.5t18 -112q0 -119 -53.5 -181.5t-135.5 -62.5q-24 0 -50.5 8.5t-51 27.5t-44 49t-29.5 72v-152h-12v710zM459 239q0 61 -16.5 105t-42.5 71t-57.5 40t-60.5 13q-78 0 -126.5 -61t-48.5 -174
q0 -60 17 -103t43 -70.5t57 -40t58 -12.5q78 0 127.5 60.5t49.5 171.5z" />
    <glyph glyph-name="c" unicode="c" horiz-adv-x="465" 
d="M55 228q0 55 12 101.5t35 80t57 52t78 18.5q71 0 105 -30.5t44 -67.5q3 -12 4.5 -24t1.5 -22h-12q0 18 -6 41t-21.5 43t-43.5 34t-72 14q-42 0 -74 -18.5t-53 -50.5t-32 -76t-11 -95q0 -56 14 -98t38 -69t56.5 -40.5t69.5 -13.5q75 0 111.5 42.5t36.5 106.5h12
q0 -72 -40.5 -116.5t-119.5 -44.5q-40 0 -74.5 14t-60 42.5t-40.5 72.5t-15 104z" />
    <glyph glyph-name="d" unicode="d" horiz-adv-x="526" 
d="M55 236q0 119 53.5 181.5t135.5 62.5q24 0 50.5 -8.5t51 -27.5t44 -49t29.5 -72v387h12v-710h-12v152q-17 -77 -63 -117t-112 -40q-31 0 -64.5 13t-61 41.5t-45.5 74.5t-18 112zM419 242q0 60 -17 103t-43 70.5t-57 40t-58 12.5q-78 0 -127.5 -60.5t-49.5 -171.5
q0 -61 16.5 -105t42.5 -71t57.5 -40t60.5 -13q78 0 126.5 61t48.5 174z" />
    <glyph glyph-name="e" unicode="e" horiz-adv-x="470" 
d="M55 227q0 55 13.5 102t38.5 80t60.5 52t79.5 19q46 0 75 -14.5t44 -36t20.5 -46t5.5 -44.5q0 -14 -1.5 -24.5t-2.5 -14.5h-314q-3 -15 -5 -31t-2 -32v-10q0 -56 14 -97.5t38 -68.5t56.5 -40.5t69.5 -13.5q75 0 116.5 42.5t41.5 106.5h12q0 -72 -45.5 -116.5t-124.5 -44.5
q-40 0 -74.5 14t-60 42t-40.5 72t-15 104zM247 468q-65 0 -109.5 -43.5t-61.5 -112.5h303q0 1 0.5 7t0.5 17q0 16 -4.5 39t-18.5 43.5t-40 35t-70 14.5z" />
    <glyph glyph-name="f" unicode="f" horiz-adv-x="270" 
d="M116 0v392q0 19 -1.5 36t-2.5 30h-92v12h90q-6 40 -15 67.5t-9 67.5q0 41 26 73t83 32q29 0 48.5 -8.5t29.5 -24.5q5 -9 8.5 -19.5t3.5 -23.5h-12q-1 31 -21 47.5t-57 16.5q-51 0 -74 -30t-23 -63q1 -37 9.5 -64.5t15.5 -70.5h140v-12h-139q2 -14 3 -30.5t1 -35.5v-392
h-12z" />
    <glyph glyph-name="g" unicode="g" horiz-adv-x="484" 
d="M75 318q0 74 45 118t117 44q46 0 87 -23t60 -70v4q0 55 13 72t32 17t27.5 -9t11.5 -22q1 -4 1 -8.5v-8.5h-12q0 12 -4.5 24t-23.5 12q-16 0 -24.5 -18.5t-8.5 -58.5v-82v0q-4 -69 -49 -110.5t-110 -41.5q-15 0 -29.5 2.5t-28.5 6.5q-4 -1 -17.5 -6t-27.5 -14.5t-25 -24
t-11 -35.5q0 -34 32 -52t113 -18h19q99 0 140.5 -27.5t41.5 -87.5q0 -62 -49 -106.5t-155 -44.5q-43 0 -81 7.5t-65 23.5t-43 41.5t-16 61.5q0 10 1 18t2 18h12q-1 -8 -2 -17t-1 -17q0 -34 15.5 -58t41.5 -38.5t61 -21t75 -6.5q99 0 145.5 40t46.5 99q0 57 -40.5 80
t-129.5 23h-18q-49 0 -80 6t-48.5 16.5t-23.5 26t-6 33.5t8.5 32.5t20 25t24.5 17.5t22 11q-37 17 -61.5 53.5t-24.5 92.5zM384 321q0 37 -13 65t-33.5 46t-47 27t-53.5 9q-66 0 -108 -41t-42 -109q0 -38 12.5 -66t33 -46.5t48 -27.5t56.5 -9q63 0 105 42t42 110z" />
    <glyph glyph-name="h" unicode="h" horiz-adv-x="508" 
d="M423 0h-12v288q0 80 -28 130t-112 50q-41 0 -71 -17.5t-50 -46t-30.5 -66.5t-12.5 -79v-259h-12v710h12v-377q15 63 56.5 105t109.5 42q86 0 118 -52t32 -138v-290z" />
    <glyph glyph-name="i" unicode="i" horiz-adv-x="217" 
d="M102 470h12v-470h-12v470zM109 643q-9 0 -14 6t-5 13t5 12.5t14 5.5q8 0 13 -5.5t5 -12.5t-5 -13t-13 -6z" />
    <glyph glyph-name="j" unicode="j" horiz-adv-x="242" 
d="M-10 -174h12q0 -31 14 -47.5t45 -16.5q37 0 51.5 35.5t14.5 107.5v565h12v-568q0 -80 -18.5 -116t-60.5 -36q-36 0 -53 18.5t-17 57.5zM134 643q-9 0 -14 6t-5 13t5 12.5t14 5.5q8 0 13 -5.5t5 -12.5t-5 -13t-13 -6z" />
    <glyph glyph-name="k" unicode="k" horiz-adv-x="439" 
d="M95 710h12v-468l260 228h17l-193 -171l228 -299h-16l-222 291l-74 -65v-226h-12v710z" />
    <glyph glyph-name="l" unicode="l" horiz-adv-x="212" 
d="M100 710h12v-710h-12v710z" />
    <glyph glyph-name="m" unicode="m" horiz-adv-x="799" 
d="M408 0h-12v288q0 80 -26.5 130t-110.5 50q-41 0 -70.5 -17.5t-48.5 -46t-28.5 -66.5t-9.5 -79v-259h-12v470h12v-133q13 62 52.5 102.5t106.5 40.5q78 0 110 -42t36 -113q13 67 53 111t107 44q87 0 117 -52t30 -138v-290h-12v288q0 80 -26.5 130t-110.5 50q-42 0 -72 -21
t-48.5 -52.5t-27.5 -70.5t-9 -75v-249z" />
    <glyph glyph-name="n" unicode="n" horiz-adv-x="503" 
d="M418 0h-12v288q0 80 -28 130t-112 50q-41 0 -71.5 -17t-51 -46t-31 -67t-10.5 -79v-259h-12v470h12v-134q14 63 55.5 103.5t110.5 40.5q87 0 118.5 -52t31.5 -138v-290z" />
    <glyph glyph-name="o" unicode="o" horiz-adv-x="488" 
d="M55 238q0 119 53.5 180.5t135.5 61.5t135.5 -61.5t53.5 -180.5t-53.5 -181t-135.5 -62t-135.5 62t-53.5 181zM421 238q0 111 -49.5 170.5t-127.5 59.5t-127.5 -59.5t-49.5 -170.5t49.5 -171t127.5 -60t127.5 60t49.5 171z" />
    <glyph glyph-name="p" unicode="p" horiz-adv-x="521" 
d="M90 470h12v-147q17 77 63 117t112 40q31 0 64.5 -13t61 -41.5t45.5 -74.5t18 -112q0 -119 -53.5 -181.5t-135.5 -62.5q-24 0 -50.5 8.5t-51 27.5t-44 49t-29.5 72v-392h-12v710zM454 239q0 61 -16.5 105t-42.5 71t-57.5 40t-60.5 13q-78 0 -126.5 -61t-48.5 -174
q0 -60 17 -103t43 -70.5t57 -40t58 -12.5q78 0 127.5 60.5t49.5 171.5z" />
    <glyph glyph-name="q" unicode="q" horiz-adv-x="521" 
d="M55 236q0 119 53.5 181.5t135.5 62.5q24 0 50.5 -8.5t51 -27.5t44 -49t29.5 -72v147h12v-710h-12v392q-17 -77 -63 -117t-112 -40q-31 0 -64.5 13t-61 41.5t-45.5 74.5t-18 112zM419 242q0 60 -17 103t-43 70.5t-57 40t-58 12.5q-78 0 -127.5 -60.5t-49.5 -171.5
q0 -61 16.5 -105t42.5 -71t57.5 -40t60.5 -13q78 0 126.5 61t48.5 174z" />
    <glyph glyph-name="r" unicode="r" horiz-adv-x="380" 
d="M90 470h12v-135q13 58 46.5 101.5t99.5 43.5q34 0 55 -13t31.5 -32t14 -40t3.5 -36v-9t-1 -11h-12q1 5 1 10v8q0 14 -3 33.5t-12.5 36.5t-28 29t-48.5 12q-48 0 -77 -25.5t-44.5 -64t-20 -84.5t-4.5 -87v-207h-12v470z" />
    <glyph glyph-name="s" unicode="s" horiz-adv-x="432" 
d="M55 156h12q0 -69 39 -109t117 -40q25 0 49.5 6.5t44 20.5t31.5 35.5t12 52.5q0 48 -30 76t-105 44q-78 17 -114 43t-36 81q0 60 39 87t99 27t102 -30t42 -84h-12q0 46 -38 74t-94 28q-54 0 -90 -23.5t-36 -78.5q0 -52 34.5 -74t105.5 -38q82 -18 113.5 -49t31.5 -83
q0 -34 -13 -58t-34 -39.5t-48 -22.5t-54 -7q-84 0 -126 42.5t-42 118.5z" />
    <glyph glyph-name="t" unicode="t" horiz-adv-x="325" 
d="M106 100v358h-96v12h96v130h12v-130h155v-12h-155v-358q0 -33 13 -63t64 -30q37 0 57.5 16.5t20.5 47.5h12q0 -39 -22.5 -57.5t-67.5 -18.5q-57 0 -73 32t-16 73z" />
    <glyph glyph-name="u" unicode="u" horiz-adv-x="503" 
d="M401 0v139q-14 -63 -55.5 -103.5t-110.5 -40.5q-87 0 -118.5 52t-31.5 138v285h12v-283q0 -80 28 -130t112 -50q41 0 71.5 17t51 46t31 67t10.5 79v254h12v-470h-12z" />
    <glyph glyph-name="v" unicode="v" horiz-adv-x="428" 
d="M25 470h14l175 -451l176 451h13l-183 -470h-12z" />
    <glyph glyph-name="w" unicode="w" horiz-adv-x="702" 
d="M30 470h13l147 -449l155 391h12l155 -391l147 449h13l-153 -470h-12l-156 395l-156 -395h-12z" />
    <glyph glyph-name="x" unicode="x" horiz-adv-x="426" 
d="M382 0l-169 239l-169 -239h-14l176 249l-156 221h14l149 -211l149 211h14l-156 -221l176 -249h-14z" />
    <glyph glyph-name="y" unicode="y" horiz-adv-x="434" 
d="M25 -194h12q0 -18 11.5 -31t39.5 -13t44.5 19.5t27.5 50.5l61 165l-190 473h14l183 -455l6 16l162 439h13l-237 -642q-13 -37 -33 -57.5t-52 -20.5q-37 0 -49.5 17t-12.5 39z" />
    <glyph glyph-name="z" unicode="z" horiz-adv-x="404" 
d="M40 10l304 448h-278v12h295v-10l-304 -448h307v-12h-324v10z" />
    <glyph glyph-name="braceleft" unicode="{" horiz-adv-x="335" 
d="M177 179q0 -47 -1.5 -82.5t-3.5 -65.5t-3.5 -58t-1.5 -61q0 -43 20.5 -57.5t51.5 -14.5h16v-14h-16q-37 0 -61.5 18t-24.5 68q0 33 1.5 61t3.5 58t3.5 65.5t1.5 82.5q0 27 -10 44.5t-21.5 27.5t-21.5 14l-10 4v12l10 4t21.5 14t21.5 27.5t10 44.5q0 47 -1.5 82.5
t-3.5 65.5t-3.5 58t-1.5 61q0 50 24.5 68t61.5 18h16v-14h-16q-31 0 -51.5 -14.5t-20.5 -57.5q0 -33 1.5 -61t3.5 -58t3.5 -65.5t1.5 -82.5q0 -43 -21 -65.5t-36 -30.5q15 -8 36 -30.5t21 -65.5z" />
    <glyph glyph-name="bar" unicode="|" horiz-adv-x="234" 
d="M124 -153h-14v893h14v-893z" />
    <glyph glyph-name="braceright" unicode="}" horiz-adv-x="335" 
d="M158 371q0 47 1.5 82.5t3.5 65.5t3.5 58t1.5 61q0 43 -20.5 57.5t-51.5 14.5h-16v14h16q37 0 61.5 -18t24.5 -68q0 -33 -1.5 -61t-3.5 -58t-3.5 -65.5t-1.5 -82.5q0 -27 10 -44.5t21.5 -27.5t21.5 -14l10 -4v-12l-10 -4t-21.5 -14t-21.5 -27.5t-10 -44.5q0 -47 1.5 -82.5
t3.5 -65.5t3.5 -58t1.5 -61q0 -50 -24.5 -68t-61.5 -18h-16v14h16q31 0 51.5 14.5t20.5 57.5q0 33 -1.5 61t-3.5 58t-3.5 65.5t-1.5 82.5q0 43 21 65.5t36 30.5q-15 8 -36 30.5t-21 65.5z" />
    <glyph glyph-name="asciitilde" unicode="~" 
d="M178 354q31 0 54.5 -13t46.5 -30q22 -15 45.5 -28t51.5 -13q40 0 58.5 23.5t22.5 60.5h13q-4 -43 -26 -70t-68 -27q-31 0 -56 13t-49 29q-21 16 -43 28.5t-50 12.5q-40 0 -59.5 -25.5t-23.5 -56.5h-15q4 38 28 67t70 29z" />
    <glyph glyph-name="exclamdown" unicode="&#xa1;" horiz-adv-x="277" 
d="M157 461q0 -7 -5 -12.5t-14 -5.5q-8 0 -13 5.5t-5 12.5t5 13t13 6q9 0 14 -6t5 -13zM132 298h14v-513h-14v513z" />
    <glyph glyph-name="cent" unicode="&#xa2;" horiz-adv-x="520" 
d="M272 0h-13v104q-38 2 -72 17.5t-60 44t-41 71.5t-15 100q0 55 12.5 101.5t36 80t59 52t80.5 18.5v101h13v-101q81 -2 117.5 -37t45.5 -73q2 -9 3 -17.5t1 -16.5h-13q0 18 -6.5 41t-24.5 43t-49.5 33.5t-81.5 13.5q-44 0 -78 -18t-56.5 -50t-34 -76t-11.5 -95
q0 -56 15.5 -97.5t41.5 -68.5t60 -40.5t71 -13.5q74 0 120.5 42t46.5 106h13q0 -72 -50.5 -116.5t-129.5 -44.5v-104z" />
    <glyph glyph-name="sterling" unicode="&#xa3;" 
d="M403 338h-229q10 -34 18.5 -65.5t8.5 -65.5q0 -32 -9.5 -59.5t-23.5 -49.5t-31 -38.5t-32 -27.5q21 9 45 15t52 6q34 0 57.5 -6.5t44 -14.5t42 -14.5t51.5 -6.5q40 0 64.5 19t41.5 56l13 -6q-17 -37 -44.5 -60t-74.5 -23q-33 0 -55 6.5t-41.5 14.5t-42 14.5t-56.5 6.5
q-45 0 -84.5 -15.5t-61.5 -28.5l-7 12l21.5 13.5t47.5 39t47.5 63t21.5 84.5q0 34 -8.5 65.5t-18.5 65.5h-93v14h89q-9 32 -16 68.5t-7 80.5q0 35 12 67t34.5 55.5t56.5 37.5t78 14q74 0 116 -33.5t60 -80.5l-14 -6q-18 46 -56 76t-106 30q-81 0 -123.5 -47t-43.5 -113
q0 -44 7 -80.5t16 -68.5h233v-14z" />
    <glyph glyph-name="currency" unicode="&#xa4;" 
d="M93 137l66 66q-19 21 -29.5 48t-10.5 58t10.5 58.5t29.5 48.5l-66 67l10 10l66 -67q21 18 48 28.5t58 10.5t58 -10.5t47 -28.5l67 67l10 -10l-66 -67q19 -21 29.5 -48.5t10.5 -58.5t-10.5 -58t-29.5 -48l66 -66l-10 -10l-65 66q-21 -19 -48 -29.5t-59 -10.5t-59 10.5
t-48 29.5l-65 -66zM275 167q62 0 102 42t40 100t-40 100t-102 42t-102 -42t-40 -100t40 -100t102 -42z" />
    <glyph glyph-name="yen" unicode="&#xa5;" 
d="M470 270v-14h-188v-256h-14v256h-188v14h188v38l-58 86h-130v14h121l-174 257h17l231 -342l231 342h17l-174 -257h121v-14h-130l-58 -86v-38h188z" />
    <glyph glyph-name="brokenbar" unicode="&#xa6;" horiz-adv-x="234" 
d="M124 417h-14v323h14v-323zM124 -153h-14v323h14v-323z" />
    <glyph glyph-name="section" unicode="&#xa7;" horiz-adv-x="520" 
d="M123 -20q0 -58 44 -88t104 -30q63 0 105 28.5t42 97.5q0 57 -41 87t-117 57q-90 31 -130 65.5t-40 103.5q0 46 23 81t57 53q-40 21 -60 48.5t-20 68.5q0 75 45 107.5t114 32.5q66 0 113 -33.5t47 -96.5h-12q0 58 -44 88t-104 30q-63 0 -105 -29.5t-42 -98.5q0 -57 41 -86
t118 -55q90 -32 129.5 -66.5t39.5 -103.5q0 -44 -20.5 -79.5t-57.5 -54.5q39 -21 58.5 -48.5t19.5 -70.5q0 -75 -45 -106.5t-114 -31.5q-66 0 -113 33.5t-47 96.5h12zM264 144q22 -7 40.5 -15t34.5 -16q37 17 58 51t21 77q0 66 -38.5 97.5t-122.5 60.5q-22 7 -40.5 15
t-34.5 15q-35 -18 -57.5 -51.5t-22.5 -76.5q0 -66 39 -97.5t123 -59.5z" />
    <glyph glyph-name="dieresis" unicode="&#xa8;" horiz-adv-x="500" 
d="M153 662q0 7 5 12.5t14 5.5q8 0 13 -5.5t5 -12.5t-5 -13t-13 -6q-9 0 -14 6t-5 13zM313 662q0 7 5 12.5t14 5.5q8 0 13 -5.5t5 -12.5t-5 -13t-13 -6q-9 0 -14 6t-5 13z" />
    <glyph glyph-name="copyright" unicode="&#xa9;" horiz-adv-x="776" 
d="M388 -8q-71 0 -131.5 26t-104 72.5t-68 110.5t-24.5 140t24.5 140.5t68 110.5t104 71.5t131.5 25.5t131.5 -25.5t104 -71.5t68 -110.5t24.5 -140.5t-24.5 -140t-68 -110.5t-104 -72.5t-131.5 -26zM388 4q69 0 127 25.5t100 70t65.5 106.5t23.5 135q0 74 -23.5 136
t-65.5 106t-100 69t-127 25t-127 -25t-100 -69t-65.5 -106t-23.5 -136q0 -73 23.5 -135t65.5 -106.5t100 -70t127 -25.5zM504 412q0 16 -5.5 34.5t-18.5 33t-35 24.5t-55 10q-67 0 -103 -46.5t-36 -130.5t41 -124.5t101 -40.5t91 31.5t31 80.5h12q0 -55 -33.5 -89.5
t-100.5 -34.5q-65 0 -109.5 42.5t-44.5 134.5t39.5 140.5t111.5 48.5q66 0 93.5 -31.5t31.5 -67.5q1 -4 1 -7.5v-7.5h-12z" />
    <glyph glyph-name="ordfeminine" unicode="&#xaa;" horiz-adv-x="311" 
d="M260 405q-22 0 -32 15.5t-10 56.5q-10 -26 -33 -49t-68 -23q-37 0 -59.5 18t-22.5 50q0 30 24.5 55t90.5 25q24 0 41 -3t27 -7v60q0 32 -15.5 56t-64.5 24q-53 0 -67.5 -25.5t-14.5 -55.5h-12q0 32 16 62.5t78 30.5q57 0 74.5 -27.5t17.5 -64.5v-130q0 -28 6 -42t24 -14
q11 0 17.5 7t6.5 22h12q0 -19 -9.5 -30t-26.5 -11zM117 417q31 0 50.5 13t30.5 30.5t15.5 36t4.5 29.5v5q-10 3 -27.5 7t-40.5 4q-55 0 -79 -20.5t-24 -48.5t19.5 -42t50.5 -14z" />
    <glyph glyph-name="guillemotleft" unicode="&#xab;" horiz-adv-x="384" 
d="M184 91l-9 -7l-115 162v6l115 162l9 -7l-112 -158zM324 91l-9 -7l-115 162v6l115 162l9 -7l-112 -158z" />
    <glyph glyph-name="logicalnot" unicode="&#xac;" 
d="M470 188h-14v218h-376v14h390v-232z" />
    <glyph glyph-name="registered" unicode="&#xae;" horiz-adv-x="570" 
d="M285 221q-54 0 -99.5 19.5t-77.5 52.5t-50 78t-18 95t18 94.5t50 77.5t77.5 52.5t99.5 19.5t99.5 -19.5t77.5 -52.5t50 -77.5t18 -94.5t-18 -95t-50 -78t-77.5 -52.5t-99.5 -19.5zM285 233q51 0 94 18.5t74 50t48 74t17 90.5t-17 90.5t-48 73.5t-74 49.5t-94 18.5
t-94 -18.5t-74 -49.5t-48 -73.5t-17 -90.5t17 -90.5t48 -74t74 -50t94 -18.5zM382 337q-22 0 -27.5 16t-5.5 52q0 38 -21 50.5t-56 12.5h-58v-129h-12v266h76q48 0 74.5 -17t26.5 -52q0 -30 -18 -45t-45 -19q21 -5 33 -19.5t12 -42.5t2.5 -45t18.5 -17q7 0 11.5 4t4.5 14h11
q0 -15 -7 -22t-20 -7zM278 593h-64v-113h70q33 0 58 11t25 45q0 31 -24.5 44t-64.5 13z" />
    <glyph glyph-name="macron" unicode="&#xaf;" horiz-adv-x="500" 
d="M132 685h236v-12h-236v12z" />
    <glyph glyph-name="degree" unicode="&#xb0;" horiz-adv-x="382" 
d="M191 404q-58 0 -99.5 40t-41.5 103q0 62 41.5 102.5t99.5 40.5t99.5 -40.5t41.5 -102.5q0 -63 -41.5 -103t-99.5 -40zM191 418q52 0 89.5 36t37.5 93q0 56 -37.5 92.5t-89.5 36.5t-89.5 -36.5t-37.5 -92.5q0 -57 37.5 -93t89.5 -36z" />
    <glyph glyph-name="plusminus" unicode="&#xb1;" 
d="M282 124h-14v188h-188v14h188v188h14v-188h188v-14h-188v-188zM470 14v-14h-390v14h390z" />
    <glyph glyph-name="twosuperior" unicode="&#xb2;" horiz-adv-x="344" 
d="M307 411h-253v8q51 47 93 84t72 69t46.5 63t16.5 66q0 43 -27 71t-78 28q-32 0 -55.5 -12t-36 -31t-14 -43.5t9.5 -50.5h-12q-12 27 -9.5 54t17 48t40.5 34t61 13q57 0 86.5 -31t29.5 -80q0 -35 -15.5 -66t-44 -63t-69 -68t-89.5 -81h231v-12z" />
    <glyph glyph-name="threesuperior" unicode="&#xb3;" horiz-adv-x="344" 
d="M293 518q0 -53 -35 -83t-92 -30q-69 0 -98 31.5t-24 82.5h12q-5 -46 21 -74t89 -28q52 0 83.5 26t31.5 75t-35 70t-89 21h-48v12h46q44 0 78.5 22t34.5 67q0 44 -26.5 67.5t-73.5 23.5q-60 0 -85 -27.5t-18 -75.5h-12q-7 49 20.5 82t94.5 33q53 0 82.5 -27.5t29.5 -75.5
q0 -40 -25.5 -63.5t-62.5 -30.5q46 -6 73.5 -29.5t27.5 -68.5z" />
    <glyph glyph-name="acute" unicode="&#xb4;" horiz-adv-x="500" 
d="M177 571l137 161l9 -10l-137 -161z" />
    <glyph glyph-name="mu" unicode="&#xb5;" horiz-adv-x="529" 
d="M102 -249h-12v719h12v-283q0 -80 31 -130t115 -50q41 0 71 17t49 46t28.5 67t9.5 79v254h12v-380q0 -35 8 -59.5t42 -24.5q19 0 29 13t10 30h12q0 -19 -11.5 -36.5t-40.5 -17.5q-37 0 -49 23.5t-12 66.5v51q-13 -63 -52.5 -102t-107.5 -39q-63 0 -97 28t-47 77v-349z" />
    <glyph glyph-name="paragraph" unicode="&#xb6;" horiz-adv-x="500" 
d="M290 -113h-14v455q-91 0 -147.5 43.5t-56.5 130.5q0 42 16.5 74.5t44 54.5t65 33.5t78.5 11.5h218v-13h-65v-790h-14v790h-125v-790z" />
    <glyph glyph-name="periodcentered" unicode="&#xb7;" horiz-adv-x="197" 
d="M80 358q0 7 5 12.5t14 5.5q8 0 13 -5.5t5 -12.5t-5 -13t-13 -6q-9 0 -14 6t-5 13z" />
    <glyph glyph-name="cedilla" unicode="&#xb8;" horiz-adv-x="500" 
d="M199 -120h12q-1 -26 11 -39.5t37 -13.5q22 0 37.5 12.5t15.5 40.5q0 37 -25.5 46.5t-61.5 1.5l-8 3l21 72l11 -3l-17 -60q38 7 65 -6.5t27 -53.5q0 -34 -19.5 -49.5t-45.5 -15.5q-31 0 -46 17t-14 48z" />
    <glyph glyph-name="onesuperior" unicode="&#xb9;" horiz-adv-x="233" 
d="M162 811h9v-403h-12v386l-124 -89l-7 10z" />
    <glyph glyph-name="ordmasculine" unicode="&#xba;" horiz-adv-x="298" 
d="M149 405q-19 0 -41 7.5t-40.5 24t-30.5 44.5t-12 68q0 73 35.5 109.5t89.5 36.5q19 0 41 -7.5t40 -24t30 -44t12 -66.5q0 -75 -35.5 -111.5t-88.5 -36.5zM149 417q49 0 80.5 34.5t31.5 101.5q0 35 -10.5 60t-27 40.5t-36 22.5t-37.5 7q-50 0 -81.5 -34t-31.5 -100
q0 -37 11 -62t27 -40.5t36 -22.5t38 -7z" />
    <glyph glyph-name="guillemotright" unicode="&#xbb;" horiz-adv-x="384" 
d="M324 246l-115 -162l-9 7l112 158l-112 158l9 7l115 -162v-6zM184 246l-115 -162l-9 7l112 158l-112 158l9 7l115 -162v-6z" />
    <glyph glyph-name="onequarter" unicode="&#xbc;" horiz-adv-x="610" 
d="M28 594l94 71h8v-300h-12v283l-83 -63zM469 665h15l-335 -665h-16zM521 0v98h-136v10l140 192h8v-190h60v-12h-60v-98h-12zM400 110h121v165z" />
    <glyph glyph-name="onehalf" unicode="&#xbd;" horiz-adv-x="651" 
d="M28 594l94 71h8v-300h-12v283l-83 -63zM469 665h15l-335 -665h-16zM444 188q-16 42 6.5 77t72.5 35q42 0 63 -23.5t21 -60.5q0 -51 -40 -94t-114 -110h161v-12h-180v10q75 66 118 112t43 94q0 31 -18 51.5t-54 20.5q-46 0 -63.5 -32.5t-2.5 -67.5h-13z" />
    <glyph glyph-name="threequarters" unicode="&#xbe;" horiz-adv-x="645" 
d="M51 581q-6 37 14.5 62t68.5 25q38 0 59.5 -21t21.5 -58q0 -28 -16 -44.5t-39 -23.5q29 -6 46.5 -23.5t17.5 -48.5q0 -40 -25 -63.5t-66 -23.5q-51 0 -72 25t-16 61h12q-4 -33 14 -53.5t62 -20.5q36 0 57.5 20t21.5 55q0 34 -23 49.5t-62 15.5h-34v12h33q31 0 54 15t23 48
q0 31 -18.5 49t-50.5 18q-40 0 -57.5 -19.5t-13.5 -55.5h-12zM504 665h15l-335 -665h-16zM557 0v98h-136v10l140 192h8v-190h60v-12h-60v-98h-12zM436 110h121v165z" />
    <glyph glyph-name="questiondown" unicode="&#xbf;" horiz-adv-x="456" 
d="M304 461q0 -7 -5 -12.5t-14 -5.5q-8 0 -13 5.5t-5 12.5t5 13t13 6q9 0 14 -6t5 -13zM277 185v113h14v-127q-29 0 -68.5 -5.5t-74.5 -25.5t-59.5 -58.5t-24.5 -103.5q0 -81 44 -132.5t134 -51.5q67 0 108.5 36.5t41.5 98.5h14q0 -68 -44.5 -108.5t-119.5 -40.5
q-96 0 -144 55t-48 143q0 68 24.5 108.5t59.5 62.5t74.5 29t68.5 7z" />
    <glyph glyph-name="Agrave" unicode="&#xc0;" horiz-adv-x="585" 
d="M46 0h-16l256 692h14l255 -692h-16l-91 246h-311zM142 260h301l-150 409zM162 813l6 12l169 -83l-6 -12z" />
    <glyph glyph-name="Aacute" unicode="&#xc1;" horiz-adv-x="585" 
d="M46 0h-16l256 692h14l255 -692h-16l-91 246h-311zM142 260h301l-150 409zM249 742l169 83l6 -12l-169 -83z" />
    <glyph glyph-name="Acircumflex" unicode="&#xc2;" horiz-adv-x="585" 
d="M46 0h-16l256 692h14l255 -692h-16l-91 246h-311zM142 260h301l-150 409zM152 742l139 83h4l139 -83l-6 -12l-135 81l-135 -81z" />
    <glyph glyph-name="Atilde" unicode="&#xc3;" horiz-adv-x="585" 
d="M46 0h-16l256 692h14l255 -692h-16l-91 246h-311zM142 260h301l-150 409zM356 750q37 0 45.5 21.5t0.5 46.5l14 5q11 -31 -2 -58.5t-59 -27.5q-25 0 -38 11.5t-23.5 24.5t-24 24.5t-38.5 11.5q-35 0 -44 -21.5t-2 -46.5l-14 -5q-10 31 3 58.5t59 27.5q28 0 43 -11.5
t26 -24.5t22 -24.5t32 -11.5z" />
    <glyph glyph-name="Adieresis" unicode="&#xc4;" horiz-adv-x="585" 
d="M46 0h-16l256 692h14l255 -692h-16l-91 246h-311zM142 260h301l-150 409zM194 778q0 7 5 12.5t14 5.5q8 0 13 -5.5t5 -12.5t-5 -13t-13 -6q-9 0 -14 6t-5 13zM354 778q0 7 5 12.5t14 5.5q8 0 13 -5.5t5 -12.5t-5 -13t-13 -6q-9 0 -14 6t-5 13z" />
    <glyph glyph-name="Aring" unicode="&#xc5;" horiz-adv-x="585" 
d="M46 0h-16l256 692h14l255 -692h-16l-91 246h-311zM142 260h301l-150 409zM222 789q0 30 19.5 50.5t50.5 20.5t51 -20.5t20 -50.5q0 -29 -20 -49.5t-51 -20.5t-50.5 20.5t-19.5 49.5zM349 789q0 24 -16 40.5t-41 16.5t-40.5 -16.5t-15.5 -40.5q0 -23 15.5 -39.5
t40.5 -16.5t41 16.5t16 39.5z" />
    <glyph glyph-name="AE" unicode="&#xc6;" horiz-adv-x="798" 
d="M698 326h-264v-307h324v-14h-338v321h-204l-197 -326h-19l416 685h342v-14h-324v-331h264v-14zM225 340h195v323z" />
    <glyph glyph-name="Ccedilla" unicode="&#xc7;" horiz-adv-x="614" 
d="M55 339q0 88 23.5 155t63.5 111.5t93 67t112 22.5q60 0 101.5 -18t66.5 -40t36.5 -41t12.5 -21l-12 -6q-1 2 -12 20t-34.5 38.5t-62.5 37t-96 16.5q-56 0 -107 -22t-88.5 -65t-60 -107t-22.5 -148q0 -85 21.5 -147t58 -102.5t85.5 -60t104 -19.5q63 0 106 20t68.5 44
t36.5 45t12 23l13 -5q-1 -3 -12.5 -25.5t-38 -48t-72 -46.5t-113.5 -21q-57 0 -108.5 20t-90 62t-61.5 107t-23 154zM299 -120h12q-1 -26 11 -39.5t37 -13.5q22 0 37.5 12.5t15.5 40.5q0 37 -25.5 46.5t-61.5 1.5l-8 3l21 72l11 -3l-17 -60q38 7 65 -6.5t27 -53.5
q0 -34 -19.5 -49.5t-45.5 -15.5q-31 0 -46 17t-14 48z" />
    <glyph glyph-name="Egrave" unicode="&#xc8;" horiz-adv-x="518" 
d="M418 356h-304v-337h364v-14h-378v680h378v-14h-364v-301h304v-14zM172 813l6 12l169 -83l-6 -12z" />
    <glyph glyph-name="Eacute" unicode="&#xc9;" horiz-adv-x="518" 
d="M418 356h-304v-337h364v-14h-378v680h378v-14h-364v-301h304v-14zM212 742l169 83l6 -12l-169 -83z" />
    <glyph glyph-name="Ecircumflex" unicode="&#xca;" horiz-adv-x="518" 
d="M418 356h-304v-337h364v-14h-378v680h378v-14h-364v-301h304v-14zM149 742l139 83h4l139 -83l-6 -12l-135 81l-135 -81z" />
    <glyph glyph-name="Edieresis" unicode="&#xcb;" horiz-adv-x="518" 
d="M418 356h-304v-337h364v-14h-378v680h378v-14h-364v-301h304v-14zM195 778q0 7 5 12.5t14 5.5q8 0 13 -5.5t5 -12.5t-5 -13t-13 -6q-9 0 -14 6t-5 13zM355 778q0 7 5 12.5t14 5.5q8 0 13 -5.5t5 -12.5t-5 -13t-13 -6q-9 0 -14 6t-5 13z" />
    <glyph glyph-name="Igrave" unicode="&#xcc;" horiz-adv-x="234" 
d="M110 690h14v-690h-14v690zM5 813l6 12l169 -83l-6 -12z" />
    <glyph glyph-name="Iacute" unicode="&#xcd;" horiz-adv-x="234" 
d="M110 690h14v-690h-14v690zM55 742l169 83l6 -12l-169 -83z" />
    <glyph glyph-name="Icircumflex" unicode="&#xce;" horiz-adv-x="234" 
d="M117 810l-92 -78l-9 10l99 83h4l99 -83l-9 -10zM110 690h14v-690h-14v690z" />
    <glyph glyph-name="Idieresis" unicode="&#xcf;" horiz-adv-x="234" 
d="M110 690h14v-690h-14v690zM18 778q0 7 5 12.5t14 5.5q8 0 13 -5.5t5 -12.5t-5 -13t-13 -6q-9 0 -14 6t-5 13zM178 778q0 7 5 12.5t14 5.5q8 0 13 -5.5t5 -12.5t-5 -13t-13 -6q-9 0 -14 6t-5 13z" />
    <glyph glyph-name="Eth" unicode="&#xd0;" horiz-adv-x="657" 
d="M20 359h80v331h147q94 0 162 -28t110.5 -75t62.5 -109t20 -129q0 -102 -30.5 -169.5t-80.5 -107.5t-114 -56t-130 -16h-147v347h-80v12zM346 347h-232v-333h133q64 0 125.5 15.5t109 54t77 103.5t29.5 162q0 64 -19 123.5t-59.5 104.5t-106 72t-156.5 27h-133v-317h232
v-12z" />
    <glyph glyph-name="Ntilde" unicode="&#xd1;" horiz-adv-x="664" 
d="M564 690v-695h-15l-435 669v-664h-14v690h14l436 -671v671h14zM418 750q37 0 45.5 21.5t0.5 46.5l14 5q11 -31 -2 -58.5t-59 -27.5q-25 0 -38 11.5t-23.5 24.5t-24 24.5t-38.5 11.5q-35 0 -44 -21.5t-2 -46.5l-14 -5q-10 31 3 58.5t59 27.5q28 0 43 -11.5t26 -24.5
t22 -24.5t32 -11.5z" />
    <glyph glyph-name="Ograve" unicode="&#xd2;" horiz-adv-x="700" 
d="M55 344q0 83 23.5 148.5t63.5 110.5t94 68.5t116 23.5q52 0 104.5 -19.5t94.5 -61t68 -106.5t26 -155q0 -84 -23 -151t-62.5 -112.5t-93 -69.5t-114.5 -24q-53 0 -106.5 20t-95.5 62t-68.5 108.5t-26.5 157.5zM631 353q0 85 -25 147.5t-64.5 102.5t-89.5 59t-100 19
q-59 0 -111 -23t-90 -66.5t-60 -106t-22 -141.5q0 -87 25 -150.5t65.5 -104t91 -60t101.5 -19.5q59 0 110 23.5t88.5 67.5t59 108t21.5 144zM252 813l6 12l169 -83l-6 -12z" />
    <glyph glyph-name="Oacute" unicode="&#xd3;" horiz-adv-x="700" 
d="M55 344q0 83 23.5 148.5t63.5 110.5t94 68.5t116 23.5q52 0 104.5 -19.5t94.5 -61t68 -106.5t26 -155q0 -84 -23 -151t-62.5 -112.5t-93 -69.5t-114.5 -24q-53 0 -106.5 20t-95.5 62t-68.5 108.5t-26.5 157.5zM631 353q0 85 -25 147.5t-64.5 102.5t-89.5 59t-100 19
q-59 0 -111 -23t-90 -66.5t-60 -106t-22 -141.5q0 -87 25 -150.5t65.5 -104t91 -60t101.5 -19.5q59 0 110 23.5t88.5 67.5t59 108t21.5 144zM282 742l169 83l6 -12l-169 -83z" />
    <glyph glyph-name="Ocircumflex" unicode="&#xd4;" horiz-adv-x="700" 
d="M55 344q0 83 23.5 148.5t63.5 110.5t94 68.5t116 23.5q52 0 104.5 -19.5t94.5 -61t68 -106.5t26 -155q0 -84 -23 -151t-62.5 -112.5t-93 -69.5t-114.5 -24q-53 0 -106.5 20t-95.5 62t-68.5 108.5t-26.5 157.5zM631 353q0 85 -25 147.5t-64.5 102.5t-89.5 59t-100 19
q-59 0 -111 -23t-90 -66.5t-60 -106t-22 -141.5q0 -87 25 -150.5t65.5 -104t91 -60t101.5 -19.5q59 0 110 23.5t88.5 67.5t59 108t21.5 144zM210 742l139 83h4l139 -83l-6 -12l-135 81l-135 -81z" />
    <glyph glyph-name="Otilde" unicode="&#xd5;" horiz-adv-x="700" 
d="M55 344q0 83 23.5 148.5t63.5 110.5t94 68.5t116 23.5q52 0 104.5 -19.5t94.5 -61t68 -106.5t26 -155q0 -84 -23 -151t-62.5 -112.5t-93 -69.5t-114.5 -24q-53 0 -106.5 20t-95.5 62t-68.5 108.5t-26.5 157.5zM631 353q0 85 -25 147.5t-64.5 102.5t-89.5 59t-100 19
q-59 0 -111 -23t-90 -66.5t-60 -106t-22 -141.5q0 -87 25 -150.5t65.5 -104t91 -60t101.5 -19.5q59 0 110 23.5t88.5 67.5t59 108t21.5 144zM418 750q37 0 45.5 21.5t0.5 46.5l14 5q11 -31 -2 -58.5t-59 -27.5q-25 0 -38 11.5t-23.5 24.5t-24 24.5t-38.5 11.5
q-35 0 -44 -21.5t-2 -46.5l-14 -5q-10 31 3 58.5t59 27.5q28 0 43 -11.5t26 -24.5t22 -24.5t32 -11.5z" />
    <glyph glyph-name="Odieresis" unicode="&#xd6;" horiz-adv-x="700" 
d="M55 344q0 83 23.5 148.5t63.5 110.5t94 68.5t116 23.5q52 0 104.5 -19.5t94.5 -61t68 -106.5t26 -155q0 -84 -23 -151t-62.5 -112.5t-93 -69.5t-114.5 -24q-53 0 -106.5 20t-95.5 62t-68.5 108.5t-26.5 157.5zM631 353q0 85 -25 147.5t-64.5 102.5t-89.5 59t-100 19
q-59 0 -111 -23t-90 -66.5t-60 -106t-22 -141.5q0 -87 25 -150.5t65.5 -104t91 -60t101.5 -19.5q59 0 110 23.5t88.5 67.5t59 108t21.5 144zM252 778q0 7 5 12.5t14 5.5q8 0 13 -5.5t5 -12.5t-5 -13t-13 -6q-9 0 -14 6t-5 13zM412 778q0 7 5 12.5t14 5.5q8 0 13 -5.5
t5 -12.5t-5 -13t-13 -6q-9 0 -14 6t-5 13z" />
    <glyph glyph-name="multiply" unicode="&#xd7;" 
d="M132 177l133 133l-133 133l10 10l133 -133l133 133l10 -10l-133 -133l133 -133l-10 -10l-133 133l-133 -133z" />
    <glyph glyph-name="Oslash" unicode="&#xd8;" horiz-adv-x="700" 
d="M55 344q0 83 23.5 148.5t63.5 110.5t94 68.5t116 23.5q54 0 109 -21.5t98 -67.5l69 84h18l-78 -94q34 -41 55.5 -101.5t21.5 -141.5q0 -84 -23 -151t-62.5 -112.5t-93 -69.5t-114.5 -24q-55 0 -110 21.5t-98 67.5l-71 -85h-18l79 95q-35 43 -57 104.5t-22 144.5zM69 344
q0 -78 20.5 -137.5t54.5 -99.5l405 488q-40 44 -92.5 65t-104.5 21q-59 0 -111 -23t-90 -66.5t-60 -106t-22 -141.5zM631 353q0 76 -20 133.5t-53 97.5l-405 -488q41 -44 93.5 -65t105.5 -21q59 0 110 23.5t88.5 67.5t59 108t21.5 144z" />
    <glyph glyph-name="Ugrave" unicode="&#xd9;" horiz-adv-x="640" 
d="M80 313v377h14v-377q0 -58 9.5 -113t34.5 -97t70 -68t115 -26q69 0 112.5 26t68 68t33.5 97t9 113v377h14v-377q0 -64 -10.5 -122t-37.5 -101.5t-73 -69t-116 -25.5q-72 0 -119.5 25.5t-74.5 69t-38 101.5t-11 122zM230 813l6 12l169 -83l-6 -12z" />
    <glyph glyph-name="Uacute" unicode="&#xda;" horiz-adv-x="640" 
d="M80 313v377h14v-377q0 -58 9.5 -113t34.5 -97t70 -68t115 -26q69 0 112.5 26t68 68t33.5 97t9 113v377h14v-377q0 -64 -10.5 -122t-37.5 -101.5t-73 -69t-116 -25.5q-72 0 -119.5 25.5t-74.5 69t-38 101.5t-11 122zM264 742l169 83l6 -12l-169 -83z" />
    <glyph glyph-name="Ucircumflex" unicode="&#xdb;" horiz-adv-x="640" 
d="M80 313v377h14v-377q0 -58 9.5 -113t34.5 -97t70 -68t115 -26q69 0 112.5 26t68 68t33.5 97t9 113v377h14v-377q0 -64 -10.5 -122t-37.5 -101.5t-73 -69t-116 -25.5q-72 0 -119.5 25.5t-74.5 69t-38 101.5t-11 122zM179 742l139 83h4l139 -83l-6 -12l-135 81l-135 -81z
" />
    <glyph glyph-name="Udieresis" unicode="&#xdc;" horiz-adv-x="640" 
d="M80 313v377h14v-377q0 -58 9.5 -113t34.5 -97t70 -68t115 -26q69 0 112.5 26t68 68t33.5 97t9 113v377h14v-377q0 -64 -10.5 -122t-37.5 -101.5t-73 -69t-116 -25.5q-72 0 -119.5 25.5t-74.5 69t-38 101.5t-11 122zM222 778q0 7 5 12.5t14 5.5q8 0 13 -5.5t5 -12.5
t-5 -13t-13 -6q-9 0 -14 6t-5 13zM382 778q0 7 5 12.5t14 5.5q8 0 13 -5.5t5 -12.5t-5 -13t-13 -6q-9 0 -14 6t-5 13z" />
    <glyph glyph-name="Yacute" unicode="&#xdd;" horiz-adv-x="506" 
d="M501 690l-241 -386v-304h-14v304l-241 386h17l231 -370l231 370h17zM199 742l169 83l6 -12l-169 -83z" />
    <glyph glyph-name="Thorn" unicode="&#xde;" horiz-adv-x="504" 
d="M100 690h14v-166h153q47 0 87.5 -9.5t70.5 -30.5t47 -54.5t17 -82.5q0 -53 -19 -88t-48.5 -55.5t-67 -28.5t-73.5 -8h-167v-167h-14v690zM267 510h-153v-329h167q33 0 67.5 7.5t62.5 26t46 50.5t18 82q0 46 -16.5 77t-44.5 50t-66 27.5t-81 8.5z" />
    <glyph glyph-name="germandbls" unicode="&#xdf;" horiz-adv-x="541" 
d="M100 468q0 123 46 182.5t136 59.5q78 0 120 -36.5t42 -87.5q0 -52 -25.5 -78t-53.5 -42t-52.5 -31.5t-24.5 -52.5q0 -39 28 -54.5t62 -31.5q19 -8 39.5 -19.5t36.5 -28.5t26.5 -42.5t10.5 -61.5q0 -67 -42.5 -108.5t-105.5 -41.5q-66 0 -106 36t-40 121h12q0 -77 37 -111
t97 -34q58 0 97 38.5t39 99.5q0 34 -9.5 57.5t-25 39.5t-34.5 26.5t-38 18.5q-37 17 -66.5 35.5t-29.5 60.5q0 40 26 58t57 36q25 15 49 38.5t24 71.5q0 46 -40 79t-110 33q-85 0 -127.5 -58t-42.5 -172v-468h-12v468z" />
    <glyph glyph-name="agrave" unicode="&#xe0;" horiz-adv-x="463" 
d="M55 103q0 57 41 94t128 37q31 0 62.5 -5t53.5 -12v120q0 56 -30.5 93.5t-101.5 37.5q-70 0 -100 -37.5t-30 -91.5h-12q0 59 33.5 100t108.5 41q78 0 111 -40.5t33 -102.5v-247q0 -43 10.5 -63.5t38.5 -20.5q19 0 29.5 12.5t10.5 30.5h12q0 -16 -11 -35t-42 -19
q-32 0 -46 20.5t-14 74.5v42q-8 -26 -22 -51t-34 -44t-47 -30.5t-60 -11.5q-54 0 -88 27.5t-34 80.5zM67 103q0 -47 31.5 -71.5t78.5 -24.5q41 0 72 18.5t51 47t30 62.5t10 65v5q-22 7 -55 12t-61 5q-78 0 -117.5 -33t-39.5 -86zM118 722l9 10l137 -161l-9 -10z" />
    <glyph glyph-name="aacute" unicode="&#xe1;" horiz-adv-x="463" 
d="M55 103q0 57 41 94t128 37q31 0 62.5 -5t53.5 -12v120q0 56 -30.5 93.5t-101.5 37.5q-70 0 -100 -37.5t-30 -91.5h-12q0 59 33.5 100t108.5 41q78 0 111 -40.5t33 -102.5v-247q0 -43 10.5 -63.5t38.5 -20.5q19 0 29.5 12.5t10.5 30.5h12q0 -16 -11 -35t-42 -19
q-32 0 -46 20.5t-14 74.5v42q-8 -26 -22 -51t-34 -44t-47 -30.5t-60 -11.5q-54 0 -88 27.5t-34 80.5zM67 103q0 -47 31.5 -71.5t78.5 -24.5q41 0 72 18.5t51 47t30 62.5t10 65v5q-22 7 -55 12t-61 5q-78 0 -117.5 -33t-39.5 -86zM177 571l137 161l9 -10l-137 -161z" />
    <glyph glyph-name="acircumflex" unicode="&#xe2;" horiz-adv-x="463" 
d="M55 103q0 57 41 94t128 37q31 0 62.5 -5t53.5 -12v120q0 56 -30.5 93.5t-101.5 37.5q-70 0 -100 -37.5t-30 -91.5h-12q0 59 33.5 100t108.5 41q78 0 111 -40.5t33 -102.5v-247q0 -43 10.5 -63.5t38.5 -20.5q19 0 29.5 12.5t10.5 30.5h12q0 -16 -11 -35t-42 -19
q-32 0 -46 20.5t-14 74.5v42q-8 -26 -22 -51t-34 -44t-47 -30.5t-60 -11.5q-54 0 -88 27.5t-34 80.5zM67 103q0 -47 31.5 -71.5t78.5 -24.5q41 0 72 18.5t51 47t30 62.5t10 65v5q-22 7 -55 12t-61 5q-78 0 -117.5 -33t-39.5 -86zM73 571l137 161h9l137 -161l-9 -10l-132 156
l-133 -156z" />
    <glyph glyph-name="atilde" unicode="&#xe3;" horiz-adv-x="463" 
d="M55 103q0 57 41 94t128 37q31 0 62.5 -5t53.5 -12v120q0 56 -30.5 93.5t-101.5 37.5q-70 0 -100 -37.5t-30 -91.5h-12q0 59 33.5 100t108.5 41q78 0 111 -40.5t33 -102.5v-247q0 -43 10.5 -63.5t38.5 -20.5q19 0 29.5 12.5t10.5 30.5h12q0 -16 -11 -35t-42 -19
q-32 0 -46 20.5t-14 74.5v42q-8 -26 -22 -51t-34 -44t-47 -30.5t-60 -11.5q-54 0 -88 27.5t-34 80.5zM67 103q0 -47 31.5 -71.5t78.5 -24.5q41 0 72 18.5t51 47t30 62.5t10 65v5q-22 7 -55 12t-61 5q-78 0 -117.5 -33t-39.5 -86zM82 590q-14 43 -1.5 77.5t56.5 34.5
q31 0 46 -15.5t25 -33.5t21 -33.5t33 -15.5q38 0 46.5 30t-3.5 66l12 4q14 -43 1.5 -77.5t-56.5 -34.5q-26 0 -39 15.5t-22.5 33.5t-22.5 33.5t-41 15.5q-38 0 -46.5 -30t3.5 -66z" />
    <glyph glyph-name="adieresis" unicode="&#xe4;" horiz-adv-x="463" 
d="M55 103q0 57 41 94t128 37q31 0 62.5 -5t53.5 -12v120q0 56 -30.5 93.5t-101.5 37.5q-70 0 -100 -37.5t-30 -91.5h-12q0 59 33.5 100t108.5 41q78 0 111 -40.5t33 -102.5v-247q0 -43 10.5 -63.5t38.5 -20.5q19 0 29.5 12.5t10.5 30.5h12q0 -16 -11 -35t-42 -19
q-32 0 -46 20.5t-14 74.5v42q-8 -26 -22 -51t-34 -44t-47 -30.5t-60 -11.5q-54 0 -88 27.5t-34 80.5zM67 103q0 -47 31.5 -71.5t78.5 -24.5q41 0 72 18.5t51 47t30 62.5t10 65v5q-22 7 -55 12t-61 5q-78 0 -117.5 -33t-39.5 -86zM116 662q0 7 5 12.5t14 5.5q8 0 13 -5.5
t5 -12.5t-5 -13t-13 -6q-9 0 -14 6t-5 13zM276 662q0 7 5 12.5t14 5.5q8 0 13 -5.5t5 -12.5t-5 -13t-13 -6q-9 0 -14 6t-5 13z" />
    <glyph glyph-name="aring" unicode="&#xe5;" horiz-adv-x="463" 
d="M55 103q0 57 41 94t128 37q31 0 62.5 -5t53.5 -12v120q0 56 -30.5 93.5t-101.5 37.5q-70 0 -100 -37.5t-30 -91.5h-12q0 59 33.5 100t108.5 41q78 0 111 -40.5t33 -102.5v-247q0 -43 10.5 -63.5t38.5 -20.5q19 0 29.5 12.5t10.5 30.5h12q0 -16 -11 -35t-42 -19
q-32 0 -46 20.5t-14 74.5v42q-8 -26 -22 -51t-34 -44t-47 -30.5t-60 -11.5q-54 0 -88 27.5t-34 80.5zM67 103q0 -47 31.5 -71.5t78.5 -24.5q41 0 72 18.5t51 47t30 62.5t10 65v5q-22 7 -55 12t-61 5q-78 0 -117.5 -33t-39.5 -86zM145 671q0 33 21.5 55.5t55.5 22.5
q35 0 56.5 -22.5t21.5 -55.5q0 -32 -21.5 -54.5t-56.5 -22.5q-34 0 -55.5 22.5t-21.5 54.5zM288 671q0 28 -18.5 47t-47.5 19q-28 0 -46.5 -19t-18.5 -47t18.5 -46.5t46.5 -18.5q29 0 47.5 18.5t18.5 46.5z" />
    <glyph glyph-name="ae" unicode="&#xe6;" horiz-adv-x="755" 
d="M700 156q0 -72 -45.5 -116.5t-124.5 -44.5q-68 0 -118.5 41t-63.5 128q-4 -31 -17.5 -61.5t-35 -54.5t-51.5 -38.5t-67 -14.5q-54 0 -88 27.5t-34 80.5q0 57 41 94t128 37q31 0 62.5 -5t53.5 -12v120q0 56 -30.5 93.5t-101.5 37.5q-70 0 -100 -37.5t-30 -91.5h-12
q0 59 33.5 100t108.5 41q78 0 110 -40.5t32 -102.5v-33q16 79 63 127.5t119 48.5q46 0 75 -14.5t44 -36t20.5 -46t5.5 -44.5q0 -14 -1.5 -24.5t-2.5 -14.5h-314q-3 -15 -5 -31t-2 -32v-10q0 -56 14 -97.5t38 -68.5t56.5 -40.5t69.5 -13.5q75 0 116.5 42.5t41.5 106.5h12z
M532 468q-65 0 -109.5 -43.5t-61.5 -112.5h303q0 1 0.5 7t0.5 17q0 16 -4.5 39t-18.5 43.5t-40 35t-70 14.5zM177 7q41 0 72 18t51 45.5t30 62t10 67.5v5q-22 7 -55 12t-61 5q-78 0 -117.5 -33t-39.5 -86q0 -47 31.5 -71.5t78.5 -24.5z" />
    <glyph glyph-name="ccedilla" unicode="&#xe7;" horiz-adv-x="465" 
d="M55 228q0 55 12 101.5t35 80t57 52t78 18.5q71 0 105 -30.5t44 -67.5q3 -12 4.5 -24t1.5 -22h-12q0 18 -6 41t-21.5 43t-43.5 34t-72 14q-42 0 -74 -18.5t-53 -50.5t-32 -76t-11 -95q0 -56 14 -98t38 -69t56.5 -40.5t69.5 -13.5q75 0 111.5 42.5t36.5 106.5h12
q0 -72 -40.5 -116.5t-119.5 -44.5q-40 0 -74.5 14t-60 42.5t-40.5 72.5t-15 104zM199 -120h12q-1 -26 11 -39.5t37 -13.5q22 0 37.5 12.5t15.5 40.5q0 37 -25.5 46.5t-61.5 1.5l-8 3l21 72l11 -3l-17 -60q38 7 65 -6.5t27 -53.5q0 -34 -19.5 -49.5t-45.5 -15.5q-31 0 -46 17
t-14 48z" />
    <glyph glyph-name="egrave" unicode="&#xe8;" horiz-adv-x="470" 
d="M55 227q0 55 13.5 102t38.5 80t60.5 52t79.5 19q46 0 75 -14.5t44 -36t20.5 -46t5.5 -44.5q0 -14 -1.5 -24.5t-2.5 -14.5h-314q-3 -15 -5 -31t-2 -32v-10q0 -56 14 -97.5t38 -68.5t56.5 -40.5t69.5 -13.5q75 0 116.5 42.5t41.5 106.5h12q0 -72 -45.5 -116.5t-124.5 -44.5
q-40 0 -74.5 14t-60 42t-40.5 72t-15 104zM247 468q-65 0 -109.5 -43.5t-61.5 -112.5h303q0 1 0.5 7t0.5 17q0 16 -4.5 39t-18.5 43.5t-40 35t-70 14.5zM156 722l9 10l137 -161l-9 -10z" />
    <glyph glyph-name="eacute" unicode="&#xe9;" horiz-adv-x="470" 
d="M55 227q0 55 13.5 102t38.5 80t60.5 52t79.5 19q46 0 75 -14.5t44 -36t20.5 -46t5.5 -44.5q0 -14 -1.5 -24.5t-2.5 -14.5h-314q-3 -15 -5 -31t-2 -32v-10q0 -56 14 -97.5t38 -68.5t56.5 -40.5t69.5 -13.5q75 0 116.5 42.5t41.5 106.5h12q0 -72 -45.5 -116.5t-124.5 -44.5
q-40 0 -74.5 14t-60 42t-40.5 72t-15 104zM247 468q-65 0 -109.5 -43.5t-61.5 -112.5h303q0 1 0.5 7t0.5 17q0 16 -4.5 39t-18.5 43.5t-40 35t-70 14.5zM217 571l137 161l9 -10l-137 -161z" />
    <glyph glyph-name="ecircumflex" unicode="&#xea;" horiz-adv-x="470" 
d="M55 227q0 55 13.5 102t38.5 80t60.5 52t79.5 19q46 0 75 -14.5t44 -36t20.5 -46t5.5 -44.5q0 -14 -1.5 -24.5t-2.5 -14.5h-314q-3 -15 -5 -31t-2 -32v-10q0 -56 14 -97.5t38 -68.5t56.5 -40.5t69.5 -13.5q75 0 116.5 42.5t41.5 106.5h12q0 -72 -45.5 -116.5t-124.5 -44.5
q-40 0 -74.5 14t-60 42t-40.5 72t-15 104zM247 468q-65 0 -109.5 -43.5t-61.5 -112.5h303q0 1 0.5 7t0.5 17q0 16 -4.5 39t-18.5 43.5t-40 35t-70 14.5zM109 571l137 161h9l137 -161l-9 -10l-132 156l-133 -156z" />
    <glyph glyph-name="edieresis" unicode="&#xeb;" horiz-adv-x="470" 
d="M55 227q0 55 13.5 102t38.5 80t60.5 52t79.5 19q46 0 75 -14.5t44 -36t20.5 -46t5.5 -44.5q0 -14 -1.5 -24.5t-2.5 -14.5h-314q-3 -15 -5 -31t-2 -32v-10q0 -56 14 -97.5t38 -68.5t56.5 -40.5t69.5 -13.5q75 0 116.5 42.5t41.5 106.5h12q0 -72 -45.5 -116.5t-124.5 -44.5
q-40 0 -74.5 14t-60 42t-40.5 72t-15 104zM247 468q-65 0 -109.5 -43.5t-61.5 -112.5h303q0 1 0.5 7t0.5 17q0 16 -4.5 39t-18.5 43.5t-40 35t-70 14.5zM153 662q0 7 5 12.5t14 5.5q8 0 13 -5.5t5 -12.5t-5 -13t-13 -6q-9 0 -14 6t-5 13zM313 662q0 7 5 12.5t14 5.5
q8 0 13 -5.5t5 -12.5t-5 -13t-13 -6q-9 0 -14 6t-5 13z" />
    <glyph glyph-name="igrave" unicode="&#xec;" horiz-adv-x="217" 
d="M102 470h12v-470h-12v470zM19 722l9 10l137 -161l-9 -10z" />
    <glyph glyph-name="iacute" unicode="&#xed;" horiz-adv-x="217" 
d="M102 470h12v-470h-12v470zM45 571l137 161l9 -10l-137 -161z" />
    <glyph glyph-name="icircumflex" unicode="&#xee;" horiz-adv-x="217" 
d="M102 470h12v-470h-12v470zM-33 571l137 161h9l137 -161l-9 -10l-132 156l-133 -156z" />
    <glyph glyph-name="idieresis" unicode="&#xef;" horiz-adv-x="217" 
d="M102 470h12v-470h-12v470zM10 662q0 7 5 12.5t14 5.5q8 0 13 -5.5t5 -12.5t-5 -13t-13 -6q-9 0 -14 6t-5 13zM170 662q0 7 5 12.5t14 5.5q8 0 13 -5.5t5 -12.5t-5 -13t-13 -6q-9 0 -14 6t-5 13z" />
    <glyph glyph-name="eth" unicode="&#xf0;" horiz-adv-x="495" 
d="M250 -6q-54 0 -91.5 21t-60 55t-33 76.5t-10.5 84.5q0 49 10.5 93t33.5 76t58.5 51t84.5 19q76 0 119 -40.5t60 -95.5l6 -21q-13 106 -61 183t-111 128l-71 -78h-17l79 85q-29 22 -59.5 39t-60.5 29l5 11q31 -13 62.5 -30.5t60.5 -39.5l61 66h16l-67 -73
q75 -60 125.5 -153.5t50.5 -220.5q0 -67 -14.5 -117t-40 -83t-60.5 -49t-75 -16zM250 6q77 0 126 62.5t49 161.5q0 48 -11.5 89.5t-34 72.5t-57 48.5t-80.5 17.5q-47 0 -80.5 -18t-54.5 -49t-30.5 -72.5t-9.5 -87.5q0 -40 9.5 -80.5t31 -72.5t56.5 -52t86 -20z" />
    <glyph glyph-name="ntilde" unicode="&#xf1;" horiz-adv-x="503" 
d="M418 0h-12v288q0 80 -28 130t-112 50q-41 0 -71.5 -17t-51 -46t-31 -67t-10.5 -79v-259h-12v470h12v-134q14 63 55.5 103.5t110.5 40.5q87 0 118.5 -52t31.5 -138v-290zM119 590q-14 43 -1.5 77.5t56.5 34.5q31 0 46 -15.5t25 -33.5t21 -33.5t33 -15.5q38 0 46.5 30
t-3.5 66l12 4q14 -43 1.5 -77.5t-56.5 -34.5q-26 0 -39 15.5t-22.5 33.5t-22.5 33.5t-41 15.5q-38 0 -46.5 -30t3.5 -66z" />
    <glyph glyph-name="ograve" unicode="&#xf2;" horiz-adv-x="488" 
d="M55 238q0 119 53.5 180.5t135.5 61.5t135.5 -61.5t53.5 -180.5t-53.5 -181t-135.5 -62t-135.5 62t-53.5 181zM421 238q0 111 -49.5 170.5t-127.5 59.5t-127.5 -59.5t-49.5 -170.5t49.5 -171t127.5 -60t127.5 60t49.5 171zM148 722l9 10l137 -161l-9 -10z" />
    <glyph glyph-name="oacute" unicode="&#xf3;" horiz-adv-x="488" 
d="M55 238q0 119 53.5 180.5t135.5 61.5t135.5 -61.5t53.5 -180.5t-53.5 -181t-135.5 -62t-135.5 62t-53.5 181zM421 238q0 111 -49.5 170.5t-127.5 59.5t-127.5 -59.5t-49.5 -170.5t49.5 -171t127.5 -60t127.5 60t49.5 171zM197 571l137 161l9 -10l-137 -161z" />
    <glyph glyph-name="ocircumflex" unicode="&#xf4;" horiz-adv-x="488" 
d="M55 238q0 119 53.5 180.5t135.5 61.5t135.5 -61.5t53.5 -180.5t-53.5 -181t-135.5 -62t-135.5 62t-53.5 181zM421 238q0 111 -49.5 170.5t-127.5 59.5t-127.5 -59.5t-49.5 -170.5t49.5 -171t127.5 -60t127.5 60t49.5 171zM102 571l137 161h9l137 -161l-9 -10l-132 156
l-133 -156z" />
    <glyph glyph-name="otilde" unicode="&#xf5;" horiz-adv-x="488" 
d="M55 238q0 119 53.5 180.5t135.5 61.5t135.5 -61.5t53.5 -180.5t-53.5 -181t-135.5 -62t-135.5 62t-53.5 181zM421 238q0 111 -49.5 170.5t-127.5 59.5t-127.5 -59.5t-49.5 -170.5t49.5 -171t127.5 -60t127.5 60t49.5 171zM115 590q-14 43 -1.5 77.5t56.5 34.5
q31 0 46 -15.5t25 -33.5t21 -33.5t33 -15.5q38 0 46.5 30t-3.5 66l12 4q14 -43 1.5 -77.5t-56.5 -34.5q-26 0 -39 15.5t-22.5 33.5t-22.5 33.5t-41 15.5q-38 0 -46.5 -30t3.5 -66z" />
    <glyph glyph-name="odieresis" unicode="&#xf6;" horiz-adv-x="488" 
d="M55 238q0 119 53.5 180.5t135.5 61.5t135.5 -61.5t53.5 -180.5t-53.5 -181t-135.5 -62t-135.5 62t-53.5 181zM421 238q0 111 -49.5 170.5t-127.5 59.5t-127.5 -59.5t-49.5 -170.5t49.5 -171t127.5 -60t127.5 60t49.5 171zM146 662q0 7 5 12.5t14 5.5q8 0 13 -5.5t5 -12.5
t-5 -13t-13 -6q-9 0 -14 6t-5 13zM306 662q0 7 5 12.5t14 5.5q8 0 13 -5.5t5 -12.5t-5 -13t-13 -6q-9 0 -14 6t-5 13z" />
    <glyph glyph-name="divide" unicode="&#xf7;" 
d="M470 316v-14h-390v14h390zM256 134q0 7 5 12.5t14 5.5q8 0 13 -5.5t5 -12.5t-5 -13t-13 -6q-9 0 -14 6t-5 13zM256 485q0 7 5 12.5t14 5.5q8 0 13 -5.5t5 -12.5t-5 -13t-13 -6q-9 0 -14 6t-5 13z" />
    <glyph glyph-name="oslash" unicode="&#xf8;" horiz-adv-x="488" 
d="M55 238q0 119 53.5 180.5t135.5 61.5q40 0 75 -15t60 -45l38 50h16l-46 -60q22 -31 34 -74t12 -98q0 -119 -53.5 -181t-135.5 -62q-40 0 -73.5 15t-58.5 43l-41 -53h-16l48 63q-22 31 -35 74.5t-13 100.5zM67 238q0 -52 11.5 -94t32.5 -71l260 337q-24 28 -56 43t-71 15
q-78 0 -127.5 -59.5t-49.5 -170.5zM421 238q0 51 -11.5 92t-30.5 69l-259 -336q23 -28 55 -42t69 -14q78 0 127.5 60t49.5 171z" />
    <glyph glyph-name="ugrave" unicode="&#xf9;" horiz-adv-x="503" 
d="M401 0v139q-14 -63 -55.5 -103.5t-110.5 -40.5q-87 0 -118.5 52t-31.5 138v285h12v-283q0 -80 28 -130t112 -50q41 0 71.5 17t51 46t31 67t10.5 79v254h12v-470h-12zM177 722l9 10l137 -161l-9 -10z" />
    <glyph glyph-name="uacute" unicode="&#xfa;" horiz-adv-x="503" 
d="M401 0v139q-14 -63 -55.5 -103.5t-110.5 -40.5q-87 0 -118.5 52t-31.5 138v285h12v-283q0 -80 28 -130t112 -50q41 0 71.5 17t51 46t31 67t10.5 79v254h12v-470h-12zM199 571l137 161l9 -10l-137 -161z" />
    <glyph glyph-name="ucircumflex" unicode="&#xfb;" horiz-adv-x="503" 
d="M401 0v139q-14 -63 -55.5 -103.5t-110.5 -40.5q-87 0 -118.5 52t-31.5 138v285h12v-283q0 -80 28 -130t112 -50q41 0 71.5 17t51 46t31 67t10.5 79v254h12v-470h-12zM113 571l137 161h9l137 -161l-9 -10l-132 156l-133 -156z" />
    <glyph glyph-name="udieresis" unicode="&#xfc;" horiz-adv-x="503" 
d="M401 0v139q-14 -63 -55.5 -103.5t-110.5 -40.5q-87 0 -118.5 52t-31.5 138v285h12v-283q0 -80 28 -130t112 -50q41 0 71.5 17t51 46t31 67t10.5 79v254h12v-470h-12zM153 662q0 7 5 12.5t14 5.5q8 0 13 -5.5t5 -12.5t-5 -13t-13 -6q-9 0 -14 6t-5 13zM313 662q0 7 5 12.5
t14 5.5q8 0 13 -5.5t5 -12.5t-5 -13t-13 -6q-9 0 -14 6t-5 13z" />
    <glyph glyph-name="yacute" unicode="&#xfd;" horiz-adv-x="434" 
d="M25 -194h12q0 -18 11.5 -31t39.5 -13t44.5 19.5t27.5 50.5l61 165l-190 473h14l183 -455l6 16l162 439h13l-237 -642q-13 -37 -33 -57.5t-52 -20.5q-37 0 -49.5 17t-12.5 39zM199 571l137 161l9 -10l-137 -161z" />
    <glyph glyph-name="thorn" unicode="&#xfe;" horiz-adv-x="521" 
d="M90 470h12v-147q17 77 63 117t112 40q31 0 64.5 -13t61 -41.5t45.5 -74.5t18 -112q0 -119 -53.5 -181.5t-135.5 -62.5q-24 0 -50.5 8.5t-51 27.5t-44 49t-29.5 72v-392h-12v710zM454 239q0 61 -16.5 105t-42.5 71t-57.5 40t-60.5 13q-78 0 -126.5 -61t-48.5 -174
q0 -60 17 -103t43 -70.5t57 -40t58 -12.5q78 0 127.5 60.5t49.5 171.5zM90 710h12v-710h-12v710z" />
    <glyph glyph-name="ydieresis" unicode="&#xff;" horiz-adv-x="434" 
d="M25 -194h12q0 -18 11.5 -31t39.5 -13t44.5 19.5t27.5 50.5l61 165l-190 473h14l183 -455l6 16l162 439h13l-237 -642q-13 -37 -33 -57.5t-52 -20.5q-37 0 -49.5 17t-12.5 39zM124 662q0 7 5 12.5t14 5.5q8 0 13 -5.5t5 -12.5t-5 -13t-13 -6q-9 0 -14 6t-5 13zM284 662
q0 7 5 12.5t14 5.5q8 0 13 -5.5t5 -12.5t-5 -13t-13 -6q-9 0 -14 6t-5 13z" />
    <glyph glyph-name="Amacron" unicode="&#x100;" horiz-adv-x="585" 
d="M46 0h-16l256 692h14l255 -692h-16l-91 246h-311zM142 260h301l-150 409zM175 791h236v-12h-236v12z" />
    <glyph glyph-name="amacron" unicode="&#x101;" horiz-adv-x="463" 
d="M55 103q0 57 41 94t128 37q31 0 62.5 -5t53.5 -12v120q0 56 -30.5 93.5t-101.5 37.5q-70 0 -100 -37.5t-30 -91.5h-12q0 59 33.5 100t108.5 41q78 0 111 -40.5t33 -102.5v-247q0 -43 10.5 -63.5t38.5 -20.5q19 0 29.5 12.5t10.5 30.5h12q0 -16 -11 -35t-42 -19
q-32 0 -46 20.5t-14 74.5v42q-8 -26 -22 -51t-34 -44t-47 -30.5t-60 -11.5q-54 0 -88 27.5t-34 80.5zM67 103q0 -47 31.5 -71.5t78.5 -24.5q41 0 72 18.5t51 47t30 62.5t10 65v5q-22 7 -55 12t-61 5q-78 0 -117.5 -33t-39.5 -86zM100 685h236v-12h-236v12z" />
    <glyph glyph-name="Abreve" unicode="&#x102;" horiz-adv-x="585" 
d="M46 0h-16l256 692h14l255 -692h-16l-91 246h-311zM142 260h301l-150 409zM160 832h15q0 -10 6 -25t19.5 -29t36.5 -24t56 -10t56 10t36.5 24t19.5 29t6 25h15q0 -11 -6 -28.5t-21 -33.5t-41 -28t-65 -12t-65 12t-41 28t-21 33.5t-6 28.5z" />
    <glyph glyph-name="abreve" unicode="&#x103;" horiz-adv-x="463" 
d="M55 103q0 57 41 94t128 37q31 0 62.5 -5t53.5 -12v120q0 56 -30.5 93.5t-101.5 37.5q-70 0 -100 -37.5t-30 -91.5h-12q0 59 33.5 100t108.5 41q78 0 111 -40.5t33 -102.5v-247q0 -43 10.5 -63.5t38.5 -20.5q19 0 29.5 12.5t10.5 30.5h12q0 -16 -11 -35t-42 -19
q-32 0 -46 20.5t-14 74.5v42q-8 -26 -22 -51t-34 -44t-47 -30.5t-60 -11.5q-54 0 -88 27.5t-34 80.5zM67 103q0 -47 31.5 -71.5t78.5 -24.5q41 0 72 18.5t51 47t30 62.5t10 65v5q-22 7 -55 12t-61 5q-78 0 -117.5 -33t-39.5 -86zM220 594q-41 0 -66.5 16t-39.5 38t-18.5 44
t-4.5 34h12q0 -11 4.5 -31.5t17 -40t35.5 -34t60 -14.5t60.5 14.5t36 34t16.5 40t4 31.5h12q0 -12 -4.5 -34t-18.5 -44t-39.5 -38t-66.5 -16z" />
    <glyph glyph-name="Aogonek" unicode="&#x104;" horiz-adv-x="585" 
d="M46 0h-16l256 692h14l255 -692q-13 -10 -30 -23t-32.5 -29t-26 -35.5t-10.5 -41.5q0 -16 8.5 -30t33.5 -14q24 0 34.5 16.5t10.5 41.5h12q0 -31 -13.5 -50.5t-43.5 -19.5t-42 16.5t-12 39.5q0 36 24 66.5t70 64.5l-90 244h-311zM142 260h301l-150 409z" />
    <glyph glyph-name="aogonek" unicode="&#x105;" horiz-adv-x="463" 
d="M55 103q0 57 41 94t128 37q31 0 62.5 -5t53.5 -12v120q0 56 -30.5 93.5t-101.5 37.5q-70 0 -100 -37.5t-30 -91.5h-12q0 59 33.5 100t108.5 41q78 0 111 -40.5t33 -102.5v-247q0 -43 10.5 -63.5t38.5 -20.5q19 0 29.5 12.5t10.5 30.5h12q0 -11 -5.5 -25t-18.5 -22
q-12 -9 -27 -21.5t-28 -27.5t-21.5 -33t-8.5 -39q0 -25 13 -39.5t38 -14.5q24 0 35 16.5t11 41.5h12q0 -31 -14 -50.5t-44 -19.5t-46.5 16.5t-16.5 47.5q0 33 16.5 60t53.5 56h-2q-32 0 -46 20.5t-14 74.5v42q-8 -26 -22 -51t-34 -44t-47 -30.5t-60 -11.5q-54 0 -88 27.5
t-34 80.5zM67 103q0 -47 31.5 -71.5t78.5 -24.5q41 0 72 18.5t51 47t30 62.5t10 65v5q-22 7 -55 12t-61 5q-78 0 -117.5 -33t-39.5 -86z" />
    <glyph glyph-name="Cacute" unicode="&#x106;" horiz-adv-x="614" 
d="M55 339q0 88 23.5 155t63.5 111.5t93 67t112 22.5q60 0 101.5 -18t66.5 -40t36.5 -41t12.5 -21l-12 -6q-1 2 -12 20t-34.5 38.5t-62.5 37t-96 16.5q-56 0 -107 -22t-88.5 -65t-60 -107t-22.5 -148q0 -85 21.5 -147t58 -102.5t85.5 -60t104 -19.5q63 0 106 20t68.5 44
t36.5 45t12 23l13 -5q-1 -3 -12.5 -25.5t-38 -48t-72 -46.5t-113.5 -21q-57 0 -108.5 20t-90 62t-61.5 107t-23 154zM302 742l169 83l6 -12l-169 -83z" />
    <glyph glyph-name="cacute" unicode="&#x107;" horiz-adv-x="465" 
d="M55 228q0 55 12 101.5t35 80t57 52t78 18.5q71 0 105 -30.5t44 -67.5q3 -12 4.5 -24t1.5 -22h-12q0 18 -6 41t-21.5 43t-43.5 34t-72 14q-42 0 -74 -18.5t-53 -50.5t-32 -76t-11 -95q0 -56 14 -98t38 -69t56.5 -40.5t69.5 -13.5q75 0 111.5 42.5t36.5 106.5h12
q0 -72 -40.5 -116.5t-119.5 -44.5q-40 0 -74.5 14t-60 42.5t-40.5 72.5t-15 104zM202 571l137 161l9 -10l-137 -161z" />
    <glyph glyph-name="Ccircumflex" unicode="&#x108;" horiz-adv-x="614" 
d="M55 339q0 88 23.5 155t63.5 111.5t93 67t112 22.5q60 0 101.5 -18t66.5 -40t36.5 -41t12.5 -21l-12 -6q-1 2 -12 20t-34.5 38.5t-62.5 37t-96 16.5q-56 0 -107 -22t-88.5 -65t-60 -107t-22.5 -148q0 -85 21.5 -147t58 -102.5t85.5 -60t104 -19.5q63 0 106 20t68.5 44
t36.5 45t12 23l13 -5q-1 -3 -12.5 -25.5t-38 -48t-72 -46.5t-113.5 -21q-57 0 -108.5 20t-90 62t-61.5 107t-23 154zM199 742l139 83h4l139 -83l-6 -12l-135 81l-135 -81z" />
    <glyph glyph-name="ccircumflex" unicode="&#x109;" horiz-adv-x="465" 
d="M55 228q0 55 12 101.5t35 80t57 52t78 18.5q71 0 105 -30.5t44 -67.5q3 -12 4.5 -24t1.5 -22h-12q0 18 -6 41t-21.5 43t-43.5 34t-72 14q-42 0 -74 -18.5t-53 -50.5t-32 -76t-11 -95q0 -56 14 -98t38 -69t56.5 -40.5t69.5 -13.5q75 0 111.5 42.5t36.5 106.5h12
q0 -72 -40.5 -116.5t-119.5 -44.5q-40 0 -74.5 14t-60 42.5t-40.5 72.5t-15 104zM109 571l137 161h9l137 -161l-9 -10l-132 156l-133 -156z" />
    <glyph glyph-name="Cdotaccent" unicode="&#x10a;" horiz-adv-x="614" 
d="M55 339q0 88 23.5 155t63.5 111.5t93 67t112 22.5q60 0 101.5 -18t66.5 -40t36.5 -41t12.5 -21l-12 -6q-1 2 -12 20t-34.5 38.5t-62.5 37t-96 16.5q-56 0 -107 -22t-88.5 -65t-60 -107t-22.5 -148q0 -85 21.5 -147t58 -102.5t85.5 -60t104 -19.5q63 0 106 20t68.5 44
t36.5 45t12 23l13 -5q-1 -3 -12.5 -25.5t-38 -48t-72 -46.5t-113.5 -21q-57 0 -108.5 20t-90 62t-61.5 107t-23 154zM331 778q0 7 5 12.5t14 5.5q8 0 13 -5.5t5 -12.5t-5 -13t-13 -6q-9 0 -14 6t-5 13z" />
    <glyph glyph-name="cdotaccent" unicode="&#x10b;" horiz-adv-x="465" 
d="M55 228q0 55 12 101.5t35 80t57 52t78 18.5q71 0 105 -30.5t44 -67.5q3 -12 4.5 -24t1.5 -22h-12q0 18 -6 41t-21.5 43t-43.5 34t-72 14q-42 0 -74 -18.5t-53 -50.5t-32 -76t-11 -95q0 -56 14 -98t38 -69t56.5 -40.5t69.5 -13.5q75 0 111.5 42.5t36.5 106.5h12
q0 -72 -40.5 -116.5t-119.5 -44.5q-40 0 -74.5 14t-60 42.5t-40.5 72.5t-15 104zM246 643q-9 0 -14 6t-5 13t5 12.5t14 5.5q8 0 13 -5.5t5 -12.5t-5 -13t-13 -6z" />
    <glyph glyph-name="Ccaron" unicode="&#x10c;" horiz-adv-x="614" 
d="M55 339q0 88 23.5 155t63.5 111.5t93 67t112 22.5q60 0 101.5 -18t66.5 -40t36.5 -41t12.5 -21l-12 -6q-1 2 -12 20t-34.5 38.5t-62.5 37t-96 16.5q-56 0 -107 -22t-88.5 -65t-60 -107t-22.5 -148q0 -85 21.5 -147t58 -102.5t85.5 -60t104 -19.5q63 0 106 20t68.5 44
t36.5 45t12 23l13 -5q-1 -3 -12.5 -25.5t-38 -48t-72 -46.5t-113.5 -21q-57 0 -108.5 20t-90 62t-61.5 107t-23 154zM213 813l6 12l135 -81l135 81l6 -12l-139 -83h-4z" />
    <glyph glyph-name="ccaron" unicode="&#x10d;" horiz-adv-x="465" 
d="M55 228q0 55 12 101.5t35 80t57 52t78 18.5q71 0 105 -30.5t44 -67.5q3 -12 4.5 -24t1.5 -22h-12q0 18 -6 41t-21.5 43t-43.5 34t-72 14q-42 0 -74 -18.5t-53 -50.5t-32 -76t-11 -95q0 -56 14 -98t38 -69t56.5 -40.5t69.5 -13.5q75 0 111.5 42.5t36.5 106.5h12
q0 -72 -40.5 -116.5t-119.5 -44.5q-40 0 -74.5 14t-60 42.5t-40.5 72.5t-15 104zM103 722l9 10l132 -156l133 156l9 -10l-137 -161h-9z" />
    <glyph glyph-name="Dcaron" unicode="&#x10e;" horiz-adv-x="657" 
d="M100 690h147q94 0 162 -28t110.5 -75t62.5 -109t20 -129q0 -102 -30.5 -169.5t-80.5 -107.5t-114 -56t-130 -16h-147v690zM247 676h-133v-662h133q64 0 125.5 15.5t109 54t77 103.5t29.5 162q0 64 -19 123.5t-59.5 104.5t-106 72t-156.5 27zM159 813l6 12l135 -81l135 81
l6 -12l-139 -83h-4z" />
    <glyph glyph-name="dcaron" unicode="&#x10f;" horiz-adv-x="563" 
d="M55 236q0 119 53.5 181.5t135.5 62.5q24 0 50.5 -8.5t51 -27.5t44 -49t29.5 -72v387h12v-710h-12v152q-17 -77 -63 -117t-112 -40q-31 0 -64.5 13t-61 41.5t-45.5 74.5t-18 112zM419 242q0 60 -17 103t-43 70.5t-57 40t-58 12.5q-78 0 -127.5 -60.5t-49.5 -171.5
q0 -61 16.5 -105t42.5 -71t57.5 -40t60.5 -13q78 0 126.5 61t48.5 174zM527 532l75 178l11 -5l-75 -178z" />
    <glyph glyph-name="Dcroat" unicode="&#x110;" horiz-adv-x="657" 
d="M20 359h80v331h147q94 0 162 -28t110.5 -75t62.5 -109t20 -129q0 -102 -30.5 -169.5t-80.5 -107.5t-114 -56t-130 -16h-147v347h-80v12zM346 347h-232v-333h133q64 0 125.5 15.5t109 54t77 103.5t29.5 162q0 64 -19 123.5t-59.5 104.5t-106 72t-156.5 27h-133v-317h232
v-12z" />
    <glyph glyph-name="dcroat" unicode="&#x111;" horiz-adv-x="526" 
d="M55 236q0 119 53.5 181.5t135.5 62.5q24 0 50.5 -8.5t51 -27.5t44 -49t29.5 -72v268h-154v12h154v107h12v-107h70v-12h-70v-591h-12v152q-17 -77 -63 -117t-112 -40q-31 0 -64.5 13t-61 41.5t-45.5 74.5t-18 112zM419 242q0 60 -17 103t-43 70.5t-57 40t-58 12.5
q-78 0 -127.5 -60.5t-49.5 -171.5q0 -61 16.5 -105t42.5 -71t57.5 -40t60.5 -13q78 0 126.5 61t48.5 174z" />
    <glyph glyph-name="Emacron" unicode="&#x112;" horiz-adv-x="518" 
d="M418 356h-304v-337h364v-14h-378v680h378v-14h-364v-301h304v-14zM175 791h236v-12h-236v12z" />
    <glyph glyph-name="emacron" unicode="&#x113;" horiz-adv-x="470" 
d="M55 227q0 55 13.5 102t38.5 80t60.5 52t79.5 19q46 0 75 -14.5t44 -36t20.5 -46t5.5 -44.5q0 -14 -1.5 -24.5t-2.5 -14.5h-314q-3 -15 -5 -31t-2 -32v-10q0 -56 14 -97.5t38 -68.5t56.5 -40.5t69.5 -13.5q75 0 116.5 42.5t41.5 106.5h12q0 -72 -45.5 -116.5t-124.5 -44.5
q-40 0 -74.5 14t-60 42t-40.5 72t-15 104zM247 468q-65 0 -109.5 -43.5t-61.5 -112.5h303q0 1 0.5 7t0.5 17q0 16 -4.5 39t-18.5 43.5t-40 35t-70 14.5zM132 685h236v-12h-236v12z" />
    <glyph glyph-name="Ebreve" unicode="&#x114;" horiz-adv-x="518" 
d="M418 356h-304v-337h364v-14h-378v680h378v-14h-364v-301h304v-14zM157 832h15q0 -10 6 -25t19.5 -29t36.5 -24t56 -10t56 10t36.5 24t19.5 29t6 25h15q0 -11 -6 -28.5t-21 -33.5t-41 -28t-65 -12t-65 12t-41 28t-21 33.5t-6 28.5z" />
    <glyph glyph-name="ebreve" unicode="&#x115;" horiz-adv-x="470" 
d="M55 227q0 55 13.5 102t38.5 80t60.5 52t79.5 19q46 0 75 -14.5t44 -36t20.5 -46t5.5 -44.5q0 -14 -1.5 -24.5t-2.5 -14.5h-314q-3 -15 -5 -31t-2 -32v-10q0 -56 14 -97.5t38 -68.5t56.5 -40.5t69.5 -13.5q75 0 116.5 42.5t41.5 106.5h12q0 -72 -45.5 -116.5t-124.5 -44.5
q-40 0 -74.5 14t-60 42t-40.5 72t-15 104zM247 468q-65 0 -109.5 -43.5t-61.5 -112.5h303q0 1 0.5 7t0.5 17q0 16 -4.5 39t-18.5 43.5t-40 35t-70 14.5zM258 594q-41 0 -66.5 16t-39.5 38t-18.5 44t-4.5 34h12q0 -11 4.5 -31.5t17 -40t35.5 -34t60 -14.5t60.5 14.5t36 34
t16.5 40t4 31.5h12q0 -12 -4.5 -34t-18.5 -44t-39.5 -38t-66.5 -16z" />
    <glyph glyph-name="Edotaccent" unicode="&#x116;" horiz-adv-x="518" 
d="M418 356h-304v-337h364v-14h-378v680h378v-14h-364v-301h304v-14zM272 778q0 7 5 12.5t14 5.5q8 0 13 -5.5t5 -12.5t-5 -13t-13 -6q-9 0 -14 6t-5 13z" />
    <glyph glyph-name="edotaccent" unicode="&#x117;" horiz-adv-x="470" 
d="M55 227q0 55 13.5 102t38.5 80t60.5 52t79.5 19q46 0 75 -14.5t44 -36t20.5 -46t5.5 -44.5q0 -14 -1.5 -24.5t-2.5 -14.5h-314q-3 -15 -5 -31t-2 -32v-10q0 -56 14 -97.5t38 -68.5t56.5 -40.5t69.5 -13.5q75 0 116.5 42.5t41.5 106.5h12q0 -72 -45.5 -116.5t-124.5 -44.5
q-40 0 -74.5 14t-60 42t-40.5 72t-15 104zM247 468q-65 0 -109.5 -43.5t-61.5 -112.5h303q0 1 0.5 7t0.5 17q0 16 -4.5 39t-18.5 43.5t-40 35t-70 14.5zM250 643q-9 0 -14 6t-5 13t5 12.5t14 5.5q8 0 13 -5.5t5 -12.5t-5 -13t-13 -6z" />
    <glyph glyph-name="Eogonek" unicode="&#x118;" horiz-adv-x="518" 
d="M357 -112q0 25 13.5 56t49.5 61h-320v680h378v-14h-364v-301h304v-14h-304v-337h364v-14h-40q-32 -22 -50.5 -55t-18.5 -62q0 -31 12.5 -46t37.5 -15q24 0 35.5 16.5t11.5 41.5h12q0 -31 -14.5 -50.5t-44.5 -19.5t-46 16.5t-16 56.5z" />
    <glyph glyph-name="eogonek" unicode="&#x119;" horiz-adv-x="470" 
d="M55 227q0 55 13.5 102t38.5 80t60.5 52t79.5 19q46 0 75 -14.5t44 -36t20.5 -46t5.5 -44.5q0 -14 -1.5 -24.5t-2.5 -14.5h-314q-3 -15 -5 -31t-2 -32v-10q0 -56 14 -97.5t38 -68.5t56.5 -40.5t69.5 -13.5q75 0 116.5 42.5t41.5 106.5h12q0 -72 -45.5 -116.5t-124.5 -44.5
q-40 0 -74.5 14t-60 42t-40.5 72t-15 104zM247 468q-65 0 -109.5 -43.5t-61.5 -112.5h303q0 1 0.5 7t0.5 17q0 16 -4.5 39t-18.5 43.5t-40 35t-70 14.5zM292 -109q0 41 26 89t60 87l9 -7q-28 -32 -55.5 -78.5t-27.5 -90.5q0 -33 13 -48.5t38 -15.5q24 0 35 16.5t11 41.5h12
q0 -31 -14 -50.5t-44 -19.5t-46.5 18t-16.5 58z" />
    <glyph glyph-name="Ecaron" unicode="&#x11a;" horiz-adv-x="518" 
d="M418 356h-304v-337h364v-14h-378v680h378v-14h-364v-301h304v-14zM158 813l6 12l135 -81l135 81l6 -12l-139 -83h-4z" />
    <glyph glyph-name="ecaron" unicode="&#x11b;" horiz-adv-x="470" 
d="M55 227q0 55 13.5 102t38.5 80t60.5 52t79.5 19q46 0 75 -14.5t44 -36t20.5 -46t5.5 -44.5q0 -14 -1.5 -24.5t-2.5 -14.5h-314q-3 -15 -5 -31t-2 -32v-10q0 -56 14 -97.5t38 -68.5t56.5 -40.5t69.5 -13.5q75 0 116.5 42.5t41.5 106.5h12q0 -72 -45.5 -116.5t-124.5 -44.5
q-40 0 -74.5 14t-60 42t-40.5 72t-15 104zM247 468q-65 0 -109.5 -43.5t-61.5 -112.5h303q0 1 0.5 7t0.5 17q0 16 -4.5 39t-18.5 43.5t-40 35t-70 14.5zM107 722l9 10l132 -156l133 156l9 -10l-137 -161h-9z" />
    <glyph glyph-name="Gcircumflex" unicode="&#x11c;" horiz-adv-x="641" 
d="M55 342q0 88 25 154.5t67 110.5t96.5 66t113.5 22q62 0 103 -18t66 -40t36 -41t12 -21l-12 -6q-1 2 -12 20t-34.5 38.5t-62.5 37t-96 16.5q-56 0 -108.5 -21.5t-92 -63.5t-63.5 -106t-24 -148q0 -85 23 -147.5t62 -103.5t92 -61t112 -20q54 0 92.5 13.5t63.5 29.5
t36.5 29.5l11.5 13.5v216h-178v14h192v-234q-1 -3 -14 -18t-39.5 -32.5t-67 -31.5t-97.5 -14q-62 0 -117 20.5t-96.5 63t-65.5 108t-24 154.5zM219 742l139 83h4l139 -83l-6 -12l-135 81l-135 -81z" />
    <glyph glyph-name="gcircumflex" unicode="&#x11d;" horiz-adv-x="484" 
d="M75 318q0 74 45 118t117 44q46 0 87 -23t60 -70v4q0 55 13 72t32 17t27.5 -9t11.5 -22q1 -4 1 -8.5v-8.5h-12q0 12 -4.5 24t-23.5 12q-16 0 -24.5 -18.5t-8.5 -58.5v-82v0q-4 -69 -49 -110.5t-110 -41.5q-15 0 -29.5 2.5t-28.5 6.5q-4 -1 -17.5 -6t-27.5 -14.5t-25 -24
t-11 -35.5q0 -34 32 -52t113 -18h19q99 0 140.5 -27.5t41.5 -87.5q0 -62 -49 -106.5t-155 -44.5q-43 0 -81 7.5t-65 23.5t-43 41.5t-16 61.5q0 10 1 18t2 18h12q-1 -8 -2 -17t-1 -17q0 -34 15.5 -58t41.5 -38.5t61 -21t75 -6.5q99 0 145.5 40t46.5 99q0 57 -40.5 80
t-129.5 23h-18q-49 0 -80 6t-48.5 16.5t-23.5 26t-6 33.5t8.5 32.5t20 25t24.5 17.5t22 11q-37 17 -61.5 53.5t-24.5 92.5zM384 321q0 37 -13 65t-33.5 46t-47 27t-53.5 9q-66 0 -108 -41t-42 -109q0 -38 12.5 -66t33 -46.5t48 -27.5t56.5 -9q63 0 105 42t42 110zM106 571
l137 161h9l137 -161l-9 -10l-132 156l-133 -156z" />
    <glyph glyph-name="Gbreve" unicode="&#x11e;" horiz-adv-x="641" 
d="M55 342q0 88 25 154.5t67 110.5t96.5 66t113.5 22q62 0 103 -18t66 -40t36 -41t12 -21l-12 -6q-1 2 -12 20t-34.5 38.5t-62.5 37t-96 16.5q-56 0 -108.5 -21.5t-92 -63.5t-63.5 -106t-24 -148q0 -85 23 -147.5t62 -103.5t92 -61t112 -20q54 0 92.5 13.5t63.5 29.5
t36.5 29.5l11.5 13.5v216h-178v14h192v-234q-1 -3 -14 -18t-39.5 -32.5t-67 -31.5t-97.5 -14q-62 0 -117 20.5t-96.5 63t-65.5 108t-24 154.5zM233 832h15q0 -10 6 -25t19.5 -29t36.5 -24t56 -10t56 10t36.5 24t19.5 29t6 25h15q0 -11 -6 -28.5t-21 -33.5t-41 -28t-65 -12
t-65 12t-41 28t-21 33.5t-6 28.5z" />
    <glyph glyph-name="gbreve" unicode="&#x11f;" horiz-adv-x="484" 
d="M75 318q0 74 45 118t117 44q46 0 87 -23t60 -70v4q0 55 13 72t32 17t27.5 -9t11.5 -22q1 -4 1 -8.5v-8.5h-12q0 12 -4.5 24t-23.5 12q-16 0 -24.5 -18.5t-8.5 -58.5v-82v0q-4 -69 -49 -110.5t-110 -41.5q-15 0 -29.5 2.5t-28.5 6.5q-4 -1 -17.5 -6t-27.5 -14.5t-25 -24
t-11 -35.5q0 -34 32 -52t113 -18h19q99 0 140.5 -27.5t41.5 -87.5q0 -62 -49 -106.5t-155 -44.5q-43 0 -81 7.5t-65 23.5t-43 41.5t-16 61.5q0 10 1 18t2 18h12q-1 -8 -2 -17t-1 -17q0 -34 15.5 -58t41.5 -38.5t61 -21t75 -6.5q99 0 145.5 40t46.5 99q0 57 -40.5 80
t-129.5 23h-18q-49 0 -80 6t-48.5 16.5t-23.5 26t-6 33.5t8.5 32.5t20 25t24.5 17.5t22 11q-37 17 -61.5 53.5t-24.5 92.5zM384 321q0 37 -13 65t-33.5 46t-47 27t-53.5 9q-66 0 -108 -41t-42 -109q0 -38 12.5 -66t33 -46.5t48 -27.5t56.5 -9q63 0 105 42t42 110zM240 594
q-41 0 -66.5 16t-39.5 38t-18.5 44t-4.5 34h12q0 -11 4.5 -31.5t17 -40t35.5 -34t60 -14.5t60.5 14.5t36 34t16.5 40t4 31.5h12q0 -12 -4.5 -34t-18.5 -44t-39.5 -38t-66.5 -16z" />
    <glyph glyph-name="Gdotaccent" unicode="&#x120;" horiz-adv-x="641" 
d="M55 342q0 88 25 154.5t67 110.5t96.5 66t113.5 22q62 0 103 -18t66 -40t36 -41t12 -21l-12 -6q-1 2 -12 20t-34.5 38.5t-62.5 37t-96 16.5q-56 0 -108.5 -21.5t-92 -63.5t-63.5 -106t-24 -148q0 -85 23 -147.5t62 -103.5t92 -61t112 -20q54 0 92.5 13.5t63.5 29.5
t36.5 29.5l11.5 13.5v216h-178v14h192v-234q-1 -3 -14 -18t-39.5 -32.5t-67 -31.5t-97.5 -14q-62 0 -117 20.5t-96.5 63t-65.5 108t-24 154.5zM341 778q0 7 5 12.5t14 5.5q8 0 13 -5.5t5 -12.5t-5 -13t-13 -6q-9 0 -14 6t-5 13z" />
    <glyph glyph-name="gdotaccent" unicode="&#x121;" horiz-adv-x="484" 
d="M75 318q0 74 45 118t117 44q46 0 87 -23t60 -70v4q0 55 13 72t32 17t27.5 -9t11.5 -22q1 -4 1 -8.5v-8.5h-12q0 12 -4.5 24t-23.5 12q-16 0 -24.5 -18.5t-8.5 -58.5v-82v0q-4 -69 -49 -110.5t-110 -41.5q-15 0 -29.5 2.5t-28.5 6.5q-4 -1 -17.5 -6t-27.5 -14.5t-25 -24
t-11 -35.5q0 -34 32 -52t113 -18h19q99 0 140.5 -27.5t41.5 -87.5q0 -62 -49 -106.5t-155 -44.5q-43 0 -81 7.5t-65 23.5t-43 41.5t-16 61.5q0 10 1 18t2 18h12q-1 -8 -2 -17t-1 -17q0 -34 15.5 -58t41.5 -38.5t61 -21t75 -6.5q99 0 145.5 40t46.5 99q0 57 -40.5 80
t-129.5 23h-18q-49 0 -80 6t-48.5 16.5t-23.5 26t-6 33.5t8.5 32.5t20 25t24.5 17.5t22 11q-37 17 -61.5 53.5t-24.5 92.5zM384 321q0 37 -13 65t-33.5 46t-47 27t-53.5 9q-66 0 -108 -41t-42 -109q0 -38 12.5 -66t33 -46.5t48 -27.5t56.5 -9q63 0 105 42t42 110zM240 643
q-9 0 -14 6t-5 13t5 12.5t14 5.5q8 0 13 -5.5t5 -12.5t-5 -13t-13 -6z" />
    <glyph glyph-name="Gcommaaccent" unicode="&#x122;" horiz-adv-x="641" 
d="M55 342q0 88 25 154.5t67 110.5t96.5 66t113.5 22q62 0 103 -18t66 -40t36 -41t12 -21l-12 -6q-1 2 -12 20t-34.5 38.5t-62.5 37t-96 16.5q-56 0 -108.5 -21.5t-92 -63.5t-63.5 -106t-24 -148q0 -85 23 -147.5t62 -103.5t92 -61t112 -20q54 0 92.5 13.5t63.5 29.5
t36.5 29.5l11.5 13.5v216h-178v14h192v-234q-1 -3 -14 -18t-39.5 -32.5t-67 -31.5t-97.5 -14q-62 0 -117 20.5t-96.5 63t-65.5 108t-24 154.5zM310 -201l62 148l11 -5l-62 -148z" />
    <glyph glyph-name="gcommaaccent" unicode="&#x123;" horiz-adv-x="484" 
d="M75 318q0 74 45 118t117 44q46 0 87 -23t60 -70v4q0 55 13 72t32 17t27.5 -9t11.5 -22q1 -4 1 -8.5v-8.5h-12q0 12 -4.5 24t-23.5 12q-16 0 -24.5 -18.5t-8.5 -58.5v-82v0q-4 -69 -49 -110.5t-110 -41.5q-15 0 -29.5 2.5t-28.5 6.5q-4 -1 -17.5 -6t-27.5 -14.5t-25 -24
t-11 -35.5q0 -34 32 -52t113 -18h19q99 0 140.5 -27.5t41.5 -87.5q0 -62 -49 -106.5t-155 -44.5q-43 0 -81 7.5t-65 23.5t-43 41.5t-16 61.5q0 10 1 18t2 18h12q-1 -8 -2 -17t-1 -17q0 -34 15.5 -58t41.5 -38.5t61 -21t75 -6.5q99 0 145.5 40t46.5 99q0 57 -40.5 80
t-129.5 23h-18q-49 0 -80 6t-48.5 16.5t-23.5 26t-6 33.5t8.5 32.5t20 25t24.5 17.5t22 11q-37 17 -61.5 53.5t-24.5 92.5zM384 321q0 37 -13 65t-33.5 46t-47 27t-53.5 9q-66 0 -108 -41t-42 -109q0 -38 12.5 -66t33 -46.5t48 -27.5t56.5 -9q63 0 105 42t42 110zM233 569
l62 148l11 -5l-62 -148z" />
    <glyph glyph-name="Hcircumflex" unicode="&#x124;" horiz-adv-x="664" 
d="M100 690h14v-312h436v312h14v-690h-14v364h-436v-364h-14v690zM191 742l139 83h4l139 -83l-6 -12l-135 81l-135 -81z" />
    <glyph glyph-name="hcircumflex" unicode="&#x125;" horiz-adv-x="508" 
d="M98 810l-92 -78l-9 10l99 83h4l99 -83l-9 -10zM423 0h-12v288q0 80 -28 130t-112 50q-41 0 -71 -17.5t-50 -46t-30.5 -66.5t-12.5 -79v-259h-12v710h12v-377q15 63 56.5 105t109.5 42q86 0 118 -52t32 -138v-290z" />
    <glyph glyph-name="Hbar" unicode="&#x126;" horiz-adv-x="664" 
d="M100 690h14v-122h436v122h14v-122h80v-14h-80v-554h-14v364h-436v-364h-14v554h-80v14h80v122zM114 378h436v176h-436v-176z" />
    <glyph glyph-name="hbar" unicode="&#x127;" horiz-adv-x="508" 
d="M423 0h-12v288q0 80 -28 130t-112 50q-41 0 -71 -17.5t-50 -46t-30.5 -66.5t-12.5 -79v-259h-12v591h-70v12h70v107h12v-107h154v-12h-154v-258q15 63 56.5 105t109.5 42q86 0 118 -52t32 -138v-290z" />
    <glyph glyph-name="Itilde" unicode="&#x128;" horiz-adv-x="234" 
d="M110 690h14v-690h-14v690zM187 750q37 0 45.5 21.5t0.5 46.5l14 5q11 -31 -2 -58.5t-59 -27.5q-25 0 -38 11.5t-23.5 24.5t-24 24.5t-38.5 11.5q-35 0 -44 -21.5t-2 -46.5l-14 -5q-10 31 3 58.5t59 27.5q28 0 43 -11.5t26 -24.5t22 -24.5t32 -11.5z" />
    <glyph glyph-name="itilde" unicode="&#x129;" horiz-adv-x="217" 
d="M102 470h12v-470h-12v470zM-9 590q-14 43 -1.5 77.5t56.5 34.5q31 0 46 -15.5t25 -33.5t21 -33.5t33 -15.5q38 0 46.5 30t-3.5 66l12 4q14 -43 1.5 -77.5t-56.5 -34.5q-26 0 -39 15.5t-22.5 33.5t-22.5 33.5t-41 15.5q-38 0 -46.5 -30t3.5 -66z" />
    <glyph glyph-name="Imacron" unicode="&#x12a;" horiz-adv-x="234" 
d="M30 791h174v-12h-174v12zM110 690h14v-690h-14v690z" />
    <glyph glyph-name="imacron" unicode="&#x12b;" horiz-adv-x="217" 
d="M102 470h12v-470h-12v470zM-9 685h236v-12h-236v12z" />
    <glyph glyph-name="Ibreve" unicode="&#x12c;" horiz-adv-x="234" 
d="M110 690h14v-690h-14v690zM-15 832h15q0 -10 6 -25t19.5 -29t36.5 -24t56 -10t56 10t36.5 24t19.5 29t6 25h15q0 -11 -6 -28.5t-21 -33.5t-41 -28t-65 -12t-65 12t-41 28t-21 33.5t-6 28.5z" />
    <glyph glyph-name="ibreve" unicode="&#x12d;" horiz-adv-x="217" 
d="M102 470h12v-470h-12v470zM109 594q-41 0 -66.5 16t-39.5 38t-18.5 44t-4.5 34h12q0 -11 4.5 -31.5t17 -40t35.5 -34t60 -14.5t60.5 14.5t36 34t16.5 40t4 31.5h12q0 -12 -4.5 -34t-18.5 -44t-39.5 -38t-66.5 -16z" />
    <glyph glyph-name="Iogonek" unicode="&#x12e;" horiz-adv-x="234" 
d="M72 -111q0 25 11 54t27 57v690h14v-690q-16 -26 -28 -55t-12 -56q0 -33 14 -47.5t39 -14.5q24 0 35 16.5t11 41.5h12q0 -31 -14 -50.5t-44 -19.5t-47.5 17t-17.5 57z" />
    <glyph glyph-name="iogonek" unicode="&#x12f;" horiz-adv-x="217" 
d="M109 643q-9 0 -14 6t-5 13t5 12.5t14 5.5q8 0 13 -5.5t5 -12.5t-5 -13t-13 -6zM64 -109q0 26 11 55t27 54v470h12v-470q-16 -26 -27 -54t-11 -55q0 -33 13 -48.5t38 -15.5q24 0 35 16.5t11 41.5h12q0 -31 -14 -50.5t-44 -19.5t-46.5 18t-16.5 58z" />
    <glyph glyph-name="Idotaccent" unicode="&#x130;" horiz-adv-x="234" 
d="M110 690h14v-690h-14v690zM98 778q0 7 5 12.5t14 5.5q8 0 13 -5.5t5 -12.5t-5 -13t-13 -6q-9 0 -14 6t-5 13z" />
    <glyph glyph-name="dotlessi" unicode="&#x131;" horiz-adv-x="217" 
d="M102 470h12v-470h-12v470z" />
    <glyph glyph-name="IJ" unicode="&#x132;" horiz-adv-x="641" 
d="M110 690h14v-690h-14v690zM257 136h14q0 -21 7.5 -43.5t23.5 -41t41.5 -30.5t61.5 -12q43 0 70.5 18t43.5 49.5t22 74t6 91.5v448h14v-450q0 -116 -34.5 -180.5t-121.5 -64.5q-40 0 -68.5 13t-46 33t-25.5 45t-8 50z" />
    <glyph glyph-name="ij" unicode="&#x133;" horiz-adv-x="463" 
d="M102 470h12v-470h-12v470zM109 643q-9 0 -14 6t-5 13t5 12.5t14 5.5q8 0 13 -5.5t5 -12.5t-5 -13t-13 -6zM211 -174h12q0 -31 14 -47.5t45 -16.5q37 0 51.5 35.5t14.5 107.5v565h12v-568q0 -80 -18.5 -116t-60.5 -36q-36 0 -53 18.5t-17 57.5zM355 643q-9 0 -14 6t-5 13
t5 12.5t14 5.5q8 0 13 -5.5t5 -12.5t-5 -13t-13 -6z" />
    <glyph glyph-name="Jcircumflex" unicode="&#x134;" horiz-adv-x="404" 
d="M315 810l-92 -78l-9 10l99 83h4l99 -83l-9 -10zM20 136h14q0 -21 7.5 -43.5t23.5 -41t41.5 -30.5t61.5 -12q43 0 70.5 18t43.5 49.5t22 74t6 91.5v448h14v-450q0 -116 -34.5 -180.5t-121.5 -64.5q-40 0 -68.5 13t-46 33t-25.5 45t-8 50z" />
    <glyph glyph-name="jcircumflex" unicode="&#x135;" horiz-adv-x="242" 
d="M-10 -174h12q0 -31 14 -47.5t45 -16.5q37 0 51.5 35.5t14.5 107.5v565h12v-568q0 -80 -18.5 -116t-60.5 -36q-36 0 -53 18.5t-17 57.5zM-10 571l137 161h9l137 -161l-9 -10l-132 156l-133 -156z" />
    <glyph glyph-name="Kcommaaccent" unicode="&#x136;" horiz-adv-x="549" 
d="M101 0v288l-1 1l1 1v400h14v-384l347 384h17l-267 -297l307 -393h-18l-299 382l-87 -97v-285h-14zM242 -201l62 148l11 -5l-62 -148z" />
    <glyph glyph-name="kcommaaccent" unicode="&#x137;" horiz-adv-x="439" 
d="M95 710h12v-468l260 228h17l-193 -171l228 -299h-16l-222 291l-74 -65v-226h-12v710zM182 -201l62 148l11 -5l-62 -148z" />
    <glyph glyph-name="Lacute" unicode="&#x139;" horiz-adv-x="488" 
d="M100 690h14v-671h364v-14h-378v685zM102 742l169 83l6 -12l-169 -83z" />
    <glyph glyph-name="lacute" unicode="&#x13a;" horiz-adv-x="212" 
d="M100 710h12v-710h-12v710zM24 742l169 83l6 -12l-169 -83z" />
    <glyph glyph-name="Lcommaaccent" unicode="&#x13b;" horiz-adv-x="488" 
d="M100 690h14v-671h364v-14h-378v685zM232 -201l62 148l11 -5l-62 -148z" />
    <glyph glyph-name="lcommaaccent" unicode="&#x13c;" horiz-adv-x="212" 
d="M100 710h12v-710h-12v710zM39 -201l62 148l11 -5l-62 -148z" />
    <glyph glyph-name="Lcaron" unicode="&#x13d;" horiz-adv-x="488" 
d="M100 690h14v-671h364v-14h-378v685zM281 532l75 178l11 -5l-75 -178z" />
    <glyph glyph-name="lcaron" unicode="&#x13e;" horiz-adv-x="232" 
d="M100 710h12v-710h-12v710zM186 532l75 178l11 -5l-75 -178z" />
    <glyph glyph-name="Ldot" unicode="&#x13f;" horiz-adv-x="488" 
d="M100 690h14v-671h364v-14h-378v685zM337 341q-9 0 -14 6t-5 13t5 12.5t14 5.5q8 0 13 -5.5t5 -12.5t-5 -13t-13 -6z" />
    <glyph glyph-name="ldot" unicode="&#x140;" horiz-adv-x="212" 
d="M100 710h12v-710h-12v710zM212 351q-9 0 -14 6t-5 13t5 12.5t14 5.5q8 0 13 -5.5t5 -12.5t-5 -13t-13 -6z" />
    <glyph glyph-name="Lslash" unicode="&#x141;" horiz-adv-x="488" 
d="M30 244l-7 12l77 44v390h14v-382l206 119l7 -12l-213 -123v-273h364v-14h-378v279z" />
    <glyph glyph-name="lslash" unicode="&#x142;" horiz-adv-x="212" 
d="M42 273l-9 10l67 79v348h12v-334l58 68l9 -10l-67 -79v-355h-12v341z" />
    <glyph glyph-name="Nacute" unicode="&#x143;" horiz-adv-x="664" 
d="M564 690v-695h-15l-435 669v-664h-14v690h14l436 -671v671h14zM273 742l169 83l6 -12l-169 -83z" />
    <glyph glyph-name="nacute" unicode="&#x144;" horiz-adv-x="503" 
d="M418 0h-12v288q0 80 -28 130t-112 50q-41 0 -71.5 -17t-51 -46t-31 -67t-10.5 -79v-259h-12v470h12v-134q14 63 55.5 103.5t110.5 40.5q87 0 118.5 -52t31.5 -138v-290zM208 571l137 161l9 -10l-137 -161z" />
    <glyph glyph-name="Ncommaaccent" unicode="&#x145;" horiz-adv-x="664" 
d="M564 690v-695h-15l-435 669v-664h-14v690h14l436 -671v671h14zM270 -201l62 148l11 -5l-62 -148z" />
    <glyph glyph-name="ncommaaccent" unicode="&#x146;" horiz-adv-x="503" 
d="M418 0h-12v288q0 80 -28 130t-112 50q-41 0 -71.5 -17t-51 -46t-31 -67t-10.5 -79v-259h-12v470h12v-134q14 63 55.5 103.5t110.5 40.5q87 0 118.5 -52t31.5 -138v-290zM202 -201l62 148l11 -5l-62 -148z" />
    <glyph glyph-name="Ncaron" unicode="&#x147;" horiz-adv-x="664" 
d="M564 690v-695h-15l-435 669v-664h-14v690h14l436 -671v671h14zM204 813l6 12l135 -81l135 81l6 -12l-139 -83h-4z" />
    <glyph glyph-name="ncaron" unicode="&#x148;" horiz-adv-x="503" 
d="M418 0h-12v288q0 80 -28 130t-112 50q-41 0 -71.5 -17t-51 -46t-31 -67t-10.5 -79v-259h-12v470h12v-134q14 63 55.5 103.5t110.5 40.5q87 0 118.5 -52t31.5 -138v-290zM127 722l9 10l132 -156l133 156l9 -10l-137 -161h-9z" />
    <glyph glyph-name="Eng" unicode="&#x14a;" horiz-adv-x="664" 
d="M408 -243q-40 0 -68.5 13t-46 33t-25.5 45t-8 50h14q0 -21 7.5 -43.5t23.5 -41t41.5 -30.5t61.5 -12q41 0 68.5 17t44 47t23 71t6.5 89l-436 669v-664h-14v690h14l436 -671v671h14v-695q0 -113 -35.5 -175.5t-120.5 -62.5z" />
    <glyph glyph-name="eng" unicode="&#x14b;" horiz-adv-x="503" 
d="M339 -190q-36 0 -53 18.5t-17 57.5h12q0 -31 14 -47.5t45 -16.5q37 0 51.5 35.5t14.5 107.5v323q0 80 -28 130t-112 50q-41 0 -71.5 -17t-51 -46t-31 -67t-10.5 -79v-259h-12v470h12v-134q14 63 55.5 103.5t110.5 40.5q87 0 118.5 -52t31.5 -138v-328q0 -80 -18.5 -116
t-60.5 -36z" />
    <glyph glyph-name="Omacron" unicode="&#x14c;" horiz-adv-x="700" 
d="M55 344q0 83 23.5 148.5t63.5 110.5t94 68.5t116 23.5q52 0 104.5 -19.5t94.5 -61t68 -106.5t26 -155q0 -84 -23 -151t-62.5 -112.5t-93 -69.5t-114.5 -24q-53 0 -106.5 20t-95.5 62t-68.5 108.5t-26.5 157.5zM631 353q0 85 -25 147.5t-64.5 102.5t-89.5 59t-100 19
q-59 0 -111 -23t-90 -66.5t-60 -106t-22 -141.5q0 -87 25 -150.5t65.5 -104t91 -60t101.5 -19.5q59 0 110 23.5t88.5 67.5t59 108t21.5 144zM232 791h236v-12h-236v12z" />
    <glyph glyph-name="omacron" unicode="&#x14d;" horiz-adv-x="488" 
d="M55 238q0 119 53.5 180.5t135.5 61.5t135.5 -61.5t53.5 -180.5t-53.5 -181t-135.5 -62t-135.5 62t-53.5 181zM421 238q0 111 -49.5 170.5t-127.5 59.5t-127.5 -59.5t-49.5 -170.5t49.5 -171t127.5 -60t127.5 60t49.5 171zM126 685h236v-12h-236v12z" />
    <glyph glyph-name="Obreve" unicode="&#x14e;" horiz-adv-x="700" 
d="M55 344q0 83 23.5 148.5t63.5 110.5t94 68.5t116 23.5q52 0 104.5 -19.5t94.5 -61t68 -106.5t26 -155q0 -84 -23 -151t-62.5 -112.5t-93 -69.5t-114.5 -24q-53 0 -106.5 20t-95.5 62t-68.5 108.5t-26.5 157.5zM631 353q0 85 -25 147.5t-64.5 102.5t-89.5 59t-100 19
q-59 0 -111 -23t-90 -66.5t-60 -106t-22 -141.5q0 -87 25 -150.5t65.5 -104t91 -60t101.5 -19.5q59 0 110 23.5t88.5 67.5t59 108t21.5 144zM217 832h15q0 -10 6 -25t19.5 -29t36.5 -24t56 -10t56 10t36.5 24t19.5 29t6 25h15q0 -11 -6 -28.5t-21 -33.5t-41 -28t-65 -12
t-65 12t-41 28t-21 33.5t-6 28.5z" />
    <glyph glyph-name="obreve" unicode="&#x14f;" horiz-adv-x="488" 
d="M55 238q0 119 53.5 180.5t135.5 61.5t135.5 -61.5t53.5 -180.5t-53.5 -181t-135.5 -62t-135.5 62t-53.5 181zM421 238q0 111 -49.5 170.5t-127.5 59.5t-127.5 -59.5t-49.5 -170.5t49.5 -171t127.5 -60t127.5 60t49.5 171zM244 594q-41 0 -66.5 16t-39.5 38t-18.5 44
t-4.5 34h12q0 -11 4.5 -31.5t17 -40t35.5 -34t60 -14.5t60.5 14.5t36 34t16.5 40t4 31.5h12q0 -12 -4.5 -34t-18.5 -44t-39.5 -38t-66.5 -16z" />
    <glyph glyph-name="Ohungarumlaut" unicode="&#x150;" horiz-adv-x="700" 
d="M55 344q0 83 23.5 148.5t63.5 110.5t94 68.5t116 23.5q52 0 104.5 -19.5t94.5 -61t68 -106.5t26 -155q0 -84 -23 -151t-62.5 -112.5t-93 -69.5t-114.5 -24q-53 0 -106.5 20t-95.5 62t-68.5 108.5t-26.5 157.5zM631 353q0 85 -25 147.5t-64.5 102.5t-89.5 59t-100 19
q-59 0 -111 -23t-90 -66.5t-60 -106t-22 -141.5q0 -87 25 -150.5t65.5 -104t91 -60t101.5 -19.5q59 0 110 23.5t88.5 67.5t59 108t21.5 144zM285 727l99 67l8 -12l-99 -67zM395 727l99 67l8 -12l-99 -67z" />
    <glyph glyph-name="ohungarumlaut" unicode="&#x151;" horiz-adv-x="488" 
d="M55 238q0 119 53.5 180.5t135.5 61.5t135.5 -61.5t53.5 -180.5t-53.5 -181t-135.5 -62t-135.5 62t-53.5 181zM421 238q0 111 -49.5 170.5t-127.5 59.5t-127.5 -59.5t-49.5 -170.5t49.5 -171t127.5 -60t127.5 60t49.5 171zM162 572l71 162l11 -5l-71 -162zM302 572l71 162
l11 -5l-71 -162z" />
    <glyph glyph-name="OE" unicode="&#x152;" horiz-adv-x="989" 
d="M55 344q0 83 21.5 148.5t59 110.5t88 68.5t108.5 23.5q42 0 83 -13.5t75.5 -41.5t61 -72t39.5 -104v221h358v-14h-344v-301h284v-14h-284v-337h344v-14h-358v233q-24 -116 -93.5 -179t-165.5 -63q-49 0 -99 20t-89 62t-64 108.5t-25 157.5zM591 353q0 85 -23.5 147.5
t-60 102.5t-83 59t-92.5 19q-56 0 -104 -23t-83.5 -66.5t-55.5 -106t-20 -141.5q0 -87 23.5 -150.5t61 -104t84.5 -60t94 -19.5q54 0 102 23.5t82.5 67.5t54.5 108t20 144z" />
    <glyph glyph-name="oe" unicode="&#x153;" horiz-adv-x="836" 
d="M55 238q0 119 53.5 180.5t135.5 61.5q70 0 120 -45t64 -132q16 80 64.5 128.5t120.5 48.5q46 0 75 -14.5t44 -36t20.5 -46t5.5 -44.5q0 -14 -1.5 -24.5t-2.5 -14.5h-314q-3 -15 -5 -31t-2 -32v-10q0 -56 14 -97.5t38 -68.5t56.5 -40.5t69.5 -13.5q75 0 116.5 42.5
t41.5 106.5h12q0 -72 -45.5 -116.5t-124.5 -44.5q-68 0 -119 40.5t-66 126.5q-16 -81 -65 -124t-117 -43q-82 0 -135.5 62t-53.5 181zM421 238q0 111 -49.5 170.5t-127.5 59.5t-127.5 -59.5t-49.5 -170.5t49.5 -171t127.5 -60t127.5 60t49.5 171zM613 468
q-65 0 -109.5 -43.5t-61.5 -112.5h303q0 1 0.5 7t0.5 17q0 16 -4.5 39t-18.5 43.5t-40 35t-70 14.5z" />
    <glyph glyph-name="Racute" unicode="&#x154;" horiz-adv-x="576" 
d="M556 47q0 -25 -15 -38.5t-39 -13.5q-47 0 -56.5 38.5t-12.5 142.5q-2 84 -52.5 125t-128.5 41h-138v-342h-14v690h167q47 0 87.5 -10.5t70.5 -32t47 -54.5t17 -79q0 -43 -15 -74t-39 -50.5t-55.5 -30t-63.5 -13.5q57 -13 93.5 -54t38.5 -116q3 -87 8 -127t45 -40
q18 0 29.5 9.5t11.5 28.5h14zM267 676h-153v-320h167q33 0 67.5 7.5t62.5 25t46 48.5t18 77q0 43 -16.5 73.5t-44.5 50t-66 29t-81 9.5zM212 742l169 83l6 -12l-169 -83z" />
    <glyph glyph-name="racute" unicode="&#x155;" horiz-adv-x="380" 
d="M90 470h12v-135q13 58 46.5 101.5t99.5 43.5q34 0 55 -13t31.5 -32t14 -40t3.5 -36v-9t-1 -11h-12q1 5 1 10v8q0 14 -3 33.5t-12.5 36.5t-28 29t-48.5 12q-48 0 -77 -25.5t-44.5 -64t-20 -84.5t-4.5 -87v-207h-12v470zM177 571l137 161l9 -10l-137 -161z" />
    <glyph glyph-name="Rcommaaccent" unicode="&#x156;" horiz-adv-x="576" 
d="M556 47q0 -25 -15 -38.5t-39 -13.5q-47 0 -56.5 38.5t-12.5 142.5q-2 84 -52.5 125t-128.5 41h-138v-342h-14v690h167q47 0 87.5 -10.5t70.5 -32t47 -54.5t17 -79q0 -43 -15 -74t-39 -50.5t-55.5 -30t-63.5 -13.5q57 -13 93.5 -54t38.5 -116q3 -87 8 -127t45 -40
q18 0 29.5 9.5t11.5 28.5h14zM267 676h-153v-320h167q33 0 67.5 7.5t62.5 25t46 48.5t18 77q0 43 -16.5 73.5t-44.5 50t-66 29t-81 9.5zM228 -201l62 148l11 -5l-62 -148z" />
    <glyph glyph-name="rcommaaccent" unicode="&#x157;" horiz-adv-x="380" 
d="M90 470h12v-135q13 58 46.5 101.5t99.5 43.5q34 0 55 -13t31.5 -32t14 -40t3.5 -36v-9t-1 -11h-12q1 5 1 10v8q0 14 -3 33.5t-12.5 36.5t-28 29t-48.5 12q-48 0 -77 -25.5t-44.5 -64t-20 -84.5t-4.5 -87v-207h-12v470zM40 -201l62 148l11 -5l-62 -148z" />
    <glyph glyph-name="Rcaron" unicode="&#x158;" horiz-adv-x="576" 
d="M556 47q0 -25 -15 -38.5t-39 -13.5q-47 0 -56.5 38.5t-12.5 142.5q-2 84 -52.5 125t-128.5 41h-138v-342h-14v690h167q47 0 87.5 -10.5t70.5 -32t47 -54.5t17 -79q0 -43 -15 -74t-39 -50.5t-55.5 -30t-63.5 -13.5q57 -13 93.5 -54t38.5 -116q3 -87 8 -127t45 -40
q18 0 29.5 9.5t11.5 28.5h14zM267 676h-153v-320h167q33 0 67.5 7.5t62.5 25t46 48.5t18 77q0 43 -16.5 73.5t-44.5 50t-66 29t-81 9.5zM146 813l6 12l135 -81l135 81l6 -12l-139 -83h-4z" />
    <glyph glyph-name="rcaron" unicode="&#x159;" horiz-adv-x="380" 
d="M90 470h12v-135q13 58 46.5 101.5t99.5 43.5q34 0 55 -13t31.5 -32t14 -40t3.5 -36v-9t-1 -11h-12q1 5 1 10v8q0 14 -3 33.5t-12.5 36.5t-28 29t-48.5 12q-48 0 -77 -25.5t-44.5 -64t-20 -84.5t-4.5 -87v-207h-12v470zM96 722l9 10l132 -156l133 156l9 -10l-137 -161h-9z
" />
    <glyph glyph-name="Sacute" unicode="&#x15a;" horiz-adv-x="528" 
d="M50 185h14q0 -47 15 -80.5t41.5 -54.5t63 -31t77.5 -10q38 0 74 9.5t63.5 29.5t44 52t16.5 76q0 66 -41.5 109.5t-140.5 68.5q-103 24 -151 64.5t-48 112.5q0 86 52.5 125t131.5 39q39 0 73.5 -10t60 -29t40 -46t14.5 -61h-14q0 32 -14 56.5t-37.5 41.5t-55.5 25.5
t-67 8.5q-72 0 -121 -35t-49 -115q0 -68 46.5 -104.5t142.5 -58.5q107 -26 149.5 -73.5t42.5 -118.5q0 -47 -17.5 -81.5t-47 -56.5t-68 -32.5t-79.5 -10.5q-45 0 -84 10.5t-67 33t-44 59t-16 87.5zM217 742l169 83l6 -12l-169 -83z" />
    <glyph glyph-name="sacute" unicode="&#x15b;" horiz-adv-x="432" 
d="M55 156h12q0 -69 39 -109t117 -40q25 0 49.5 6.5t44 20.5t31.5 35.5t12 52.5q0 48 -30 76t-105 44q-78 17 -114 43t-36 81q0 60 39 87t99 27t102 -30t42 -84h-12q0 46 -38 74t-94 28q-54 0 -90 -23.5t-36 -78.5q0 -52 34.5 -74t105.5 -38q82 -18 113.5 -49t31.5 -83
q0 -34 -13 -58t-34 -39.5t-48 -22.5t-54 -7q-84 0 -126 42.5t-42 118.5zM177 571l137 161l9 -10l-137 -161z" />
    <glyph glyph-name="Scircumflex" unicode="&#x15c;" horiz-adv-x="528" 
d="M50 185h14q0 -47 15 -80.5t41.5 -54.5t63 -31t77.5 -10q38 0 74 9.5t63.5 29.5t44 52t16.5 76q0 66 -41.5 109.5t-140.5 68.5q-103 24 -151 64.5t-48 112.5q0 86 52.5 125t131.5 39q39 0 73.5 -10t60 -29t40 -46t14.5 -61h-14q0 32 -14 56.5t-37.5 41.5t-55.5 25.5
t-67 8.5q-72 0 -121 -35t-49 -115q0 -68 46.5 -104.5t142.5 -58.5q107 -26 149.5 -73.5t42.5 -118.5q0 -47 -17.5 -81.5t-47 -56.5t-68 -32.5t-79.5 -10.5q-45 0 -84 10.5t-67 33t-44 59t-16 87.5zM129 742l139 83h4l139 -83l-6 -12l-135 81l-135 -81z" />
    <glyph glyph-name="scircumflex" unicode="&#x15d;" horiz-adv-x="432" 
d="M55 156h12q0 -69 39 -109t117 -40q25 0 49.5 6.5t44 20.5t31.5 35.5t12 52.5q0 48 -30 76t-105 44q-78 17 -114 43t-36 81q0 60 39 87t99 27t102 -30t42 -84h-12q0 46 -38 74t-94 28q-54 0 -90 -23.5t-36 -78.5q0 -52 34.5 -74t105.5 -38q82 -18 113.5 -49t31.5 -83
q0 -34 -13 -58t-34 -39.5t-48 -22.5t-54 -7q-84 0 -126 42.5t-42 118.5zM79 571l137 161h9l137 -161l-9 -10l-132 156l-133 -156z" />
    <glyph glyph-name="Scedilla" unicode="&#x15e;" horiz-adv-x="528" 
d="M50 185h14q0 -47 15 -80.5t41.5 -54.5t63 -31t77.5 -10q38 0 74 9.5t63.5 29.5t44 52t16.5 76q0 66 -41.5 109.5t-140.5 68.5q-103 24 -151 64.5t-48 112.5q0 86 52.5 125t131.5 39q39 0 73.5 -10t60 -29t40 -46t14.5 -61h-14q0 32 -14 56.5t-37.5 41.5t-55.5 25.5
t-67 8.5q-72 0 -121 -35t-49 -115q0 -68 46.5 -104.5t142.5 -58.5q107 -26 149.5 -73.5t42.5 -118.5q0 -47 -17.5 -81.5t-47 -56.5t-68 -32.5t-79.5 -10.5q-45 0 -84 10.5t-67 33t-44 59t-16 87.5zM229 -120h12q-1 -26 11 -39.5t37 -13.5q22 0 37.5 12.5t15.5 40.5
q0 37 -25.5 46.5t-61.5 1.5l-8 3l21 72l11 -3l-17 -60q38 7 65 -6.5t27 -53.5q0 -34 -19.5 -49.5t-45.5 -15.5q-31 0 -46 17t-14 48z" />
    <glyph glyph-name="scedilla" unicode="&#x15f;" horiz-adv-x="432" 
d="M55 156h12q0 -69 39 -109t117 -40q25 0 49.5 6.5t44 20.5t31.5 35.5t12 52.5q0 48 -30 76t-105 44q-78 17 -114 43t-36 81q0 60 39 87t99 27t102 -30t42 -84h-12q0 46 -38 74t-94 28q-54 0 -90 -23.5t-36 -78.5q0 -52 34.5 -74t105.5 -38q82 -18 113.5 -49t31.5 -83
q0 -34 -13 -58t-34 -39.5t-48 -22.5t-54 -7q-84 0 -126 42.5t-42 118.5zM179 -120h12q-1 -26 11 -39.5t37 -13.5q22 0 37.5 12.5t15.5 40.5q0 37 -25.5 46.5t-61.5 1.5l-8 3l21 72l11 -3l-17 -60q38 7 65 -6.5t27 -53.5q0 -34 -19.5 -49.5t-45.5 -15.5q-31 0 -46 17t-14 48z
" />
    <glyph glyph-name="Scaron" unicode="&#x160;" horiz-adv-x="528" 
d="M50 185h14q0 -47 15 -80.5t41.5 -54.5t63 -31t77.5 -10q38 0 74 9.5t63.5 29.5t44 52t16.5 76q0 66 -41.5 109.5t-140.5 68.5q-103 24 -151 64.5t-48 112.5q0 86 52.5 125t131.5 39q39 0 73.5 -10t60 -29t40 -46t14.5 -61h-14q0 32 -14 56.5t-37.5 41.5t-55.5 25.5
t-67 8.5q-72 0 -121 -35t-49 -115q0 -68 46.5 -104.5t142.5 -58.5q107 -26 149.5 -73.5t42.5 -118.5q0 -47 -17.5 -81.5t-47 -56.5t-68 -32.5t-79.5 -10.5q-45 0 -84 10.5t-67 33t-44 59t-16 87.5zM124 813l6 12l135 -81l135 81l6 -12l-139 -83h-4z" />
    <glyph glyph-name="scaron" unicode="&#x161;" horiz-adv-x="432" 
d="M55 156h12q0 -69 39 -109t117 -40q25 0 49.5 6.5t44 20.5t31.5 35.5t12 52.5q0 48 -30 76t-105 44q-78 17 -114 43t-36 81q0 60 39 87t99 27t102 -30t42 -84h-12q0 46 -38 74t-94 28q-54 0 -90 -23.5t-36 -78.5q0 -52 34.5 -74t105.5 -38q82 -18 113.5 -49t31.5 -83
q0 -34 -13 -58t-34 -39.5t-48 -22.5t-54 -7q-84 0 -126 42.5t-42 118.5zM74 722l9 10l132 -156l133 156l9 -10l-137 -161h-9z" />
    <glyph glyph-name="Tcedilla" unicode="&#x162;" horiz-adv-x="534" 
d="M274 0h-14v671h-260v14h534v-14h-260v-671zM224 -120h12q-1 -26 11 -39.5t37 -13.5q22 0 37.5 12.5t15.5 40.5q0 37 -25.5 46.5t-61.5 1.5l-8 3l21 72l11 -3l-17 -60q38 7 65 -6.5t27 -53.5q0 -34 -19.5 -49.5t-45.5 -15.5q-31 0 -46 17t-14 48z" />
    <glyph glyph-name="tcedilla" unicode="&#x163;" horiz-adv-x="325" 
d="M106 100v358h-96v12h96v130h12v-130h155v-12h-155v-358q0 -33 13 -63t64 -30q37 0 57.5 16.5t20.5 47.5h12q0 -39 -22.5 -57.5t-67.5 -18.5q-57 0 -73 32t-16 73zM146 -120h12q-1 -26 11 -39.5t37 -13.5q22 0 37.5 12.5t15.5 40.5q0 37 -25.5 46.5t-61.5 1.5l-8 3l21 72
l11 -3l-17 -60q38 7 65 -6.5t27 -53.5q0 -34 -19.5 -49.5t-45.5 -15.5q-31 0 -46 17t-14 48z" />
    <glyph glyph-name="Tcaron" unicode="&#x164;" horiz-adv-x="534" 
d="M274 0h-14v671h-260v14h534v-14h-260v-671zM126 813l6 12l135 -81l135 81l6 -12l-139 -83h-4z" />
    <glyph glyph-name="tcaron" unicode="&#x165;" horiz-adv-x="325" 
d="M257 532l75 178l11 -5l-75 -178zM106 100v358h-96v12h96v130h12v-130h155v-12h-155v-358q0 -33 13 -63t64 -30q37 0 57.5 16.5t20.5 47.5h12q0 -39 -22.5 -57.5t-67.5 -18.5q-57 0 -73 32t-16 73z" />
    <glyph glyph-name="Tbar" unicode="&#x166;" horiz-adv-x="534" 
d="M274 0h-14v347h-156v12h156v312h-260v14h534v-14h-260v-312h156v-12h-156v-347z" />
    <glyph glyph-name="tbar" unicode="&#x167;" horiz-adv-x="325" 
d="M106 100v148h-86v12h86v198h-96v12h96v130h12v-130h155v-12h-155v-198h138v-12h-138v-148q0 -33 13 -63t64 -30q37 0 57.5 16.5t20.5 47.5h12q0 -39 -22.5 -57.5t-67.5 -18.5q-57 0 -73 32t-16 73z" />
    <glyph glyph-name="Utilde" unicode="&#x168;" horiz-adv-x="640" 
d="M80 313v377h14v-377q0 -58 9.5 -113t34.5 -97t70 -68t115 -26q69 0 112.5 26t68 68t33.5 97t9 113v377h14v-377q0 -64 -10.5 -122t-37.5 -101.5t-73 -69t-116 -25.5q-72 0 -119.5 25.5t-74.5 69t-38 101.5t-11 122zM387 750q37 0 45.5 21.5t0.5 46.5l14 5
q11 -31 -2 -58.5t-59 -27.5q-25 0 -38 11.5t-23.5 24.5t-24 24.5t-38.5 11.5q-35 0 -44 -21.5t-2 -46.5l-14 -5q-10 31 3 58.5t59 27.5q28 0 43 -11.5t26 -24.5t22 -24.5t32 -11.5z" />
    <glyph glyph-name="utilde" unicode="&#x169;" horiz-adv-x="503" 
d="M401 0v139q-14 -63 -55.5 -103.5t-110.5 -40.5q-87 0 -118.5 52t-31.5 138v285h12v-283q0 -80 28 -130t112 -50q41 0 71.5 17t51 46t31 67t10.5 79v254h12v-470h-12zM127 590q-14 43 -1.5 77.5t56.5 34.5q31 0 46 -15.5t25 -33.5t21 -33.5t33 -15.5q38 0 46.5 30t-3.5 66
l12 4q14 -43 1.5 -77.5t-56.5 -34.5q-26 0 -39 15.5t-22.5 33.5t-22.5 33.5t-41 15.5q-38 0 -46.5 -30t3.5 -66z" />
    <glyph glyph-name="Umacron" unicode="&#x16a;" horiz-adv-x="640" 
d="M80 313v377h14v-377q0 -58 9.5 -113t34.5 -97t70 -68t115 -26q69 0 112.5 26t68 68t33.5 97t9 113v377h14v-377q0 -64 -10.5 -122t-37.5 -101.5t-73 -69t-116 -25.5q-72 0 -119.5 25.5t-74.5 69t-38 101.5t-11 122zM202 791h236v-12h-236v12z" />
    <glyph glyph-name="umacron" unicode="&#x16b;" horiz-adv-x="503" 
d="M401 0v139q-14 -63 -55.5 -103.5t-110.5 -40.5q-87 0 -118.5 52t-31.5 138v285h12v-283q0 -80 28 -130t112 -50q41 0 71.5 17t51 46t31 67t10.5 79v254h12v-470h-12zM132 685h236v-12h-236v12z" />
    <glyph glyph-name="Ubreve" unicode="&#x16c;" horiz-adv-x="640" 
d="M80 313v377h14v-377q0 -58 9.5 -113t34.5 -97t70 -68t115 -26q69 0 112.5 26t68 68t33.5 97t9 113v377h14v-377q0 -64 -10.5 -122t-37.5 -101.5t-73 -69t-116 -25.5q-72 0 -119.5 25.5t-74.5 69t-38 101.5t-11 122zM187 832h15q0 -10 6 -25t19.5 -29t36.5 -24t56 -10
t56 10t36.5 24t19.5 29t6 25h15q0 -11 -6 -28.5t-21 -33.5t-41 -28t-65 -12t-65 12t-41 28t-21 33.5t-6 28.5z" />
    <glyph glyph-name="ubreve" unicode="&#x16d;" horiz-adv-x="503" 
d="M401 0v139q-14 -63 -55.5 -103.5t-110.5 -40.5q-87 0 -118.5 52t-31.5 138v285h12v-283q0 -80 28 -130t112 -50q41 0 71.5 17t51 46t31 67t10.5 79v254h12v-470h-12zM259 594q-41 0 -66.5 16t-39.5 38t-18.5 44t-4.5 34h12q0 -11 4.5 -31.5t17 -40t35.5 -34t60 -14.5
t60.5 14.5t36 34t16.5 40t4 31.5h12q0 -12 -4.5 -34t-18.5 -44t-39.5 -38t-66.5 -16z" />
    <glyph glyph-name="Uring" unicode="&#x16e;" horiz-adv-x="640" 
d="M80 313v377h14v-377q0 -58 9.5 -113t34.5 -97t70 -68t115 -26q69 0 112.5 26t68 68t33.5 97t9 113v377h14v-377q0 -64 -10.5 -122t-37.5 -101.5t-73 -69t-116 -25.5q-72 0 -119.5 25.5t-74.5 69t-38 101.5t-11 122zM250 789q0 30 19.5 50.5t50.5 20.5t51 -20.5t20 -50.5
q0 -29 -20 -49.5t-51 -20.5t-50.5 20.5t-19.5 49.5zM377 789q0 24 -16 40.5t-41 16.5t-40.5 -16.5t-15.5 -40.5q0 -23 15.5 -39.5t40.5 -16.5t41 16.5t16 39.5z" />
    <glyph glyph-name="uring" unicode="&#x16f;" horiz-adv-x="503" 
d="M401 0v139q-14 -63 -55.5 -103.5t-110.5 -40.5q-87 0 -118.5 52t-31.5 138v285h12v-283q0 -80 28 -130t112 -50q41 0 71.5 17t51 46t31 67t10.5 79v254h12v-470h-12zM176 671q0 33 21.5 55.5t55.5 22.5q35 0 56.5 -22.5t21.5 -55.5q0 -32 -21.5 -54.5t-56.5 -22.5
q-34 0 -55.5 22.5t-21.5 54.5zM319 671q0 28 -18.5 47t-47.5 19q-28 0 -46.5 -19t-18.5 -47t18.5 -46.5t46.5 -18.5q29 0 47.5 18.5t18.5 46.5z" />
    <glyph glyph-name="Uhungarumlaut" unicode="&#x170;" horiz-adv-x="640" 
d="M80 313v377h14v-377q0 -58 9.5 -113t34.5 -97t70 -68t115 -26q69 0 112.5 26t68 68t33.5 97t9 113v377h14v-377q0 -64 -10.5 -122t-37.5 -101.5t-73 -69t-116 -25.5q-72 0 -119.5 25.5t-74.5 69t-38 101.5t-11 122zM260 727l99 67l8 -12l-99 -67zM370 727l99 67l8 -12
l-99 -67z" />
    <glyph glyph-name="uhungarumlaut" unicode="&#x171;" horiz-adv-x="503" 
d="M401 0v139q-14 -63 -55.5 -103.5t-110.5 -40.5q-87 0 -118.5 52t-31.5 138v285h12v-283q0 -80 28 -130t112 -50q41 0 71.5 17t51 46t31 67t10.5 79v254h12v-470h-12zM178 572l71 162l11 -5l-71 -162zM318 572l71 162l11 -5l-71 -162z" />
    <glyph glyph-name="Uogonek" unicode="&#x172;" horiz-adv-x="640" 
d="M80 313v377h14v-377q0 -58 9.5 -113t34.5 -97t70 -68t115 -26q69 0 112.5 26t68 68t33.5 97t9 113v377h14v-377q0 -64 -10.5 -122t-37.5 -101.5t-73 -69t-116 -25.5q-72 0 -119.5 25.5t-74.5 69t-38 101.5t-11 122zM394 -109q0 41 26 89t60 87l9 -7q-28 -32 -55.5 -78.5
t-27.5 -90.5q0 -33 13 -48.5t38 -15.5q24 0 35 16.5t11 41.5h12q0 -31 -14 -50.5t-44 -19.5t-46.5 18t-16.5 58z" />
    <glyph glyph-name="uogonek" unicode="&#x173;" horiz-adv-x="503" 
d="M302 -129q0 37 26 68.5t73 65.5v134q-14 -63 -55.5 -103.5t-110.5 -40.5q-87 0 -118.5 52t-31.5 138v285h12v-283q0 -80 28 -130t112 -50q41 0 71.5 17t51 46t31 67t10.5 79v254h12v-470q-13 -10 -30 -23t-32.5 -29t-26 -35.5t-10.5 -41.5q0 -16 9 -30t34 -14
q24 0 34 16.5t10 41.5h12q0 -31 -13 -50.5t-43 -19.5t-42.5 16.5t-12.5 39.5z" />
    <glyph glyph-name="Wcircumflex" unicode="&#x174;" horiz-adv-x="854" 
d="M15 690h15l176 -668l215 662h12l215 -664l176 670h15l-183 -695h-14l-215 664l-215 -664h-14zM286 742l139 83h4l139 -83l-6 -12l-135 81l-135 -81z" />
    <glyph glyph-name="wcircumflex" unicode="&#x175;" horiz-adv-x="702" 
d="M30 470h13l147 -449l155 391h12l155 -391l147 449h13l-153 -470h-12l-156 395l-156 -395h-12zM209 571l137 161h9l137 -161l-9 -10l-132 156l-133 -156z" />
    <glyph glyph-name="Ycircumflex" unicode="&#x176;" horiz-adv-x="506" 
d="M501 690l-241 -386v-304h-14v304l-241 386h17l231 -370l231 370h17zM112 742l139 83h4l139 -83l-6 -12l-135 81l-135 -81z" />
    <glyph glyph-name="ycircumflex" unicode="&#x177;" horiz-adv-x="434" 
d="M25 -194h12q0 -18 11.5 -31t39.5 -13t44.5 19.5t27.5 50.5l61 165l-190 473h14l183 -455l6 16l162 439h13l-237 -642q-13 -37 -33 -57.5t-52 -20.5q-37 0 -49.5 17t-12.5 39zM83 571l137 161h9l137 -161l-9 -10l-132 156l-133 -156z" />
    <glyph glyph-name="Ydieresis" unicode="&#x178;" horiz-adv-x="506" 
d="M501 690l-241 -386v-304h-14v304l-241 386h17l231 -370l231 370h17zM155 778q0 7 5 12.5t14 5.5q8 0 13 -5.5t5 -12.5t-5 -13t-13 -6q-9 0 -14 6t-5 13zM315 778q0 7 5 12.5t14 5.5q8 0 13 -5.5t5 -12.5t-5 -13t-13 -6q-9 0 -14 6t-5 13z" />
    <glyph glyph-name="Zacute" unicode="&#x179;" horiz-adv-x="528" 
d="M45 17l406 654h-395v14h414v-11l-406 -654h419v-14h-438v11zM200 739l169 83l6 -12l-169 -83z" />
    <glyph glyph-name="zacute" unicode="&#x17a;" horiz-adv-x="404" 
d="M40 10l304 448h-278v12h295v-10l-304 -448h307v-12h-324v10zM157 571l137 161l9 -10l-137 -161z" />
    <glyph glyph-name="Zdotaccent" unicode="&#x17b;" horiz-adv-x="528" 
d="M45 17l406 654h-395v14h414v-11l-406 -654h419v-14h-438v11zM246 778q0 7 5 12.5t14 5.5q8 0 13 -5.5t5 -12.5t-5 -13t-13 -6q-9 0 -14 6t-5 13z" />
    <glyph glyph-name="zdotaccent" unicode="&#x17c;" horiz-adv-x="404" 
d="M40 10l304 448h-278v12h295v-10l-304 -448h307v-12h-324v10zM212 643q-9 0 -14 6t-5 13t5 12.5t14 5.5q8 0 13 -5.5t5 -12.5t-5 -13t-13 -6z" />
    <glyph glyph-name="Zcaron" unicode="&#x17d;" horiz-adv-x="528" 
d="M45 17l406 654h-395v14h414v-11l-406 -654h419v-14h-438v11zM123 813l6 12l135 -81l135 81l6 -12l-139 -83h-4z" />
    <glyph glyph-name="zcaron" unicode="&#x17e;" horiz-adv-x="404" 
d="M40 10l304 448h-278v12h295v-10l-304 -448h307v-12h-324v10zM77 722l9 10l132 -156l133 156l9 -10l-137 -161h-9z" />
    <glyph glyph-name="Schwa" unicode="&#x18f;" horiz-adv-x="700" 
d="M622 349q0 -88 -23.5 -155t-63 -111t-92.5 -66.5t-112 -22.5q-75 0 -119 25.5t-67 61t-29.5 74t-6.5 63.5q0 13 1 22.5t2 13.5h488q4 22 6 46t2 49v11q-1 82 -23 142.5t-58.5 100t-85 59t-102.5 19.5q-50 0 -88 -13t-65 -32.5t-44 -42.5t-26 -44l-14 6q10 25 30 50
t49.5 45t69 32.5t88.5 12.5q57 0 108.5 -20.5t90 -63t61.5 -108t23 -154.5zM331 8q46 0 89 15t78 44t60.5 72.5t38.5 100.5h-473q-1 -14 1 -52t20.5 -78t61.5 -71t124 -31z" />
    <glyph glyph-name="florin" unicode="&#x192;" 
d="M293 481q6 38 15 73.5t23.5 62t37.5 42.5t58 16q31 0 51.5 -10.5t25.5 -15.5l-9 -11q-6 5 -23 14t-45 9q-32 0 -53 -15.5t-34 -41t-20 -58.5t-13 -67l-12 -71h124v-14h-126l-53 -320q-6 -38 -15 -73.5t-23.5 -62t-37.5 -42.5t-58 -16q-33 0 -54 10t-26 15l8 12
q6 -4 25 -13.5t47 -9.5q32 0 53 15.5t34 41t20 58.5t13 67l53 318h-105v14h107z" />
    <glyph glyph-name="Aringacute" unicode="&#x1fa;" horiz-adv-x="585" 
d="M46 0h-16l256 692h14l255 -692h-16l-91 246h-311zM142 260h301l-150 409zM222 749q0 30 19.5 50.5t50.5 20.5t51 -20.5t20 -50.5q0 -29 -20 -49.5t-51 -20.5t-50.5 20.5t-19.5 49.5zM349 749q0 24 -16 40.5t-41 16.5t-40.5 -16.5t-15.5 -40.5q0 -23 15.5 -39.5
t40.5 -16.5t41 16.5t16 39.5zM219 831l169 83l6 -12l-169 -83z" />
    <glyph glyph-name="aringacute" unicode="&#x1fb;" horiz-adv-x="463" 
d="M55 103q0 57 41 94t128 37q31 0 62.5 -5t53.5 -12v120q0 56 -30.5 93.5t-101.5 37.5q-70 0 -100 -37.5t-30 -91.5h-12q0 59 33.5 100t108.5 41q78 0 111 -40.5t33 -102.5v-247q0 -43 10.5 -63.5t38.5 -20.5q19 0 29.5 12.5t10.5 30.5h12q0 -16 -11 -35t-42 -19
q-32 0 -46 20.5t-14 74.5v42q-8 -26 -22 -51t-34 -44t-47 -30.5t-60 -11.5q-54 0 -88 27.5t-34 80.5zM67 103q0 -47 31.5 -71.5t78.5 -24.5q41 0 72 18.5t51 47t30 62.5t10 65v5q-22 7 -55 12t-61 5q-78 0 -117.5 -33t-39.5 -86zM137 606q0 33 21.5 55.5t55.5 22.5
q35 0 56.5 -22.5t21.5 -55.5q0 -32 -21.5 -54.5t-56.5 -22.5q-34 0 -55.5 22.5t-21.5 54.5zM280 606q0 28 -18.5 47t-47.5 19q-28 0 -46.5 -19t-18.5 -47t18.5 -46.5t46.5 -18.5q29 0 47.5 18.5t18.5 46.5zM157 742l169 83l6 -12l-169 -83z" />
    <glyph glyph-name="AEacute" unicode="&#x1fc;" horiz-adv-x="798" 
d="M698 326h-264v-307h324v-14h-338v321h-204l-197 -326h-19l416 685h342v-14h-324v-331h264v-14zM225 340h195v323zM504 742l169 83l6 -12l-169 -83z" />
    <glyph glyph-name="aeacute" unicode="&#x1fd;" horiz-adv-x="755" 
d="M700 156q0 -72 -45.5 -116.5t-124.5 -44.5q-68 0 -118.5 41t-63.5 128q-4 -31 -17.5 -61.5t-35 -54.5t-51.5 -38.5t-67 -14.5q-54 0 -88 27.5t-34 80.5q0 57 41 94t128 37q31 0 62.5 -5t53.5 -12v120q0 56 -30.5 93.5t-101.5 37.5q-70 0 -100 -37.5t-30 -91.5h-12
q0 59 33.5 100t108.5 41q78 0 110 -40.5t32 -102.5v-33q16 79 63 127.5t119 48.5q46 0 75 -14.5t44 -36t20.5 -46t5.5 -44.5q0 -14 -1.5 -24.5t-2.5 -14.5h-314q-3 -15 -5 -31t-2 -32v-10q0 -56 14 -97.5t38 -68.5t56.5 -40.5t69.5 -13.5q75 0 116.5 42.5t41.5 106.5h12z
M532 468q-65 0 -109.5 -43.5t-61.5 -112.5h303q0 1 0.5 7t0.5 17q0 16 -4.5 39t-18.5 43.5t-40 35t-70 14.5zM177 7q41 0 72 18t51 45.5t30 62t10 67.5v5q-22 7 -55 12t-61 5q-78 0 -117.5 -33t-39.5 -86q0 -47 31.5 -71.5t78.5 -24.5zM423 571l137 161l9 -10l-137 -161z
" />
    <glyph glyph-name="Oslashacute" unicode="&#x1fe;" horiz-adv-x="700" 
d="M55 344q0 83 23.5 148.5t63.5 110.5t94 68.5t116 23.5q54 0 109 -21.5t98 -67.5l69 84h18l-78 -94q34 -41 55.5 -101.5t21.5 -141.5q0 -84 -23 -151t-62.5 -112.5t-93 -69.5t-114.5 -24q-55 0 -110 21.5t-98 67.5l-71 -85h-18l79 95q-35 43 -57 104.5t-22 144.5zM69 344
q0 -78 20.5 -137.5t54.5 -99.5l405 488q-40 44 -92.5 65t-104.5 21q-59 0 -111 -23t-90 -66.5t-60 -106t-22 -141.5zM631 353q0 76 -20 133.5t-53 97.5l-405 -488q41 -44 93.5 -65t105.5 -21q59 0 110 23.5t88.5 67.5t59 108t21.5 144zM271 742l169 83l6 -12l-169 -83z" />
    <glyph glyph-name="oslashacute" unicode="&#x1ff;" horiz-adv-x="488" 
d="M55 238q0 119 53.5 180.5t135.5 61.5q40 0 75 -15t60 -45l38 50h16l-46 -60q22 -31 34 -74t12 -98q0 -119 -53.5 -181t-135.5 -62q-40 0 -73.5 15t-58.5 43l-41 -53h-16l48 63q-22 31 -35 74.5t-13 100.5zM67 238q0 -52 11.5 -94t32.5 -71l260 337q-24 28 -56 43t-71 15
q-78 0 -127.5 -59.5t-49.5 -170.5zM421 238q0 51 -11.5 92t-30.5 69l-259 -336q23 -28 55 -42t69 -14q78 0 127.5 60t49.5 171zM187 571l137 161l9 -10l-137 -161z" />
    <glyph glyph-name="Scommaaccent" unicode="&#x218;" horiz-adv-x="528" 
d="M50 185h14q0 -47 15 -80.5t41.5 -54.5t63 -31t77.5 -10q38 0 74 9.5t63.5 29.5t44 52t16.5 76q0 66 -41.5 109.5t-140.5 68.5q-103 24 -151 64.5t-48 112.5q0 86 52.5 125t131.5 39q39 0 73.5 -10t60 -29t40 -46t14.5 -61h-14q0 32 -14 56.5t-37.5 41.5t-55.5 25.5
t-67 8.5q-72 0 -121 -35t-49 -115q0 -68 46.5 -104.5t142.5 -58.5q107 -26 149.5 -73.5t42.5 -118.5q0 -47 -17.5 -81.5t-47 -56.5t-68 -32.5t-79.5 -10.5q-45 0 -84 10.5t-67 33t-44 59t-16 87.5zM216 -201l62 148l11 -5l-62 -148z" />
    <glyph glyph-name="scommaaccent" unicode="&#x219;" horiz-adv-x="432" 
d="M55 156h12q0 -69 39 -109t117 -40q25 0 49.5 6.5t44 20.5t31.5 35.5t12 52.5q0 48 -30 76t-105 44q-78 17 -114 43t-36 81q0 60 39 87t99 27t102 -30t42 -84h-12q0 46 -38 74t-94 28q-54 0 -90 -23.5t-36 -78.5q0 -52 34.5 -74t105.5 -38q82 -18 113.5 -49t31.5 -83
q0 -34 -13 -58t-34 -39.5t-48 -22.5t-54 -7q-84 0 -126 42.5t-42 118.5zM162 -201l62 148l11 -5l-62 -148z" />
    <glyph glyph-name="Tcommaaccent" unicode="&#x21a;" horiz-adv-x="534" 
d="M274 0h-14v671h-260v14h534v-14h-260v-671zM202 -201l62 148l11 -5l-62 -148z" />
    <glyph glyph-name="tcommaaccent" unicode="&#x21b;" horiz-adv-x="325" 
d="M106 100v358h-96v12h96v130h12v-130h155v-12h-155v-358q0 -33 13 -63t64 -30q37 0 57.5 16.5t20.5 47.5h12q0 -39 -22.5 -57.5t-67.5 -18.5q-57 0 -73 32t-16 73zM130 -201l62 148l11 -5l-62 -148z" />
    <glyph glyph-name="dotlessj" unicode="&#x237;" horiz-adv-x="242" 
d="M-10 -174h12q0 -31 14 -47.5t45 -16.5q37 0 51.5 35.5t14.5 107.5v565h12v-568q0 -80 -18.5 -116t-60.5 -36q-36 0 -53 18.5t-17 57.5z" />
    <glyph glyph-name="schwa" unicode="&#x259;" horiz-adv-x="470" 
d="M415 248q0 -55 -13.5 -102t-38.5 -80t-60.5 -52t-79.5 -19q-46 0 -75 14.5t-44 36t-20.5 46t-5.5 44.5q0 14 1.5 24.5t2.5 14.5h314q3 15 5 31t2 32v10q0 56 -14 97.5t-38 68.5t-56.5 40.5t-69.5 13.5q-75 0 -116.5 -42.5t-41.5 -106.5h-12q0 72 45.5 116.5t124.5 44.5
q40 0 74.5 -14t60 -42t40.5 -72t15 -104zM223 7q65 0 109.5 43.5t61.5 112.5h-303q0 -1 -0.5 -7t-0.5 -17q0 -16 4.5 -39t18.5 -43.5t40 -35t70 -14.5z" />
    <glyph glyph-name="circumflex" unicode="&#x2c6;" horiz-adv-x="500" 
d="M109 571l137 161h9l137 -161l-9 -10l-132 156l-133 -156z" />
    <glyph glyph-name="caron" unicode="&#x2c7;" horiz-adv-x="500" 
d="M127 722l9 10l132 -156l133 156l9 -10l-137 -161h-9z" />
    <glyph glyph-name="breve" unicode="&#x2d8;" horiz-adv-x="500" 
d="M250 594q-41 0 -66.5 16t-39.5 38t-18.5 44t-4.5 34h12q0 -11 4.5 -31.5t17 -40t35.5 -34t60 -14.5t60.5 14.5t36 34t16.5 40t4 31.5h12q0 -12 -4.5 -34t-18.5 -44t-39.5 -38t-66.5 -16z" />
    <glyph glyph-name="dotaccent" unicode="&#x2d9;" horiz-adv-x="500" 
d="M250 643q-9 0 -14 6t-5 13t5 12.5t14 5.5q8 0 13 -5.5t5 -12.5t-5 -13t-13 -6z" />
    <glyph glyph-name="ring" unicode="&#x2da;" horiz-adv-x="500" 
d="M172 671q0 33 21.5 55.5t55.5 22.5q35 0 56.5 -22.5t21.5 -55.5q0 -32 -21.5 -54.5t-56.5 -22.5q-34 0 -55.5 22.5t-21.5 54.5zM315 671q0 28 -18.5 47t-47.5 19q-28 0 -46.5 -19t-18.5 -47t18.5 -46.5t46.5 -18.5q29 0 47.5 18.5t18.5 46.5z" />
    <glyph glyph-name="ogonek" unicode="&#x2db;" horiz-adv-x="500" 
d="M294 -109q0 41 26 89t60 87l9 -7q-28 -32 -55.5 -78.5t-27.5 -90.5q0 -33 13 -48.5t38 -15.5q24 0 35 16.5t11 41.5h12q0 -31 -14 -50.5t-44 -19.5t-46.5 18t-16.5 58z" />
    <glyph glyph-name="tilde" unicode="&#x2dc;" horiz-adv-x="500" 
d="M133 590q-14 43 -1.5 77.5t56.5 34.5q31 0 46 -15.5t25 -33.5t21 -33.5t33 -15.5q38 0 46.5 30t-3.5 66l12 4q14 -43 1.5 -77.5t-56.5 -34.5q-26 0 -39 15.5t-22.5 33.5t-22.5 33.5t-41 15.5q-38 0 -46.5 -30t3.5 -66z" />
    <glyph glyph-name="hungarumlaut" unicode="&#x2dd;" horiz-adv-x="500" 
d="M139 572l71 162l11 -5l-71 -162zM279 572l71 162l11 -5l-71 -162z" />
    <glyph glyph-name="pi" unicode="&#x3c0;" horiz-adv-x="593" 
d="M404 100v358h-242v-458h-12v458h-140v12h543v-12h-137v-358q0 -33 10 -63t54 -30q26 0 40.5 14t14.5 45h12q0 -39 -19 -55t-48 -16q-50 0 -63 32t-13 73z" />
    <glyph glyph-name="Wgrave" unicode="&#x1e80;" horiz-adv-x="854" 
d="M15 690h15l176 -668l215 662h12l215 -664l176 670h15l-183 -695h-14l-215 664l-215 -664h-14zM304 813l6 12l169 -83l-6 -12z" />
    <glyph glyph-name="wgrave" unicode="&#x1e81;" horiz-adv-x="702" 
d="M30 470h13l147 -449l155 391h12l155 -391l147 449h13l-153 -470h-12l-156 395l-156 -395h-12zM267 722l9 10l137 -161l-9 -10z" />
    <glyph glyph-name="Wacute" unicode="&#x1e82;" horiz-adv-x="854" 
d="M15 690h15l176 -668l215 662h12l215 -664l176 670h15l-183 -695h-14l-215 664l-215 -664h-14zM369 742l169 83l6 -12l-169 -83z" />
    <glyph glyph-name="wacute" unicode="&#x1e83;" horiz-adv-x="702" 
d="M30 470h13l147 -449l155 391h12l155 -391l147 449h13l-153 -470h-12l-156 395l-156 -395h-12zM317 571l137 161l9 -10l-137 -161z" />
    <glyph glyph-name="Wdieresis" unicode="&#x1e84;" horiz-adv-x="854" 
d="M15 690h15l176 -668l215 662h12l215 -664l176 670h15l-183 -695h-14l-215 664l-215 -664h-14zM329 778q0 7 5 12.5t14 5.5q8 0 13 -5.5t5 -12.5t-5 -13t-13 -6q-9 0 -14 6t-5 13zM489 778q0 7 5 12.5t14 5.5q8 0 13 -5.5t5 -12.5t-5 -13t-13 -6q-9 0 -14 6t-5 13z" />
    <glyph glyph-name="wdieresis" unicode="&#x1e85;" horiz-adv-x="702" 
d="M30 470h13l147 -449l155 391h12l155 -391l147 449h13l-153 -470h-12l-156 395l-156 -395h-12zM252 662q0 7 5 12.5t14 5.5q8 0 13 -5.5t5 -12.5t-5 -13t-13 -6q-9 0 -14 6t-5 13zM412 662q0 7 5 12.5t14 5.5q8 0 13 -5.5t5 -12.5t-5 -13t-13 -6q-9 0 -14 6t-5 13z" />
    <glyph glyph-name="Ygrave" unicode="&#x1ef2;" horiz-adv-x="506" 
d="M501 690l-241 -386v-304h-14v304l-241 386h17l231 -370l231 370h17zM162 813l6 12l169 -83l-6 -12z" />
    <glyph glyph-name="ygrave" unicode="&#x1ef3;" horiz-adv-x="434" 
d="M25 -194h12q0 -18 11.5 -31t39.5 -13t44.5 19.5t27.5 50.5l61 165l-190 473h14l183 -455l6 16l162 439h13l-237 -642q-13 -37 -33 -57.5t-52 -20.5q-37 0 -49.5 17t-12.5 39zM125 722l9 10l137 -161l-9 -10z" />
    <glyph glyph-name="endash" unicode="&#x2013;" horiz-adv-x="501" 
d="M30 308h440v-12h-440v12z" />
    <glyph glyph-name="emdash" unicode="&#x2014;" horiz-adv-x="1000" 
d="M30 308h940v-12h-940v12z" />
    <glyph glyph-name="quoteleft" unicode="&#x2018;" horiz-adv-x="131" 
d="M101 702q-4 -4 -12.5 -17t-17 -30.5t-16.5 -39.5t-10 -44q8 0 14.5 -4.5t6.5 -13.5q0 -8 -5 -13t-12 -5q-9 0 -14 6t-5 15q0 24 7.5 48.5t18 46t20.5 37.5t16 22z" />
    <glyph glyph-name="quoteright" unicode="&#x2019;" horiz-adv-x="131" 
d="M30 543q4 4 12.5 17t17 30.5t16.5 39.5t10 44q-8 0 -14.5 4.5t-6.5 13.5q0 8 5 13t12 5q9 0 14 -6t5 -15q0 -24 -7.5 -48.5t-18 -46t-20.5 -37.5t-16 -22z" />
    <glyph glyph-name="quotesinglbase" unicode="&#x201a;" horiz-adv-x="131" 
d="M42 -135q4 4 12.5 17t17 30.5t16.5 39.5t10 44q-8 0 -14.5 4.5t-6.5 13.5q0 8 5 13t12 5q9 0 14 -6t5 -15q0 -24 -7.5 -48.5t-18 -46t-20.5 -37.5t-16 -22z" />
    <glyph glyph-name="quotedblleft" unicode="&#x201c;" horiz-adv-x="261" 
d="M101 702q-4 -4 -12.5 -17t-17 -30.5t-16.5 -39.5t-10 -44q8 0 14.5 -4.5t6.5 -13.5q0 -8 -5 -13t-12 -5q-9 0 -14 6t-5 15q0 24 7.5 48.5t18 46t20.5 37.5t16 22zM231 702q-4 -4 -12.5 -17t-17 -30.5t-16.5 -39.5t-10 -44q8 0 14.5 -4.5t6.5 -13.5q0 -8 -5 -13t-12 -5
q-9 0 -14 6t-5 15q0 24 7.5 48.5t18 46t20.5 37.5t16 22z" />
    <glyph glyph-name="quotedblright" unicode="&#x201d;" horiz-adv-x="261" 
d="M30 543q4 4 12.5 17t17 30.5t16.5 39.5t10 44q-8 0 -14.5 4.5t-6.5 13.5q0 8 5 13t12 5q9 0 14 -6t5 -15q0 -24 -7.5 -48.5t-18 -46t-20.5 -37.5t-16 -22zM160 543q4 4 12.5 17t17 30.5t16.5 39.5t10 44q-8 0 -14.5 4.5t-6.5 13.5q0 8 5 13t12 5q9 0 14 -6t5 -15
q0 -24 -7.5 -48.5t-18 -46t-20.5 -37.5t-16 -22z" />
    <glyph glyph-name="quotedblbase" unicode="&#x201e;" horiz-adv-x="261" 
d="M42 -135q4 4 12.5 17t17 30.5t16.5 39.5t10 44q-8 0 -14.5 4.5t-6.5 13.5q0 8 5 13t12 5q9 0 14 -6t5 -15q0 -24 -7.5 -48.5t-18 -46t-20.5 -37.5t-16 -22zM172 -135q4 4 12.5 17t17 30.5t16.5 39.5t10 44q-8 0 -14.5 4.5t-6.5 13.5q0 8 5 13t12 5q9 0 14 -6t5 -15
q0 -24 -7.5 -48.5t-18 -46t-20.5 -37.5t-16 -22z" />
    <glyph glyph-name="dagger" unicode="&#x2020;" horiz-adv-x="454" 
d="M220 -4v467h-170v14h170v214h14v-214h170v-14h-170v-467h-14z" />
    <glyph glyph-name="daggerdbl" unicode="&#x2021;" horiz-adv-x="454" 
d="M220 -4v210h-170v14h170v247h-170v14h170v210h14v-210h170v-14h-170v-247h170v-14h-170v-210h-14z" />
    <glyph glyph-name="bullet" unicode="&#x2022;" horiz-adv-x="370" 
d="M185 260q-43 0 -74 29t-31 76t31 76t74 29t74 -29t31 -76t-31 -76t-74 -29z" />
    <glyph glyph-name="ellipsis" unicode="&#x2026;" horiz-adv-x="497" 
d="M80 14q0 7 5 12.5t14 5.5q8 0 13 -5.5t5 -12.5t-5 -13t-13 -6q-9 0 -14 6t-5 13zM230 14q0 7 5 12.5t14 5.5q8 0 13 -5.5t5 -12.5t-5 -13t-13 -6q-9 0 -14 6t-5 13zM380 14q0 7 5 12.5t14 5.5q8 0 13 -5.5t5 -12.5t-5 -13t-13 -6q-9 0 -14 6t-5 13z" />
    <glyph glyph-name="perthousand" unicode="&#x2030;" horiz-adv-x="800" 
d="M435 665h15l-335 -665h-16zM116 470q-40 0 -68 28t-28 67q0 40 28 67.5t68 27.5q39 0 67 -27.5t28 -67.5q0 -39 -28 -67t-67 -28zM116 484q33 0 57 24t24 57q0 34 -24 57.5t-57 23.5q-34 0 -58 -23.5t-24 -57.5q0 -33 24 -57t58 -24zM435 -5q-40 0 -68 28t-28 67
q0 40 28 67.5t68 27.5q39 0 67 -27.5t28 -67.5q0 -39 -28 -67t-67 -28zM685 -5q-40 0 -68 28t-28 67q0 40 28 67.5t68 27.5q39 0 67 -27.5t28 -67.5q0 -39 -28 -67t-67 -28zM435 9q33 0 57 24t24 57q0 34 -24 57.5t-57 23.5q-34 0 -58 -23.5t-24 -57.5q0 -33 24 -57t58 -24z
M685 9q33 0 57 24t24 57q0 34 -24 57.5t-57 23.5q-34 0 -58 -23.5t-24 -57.5q0 -33 24 -57t58 -24z" />
    <glyph glyph-name="guilsinglleft" unicode="&#x2039;" horiz-adv-x="244" 
d="M184 91l-9 -7l-115 162v6l115 162l9 -7l-112 -158z" />
    <glyph glyph-name="guilsinglright" unicode="&#x203a;" horiz-adv-x="244" 
d="M184 246l-115 -162l-9 7l112 158l-112 158l9 7l115 -162v-6z" />
    <glyph glyph-name="fraction" unicode="&#x2044;" horiz-adv-x="413" 
d="M364 665h15l-335 -665h-16z" />
    <glyph glyph-name="zerosuperior" unicode="&#x2070;" horiz-adv-x="345" 
d="M174 405q-26 0 -51.5 11t-45.5 35t-32 63t-12 94q0 101 40 153t101 52q26 0 51 -11t44 -34.5t31 -61.5t12 -92q0 -102 -39 -155.5t-99 -53.5zM174 417q57 0 91.5 51.5t34.5 145.5q0 100 -38.5 143.5t-87.5 43.5q-57 0 -93 -50t-36 -143q0 -102 39.5 -146.5t89.5 -44.5z
" />
    <glyph glyph-name="i.superior" unicode="&#x2071;" horiz-adv-x="141" 
d="M71 791q-5 0 -9 3.5t-4 8.5t4 9t9 4t9 -4t4 -9t-4 -8.5t-9 -3.5zM64 689h12v-281h-12v281z" />
    <glyph glyph-name="foursuperior" unicode="&#x2074;" horiz-adv-x="344" 
d="M327 541h-88v-133h-12v133h-197v9l199 261h10v-258h88v-12zM47 553h180v236z" />
    <glyph glyph-name="fivesuperior" unicode="&#x2075;" horiz-adv-x="344" 
d="M304 543q0 -60 -34.5 -99t-94.5 -39t-93 29t-26 80h12q-6 -43 21.5 -70t85.5 -27q56 0 86.5 36t30.5 90q0 50 -29.5 81t-82.5 31q-27 0 -47.5 -7t-33.5 -16t-19.5 -16l-6.5 -7h-9v198h213v-12h-201v-170q8 10 33 26t70 16q60 0 92.5 -34.5t32.5 -89.5z" />
    <glyph glyph-name="sixsuperior" unicode="&#x2076;" horiz-adv-x="344" 
d="M183 813q38 0 60.5 -10.5t34 -26t15 -32t3.5 -28.5h-12q0 10 -3 24.5t-13 28t-30 23t-54 9.5q-72 0 -102.5 -56t-30.5 -143q0 -18 1 -32t3 -28q4 57 41.5 84.5t89.5 27.5q46 0 82.5 -28.5t36.5 -94.5q0 -60 -37.5 -93t-88.5 -33q-71 0 -105.5 49t-34.5 147q0 93 33 152.5
t111 59.5zM185 642q-63 0 -91.5 -34.5t-28.5 -80.5t29.5 -78t84.5 -32q47 0 80.5 30t33.5 84q0 60 -33.5 85.5t-74.5 25.5z" />
    <glyph glyph-name="sevensuperior" unicode="&#x2077;" horiz-adv-x="319" 
d="M289 807v-8q-93 -118 -136.5 -218t-44.5 -173h-12q0 74 43 173.5t132 213.5h-228v12h246z" />
    <glyph glyph-name="eightsuperior" unicode="&#x2078;" horiz-adv-x="344" 
d="M172 405q-57 0 -94 27.5t-37 84.5q0 47 29 72t67 31q-39 7 -61.5 32t-22.5 64q0 46 31.5 71.5t87.5 25.5q55 0 87.5 -25.5t32.5 -71.5q0 -39 -22.5 -64.5t-62.5 -31.5q38 -6 67.5 -31t29.5 -72q0 -57 -37.5 -84.5t-94.5 -27.5zM172 626q44 0 76 21.5t32 67.5
q0 41 -29.5 63.5t-78.5 22.5t-78 -22.5t-29 -63.5q0 -46 32 -67.5t75 -21.5zM172 417q49 0 84.5 23.5t35.5 77.5q0 50 -37.5 73t-82.5 23t-82 -23.5t-37 -72.5q0 -54 35 -77.5t84 -23.5z" />
    <glyph glyph-name="ninesuperior" unicode="&#x2079;" horiz-adv-x="344" 
d="M167 405q-38 0 -60.5 10.5t-34 26t-15 32t-3.5 28.5h12q0 -10 3 -24.5t13 -28t30 -23t54 -9.5q72 0 102.5 56t30.5 143q0 18 -1 32t-3 28q-4 -57 -41.5 -84.5t-89.5 -27.5q-46 0 -82.5 28.5t-36.5 94.5q0 60 37.5 93t88.5 33q71 0 105.5 -49t34.5 -147q0 -93 -33 -152.5
t-111 -59.5zM165 576q63 0 91.5 34.5t28.5 80.5t-29.5 78t-84.5 32q-47 0 -80.5 -30t-33.5 -84q0 -60 33.5 -85.5t74.5 -25.5z" />
    <glyph glyph-name="n.superior" unicode="&#x207f;" horiz-adv-x="323" 
d="M270 408h-12v172q0 47 -18 75t-69 28t-77 -36.5t-26 -87.5v-151h-12v281h12v-75q10 36 35.5 58.5t68.5 22.5q55 0 76.5 -31t21.5 -83v-173z" />
    <glyph glyph-name="zeroinferior" unicode="&#x2080;" horiz-adv-x="345" 
d="M174 -103q-26 0 -51.5 11t-45.5 35t-32 63t-12 94q0 101 40 153t101 52q26 0 51 -11t44 -34.5t31 -61.5t12 -92q0 -102 -39 -155.5t-99 -53.5zM174 -91q57 0 91.5 51.5t34.5 145.5q0 100 -38.5 143.5t-87.5 43.5q-57 0 -93 -50t-36 -143q0 -102 39.5 -146.5t89.5 -44.5z
" />
    <glyph glyph-name="oneinferior" unicode="&#x2081;" horiz-adv-x="233" 
d="M162 303h9v-403h-12v386l-124 -89l-7 10z" />
    <glyph glyph-name="twoinferior" unicode="&#x2082;" horiz-adv-x="344" 
d="M307 -97h-253v8q51 47 93 84t72 69t46.5 63t16.5 66q0 43 -27 71t-78 28q-32 0 -55.5 -12t-36 -31t-14 -43.5t9.5 -50.5h-12q-12 27 -9.5 54t17 48t40.5 34t61 13q57 0 86.5 -31t29.5 -80q0 -35 -15.5 -66t-44 -63t-69 -68t-89.5 -81h231v-12z" />
    <glyph glyph-name="threeinferior" unicode="&#x2083;" horiz-adv-x="344" 
d="M293 10q0 -53 -35 -83t-92 -30q-69 0 -98 31.5t-24 82.5h12q-5 -46 21 -74t89 -28q52 0 83.5 26t31.5 75t-35 70t-89 21h-48v12h46q44 0 78.5 22t34.5 67q0 44 -26.5 67.5t-73.5 23.5q-60 0 -85 -27.5t-18 -75.5h-12q-7 49 20.5 82t94.5 33q53 0 82.5 -27.5t29.5 -75.5
q0 -40 -25.5 -63.5t-62.5 -30.5q46 -6 73.5 -29.5t27.5 -68.5z" />
    <glyph glyph-name="fourinferior" unicode="&#x2084;" horiz-adv-x="344" 
d="M327 33h-88v-133h-12v133h-197v9l199 261h10v-258h88v-12zM47 45h180v236z" />
    <glyph glyph-name="fiveinferior" unicode="&#x2085;" horiz-adv-x="344" 
d="M304 35q0 -60 -34.5 -99t-94.5 -39t-93 29t-26 80h12q-6 -43 21.5 -70t85.5 -27q56 0 86.5 36t30.5 90q0 50 -29.5 81t-82.5 31q-27 0 -47.5 -7t-33.5 -16t-19.5 -16l-6.5 -7h-9v198h213v-12h-201v-170q8 10 33 26t70 16q60 0 92.5 -34.5t32.5 -89.5z" />
    <glyph glyph-name="sixinferior" unicode="&#x2086;" horiz-adv-x="344" 
d="M183 305q38 0 60.5 -10.5t34 -26t15 -32t3.5 -28.5h-12q0 10 -3 24.5t-13 28t-30 23t-54 9.5q-72 0 -102.5 -56t-30.5 -143q0 -18 1 -32t3 -28q4 57 41.5 84.5t89.5 27.5q46 0 82.5 -28.5t36.5 -94.5q0 -60 -37.5 -93t-88.5 -33q-71 0 -105.5 49t-34.5 147q0 93 33 152.5
t111 59.5zM185 134q-63 0 -91.5 -34.5t-28.5 -80.5t29.5 -78t84.5 -32q47 0 80.5 30t33.5 84q0 60 -33.5 85.5t-74.5 25.5z" />
    <glyph glyph-name="seveninferior" unicode="&#x2087;" horiz-adv-x="319" 
d="M289 299v-8q-93 -118 -136.5 -218t-44.5 -173h-12q0 74 43 173.5t132 213.5h-228v12h246z" />
    <glyph glyph-name="eightinferior" unicode="&#x2088;" horiz-adv-x="344" 
d="M172 -103q-57 0 -94 27.5t-37 84.5q0 47 29 72t67 31q-39 7 -61.5 32t-22.5 64q0 46 31.5 71.5t87.5 25.5q55 0 87.5 -25.5t32.5 -71.5q0 -39 -22.5 -64.5t-62.5 -31.5q38 -6 67.5 -31t29.5 -72q0 -57 -37.5 -84.5t-94.5 -27.5zM172 118q44 0 76 21.5t32 67.5
q0 41 -29.5 63.5t-78.5 22.5t-78 -22.5t-29 -63.5q0 -46 32 -67.5t75 -21.5zM172 -91q49 0 84.5 23.5t35.5 77.5q0 50 -37.5 73t-82.5 23t-82 -23.5t-37 -72.5q0 -54 35 -77.5t84 -23.5z" />
    <glyph glyph-name="nineinferior" unicode="&#x2089;" horiz-adv-x="344" 
d="M167 -103q-38 0 -60.5 10.5t-34 26t-15 32t-3.5 28.5h12q0 -10 3 -24.5t13 -28t30 -23t54 -9.5q72 0 102.5 56t30.5 143q0 18 -1 32t-3 28q-4 -57 -41.5 -84.5t-89.5 -27.5q-46 0 -82.5 28.5t-36.5 94.5q0 60 37.5 93t88.5 33q71 0 105.5 -49t34.5 -147q0 -93 -33 -152.5
t-111 -59.5zM165 68q63 0 91.5 34.5t28.5 80.5t-29.5 78t-84.5 32q-47 0 -80.5 -30t-33.5 -84q0 -60 33.5 -85.5t74.5 -25.5z" />
    <glyph glyph-name="Euro" unicode="&#x20ac;" 
d="M412 270l-3 -14h-270q16 -125 79 -186t153 -61q57 0 91.5 18.5t50.5 34.5l10 -10q-16 -16 -52.5 -36.5t-99.5 -20.5q-96 0 -163 63.5t-83 197.5h-104l3 14h99q-1 7 -1.5 15.5t-0.5 17.5q-1 7 -1 16v17q0 15 1 30t2 28h-82l3 14h80q9 65 32 115.5t57 84t77 50.5t90 17
q48 0 82 -15.5t52 -31.5l-10 -12q-18 16 -50 30.5t-74 14.5q-45 0 -85.5 -16.5t-72 -48.5t-53.5 -79.5t-30 -108.5h296l-3 -14h-295q-1 -13 -2 -28t-1 -30v-19.5t1 -19.5q1 -7 1 -13.5t1 -13.5h275z" />
    <glyph glyph-name="litre" unicode="&#x2113;" horiz-adv-x="415" 
d="M365 49q-20 -20 -48 -37t-65 -17q-65 0 -87 46.5t-22 142.5v58q-23 -14 -50 -28.5t-57 -29.5l-6 12q32 16 60 31.5t53 30.5v256q0 56 10.5 91.5t27.5 55t38 27t41 7.5q42 0 73 -33t31 -104q0 -91 -45 -163t-162 -144v-67q0 -84 17.5 -129.5t77.5 -45.5q34 0 59 15.5
t44 34.5zM157 514v-247q110 70 151.5 140t41.5 152q0 62 -26.5 92t-63.5 30t-70 -34.5t-33 -132.5z" />
    <glyph glyph-name="numero" unicode="&#x2116;" horiz-adv-x="1022" 
d="M564 690v-695h-15l-435 669v-664h-14v690h14l436 -671v671h14zM831 404q-58 0 -99.5 40t-41.5 103q0 62 41.5 102.5t99.5 40.5t99.5 -40.5t41.5 -102.5q0 -63 -41.5 -103t-99.5 -40zM831 418q52 0 89.5 36t37.5 93q0 56 -37.5 92.5t-89.5 36.5t-89.5 -36.5t-37.5 -92.5
q0 -57 37.5 -93t89.5 -36z" />
    <glyph glyph-name="uni2117" unicode="&#x2117;" horiz-adv-x="776" 
d="M388 -8q-71 0 -131.5 26t-104 72.5t-68 110.5t-24.5 140t24.5 140.5t68 110.5t104 71.5t131.5 25.5t131.5 -25.5t104 -71.5t68 -110.5t24.5 -140.5t-24.5 -140t-68 -110.5t-104 -72.5t-131.5 -26zM388 4q69 0 127 25.5t100 70t65.5 106.5t23.5 135q0 74 -23.5 136
t-65.5 106t-100 69t-127 25t-127 -25t-100 -69t-65.5 -106t-23.5 -136q0 -73 23.5 -135t65.5 -106.5t100 -70t127 -25.5zM292 526h110q66 0 101 -24.5t35 -76.5q0 -57 -37 -80t-89 -23h-108v-164h-12v368zM402 514h-98v-180h108q46 0 80 19t34 72q0 48 -32.5 68.5
t-91.5 20.5z" />
    <glyph glyph-name="trademark" unicode="&#x2122;" horiz-adv-x="818" 
d="M392 320h-12l29 370h11l149 -341l150 341h11l28 -370h-12l-25 344l-147 -331h-10l-146 331zM183 320h-12v353h-151v12h299v-12h-136v-353z" />
    <glyph glyph-name="Omega" unicode="&#x2126;" horiz-adv-x="734" 
d="M283 64v-64h-208v14h194v39q-12 4 -46 19.5t-70.5 50t-64.5 92.5t-28 146q0 68 19 128.5t57.5 106t96.5 72.5t134 27t134 -27t96.5 -72.5t57.5 -106t19 -128.5q0 -88 -28 -146t-64.5 -92.5t-70.5 -50t-46 -19.5v-39h194v-14h-208v64q2 1 35 12.5t71.5 43.5t70.5 90
t32 151q0 65 -18 123t-54.5 101.5t-91.5 69.5t-129 26t-129 -26t-91.5 -69.5t-54.5 -101.5t-18 -123q0 -93 32 -151t70.5 -90t71.5 -43.5t35 -12.5z" />
    <glyph glyph-name="estimated" unicode="&#x212e;" horiz-adv-x="762" 
d="M709 281h-528v-187q34 -31 82 -49.5t117 -18.5q96 0 159 29.5t109 90.5l25 -21q-39 -54 -109 -92t-184 -38q-78 0 -139.5 24.5t-103.5 66t-64.5 97.5t-22.5 118q0 63 23.5 119t66.5 97t104 65.5t136 24.5q74 0 135 -24.5t104 -65.5t66.5 -97t23.5 -119v-20zM380 576
q-65 0 -114.5 -18t-84.5 -52v-197h398v197q-35 33 -85.5 51.5t-113.5 18.5z" />
    <glyph glyph-name="arrowleft" unicode="&#x2190;" horiz-adv-x="702" 
d="M269 480l10 -9l-201 -201h574v-14h-574l201 -201l-11 -11l-218 218z" />
    <glyph glyph-name="arrowup" unicode="&#x2191;" horiz-adv-x="576" 
d="M295 0h-14v668l-201 -201l-10 10l217 218l219 -218l-10 -10l-201 200v-667z" />
    <glyph glyph-name="arrowright" unicode="&#x2192;" horiz-adv-x="702" 
d="M50 270h574l-201 201l10 9l219 -218l-218 -218l-11 11l201 201h-574v14z" />
    <glyph glyph-name="arrowdown" unicode="&#x2193;" horiz-adv-x="576" 
d="M281 690h14v-668l201 201l10 -10l-217 -218l-219 218l10 10l201 -200v667z" />
    <glyph glyph-name="arrowupleft" unicode="&#x2196;" horiz-adv-x="621" 
d="M100 470h309v-14h-284l446 -446l-10 -10l-446 446v-284h-15v308z" />
    <glyph glyph-name="arrowupright" unicode="&#x2197;" horiz-adv-x="621" 
d="M50 10l446 446h-284v14h309v-308h-15v284l-446 -446z" />
    <glyph glyph-name="arrowdownright" unicode="&#x2198;" horiz-adv-x="621" 
d="M50 460l10 10l446 -446v284h15v-308h-309v14h284z" />
    <glyph glyph-name="arrowdownleft" unicode="&#x2199;" horiz-adv-x="621" 
d="M100 0v308h15v-284l446 446l10 -10l-446 -446h284v-14h-309z" />
    <glyph glyph-name="partialdiff" unicode="&#x2202;" horiz-adv-x="525" 
d="M262 695q34 0 71 -14.5t68 -49t51 -92.5t20 -144q0 -97 -19 -172t-52 -125.5t-78 -76.5t-96 -26q-45 0 -78 18.5t-54.5 48.5t-31.5 70t-10 82q0 43 12 87.5t38 80t66 58t95 22.5q45 0 78.5 -14.5t56.5 -34t37 -41.5t20 -37q1 14 1.5 29t0.5 31q0 80 -18.5 135t-47 88.5
t-63.5 48t-67 14.5q-40 0 -71.5 -10.5t-52.5 -24.5l-8 12q22 15 54 26t78 11zM67 214q0 -39 9 -76t28.5 -65.5t50 -46t72.5 -17.5q88 0 150 77.5t77 222.5q-4 12 -16.5 35.5t-35 46.5t-56.5 40t-82 17q-52 0 -89.5 -21.5t-61.5 -55.5t-35 -75.5t-11 -81.5z" />
    <glyph glyph-name="Delta" unicode="&#x2206;" horiz-adv-x="612" 
d="M40 0v9l259 686h14l259 -686v-9h-532zM555 14l-249 658l-249 -658h498z" />
    <glyph glyph-name="product" unicode="&#x220f;" horiz-adv-x="665" 
d="M100 690h465v-820h-14v806h-437v-806h-14v820z" />
    <glyph glyph-name="summation" unicode="&#x2211;" horiz-adv-x="662" 
d="M100 -103v11l258 379l-246 392v11h450v-14h-431l243 -385v-8l-254 -372h442v-14h-462z" />
    <glyph glyph-name="minus" unicode="&#x2212;" 
d="M470 316v-14h-390v14h390z" />
    <glyph glyph-name="radical" unicode="&#x221a;" horiz-adv-x="529" 
d="M104 248l155 -364l255 826h15l-262 -849h-13l-158 373h-86v14h94z" />
    <glyph glyph-name="infinity" unicode="&#x221e;" 
d="M412 195q-45 0 -77 31t-60 71q-28 -40 -61 -72t-78 -32q-32 0 -53 11.5t-33 28.5t-17 37.5t-5 38.5t5 38.5t17 37t33 28t53 11.5q45 0 78 -31t61 -71q28 40 60 70.5t77 30.5q32 0 53.5 -11t34 -28t17.5 -37t5 -38t-5 -38t-17.5 -37t-34 -28t-53.5 -11zM136 207
q43 0 73.5 32t56.5 70q-26 39 -56.5 70t-73.5 31q-28 0 -46.5 -10t-29 -25t-14.5 -32.5t-4 -33.5t4 -34t14.5 -33t29 -25t46.5 -10zM412 209q29 0 47.5 10t29.5 24.5t15 32t4 33.5t-4 33.5t-15 32t-29.5 24.5t-47.5 10q-44 0 -74 -31.5t-54 -68.5q25 -38 55 -69t73 -31z" />
    <glyph glyph-name="integral" unicode="&#x222b;" horiz-adv-x="264" 
d="M223 732q-51 0 -70.5 -35.5t-19.5 -117.5v-34l13 -500v-28q0 -102 -25.5 -136.5t-79.5 -34.5q-19 0 -35 6.5t-26 16.5l9 11q10 -8 23 -14t29 -6q51 0 70.5 34t19.5 119v34l-15 505v39q0 90 28.5 122.5t78.5 32.5q19 0 35 -6t26 -16l-10 -12q-9 8 -21.5 14t-29.5 6z" />
    <glyph glyph-name="approxequal" unicode="&#x2248;" 
d="M95 348h-15q4 38 28 67t70 29q31 0 54.5 -13t46.5 -30q22 -15 45.5 -28t51.5 -13q40 0 58.5 23.5t22.5 60.5h13q-4 -43 -26 -70t-68 -27q-31 0 -56 13t-49 29q-21 16 -43 28.5t-50 12.5q-40 0 -59.5 -25.5t-23.5 -56.5zM95 148h-15q4 38 28 67t70 29q31 0 54.5 -13
t46.5 -30q22 -15 45.5 -28t51.5 -13q40 0 58.5 23.5t22.5 60.5h13q-4 -43 -26 -70t-68 -27q-31 0 -56 13t-49 29q-21 16 -43 28.5t-50 12.5q-40 0 -59.5 -25.5t-23.5 -56.5z" />
    <glyph glyph-name="notequal" unicode="&#x2260;" 
d="M470 212v-14h-244l-46 -97l-12 6l43 91h-131v14h137l91 194h-228v14h235l45 96l12 -6l-42 -90h140v-14h-147l-91 -194h238z" />
    <glyph glyph-name="lessequal" unicode="&#x2264;" 
d="M450 171l-6 -12l-344 174v12l344 174l6 -12l-332 -168zM470 14v-14h-390v14h390z" />
    <glyph glyph-name="greaterequal" unicode="&#x2265;" horiz-adv-x="520" 
d="M450 333l-344 -174l-6 12l332 168l-332 168l6 12l344 -174v-12zM80 14h390v-14h-390v14z" />
    <glyph glyph-name="lozenge" unicode="&#x25ca;" 
d="M488 342v-8l-207 -335h-12l-207 335v8l207 333h12zM275 17l199 321l-199 319l-199 -319z" />
    <glyph glyph-name="commaaccent" unicode="&#xf6c3;" horiz-adv-x="500" 
d="M182 -201l62 148l11 -5l-62 -148z" />
    <glyph glyph-name="fi.cap" horiz-adv-x="694" 
d="M388 356h-274v-356h-14v685h368v-14h-354v-301h274v-14zM570 690h14v-690h-14v690z" />
    <glyph glyph-name="fl.cap" horiz-adv-x="958" 
d="M388 356h-274v-356h-14v685h368v-14h-354v-301h274v-14zM570 690h14v-671h364v-14h-378v685z" />
    <glyph glyph-name="germandbls.cap" horiz-adv-x="1056" 
d="M50 185h14q0 -47 15 -80.5t41.5 -54.5t63 -31t77.5 -10q38 0 74 9.5t63.5 29.5t44 52t16.5 76q0 66 -41.5 109.5t-140.5 68.5q-103 24 -151 64.5t-48 112.5q0 86 52.5 125t131.5 39q39 0 73.5 -10t60 -29t40 -46t14.5 -61h-14q0 32 -14 56.5t-37.5 41.5t-55.5 25.5
t-67 8.5q-72 0 -121 -35t-49 -115q0 -68 46.5 -104.5t142.5 -58.5q107 -26 149.5 -73.5t42.5 -118.5q0 -47 -17.5 -81.5t-47 -56.5t-68 -32.5t-79.5 -10.5q-45 0 -84 10.5t-67 33t-44 59t-16 87.5zM578 185h14q0 -47 15 -80.5t41.5 -54.5t63 -31t77.5 -10q38 0 74 9.5
t63.5 29.5t44 52t16.5 76q0 66 -41.5 109.5t-140.5 68.5q-103 24 -151 64.5t-48 112.5q0 86 52.5 125t131.5 39q39 0 73.5 -10t60 -29t40 -46t14.5 -61h-14q0 32 -14 56.5t-37.5 41.5t-55.5 25.5t-67 8.5q-72 0 -121 -35t-49 -115q0 -68 46.5 -104.5t142.5 -58.5
q107 -26 149.5 -73.5t42.5 -118.5q0 -47 -17.5 -81.5t-47 -56.5t-68 -32.5t-79.5 -10.5q-45 0 -84 10.5t-67 33t-44 59t-16 87.5z" />
    <glyph glyph-name="i.TRK" horiz-adv-x="217" 
d="M102 470h12v-470h-12v470zM109 643q-9 0 -14 6t-5 13t5 12.5t14 5.5q8 0 13 -5.5t5 -12.5t-5 -13t-13 -6z" />
    <glyph glyph-name="A.small" horiz-adv-x="492" 
d="M39 0h-14l216 520h10l216 -520h-14l-76 184h-262zM120 196h252l-126 306z" />
    <glyph glyph-name="B.small" horiz-adv-x="492" 
d="M90 0v520h121q43 0 81 -6t66.5 -20.5t45 -40t16.5 -63.5q0 -60 -44 -88t-114 -35q81 -4 135.5 -33.5t54.5 -99.5q0 -75 -56.5 -104.5t-158.5 -29.5h-147zM211 508h-109v-236h102q41 0 78 6t65 20t44.5 36.5t16.5 55.5q0 36 -16 59t-43.5 36t-63 18t-74.5 5zM226 260h-124
v-248h135q93 0 148 26t55 96q0 36 -17.5 60.5t-46.5 39t-68 20.5t-82 6z" />
    <glyph glyph-name="C.small" horiz-adv-x="502" 
d="M50 254q0 131 65 201t170 70q55 0 90 -14.5t54.5 -32t26.5 -33t8 -18.5l-12 -4q-1 3 -8 17t-25.5 30.5t-50.5 29.5t-83 13q-101 0 -162 -67t-61 -192q0 -122 59.5 -184t158.5 -62q57 0 92.5 15t54.5 34t26 35.5t8 19.5l11 -3q0 -3 -7 -21t-27.5 -38.5t-58 -37
t-99.5 -16.5q-103 0 -166.5 65t-63.5 193z" />
    <glyph glyph-name="D.small" horiz-adv-x="571" 
d="M90 520h122q87 0 146.5 -21.5t95.5 -56.5t51.5 -81.5t15.5 -95.5q0 -76 -23.5 -127.5t-64 -81.5t-95.5 -43t-117 -13h-131v520zM212 508h-110v-496h119q59 0 111.5 12t91.5 41t62 78t23 122q0 48 -15 92t-49.5 77.5t-92 53.5t-140.5 20z" />
    <glyph glyph-name="E.small" horiz-adv-x="465" 
d="M369 266h-267v-249h332v-12h-344v510h345v-12h-333v-225h267v-12z" />
    <glyph glyph-name="F.small" horiz-adv-x="426" 
d="M90 515h336v-12h-324v-225h240v-12h-240v-266h-12v515z" />
    <glyph glyph-name="G.small" horiz-adv-x="577" 
d="M50 251q0 66 19 117.5t52 86t78.5 52.5t98.5 18q55 0 91 -14t56.5 -31.5t29 -32.5t9.5 -17l-11 -5q-1 2 -9.5 16t-28 30t-53 29t-84.5 13q-50 0 -93.5 -17t-75 -50t-49.5 -82.5t-18 -112.5q0 -122 65.5 -183t171.5 -61q49 0 84 10t57 22.5t32.5 22.5l10.5 10v161h-160v12
h172v-177q0 -2 -12 -13.5t-35.5 -25t-60.5 -24t-88 -10.5q-112 0 -180.5 64t-68.5 192z" />
    <glyph glyph-name="H.small" horiz-adv-x="581" 
d="M90 520h12v-236h377v236h12v-520h-12v272h-377v-272h-12v520z" />
    <glyph glyph-name="I.small" horiz-adv-x="212" 
d="M100 520h12v-520h-12v520z" />
    <glyph glyph-name="J.small" horiz-adv-x="366" 
d="M18 112h12q0 -18 7 -36.5t21.5 -33.5t37.5 -25t55 -10q76 0 102 50.5t26 123.5v339h12v-339q0 -81 -29 -133.5t-111 -52.5q-37 0 -62.5 11t-41 28t-22.5 37.5t-7 40.5z" />
    <glyph glyph-name="K.small" horiz-adv-x="494" 
d="M90 520h12v-292l314 292h16l-242 -226l279 -294h-17l-271 286l-79 -73v-213h-12v520z" />
    <glyph glyph-name="L.small" horiz-adv-x="434" 
d="M90 520h12v-503h322v-12h-334v515z" />
    <glyph glyph-name="M.small" horiz-adv-x="714" 
d="M116 520h11l230 -486l230 486h11l46 -520h-12l-44 495l-226 -478h-10l-226 478l-44 -495h-12z" />
    <glyph glyph-name="N.small" horiz-adv-x="597" 
d="M90 520h11l394 -500v500h12v-520h-12l-393 498v-498h-12v520z" />
    <glyph glyph-name="O.small" horiz-adv-x="593" 
d="M50 257q0 66 20.5 116.5t54.5 84t79 50.5t94 17q40 0 83.5 -14t79.5 -44.5t59 -80.5t23 -121q0 -67 -20.5 -118t-54 -84.5t-78 -50.5t-92.5 -17q-41 0 -85 13.5t-80 44.5t-59.5 81.5t-23.5 122.5zM531 265q0 68 -22 115t-55.5 76.5t-75 43t-80.5 13.5q-46 0 -89 -16.5
t-75.5 -48.5t-52 -80t-19.5 -111q0 -69 22 -117t56.5 -77t76.5 -42.5t81 -13.5q46 0 88 16t74 48.5t51.5 81t19.5 112.5z" />
    <glyph glyph-name="P.small" horiz-adv-x="443" 
d="M90 520h148q84 0 137 -35.5t53 -108.5q0 -40 -15.5 -67.5t-40 -44.5t-56.5 -25t-65 -8h-149v-231h-12v520zM238 508h-136v-265h149q30 0 59.5 7t53 22t38 41t14.5 63q0 69 -50.5 100.5t-127.5 31.5z" />
    <glyph glyph-name="Q.small" horiz-adv-x="593" 
d="M50 257q0 66 20.5 116.5t54.5 84t79 50.5t94 17q40 0 83.5 -14t79.5 -44.5t59 -80.5t23 -121q0 -61 -17 -109t-46 -81.5t-67.5 -53t-81.5 -24.5q14 -35 41 -58.5t80 -23.5q37 0 58 16t21 42h12q0 -29 -22.5 -49.5t-68.5 -20.5q-57 0 -87.5 26t-46.5 67q-5 -1 -10 -1h-10
q-41 0 -85 13.5t-80 44.5t-59.5 81.5t-23.5 122.5zM531 265q0 68 -22 115t-55.5 76.5t-75 43t-80.5 13.5q-46 0 -89 -16.5t-75.5 -48.5t-52 -80t-19.5 -111q0 -69 22 -117t56.5 -77t76.5 -42.5t81 -13.5q46 0 88 16t74 48.5t51.5 81t19.5 112.5z" />
    <glyph glyph-name="R.small" horiz-adv-x="515" 
d="M488 41h12q0 -23 -13.5 -34.5t-35.5 -11.5q-39 0 -50 31t-11 108q0 63 -42 92.5t-111 29.5h-135v-256h-12v520h160q92 0 141 -32t49 -97q0 -69 -43 -98t-103 -33q51 -10 79.5 -41t28.5 -85q0 -62 6.5 -94.5t42.5 -32.5q16 0 26.5 7.5t10.5 26.5zM250 508h-148v-240h161
q32 0 62 5.5t52.5 19t36.5 37.5t14 61q0 60 -47 88.5t-131 28.5z" />
    <glyph glyph-name="S.small" horiz-adv-x="452" 
d="M224 7q34 0 65.5 7t54.5 22t37 39t14 57q0 56 -38 83t-125 46q-95 21 -137 51t-42 87q0 64 46.5 95t118.5 31q71 0 120 -32t49 -87h-12q0 26 -12.5 46t-34 33.5t-50 20.5t-60.5 7q-64 0 -108.5 -27t-44.5 -87q0 -54 41.5 -80.5t127.5 -45.5q95 -22 134 -52t39 -89
q0 -35 -14.5 -61t-39.5 -43t-58.5 -25t-70.5 -8q-86 0 -135 38.5t-49 107.5h12q0 -64 47 -99t125 -35z" />
    <glyph glyph-name="T.small" horiz-adv-x="503" 
d="M10 515h483v-12h-236v-503h-12v503h-235v12z" />
    <glyph glyph-name="U.small" horiz-adv-x="562" 
d="M85 227v293h12v-293q0 -45 8.5 -85t29.5 -69.5t57 -47t90 -17.5t90 17.5t56.5 47.5t28.5 70t8 84v293h12v-293q0 -47 -9 -89.5t-31 -73.5t-60 -49.5t-95 -18.5t-95.5 18.5t-61 50t-31.5 73.5t-9 89z" />
    <glyph glyph-name="V.small" horiz-adv-x="468" 
d="M0 520h14l220 -505l220 505h14l-229 -522h-10z" />
    <glyph glyph-name="W.small" horiz-adv-x="766" 
d="M10 520h14l160 -501l193 492h12l192 -492l161 501h14l-168 -522h-12l-193 494l-194 -494h-12z" />
    <glyph glyph-name="X.small" horiz-adv-x="497" 
d="M49 520h15l184 -244l186 244h14l-192 -254l202 -266h-15l-194 256l-195 -256h-15l202 267z" />
    <glyph glyph-name="Y.small" horiz-adv-x="437" 
d="M432 520l-207 -293v-227h-12v227l-208 293h13l201 -279l199 279h14z" />
    <glyph glyph-name="Z.small" horiz-adv-x="475" 
d="M40 15l364 488h-357v12h374v-10l-364 -488h378v-12h-395v10z" />
    <glyph glyph-name="Agrave.small" horiz-adv-x="492" 
d="M39 0h-14l216 520h10l216 -520h-14l-76 184h-262zM120 196h252l-126 306zM141 772l9 10l137 -161l-9 -10z" />
    <glyph glyph-name="Aacute.small" horiz-adv-x="492" 
d="M39 0h-14l216 520h10l216 -520h-14l-76 184h-262zM120 196h252l-126 306zM185 621l137 161l9 -10l-137 -161z" />
    <glyph glyph-name="Acircumflex.small" horiz-adv-x="492" 
d="M39 0h-14l216 520h10l216 -520h-14l-76 184h-262zM120 196h252l-126 306zM104 621l137 161h9l137 -161l-9 -10l-132 156l-133 -156z" />
    <glyph glyph-name="Atilde.small" horiz-adv-x="492" 
d="M39 0h-14l216 520h10l216 -520h-14l-76 184h-262zM120 196h252l-126 306zM128 640q-14 43 -1.5 77.5t56.5 34.5q31 0 46 -15.5t25 -33.5t21 -33.5t33 -15.5q38 0 46.5 30t-3.5 66l12 4q14 -43 1.5 -77.5t-56.5 -34.5q-26 0 -39 15.5t-22.5 33.5t-22.5 33.5t-41 15.5
q-38 0 -46.5 -30t3.5 -66z" />
    <glyph glyph-name="Adieresis.small" horiz-adv-x="492" 
d="M39 0h-14l216 520h10l216 -520h-14l-76 184h-262zM120 196h252l-126 306zM147 712q0 7 5 12.5t14 5.5q8 0 13 -5.5t5 -12.5t-5 -13t-13 -6q-9 0 -14 6t-5 13zM307 712q0 7 5 12.5t14 5.5q8 0 13 -5.5t5 -12.5t-5 -13t-13 -6q-9 0 -14 6t-5 13z" />
    <glyph glyph-name="Amacron.small" horiz-adv-x="492" 
d="M39 0h-14l216 520h10l216 -520h-14l-76 184h-262zM120 196h252l-126 306zM128 735h236v-12h-236v12z" />
    <glyph glyph-name="Abreve.small" horiz-adv-x="492" 
d="M39 0h-14l216 520h10l216 -520h-14l-76 184h-262zM120 196h252l-126 306zM246 644q-41 0 -66.5 16t-39.5 38t-18.5 44t-4.5 34h12q0 -11 4.5 -31.5t17 -40t35.5 -34t60 -14.5t60.5 14.5t36 34t16.5 40t4 31.5h12q0 -12 -4.5 -34t-18.5 -44t-39.5 -38t-66.5 -16z" />
    <glyph glyph-name="Aring.small" horiz-adv-x="492" 
d="M39 0h-14l216 520h10l216 -520h-14l-76 184h-262zM120 196h252l-126 306zM168 721q0 33 21.5 55.5t55.5 22.5q35 0 56.5 -22.5t21.5 -55.5q0 -32 -21.5 -54.5t-56.5 -22.5q-34 0 -55.5 22.5t-21.5 54.5zM311 721q0 28 -18.5 47t-47.5 19q-28 0 -46.5 -19t-18.5 -47
t18.5 -46.5t46.5 -18.5q29 0 47.5 18.5t18.5 46.5z" />
    <glyph glyph-name="Aringacute.small" horiz-adv-x="492" 
d="M39 0h-14l216 520h10l216 -520h-14l-76 184h-262zM120 196h252l-126 306zM172 649q0 33 21.5 55.5t55.5 22.5q35 0 56.5 -22.5t21.5 -55.5q0 -32 -21.5 -54.5t-56.5 -22.5q-34 0 -55.5 22.5t-21.5 54.5zM315 649q0 28 -18.5 47t-47.5 19q-28 0 -46.5 -19t-18.5 -47
t18.5 -46.5t46.5 -18.5q29 0 47.5 18.5t18.5 46.5zM181 772l169 83l6 -12l-169 -83z" />
    <glyph glyph-name="Aogonek.small" horiz-adv-x="492" 
d="M39 0h-14l216 520h10l216 -520q-13 -10 -30 -23t-32.5 -29t-26 -35.5t-10.5 -41.5q0 -16 8.5 -30t33.5 -14q24 0 34.5 16.5t10.5 41.5h12q0 -31 -13.5 -50.5t-43.5 -19.5t-42 16.5t-12 39.5q0 36 25 66.5t71 64.5l-75 182h-262zM120 196h252l-126 306z" />
    <glyph glyph-name="AE.small" horiz-adv-x="676" 
d="M39 0h-14l306 515h315v-12h-303v-247h237v-12h-237v-227h302v-12h-314v239h-147zM191 256h140v236z" />
    <glyph glyph-name="AEacute.small" horiz-adv-x="676" 
d="M39 0h-14l306 515h315v-12h-303v-247h237v-12h-237v-227h302v-12h-314v239h-147zM191 256h140v236zM427 621l137 161l9 -10l-137 -161z" />
    <glyph glyph-name="Cacute.small" horiz-adv-x="502" 
d="M50 254q0 131 65 201t170 70q55 0 90 -14.5t54.5 -32t26.5 -33t8 -18.5l-12 -4q-1 3 -8 17t-25.5 30.5t-50.5 29.5t-83 13q-101 0 -162 -67t-61 -192q0 -122 59.5 -184t158.5 -62q57 0 92.5 15t54.5 34t26 35.5t8 19.5l11 -3q0 -3 -7 -21t-27.5 -38.5t-58 -37
t-99.5 -16.5q-103 0 -166.5 65t-63.5 193zM229 621l137 161l9 -10l-137 -161z" />
    <glyph glyph-name="Ccircumflex.small" horiz-adv-x="502" 
d="M50 254q0 131 65 201t170 70q55 0 90 -14.5t54.5 -32t26.5 -33t8 -18.5l-12 -4q-1 3 -8 17t-25.5 30.5t-50.5 29.5t-83 13q-101 0 -162 -67t-61 -192q0 -122 59.5 -184t158.5 -62q57 0 92.5 15t54.5 34t26 35.5t8 19.5l11 -3q0 -3 -7 -21t-27.5 -38.5t-58 -37
t-99.5 -16.5q-103 0 -166.5 65t-63.5 193zM144 621l137 161h9l137 -161l-9 -10l-132 156l-133 -156z" />
    <glyph glyph-name="Ccaron.small" horiz-adv-x="502" 
d="M50 254q0 131 65 201t170 70q55 0 90 -14.5t54.5 -32t26.5 -33t8 -18.5l-12 -4q-1 3 -8 17t-25.5 30.5t-50.5 29.5t-83 13q-101 0 -162 -67t-61 -192q0 -122 59.5 -184t158.5 -62q57 0 92.5 15t54.5 34t26 35.5t8 19.5l11 -3q0 -3 -7 -21t-27.5 -38.5t-58 -37
t-99.5 -16.5q-103 0 -166.5 65t-63.5 193zM149 772l9 10l132 -156l133 156l9 -10l-137 -161h-9z" />
    <glyph glyph-name="Cdotaccent.small" horiz-adv-x="502" 
d="M50 254q0 131 65 201t170 70q55 0 90 -14.5t54.5 -32t26.5 -33t8 -18.5l-12 -4q-1 3 -8 17t-25.5 30.5t-50.5 29.5t-83 13q-101 0 -162 -67t-61 -192q0 -122 59.5 -184t158.5 -62q57 0 92.5 15t54.5 34t26 35.5t8 19.5l11 -3q0 -3 -7 -21t-27.5 -38.5t-58 -37
t-99.5 -16.5q-103 0 -166.5 65t-63.5 193zM290 693q-9 0 -14 6t-5 13t5 12.5t14 5.5q8 0 13 -5.5t5 -12.5t-5 -13t-13 -6z" />
    <glyph glyph-name="Ccedilla.small" horiz-adv-x="502" 
d="M50 254q0 131 65 201t170 70q55 0 90 -14.5t54.5 -32t26.5 -33t8 -18.5l-12 -4q-1 3 -8 17t-25.5 30.5t-50.5 29.5t-83 13q-101 0 -162 -67t-61 -192q0 -122 59.5 -184t158.5 -62q57 0 92.5 15t54.5 34t26 35.5t8 19.5l11 -3q0 -3 -7 -21t-27.5 -38.5t-58 -37
t-99.5 -16.5q-103 0 -166.5 65t-63.5 193zM229 -120h12q-1 -26 11 -39.5t37 -13.5q22 0 37.5 12.5t15.5 40.5q0 37 -25.5 46.5t-61.5 1.5l-8 3l21 72l11 -3l-17 -60q38 7 65 -6.5t27 -53.5q0 -34 -19.5 -49.5t-45.5 -15.5q-31 0 -46 17t-14 48z" />
    <glyph glyph-name="Dcaron.small" horiz-adv-x="571" 
d="M90 520h122q87 0 146.5 -21.5t95.5 -56.5t51.5 -81.5t15.5 -95.5q0 -76 -23.5 -127.5t-64 -81.5t-95.5 -43t-117 -13h-131v520zM212 508h-110v-496h119q59 0 111.5 12t91.5 41t62 78t23 122q0 48 -15 92t-49.5 77.5t-92 53.5t-140.5 20zM127 772l9 10l132 -156l133 156
l9 -10l-137 -161h-9z" />
    <glyph glyph-name="Dcroat.small" horiz-adv-x="571" 
d="M20 264h70v256h122q87 0 146.5 -21.5t95.5 -56.5t51.5 -81.5t15.5 -95.5q0 -76 -23.5 -127.5t-64 -81.5t-95.5 -43t-117 -13h-131v252h-70v12zM256 252h-154v-240h119q59 0 111.5 12t91.5 41t62 78t23 122q0 48 -15 92t-49.5 77.5t-92 53.5t-140.5 20h-110v-244h154v-12z
" />
    <glyph glyph-name="Egrave.small" horiz-adv-x="465" 
d="M369 266h-267v-249h332v-12h-344v510h345v-12h-333v-225h267v-12zM157 772l9 10l137 -161l-9 -10z" />
    <glyph glyph-name="Eacute.small" horiz-adv-x="465" 
d="M369 266h-267v-249h332v-12h-344v510h345v-12h-333v-225h267v-12zM217 621l137 161l9 -10l-137 -161z" />
    <glyph glyph-name="Ecircumflex.small" horiz-adv-x="465" 
d="M369 266h-267v-249h332v-12h-344v510h345v-12h-333v-225h267v-12zM122 621l137 161h9l137 -161l-9 -10l-132 156l-133 -156z" />
    <glyph glyph-name="Ecaron.small" horiz-adv-x="465" 
d="M369 266h-267v-249h332v-12h-344v510h345v-12h-333v-225h267v-12zM128 772l9 10l132 -156l133 156l9 -10l-137 -161h-9z" />
    <glyph glyph-name="Edieresis.small" horiz-adv-x="465" 
d="M369 266h-267v-249h332v-12h-344v510h345v-12h-333v-225h267v-12zM169 712q0 7 5 12.5t14 5.5q8 0 13 -5.5t5 -12.5t-5 -13t-13 -6q-9 0 -14 6t-5 13zM329 712q0 7 5 12.5t14 5.5q8 0 13 -5.5t5 -12.5t-5 -13t-13 -6q-9 0 -14 6t-5 13z" />
    <glyph glyph-name="Emacron.small" horiz-adv-x="465" 
d="M369 266h-267v-249h332v-12h-344v510h345v-12h-333v-225h267v-12zM145 735h236v-12h-236v12z" />
    <glyph glyph-name="Ebreve.small" horiz-adv-x="465" 
d="M369 266h-267v-249h332v-12h-344v510h345v-12h-333v-225h267v-12zM269 644q-41 0 -66.5 16t-39.5 38t-18.5 44t-4.5 34h12q0 -11 4.5 -31.5t17 -40t35.5 -34t60 -14.5t60.5 14.5t36 34t16.5 40t4 31.5h12q0 -12 -4.5 -34t-18.5 -44t-39.5 -38t-66.5 -16z" />
    <glyph glyph-name="Edotaccent.small" horiz-adv-x="465" 
d="M369 266h-267v-249h332v-12h-344v510h345v-12h-333v-225h267v-12zM268 693q-9 0 -14 6t-5 13t5 12.5t14 5.5q8 0 13 -5.5t5 -12.5t-5 -13t-13 -6z" />
    <glyph glyph-name="Eogonek.small" horiz-adv-x="465" 
d="M313 -112q0 25 13.5 56t49.5 61h-286v510h345v-12h-333v-225h267v-12h-267v-249h332v-12h-40q-32 -22 -50.5 -55t-18.5 -62q0 -31 12.5 -46t37.5 -15q24 0 35.5 16.5t11.5 41.5h12q0 -31 -14.5 -50.5t-44.5 -19.5t-46 16.5t-16 56.5z" />
    <glyph glyph-name="FI.small" horiz-adv-x="636" 
d="M90 515h336v-12h-324v-225h240v-12h-240v-266h-12v515zM524 520h12v-520h-12v520z" />
    <glyph glyph-name="FL.small" horiz-adv-x="858" 
d="M90 515h336v-12h-324v-225h240v-12h-240v-266h-12v515zM514 520h12v-503h322v-12h-334v515z" />
    <glyph glyph-name="Gcircumflex.small" horiz-adv-x="577" 
d="M50 251q0 66 19 117.5t52 86t78.5 52.5t98.5 18q55 0 91 -14t56.5 -31.5t29 -32.5t9.5 -17l-11 -5q-1 2 -9.5 16t-28 30t-53 29t-84.5 13q-50 0 -93.5 -17t-75 -50t-49.5 -82.5t-18 -112.5q0 -122 65.5 -183t171.5 -61q49 0 84 10t57 22.5t32.5 22.5l10.5 10v161h-160v12
h172v-177q0 -2 -12 -13.5t-35.5 -25t-60.5 -24t-88 -10.5q-112 0 -180.5 64t-68.5 192zM155 621l137 161h9l137 -161l-9 -10l-132 156l-133 -156z" />
    <glyph glyph-name="Gbreve.small" horiz-adv-x="577" 
d="M50 251q0 66 19 117.5t52 86t78.5 52.5t98.5 18q55 0 91 -14t56.5 -31.5t29 -32.5t9.5 -17l-11 -5q-1 2 -9.5 16t-28 30t-53 29t-84.5 13q-50 0 -93.5 -17t-75 -50t-49.5 -82.5t-18 -112.5q0 -122 65.5 -183t171.5 -61q49 0 84 10t57 22.5t32.5 22.5l10.5 10v161h-160v12
h172v-177q0 -2 -12 -13.5t-35.5 -25t-60.5 -24t-88 -10.5q-112 0 -180.5 64t-68.5 192zM300 644q-41 0 -66.5 16t-39.5 38t-18.5 44t-4.5 34h12q0 -11 4.5 -31.5t17 -40t35.5 -34t60 -14.5t60.5 14.5t36 34t16.5 40t4 31.5h12q0 -12 -4.5 -34t-18.5 -44t-39.5 -38t-66.5 -16
z" />
    <glyph glyph-name="Gdotaccent.small" horiz-adv-x="577" 
d="M50 251q0 66 19 117.5t52 86t78.5 52.5t98.5 18q55 0 91 -14t56.5 -31.5t29 -32.5t9.5 -17l-11 -5q-1 2 -9.5 16t-28 30t-53 29t-84.5 13q-50 0 -93.5 -17t-75 -50t-49.5 -82.5t-18 -112.5q0 -122 65.5 -183t171.5 -61q49 0 84 10t57 22.5t32.5 22.5l10.5 10v161h-160v12
h172v-177q0 -2 -12 -13.5t-35.5 -25t-60.5 -24t-88 -10.5q-112 0 -180.5 64t-68.5 192zM302 693q-9 0 -14 6t-5 13t5 12.5t14 5.5q8 0 13 -5.5t5 -12.5t-5 -13t-13 -6z" />
    <glyph glyph-name="Gcommaaccent.small" horiz-adv-x="577" 
d="M50 251q0 66 19 117.5t52 86t78.5 52.5t98.5 18q55 0 91 -14t56.5 -31.5t29 -32.5t9.5 -17l-11 -5q-1 2 -9.5 16t-28 30t-53 29t-84.5 13q-50 0 -93.5 -17t-75 -50t-49.5 -82.5t-18 -112.5q0 -122 65.5 -183t171.5 -61q49 0 84 10t57 22.5t32.5 22.5l10.5 10v161h-160v12
h172v-177q0 -2 -12 -13.5t-35.5 -25t-60.5 -24t-88 -10.5q-112 0 -180.5 64t-68.5 192zM232 -201l62 148l11 -5l-62 -148z" />
    <glyph glyph-name="Hcircumflex.small" horiz-adv-x="581" 
d="M90 520h12v-236h377v236h12v-520h-12v272h-377v-272h-12v520zM149 621l137 161h9l137 -161l-9 -10l-132 156l-133 -156z" />
    <glyph glyph-name="Hbar.small" horiz-adv-x="581" 
d="M40 427h50v93h12v-93h377v93h12v-93h50v-12h-50v-415h-12v272h-377v-272h-12v415h-50v12zM102 284h377v131h-377v-131z" />
    <glyph glyph-name="Igrave.small" horiz-adv-x="212" 
d="M100 520h12v-520h-12v520zM18 772l9 10l137 -161l-9 -10z" />
    <glyph glyph-name="Iacute.small" horiz-adv-x="212" 
d="M100 520h12v-520h-12v520zM57 621l137 161l9 -10l-137 -161z" />
    <glyph glyph-name="Icircumflex.small" horiz-adv-x="212" 
d="M100 520h12v-520h-12v520zM-35 621l137 161h9l137 -161l-9 -10l-132 156l-133 -156z" />
    <glyph glyph-name="Itilde.small" horiz-adv-x="212" 
d="M100 520h12v-520h-12v520zM-11 640q-14 43 -1.5 77.5t56.5 34.5q31 0 46 -15.5t25 -33.5t21 -33.5t33 -15.5q38 0 46.5 30t-3.5 66l12 4q14 -43 1.5 -77.5t-56.5 -34.5q-26 0 -39 15.5t-22.5 33.5t-22.5 33.5t-41 15.5q-38 0 -46.5 -30t3.5 -66z" />
    <glyph glyph-name="Idieresis.small" horiz-adv-x="212" 
d="M100 520h12v-520h-12v520zM7 712q0 7 5 12.5t14 5.5q8 0 13 -5.5t5 -12.5t-5 -13t-13 -6q-9 0 -14 6t-5 13zM167 712q0 7 5 12.5t14 5.5q8 0 13 -5.5t5 -12.5t-5 -13t-13 -6q-9 0 -14 6t-5 13z" />
    <glyph glyph-name="Imacron.small" horiz-adv-x="212" 
d="M100 520h12v-520h-12v520zM-12 735h236v-12h-236v12z" />
    <glyph glyph-name="Ibreve.small" horiz-adv-x="212" 
d="M100 520h12v-520h-12v520zM106 644q-41 0 -66.5 16t-39.5 38t-18.5 44t-4.5 34h12q0 -11 4.5 -31.5t17 -40t35.5 -34t60 -14.5t60.5 14.5t36 34t16.5 40t4 31.5h12q0 -12 -4.5 -34t-18.5 -44t-39.5 -38t-66.5 -16z" />
    <glyph glyph-name="Idotaccent.small" horiz-adv-x="212" 
d="M100 520h12v-520h-12v520zM106 693q-9 0 -14 6t-5 13t5 12.5t14 5.5q8 0 13 -5.5t5 -12.5t-5 -13t-13 -6z" />
    <glyph glyph-name="Iogonek.small" horiz-adv-x="212" 
d="M60 -111q0 25 12 54t28 57v520h12v-520q-16 -26 -28 -55t-12 -56q0 -33 14 -47.5t39 -14.5q24 0 35 16.5t11 41.5h12q0 -31 -14 -50.5t-44 -19.5t-47.5 17t-17.5 57z" />
    <glyph glyph-name="IJ.small" horiz-adv-x="589" 
d="M100 520h12v-520h-12v520zM241 112h12q0 -18 7 -36.5t21.5 -33.5t37.5 -25t55 -10q76 0 102 50.5t26 123.5v339h12v-339q0 -81 -29 -133.5t-111 -52.5q-37 0 -62.5 11t-41 28t-22.5 37.5t-7 40.5z" />
    <glyph glyph-name="Jcircumflex.small" horiz-adv-x="366" 
d="M18 112h12q0 -18 7 -36.5t21.5 -33.5t37.5 -25t55 -10q76 0 102 50.5t26 123.5v339h12v-339q0 -81 -29 -133.5t-111 -52.5q-37 0 -62.5 11t-41 28t-22.5 37.5t-7 40.5zM129 621l137 161h9l137 -161l-9 -10l-132 156l-133 -156z" />
    <glyph glyph-name="Kcommaaccent.small" horiz-adv-x="494" 
d="M90 520h12v-292l314 292h16l-242 -226l279 -294h-17l-271 286l-79 -73v-213h-12v520zM202 -201l62 148l11 -5l-62 -148z" />
    <glyph glyph-name="Lacute.small" horiz-adv-x="434" 
d="M90 520h12v-503h322v-12h-334v515zM99 621l137 161l9 -10l-137 -161z" />
    <glyph glyph-name="Lcaron.small" horiz-adv-x="431" 
d="M87 520h12v-503h322v-12h-334v515zM234 343l75 178l11 -5l-75 -178z" />
    <glyph glyph-name="Lcommaaccent.small" horiz-adv-x="434" 
d="M90 520h12v-503h322v-12h-334v515zM204 -201l62 148l11 -5l-62 -148z" />
    <glyph glyph-name="Lslash.small" horiz-adv-x="434" 
d="M30 194l-7 12l67 39v275h12v-268l135 78l7 -12l-142 -82v-219h322v-12h-334v224z" />
    <glyph glyph-name="Ldot.small" horiz-adv-x="434" 
d="M90 520h12v-503h322v-12h-334v515zM261 249q-9 0 -14 6t-5 13t5 12.5t14 5.5q8 0 13 -5.5t5 -12.5t-5 -13t-13 -6z" />
    <glyph glyph-name="Nacute.small" horiz-adv-x="597" 
d="M90 520h11l394 -500v500h12v-520h-12l-393 498v-498h-12v520zM267 621l137 161l9 -10l-137 -161z" />
    <glyph glyph-name="Ncaron.small" horiz-adv-x="597" 
d="M90 520h11l394 -500v500h12v-520h-12l-393 498v-498h-12v520zM167 772l9 10l132 -156l133 156l9 -10l-137 -161h-9z" />
    <glyph glyph-name="Ntilde.small" horiz-adv-x="597" 
d="M90 520h11l394 -500v500h12v-520h-12l-393 498v-498h-12v520zM181 640q-14 43 -1.5 77.5t56.5 34.5q31 0 46 -15.5t25 -33.5t21 -33.5t33 -15.5q38 0 46.5 30t-3.5 66l12 4q14 -43 1.5 -77.5t-56.5 -34.5q-26 0 -39 15.5t-22.5 33.5t-22.5 33.5t-41 15.5q-38 0 -46.5 -30
t3.5 -66z" />
    <glyph glyph-name="Ncommaaccent.small" horiz-adv-x="597" 
d="M90 520h11l394 -500v500h12v-520h-12l-393 498v-498h-12v520zM229 -201l62 148l11 -5l-62 -148z" />
    <glyph glyph-name="Ograve.small" horiz-adv-x="593" 
d="M50 257q0 66 20.5 116.5t54.5 84t79 50.5t94 17q40 0 83.5 -14t79.5 -44.5t59 -80.5t23 -121q0 -67 -20.5 -118t-54 -84.5t-78 -50.5t-92.5 -17q-41 0 -85 13.5t-80 44.5t-59.5 81.5t-23.5 122.5zM531 265q0 68 -22 115t-55.5 76.5t-75 43t-80.5 13.5q-46 0 -89 -16.5
t-75.5 -48.5t-52 -80t-19.5 -111q0 -69 22 -117t56.5 -77t76.5 -42.5t81 -13.5q46 0 88 16t74 48.5t51.5 81t19.5 112.5zM197 772l9 10l137 -161l-9 -10z" />
    <glyph glyph-name="Oacute.small" horiz-adv-x="593" 
d="M50 257q0 66 20.5 116.5t54.5 84t79 50.5t94 17q40 0 83.5 -14t79.5 -44.5t59 -80.5t23 -121q0 -67 -20.5 -118t-54 -84.5t-78 -50.5t-92.5 -17q-41 0 -85 13.5t-80 44.5t-59.5 81.5t-23.5 122.5zM531 265q0 68 -22 115t-55.5 76.5t-75 43t-80.5 13.5q-46 0 -89 -16.5
t-75.5 -48.5t-52 -80t-19.5 -111q0 -69 22 -117t56.5 -77t76.5 -42.5t81 -13.5q46 0 88 16t74 48.5t51.5 81t19.5 112.5zM247 621l137 161l9 -10l-137 -161z" />
    <glyph glyph-name="Ocircumflex.small" horiz-adv-x="593" 
d="M50 257q0 66 20.5 116.5t54.5 84t79 50.5t94 17q40 0 83.5 -14t79.5 -44.5t59 -80.5t23 -121q0 -67 -20.5 -118t-54 -84.5t-78 -50.5t-92.5 -17q-41 0 -85 13.5t-80 44.5t-59.5 81.5t-23.5 122.5zM531 265q0 68 -22 115t-55.5 76.5t-75 43t-80.5 13.5q-46 0 -89 -16.5
t-75.5 -48.5t-52 -80t-19.5 -111q0 -69 22 -117t56.5 -77t76.5 -42.5t81 -13.5q46 0 88 16t74 48.5t51.5 81t19.5 112.5zM155 621l137 161h9l137 -161l-9 -10l-132 156l-133 -156z" />
    <glyph glyph-name="Otilde.small" horiz-adv-x="593" 
d="M50 257q0 66 20.5 116.5t54.5 84t79 50.5t94 17q40 0 83.5 -14t79.5 -44.5t59 -80.5t23 -121q0 -67 -20.5 -118t-54 -84.5t-78 -50.5t-92.5 -17q-41 0 -85 13.5t-80 44.5t-59.5 81.5t-23.5 122.5zM531 265q0 68 -22 115t-55.5 76.5t-75 43t-80.5 13.5q-46 0 -89 -16.5
t-75.5 -48.5t-52 -80t-19.5 -111q0 -69 22 -117t56.5 -77t76.5 -42.5t81 -13.5q46 0 88 16t74 48.5t51.5 81t19.5 112.5zM178 640q-14 43 -1.5 77.5t56.5 34.5q31 0 46 -15.5t25 -33.5t21 -33.5t33 -15.5q38 0 46.5 30t-3.5 66l12 4q14 -43 1.5 -77.5t-56.5 -34.5
q-26 0 -39 15.5t-22.5 33.5t-22.5 33.5t-41 15.5q-38 0 -46.5 -30t3.5 -66z" />
    <glyph glyph-name="Odieresis.small" horiz-adv-x="593" 
d="M50 257q0 66 20.5 116.5t54.5 84t79 50.5t94 17q40 0 83.5 -14t79.5 -44.5t59 -80.5t23 -121q0 -67 -20.5 -118t-54 -84.5t-78 -50.5t-92.5 -17q-41 0 -85 13.5t-80 44.5t-59.5 81.5t-23.5 122.5zM531 265q0 68 -22 115t-55.5 76.5t-75 43t-80.5 13.5q-46 0 -89 -16.5
t-75.5 -48.5t-52 -80t-19.5 -111q0 -69 22 -117t56.5 -77t76.5 -42.5t81 -13.5q46 0 88 16t74 48.5t51.5 81t19.5 112.5zM198 712q0 7 5 12.5t14 5.5q8 0 13 -5.5t5 -12.5t-5 -13t-13 -6q-9 0 -14 6t-5 13zM358 712q0 7 5 12.5t14 5.5q8 0 13 -5.5t5 -12.5t-5 -13t-13 -6
q-9 0 -14 6t-5 13z" />
    <glyph glyph-name="Omacron.small" horiz-adv-x="593" 
d="M50 257q0 66 20.5 116.5t54.5 84t79 50.5t94 17q40 0 83.5 -14t79.5 -44.5t59 -80.5t23 -121q0 -67 -20.5 -118t-54 -84.5t-78 -50.5t-92.5 -17q-41 0 -85 13.5t-80 44.5t-59.5 81.5t-23.5 122.5zM531 265q0 68 -22 115t-55.5 76.5t-75 43t-80.5 13.5q-46 0 -89 -16.5
t-75.5 -48.5t-52 -80t-19.5 -111q0 -69 22 -117t56.5 -77t76.5 -42.5t81 -13.5q46 0 88 16t74 48.5t51.5 81t19.5 112.5zM178 735h236v-12h-236v12z" />
    <glyph glyph-name="Obreve.small" horiz-adv-x="593" 
d="M50 258q0 66 20.5 116.5t54.5 84t79 50.5t94 17q40 0 83.5 -14t79.5 -44.5t59 -80.5t23 -121q0 -67 -20.5 -118t-54 -84.5t-78 -50.5t-92.5 -17q-41 0 -85 13.5t-80 44.5t-59.5 81.5t-23.5 122.5zM531 266q0 68 -22 115t-55.5 76.5t-75 43t-80.5 13.5q-46 0 -89 -16.5
t-75.5 -48.5t-52 -80t-19.5 -111q0 -69 22 -117t56.5 -77t76.5 -42.5t81 -13.5q46 0 88 16t74 48.5t51.5 81t19.5 112.5zM296 644q-41 0 -66.5 16t-39.5 38t-18.5 44t-4.5 34h12q0 -11 4.5 -31.5t17 -40t35.5 -34t60 -14.5t60.5 14.5t36 34t16.5 40t4 31.5h12
q0 -12 -4.5 -34t-18.5 -44t-39.5 -38t-66.5 -16z" />
    <glyph glyph-name="Ohungarumlaut.small" horiz-adv-x="593" 
d="M50 257q0 66 20.5 116.5t54.5 84t79 50.5t94 17q40 0 83.5 -14t79.5 -44.5t59 -80.5t23 -121q0 -67 -20.5 -118t-54 -84.5t-78 -50.5t-92.5 -17q-41 0 -85 13.5t-80 44.5t-59.5 81.5t-23.5 122.5zM531 265q0 68 -22 115t-55.5 76.5t-75 43t-80.5 13.5q-46 0 -89 -16.5
t-75.5 -48.5t-52 -80t-19.5 -111q0 -69 22 -117t56.5 -77t76.5 -42.5t81 -13.5q46 0 88 16t74 48.5t51.5 81t19.5 112.5zM214 622l71 162l11 -5l-71 -162zM354 622l71 162l11 -5l-71 -162z" />
    <glyph glyph-name="Oslash.small" horiz-adv-x="593" 
d="M50 257q0 66 20.5 116.5t54.5 84t79 50.5t94 17q43 0 89 -16t83 -51l57 62h16l-64 -70q28 -31 46 -77t18 -108q0 -67 -20.5 -118t-54 -84.5t-78 -50.5t-92.5 -17q-43 0 -90.5 15.5t-84.5 51.5l-57 -62h-16l65 71q-29 31 -47 77t-18 109zM62 257q0 -60 17 -104t44 -73
l339 369q-34 34 -78.5 49t-85.5 15q-46 0 -89 -16.5t-75.5 -48.5t-52 -80t-19.5 -111zM531 265q0 59 -17 102.5t-44 73.5l-339 -370q35 -34 80 -49t87 -15q46 0 88 16t74 48.5t51.5 81t19.5 112.5z" />
    <glyph glyph-name="Oslashacute.small" horiz-adv-x="593" 
d="M50 257q0 66 20.5 116.5t54.5 84t79 50.5t94 17q43 0 89 -16t83 -51l57 62h16l-64 -70q28 -31 46 -77t18 -108q0 -67 -20.5 -118t-54 -84.5t-78 -50.5t-92.5 -17q-43 0 -90.5 15.5t-84.5 51.5l-57 -62h-16l65 71q-29 31 -47 77t-18 109zM62 257q0 -60 17 -104t44 -73
l339 369q-34 34 -78.5 49t-85.5 15q-46 0 -89 -16.5t-75.5 -48.5t-52 -80t-19.5 -111zM531 265q0 59 -17 102.5t-44 73.5l-339 -370q35 -34 80 -49t87 -15q46 0 88 16t74 48.5t51.5 81t19.5 112.5zM247 621l137 161l9 -10l-137 -161z" />
    <glyph glyph-name="OE.small" horiz-adv-x="846" 
d="M50 257q0 62 17.5 112t48 84.5t72 53t90.5 18.5q34 0 67.5 -10.5t62 -32.5t50.5 -55.5t33 -79.5v168h325v-12h-313v-225h247v-12h-247v-249h312v-12h-324v174q-19 -87 -77 -135.5t-136 -48.5q-41 0 -82 15t-73 47t-52.5 81.5t-20.5 118.5zM491 265q0 64 -18.5 111t-49 77
t-68.5 45t-77 15q-46 0 -86 -17.5t-68.5 -50.5t-45 -81t-16.5 -107q0 -65 19 -112.5t49.5 -78t69.5 -45t78 -14.5q46 0 85 17.5t67.5 50.5t44.5 81.5t16 108.5z" />
    <glyph glyph-name="Racute.small" horiz-adv-x="515" 
d="M488 41h12q0 -23 -13.5 -34.5t-35.5 -11.5q-39 0 -50 31t-11 108q0 63 -42 92.5t-111 29.5h-135v-256h-12v520h160q92 0 141 -32t49 -97q0 -69 -43 -98t-103 -33q51 -10 79.5 -41t28.5 -85q0 -62 6.5 -94.5t42.5 -32.5q16 0 26.5 7.5t10.5 26.5zM250 508h-148v-240h161
q32 0 62 5.5t52.5 19t36.5 37.5t14 61q0 60 -47 88.5t-131 28.5zM177 621l137 161l9 -10l-137 -161z" />
    <glyph glyph-name="Rcaron.small" horiz-adv-x="515" 
d="M488 41h12q0 -23 -13.5 -34.5t-35.5 -11.5q-39 0 -50 31t-11 108q0 63 -42 92.5t-111 29.5h-135v-256h-12v520h160q92 0 141 -32t49 -97q0 -69 -43 -98t-103 -33q51 -10 79.5 -41t28.5 -85q0 -62 6.5 -94.5t42.5 -32.5q16 0 26.5 7.5t10.5 26.5zM250 508h-148v-240h161
q32 0 62 5.5t52.5 19t36.5 37.5t14 61q0 60 -47 88.5t-131 28.5zM117 772l9 10l132 -156l133 156l9 -10l-137 -161h-9z" />
    <glyph glyph-name="Rcommaaccent.small" horiz-adv-x="515" 
d="M488 41h12q0 -23 -13.5 -34.5t-35.5 -11.5q-39 0 -50 31t-11 108q0 63 -42 92.5t-111 29.5h-135v-256h-12v520h160q92 0 141 -32t49 -97q0 -69 -43 -98t-103 -33q51 -10 79.5 -41t28.5 -85q0 -62 6.5 -94.5t42.5 -32.5q16 0 26.5 7.5t10.5 26.5zM250 508h-148v-240h161
q32 0 62 5.5t52.5 19t36.5 37.5t14 61q0 60 -47 88.5t-131 28.5zM192 -201l62 148l11 -5l-62 -148z" />
    <glyph glyph-name="germandbls.small" horiz-adv-x="912" 
d="M224 7q34 0 65.5 7t54.5 22t37 39t14 57q0 56 -38 83t-125 46q-95 21 -137 51t-42 87q0 64 46.5 95t118.5 31q71 0 120 -32t49 -87h-12q0 26 -12.5 46t-34 33.5t-50 20.5t-60.5 7q-64 0 -108.5 -27t-44.5 -87q0 -54 41.5 -80.5t127.5 -45.5q95 -22 134 -52t39 -89
q0 -35 -14.5 -61t-39.5 -43t-58.5 -25t-70.5 -8q-86 0 -135 38.5t-49 107.5h12q0 -64 47 -99t125 -35zM684 7q34 0 65.5 7t54.5 22t37 39t14 57q0 56 -38 83t-125 46q-95 21 -137 51t-42 87q0 64 46.5 95t118.5 31q71 0 120 -32t49 -87h-12q0 26 -12.5 46t-34 33.5t-50 20.5
t-60.5 7q-64 0 -108.5 -27t-44.5 -87q0 -54 41.5 -80.5t127.5 -45.5q95 -22 134 -52t39 -89q0 -35 -14.5 -61t-39.5 -43t-58.5 -25t-70.5 -8q-86 0 -135 38.5t-49 107.5h12q0 -64 47 -99t125 -35z" />
    <glyph glyph-name="Sacute.small" horiz-adv-x="452" 
d="M224 7q34 0 65.5 7t54.5 22t37 39t14 57q0 56 -38 83t-125 46q-95 21 -137 51t-42 87q0 64 46.5 95t118.5 31q71 0 120 -32t49 -87h-12q0 26 -12.5 46t-34 33.5t-50 20.5t-60.5 7q-64 0 -108.5 -27t-44.5 -87q0 -54 41.5 -80.5t127.5 -45.5q95 -22 134 -52t39 -89
q0 -35 -14.5 -61t-39.5 -43t-58.5 -25t-70.5 -8q-86 0 -135 38.5t-49 107.5h12q0 -64 47 -99t125 -35zM177 621l137 161l9 -10l-137 -161z" />
    <glyph glyph-name="Scircumflex.small" horiz-adv-x="452" 
d="M224 7q34 0 65.5 7t54.5 22t37 39t14 57q0 56 -38 83t-125 46q-95 21 -137 51t-42 87q0 64 46.5 95t118.5 31q71 0 120 -32t49 -87h-12q0 26 -12.5 46t-34 33.5t-50 20.5t-60.5 7q-64 0 -108.5 -27t-44.5 -87q0 -54 41.5 -80.5t127.5 -45.5q95 -22 134 -52t39 -89
q0 -35 -14.5 -61t-39.5 -43t-58.5 -25t-70.5 -8q-86 0 -135 38.5t-49 107.5h12q0 -64 47 -99t125 -35zM79 621l137 161h9l137 -161l-9 -10l-132 156l-133 -156z" />
    <glyph glyph-name="Scaron.small" horiz-adv-x="452" 
d="M224 7q34 0 65.5 7t54.5 22t37 39t14 57q0 56 -38 83t-125 46q-95 21 -137 51t-42 87q0 64 46.5 95t118.5 31q71 0 120 -32t49 -87h-12q0 26 -12.5 46t-34 33.5t-50 20.5t-60.5 7q-64 0 -108.5 -27t-44.5 -87q0 -54 41.5 -80.5t127.5 -45.5q95 -22 134 -52t39 -89
q0 -35 -14.5 -61t-39.5 -43t-58.5 -25t-70.5 -8q-86 0 -135 38.5t-49 107.5h12q0 -64 47 -99t125 -35zM79 772l9 10l132 -156l133 156l9 -10l-137 -161h-9z" />
    <glyph glyph-name="Scedilla.small" horiz-adv-x="452" 
d="M224 7q34 0 65.5 7t54.5 22t37 39t14 57q0 56 -38 83t-125 46q-95 21 -137 51t-42 87q0 64 46.5 95t118.5 31q71 0 120 -32t49 -87h-12q0 26 -12.5 46t-34 33.5t-50 20.5t-60.5 7q-64 0 -108.5 -27t-44.5 -87q0 -54 41.5 -80.5t127.5 -45.5q95 -22 134 -52t39 -89
q0 -35 -14.5 -61t-39.5 -43t-58.5 -25t-70.5 -8q-86 0 -135 38.5t-49 107.5h12q0 -64 47 -99t125 -35zM187 -120h12q-1 -26 11 -39.5t37 -13.5q22 0 37.5 12.5t15.5 40.5q0 37 -25.5 46.5t-61.5 1.5l-8 3l21 72l11 -3l-17 -60q38 7 65 -6.5t27 -53.5q0 -34 -19.5 -49.5
t-45.5 -15.5q-31 0 -46 17t-14 48z" />
    <glyph glyph-name="Scommaaccent.small" horiz-adv-x="452" 
d="M224 7q34 0 65.5 7t54.5 22t37 39t14 57q0 56 -38 83t-125 46q-95 21 -137 51t-42 87q0 64 46.5 95t118.5 31q71 0 120 -32t49 -87h-12q0 26 -12.5 46t-34 33.5t-50 20.5t-60.5 7q-64 0 -108.5 -27t-44.5 -87q0 -54 41.5 -80.5t127.5 -45.5q95 -22 134 -52t39 -89
q0 -35 -14.5 -61t-39.5 -43t-58.5 -25t-70.5 -8q-86 0 -135 38.5t-49 107.5h12q0 -64 47 -99t125 -35zM164 -201l62 148l11 -5l-62 -148z" />
    <glyph glyph-name="Tcaron.small" horiz-adv-x="503" 
d="M10 515h483v-12h-236v-503h-12v503h-235v12zM110 772l9 10l132 -156l133 156l9 -10l-137 -161h-9z" />
    <glyph glyph-name="Tcommaaccent.small" horiz-adv-x="503" 
d="M10 515h483v-12h-236v-503h-12v503h-235v12zM183 -201l62 148l11 -5l-62 -148z" />
    <glyph glyph-name="Tcedilla.small" horiz-adv-x="503" 
d="M10 515h483v-12h-236v-503h-12v503h-235v12zM208 -120h12q-1 -26 11 -39.5t37 -13.5q22 0 37.5 12.5t15.5 40.5q0 37 -25.5 46.5t-61.5 1.5l-8 3l21 72l11 -3l-17 -60q38 7 65 -6.5t27 -53.5q0 -34 -19.5 -49.5t-45.5 -15.5q-31 0 -46 17t-14 48z" />
    <glyph glyph-name="Tbar.small" horiz-adv-x="503" 
d="M133 288h112v215h-235v12h483v-12h-236v-215h112v-12h-112v-276h-12v276h-112v12z" />
    <glyph glyph-name="Ugrave.small" horiz-adv-x="562" 
d="M85 227v293h12v-293q0 -45 8.5 -85t29.5 -69.5t57 -47t90 -17.5t90 17.5t56.5 47.5t28.5 70t8 84v293h12v-293q0 -47 -9 -89.5t-31 -73.5t-60 -49.5t-95 -18.5t-95.5 18.5t-61 50t-31.5 73.5t-9 89zM195 772l9 10l137 -161l-9 -10z" />
    <glyph glyph-name="Uacute.small" horiz-adv-x="562" 
d="M85 227v293h12v-293q0 -45 8.5 -85t29.5 -69.5t57 -47t90 -17.5t90 17.5t56.5 47.5t28.5 70t8 84v293h12v-293q0 -47 -9 -89.5t-31 -73.5t-60 -49.5t-95 -18.5t-95.5 18.5t-61 50t-31.5 73.5t-9 89zM247 621l137 161l9 -10l-137 -161z" />
    <glyph glyph-name="Ucircumflex.small" horiz-adv-x="562" 
d="M85 227v293h12v-293q0 -45 8.5 -85t29.5 -69.5t57 -47t90 -17.5t90 17.5t56.5 47.5t28.5 70t8 84v293h12v-293q0 -47 -9 -89.5t-31 -73.5t-60 -49.5t-95 -18.5t-95.5 18.5t-61 50t-31.5 73.5t-9 89zM140 621l137 161h9l137 -161l-9 -10l-132 156l-133 -156z" />
    <glyph glyph-name="Utilde.small" horiz-adv-x="562" 
d="M85 227v293h12v-293q0 -45 8.5 -85t29.5 -69.5t57 -47t90 -17.5t90 17.5t56.5 47.5t28.5 70t8 84v293h12v-293q0 -47 -9 -89.5t-31 -73.5t-60 -49.5t-95 -18.5t-95.5 18.5t-61 50t-31.5 73.5t-9 89zM164 640q-14 43 -1.5 77.5t56.5 34.5q31 0 46 -15.5t25 -33.5t21 -33.5
t33 -15.5q38 0 46.5 30t-3.5 66l12 4q14 -43 1.5 -77.5t-56.5 -34.5q-26 0 -39 15.5t-22.5 33.5t-22.5 33.5t-41 15.5q-38 0 -46.5 -30t3.5 -66z" />
    <glyph glyph-name="Udieresis.small" horiz-adv-x="562" 
d="M85 227v293h12v-293q0 -45 8.5 -85t29.5 -69.5t57 -47t90 -17.5t90 17.5t56.5 47.5t28.5 70t8 84v293h12v-293q0 -47 -9 -89.5t-31 -73.5t-60 -49.5t-95 -18.5t-95.5 18.5t-61 50t-31.5 73.5t-9 89zM183 712q0 7 5 12.5t14 5.5q8 0 13 -5.5t5 -12.5t-5 -13t-13 -6
q-9 0 -14 6t-5 13zM343 712q0 7 5 12.5t14 5.5q8 0 13 -5.5t5 -12.5t-5 -13t-13 -6q-9 0 -14 6t-5 13z" />
    <glyph glyph-name="Umacron.small" horiz-adv-x="562" 
d="M85 227v293h12v-293q0 -45 8.5 -85t29.5 -69.5t57 -47t90 -17.5t90 17.5t56.5 47.5t28.5 70t8 84v293h12v-293q0 -47 -9 -89.5t-31 -73.5t-60 -49.5t-95 -18.5t-95.5 18.5t-61 50t-31.5 73.5t-9 89zM163 735h236v-12h-236v12z" />
    <glyph glyph-name="Ubreve.small" horiz-adv-x="562" 
d="M85 227v293h12v-293q0 -45 8.5 -85t29.5 -69.5t57 -47t90 -17.5t90 17.5t56.5 47.5t28.5 70t8 84v293h12v-293q0 -47 -9 -89.5t-31 -73.5t-60 -49.5t-95 -18.5t-95.5 18.5t-61 50t-31.5 73.5t-9 89zM281 644q-41 0 -66.5 16t-39.5 38t-18.5 44t-4.5 34h12
q0 -11 4.5 -31.5t17 -40t35.5 -34t60 -14.5t60.5 14.5t36 34t16.5 40t4 31.5h12q0 -12 -4.5 -34t-18.5 -44t-39.5 -38t-66.5 -16z" />
    <glyph glyph-name="Uring.small" horiz-adv-x="562" 
d="M85 227v293h12v-293q0 -45 8.5 -85t29.5 -69.5t57 -47t90 -17.5t90 17.5t56.5 47.5t28.5 70t8 84v293h12v-293q0 -47 -9 -89.5t-31 -73.5t-60 -49.5t-95 -18.5t-95.5 18.5t-61 50t-31.5 73.5t-9 89zM204 721q0 33 21.5 55.5t55.5 22.5q35 0 56.5 -22.5t21.5 -55.5
q0 -32 -21.5 -54.5t-56.5 -22.5q-34 0 -55.5 22.5t-21.5 54.5zM347 721q0 28 -18.5 47t-47.5 19q-28 0 -46.5 -19t-18.5 -47t18.5 -46.5t46.5 -18.5q29 0 47.5 18.5t18.5 46.5z" />
    <glyph glyph-name="Uhungarumlaut.small" horiz-adv-x="562" 
d="M85 227v293h12v-293q0 -45 8.5 -85t29.5 -69.5t57 -47t90 -17.5t90 17.5t56.5 47.5t28.5 70t8 84v293h12v-293q0 -47 -9 -89.5t-31 -73.5t-60 -49.5t-95 -18.5t-95.5 18.5t-61 50t-31.5 73.5t-9 89zM208 622l71 162l11 -5l-71 -162zM348 622l71 162l11 -5l-71 -162z" />
    <glyph glyph-name="Uogonek.small" horiz-adv-x="562" 
d="M85 227v293h12v-293q0 -45 8.5 -85t29.5 -69.5t57 -47t90 -17.5t90 17.5t56.5 47.5t28.5 70t8 84v293h12v-293q0 -47 -9 -89.5t-31 -73.5t-60 -49.5t-95 -18.5t-95.5 18.5t-61 50t-31.5 73.5t-9 89zM339 -109q0 41 26 89t60 87l9 -7q-28 -32 -55.5 -78.5t-27.5 -90.5
q0 -33 13 -48.5t38 -15.5q24 0 35 16.5t11 41.5h12q0 -31 -14 -50.5t-44 -19.5t-46.5 18t-16.5 58z" />
    <glyph glyph-name="Wgrave.small" horiz-adv-x="766" 
d="M10 520h14l160 -501l193 492h12l192 -492l161 501h14l-168 -522h-12l-193 494l-194 -494h-12zM257 772l9 10l137 -161l-9 -10z" />
    <glyph glyph-name="Wacute.small" horiz-adv-x="766" 
d="M10 520h14l160 -501l193 492h12l192 -492l161 501h14l-168 -522h-12l-193 494l-194 -494h-12zM357 621l137 161l9 -10l-137 -161z" />
    <glyph glyph-name="Wcircumflex.small" horiz-adv-x="766" 
d="M10 520h14l160 -501l193 492h12l192 -492l161 501h14l-168 -522h-12l-193 494l-194 -494h-12zM242 621l137 161h9l137 -161l-9 -10l-132 156l-133 -156z" />
    <glyph glyph-name="Wdieresis.small" horiz-adv-x="766" 
d="M10 520h14l160 -501l193 492h12l192 -492l161 501h14l-168 -522h-12l-193 494l-194 -494h-12zM285 712q0 7 5 12.5t14 5.5q8 0 13 -5.5t5 -12.5t-5 -13t-13 -6q-9 0 -14 6t-5 13zM445 712q0 7 5 12.5t14 5.5q8 0 13 -5.5t5 -12.5t-5 -13t-13 -6q-9 0 -14 6t-5 13z" />
    <glyph glyph-name="Ygrave.small" horiz-adv-x="437" 
d="M432 520l-207 -293v-227h-12v227l-208 293h13l201 -279l199 279h14zM125 772l9 10l137 -161l-9 -10z" />
    <glyph glyph-name="Yacute.small" horiz-adv-x="437" 
d="M432 520l-207 -293v-227h-12v227l-208 293h13l201 -279l199 279h14zM197 621l137 161l9 -10l-137 -161z" />
    <glyph glyph-name="Ycircumflex.small" horiz-adv-x="437" 
d="M432 520l-207 -293v-227h-12v227l-208 293h13l201 -279l199 279h14zM77 621l137 161h9l137 -161l-9 -10l-132 156l-133 -156z" />
    <glyph glyph-name="Ydieresis.small" horiz-adv-x="437" 
d="M432 520l-207 -293v-227h-12v227l-208 293h13l201 -279l199 279h14zM119 712q0 7 5 12.5t14 5.5q8 0 13 -5.5t5 -12.5t-5 -13t-13 -6q-9 0 -14 6t-5 13zM279 712q0 7 5 12.5t14 5.5q8 0 13 -5.5t5 -12.5t-5 -13t-13 -6q-9 0 -14 6t-5 13z" />
    <glyph glyph-name="Zacute.small" horiz-adv-x="475" 
d="M40 15l364 488h-357v12h374v-10l-364 -488h378v-12h-395v10zM202 621l137 161l9 -10l-137 -161z" />
    <glyph glyph-name="Zcaron.small" horiz-adv-x="475" 
d="M40 15l364 488h-357v12h374v-10l-364 -488h378v-12h-395v10zM112 772l9 10l132 -156l133 156l9 -10l-137 -161h-9z" />
    <glyph glyph-name="Zdotaccent.small" horiz-adv-x="475" 
d="M40 15l364 488h-357v12h374v-10l-364 -488h378v-12h-395v10zM238 693q-9 0 -14 6t-5 13t5 12.5t14 5.5q8 0 13 -5.5t5 -12.5t-5 -13t-13 -6z" />
    <glyph glyph-name="Schwa.small" horiz-adv-x="593" 
d="M544 270q0 -125 -67.5 -200t-175.5 -75q-57 0 -92 16t-53.5 39.5t-25 50.5t-6.5 49q0 16 1 27t2 15h398q3 16 5 33.5t2 35.5v11q0 59 -18.5 104t-50 75.5t-73 46t-86.5 15.5q-93 0 -144 -46.5t-51 -116.5h-14q0 79 56 127t153 48q49 0 92.5 -16t76 -47.5t52 -79.5
t19.5 -112zM301 7q81 0 140.5 47t80.5 126h-384q0 -2 -0.5 -8t-0.5 -19q0 -19 5.5 -44.5t23 -48t50 -38t85.5 -15.5z" />
    <glyph glyph-name="Eng.small" horiz-adv-x="597" 
d="M367 -250q-37 0 -62.5 11t-41 28t-22.5 37.5t-7 40.5h12q0 -18 7 -36.5t21.5 -33.5t37.5 -25t55 -10q76 0 102 50.5t26 123.5v64l-393 498v-498h-12v520h11l394 -500v500h12v-584q0 -81 -29 -133.5t-111 -52.5z" />
    <glyph glyph-name="Eth.small" horiz-adv-x="571" 
d="M20 264h70v256h122q87 0 146.5 -21.5t95.5 -56.5t51.5 -81.5t15.5 -95.5q0 -76 -23.5 -127.5t-64 -81.5t-95.5 -43t-117 -13h-131v252h-70v12zM256 252h-154v-240h119q59 0 111.5 12t91.5 41t62 78t23 122q0 48 -15 92t-49.5 77.5t-92 53.5t-140.5 20h-110v-244h154v-12z
" />
    <glyph glyph-name="Thorn.small" horiz-adv-x="443" 
d="M102 0h-12v520h12v-109h136q84 0 137 -35.5t53 -108.5q0 -40 -15.5 -67.5t-40 -44.5t-56.5 -25t-65 -8h-149v-122zM238 399h-136v-265h149q30 0 59.5 7t53 22t38 41t14.5 63q0 69 -50.5 100.5t-127.5 31.5z" />
    <glyph glyph-name="grave.cap" horiz-adv-x="500" 
d="M162 813l6 12l169 -83l-6 -12z" />
    <glyph glyph-name="acute.cap" horiz-adv-x="500" 
d="M162 742l169 83l6 -12l-169 -83z" />
    <glyph glyph-name="circumflex.cap" horiz-adv-x="500" 
d="M109 742l139 83h4l139 -83l-6 -12l-135 81l-135 -81z" />
    <glyph glyph-name="caron.cap" horiz-adv-x="500" 
d="M109 813l6 12l135 -81l135 81l6 -12l-139 -83h-4z" />
    <glyph glyph-name="caronSlovak" horiz-adv-x="500" 
d="M207 532l75 178l11 -5l-75 -178z" />
    <glyph glyph-name="tilde.cap" horiz-adv-x="500" 
d="M317 750q37 0 45.5 21.5t0.5 46.5l14 5q11 -31 -2 -58.5t-59 -27.5q-25 0 -38 11.5t-23.5 24.5t-24 24.5t-38.5 11.5q-35 0 -44 -21.5t-2 -46.5l-14 -5q-10 31 3 58.5t59 27.5q28 0 43 -11.5t26 -24.5t22 -24.5t32 -11.5z" />
    <glyph glyph-name="dieresis.cap" horiz-adv-x="500" 
d="M153 778q0 7 5 12.5t14 5.5q8 0 13 -5.5t5 -12.5t-5 -13t-13 -6q-9 0 -14 6t-5 13zM313 778q0 7 5 12.5t14 5.5q8 0 13 -5.5t5 -12.5t-5 -13t-13 -6q-9 0 -14 6t-5 13z" />
    <glyph glyph-name="macron.cap" horiz-adv-x="500" 
d="M132 791h236v-12h-236v12z" />
    <glyph glyph-name="breve.cap" horiz-adv-x="500" 
d="M117 832h15q0 -10 6 -25t19.5 -29t36.5 -24t56 -10t56 10t36.5 24t19.5 29t6 25h15q0 -11 -6 -28.5t-21 -33.5t-41 -28t-65 -12t-65 12t-41 28t-21 33.5t-6 28.5z" />
    <glyph glyph-name="ring.cap" horiz-adv-x="500" 
d="M179 789q0 30 19.5 50.5t50.5 20.5t51 -20.5t20 -50.5q0 -29 -20 -49.5t-51 -20.5t-50.5 20.5t-19.5 49.5zM306 789q0 24 -16 40.5t-41 16.5t-40.5 -16.5t-15.5 -40.5q0 -23 15.5 -39.5t40.5 -16.5t41 16.5t16 39.5z" />
    <glyph glyph-name="hungarumlaut.cap" horiz-adv-x="500" 
d="M141 727l99 67l8 -12l-99 -67zM251 727l99 67l8 -12l-99 -67z" />
    <glyph glyph-name="dotaccent.cap" horiz-adv-x="500" 
d="M231 778q0 7 5 12.5t14 5.5q8 0 13 -5.5t5 -12.5t-5 -13t-13 -6q-9 0 -14 6t-5 13z" />
    <glyph glyph-name="commaaccent.alt" horiz-adv-x="500" 
d="M213 569l62 148l11 -5l-62 -148z" />
    <glyph glyph-name="hyphen.cap" horiz-adv-x="337" 
d="M60 408h217v-12h-217v12z" />
    <glyph glyph-name="exclamdown.cap" horiz-adv-x="277" 
d="M157 676q0 -7 -5 -12.5t-14 -5.5q-8 0 -13 5.5t-5 12.5t5 13t13 6q9 0 14 -6t5 -13zM132 513h14v-513h-14v513z" />
    <glyph glyph-name="exclam.small" horiz-adv-x="237" 
d="M125 157h-12v363h12v-363zM100 14q0 7 5 12.5t14 5.5q8 0 13 -5.5t5 -12.5t-5 -13t-13 -6q-9 0 -14 6t-5 13z" />
    <glyph glyph-name="exclamdown.small" horiz-adv-x="237" 
d="M137 506q0 -7 -5 -12.5t-14 -5.5q-8 0 -13 5.5t-5 12.5t5 13t13 6q9 0 14 -6t5 -13zM112 363h12v-363h-12v363z" />
    <glyph glyph-name="questiondown.cap" horiz-adv-x="456" 
d="M304 676q0 -7 -5 -12.5t-14 -5.5q-8 0 -13 5.5t-5 12.5t5 13t13 6q9 0 14 -6t5 -13zM277 400v113h14v-127q-29 0 -68.5 -5.5t-74.5 -25.5t-59.5 -58.5t-24.5 -103.5q0 -81 44 -132.5t134 -51.5q67 0 108.5 36.5t41.5 98.5h14q0 -68 -44.5 -108.5t-119.5 -40.5
q-96 0 -144 55t-48 143q0 68 24.5 108.5t59.5 62.5t74.5 29t68.5 7z" />
    <glyph glyph-name="question.small" horiz-adv-x="359" 
d="M144 157h-12v104q22 0 50.5 4.5t54 18t43 39t17.5 67.5q0 55 -29.5 89t-92.5 34q-54 0 -82.5 -25.5t-29.5 -69.5h-13q0 49 32.5 78t93.5 29q67 0 100 -36t33 -99q0 -44 -17.5 -71.5t-42.5 -42.5t-54 -21t-51 -6v-92zM121 14q0 7 5 12.5t14 5.5q8 0 13 -5.5t5 -12.5
t-5 -13t-13 -6q-9 0 -14 6t-5 13z" />
    <glyph glyph-name="questiondown.small" horiz-adv-x="359" 
d="M238 506q0 -7 -5 -12.5t-14 -5.5q-8 0 -13 5.5t-5 12.5t5 13t13 6q9 0 14 -6t5 -13zM215 363h12v-104q-22 0 -50.5 -4.5t-54 -18t-43 -39t-17.5 -67.5q0 -55 29.5 -89t92.5 -34q54 0 82.5 25.5t29.5 69.5h13q0 -49 -32.5 -78t-93.5 -29q-67 0 -100 36t-33 99
q0 44 17.5 71.5t42.5 42.5t54 21t51 6v92z" />
    <glyph glyph-name="guilsinglleft.cap" horiz-adv-x="244" 
d="M184 191l-9 -7l-115 162v6l115 162l9 -7l-112 -158z" />
    <glyph glyph-name="guilsinglright.cap" horiz-adv-x="244" 
d="M184 346l-115 -162l-9 7l112 158l-112 158l9 7l115 -162v-6z" />
    <glyph glyph-name="guillemotleft.cap" horiz-adv-x="384" 
d="M184 191l-9 -7l-115 162v6l115 162l9 -7l-112 -158zM324 191l-9 -7l-115 162v6l115 162l9 -7l-112 -158z" />
    <glyph glyph-name="guillemotright.cap" horiz-adv-x="384" 
d="M324 346l-115 -162l-9 7l112 158l-112 158l9 7l115 -162v-6zM184 346l-115 -162l-9 7l112 158l-112 158l9 7l115 -162v-6z" />
    <glyph glyph-name="endash.cap" horiz-adv-x="500" 
d="M30 408h440v-12h-440v12z" />
    <glyph glyph-name="emdash.cap" horiz-adv-x="1000" 
d="M30 408h940v-12h-940v12z" />
    <glyph glyph-name="periodcentered.cap" horiz-adv-x="197" 
d="M80 408q0 7 5 12.5t14 5.5q8 0 13 -5.5t5 -12.5t-5 -13t-13 -6q-9 0 -14 6t-5 13z" />
    <glyph glyph-name="parenleft.cap" horiz-adv-x="248" 
d="M62 320q0 -101 21 -181.5t46 -136t46.5 -86t22.5 -32.5l-9 -7q-1 1 -23.5 32t-48 87.5t-47 138.5t-21.5 185q0 102 21 184t47 138.5t48 87.5t24 33l9 -7q-1 -2 -22.5 -32.5t-46.5 -86t-46 -136t-21 -181.5z" />
    <glyph glyph-name="parenright.cap" horiz-adv-x="248" 
d="M186 320q0 101 -21 181.5t-46 136t-46.5 86t-22.5 32.5l9 7q1 -1 23.5 -32t48 -87.5t47 -138.5t21.5 -185q0 -102 -21 -184t-47 -138.5t-48 -87.5t-24 -33l-9 7q1 2 22.5 32.5t46.5 86t46 136t21 181.5z" />
    <glyph glyph-name="parenleft.small" horiz-adv-x="215" 
d="M63 256q0 -80 14 -144t31.5 -109.5t34.5 -73t22 -35.5l-9 -7q-6 7 -23 34t-35.5 73.5t-33 112t-14.5 149.5t15 150.5t34 113t36 73.5t21 32l9 -7q-3 -4 -19.5 -30.5t-34.5 -72.5t-33 -111.5t-15 -147.5z" />
    <glyph glyph-name="parenright.small" horiz-adv-x="215" 
d="M152 256q0 80 -14 144t-31.5 109.5t-34.5 73t-22 35.5l9 7q6 -7 23 -34t35.5 -73.5t33 -112t14.5 -149.5t-15 -150.5t-34 -113t-36 -73.5t-21 -32l-9 7q3 4 19.5 30.5t34.5 72.5t33 111.5t15 147.5z" />
    <glyph glyph-name="bracketleft.cap" horiz-adv-x="283" 
d="M233 -112v-12h-133v896h133v-12h-121v-872h121z" />
    <glyph glyph-name="bracketright.cap" horiz-adv-x="283" 
d="M183 772v-896h-133v12h121v872h-121v12h133z" />
    <glyph glyph-name="bracketleft.small" horiz-adv-x="283" 
d="M233 -92v-12h-133v726h133v-12h-121v-702h121z" />
    <glyph glyph-name="bracketright.small" horiz-adv-x="283" 
d="M183 622v-726h-133v12h121v702h-121v12h133z" />
    <glyph glyph-name="braceleft.cap" horiz-adv-x="335" 
d="M177 229q0 -47 -1.5 -82.5t-3.5 -65.5t-3.5 -58t-1.5 -61q0 -43 20.5 -57.5t51.5 -14.5h16v-14h-16q-37 0 -61.5 18t-24.5 68q0 33 1.5 61t3.5 58t3.5 65.5t1.5 82.5q0 27 -10 44.5t-21.5 27.5t-21.5 14l-10 4v12l10 4t21.5 14t21.5 27.5t10 44.5q0 47 -1.5 82.5
t-3.5 65.5t-3.5 58t-1.5 61q0 50 24.5 68t61.5 18h16v-14h-16q-31 0 -51.5 -14.5t-20.5 -57.5q0 -33 1.5 -61t3.5 -58t3.5 -65.5t1.5 -82.5q0 -43 -21 -65.5t-36 -30.5q15 -8 36 -30.5t21 -65.5z" />
    <glyph glyph-name="braceright.cap" horiz-adv-x="335" 
d="M158 421q0 47 1.5 82.5t3.5 65.5t3.5 58t1.5 61q0 43 -20.5 57.5t-51.5 14.5h-16v14h16q37 0 61.5 -18t24.5 -68q0 -33 -1.5 -61t-3.5 -58t-3.5 -65.5t-1.5 -82.5q0 -27 10 -44.5t21.5 -27.5t21.5 -14l10 -4v-12l-10 -4t-21.5 -14t-21.5 -27.5t-10 -44.5q0 -47 1.5 -82.5
t3.5 -65.5t3.5 -58t1.5 -61q0 -50 -24.5 -68t-61.5 -18h-16v14h16q31 0 51.5 14.5t20.5 57.5q0 33 -1.5 61t-3.5 58t-3.5 65.5t-1.5 82.5q0 43 21 65.5t36 30.5q-15 8 -36 30.5t-21 65.5z" />
    <glyph glyph-name="braceleft.small" horiz-adv-x="335" 
d="M177 163q0 -57 -2.5 -94t-2.5 -88q0 -43 20.5 -57.5t51.5 -14.5h16v-14h-16q-37 0 -61.5 18t-24.5 68q0 51 2.5 88t2.5 94q0 27 -10 44.5t-21.5 27.5t-21.5 14l-10 4v12l10 4t21.5 14t21.5 27.5t10 44.5q0 32 -1 55t-1.5 42.5t-1.5 39.5t-1 45q0 50 24.5 68t61.5 18h16
v-14h-16q-31 0 -51.5 -14.5t-20.5 -57.5q0 -25 1 -45t1.5 -39.5t1.5 -42.5t1 -55q0 -43 -21 -65.5t-36 -30.5q15 -8 36 -30.5t21 -65.5z" />
    <glyph glyph-name="braceright.small" horiz-adv-x="335" 
d="M158 163q0 43 21 65.5t36 30.5q-15 8 -36 30.5t-21 65.5q0 32 1 55t1.5 42.5t1.5 39.5t1 45q0 43 -20.5 57.5t-51.5 14.5h-16v14h16q37 0 61.5 -18t24.5 -68q0 -25 -1 -45t-1.5 -39.5t-1.5 -42.5t-1 -55q0 -27 10 -44.5t21.5 -27.5t21.5 -14l10 -4v-12l-10 -4t-21.5 -14
t-21.5 -27.5t-10 -44.5q0 -57 2.5 -94t2.5 -88q0 -50 -24.5 -68t-61.5 -18h-16v14h16q31 0 51.5 14.5t20.5 57.5q0 51 -2.5 88t-2.5 94z" />
    <glyph glyph-name="at.cap" horiz-adv-x="766" 
d="M635 70l8 -8q-1 -1 -15 -14t-42.5 -28t-72.5 -27t-106 -12q-92 0 -159.5 27t-111 74t-65 112.5t-21.5 140.5q0 73 22.5 141.5t66 120.5t109.5 84t151 32q69 0 127.5 -21.5t100.5 -61.5t65.5 -98t23.5 -129t-20.5 -117t-49 -71.5t-59 -35.5t-51.5 -10q-37 0 -52.5 17
t-15.5 50q0 9 1 19.5t2 22.5q-19 -43 -53.5 -72.5t-80.5 -29.5q-52 0 -78.5 35t-26.5 89q0 37 11 73.5t31.5 65.5t49.5 47t65 18q45 0 70.5 -26.5t31.5 -68.5l5 32l8 48h12l-31 -194q-3 -17 -4 -32t-1 -27q0 -25 12.5 -40t43.5 -15q20 0 48.5 9.5t55 34.5t45.5 68t19 110
q0 68 -22.5 123.5t-63 94t-97 59.5t-122.5 21q-82 0 -145.5 -30.5t-106 -81.5t-64 -117t-21.5 -137q0 -73 20.5 -136t62.5 -108.5t107.5 -71.5t154.5 -26q59 0 102 11.5t70 25.5t41 26.5t15 13.5zM483 381q0 47 -23 79t-71 32q-34 0 -61 -17.5t-45.5 -45t-28.5 -61.5
t-10 -68q0 -49 22.5 -80.5t70.5 -31.5q34 0 61 18t46 46t29 62.5t10 66.5z" />
    <glyph glyph-name="at.small" horiz-adv-x="766" 
d="M491 216q-2 -16 -3.5 -29t-1.5 -23q0 -23 11.5 -37t37.5 -14q19 0 47.5 7.5t54.5 28.5t44.5 60t18.5 102q0 61 -21.5 110.5t-60 84t-92.5 53t-118 18.5q-79 0 -140.5 -27t-102 -72t-61.5 -104t-21 -123q0 -69 20 -125t60.5 -95.5t102 -61t144.5 -21.5q53 0 93 11.5
t67 25.5t41.5 26.5t15.5 13.5l9 -9q-1 -2 -16.5 -14.5t-43.5 -27t-70 -26.5t-96 -12q-87 0 -151 22.5t-105.5 63.5t-62 99.5t-20.5 129.5q0 66 21.5 127.5t64 108t106 74.5t145.5 28q67 0 123 -19.5t96 -55.5t62.5 -88t22.5 -115q0 -66 -20.5 -107.5t-49 -64t-59 -30.5
t-51.5 -8q-31 0 -44.5 17t-13.5 46q0 7 1 16.5t2 20.5q-19 -38 -53 -64.5t-78 -26.5q-51 0 -75 30.5t-24 79.5q0 32 10.5 65t29.5 59t47 42.5t62 16.5q43 0 68 -22.5t32 -57.5l7 40l5 33l12 -2zM487 292q0 42 -23 70.5t-68 28.5q-32 0 -57.5 -15.5t-43 -40t-27 -55
t-9.5 -60.5q0 -43 21 -70.5t66 -27.5q32 0 58.5 15.5t44.5 40t28 55t10 59.5z" />
    <glyph glyph-name="zeroslash" 
d="M277 -5q-42 0 -82.5 18.5t-71.5 58.5t-50.5 105t-19.5 157q0 83 17 147t46.5 107t70.5 65t90 22q41 0 80.5 -18t70.5 -57.5t50 -103t19 -153.5q0 -170 -62 -259t-158 -89zM67 334q0 -75 13.5 -131t35.5 -95l298 487q-28 34 -64 50t-73 16q-93 0 -151.5 -85.5
t-58.5 -241.5zM277 9q92 0 149 88t57 246q0 82 -16.5 141.5t-43.5 97.5l-298 -488q29 -44 69 -64.5t83 -20.5z" />
    <glyph glyph-name="zeroslash.tab" 
d="M277 -5q-42 0 -82.5 18.5t-71.5 58.5t-50.5 105t-19.5 157q0 83 17 147t46.5 107t70.5 65t90 22q41 0 80.5 -18t70.5 -57.5t50 -103t19 -153.5q0 -170 -62 -259t-158 -89zM67 334q0 -75 13.5 -131t35.5 -95l298 487q-28 34 -64 50t-73 16q-93 0 -151.5 -85.5
t-58.5 -241.5zM277 9q92 0 149 88t57 246q0 82 -16.5 141.5t-43.5 97.5l-298 -488q29 -44 69 -64.5t83 -20.5z" />
    <glyph glyph-name="zero.tab" 
d="M277 -5q-42 0 -82.5 18.5t-71.5 58.5t-50.5 105t-19.5 157q0 83 17 147t46.5 107t70.5 65t90 22q41 0 80.5 -18t70.5 -57.5t50 -103t19 -153.5q0 -170 -62 -259t-158 -89zM277 9q92 0 149 88t57 246q0 84 -17.5 145t-46 99t-65.5 56t-77 18q-93 0 -151.5 -85.5
t-58.5 -241.5q0 -86 17.5 -148t47 -101t67.5 -57.5t78 -18.5z" />
    <glyph glyph-name="one.tab" 
d="M139 5v14h200v639l-219 -39l-3 13l225 40h11v-653h158v-14h-372z" />
    <glyph glyph-name="two.tab" 
d="M490 5h-402v12q81 79 149 140.5t116 115t75 105t27 110.5q0 74 -43 122.5t-127 48.5q-54 0 -92 -20.5t-58.5 -54t-23.5 -75t14 -83.5h-14q-17 45 -13 89.5t26.5 79t63 56.5t97.5 22q91 0 137.5 -52.5t46.5 -132.5q0 -58 -26 -110t-73 -105.5t-113.5 -115t-146.5 -138.5
h380v-14z" />
    <glyph glyph-name="three.tab" 
d="M467 183q0 -88 -55 -138t-146 -50q-111 0 -157 52t-37 137h14q-9 -78 34.5 -126.5t145.5 -48.5q85 0 136 46t51 128t-56.5 118.5t-145.5 36.5h-77v14h75q36 0 69 9.5t58 28t40 47t15 66.5q0 74 -42.5 116t-120.5 42q-96 0 -137 -48t-30 -128h-15q-6 40 1.5 75t29.5 60.5
t59.5 40t91.5 14.5q85 0 131 -46t46 -126q0 -67 -42 -106.5t-102 -50.5q75 -9 120.5 -48.5t45.5 -114.5z" />
    <glyph glyph-name="four.tab" 
d="M521 224h-142v-224h-14v224h-316v11l319 437h11v-434h142v-14zM69 238h296v407z" />
    <glyph glyph-name="five.tab" 
d="M485 224q0 -50 -14 -92t-40.5 -72.5t-64.5 -47.5t-86 -17q-96 0 -149 48.5t-41 132.5h14q-10 -72 35.5 -119.5t140.5 -47.5q45 0 80.5 16.5t60 45t37.5 68t13 85.5q0 85 -48 139t-138 54q-43 0 -75.5 -12t-53 -27t-31 -27l-10.5 -12h-12v326h338v-14h-324v-289q7 8 21 20
t34.5 23t49 18.5t63.5 7.5q96 0 148 -57t52 -150z" />
    <glyph glyph-name="six.tab" 
d="M293 675q60 0 96 -18t54.5 -43t24 -52.5t5.5 -46.5h-15q0 16 -5 41t-22 48.5t-50 40t-88 16.5q-59 0 -100 -25.5t-66 -70.5t-36.5 -107.5t-11.5 -135.5q0 -34 2 -58t6 -52q1 50 18.5 87.5t45.5 62t65.5 36.5t79.5 12q36 0 70.5 -11.5t60.5 -35.5t42 -63.5t16 -94.5
q0 -50 -15.5 -89.5t-42.5 -66t-63.5 -40.5t-77.5 -14q-113 0 -167.5 81.5t-54.5 245.5q0 77 12.5 142.5t39.5 112t71 72.5t106 26zM295 396q-50 0 -87 -16.5t-61 -43.5t-35.5 -63t-11.5 -75t12 -73.5t35.5 -60t58.5 -40.5t80 -15q38 0 72 13t59 38t39.5 61.5t14.5 83.5
q0 51 -15 87.5t-40 59.5t-56.5 33.5t-64.5 10.5z" />
    <glyph glyph-name="seven.tab" 
d="M200 0h-15q0 58 21 131t60.5 156t96.5 175.5t128 188.5h-417v-137h-14v151h451v-11q-71 -96 -129 -190t-98 -177.5t-62 -157t-22 -129.5z" />
    <glyph glyph-name="eight.tab" 
d="M275 -5q-90 0 -149.5 45.5t-59.5 141.5q0 40 13 70.5t35 51.5t51 33.5t60 16.5q-65 9 -102 51t-37 108q0 77 50.5 119.5t138.5 42.5q87 0 138.5 -42.5t51.5 -119.5q0 -66 -38 -108t-102 -52q31 -4 60 -16.5t51 -33t35 -51t13 -70.5q0 -48 -16 -83.5t-44 -58t-66.5 -34
t-82.5 -11.5zM275 361q35 0 67.5 8.5t56.5 27t38 47.5t14 69q0 71 -48 109.5t-128 38.5q-81 0 -128 -38.5t-47 -109.5q0 -40 14 -69t38 -47.5t56 -27t67 -8.5zM275 9q40 0 75.5 10t62 30.5t42 53.5t15.5 79q0 43 -17 74.5t-44 51.5t-62.5 29.5t-71.5 9.5q-37 0 -72 -10
t-62 -30t-44 -51.5t-17 -73.5q0 -46 15.5 -79t42 -53.5t62 -30.5t75.5 -10z" />
    <glyph glyph-name="nine.tab" 
d="M267 -5q-60 0 -96 18t-54.5 43t-24 52.5t-5.5 46.5h15q0 -16 5 -41t22 -48.5t50 -40t88 -16.5q59 0 100 25.5t66 70.5t36.5 107.5t11.5 135.5q0 34 -2 58t-6 52q-1 -50 -18.5 -87.5t-45.5 -62t-65.5 -36.5t-79.5 -12q-36 0 -70.5 11.5t-60.5 35.5t-42 63.5t-16 94.5
q0 50 15.5 89.5t42.5 66t63.5 40.5t77.5 14q113 0 167.5 -81.5t54.5 -245.5q0 -77 -12.5 -142.5t-39.5 -112t-71 -72.5t-106 -26zM265 274q50 0 87 16.5t61 43.5t35.5 63t11.5 75t-12 73.5t-35.5 60t-58.5 40.5t-80 15q-38 0 -72 -13t-59 -38t-39.5 -61.5t-14.5 -83.5
q0 -51 15 -87.5t40 -59.5t56.5 -33.5t64.5 -10.5z" />
    <glyph glyph-name="zeroslash.small" horiz-adv-x="455" 
d="M230 -5q-36 0 -71 14t-61.5 45t-43 81t-16.5 122q0 131 54.5 199.5t137.5 68.5q35 0 69 -14.5t60 -45.5t42 -81t16 -121q0 -132 -53 -200t-134 -68zM50 257q0 -68 16 -115.5t41 -77.5l240 395q-25 28 -55.5 41t-61.5 13q-78 0 -129 -67t-51 -189zM230 7q75 0 125 66.5
t50 189.5q0 63 -14 109t-36 76l-239 -394q24 -25 53.5 -36t60.5 -11z" />
    <glyph glyph-name="zero.small" horiz-adv-x="455" 
d="M230 -5q-36 0 -71 14t-61.5 45t-43 81t-16.5 122q0 131 54.5 199.5t137.5 68.5q35 0 69 -14.5t60 -45.5t42 -81t16 -121q0 -132 -53 -200t-134 -68zM230 7q75 0 125 66.5t50 189.5q0 66 -15 114t-39.5 78t-56.5 44t-64 14q-78 0 -129 -67t-51 -189q0 -67 15.5 -115
t40.5 -77.5t57.5 -43.5t66.5 -14z" />
    <glyph glyph-name="one.small" horiz-adv-x="310" 
d="M42 397l174 123h9v-520h-12v502l-164 -116z" />
    <glyph glyph-name="two.small" horiz-adv-x="455" 
d="M91 320q-16 36 -12 73t24 66t54.5 47.5t79.5 18.5q75 0 113.5 -44.5t38.5 -105.5q0 -45 -20 -84t-57.5 -79.5t-92.5 -87t-126 -107.5h310v-12h-331v10q69 62 126 109.5t96.5 88t61 79.5t21.5 83q0 57 -35.5 97.5t-104.5 40.5q-41 0 -72.5 -16.5t-50 -44t-22 -62
t11.5 -70.5h-13z" />
    <glyph glyph-name="three.small" horiz-adv-x="455" 
d="M73 374q-13 63 26.5 107t123.5 44q70 0 108.5 -36.5t38.5 -98.5q0 -54 -34.5 -85t-84.5 -39q63 -7 100 -38.5t37 -89.5q0 -68 -45.5 -105.5t-121.5 -37.5q-97 0 -133.5 44t-26.5 102h13q-10 -55 25 -94.5t122 -39.5q70 0 112.5 34t42.5 97t-47.5 92t-119.5 29h-64v12h62
q29 0 56.5 7.5t48.5 22.5t33.5 37.5t12.5 51.5q0 57 -35.5 90t-99.5 33q-75 0 -112.5 -39t-24.5 -100h-13z" />
    <glyph glyph-name="four.small" horiz-adv-x="455" 
d="M303 0v172h-282v10l283 338h11v-336h113v-12h-113v-172h-12zM39 184h264v315z" />
    <glyph glyph-name="five.small" horiz-adv-x="455" 
d="M376 503h-279v-223q15 13 50.5 33t86.5 20q80 0 124.5 -45t44.5 -116q0 -76 -44.5 -126.5t-124.5 -50.5q-81 0 -123 37.5t-34 106.5h13q-8 -63 31.5 -97.5t112.5 -34.5q74 0 115.5 47.5t41.5 117.5q0 66 -41.5 107.5t-115.5 41.5q-32 0 -58 -9t-44 -20.5t-27.5 -20.5
l-9.5 -9h-10v253h291v-12z" />
    <glyph glyph-name="six.small" horiz-adv-x="455" 
d="M241 525q51 0 80.5 -14.5t45 -34.5t19.5 -40.5t4 -31.5h-12q0 10 -4.5 28.5t-18.5 36.5t-41 31t-73 13q-49 0 -83 -20t-55.5 -55t-31 -83t-9.5 -104q0 -19 1.5 -45.5t7.5 -52.5q2 86 52 126.5t119 40.5q66 0 112.5 -37t46.5 -123q0 -39 -13.5 -69.5t-36.5 -52
t-53.5 -32.5t-64.5 -11q-91 0 -137 63.5t-46 192.5q0 60 11 110.5t33.5 86.5t59 56.5t87.5 20.5zM242 308q-43 0 -73.5 -14t-49.5 -36.5t-28 -51.5t-9 -59q0 -61 39.5 -100.5t111.5 -39.5q63 0 109.5 40.5t46.5 112.5q0 81 -44 114.5t-103 33.5z" />
    <glyph glyph-name="seven.small" horiz-adv-x="420" 
d="M64 515h328v-10q-51 -65 -96.5 -131.5t-80 -130.5t-54.5 -125.5t-20 -115.5h-12q0 57 19.5 118t52.5 124t78 128.5t95 130.5h-310v12z" />
    <glyph glyph-name="eight.small" horiz-adv-x="455" 
d="M401 140q0 -60 -41.5 -102.5t-131.5 -42.5q-91 0 -132.5 42.5t-41.5 102.5q0 51 30.5 87t92.5 47q-54 10 -81 42t-27 81q0 56 41 92t117 36t116.5 -36t40.5 -92q0 -48 -26.5 -80.5t-80.5 -42.5q62 -10 93 -46.5t31 -87.5zM227 280q69 0 107 31.5t38 85.5q0 51 -38 83.5
t-107 32.5t-107.5 -32.5t-38.5 -83.5q0 -54 38.5 -85.5t107.5 -31.5zM228 7q82 0 121.5 39t39.5 94q0 56 -43 92.5t-118 36.5q-77 0 -119.5 -36.5t-42.5 -92.5q0 -55 39 -94t123 -39z" />
    <glyph glyph-name="nine.small" horiz-adv-x="455" 
d="M214 -5q-51 0 -80.5 14.5t-45 34.5t-19.5 40.5t-4 31.5h12q0 -10 4.5 -28.5t18.5 -36.5t41 -31t73 -13q49 0 83 20t55.5 55t31 83t9.5 104q0 19 -1.5 45.5t-7.5 52.5q-2 -86 -52 -126.5t-119 -40.5q-66 0 -112.5 37t-46.5 123q0 39 13.5 69.5t36.5 52t53.5 32.5t64.5 11
q91 0 137 -63.5t46 -192.5q0 -60 -11 -110.5t-33.5 -86.5t-59 -56.5t-87.5 -20.5zM213 212q43 0 73.5 14t49.5 36.5t28 51.5t9 59q0 61 -39.5 100.5t-111.5 39.5q-63 0 -109.5 -40.5t-46.5 -112.5q0 -81 44 -114.5t103 -33.5z" />
    <glyph glyph-name="zeroslash.small_tab" horiz-adv-x="455" 
d="M230 -5q-36 0 -71 14t-61.5 45t-43 81t-16.5 122q0 131 54.5 199.5t137.5 68.5q35 0 69 -14.5t60 -45.5t42 -81t16 -121q0 -132 -53 -200t-134 -68zM50 257q0 -68 16 -115.5t41 -77.5l240 395q-25 28 -55.5 41t-61.5 13q-78 0 -129 -67t-51 -189zM230 7q75 0 125 66.5
t50 189.5q0 63 -14 109t-36 76l-239 -394q24 -25 53.5 -36t60.5 -11z" />
    <glyph glyph-name="zero.small_tab" horiz-adv-x="455" 
d="M230 -5q-36 0 -71 14t-61.5 45t-43 81t-16.5 122q0 131 54.5 199.5t137.5 68.5q35 0 69 -14.5t60 -45.5t42 -81t16 -121q0 -132 -53 -200t-134 -68zM230 7q75 0 125 66.5t50 189.5q0 66 -15 114t-39.5 78t-56.5 44t-64 14q-78 0 -129 -67t-51 -189q0 -67 15.5 -115
t40.5 -77.5t57.5 -43.5t66.5 -14z" />
    <glyph glyph-name="one.small_tab" horiz-adv-x="455" 
d="M93 5v12h160v490l-186 -39l-3 12l192 40h9v-503h129v-12h-301z" />
    <glyph glyph-name="two.small_tab" horiz-adv-x="455" 
d="M91 320q-16 36 -12 73t24 66t54.5 47.5t79.5 18.5q75 0 113.5 -44.5t38.5 -105.5q0 -45 -20 -84t-57.5 -79.5t-92.5 -87t-126 -107.5h310v-12h-331v10q69 62 126 109.5t96.5 88t61 79.5t21.5 83q0 57 -35.5 97.5t-104.5 40.5q-41 0 -72.5 -16.5t-50 -44t-22 -62
t11.5 -70.5h-13z" />
    <glyph glyph-name="three.small_tab" horiz-adv-x="455" 
d="M73 374q-13 63 26.5 107t123.5 44q70 0 108.5 -36.5t38.5 -98.5q0 -54 -34.5 -85t-84.5 -39q63 -7 100 -38.5t37 -89.5q0 -68 -45.5 -105.5t-121.5 -37.5q-97 0 -133.5 44t-26.5 102h13q-10 -55 25 -94.5t122 -39.5q70 0 112.5 34t42.5 97t-47.5 92t-119.5 29h-64v12h62
q29 0 56.5 7.5t48.5 22.5t33.5 37.5t12.5 51.5q0 57 -35.5 90t-99.5 33q-75 0 -112.5 -39t-24.5 -100h-13z" />
    <glyph glyph-name="four.small_tab" horiz-adv-x="455" 
d="M303 0v172h-282v10l283 338h11v-336h113v-12h-113v-172h-12zM39 184h264v315z" />
    <glyph glyph-name="five.small_tab" horiz-adv-x="455" 
d="M376 503h-279v-223q15 13 50.5 33t86.5 20q80 0 124.5 -45t44.5 -116q0 -76 -44.5 -126.5t-124.5 -50.5q-81 0 -123 37.5t-34 106.5h13q-8 -63 31.5 -97.5t112.5 -34.5q74 0 115.5 47.5t41.5 117.5q0 66 -41.5 107.5t-115.5 41.5q-32 0 -58 -9t-44 -20.5t-27.5 -20.5
l-9.5 -9h-10v253h291v-12z" />
    <glyph glyph-name="six.small_tab" horiz-adv-x="455" 
d="M241 525q51 0 80.5 -14.5t45 -34.5t19.5 -40.5t4 -31.5h-12q0 10 -4.5 28.5t-18.5 36.5t-41 31t-73 13q-49 0 -83 -20t-55.5 -55t-31 -83t-9.5 -104q0 -19 1.5 -45.5t7.5 -52.5q2 86 52 126.5t119 40.5q66 0 112.5 -37t46.5 -123q0 -39 -13.5 -69.5t-36.5 -52
t-53.5 -32.5t-64.5 -11q-91 0 -137 63.5t-46 192.5q0 60 11 110.5t33.5 86.5t59 56.5t87.5 20.5zM242 308q-43 0 -73.5 -14t-49.5 -36.5t-28 -51.5t-9 -59q0 -61 39.5 -100.5t111.5 -39.5q63 0 109.5 40.5t46.5 112.5q0 81 -44 114.5t-103 33.5z" />
    <glyph glyph-name="seven.small_tab" horiz-adv-x="455" 
d="M196 2h-12q0 114 58 242t157 259h-308v-99h-12v111h338v-10q-51 -65 -92 -131.5t-69.5 -130.5t-44 -125.5t-15.5 -115.5z" />
    <glyph glyph-name="eight.small_tab" horiz-adv-x="455" 
d="M401 140q0 -60 -41.5 -102.5t-131.5 -42.5q-91 0 -132.5 42.5t-41.5 102.5q0 51 30.5 87t92.5 47q-54 10 -81 42t-27 81q0 56 41 92t117 36t116.5 -36t40.5 -92q0 -48 -26.5 -80.5t-80.5 -42.5q62 -10 93 -46.5t31 -87.5zM227 280q69 0 107 31.5t38 85.5q0 51 -38 83.5
t-107 32.5t-107.5 -32.5t-38.5 -83.5q0 -54 38.5 -85.5t107.5 -31.5zM228 7q82 0 121.5 39t39.5 94q0 56 -43 92.5t-118 36.5q-77 0 -119.5 -36.5t-42.5 -92.5q0 -55 39 -94t123 -39z" />
    <glyph glyph-name="nine.small_tab" horiz-adv-x="455" 
d="M214 -5q-51 0 -80.5 14.5t-45 34.5t-19.5 40.5t-4 31.5h12q0 -10 4.5 -28.5t18.5 -36.5t41 -31t73 -13q49 0 83 20t55.5 55t31 83t9.5 104q0 19 -1.5 45.5t-7.5 52.5q-2 -86 -52 -126.5t-119 -40.5q-66 0 -112.5 37t-46.5 123q0 39 13.5 69.5t36.5 52t53.5 32.5t64.5 11
q91 0 137 -63.5t46 -192.5q0 -60 -11 -110.5t-33.5 -86.5t-59 -56.5t-87.5 -20.5zM213 212q43 0 73.5 14t49.5 36.5t28 51.5t9 59q0 61 -39.5 100.5t-111.5 39.5q-63 0 -109.5 -40.5t-46.5 -112.5q0 -81 44 -114.5t103 -33.5z" />
    <glyph glyph-name="a.superior" horiz-adv-x="297" 
d="M34 470q0 36 27 57.5t81 21.5q20 0 40 -3.5t34 -7.5v69q0 31 -20 53.5t-61 22.5q-46 0 -62.5 -21.5t-17.5 -51.5h-13q0 36 21.5 60.5t70.5 24.5q48 0 71 -25.5t23 -62.5v-143q0 -26 6.5 -36.5t22.5 -10.5q10 0 15.5 5.5t5.5 17.5h12q0 -14 -7.5 -24.5t-26.5 -10.5
t-29.5 12.5t-10.5 45.5v16q-11 -29 -37 -51.5t-66 -22.5q-36 0 -57.5 16.5t-21.5 48.5zM46 470q0 -26 19 -39.5t47 -13.5q26 0 45.5 10.5t32.5 27t19.5 35.5t6.5 37q-13 4 -34 7t-40 3q-48 0 -72 -18t-24 -49z" />
    <glyph glyph-name="b.superior" horiz-adv-x="338" 
d="M59 832h12v-221q12 41 40 62.5t70 21.5q21 0 42.5 -8t39 -25t29 -44.5t11.5 -66.5q0 -71 -34.5 -108.5t-86.5 -37.5q-32 0 -64.5 19.5t-46.5 65.5v-82h-12v424zM291 551q0 36 -10 61t-26 41t-35.5 23t-38.5 7q-47 0 -78.5 -33.5t-31.5 -102.5q0 -35 10.5 -59.5t27 -40
t35.5 -23t37 -7.5q50 0 80 34.5t30 99.5z" />
    <glyph glyph-name="c.superior" horiz-adv-x="302" 
d="M36 544q0 66 30 108.5t86 42.5q48 0 70.5 -19t28.5 -41q1 -7 2 -13.5t1 -13.5h-13q0 11 -3 24t-13 24.5t-27.5 19t-45.5 7.5q-53 0 -78.5 -40.5t-25.5 -98.5q0 -66 32 -96.5t78 -30.5q47 0 69.5 23.5t22.5 61.5h12q0 -45 -26 -71t-77 -26t-87 33t-36 106z" />
    <glyph glyph-name="d.superior" horiz-adv-x="338" 
d="M34 549q0 71 34.5 108.5t86.5 37.5q32 0 64.5 -19.5t46.5 -65.5v222h12v-424h-12v81q-12 -41 -40 -62.5t-70 -21.5q-21 0 -42.5 8t-39 25t-29 44.5t-11.5 66.5zM266 553q0 35 -10.5 59.5t-27 40t-35.5 23t-37 7.5q-50 0 -80 -34.5t-30 -99.5q0 -36 10 -61t26 -41
t35.5 -23t38.5 -7q47 0 78.5 33.5t31.5 102.5z" />
    <glyph glyph-name="e.superior" horiz-adv-x="302" 
d="M34 544q0 66 33.5 108.5t90.5 42.5q30 0 48.5 -8.5t28.5 -21.5t13.5 -28t3.5 -27q0 -9 -1 -17t-1 -10h-200q-1 -7 -2.5 -15.5t-1.5 -17.5v-6q0 -66 32.5 -96.5t78.5 -30.5q48 0 73.5 23.5t25.5 61.5h12q0 -44 -29.5 -70.5t-81.5 -26.5q-51 0 -87 33.5t-36 105.5zM158 683
q-40 0 -67.5 -24.5t-38.5 -64.5h187q0 1 0.5 4t0.5 10q0 10 -2.5 23t-11 24.5t-25 19.5t-43.5 8z" />
    <glyph glyph-name="f.superior" horiz-adv-x="180" 
d="M79 408v231q0 11 -0.5 21t-1.5 18h-59v11h57q-4 23 -9.5 39t-5.5 39q0 25 17.5 45t54.5 20q20 0 32.5 -6t19.5 -16q3 -5 5 -11.5t2 -14.5h-12q-1 17 -12 26.5t-35 9.5q-32 0 -46 -17t-14 -36q0 -21 5.5 -37.5t9.5 -40.5h89v-11h-87q1 -8 1.5 -18t0.5 -21v-231h-12z" />
    <glyph glyph-name="g.superior" horiz-adv-x="310" 
d="M285 348q0 -39 -31 -64t-99 -25q-58 0 -95.5 19.5t-37.5 62.5q0 6 1 11t2 11h12q-1 -5 -2 -11t-1 -10q0 -37 35 -54t86 -17q61 0 89.5 21.5t28.5 55.5q0 31 -25 45t-80 14h-8q-65 0 -84 14.5t-19 36.5t16 35t29 18q-24 10 -39.5 31.5t-15.5 55.5q0 44 29 70.5t76 26.5
q28 0 53.5 -12.5t38.5 -37.5q1 28 10 39t22 11q12 0 18 -5.5t7 -12.5q1 -3 1 -6.5v-6.5h-11q0 7 -3 13.5t-12 6.5t-15 -11t-6 -36v-37q0 -44 -29.5 -71.5t-73.5 -27.5q-9 0 -18 1t-17 3q-10 -3 -29 -14t-19 -32q0 -20 19 -30t72 -10h9q62 0 89 -17t27 -54zM243 599
q0 43 -28.5 63.5t-62.5 20.5q-41 0 -67 -23t-26 -62q0 -46 28 -65.5t65 -19.5q39 0 65 23t26 63z" />
    <glyph glyph-name="h.superior" horiz-adv-x="326" 
d="M273 408h-12v172q0 47 -18 75t-68 28q-51 0 -77 -36.5t-26 -87.5v-151h-12v424h12v-218q10 36 35.5 58.5t68.5 22.5q54 0 75.5 -31t21.5 -83v-173z" />
    <glyph glyph-name="j.superior" horiz-adv-x="156" 
d="M86 791q-5 0 -9 3.5t-4 8.5t4 9t9 4t9 -4t4 -9t-4 -8.5t-9 -3.5zM-11 311h13q0 -21 8.5 -30.5t28.5 -9.5q24 0 32.5 19.5t8.5 62.5v336h12v-336q0 -49 -12.5 -71.5t-41.5 -22.5q-25 0 -37 12.5t-12 39.5z" />
    <glyph glyph-name="k.superior" horiz-adv-x="284" 
d="M59 832h12v-277l162 134h18l-124 -101l145 -180h-16l-138 172l-47 -39v-133h-12v424z" />
    <glyph glyph-name="l.superior" horiz-adv-x="136" 
d="M62 832h12v-424h-12v424z" />
    <glyph glyph-name="m.superior" horiz-adv-x="512" 
d="M264 408h-12v171q0 48 -17.5 76t-66.5 28q-48 0 -73.5 -36.5t-25.5 -87.5v-151h-12v281h12v-75q10 36 35.5 58.5t65.5 22.5q46 0 67.5 -23t25.5 -63q9 38 34 62t67 24q54 0 74.5 -31t20.5 -83v-173h-12v170q0 49 -17.5 77t-66.5 28t-74 -36.5t-25 -87.5v-151z" />
    <glyph glyph-name="o.superior" horiz-adv-x="313" 
d="M34 550q0 71 34 108t89 37q53 0 87.5 -37t34.5 -108t-34.5 -108t-87.5 -37q-54 0 -88.5 37t-34.5 108zM267 550q0 65 -31 99t-80 34q-48 0 -79 -34t-31 -99q0 -64 30.5 -98.5t79.5 -34.5t80 34.5t31 98.5z" />
    <glyph glyph-name="p.superior" horiz-adv-x="334" 
d="M56 689h12v-78q12 41 40 62.5t70 21.5q21 0 42.5 -8t39 -25t29 -44.5t11.5 -66.5q0 -71 -34.5 -108.5t-86.5 -37.5q-32 0 -64.5 19.5t-46.5 65.5v-225h-12v424zM288 551q0 36 -10 61t-26 41t-35.5 23t-38.5 7q-47 0 -78.5 -33.5t-31.5 -102.5q0 -35 10.5 -59.5t27 -40
t35.5 -23t37 -7.5q50 0 80 34.5t30 99.5z" />
    <glyph glyph-name="q.superior" horiz-adv-x="334" 
d="M34 549q0 71 34.5 108.5t86.5 37.5q32 0 64.5 -19.5t46.5 -65.5v79h12v-424h-12v224q-12 -41 -40 -62.5t-70 -21.5q-21 0 -42.5 8t-39 25t-29 44.5t-11.5 66.5zM266 553q0 35 -10.5 59.5t-27 40t-35.5 23t-37 7.5q-50 0 -80 -34.5t-30 -99.5q0 -36 10 -61t26 -41
t35.5 -23t38.5 -7q47 0 78.5 33.5t31.5 102.5z" />
    <glyph glyph-name="r.superior" horiz-adv-x="245" 
d="M57 689h12v-81q8 35 29.5 61t61.5 26q41 0 54 -25t13 -47v-5.5t-1 -7.5h-12q1 4 1 6.5v4.5q0 20 -11 41t-45 21q-27 0 -44.5 -14.5t-27.5 -37t-14 -49.5t-4 -52v-122h-12v281z" />
    <glyph glyph-name="s.superior" horiz-adv-x="277" 
d="M35 501h12q1 -39 24.5 -61.5t72.5 -22.5q31 0 57 14.5t26 50.5q0 28 -18 42.5t-64 24.5q-51 10 -74 26.5t-23 50.5q0 37 25.5 53t65.5 16t65.5 -18t25.5 -51h-12q0 26 -22.5 41.5t-56.5 15.5t-56.5 -13t-22.5 -44q0 -30 20 -42.5t66 -22.5q53 -11 73 -29.5t20 -49.5
q0 -40 -29.5 -58.5t-65.5 -18.5q-54 0 -81 25t-28 71z" />
    <glyph glyph-name="t.superior" horiz-adv-x="209" 
d="M66 474v203h-60v12h60v77h12v-77h98v-12h-98v-203q0 -27 11.5 -42t37.5 -15q25 0 35 10t10 30h12q0 -25 -13.5 -38.5t-43.5 -13.5q-36 0 -48.5 20.5t-12.5 48.5z" />
    <glyph glyph-name="u.superior" horiz-adv-x="323" 
d="M255 408v78q-10 -36 -35.5 -58.5t-68.5 -22.5q-55 0 -76.5 31t-21.5 82v171h12v-169q0 -47 18 -75t69 -28t77 36.5t26 87.5v148h12v-281h-12z" />
    <glyph glyph-name="v.superior" horiz-adv-x="275" 
d="M15 689h13l110 -266l110 266h12l-116 -281h-13z" />
    <glyph glyph-name="w.superior" horiz-adv-x="449" 
d="M18 689h12l92 -266l97 233h12l96 -230l92 263h12l-98 -281h-11l-97 232l-98 -232h-12z" />
    <glyph glyph-name="x.superior" horiz-adv-x="274" 
d="M241 408l-104 140l-105 -140h-15l112 149l-98 132h15l91 -124l92 124h15l-99 -132l111 -149h-15z" />
    <glyph glyph-name="y.superior" horiz-adv-x="279" 
d="M15 300h12q1 -10 6 -19.5t24 -9.5q18 0 28 11t17 30l38 95l-122 282h14l114 -267l3 7l102 260h13l-151 -382q-9 -24 -22.5 -36t-33.5 -12q-25 0 -33.5 13t-8.5 28z" />
    <glyph glyph-name="z.superior" horiz-adv-x="260" 
d="M25 416l191 261h-175v12h191v-10l-189 -259h191v-12h-209v8z" />
    </font>
</defs>
</svg>
