<?xml version="1.0" encoding="UTF-8"?>
<svg id="Capa_2" data-name="Capa 2" xmlns="http://www.w3.org/2000/svg" viewBox="0 0 145.68 138.25">
  <defs>
    <style>
      .cls-1 {
        fill: #fff;
      }
    </style>
  </defs>
  <g id="Capa_1-2" data-name="Capa 1">
    <g id="T113uC.tif">
      <path class="cls-1" d="M67.98,82.92c-9.37,.37-17.16-8.39-16.25-17.95,1.08-11.42,7.59-18.82,18.87-21.46,22.08-5.15,42.27,9.15,47.39,32.83,8.72,40.36-27.12,66.3-60.51,61.3C28.58,133.31,7.24,113.85,1.56,85.83-4.67,55.12,8.07,25.93,34.46,10.42c41.39-24.34,95.66-4.1,108.39,40.69,6.42,22.58,1.81,43.27-12.62,61.79-.4,.52-.57,1.23-1.7,1.14,.94-6.59,2.16-13.16,2.76-19.78,1.81-20.01-2.43-37.92-18.69-51.42-18.37-15.25-43.29-16.11-59.9-2.06-12.22,10.33-16.64,28.16-10.41,41.9,6.04,13.3,25.28,19.35,37.89,11.91,8.74-5.16,11.24-15.97,5.68-24.64-3.42-5.33-8.69-7.31-13.57-5.08-4.81,2.19-7.41,8.36-5.84,13.96,.39,1.37,.99,2.68,1.53,4.1Z"/>
    </g>
  </g>
</svg>