<?xml version="1.0" encoding="UTF-8"?>
<svg id="Capa_2" data-name="Capa 2" xmlns="http://www.w3.org/2000/svg" viewBox="0 0 383.49 204">
  <defs>
    <style>
      .cls-1 {
        fill: #fff;
      }
    </style>
  </defs>
  <g id="Capa_1-2" data-name="Capa 1">
    <path class="cls-1" d="M195.98,0c5.78,4.64,11.95,8.87,17.26,13.99,12.08,11.65,23.82,23.67,35.51,35.72,2.81,2.9,5.29,3.52,8.62,1.27,1.36-.92,2.9-1.59,4.41-2.28,10.66-4.91,18.94-2.46,24.98,7.61,25.68,42.84,51.38,85.67,76.86,128.63,3.15,5.32,6.25,8.94,13.14,8.19,2.08-.23,4.48,2.49,6.74,3.86v7c-126.34,0-252.68,0-379.02,0-2.4-1.91-5.61-3.38-4.07-7.44,1.43-3.77,4.61-3.89,7.86-3.6,4.62,.41,7.97-1.63,10.69-5.15,23.29-30.12,46.63-60.21,69.87-90.36,5.39-6.99,11.35-12.04,21.09-9.63,1.48,.37,4.08-1.15,5.24-2.56,20.64-25.23,41.06-50.64,61.77-75.81C179.95,5.76,184.27,3.13,188,0c2.66,0,5.32,0,7.98,0Zm159.86,192.98c-1.25-2.29-2.05-3.88-2.95-5.4-16.28-27.24-32.57-54.47-48.87-81.69-8.62-14.4-17.22-28.81-25.87-43.18-3.81-6.33-5.87-6.81-12.61-4.01-6.66,2.76-11.8,6.55-12.75,14.43-.41,3.36-2.94,4.79-6.21,4.02-3.14-.73-4.12-3.13-3.65-6.13,.26-1.63,.61-3.31,1.28-4.8,1.56-3.44,.43-5.86-2.11-8.38-14.3-14.17-28.45-28.48-42.7-42.7-5.83-5.82-8.94-5.61-14.22,.9-15.5,19.11-30.97,38.25-46.46,57.37-5.19,6.41-10.42,12.79-16.19,19.88,5.76,2.54,10.78,4.53,15.59,6.95,3.36,1.69,5.91,1,8.58-1.3,6.04-5.21,12.22-10.25,18.3-15.42,11.04-9.38,17.87-9.39,28.85,.16,8.78,7.63,17.49,15.35,26.26,22.99,3.06,2.66,6.21,5.22,9.78,8.22,2.07-6.72,3.97-12.69,5.73-18.69,1.06-3.62,2.89-6.29,7.06-4.95,4,1.29,3.67,4.69,2.78,7.9-1.64,5.91-3.13,11.89-5.27,17.62-1.6,4.28-.66,6.97,2.72,9.89,24.67,21.27,49.18,42.72,73.82,64.02,1.38,1.19,3.45,2.19,5.22,2.22,10.96,.2,21.92,.1,33.89,.1Zm-53.32,0c-1.57-1.81-2.28-2.85-3.19-3.64-37.96-33.1-75.94-66.19-113.93-99.25-4.75-4.14-7.14-4.09-12.18,.06-6.28,5.18-12.37,10.61-18.84,15.53-3.7,2.81-3.84,5.47-2,9.39,11.38,24.16,22.65,48.38,33.79,72.65,1.76,3.82,3.96,5.39,8.32,5.37,34.23-.18,68.46-.1,102.69-.1,1.41,0,2.82,0,5.35,0Zm-125.96-.24c-.39-1.48-.5-2.47-.9-3.33-11.51-24.82-23-49.66-34.67-74.4-.82-1.74-2.76-3.33-4.56-4.15-8.44-3.84-16.98-7.44-25.53-11.02-7.13-2.99-8.31-2.6-12.99,3.44-19.57,25.21-39.16,50.4-58.72,75.62-3.39,4.37-6.66,8.83-10.67,14.15,10.39,0,19.48-.17,28.56,.08,4.02,.11,6.44-1.31,8.33-4.82,7.24-13.45,14.68-26.79,22.06-40.16,1.28-2.32,2.26-5.01,4.12-6.75,1.41-1.32,4.68-2.48,5.86-1.73,1.59,1.02,2.27,3.87,2.74,6.07,.22,1.03-.93,2.4-1.57,3.56-6.81,12.35-13.66,24.68-20.46,37.03-1.07,1.95-2,3.98-3.22,6.41h101.62Z"/>
  </g>
</svg>