<?xml version="1.0" encoding="utf-8"?>
<!-- Generator: Adobe Illustrator 27.0.0, SVG Export Plug-In . SVG Version: 6.00 Build 0)  -->
<svg version="1.1" id="Capa_2_00000179615827612351779940000001515213336196632999_"
	 xmlns="http://www.w3.org/2000/svg" xmlns:xlink="http://www.w3.org/1999/xlink" x="0px" y="0px" viewBox="0 0 61.5 10.1"
	 style="enable-background:new 0 0 61.5 10.1;" xml:space="preserve">
<style type="text/css">
	.st0{fill:#FCFCFC;}
</style>
<g id="Capa_1-2">
	<polygon class="st0" points="40.2,10.1 43.5,8.4 46.8,10.1 46.2,6.5 48.8,3.9 45.1,3.3 43.5,0 41.9,3.3 38.2,3.9 40.8,6.5 	"/>
	<polygon class="st0" points="56.2,0 54.6,3.3 50.9,3.9 53.6,6.5 52.9,10.1 56.2,8.4 59.5,10.1 58.9,6.5 61.5,3.9 57.9,3.3 	"/>
	<polygon class="st0" points="2,10.1 5.3,8.4 8.6,10.1 8,6.5 10.6,3.9 7,3.3 5.3,0 3.7,3.3 0,3.9 2.7,6.5 	"/>
	<polygon class="st0" points="14.8,10.1 18,8.4 21.3,10.1 20.7,6.5 23.4,3.9 19.7,3.3 18,0 16.4,3.3 12.7,3.9 15.4,6.5 	"/>
	<polygon class="st0" points="27.5,10.1 30.8,8.4 34.1,10.1 33.4,6.5 36.1,3.9 32.4,3.3 30.8,0 29.1,3.3 25.5,3.9 28.1,6.5 	"/>
</g>
</svg>
