<?xml version="1.0" encoding="UTF-8"?>
<svg id="Capa_2" data-name="Capa 2" xmlns="http://www.w3.org/2000/svg" viewBox="0 0 39.5 17.52">
  <defs>
    <style>
      .cls-1 {
        fill: #fcfcfc;
      }
    </style>
  </defs>
  <g id="Capa_1-2" data-name="Capa 1">
    <path class="cls-1" d="M30.75,17.52c-.2,0-.39-.08-.53-.22-.29-.29-.29-.77,0-1.06l6.72-6.72H.75c-.41,0-.75-.34-.75-.75s.34-.75,.75-.75H36.94L30.22,1.3c-.3-.28-.32-.76-.04-1.06s.76-.32,1.06-.04c.01,.01,.03,.02,.04,.04l8,8c.07,.07,.13,.15,.16,.24,.08,.19,.08,.39,0,.58-.03,.09-.09,.17-.16,.24l-8,8c-.14,.14-.33,.22-.53,.22Z"/>
  </g>
</svg>