<?xml version="1.0" encoding="UTF-8"?>
<svg id="Capa_2" data-name="Capa 2" xmlns="http://www.w3.org/2000/svg" viewBox="0 0 458.2 458.14">
  <defs>
    <style>
      .cls-1 {
        fill: #fbf1e1;
      }

      .cls-2 {
        fill: #566623;
      }
    </style>
  </defs>
  <g id="Capa_1-2" data-name="Capa 1">
    <g>
      <path class="cls-2" d="M228.93,0c126.53-.15,229.15,102.24,229.27,228.77,.12,126.48-102.34,229.22-228.74,229.38C102.69,458.3-.03,355.74,0,229.04,.03,102.37,102.19,.15,228.93,0Z"/>
      <path class="cls-1" d="M248.24,291.62c0,19.32-.07,38.63,.07,57.95,.02,3.2-.74,4.31-4.11,4.27-14.32-.18-28.65-.21-42.97,.02-3.88,.06-4.69-1.25-4.68-4.87,.12-37.47,.07-74.94,.07-112.4q0-7.49-7.75-7.49c-4.66,0-9.33-.11-13.99,.04-2.6,.08-3.92-.4-3.88-3.48,.15-12.15,.11-24.31,.02-36.47-.02-2.4,.81-3.17,3.17-3.12,5.99,.12,12-.15,17.98,.11,3.46,.15,4.58-.9,4.52-4.44-.18-10.65-.47-21.33,.57-31.95,1.77-18.14,8.45-33.16,26.6-40.62,7.64-3.14,15.69-4.47,23.86-4.67,11.82-.29,23.65-.07,35.47-.21,2.62-.03,3.9,.44,3.86,3.51-.16,11.99-.15,23.98,0,35.97,.04,2.98-1.08,3.62-3.79,3.56-6.82-.14-13.66-.19-20.48,.05-10.66,.37-14.33,4.19-14.5,14.75-.11,6.66,.15,13.33-.14,19.98-.15,3.45,1.16,4.11,4.28,4.06,10.32-.17,20.65,.05,30.97-.13,3.24-.06,3.8,.89,3.41,4.01-1.41,11.39-2.65,22.81-3.57,34.25-.31,3.87-1.64,5.01-5.46,4.88-8.48-.29-16.99,.06-25.48-.16-3.29-.09-4.17,.9-4.15,4.16,.15,19.48,.07,38.97,.07,58.45Z"/>
    </g>
  </g>
</svg>