<?xml version="1.0" encoding="utf-8"?>
<!-- Generator: Adobe Illustrator 27.0.0, SVG Export Plug-In . SVG Version: 6.00 Build 0)  -->
<svg version="1.1" id="Capa_1" xmlns="http://www.w3.org/2000/svg" xmlns:xlink="http://www.w3.org/1999/xlink" x="0px" y="0px"
	 viewBox="0 0 800 800" style="enable-background:new 0 0 800 800;" xml:space="preserve">
<style type="text/css">
	.st0{fill:#566623;}
</style>
<path class="st0" d="M562.4,277.1c-7-18.2-21.4-32.5-39.6-39.5c-12.4-4.6-25.5-7-38.7-7.2c-22-1-28.5-1.2-84.2-1.2
	s-62.2,0.2-84.2,1.2c-13.2,0.2-26.3,2.6-38.7,7.2c-18.2,7-32.5,21.4-39.5,39.6c-4.6,12.4-7,25.5-7.2,38.7c-1,22-1.3,28.5-1.3,84.2
	s0.2,62.2,1.3,84.2c0.2,13.2,2.6,26.3,7.2,38.7c7,18.2,21.4,32.5,39.6,39.5c12.4,4.6,25.5,7,38.7,7.2c22,1,28.5,1.2,84.2,1.2
	s62.2-0.2,84.2-1.2c13.2-0.1,26.3-2.5,38.7-7.1c18.2-7,32.5-21.4,39.5-39.6c4.6-12.4,7-25.5,7.2-38.7c1-22,1.2-28.5,1.2-84.2
	s-0.2-62.2-1.2-84.2C569.4,302.6,567,289.5,562.4,277.1L562.4,277.1z M400,507c-59.1,0-107-47.9-107-107s47.9-107,107-107
	s107,47.9,107,107c0,0,0,0,0,0C507,459.1,459.1,507,400,507z M511.2,313.8c-13.8,0-25-11.2-25-25c0-13.8,11.2-25,25-25
	c13.8,0,25,11.2,25,25S525,313.8,511.2,313.8L511.2,313.8z M469.5,400c0,38.4-31.1,69.5-69.5,69.5c-38.4,0-69.5-31.1-69.5-69.5
	c0-38.4,31.1-69.5,69.5-69.5S469.5,361.6,469.5,400L469.5,400z M400,0C179.1,0,0,179.1,0,400s179.1,400,400,400s400-179.1,400-400
	S620.9,0,400,0C400,0,400,0,400,0z M607.1,485.9c-0.4,17.3-3.6,34.4-9.7,50.6c-10.8,28-32.9,50.1-60.9,60.9
	c-16.2,6.1-33.3,9.4-50.5,9.7c-22.3,1-29.3,1.2-85.9,1.2s-63.7-0.2-85.9-1.2c-17.3-0.4-34.4-3.6-50.5-9.7
	c-28-10.8-50.1-32.9-60.9-60.9c-6.1-16.2-9.4-33.3-9.7-50.5c-1-22.3-1.3-29.3-1.3-85.9s0.2-63.7,1.3-85.9
	c0.3-17.3,3.6-34.4,9.7-50.5c10.8-28,33-50.1,61-61c16.2-6.1,33.3-9.3,50.5-9.7c22.2-1,29.3-1.2,85.9-1.2s63.7,0.2,85.9,1.2
	c17.3,0.3,34.4,3.6,50.5,9.7c28,10.8,50.1,33,60.9,61c6.1,16.2,9.4,33.3,9.7,50.5c1,22.2,1.2,29.3,1.2,85.9S608.1,463.7,607.1,485.9
	L607.1,485.9z"/>
</svg>
