<?xml version="1.0" encoding="UTF-8"?>
<svg id="Capa_2" data-name="Capa 2" xmlns="http://www.w3.org/2000/svg" viewBox="0 0 156.77 84.02">
  <defs>
    <style>
      .cls-1 {
        fill: #586824;
      }
    </style>
  </defs>
  <g id="Capa_1-2" data-name="Capa 1">
    <g>
      <path class="cls-1" d="M156.77,41.95c-14.29,8.64-28.69,15.78-43.62,22.63-1.08-11.77-7.32-19.23-18.35-22.73-4.34-1.38-8.83-1.28-13.3-1.03-6.2,.34-12.37,1.16-18.97,.93,5.64,.81,5.57,4.76,5.55,8.79-.06,9.29-.08,18.57,.03,27.86,.03,2.22-.57,3.09-2.88,3.7-20.1,5.34-36.4-.59-49.61-16.13-5.81-6.83-10.58-14.34-14.95-22.13-.64-1.13-.99-2.09-.25-3.38C7.02,28.92,14.06,17.75,24.65,9.26,36.94-.59,50.71-1.75,65.49,1.91c20.1,4.99,38.93,13.21,57.53,22.03,11.31,5.36,22.39,11.16,33.75,18.01Z"/>
      <path class="cls-1" d="M74.27,61.88c0-5.19,.08-10.37-.04-15.56-.04-1.86,.8-2.68,2.41-3.14,16.05-4.62,30.44,6.37,28.97,23.06-.14,1.53-.88,2.13-2.07,2.62-8.91,3.69-17.9,7.18-27.08,10.17-2.31,.75-2.47-.11-2.44-1.96,.07-5.06,.02-10.13,.02-15.19h.24Z"/>
    </g>
  </g>
</svg>