<?xml version="1.0" encoding="UTF-8"?>
<svg id="Capa_2" data-name="Capa 2" xmlns="http://www.w3.org/2000/svg" viewBox="0 0 370.67 370.76">
  <defs>
    <style>
      .cls-1 {
        fill: #fbf1e1;
      }

      .cls-2 {
        fill: #566623;
      }
    </style>
  </defs>
  <g id="Capa_1-2" data-name="Capa 1">
    <g>
      <path class="cls-2" d="M370.66,185.36c.6,100.91-81.32,183.54-181.64,185.37C84.96,372.63,1.93,289.1,.03,189.11-1.95,84.59,82.98-.22,185.49,0c102.3,.22,184.8,82.31,185.17,185.36Z"/>
      <path class="cls-1" d="M261.85,100.52c-11.61,13.53-22.42,26.13-33.24,38.73-8.35,9.72-16.64,19.49-25.14,29.07-2.13,2.4-2.32,3.9-.4,6.67,20.65,29.75,41.12,59.62,61.63,89.46,.73,1.07,1.41,2.17,2.61,4.01-7.77,0-14.82,0-21.87,0-7.33,0-14.67-.21-21.98,.09-3.46,.14-5.34-1.16-7.22-3.91-13.92-20.47-28-40.82-42.35-61.68-7.4,8.58-14.64,16.94-21.84,25.33-10.84,12.62-21.68,25.25-32.47,37.92-1.28,1.5-2.56,2.39-4.63,2.31-3.48-.14-6.98-.04-11.5-.04,4.18-4.94,7.81-9.3,11.51-13.6,16.69-19.45,33.32-38.95,50.17-58.26,2.13-2.44,1.84-3.82,.23-6.15-20.04-28.97-39.99-57.99-59.96-87.01-.45-.66-.84-1.36-1.24-2,1.16-1.51,2.6-.86,3.81-.86,13.16-.06,26.32,.09,39.47-.13,3.39-.06,5.27,1.07,7.14,3.83,12.29,18.16,24.85,36.14,37.14,54.29,2.14,3.17,3.2,3.45,5.81,.35,15.02-17.8,30.63-35.12,45.26-53.24,5.36-6.63,11.5-4.74,19.05-5.19Z"/>
      <path class="cls-2" d="M124.9,112.02c6.98,0,13.22,.04,19.45-.03,1.81-.02,2.63,1.11,3.49,2.36,32.47,47.19,64.94,94.37,97.39,141.57,.15,.21,.05,.6,.09,1.45-6.26,0-12.5-.06-18.74,.03-2.64,.04-3.16-2.21-4.19-3.71-24.34-35.24-48.6-70.52-72.88-105.8-8.06-11.71-16.09-23.44-24.62-35.88Z"/>
    </g>
  </g>
</svg>