<?xml version="1.0" encoding="UTF-8"?>
<svg id="Capa_2" data-name="Capa 2" xmlns="http://www.w3.org/2000/svg" viewBox="0 0 3415.39 3416.27">
  <defs>
    <style>
      .cls-1 {
        fill: #fff;
        fill-rule: evenodd;
      }
    </style>
  </defs>
  <g id="Layer_1" data-name="Layer 1">
    <path class="cls-1" d="M1546.49,9.43C654.17,102.95-86.2,871.87,8.12,1871.96c84.18,892.73,877.36,1631.29,1863.99,1536.02,886.05-85.57,1633.52-869.4,1534.42-1871.27C3320.6,667.99,2532.54-93.93,1546.49,9.43m-402.33,614.98c247.41-28.53,817.45-12.88,1085.81-2.67,296.58,11.27,531.96,238.32,563.73,517.87,27.82,244.79,17.71,834.33,3.65,1092.9-16.24,298.76-239.27,529.27-525.36,560.51-248.87,27.19-829.12,18.25-1089.55,3.15-295.07-17.11-530.84-238.05-560.83-520.92-27.33-257.67-15.61-820.35-2.94-1091.85,13.87-297.75,240.19-526.07,525.48-558.98Z"/>
    <path class="cls-1" d="M2601.6,2276.85c31.99-172.5,6.46-680.04,6.55-890.03,.14-306.6-47.63-515.87-326.32-568.78-184.91-35.1-679.62-9.06-896.46-9.26-734.17-.68-579.07,398.55-579.81,1220.21-.65,735.82,392.76,578.21,1233.25,579.17,305.2,.35,511.19-53.07,562.8-331.31m-357.25-1263.39c143.73-68.58,247.05,155.25,106.81,224.4-147.93,72.94-271.16-146-106.81-224.4Zm-648.95,114.62c744-164.67,1005.41,994.97,240.67,1160.99-761.6,165.33-1024.07-987.61-240.67-1160.99Z"/>
    <path class="cls-1" d="M1644.37,1325.71c-519.29,91.25-371.13,858.94,133.24,770.65,498.27-87.21,374.12-859.81-133.24-770.65"/>
  </g>
</svg>