<?xml version="1.0" encoding="utf-8"?>
<!-- Generator: Adobe Illustrator 27.0.0, SVG Export Plug-In . SVG Version: 6.00 Build 0)  -->
<svg version="1.1" id="Capa_1" xmlns="http://www.w3.org/2000/svg" xmlns:xlink="http://www.w3.org/1999/xlink" x="0px" y="0px"
	 viewBox="0 0 111.4 128" style="enable-background:new 0 0 111.4 128;" xml:space="preserve">
<style type="text/css">
	.st0{fill:#FFFFFF;}
</style>
<path class="st0" d="M56,27.4c4.1,0,8,0.8,11.6,2.3c3.6,1.5,6.8,3.6,9.5,6.3c2.7,2.7,4.8,5.9,6.3,9.5s2.3,7.5,2.3,11.6
	s-0.8,7.9-2.3,11.4s-3.6,6.7-6.3,9.5s-5.9,4.9-9.5,6.3c-3.6,1.4-7.5,2.2-11.6,2.4s-8-0.6-11.6-2.4s-6.7-3.9-9.3-6.3
	c-2.6-2.4-4.7-5.6-6.3-9.5c-1.6-3.9-2.4-7.7-2.4-11.4c0-3.7,0.8-7.6,2.4-11.6s3.7-7.2,6.3-9.5c2.6-2.3,5.7-4.4,9.3-6.3
	S51.9,27,56,27.4z M56,76.2c2.6,0,5.1-0.5,7.4-1.5s4.4-2.4,6.2-4.1c1.8-1.7,3.2-3.8,4.1-6.2c0.9-2.4,1.4-4.9,1.5-7.4
	c0.1-2.5-0.4-5-1.5-7.5c-1.1-2.5-2.5-4.6-4.1-6.2c-1.6-1.6-3.7-3-6.2-4.1c-2.5-1.1-5-1.6-7.4-1.5s-4.9,0.6-7.4,1.5
	c-2.5,0.9-4.6,2.3-6.2,4.1c-1.6,1.8-3,3.9-4.1,6.2c-1.1,2.3-1.6,4.8-1.5,7.5c0.1,2.7,0.6,5.2,1.5,7.4s2.3,4.3,4.1,6.2
	c1.8,1.9,3.9,3.3,6.2,4.1S53.4,76,56,76.2z M111.4,28.9c0.9,18.8,0.9,37.5,0,56.3c-0.2,3.6-1.1,7-2.6,10.2c-1.5,3.2-3.5,6-5.9,8.4
	c-2.4,2.4-5.3,4.4-8.6,6c-3.3,1.6-6.7,2.5-10.2,2.6c-4.7,0.2-9.4,0.4-14,0.5c-4.6,0.1-9.3,0.2-14.2,0.2s-9.5-0.1-14-0.2
	s-9.2-0.3-14.2-0.5c-3.6-0.2-7-1.1-10.2-2.6s-6-3.5-8.4-6c-2.4-2.5-4.4-5.3-6-8.4s-2.5-6.5-2.6-10.2c-0.8-18.8-0.8-37.5,0-56.3
	c0.2-3.6,1.1-7,2.6-10.2s3.5-6.1,6-8.6s5.3-4.5,8.4-5.9S24.1,2,27.9,1.7c18.8-0.9,37.5-0.9,56.3,0c3.6,0.2,7,1.1,10.2,2.6
	c3.2,1.5,6.1,3.5,8.6,5.9c2.5,2.4,4.5,5.3,5.9,8.6S111.1,25.4,111.4,28.9z M100.9,84.6c0.9-18.4,0.9-36.8,0-55.3
	c-0.1-2.2-0.7-4.3-1.7-6.3c-1-2-2.3-3.8-3.8-5.4c-1.5-1.6-3.3-2.9-5.4-3.9c-2.1-1-4.2-1.6-6.3-1.7c-4.6-0.2-9.2-0.4-13.9-0.5
	c-4.6-0.1-9.2-0.2-13.9-0.2s-9.2,0.1-13.9,0.2c-4.6,0.1-9.2,0.3-13.9,0.5c-2.2,0.1-4.3,0.7-6.3,1.7s-3.8,2.3-5.3,3.9
	c-1.5,1.6-2.8,3.4-3.9,5.4s-1.7,4.1-1.7,6.3c-0.9,18.5-0.9,36.9,0,55.4c0.1,2.2,0.7,4.3,1.7,6.3c1,2,2.3,3.8,3.9,5.3
	s3.4,2.8,5.3,3.9s4,1.7,6.3,1.7c18.5,0.9,36.9,0.9,55.4,0c2.2-0.1,4.3-0.7,6.3-1.7c2-1,3.8-2.3,5.4-3.9s2.9-3.4,3.8-5.4
	C100.1,88.9,100.7,86.8,100.9,84.6z M85.7,20.8c1.8,0,3.4,0.7,4.7,2c1.3,1.3,2,2.9,2,4.7c0,1.8-0.7,3.4-2,4.7c-1.3,1.3-2.9,2-4.7,2
	c-1.8,0-3.4-0.7-4.7-2c-1.3-1.3-2-2.9-2-4.7c0-1.8,0.7-3.4,2-4.7C82.3,21.4,83.9,20.8,85.7,20.8z"/>
</svg>
