<?xml version="1.0" encoding="utf-8"?>
<!-- Generator: Adobe Illustrator 27.0.0, SVG Export Plug-In . SVG Version: 6.00 Build 0)  -->
<svg version="1.1" id="Capa_2_00000032643381894227481300000007977933394547669636_"
	 xmlns="http://www.w3.org/2000/svg" xmlns:xlink="http://www.w3.org/1999/xlink" x="0px" y="0px" viewBox="0 0 477.7 500"
	 style="enable-background:new 0 0 477.7 500;" xml:space="preserve">
<style type="text/css">
	.st0{fill:#FFFFFF;}
</style>
<g id="Capa_1-2">
	<g>
		<path class="st0" d="M133.8,387.9c12.5-13.6,25.5-26.6,39.6-38.5c30.3-25.6,63.8-45.4,102.8-54.2c48.6-10.9,94.4-1.9,137.9,21.2
			c14.3,7.6,28.3,15.7,42.6,23.2c4.9,2.5,6.9,5.8,6.9,11.1c-0.1,38.5-0.2,76.9,0.1,115.4c0.1,9.1-4.8,10.2-12.2,10.2
			c-59.4-0.2-118.7-0.1-178.1-0.1c-82.6,0-165.3,0-247.9,0c-14.2,0-14.3-0.2-8.3-13.2c28.7-62.9,56.3-126.1,76.6-192.5
			c26.5-86.8,93.8-138.4,184.5-145.8c23.9-1.9,47.7-2.3,71.6-0.2c-38.7-8.5-77.8-10.8-117.1-7.8c-25.6,1.9-50.8,6.6-74.9,15.9
			c-5.3,2-9.1-0.6-13.3-2.6c-13.7-6.4-27.8-10-43.1-6.9c-15.1,3.1-26.2,11.8-35,23.9c-6.9,9.6-13.7,19.2-20.7,28.8
			c-6.3,8.7-14.6,14.7-24.3,19.3c-7.4,3.5-9.6,1.2-9.6-6.4c0.2-22.9,0.1-45.9,0.1-68.8c0-28,0.2-56-0.1-84
			C11.8,27.2,14.7,24,23.5,24c142.7,0.2,285.4,0.2,428.1,0c9.2,0,12.4,3.4,12.4,12.5c-0.3,48.2-0.2,96.5,0,144.7
			c0,7.4-2.3,12.1-9.3,14.9c-4.7,1.9-9.1,4.4-13.5,6.8c-24,13.3-48.9,17.9-76,10.4c-12.2-3.4-24.9-5.9-37.9-3.2
			c-22.9,4.8-36.2,19.9-43.8,40.7c-3,8.1-7.7,12.2-15.3,15.8c-41.5,19.7-75.4,49.4-105.6,83.5C151.8,362.1,142,374.4,133.8,387.9
			L133.8,387.9z"/>
		<path class="st0" d="M88.4,150.1c0.7-7.7,4.6-12.2,11.6-12.3c7.5,0,11.8,4.7,11.8,12.3c-0.1,7.2-4.5,11.6-11.4,11.6
			C92.7,161.9,89,156.9,88.4,150.1L88.4,150.1z"/>
		<path class="st0" d="M327.9,247.6c-7.5-0.8-12-4.7-12-11.6c0-7.5,4.6-11.9,12.3-11.7c7.2,0.2,11.6,4.6,11.6,11.5
			C339.9,243.2,335,247.2,327.9,247.6L327.9,247.6z"/>
	</g>
</g>
</svg>
