<?xml version="1.0" encoding="utf-8"?>
<!-- Generator: Adobe Illustrator 27.0.0, SVG Export Plug-In . SVG Version: 6.00 Build 0)  -->
<svg version="1.1" id="Capa_1" xmlns="http://www.w3.org/2000/svg" xmlns:xlink="http://www.w3.org/1999/xlink" x="0px" y="0px"
	 viewBox="0 0 18 18" style="enable-background:new 0 0 18 18;" xml:space="preserve">
<style type="text/css">
	.st0{fill:#FFFFFF;}
</style>
<path class="st0" d="M15.3,12.6c0-0.2-0.1-0.3-0.3-0.4l-2.6-1.5l0,0c-0.1-0.1-0.2-0.1-0.3-0.1c-0.2,0-0.4,0.1-0.6,0.2l-0.8,0.8
	c0,0-0.1,0.1-0.2,0.1c0,0-0.9-0.1-2.5-1.7C6.4,8.4,6.3,7.5,6.3,7.5c0,0,0-0.2,0.1-0.2l0.6-0.6C7.3,6.4,7.4,6,7.2,5.7L5.8,3
	C5.7,2.8,5.5,2.7,5.3,2.7C5.1,2.7,5,2.8,4.8,2.9L3.1,4.7C2.9,4.8,2.7,5.1,2.7,5.4c0,0.1-0.3,2.8,3.4,6.5c3.2,3.2,5.6,3.4,6.3,3.4
	c0.1,0,0.2,0,0.2,0c0.2,0,0.5-0.2,0.7-0.3l1.8-1.8C15.3,13,15.3,12.8,15.3,12.6z"/>
</svg>
