<?xml version="1.0" encoding="UTF-8"?>
<svg id="Capa_2" data-name="Capa 2" xmlns="http://www.w3.org/2000/svg" viewBox="0 0 3493.68 3493.27">
  <defs>
    <style>
      .cls-1 {
        fill: #fff;
        fill-rule: evenodd;
      }
    </style>
  </defs>
  <g id="Layer_1" data-name="Layer 1">
    <path class="cls-1" d="M1627.66,4.9C699.99,73.47-69.87,862.28,5.04,1877.95c67.64,917.18,865.91,1687.43,1877.72,1609.94,912.34-69.89,1680.23-862.19,1605.94-1867.29C3421.11,706.09,2628.7-69.1,1627.66,4.9M776.91,1513.9l204.26,66.51,2.75-12.32c-194.29-219.11-254.18-218.17-149-590.67,395.13,189.58,249.36,419.15,923.92,455.08-25.82-268.01,123.09-505.29,402.65-533.77,296.34-30.2,349.19,257.94,659,21.51l-17.15,24.09-164.36,226.11,219.38-57.53-206.26,212.46c-10.38,1472.39-1584.81,1479.14-1941.38,1144.37,232.82-10.48,508.94-46.37,615.15-190.61-214.37-60.72-334.91-108.32-398.61-303.91l185.63-15.73c-256.5-217.8-250.96-46.81-335.99-445.6Z"/>
  </g>
</svg>