<?xml version="1.0" standalone="no"?>
<!DOCTYPE svg PUBLIC "-//W3C//DTD SVG 1.1//EN" "http://www.w3.org/Graphics/SVG/1.1/DTD/svg11.dtd" >
<svg xmlns="http://www.w3.org/2000/svg" xmlns:xlink="http://www.w3.org/1999/xlink" version="1.1">
<metadata>
Created by FontForge 20170731 at Mon Mar  9 23:26:04 2015
 By Aleksey,,,
 Copyright (c)2014 Talbot Type. All Rights Reserved
</metadata>
<defs>
<font id="Kamerik205-Regular4" horiz-adv-x="262" >
  <font-face 
    font-family="Kamerik205 7"
    font-weight="400"
    font-style="italic"
    font-stretch="normal"
    units-per-em="1000"
    panose-1="2 11 8 3 3 6 0 9 0 4"
    ascent="803"
    descent="-197"
    x-height="579"
    cap-height="750"
    bbox="-2 -235 1322 932"
    underline-thickness="28"
    underline-position="-128"
    slope="-12"
    unicode-range="U+0020-FB07"
  />
<missing-glyph horiz-adv-x="270" 
 />
    <glyph glyph-name=".notdef" horiz-adv-x="270" 
 />
    <glyph glyph-name=".null" horiz-adv-x="0" 
 />
    <glyph glyph-name="nonmarkingreturn" horiz-adv-x="333" 
 />
    <glyph glyph-name="space" unicode=" " horiz-adv-x="270" 
 />
    <glyph glyph-name="exclam" unicode="!" horiz-adv-x="268" 
d="M218 70q-4 -33 -28.5 -55t-56.5 -22t-52.5 22t-16.5 55q3 31 28 53t57 22t52 -22t17 -53zM208 204h-127l57 546h127z" />
    <glyph glyph-name="quotedbl" unicode="&#x22;" horiz-adv-x="309" 
d="M123 477h-73v273h73v-273zM187 750h72v-273h-72v273z" />
    <glyph glyph-name="numbersign" unicode="#" horiz-adv-x="620" 
d="M417 426h-103l-32 -103h102zM484 426l-33 -103h182l-7 -67h-196l-80 -256h-69l82 256h-103l-81 -256h-67l80 256h-146l7 67h160l33 103h-182l7 68h196l81 256h69l-81 -256h102l81 256h69l-81 -256h144l-7 -68h-160z" />
    <glyph glyph-name="dollar" unicode="$" horiz-adv-x="581" 
d="M589 535h-144q5 49 -20 79t-68 30q-44 0 -74 -27.5t-34 -71.5q-4 -43 20 -69.5t68 -26.5q110 0 173 -67t52 -173q-9 -86 -67.5 -146.5t-139.5 -76.5l-6 -62h-136l6 62q-76 15 -121 77.5t-37 145.5h147q-4 -43 22.5 -73t70.5 -30t76.5 29.5t36.5 73.5q5 43 -21.5 73
t-70.5 30q-110 0 -171 64t-50 169q9 88 61.5 138.5t136.5 65.5l7 61h136l-7 -61q173 -29 154 -214z" />
    <glyph glyph-name="percent" unicode="%" horiz-adv-x="627" 
d="M186 -17l-66 29l304 582h-11q-21 0 -38 6q-17 -46 -57 -75.5t-88 -29.5q-56 0 -93 40t-31 96q6 57 51 96.5t101 39.5q37 0 67 -18.5t45 -48.5q14 -32 51 -32q40 0 62 39l31 60l66 -29zM599 120q-6 -57 -50 -97t-101 -40q-56 0 -92.5 40t-30.5 97q6 56 50.5 96t100.5 40
q57 0 93 -40t30 -96zM307 631q2 26 -14.5 44.5t-42.5 18.5q-25 0 -45.5 -18.5t-22.5 -44.5q-3 -26 13.5 -44t41.5 -18q26 0 46.5 18t23.5 44zM523 120q3 26 -12.5 44t-41.5 18q-25 0 -45 -18.5t-23 -43.5q-3 -26 13 -44.5t41 -18.5q26 0 45.5 18.5t22.5 44.5z" />
    <glyph glyph-name="ampersand" unicode="&#x26;" horiz-adv-x="667" 
d="M650 132l-13 -132h-42q-62 0 -99 51q-78 -68 -179 -68q-125 0 -195.5 67t-57.5 183q7 65 48 120.5t100 93.5q-44 65 -37 124q8 82 74 139t150 57t138 -56.5t46 -139.5q-9 -80 -76 -138t-149 -58q-58 0 -98.5 -38t-46.5 -94q-6 -58 26.5 -96t90.5 -38q56 0 99 42t49 97
l4 42q8 72 48.5 113t110.5 41h42l-14 -132h-42q-7 0 -13 -5t-6 -12l-16 -145q-1 -7 4 -12.5t12 -5.5h42zM307 570q-3 -29 16 -50t48 -21q28 0 51.5 21t26.5 50q3 28 -16 49.5t-47 21.5t-52 -21.5t-27 -49.5z" />
    <glyph glyph-name="quotesingle" unicode="'" horiz-adv-x="173" 
d="M50 477v273h73v-273h-73z" />
    <glyph glyph-name="parenleft" unicode="(" horiz-adv-x="337" 
d="M212 287q-30 -289 75 -475h-109q-45 102 -63 226.5t-5 248.5q28 266 168 480h109q-144 -187 -175 -480z" />
    <glyph glyph-name="parenright" unicode=")" horiz-adv-x="337" 
d="M185 287q30 291 -75 480h109q96 -214 68 -480q-28 -260 -168 -475h-109q145 189 175 475z" />
    <glyph glyph-name="asterisk" unicode="*" horiz-adv-x="385" 
d="M207 647l-57 26l40 57l48 -38l1 65h66l-13 -65l57 38l26 -57l-61 -26l56 -28l-38 -56l-49 37l-1 -65h-66l13 65l-56 -37l-28 56z" />
    <glyph glyph-name="plus" unicode="+" horiz-adv-x="680" 
d="M50 340h240v239h102v-239h238v-102h-238v-238h-102v238h-240v102z" />
    <glyph glyph-name="comma" unicode="," horiz-adv-x="274" 
d="M188 -5q-5 -48 -42.5 -82t-84.5 -34l7 65q20 0 36.5 14.5t19.5 35.5q-5 -2 -13 -2q-32 0 -52.5 23t-16.5 54q3 31 28 54t57 23q31 0 51.5 -22.5t17.5 -54.5z" />
    <glyph glyph-name="hyphen" unicode="-" horiz-adv-x="465" 
d="M105 340h325l-10 -102h-325z" />
    <glyph glyph-name="period" unicode="." horiz-adv-x="274" 
d="M111 -8q-32 0 -52.5 23t-16.5 54q3 31 28 54t57 23q31 0 51.5 -22.5t17.5 -54.5q-4 -32 -29 -54.5t-56 -22.5z" />
    <glyph glyph-name="slash" unicode="/" horiz-adv-x="502" 
d="M61 12l393 755l65 -29l-393 -755z" />
    <glyph glyph-name="zero" unicode="0" horiz-adv-x="641" 
d="M641 503l-27 -257q-12 -114 -97.5 -188.5t-197.5 -74.5t-183 74.5t-59 188.5l27 257q13 114 99 189t198 75t182.5 -75t57.5 -189zM471 236l29 277q6 53 -27 90.5t-85 37.5q-53 0 -94 -37.5t-47 -90.5l-29 -277q-5 -53 28 -90t86 -37q52 0 93 37t46 90z" />
    <glyph glyph-name="one" unicode="1" horiz-adv-x="404" 
d="M105 529l14 136l151 85h142l-78 -750h-142l63 603l-3 3z" />
    <glyph glyph-name="two" unicode="2" horiz-adv-x="596" 
d="M490 322l-212 -183l1 -3h269l-14 -136h-474l14 136l338 288q44 40 51 101q5 52 -20.5 84t-80.5 32q-54 0 -88 -36.5t-40 -89.5l-4 -33h-140l4 33q11 112 87.5 182t193.5 70q118 0 182.5 -65.5t53.5 -176.5q-6 -54 -41 -109t-80 -94z" />
    <glyph glyph-name="three" unicode="3" horiz-adv-x="619" 
d="M355 460q98 0 107 91q5 47 -15.5 68.5t-72.5 21.5q-99 0 -108 -95h-146l1 8q11 102 80 157.5t186 55.5q120 0 177.5 -51t46.5 -157q-6 -58 -37.5 -99.5t-79.5 -60.5v-4q55 -21 84 -69.5t22 -116.5q-12 -112 -88.5 -169t-206.5 -57q-128 0 -192 61t-53 170l1 8h146
q-6 -54 21.5 -83.5t89.5 -29.5q124 0 135 108q6 52 -23 80t-89 28h-52l14 135h52z" />
    <glyph glyph-name="four" unicode="4" horiz-adv-x="594" 
d="M34 136l14 136l378 478h142l-50 -478h84l-14 -136h-84l-14 -136h-142l14 136h-328zM400 532l-199 -257l1 -3h174l27 259z" />
    <glyph glyph-name="five" unicode="5" horiz-adv-x="627" 
d="M243 319l-129 23l113 408h359l-14 -136h-245l-34 -141l3 -2q54 17 97 17q105 0 167.5 -71.5t50.5 -180.5q-13 -119 -95.5 -186t-207.5 -67q-119 0 -187.5 69t-56.5 184h141q-5 -53 29 -90t87 -37t95 37t47 90q6 53 -28 90.5t-87 37.5q-60 0 -105 -45z" />
    <glyph glyph-name="six" unicode="6" horiz-adv-x="629" 
d="M535 750l-182 -259l1 -1q10 1 19 1q109 0 180.5 -72t60.5 -181q-13 -113 -99.5 -184t-202.5 -71t-187.5 71.5t-59.5 183.5q7 82 50 142l263 370h157zM466 238q5 52 -28 89.5t-86 37.5t-93.5 -37.5t-45.5 -89.5q-6 -53 26.5 -91t85.5 -38t94 38t47 91z" />
    <glyph glyph-name="seven" unicode="7" horiz-adv-x="556" 
d="M442 614h-352l14 136h500l-14 -136l-316 -614h-154l323 611z" />
    <glyph glyph-name="eight" unicode="8" horiz-adv-x="642" 
d="M476 218q6 54 -26.5 81.5t-94.5 27.5t-100.5 -27.5t-44.5 -81.5q-5 -54 28 -81.5t94 -27.5t100 27.5t44 81.5zM487 549q5 46 -22 69t-77 23t-82 -23t-37 -69q-5 -47 22 -70.5t77 -23.5t82 23.5t37 70.5zM634 554q-6 -56 -41.5 -96.5t-84.5 -60.5v-4q56 -20 89.5 -67.5
t26.5 -112.5q-12 -111 -95 -170.5t-210 -59.5t-198 59.5t-59 170.5q6 65 50 112.5t104 67.5v4q-45 20 -71.5 60.5t-20.5 96.5q11 103 86 158t191 55q115 0 179.5 -55t53.5 -158z" />
    <glyph glyph-name="nine" unicode="9" horiz-adv-x="629" 
d="M172 0l182 259l-1 1q-10 -1 -19 -1q-109 0 -180.5 72t-60.5 181q12 113 99 184t203 71t187.5 -71t59.5 -184q-9 -83 -51 -142l-262 -370h-157zM241 512q-5 -52 28 -89.5t86 -37.5t93.5 37.5t45.5 89.5q6 53 -26.5 91t-85.5 38t-94 -38t-47 -91z" />
    <glyph glyph-name="colon" unicode=":" horiz-adv-x="274" 
d="M196 69q-4 -32 -29 -54.5t-56 -22.5q-32 0 -52.5 23t-16.5 54q3 31 28 54t57 23q31 0 51.5 -22.5t17.5 -54.5zM88 510q4 32 29 54.5t56 22.5q32 0 52.5 -23t16.5 -54q-3 -31 -28 -54t-57 -23q-31 0 -51.5 22.5t-17.5 54.5z" />
    <glyph glyph-name="semicolon" unicode=";" horiz-adv-x="274" 
d="M88 510q4 32 29 54.5t56 22.5q32 0 52.5 -23t16.5 -54q-3 -31 -28 -54t-57 -23q-31 0 -51.5 22.5t-17.5 54.5zM196 69l-8 -74q-5 -48 -42.5 -82t-84.5 -34l7 65q20 0 36.5 14.5t19.5 35.5q-5 -2 -13 -2q-32 0 -52.5 23t-16.5 54q3 31 28 54t57 23q31 0 51.5 -22.5
t17.5 -54.5z" />
    <glyph glyph-name="less" unicode="&#x3c;" horiz-adv-x="421" 
d="M381 579v-125l-243 -162v-5l243 -162v-125l-341 238v102z" />
    <glyph glyph-name="equal" unicode="=" horiz-adv-x="679" 
d="M50 256h579v-102h-579v102zM629 324h-579v102h579v-102z" />
    <glyph glyph-name="greater" unicode="&#x3e;" horiz-adv-x="421" 
d="M40 454v125l341 -239v-102l-341 -238v125l243 162v5z" />
    <glyph glyph-name="question" unicode="?" horiz-adv-x="610" 
d="M381 768q116 0 185 -71t58 -183q-10 -95 -76.5 -160.5t-150.5 -72.5l-8 -80h-134l19 188h67q53 0 91 36t44 89q5 53 -25 90t-83 37t-91 -37t-43 -90h-140q11 112 91.5 183t195.5 71zM384 69q-4 -32 -28.5 -54.5t-55.5 -22.5q-32 0 -52.5 22.5t-16.5 54.5q3 32 28 54.5
t57 22.5q31 0 51 -22.5t17 -54.5z" />
    <glyph glyph-name="at" unicode="@" horiz-adv-x="875" 
d="M741 337l4 38q12 113 -60 193.5t-184 80.5q-113 0 -201 -80.5t-100 -193.5t59 -193.5t184 -80.5q60 0 125 30l42 -107q-88 -41 -179 -41q-163 0 -266 115t-86 277t144 277t290 115q162 0 265 -115t86 -277l-4 -38q-7 -65 -58.5 -111.5t-116.5 -46.5t-104 45
q-60 -44 -130 -44q-81 0 -132.5 57t-43.5 138t72 138t145 57t132.5 -57t43.5 -138l-5 -42q1 -15 10.5 -25.5t24.5 -10.5q16 0 28.5 11.5t14.5 28.5zM548 375q3 32 -17 54.5t-51 22.5t-56 -22.5t-28 -54.5q-4 -31 16 -54t52 -23q31 0 55.5 22.5t28.5 54.5z" />
    <glyph glyph-name="A" unicode="A" horiz-adv-x="712" 
d="M357 750h154l186 -750h-153l-33 136h-282l-61 -136h-153zM292 272h184l-56 306h-8z" />
    <glyph glyph-name="B" unicode="B" horiz-adv-x="694" 
d="M677 221q-10 -94 -86.5 -157.5t-176.5 -63.5h-354l78 750h337q93 0 152 -58t50 -146q-11 -95 -109 -145q49 -20 82.5 -66t26.5 -114zM530 232q4 39 -20 67t-62 28h-212l-20 -191h212q39 0 68 28t34 68zM266 614l-17 -159h195q31 0 55.5 23.5t28.5 55.5q3 33 -16.5 56.5
t-50.5 23.5h-195z" />
    <glyph glyph-name="C" unicode="C" horiz-adv-x="849" 
d="M517 767q134 0 233.5 -77.5t114.5 -203.5h-146q-26 66 -84 108.5t-132 42.5q-104 0 -187.5 -78t-94.5 -184q-11 -107 55.5 -184.5t171.5 -77.5q74 0 140.5 42t106.5 109h146q-42 -126 -157 -203.5t-249 -77.5q-168 0 -273.5 113t-87.5 279q17 166 146 279t297 113z" />
    <glyph glyph-name="D" unicode="D" horiz-adv-x="741" 
d="M138 750h261q164 0 263.5 -106.5t82.5 -268.5t-138.5 -268.5t-285.5 -106.5h-261zM597 375q11 98 -51.5 168.5t-160.5 70.5h-119l-50 -478h119q98 0 174.5 70t87.5 169z" />
    <glyph glyph-name="E" unicode="E" horiz-adv-x="646" 
d="M216 136h409l-14 -136h-551l78 750h551l-14 -136h-409l-18 -170h340l-14 -136h-340z" />
    <glyph glyph-name="F" unicode="F" horiz-adv-x="608" 
d="M657 614h-391l-18 -170h323l-14 -136h-323l-32 -308h-142l78 750h533z" />
    <glyph glyph-name="G" unicode="G" horiz-adv-x="879" 
d="M814 0h-132l12 121h-4q-42 -62 -116.5 -100t-165.5 -38q-155 0 -253.5 113t-80.5 279q17 167 147.5 279.5t305.5 112.5q125 0 224 -69t117 -182h-154q-22 55 -75.5 88t-125.5 33q-112 0 -196 -77.5t-95 -184.5t54 -184.5t170 -77.5q87 0 163.5 57t98.5 138h-229l14 136
h367z" />
    <glyph glyph-name="H" unicode="H" horiz-adv-x="709" 
d="M649 0h-142l32 308h-305l-32 -308h-142l78 750h142l-32 -306h305l32 306h142z" />
    <glyph glyph-name="I" unicode="I" 
d="M60 0l78 750h142l-78 -750h-142z" />
    <glyph glyph-name="J" unicode="J" horiz-adv-x="554" 
d="M254 -17q-109 0 -166 62t-46 170h140q-5 -45 18.5 -73.5t66.5 -28.5q44 0 73 28t34 74l56 535h142l-56 -535q-11 -107 -82 -169.5t-180 -62.5z" />
    <glyph glyph-name="K" unicode="K" horiz-adv-x="699" 
d="M397 375l287 -375h-180l-208 270l-74 -75l-20 -195h-142l78 750h142l-36 -347l338 347h180z" />
    <glyph glyph-name="L" unicode="L" horiz-adv-x="591" 
d="M590 136l-14 -136h-516l78 750h142l-64 -614h374z" />
    <glyph glyph-name="M" unicode="M" horiz-adv-x="880" 
d="M898 750l-78 -750h-141l44 410h-3l-210 -410h-139l-124 410h-3l-42 -410h-142l78 750h142l177 -561h4l296 561h141z" />
    <glyph glyph-name="N" unicode="N" horiz-adv-x="709" 
d="M727 750l-78 -750h-142l-251 500h-2l-52 -500h-142l78 750h142l251 -501h2l52 501h142z" />
    <glyph glyph-name="O" unicode="O" horiz-adv-x="874" 
d="M730 375q11 106 -55 182t-172 76q-105 0 -187.5 -76t-93.5 -182q-11 -107 55 -182.5t172 -75.5t188 75.5t93 182.5zM878 375q-11 -109 -74.5 -199.5t-161 -141.5t-207.5 -51q-168 0 -273 113t-88 279t146 279t297 113q167 0 272.5 -113t88.5 -279z" />
    <glyph glyph-name="P" unicode="P" horiz-adv-x="689" 
d="M705 494q-11 -109 -95.5 -182.5t-194.5 -73.5h-188l-25 -238h-142l78 750h330q111 0 180 -73.5t57 -182.5zM557 494q5 50 -24.5 85t-78.5 35h-188l-25 -240h188q48 0 85.5 35t42.5 85z" />
    <glyph glyph-name="Q" unicode="Q" horiz-adv-x="884" 
d="M853 135l-14 -135h-402q-169 0 -274.5 107t-88.5 271q17 165 146 276.5t297 111.5t273 -113t88 -275q-14 -133 -153 -239l3 -4h125zM450 132q104 0 186.5 71t93.5 175q11 105 -55 180t-172 75q-105 0 -187.5 -75t-93.5 -180q-10 -103 56 -174.5t172 -71.5z" />
    <glyph glyph-name="R" unicode="R" horiz-adv-x="694" 
d="M705 494q-8 -79 -56 -140.5t-120 -91.5l104 -262h-158l-94 238h-154l-25 -238h-142l78 750h330q111 0 180 -73.5t57 -182.5zM557 494q5 50 -24.5 85t-78.5 35h-188l-25 -240h188q48 0 85.5 35t42.5 85z" />
    <glyph glyph-name="S" unicode="S" horiz-adv-x="641" 
d="M639 541h-140q5 44 -28.5 73.5t-86.5 29.5q-54 0 -87 -24t-38 -65q-4 -35 16 -57t54 -32.5t76 -18.5t83 -21.5t74 -35.5t50.5 -66t10.5 -107q-11 -108 -97 -171t-211 -63q-124 0 -194 65.5t-58 177.5h140q-5 -51 30 -85.5t95 -34.5t101 31t46 80q4 36 -16 59t-54 33.5
t-75.5 18.5t-83 21t-74.5 34.5t-50.5 65t-10.5 106.5q10 99 90 155.5t196 56.5q117 0 185.5 -60t56.5 -166z" />
    <glyph glyph-name="T" unicode="T" horiz-adv-x="616" 
d="M665 614h-222l-64 -614h-142l64 614h-222l14 136h586z" />
    <glyph glyph-name="U" unicode="U" horiz-adv-x="718" 
d="M736 750l-51 -489q-13 -127 -104.5 -202.5t-223.5 -75.5t-207.5 75t-62.5 203l51 489h142l-51 -492q-7 -66 33 -105.5t108 -39.5t117 39.5t56 105.5l51 492h142z" />
    <glyph glyph-name="V" unicode="V" horiz-adv-x="704" 
d="M767 750l-346 -750h-138l-190 750h149l129 -542h4l243 542h149z" />
    <glyph glyph-name="W" unicode="W" horiz-adv-x="1002" 
d="M1065 750l-288 -750h-140l-81 503h-4l-186 -503h-140l-133 750h145l81 -504h4l185 504h142l79 -504h4l187 504h145z" />
    <glyph glyph-name="X" unicode="X" horiz-adv-x="693" 
d="M472 375l206 -375h-170l-132 257h-4l-187 -257h-170l284 375l-206 375h170l133 -258h4l186 258h170z" />
    <glyph glyph-name="Y" unicode="Y" horiz-adv-x="715" 
d="M610 750h168l-315 -435l-33 -315h-142l33 315l-228 435h168l144 -291h4z" />
    <glyph glyph-name="Z" unicode="Z" horiz-adv-x="639" 
d="M623 136l-14 -136h-579l14 136l452 476v2h-402l14 136h579l-14 -136l-451 -476v-2h401z" />
    <glyph glyph-name="bracketleft" unicode="[" horiz-adv-x="314" 
d="M173 -77h102l-9 -94h-204l96 921h204l-10 -94h-102z" />
    <glyph glyph-name="backslash" unicode="\" horiz-adv-x="502" 
d="M208 767l235 -755l-71 -29l-235 755z" />
    <glyph glyph-name="bracketright" unicode="]" horiz-adv-x="314" 
d="M21 -77h102l77 733h-102l10 94h204l-96 -921h-204z" />
    <glyph glyph-name="asciicircum" unicode="^" horiz-adv-x="598" 
d="M248 750h102l188 -375h-115l-122 262h-2l-124 -262h-115z" />
    <glyph glyph-name="underscore" unicode="_" horiz-adv-x="519" 
d="M0 -91h579v-25h-579v25z" />
    <glyph glyph-name="grave" unicode="`" horiz-adv-x="351" 
d="M161 684l9 83l165 -59l-7 -66z" />
    <glyph glyph-name="a" unicode="a" horiz-adv-x="645" 
d="M626 399l-41 -399h-142l8 84l-3 1q-74 -102 -188 -102q-227 0 -207 191q19 182 252 182h175l4 43q6 49 -21 65.5t-88 16.5q-60 0 -91 -17t-37 -65h-136q11 98 84 147.5t192 49.5q120 0 185 -49.5t54 -147.5zM464 203l4 42h-175q-85 0 -93 -67q-4 -36 18.5 -51.5
t86.5 -15.5q68 0 111.5 26.5t47.5 65.5z" />
    <glyph glyph-name="b" unicode="b" horiz-adv-x="728" 
d="M232 290q-8 -72 34.5 -124.5t115.5 -52.5t126.5 52.5t61.5 124.5q8 71 -35 123.5t-116 52.5t-126 -52t-61 -124zM210 85l-8 -85h-142l78 750h142l-26 -255h2q84 101 203 101q129 0 201 -86.5t58 -219.5t-104 -220t-219 -87q-117 0 -183 102h-2z" />
    <glyph glyph-name="c" unicode="c" horiz-adv-x="690" 
d="M697 359h-145q-15 51 -51.5 83t-94.5 32q-77 0 -129 -52t-60 -132q-8 -79 33 -131.5t118 -52.5q111 0 170 115h145q-34 -111 -119 -174.5t-209 -63.5q-139 0 -219 87t-66 220t112 220t237 87q124 0 195.5 -63.5t82.5 -174.5z" />
    <glyph glyph-name="d" unicode="d" horiz-adv-x="728" 
d="M556 290q8 72 -35 124t-116 52t-126 -52t-61 -124t34.5 -124.5t115.5 -52.5t126.5 52.5t61.5 124.5zM526 0l8 85h-2q-85 -102 -203 -102q-129 0 -201 87t-58 220t104 219.5t219 86.5q118 0 183 -101h2l26 255h142l-78 -750h-142z" />
    <glyph glyph-name="e" unicode="e" horiz-adv-x="707" 
d="M697 290q-2 -25 -15 -65h-467q6 -49 48.5 -84t101.5 -35q43 0 79 19.5t58 48.5h154q-40 -87 -123.5 -139t-180.5 -52q-131 0 -213 88.5t-69 218.5t114.5 218t233.5 88q129 0 210.5 -89t68.5 -217zM230 348h321q-6 55 -44 91.5t-101 36.5t-111.5 -37t-64.5 -91z" />
    <glyph glyph-name="f" unicode="f" horiz-adv-x="347" 
d="M284 579h79l-11 -110h-79l-49 -469h-142l49 469h-52l11 110h52l2 20q8 73 57 112t129 39h51l-12 -116h-44q-14 0 -26 -10.5t-13 -24.5z" />
    <glyph glyph-name="g" unicode="g" horiz-adv-x="637" 
d="M596 493q-30 0 -30 -27q0 -1 5 -25t3 -42q-9 -88 -71.5 -138t-161.5 -50h-19q-37 0 -53.5 -0.5t-37.5 -4t-29.5 -12.5t-10.5 -24q-1 -18 13 -27q47 14 131 14q136 0 204.5 -41.5t59.5 -128.5q-18 -175 -300 -175q-283 0 -265 175q5 37 50 87q-31 40 -27 78q6 48 42 82.5
t98 40.5l1 4q-25 19 -41 51.5t-12 68.5q9 86 75.5 141.5t160.5 55.5q79 0 131 -47q40 47 95 47h39l-11 -103h-39zM182 -13q-4 -35 28 -49t101 -14q68 0 102 14t38 49t-28 50.5t-99 15.5q-135 0 -142 -66zM436 399q4 31 -16.5 53.5t-51.5 22.5t-56 -22.5t-29 -53.5
q-3 -31 17.5 -53t52.5 -22q31 0 55.5 22t27.5 53z" />
    <glyph glyph-name="h" unicode="h" horiz-adv-x="655" 
d="M202 0h-142l78 750h142l-25 -243q1 0 1 -0.5t1 -0.5l1 1q30 38 76 63.5t99 25.5q101 0 155.5 -68t42.5 -178l-36 -350h-142l34 332q6 53 -26.5 90.5t-84.5 37.5q-53 0 -93.5 -37.5t-46.5 -90.5z" />
    <glyph glyph-name="i" unicode="i" 
d="M120 579h142l-60 -579h-142zM124 689q3 32 29 55t58 23t53 -23t18 -55q-4 -33 -29.5 -55.5t-57.5 -22.5q-33 0 -54 22.5t-17 55.5z" />
    <glyph glyph-name="j" unicode="j" horiz-adv-x="286" 
d="M150 689q2 32 28 55t59 23q32 0 53 -23t18 -55q-4 -33 -29.5 -55.5t-57.5 -22.5q-33 0 -54 22.5t-17 55.5zM83 -20l63 599h142l-63 -599q-7 -73 -56 -112t-129 -39h-40l12 116h33q14 0 25 10.5t13 24.5z" />
    <glyph glyph-name="k" unicode="k" horiz-adv-x="628" 
d="M487 579h189l-285 -269l225 -310h-178l-152 212l-69 -68l-15 -144h-142l78 750h142l-43 -410z" />
    <glyph glyph-name="l" unicode="l" 
d="M60 0l78 750h142l-78 -750h-142z" />
    <glyph glyph-name="m" unicode="m" horiz-adv-x="950" 
d="M202 0h-142l60 579h131l-8 -79h2q66 96 161 96q99 0 152 -100q35 42 85.5 71t100.5 29q96 0 145 -65.5t38 -172.5l-37 -358h-142l38 364q5 43 -21.5 72.5t-69.5 29.5q-42 0 -74.5 -29.5t-36.5 -72.5l-38 -364h-142l38 364q5 43 -21.5 72.5t-69.5 29.5q-42 0 -74.5 -29.5
t-36.5 -72.5z" />
    <glyph glyph-name="n" unicode="n" horiz-adv-x="657" 
d="M202 0h-142l60 579h131l-8 -83h2q28 44 77 72t112 28q100 0 155.5 -68.5t43.5 -177.5l-36 -350h-142l35 338q5 53 -28 90.5t-85 37.5q-53 0 -94 -37.5t-46 -90.5z" />
    <glyph glyph-name="o" unicode="o" horiz-adv-x="714" 
d="M556 290q8 79 -32.5 129.5t-117.5 50.5q-76 0 -128 -51t-60 -129q-8 -79 33 -130t117 -51q77 0 128.5 50.5t59.5 130.5zM704 290q-14 -131 -115 -219t-234 -88t-216 88t-69 219q13 130 115 218t234 88q133 0 215.5 -88t69.5 -218z" />
    <glyph glyph-name="p" unicode="p" horiz-adv-x="728" 
d="M232 289q-8 -72 34.5 -124t115.5 -52t126.5 52t61.5 124t-35 124.5t-116 52.5t-126 -52t-61 -125zM262 579l-9 -85h2q87 102 204 102q129 0 201 -87t58 -220t-104 -219.5t-219 -86.5q-118 0 -183 101h-2l-26 -255h-142l78 750h142z" />
    <glyph glyph-name="q" unicode="q" horiz-adv-x="728" 
d="M556 289q8 72 -35 124.5t-116 52.5t-126 -52.5t-61 -124.5t34.5 -124t115.5 -52t126.5 52t61.5 124zM577 494l9 85h142l-78 -750h-142l26 255h-2q-84 -101 -203 -101q-129 0 -201 86.5t-58 219.5t104 220t219 87q118 0 182 -102h2z" />
    <glyph glyph-name="r" unicode="r" horiz-adv-x="390" 
d="M60 0l60 579h126l-8 -80h2q67 97 168 97h12l-15 -144h-33q-51 0 -91.5 -35t-49.5 -85l-34 -332h-137z" />
    <glyph glyph-name="s" unicode="s" horiz-adv-x="586" 
d="M569 400h-136q4 39 -22 60.5t-73 21.5q-45 0 -69.5 -17.5t-26.5 -45.5q-3 -25 14.5 -39.5t47.5 -20.5t67 -11t73 -14.5t65 -27t44 -53.5t10 -88q-10 -91 -86 -136.5t-191 -45.5q-113 0 -175 53.5t-53 142.5h137q-4 -36 25 -58.5t78 -22.5q51 0 83 17.5t36 49.5
q3 27 -14.5 42t-47.5 21t-66.5 10t-72.5 13t-64.5 25.5t-44 52.5t-9.5 90q9 86 75.5 131.5t176.5 45.5q112 0 170.5 -52t48.5 -144z" />
    <glyph glyph-name="t" unicode="t" horiz-adv-x="344" 
d="M127 469h-53l11 110h53l14 131h142l-14 -131h99l-11 -110h-99l-33 -308q-1 -15 8 -25t23 -10h65l-13 -126h-65q-79 0 -123 46.5t-36 124.5z" />
    <glyph glyph-name="u" unicode="u" horiz-adv-x="657" 
d="M515 579h142l-60 -579h-131l8 83h-2q-29 -44 -77.5 -72t-111.5 -28q-100 0 -155.5 68.5t-43.5 177.5l36 350h142l-35 -338q-6 -53 26.5 -90.5t85.5 -37.5t94 37.5t47 90.5z" />
    <glyph glyph-name="v" unicode="v" horiz-adv-x="616" 
d="M661 579l-285 -579h-136l-165 579h147l106 -388h2l184 388h147z" />
    <glyph glyph-name="w" unicode="w" horiz-adv-x="924" 
d="M75 579h147l77 -359h2l152 359h137l80 -359h2l150 359h147l-254 -579h-136l-80 352h-2l-153 -352h-136z" />
    <glyph glyph-name="x" unicode="x" horiz-adv-x="620" 
d="M256 290l-181 289h169l107 -174h2l143 174h169l-240 -289l180 -290h-169l-107 175h-2l-143 -175h-169z" />
    <glyph glyph-name="y" unicode="y" horiz-adv-x="615" 
d="M660 579l-368 -750h-146l90 184l-161 566h147l106 -377h2l183 377h147z" />
    <glyph glyph-name="z" unicode="z" horiz-adv-x="570" 
d="M579 449l-336 -317v-2h302l-13 -130h-494l13 130l336 317l1 2h-303l13 130h494z" />
    <glyph glyph-name="braceleft" unicode="{" horiz-adv-x="383" 
d="M335 -171h-34q-64 0 -104.5 45t-33.5 109l21 205q2 20 -10.5 35t-33.5 15h-35l10 102h35q21 0 37.5 15.5t18.5 36.5l21 204q7 64 56.5 109t113.5 45h34l-10 -94h-34q-21 0 -38.5 -18.5t-19.5 -41.5l-21 -204q-8 -63 -72 -100v-4q57 -37 50 -100l-21 -205q-2 -23 11 -41.5
t34 -18.5h34z" />
    <glyph glyph-name="bar" unicode="|" horiz-adv-x="310" 
d="M190 -171h-70v921h70v-921z" />
    <glyph glyph-name="braceright" unicode="}" horiz-adv-x="383" 
d="M46 -171h-34l9 94h34q21 0 39 19t20 41l21 205q7 62 72 100v4q-58 38 -50 100l21 204q2 22 -11.5 41t-34.5 19h-34l10 94h34q64 0 104.5 -45t33.5 -109l-21 -204q-2 -21 10.5 -36.5t33.5 -15.5h35l-10 -102h-35q-21 0 -37.5 -15t-18.5 -35l-21 -205q-7 -64 -56.5 -109
t-113.5 -45z" />
    <glyph glyph-name="asciitilde" unicode="~" horiz-adv-x="521" 
d="M227 270q-11 18 -29.5 23.5t-35.5 -4.5q-23 -11 -23 -43h-79q1 34 18 63.5t48 46.5q45 26 93.5 12.5t75.5 -59.5q11 -18 29 -23t36 5q23 11 23 43h78q0 -74 -65 -110q-46 -26 -94.5 -13t-74.5 59z" />
    <glyph glyph-name="uni00A0" unicode="&#xa0;" horiz-adv-x="500" 
 />
    <glyph glyph-name="exclamdown" unicode="&#xa1;" horiz-adv-x="268" 
d="M282 680q-3 -31 -28 -53t-57 -22t-52 22t-17 53q4 33 28.5 55t56.5 22t52.5 -22t16.5 -55zM137 546h107l-37 -546h-147z" />
    <glyph glyph-name="cent" unicode="&#xa2;" horiz-adv-x="690" 
d="M417 -85h-138l7 75q-110 20 -169 102t-47 198q12 115 88.5 197t191.5 103l7 75h138l-7 -74q93 -16 146.5 -77t62.5 -155h-145q-15 51 -51.5 83t-94.5 32q-77 0 -129 -52t-60 -132q-8 -79 33 -131.5t118 -52.5q111 0 170 115h145q-28 -94 -95 -155t-164 -77z" />
    <glyph glyph-name="sterling" unicode="&#xa3;" horiz-adv-x="637" 
d="M154 318h-81l14 130h81l8 79q12 111 83 175t180 64t167 -64t46 -175h-136q5 51 -19 82.5t-71 31.5t-78 -31.5t-36 -82.5l-8 -79h192l-14 -130h-192l-15 -144q69 1 110 -47q29 -26 59.5 -9.5t32.5 52.5h137q-7 -74 -58.5 -125t-122.5 -61q-97 -12 -157 54q-13 14 -34 14
t-38 -14l-58 -55l-86 97l59 54q5 5 17 13z" />
    <glyph glyph-name="currency" unicode="&#xa4;" horiz-adv-x="702" 
d="M79 290q0 84 47 153l-65 66l72 72l65 -66q70 48 154 48q83 0 153 -48l65 65l72 -72l-65 -65q48 -70 48 -153q0 -84 -48 -154l65 -64l-72 -73l-65 65q-67 -47 -153 -47q-85 0 -154 47l-66 -66l-72 72l66 66q-47 69 -47 154zM179 290q0 -71 51 -122t122 -51t122 51t51 122
t-51 122t-122 51t-122 -51t-51 -122z" />
    <glyph glyph-name="yen" unicode="&#xa5;" horiz-adv-x="650" 
d="M396 0h-142l31 298h-179l9 85h163l-27 51h-131l9 85h83l-119 231h163l121 -244h2l172 244h162l-163 -231h79l-9 -85h-131l-36 -51h162l-9 -85h-179z" />
    <glyph glyph-name="brokenbar" unicode="&#xa6;" horiz-adv-x="222" 
d="M162 341h-102v290h102v-290zM162 -50h-102v289h102v-289z" />
    <glyph glyph-name="section" unicode="&#xa7;" horiz-adv-x="576" 
d="M382 15q4 32 -20.5 51.5t-63.5 19.5q-109 0 -168.5 54t-49.5 150q8 78 89 143q-33 32 -48.5 63t-10.5 75q10 94 80 145t177 51q105 0 162.5 -53t47.5 -149h-137q4 39 -18 58.5t-68 19.5q-92 0 -100 -78q-4 -32 20.5 -51.5t63.5 -19.5q109 0 168.5 -54t49.5 -150
q-8 -78 -89 -143q33 -32 48.5 -63t10.5 -75q-10 -94 -80 -145t-177 -51q-105 0 -162.5 53t-47.5 149h137q-4 -39 18 -58.5t68 -19.5q92 0 100 78zM326 373q-43 0 -70 -23t-31 -60q-4 -38 18.5 -60.5t66.5 -22.5q43 0 70 23t31 60q4 38 -18.5 60.5t-66.5 22.5z" />
    <glyph glyph-name="dieresis" unicode="&#xa8;" horiz-adv-x="330" 
d="M192 716q-2 -21 -19.5 -36t-37.5 -15q-22 0 -34.5 15t-10.5 36q2 22 18 36.5t38 14.5q21 0 34.5 -15t11.5 -36zM390 716q-2 -21 -18.5 -36t-38.5 -15q-21 0 -34 15t-11 36q2 22 18.5 36.5t37.5 14.5q22 0 35 -14.5t11 -36.5z" />
    <glyph glyph-name="copyright" unicode="&#xa9;" horiz-adv-x="693" 
d="M217 290q0 -54 37.5 -93.5t91.5 -39.5q55 0 93 40l53 -53q-60 -60 -146 -60q-85 0 -145 60t-60 146q0 85 60 145t145 60q86 0 146 -60l-53 -53q-38 40 -93 40q-54 0 -91.5 -39t-37.5 -93zM615 290q0 112 -78 191.5t-191 79.5q-111 0 -189.5 -79.5t-78.5 -191.5t78.5 -192
t189.5 -80q113 0 191 80t78 192zM653 290q0 -128 -89.5 -217.5t-217.5 -89.5q-127 0 -216.5 90t-89.5 217t89.5 216.5t216.5 89.5t217 -89.5t90 -216.5z" />
    <glyph glyph-name="ordfeminine" unicode="&#xaa;" horiz-adv-x="375" 
d="M385 668l-21 -199h-71l4 42h-1q-37 -51 -94 -51t-83 24.5t-21 71.5q10 91 127 91h87l2 21q2 25 -11 33t-44 8q-30 0 -45.5 -8.5t-17.5 -32.5h-68q5 49 41.5 74t95.5 25q60 0 92.5 -25t27.5 -74zM303 570l3 21h-87q-44 0 -47 -33q-2 -19 9.5 -26.5t43.5 -7.5q34 0 55 13.5
t23 32.5z" />
    <glyph glyph-name="guillemotleft" unicode="&#xab;" horiz-adv-x="507" 
d="M70 290l235 212l-15 -144l-82 -66v-4l68 -67l-15 -144zM284 290l235 212l-15 -144l-82 -66v-4l68 -67l-15 -144z" />
    <glyph glyph-name="logicalnot" unicode="&#xac;" horiz-adv-x="444" 
d="M384 171h-102v67h-222v102h324v-169z" />
    <glyph glyph-name="registered" unicode="&#xae;" horiz-adv-x="319" 
d="M279 648q0 -49 -35 -84.5t-84 -35.5q-50 0 -85 35t-35 85q0 49 35.5 84t84.5 35t84 -35t35 -84zM264 648q0 44 -30.5 74.5t-73.5 30.5q-44 0 -74.5 -30.5t-30.5 -74.5t30.5 -75t74.5 -31q43 0 73.5 31t30.5 75zM224 573h-31l-28 56h-33v-56h-27v153h69q21 0 35.5 -14
t14.5 -34q0 -31 -30 -46zM132 656h42q21 0 21 22q0 20 -21 20h-42v-42z" />
    <glyph glyph-name="macron" unicode="&#xaf;" horiz-adv-x="307" 
d="M325 750l-8 -78h-187l8 78h187z" />
    <glyph glyph-name="degree" unicode="&#xb0;" horiz-adv-x="308" 
d="M196 666q0 17 -12 29.5t-30 12.5q-17 0 -29.5 -12.5t-12.5 -29.5q0 -18 12.5 -30t29.5 -12q18 0 30 12t12 30zM258 666q0 -42 -30.5 -71.5t-73.5 -29.5q-42 0 -73 29.5t-31 71.5t31 71.5t73 29.5q43 0 73.5 -29.5t30.5 -71.5z" />
    <glyph glyph-name="plusminus" unicode="&#xb1;" horiz-adv-x="680" 
d="M290 324h-240v102h240v153h102v-153h238v-102h-238v-153h-102v153zM50 102h580v-102h-580v102z" />
    <glyph glyph-name="twosuperior" unicode="&#xb2;" horiz-adv-x="338" 
d="M304 536l-106 -92v-1h135l-7 -68h-237l7 68l169 144q23 20 25 50q3 26 -9.5 42t-40.5 16q-27 0 -44.5 -18t-19.5 -45l-2 -16h-70l2 16q6 56 44 91t96 35q59 0 91.5 -33t26.5 -88q-6 -53 -60 -101z" />
    <glyph glyph-name="threesuperior" unicode="&#xb3;" horiz-adv-x="351" 
d="M238 605q49 0 54 46q2 24 -8 34.5t-36 10.5q-49 0 -54 -48h-73v4q5 51 40 79t93 28q60 0 89 -25.5t23 -78.5q-6 -59 -58 -80v-2q60 -24 53 -93q-12 -113 -148 -113q-64 0 -96 30.5t-27 84.5l1 4h73q-6 -56 56 -56t67 54q3 26 -11.5 40t-44.5 14h-26l7 67h26z" />
    <glyph glyph-name="acute" unicode="&#xb4;" horiz-adv-x="351" 
d="M341 767l-9 -83l-175 -42l7 66z" />
    <glyph glyph-name="mu" unicode="&#xb5;" horiz-adv-x="657" 
d="M42 -171l78 750h142l-35 -338q-6 -53 26.5 -90.5t85.5 -37.5t94 37.5t47 90.5l35 338h142l-60 -579h-131l8 83h-2q-29 -44 -77.5 -72t-111.5 -28q-42 0 -80 31l-19 -185h-142z" />
    <glyph glyph-name="paragraph" unicode="&#xb6;" horiz-adv-x="606" 
d="M82 546q9 88 77.5 146t158.5 58h306l-78 -750h-102l64 614h-67l-64 -614h-102l35 340h-35q-90 0 -146.5 59t-46.5 147zM230 546q-3 -29 14.5 -49.5t45.5 -20.5h35l14 138h-35q-28 0 -49.5 -20t-24.5 -48z" />
    <glyph glyph-name="periodcentered" unicode="&#xb7;" horiz-adv-x="274" 
d="M134 213q-31 0 -51.5 22.5t-17.5 54.5q3 31 28 54t57 23q31 0 51.5 -22.5t17.5 -54.5q-3 -31 -28 -54t-57 -23z" />
    <glyph glyph-name="cedilla" unicode="&#xb8;" horiz-adv-x="379" 
d="M146 -97l-42 8l24 89h46l-12 -45q47 15 78 -9t26 -67q-4 -39 -31 -61t-68 -22q-39 0 -61.5 22.5t-18.5 60.5h49q-2 -17 8.5 -28.5t27.5 -11.5t29.5 11.5t14.5 28.5q2 16 -8.5 27t-27.5 11q-23 0 -34 -14z" />
    <glyph glyph-name="onesuperior" unicode="&#xb9;" horiz-adv-x="232" 
d="M107 640l7 68l75 42h71l-39 -375h-71l32 302l-2 1z" />
    <glyph glyph-name="ordmasculine" unicode="&#xba;" horiz-adv-x="397" 
d="M347 615q4 39 -16 64.5t-58 25.5t-64.5 -25.5t-30.5 -64.5q-4 -40 17 -65.5t59 -25.5t63.5 25.5t29.5 65.5zM421 615q-7 -66 -57.5 -110t-116.5 -44t-108 44t-35 110q7 65 58 109t117 44t107.5 -44t34.5 -109z" />
    <glyph glyph-name="guillemotright" unicode="&#xbb;" horiz-adv-x="507" 
d="M306 502l191 -212l-235 -213l15 144l82 67v4l-68 66zM92 502l191 -212l-235 -213l15 144l82 67v4l-68 66z" />
    <glyph glyph-name="onequarter" unicode="&#xbc;" horiz-adv-x="638" 
d="M124 5l397 763l53 -21l-399 -763zM107 640l7 68l75 42h71l-39 -375h-71l32 302l-2 1zM347 68l7 68l189 239h71l-25 -239h42l-7 -68h-42l-7 -68h-71l7 68h-164zM530 266l-99 -128v-2h87l13 130h-1z" />
    <glyph glyph-name="onehalf" unicode="&#xbd;" horiz-adv-x="683" 
d="M124 5l397 763l53 -21l-399 -763zM107 640l7 68l75 42h71l-39 -375h-71l32 302l-2 1zM609 161l-105 -92v-1h135l-7 -68h-237l7 68l169 144q22 20 25 50q3 26 -10 42t-41 16q-27 0 -44 -18t-19 -45l-2 -16h-70l2 16q5 56 43 91t97 35t91.5 -33t26.5 -88q-6 -54 -61 -101z
" />
    <glyph glyph-name="threequarters" unicode="&#xbe;" horiz-adv-x="716" 
d="M211 5l397 763l53 -21l-399 -763zM426 68l7 68l189 239h71l-25 -239h42l-7 -68h-42l-7 -68h-71l7 68h-164zM609 266l-99 -128v-2h87l13 130h-1zM238 605q49 0 54 46q2 24 -8 34.5t-36 10.5q-49 0 -54 -48h-73v4q5 51 40 79t93 28q60 0 89 -25.5t23 -78.5q-6 -59 -58 -80
v-2q60 -24 53 -93q-12 -113 -148 -113q-64 0 -96 30.5t-27 84.5l1 4h73q-6 -56 56 -56t67 54q3 26 -11.5 40t-44.5 14h-26l7 67h26z" />
    <glyph glyph-name="questiondown" unicode="&#xbf;" horiz-adv-x="611" 
d="M304 -17q-111 0 -181 72.5t-59 181.5q10 93 75.5 160.5t149.5 82.5l7 70h134l-20 -193h-67q-49 0 -87.5 -35t-43.5 -85q-5 -49 26 -83.5t80 -34.5t88.5 34.5t44.5 83.5h144q-11 -109 -95.5 -181.5t-195.5 -72.5zM301 682q4 32 28.5 54.5t55.5 22.5q32 0 52.5 -22.5
t16.5 -54.5q-3 -32 -28 -54.5t-57 -22.5q-31 0 -51 22.5t-17 54.5z" />
    <glyph glyph-name="Agrave" unicode="&#xc0;" horiz-adv-x="712" 
d="M357 827l9 83l165 -59l-7 -66zM357 750h154l186 -750h-153l-33 136h-282l-61 -136h-153zM292 272h184l-56 306h-8z" />
    <glyph glyph-name="Aacute" unicode="&#xc1;" horiz-adv-x="712" 
d="M537 910l-9 -83l-175 -42l7 66zM357 750h154l186 -750h-153l-33 136h-282l-61 -136h-153zM292 272h184l-56 306h-8z" />
    <glyph glyph-name="Acircumflex" unicode="&#xc2;" horiz-adv-x="712" 
d="M357 750h154l186 -750h-153l-33 136h-282l-61 -136h-153zM292 272h184l-56 306h-8zM416 892h66l70 -102h-64l-43 45h-4l-51 -45h-64z" />
    <glyph glyph-name="Atilde" unicode="&#xc3;" horiz-adv-x="712" 
d="M505 850h54q-3 -30 -26.5 -52t-54.5 -22q-42 0 -61 38q-2 11 -15 11q-19 0 -21 -19h-54q3 30 26.5 52t54.5 22q44 0 59 -39q4 -10 17 -10q19 0 21 19zM357 750h154l186 -750h-153l-33 136h-282l-61 -136h-153zM292 272h184l-56 306h-8z" />
    <glyph glyph-name="Adieresis" unicode="&#xc4;" horiz-adv-x="712" 
d="M395 839q-2 -21 -19.5 -36t-37.5 -15q-22 0 -34.5 15t-10.5 36q2 22 18 36.5t38 14.5q21 0 34.5 -15t11.5 -36zM593 839q-2 -21 -18.5 -36t-38.5 -15q-21 0 -34 15t-11 36q2 22 18.5 36.5t37.5 14.5q22 0 35 -14.5t11 -36.5zM357 750h154l186 -750h-153l-33 136h-282
l-61 -136h-153zM292 272h184l-56 306h-8z" />
    <glyph glyph-name="Aring" unicode="&#xc5;" horiz-adv-x="712" 
d="M472 852q2 11 -5.5 18.5t-18.5 7.5t-19.5 -7.5t-10.5 -18.5q-1 -12 6 -20t18 -8t20 8t10 20zM521 852q-3 -30 -28.5 -52t-55.5 -22t-50.5 22t-17.5 52t28.5 51t55.5 21t50.5 -21t17.5 -51zM357 750h154l186 -750h-153l-33 136h-282l-61 -136h-153zM292 272h184l-56 306
h-8z" />
    <glyph glyph-name="AE" unicode="&#xc6;" horiz-adv-x="1089" 
d="M677 307l-18 -171h409l-14 -136h-551l14 136h-240l-104 -136h-173l575 750h557l-14 -137h-409l-18 -169h341l-14 -137h-341zM531 272l26 250h-4l-186 -250h164z" />
    <glyph glyph-name="Ccedilla" unicode="&#xc7;" horiz-adv-x="849" 
d="M394 -97l-42 8l20 77q-144 21 -229 129t-69 258q17 166 146 279t297 113q134 0 233.5 -77.5t114.5 -203.5h-146q-26 66 -84 108.5t-132 42.5q-104 0 -187.5 -78t-94.5 -184q-11 -107 55.5 -184.5t171.5 -77.5q74 0 140.5 42t106.5 109h146q-42 -126 -157 -203.5
t-249 -77.5q-3 0 -9 0.5t-9 0.5l-7 -29q47 15 78 -9t26 -67q-4 -39 -31 -61t-68 -22q-39 0 -61.5 22.5t-18.5 60.5h49q-2 -17 8.5 -28.5t27.5 -11.5t29.5 11.5t14.5 28.5q2 16 -8.5 27t-27.5 11q-23 0 -34 -14z" />
    <glyph glyph-name="Egrave" unicode="&#xc8;" horiz-adv-x="646" 
d="M338 827l9 83l165 -59l-7 -66zM216 136h409l-14 -136h-551l78 750h551l-14 -136h-409l-18 -170h340l-14 -136h-340z" />
    <glyph glyph-name="Eacute" unicode="&#xc9;" horiz-adv-x="646" 
d="M518 910l-9 -83l-175 -42l7 66zM216 136h409l-14 -136h-551l78 750h551l-14 -136h-409l-18 -170h340l-14 -136h-340z" />
    <glyph glyph-name="Ecircumflex" unicode="&#xca;" horiz-adv-x="646" 
d="M216 136h409l-14 -136h-551l78 750h551l-14 -136h-409l-18 -170h340l-14 -136h-340zM396 892h66l70 -102h-64l-43 45h-4l-51 -45h-64z" />
    <glyph glyph-name="Edieresis" unicode="&#xcb;" horiz-adv-x="646" 
d="M216 136h409l-14 -136h-551l78 750h551l-14 -136h-409l-18 -170h340l-14 -136h-340zM366 839q-2 -21 -19.5 -36t-37.5 -15q-22 0 -34.5 15t-10.5 36q2 22 18 36.5t38 14.5q21 0 34.5 -15t11.5 -36zM564 839q-2 -21 -18.5 -36t-38.5 -15q-21 0 -34 15t-11 36
q2 22 18.5 36.5t37.5 14.5q22 0 35 -14.5t11 -36.5z" />
    <glyph glyph-name="Igrave" unicode="&#xcc;" 
d="M60 0l78 750h142l-78 -750h-142zM132 827l9 83l165 -59l-7 -66z" />
    <glyph glyph-name="Iacute" unicode="&#xcd;" 
d="M60 0l78 750h142l-78 -750h-142zM312 910l-9 -83l-175 -42l7 66z" />
    <glyph glyph-name="Icircumflex" unicode="&#xce;" 
d="M60 0l78 750h142l-78 -750h-142zM191 892h66l70 -102h-64l-43 45h-4l-51 -45h-64z" />
    <glyph glyph-name="Idieresis" unicode="&#xcf;" 
d="M60 0l78 750h142l-78 -750h-142zM177 839q-2 -21 -19.5 -36t-37.5 -15q-22 0 -34.5 15t-10.5 36q2 22 18 36.5t38 14.5q21 0 34.5 -15t11.5 -36zM363 839q-2 -21 -18.5 -36t-38.5 -15q-21 0 -34 15t-11 36q2 22 18.5 36.5t37.5 14.5q22 0 35 -14.5t11 -36.5z" />
    <glyph glyph-name="Eth" unicode="&#xd0;" horiz-adv-x="761" 
d="M158 750h261q164 0 263.5 -106.5t82.5 -268.5t-138.5 -268.5t-285.5 -106.5h-261l32 307h-60l14 137h60zM618 375q10 98 -52.5 168t-160.5 70h-119l-18 -169h156l-14 -137h-156l-18 -171h119q98 0 175.5 70t87.5 169z" />
    <glyph glyph-name="Ntilde" unicode="&#xd1;" horiz-adv-x="709" 
d="M502 830h54q-3 -30 -26.5 -52t-54.5 -22q-42 0 -61 38q-2 11 -15 11q-19 0 -21 -19h-54q3 30 26.5 52t54.5 22q44 0 59 -39q4 -10 17 -10q18 0 21 19zM727 750l-78 -750h-142l-251 500h-3l-51 -500h-142l78 750h142l251 -501h3l51 501h142z" />
    <glyph glyph-name="Ograve" unicode="&#xd2;" horiz-adv-x="874" 
d="M437 827l9 83l165 -59l-7 -66zM730 375q11 106 -55 182t-172 76q-105 0 -187.5 -76t-93.5 -182q-11 -107 55 -182.5t172 -75.5t188 75.5t93 182.5zM878 375q-11 -109 -74.5 -199.5t-161 -141.5t-207.5 -51q-168 0 -273 113t-88 279t146 279t297 113q167 0 272.5 -113
t88.5 -279z" />
    <glyph glyph-name="Oacute" unicode="&#xd3;" horiz-adv-x="874" 
d="M617 910l-9 -83l-175 -42l7 66zM730 375q11 106 -55 182t-172 76q-105 0 -187.5 -76t-93.5 -182q-11 -107 55 -182.5t172 -75.5t188 75.5t93 182.5zM878 375q-11 -109 -74.5 -199.5t-161 -141.5t-207.5 -51q-168 0 -273 113t-88 279t146 279t297 113q167 0 272.5 -113
t88.5 -279z" />
    <glyph glyph-name="Ocircumflex" unicode="&#xd4;" horiz-adv-x="874" 
d="M730 375q11 106 -55 182t-172 76q-105 0 -187.5 -76t-93.5 -182q-11 -107 55 -182.5t172 -75.5t188 75.5t93 182.5zM878 375q-11 -109 -74.5 -199.5t-161 -141.5t-207.5 -51q-168 0 -273 113t-88 279t146 279t297 113q167 0 272.5 -113t88.5 -279zM497 892h66l70 -102
h-64l-43 45h-4l-51 -45h-64z" />
    <glyph glyph-name="Otilde" unicode="&#xd5;" horiz-adv-x="874" 
d="M586 860h54q-3 -30 -26.5 -52t-54.5 -22q-42 0 -61 38q-2 11 -15 11q-18 0 -21 -19h-54q3 30 26.5 52t54.5 22q44 0 59 -39q4 -10 17 -10q19 0 21 19zM730 375q11 106 -55 182t-172 76q-105 0 -187.5 -76t-93.5 -182q-11 -107 55 -182.5t172 -75.5t188 75.5t93 182.5z
M878 375q-11 -109 -74.5 -199.5t-161 -141.5t-207.5 -51q-168 0 -273 113t-88 279t146 279t297 113q167 0 272.5 -113t88.5 -279z" />
    <glyph glyph-name="Odieresis" unicode="&#xd6;" horiz-adv-x="874" 
d="M476 839q-2 -21 -19.5 -36t-37.5 -15q-22 0 -34.5 15t-10.5 36q2 22 18 36.5t38 14.5q21 0 34.5 -15t11.5 -36zM674 839q-2 -21 -18.5 -36t-38.5 -15q-21 0 -34 15t-11 36q2 22 18.5 36.5t37.5 14.5q22 0 35 -14.5t11 -36.5zM730 375q11 106 -55 182t-172 76
q-105 0 -187.5 -76t-93.5 -182q-11 -107 55 -182.5t172 -75.5t188 75.5t93 182.5zM878 375q-11 -109 -74.5 -199.5t-161 -141.5t-207.5 -51q-168 0 -273 113t-88 279t146 279t297 113q167 0 272.5 -113t88.5 -279z" />
    <glyph glyph-name="multiply" unicode="&#xd7;" horiz-adv-x="659" 
d="M39 70l220 220l-219 219l72 72l219 -219l218 218l72 -72l-218 -218l218 -218l-72 -73l-218 219l-220 -220z" />
    <glyph glyph-name="Oslash" unicode="&#xd8;" horiz-adv-x="884" 
d="M55 55l83 75q-74 107 -59 245q17 166 146 279t297 113q135 0 234 -78l86 78l65 -72l-84 -76q75 -105 60 -244q-11 -109 -74.5 -199.5t-161 -141.5t-207.5 -51q-136 0 -235 77l-85 -77zM735 375q8 82 -26 141l-393 -355q64 -44 138 -44q106 0 188 75.5t93 182.5zM227 375
q-9 -80 26 -141l391 354q-66 45 -136 45q-105 0 -187.5 -76t-93.5 -182z" />
    <glyph glyph-name="Ugrave" unicode="&#xd9;" horiz-adv-x="718" 
d="M360 827l9 83l165 -59l-7 -66zM736 750l-51 -489q-13 -127 -104.5 -202.5t-223.5 -75.5t-207.5 75t-62.5 203l51 489h142l-51 -492q-7 -66 33 -105.5t108 -39.5t117 39.5t56 105.5l51 492h142z" />
    <glyph glyph-name="Uacute" unicode="&#xda;" horiz-adv-x="718" 
d="M540 910l-9 -83l-175 -42l7 66zM736 750l-51 -489q-13 -127 -104.5 -202.5t-223.5 -75.5t-207.5 75t-62.5 203l51 489h142l-51 -492q-7 -66 33 -105.5t108 -39.5t117 39.5t56 105.5l51 492h142z" />
    <glyph glyph-name="Ucircumflex" unicode="&#xdb;" horiz-adv-x="718" 
d="M736 750l-51 -489q-13 -127 -104.5 -202.5t-223.5 -75.5t-207.5 75t-62.5 203l51 489h142l-51 -492q-7 -66 33 -105.5t108 -39.5t117 39.5t56 105.5l51 492h142zM418 892h66l70 -102h-64l-43 45h-4l-51 -45h-64z" />
    <glyph glyph-name="Udieresis" unicode="&#xdc;" horiz-adv-x="718" 
d="M397 839q-2 -21 -19.5 -36t-37.5 -15q-22 0 -34.5 15t-10.5 36q2 22 18 36.5t38 14.5q21 0 34.5 -15t11.5 -36zM595 839q-2 -21 -18.5 -36t-38.5 -15q-21 0 -34 15t-11 36q2 22 18.5 36.5t37.5 14.5q22 0 35 -14.5t11 -36.5zM736 750l-51 -489q-13 -127 -104.5 -202.5
t-223.5 -75.5t-207.5 75t-62.5 203l51 489h142l-51 -492q-7 -66 33 -105.5t108 -39.5t117 39.5t56 105.5l51 492h142z" />
    <glyph glyph-name="Yacute" unicode="&#xdd;" horiz-adv-x="715" 
d="M536 910l-9 -83l-174 -42l7 66zM610 750h168l-315 -435l-33 -315h-142l33 315l-228 435h168l144 -291h4z" />
    <glyph glyph-name="Thorn" unicode="&#xde;" horiz-adv-x="650" 
d="M660 447q-9 -86 -76.5 -147t-153.5 -61h-203l-25 -239h-142l78 750h142l-9 -93h203q86 0 141 -61.5t45 -148.5zM241 375h191q30 0 53.5 21t26.5 51q4 31 -15 52.5t-50 21.5h-191z" />
    <glyph glyph-name="germandbls" unicode="&#xdf;" horiz-adv-x="610" 
d="M594 230q-11 -100 -89 -165t-183 -65h-69l14 136h69q42 0 74 30t37 72q4 42 -22 72t-68 30h-69l15 136h25q33 0 57 22.5t28 55.5q3 32 -16.5 54.5t-52.5 22.5q-29 0 -53 -20t-30 -48l-59 -563h-142l59 563q9 84 80 144t159 60q95 0 153.5 -57t49.5 -147q-9 -88 -85 -133
l-1 -3q59 -15 92.5 -69t26.5 -128z" />
    <glyph glyph-name="agrave" unicode="&#xe0;" horiz-adv-x="645" 
d="M311 684l9 83l165 -59l-7 -66zM626 399l-41 -399h-142l8 84l-3 1q-74 -102 -188 -102q-227 0 -207 191q19 182 252 182h175l4 43q6 49 -21 65.5t-88 16.5q-60 0 -91 -17t-37 -65h-136q11 98 84 147.5t192 49.5q120 0 185 -49.5t54 -147.5zM464 203l4 42h-175
q-85 0 -93 -67q-4 -36 18.5 -51.5t86.5 -15.5q68 0 111.5 26.5t47.5 65.5z" />
    <glyph glyph-name="aacute" unicode="&#xe1;" horiz-adv-x="645" 
d="M491 767l-9 -83l-175 -42l7 66zM626 399l-41 -399h-142l8 84l-3 1q-74 -102 -188 -102q-227 0 -207 191q19 182 252 182h175l4 43q6 49 -21 65.5t-88 16.5q-60 0 -91 -17t-37 -65h-136q11 98 84 147.5t192 49.5q120 0 185 -49.5t54 -147.5zM464 203l4 42h-175
q-85 0 -93 -67q-4 -36 18.5 -51.5t86.5 -15.5q68 0 111.5 26.5t47.5 65.5z" />
    <glyph glyph-name="acircumflex" unicode="&#xe2;" horiz-adv-x="645" 
d="M374 782h66l69 -102h-64l-42 45h-4l-52 -45h-64zM626 399l-41 -399h-142l8 84l-3 1q-74 -102 -188 -102q-227 0 -207 191q19 182 252 182h175l4 43q6 49 -21 65.5t-88 16.5q-60 0 -91 -17t-37 -65h-136q11 98 84 147.5t192 49.5q120 0 185 -49.5t54 -147.5zM464 203l4 42
h-175q-85 0 -93 -67q-4 -36 18.5 -51.5t86.5 -15.5q68 0 111.5 26.5t47.5 65.5z" />
    <glyph glyph-name="atilde" unicode="&#xe3;" horiz-adv-x="645" 
d="M463 737h54q-3 -30 -26.5 -52t-54.5 -22q-42 0 -61 38q-2 11 -15 11q-18 0 -21 -19h-54q4 30 27.5 52t53.5 22q44 0 59 -39q4 -10 17 -10q19 0 21 19zM626 399l-41 -399h-142l8 84l-3 1q-74 -102 -188 -102q-227 0 -207 191q19 182 252 182h175l4 43q6 49 -21 65.5
t-88 16.5q-60 0 -91 -17t-37 -65h-136q11 98 84 147.5t192 49.5q120 0 185 -49.5t54 -147.5zM464 203l4 42h-175q-85 0 -93 -67q-4 -36 18.5 -51.5t86.5 -15.5q68 0 111.5 26.5t47.5 65.5z" />
    <glyph glyph-name="adieresis" unicode="&#xe4;" horiz-adv-x="645" 
d="M352 716q-2 -21 -19.5 -36t-37.5 -15q-22 0 -34.5 15t-10.5 36q2 22 18 36.5t38 14.5q21 0 34.5 -15t11.5 -36zM550 716q-2 -21 -18.5 -36t-38.5 -15q-21 0 -34 15t-11 36q2 22 18.5 36.5t37.5 14.5q22 0 35 -14.5t11 -36.5zM626 399l-41 -399h-142l8 84l-3 1
q-74 -102 -188 -102q-227 0 -207 191q19 182 252 182h175l4 43q6 49 -21 65.5t-88 16.5q-60 0 -91 -17t-37 -65h-136q11 98 84 147.5t192 49.5q120 0 185 -49.5t54 -147.5zM464 203l4 42h-175q-85 0 -93 -67q-4 -36 18.5 -51.5t86.5 -15.5q68 0 111.5 26.5t47.5 65.5z" />
    <glyph glyph-name="aring" unicode="&#xe5;" horiz-adv-x="645" 
d="M428 728q1 11 -6 18.5t-18 7.5t-20 -8t-10 -18q-1 -12 6 -20t18 -8t20 8t10 20zM477 728q-3 -30 -28.5 -52t-55.5 -22t-50.5 22t-17.5 52t28.5 51t55.5 21t50.5 -21t17.5 -51zM626 399l-41 -399h-142l8 84l-3 1q-74 -102 -188 -102q-227 0 -207 191q19 182 252 182h175
l4 43q6 49 -21 65.5t-88 16.5q-60 0 -91 -17t-37 -65h-136q11 98 84 147.5t192 49.5q120 0 185 -49.5t54 -147.5zM464 203l4 42h-175q-85 0 -93 -67q-4 -36 18.5 -51.5t86.5 -15.5q68 0 111.5 26.5t47.5 65.5z" />
    <glyph glyph-name="ae" unicode="&#xe6;" horiz-adv-x="1131" 
d="M1121 294q-3 -29 -14 -65h-467q6 -50 48 -86.5t101 -36.5q43 0 79 19.5t58 48.5h154q-40 -87 -123.5 -139t-180.5 -52q-113 0 -181 93l-3 -1l-7 -75h-142l8 84l-3 1q-74 -102 -188 -102q-227 0 -207 189q19 180 251 180h175l5 47q6 49 -21 65.5t-88 16.5q-60 0 -91 -17
t-37 -65h-136q11 98 84 147.5t192 49.5q178 0 226 -101q90 101 229 101q129 0 210.5 -87.5t68.5 -214.5zM654 352h321q-5 54 -43.5 89t-101.5 35t-111 -35t-65 -89zM464 203l4 38h-175q-87 0 -93 -65q-4 -36 18.5 -50.5t86.5 -14.5q68 0 111.5 26.5t47.5 65.5z" />
    <glyph glyph-name="ccedilla" unicode="&#xe7;" horiz-adv-x="690" 
d="M314 -97l-42 8l20 78q-112 19 -173 101.5t-49 199.5q14 133 112 220t237 87q124 0 195.5 -63.5t82.5 -174.5h-145q-15 51 -51.5 83t-94.5 32q-77 0 -129 -52t-60 -132q-8 -79 33 -131.5t118 -52.5q111 0 170 115h145q-34 -111 -119 -174.5t-209 -63.5q-12 0 -18 1l-7 -29
q47 15 78 -9t26 -67q-4 -39 -31 -61t-68 -22q-39 0 -61.5 22.5t-18.5 60.5h49q-2 -17 8.5 -28.5t27.5 -11.5t29.5 11.5t14.5 28.5q2 16 -8.5 27t-27.5 11q-23 0 -34 -14z" />
    <glyph glyph-name="egrave" unicode="&#xe8;" horiz-adv-x="707" 
d="M340 684l9 83l165 -59l-7 -66zM697 290q-2 -25 -15 -65h-467q6 -49 48.5 -84t101.5 -35q43 0 79 19.5t58 48.5h154q-40 -87 -123.5 -139t-180.5 -52q-131 0 -213 88.5t-69 218.5t114.5 218t233.5 88q129 0 210.5 -89t68.5 -217zM230 348h321q-6 55 -44 91.5t-101 36.5
t-111.5 -37t-64.5 -91z" />
    <glyph glyph-name="eacute" unicode="&#xe9;" horiz-adv-x="707" 
d="M519 767l-9 -83l-175 -42l7 66zM697 290q-2 -25 -15 -65h-467q6 -49 48.5 -84t101.5 -35q43 0 79 19.5t58 48.5h154q-40 -87 -123.5 -139t-180.5 -52q-131 0 -213 88.5t-69 218.5t114.5 218t233.5 88q129 0 210.5 -89t68.5 -217zM230 348h321q-6 55 -44 91.5t-101 36.5
t-111.5 -37t-64.5 -91z" />
    <glyph glyph-name="ecircumflex" unicode="&#xea;" horiz-adv-x="707" 
d="M697 290q-2 -25 -15 -65h-467q6 -49 48.5 -84t101.5 -35q43 0 79 19.5t58 48.5h154q-40 -87 -123.5 -139t-180.5 -52q-131 0 -213 88.5t-69 218.5t114.5 218t233.5 88q129 0 210.5 -89t68.5 -217zM230 348h321q-6 55 -44 91.5t-101 36.5t-111.5 -37t-64.5 -91zM405 782
h66l69 -102h-64l-42 45h-4l-52 -45h-64z" />
    <glyph glyph-name="edieresis" unicode="&#xeb;" horiz-adv-x="707" 
d="M383 716q-2 -21 -19.5 -36t-37.5 -15q-22 0 -34.5 15t-10.5 36q2 22 18 36.5t38 14.5q21 0 34.5 -15t11.5 -36zM581 716q-2 -21 -18.5 -36t-38.5 -15q-21 0 -34 15t-11 36q2 22 18.5 36.5t37.5 14.5q22 0 35 -14.5t11 -36.5zM697 290q-2 -25 -15 -65h-467q6 -49 48.5 -84
t101.5 -35q43 0 79 19.5t58 48.5h154q-40 -87 -123.5 -139t-180.5 -52q-131 0 -213 88.5t-69 218.5t114.5 218t233.5 88q129 0 210.5 -89t68.5 -217zM230 348h321q-6 55 -44 91.5t-101 36.5t-111.5 -37t-64.5 -91z" />
    <glyph glyph-name="igrave" unicode="&#xec;" 
d="M117 684l9 83l165 -59l-7 -66zM120 579h142l-60 -579h-142z" />
    <glyph glyph-name="iacute" unicode="&#xed;" 
d="M296 767l-9 -83l-174 -42l7 66zM120 579h142l-60 -579h-142z" />
    <glyph glyph-name="icircumflex" unicode="&#xee;" 
d="M120 579h142l-60 -579h-142zM180 782h66l69 -102h-64l-42 45h-4l-52 -45h-64z" />
    <glyph glyph-name="idieresis" unicode="&#xef;" 
d="M163 716q-2 -21 -19.5 -36t-37.5 -15q-22 0 -34.5 15t-10.5 36q2 22 18 36.5t38 14.5q21 0 34.5 -15t11.5 -36zM350 716q-2 -21 -18.5 -36t-38.5 -15q-21 0 -34 15t-11 36q2 22 18.5 36.5t37.5 14.5q22 0 35 -14.5t11 -36.5zM120 579h142l-60 -579h-142z" />
    <glyph glyph-name="eth" unicode="&#xf0;" horiz-adv-x="704" 
d="M326 558l-29 40l54 41l-103 111h193l21 -25l44 35l29 -40l-41 -32l94 -110q54 -67 74 -105q42 -86 31 -192q-13 -130 -111.5 -214t-231.5 -84q-131 0 -211.5 83t-69.5 215q12 110 97.5 184t191.5 74q56 0 110 -30h3l-19 20l-68 74zM545 281q7 67 -36.5 114.5t-110.5 47.5
t-120.5 -47.5t-60.5 -114.5t36.5 -114.5t110.5 -47.5q68 0 121 47.5t60 114.5z" />
    <glyph glyph-name="ntilde" unicode="&#xf1;" horiz-adv-x="657" 
d="M488 737h54q-3 -30 -26.5 -52t-54.5 -22q-42 0 -61 38q-2 11 -15 11q-18 0 -21 -19h-54q4 30 27.5 52t53.5 22q44 0 59 -39q4 -10 17 -10q19 0 21 19zM202 0h-142l60 579h131l-8 -83h2q28 44 77 72t112 28q100 0 155.5 -68.5t43.5 -177.5l-36 -350h-142l35 338
q5 53 -28 90.5t-85 37.5q-53 0 -94 -37.5t-46 -90.5z" />
    <glyph glyph-name="ograve" unicode="&#xf2;" horiz-adv-x="714" 
d="M343 684l9 83l165 -59l-7 -66zM556 290q8 79 -32.5 129.5t-117.5 50.5q-76 0 -128 -51t-60 -129q-8 -79 33 -130t117 -51q77 0 128.5 50.5t59.5 130.5zM704 290q-14 -131 -115 -219t-234 -88t-216 88t-69 219q13 130 115 218t234 88q133 0 215.5 -88t69.5 -218z" />
    <glyph glyph-name="oacute" unicode="&#xf3;" horiz-adv-x="714" 
d="M524 767l-9 -83l-175 -42l7 66zM556 290q8 79 -32.5 129.5t-117.5 50.5q-76 0 -128 -51t-60 -129q-8 -79 33 -130t117 -51q77 0 128.5 50.5t59.5 130.5zM704 290q-14 -131 -115 -219t-234 -88t-216 88t-69 219q13 130 115 218t234 88q133 0 215.5 -88t69.5 -218z" />
    <glyph glyph-name="ocircumflex" unicode="&#xf4;" horiz-adv-x="714" 
d="M556 290q8 79 -32.5 129.5t-117.5 50.5q-76 0 -128 -51t-60 -129q-8 -79 33 -130t117 -51q77 0 128.5 50.5t59.5 130.5zM704 290q-14 -131 -115 -219t-234 -88t-216 88t-69 219q13 130 115 218t234 88q133 0 215.5 -88t69.5 -218zM405 782h66l69 -102h-64l-42 45h-4
l-52 -45h-64z" />
    <glyph glyph-name="otilde" unicode="&#xf5;" horiz-adv-x="714" 
d="M493 737h54q-3 -30 -26.5 -52t-54.5 -22q-42 0 -61 38q-2 11 -15 11q-18 0 -21 -19h-54q4 30 27.5 52t53.5 22q44 0 59 -39q4 -10 17 -10q19 0 21 19zM556 290q8 79 -32.5 129.5t-117.5 50.5q-76 0 -128 -51t-60 -129q-8 -79 33 -130t117 -51q77 0 128.5 50.5t59.5 130.5
zM704 290q-14 -131 -115 -219t-234 -88t-216 88t-69 219q13 130 115 218t234 88q133 0 215.5 -88t69.5 -218z" />
    <glyph glyph-name="odieresis" unicode="&#xf6;" horiz-adv-x="714" 
d="M383 716q-2 -21 -19.5 -36t-37.5 -15q-22 0 -34.5 15t-10.5 36q2 22 18 36.5t38 14.5q21 0 34.5 -15t11.5 -36zM581 716q-2 -21 -18.5 -36t-38.5 -15q-21 0 -34 15t-11 36q2 22 18.5 36.5t37.5 14.5q22 0 35 -14.5t11 -36.5zM556 290q8 79 -32.5 129.5t-117.5 50.5
q-76 0 -128 -51t-60 -129q-8 -79 33 -130t117 -51q77 0 128.5 50.5t59.5 130.5zM704 290q-14 -131 -115 -219t-234 -88t-216 88t-69 219q13 130 115 218t234 88q133 0 215.5 -88t69.5 -218z" />
    <glyph glyph-name="divide" unicode="&#xf7;" horiz-adv-x="679" 
d="M408 60q0 -29 -20 -48.5t-49 -19.5q-28 0 -47.5 20t-19.5 48t19.5 48t47.5 20q29 0 49 -19.5t20 -48.5zM272 518q0 29 19.5 49t47.5 20q29 0 49 -20t20 -49q0 -28 -20 -47.5t-49 -19.5q-28 0 -47.5 19.5t-19.5 47.5zM50 340h579v-102h-579v102z" />
    <glyph glyph-name="oslash" unicode="&#xf8;" horiz-adv-x="722" 
d="M708 290q-14 -131 -115 -219t-234 -88q-100 0 -174 51l-56 -51l-65 73l53 48q-55 82 -43 186q13 130 115 218t234 88q103 0 177 -55l61 55l64 -73l-57 -52q50 -79 40 -181zM222 290q-5 -48 7 -85l267 242q-38 23 -86 23q-76 0 -128 -51t-60 -129zM560 290q4 42 -6 78
l-264 -239q35 -20 82 -20q77 0 128.5 50.5t59.5 130.5z" />
    <glyph glyph-name="ugrave" unicode="&#xf9;" horiz-adv-x="657" 
d="M316 684l9 83l165 -59l-7 -66zM515 579h142l-60 -579h-131l8 83h-2q-29 -44 -77.5 -72t-111.5 -28q-100 0 -155.5 68.5t-43.5 177.5l36 350h142l-35 -338q-6 -53 26.5 -90.5t85.5 -37.5t94 37.5t47 90.5z" />
    <glyph glyph-name="uacute" unicode="&#xfa;" horiz-adv-x="657" 
d="M496 767l-9 -83l-175 -42l7 66zM515 579h142l-60 -579h-131l8 83h-2q-29 -44 -77.5 -72t-111.5 -28q-100 0 -155.5 68.5t-43.5 177.5l36 350h142l-35 -338q-6 -53 26.5 -90.5t85.5 -37.5t94 37.5t47 90.5z" />
    <glyph glyph-name="ucircumflex" unicode="&#xfb;" horiz-adv-x="657" 
d="M515 579h142l-60 -579h-131l8 83h-2q-29 -44 -77.5 -72t-111.5 -28q-100 0 -155.5 68.5t-43.5 177.5l36 350h142l-35 -338q-6 -53 26.5 -90.5t85.5 -37.5t94 37.5t47 90.5zM377 782h66l69 -102h-64l-42 45h-4l-52 -45h-64z" />
    <glyph glyph-name="udieresis" unicode="&#xfc;" horiz-adv-x="657" 
d="M355 716q-2 -21 -19.5 -36t-37.5 -15q-22 0 -34.5 15t-10.5 36q2 22 18 36.5t38 14.5q21 0 34.5 -15t11.5 -36zM553 716q-2 -21 -18.5 -36t-38.5 -15q-21 0 -34 15t-11 36q2 22 18.5 36.5t37.5 14.5q22 0 35 -14.5t11 -36.5zM515 579h142l-60 -579h-131l8 83h-2
q-29 -44 -77.5 -72t-111.5 -28q-100 0 -155.5 68.5t-43.5 177.5l36 350h142l-35 -338q-6 -53 26.5 -90.5t85.5 -37.5t94 37.5t47 90.5z" />
    <glyph glyph-name="yacute" unicode="&#xfd;" horiz-adv-x="615" 
d="M474 767l-9 -83l-175 -42l7 66zM660 579l-368 -750h-146l90 184l-161 566h147l106 -377h2l183 377h147z" />
    <glyph glyph-name="thorn" unicode="&#xfe;" horiz-adv-x="728" 
d="M280 750l-28 -268h2q43 54 90.5 84t114.5 30q122 0 197 -88t62 -219q-14 -131 -107.5 -218.5t-215.5 -87.5q-116 0 -183 101h-2l-26 -255h-142l96 921h142zM232 289q-8 -71 36 -123.5t114 -52.5t125 52.5t63 123.5t-36.5 124t-114.5 53t-124.5 -53t-62.5 -124z" />
    <glyph glyph-name="ydieresis" unicode="&#xff;" horiz-adv-x="615" 
d="M660 579l-368 -750h-146l90 184l-161 566h147l106 -377h2l183 377h147zM335 716q-2 -21 -19.5 -36t-37.5 -15q-22 0 -34.5 15t-10.5 36q2 22 18 36.5t38 14.5q21 0 34.5 -15t11.5 -36zM533 716q-2 -21 -18.5 -36t-38.5 -15q-21 0 -34 15t-11 36q2 22 18.5 36.5t37.5 14.5
q22 0 35 -14.5t11 -36.5z" />
    <glyph glyph-name="Amacron" unicode="&#x100;" horiz-adv-x="712" 
d="M357 750h154l186 -750h-153l-33 136h-282l-61 -136h-153zM292 272h184l-56 306h-8zM542 880l-8 -78h-187l8 78h187z" />
    <glyph glyph-name="amacron" unicode="&#x101;" horiz-adv-x="645" 
d="M497 750l-8 -78h-187l8 78h187zM626 399l-41 -399h-142l8 84l-3 1q-74 -102 -188 -102q-227 0 -207 191q19 182 252 182h175l4 43q6 49 -21 65.5t-88 16.5q-60 0 -91 -17t-37 -65h-136q11 98 84 147.5t192 49.5q120 0 185 -49.5t54 -147.5zM464 203l4 42h-175
q-85 0 -93 -67q-4 -36 18.5 -51.5t86.5 -15.5q68 0 111.5 26.5t47.5 65.5z" />
    <glyph glyph-name="Aogonek" unicode="&#x104;" horiz-adv-x="712" 
d="M357 750h154l186 -750h-55q-23 -1 -40 -18t-20 -40q-2 -24 13 -41t39 -17q22 0 42 17l-7 -63q-33 -26 -71 -26q-45 0 -73.5 31.5t-23.5 76.5q5 49 44 80l-34 136h-282l-61 -136h-153zM292 272h184l-56 306h-8z" />
    <glyph glyph-name="aogonek" unicode="&#x105;" horiz-adv-x="645" 
d="M626 399l-41 -399h-45q-23 -1 -40 -18t-20 -40q-2 -24 13 -41t39 -17q22 0 42 17l-7 -63q-33 -26 -71 -26q-45 0 -73.5 31.5t-23.5 76.5q5 49 44 80l8 84l-3 1q-74 -102 -188 -102q-227 0 -207 191q19 182 252 182h175l4 43q6 49 -21 65.5t-88 16.5q-60 0 -91 -17
t-37 -65h-136q11 98 84 147.5t192 49.5q120 0 185 -49.5t54 -147.5zM464 203l4 42h-175q-85 0 -93 -67q-4 -36 18.5 -51.5t86.5 -15.5q68 0 111.5 26.5t47.5 65.5z" />
    <glyph glyph-name="Cacute" unicode="&#x106;" horiz-adv-x="849" 
d="M517 767q134 0 233.5 -77.5t114.5 -203.5h-146q-26 66 -84 108.5t-132 42.5q-104 0 -187.5 -78t-94.5 -184q-11 -107 55.5 -184.5t171.5 -77.5q74 0 140.5 42t106.5 109h146q-42 -126 -157 -203.5t-249 -77.5q-168 0 -273.5 113t-87.5 279q17 166 146 279t297 113z
M617 910l-9 -83l-175 -42l7 66z" />
    <glyph glyph-name="cacute" unicode="&#x107;" horiz-adv-x="690" 
d="M697 359h-145q-15 51 -51.5 83t-94.5 32q-77 0 -129 -52t-60 -132q-8 -79 33 -131.5t118 -52.5q111 0 170 115h145q-34 -111 -119 -174.5t-209 -63.5q-139 0 -219 87t-66 220t112 220t237 87q124 0 195.5 -63.5t82.5 -174.5zM522 767l-9 -83l-175 -42l7 66z" />
    <glyph glyph-name="Ccaron" unicode="&#x10c;" horiz-adv-x="849" 
d="M517 767q134 0 233.5 -77.5t114.5 -203.5h-146q-26 66 -84 108.5t-132 42.5q-104 0 -187.5 -78t-94.5 -184q-11 -107 55.5 -184.5t171.5 -77.5q74 0 140.5 42t106.5 109h146q-42 -126 -157 -203.5t-249 -77.5q-168 0 -273.5 113t-87.5 279q17 166 146 279t297 113z
M554 790h-66l-70 102h64l43 -45h4l51 45h64z" />
    <glyph glyph-name="ccaron" unicode="&#x10d;" horiz-adv-x="690" 
d="M697 359h-145q-15 51 -51.5 83t-94.5 32q-77 0 -129 -52t-60 -132q-8 -79 33 -131.5t118 -52.5q111 0 170 115h145q-34 -111 -119 -174.5t-209 -63.5q-139 0 -219 87t-66 220t112 220t237 87q124 0 195.5 -63.5t82.5 -174.5zM461 680h-66l-69 102h64l42 -45h4l52 45h64z
" />
    <glyph glyph-name="Dcaron" unicode="&#x10e;" horiz-adv-x="741" 
d="M138 750h261q164 0 263.5 -106.5t82.5 -268.5t-138.5 -268.5t-285.5 -106.5h-261zM597 375q11 98 -51.5 168.5t-160.5 70.5h-119l-50 -478h119q98 0 174.5 70t87.5 169zM473 790h-66l-70 102h64l43 -45h4l51 45h64z" />
    <glyph glyph-name="dcaron" unicode="&#x10f;" horiz-adv-x="847" 
d="M526 0l8 85h-2q-85 -102 -203 -102q-129 0 -201 87t-58 220t104 219.5t219 86.5q118 0 183 -101h2l26 255h142l-78 -750h-142zM556 290q8 72 -35 124t-116 52t-126 -52t-61 -124t34.5 -124.5t115.5 -52.5t126.5 52.5t61.5 124.5zM826 750h83l-78 -185h-66z" />
    <glyph glyph-name="Emacron" unicode="&#x112;" horiz-adv-x="646" 
d="M216 136h409l-14 -136h-551l78 750h551l-14 -136h-409l-18 -170h340l-14 -136h-340zM530 880l-8 -78h-187l8 78h187z" />
    <glyph glyph-name="emacron" unicode="&#x113;" horiz-adv-x="707" 
d="M697 290q-2 -25 -15 -65h-467q6 -49 48.5 -84t101.5 -35q43 0 79 19.5t58 48.5h154q-40 -87 -123.5 -139t-180.5 -52q-131 0 -213 88.5t-69 218.5t114.5 218t233.5 88q129 0 210.5 -89t68.5 -217zM230 348h321q-6 55 -44 91.5t-101 36.5t-111.5 -37t-64.5 -91zM528 750
l-8 -78h-187l8 78h187z" />
    <glyph glyph-name="Edotaccent" unicode="&#x116;" horiz-adv-x="646" 
d="M216 136h409l-14 -136h-551l78 750h551l-14 -136h-409l-18 -170h340l-14 -136h-340zM433 778q-31 0 -51.5 22.5t-17.5 54.5q4 32 29 54.5t56 22.5q32 0 52.5 -23t16.5 -54q-3 -31 -28 -54t-57 -23z" />
    <glyph glyph-name="edotaccent" unicode="&#x117;" horiz-adv-x="707" 
d="M697 290q-2 -25 -15 -65h-467q6 -49 48.5 -84t101.5 -35q43 0 79 19.5t58 48.5h154q-40 -87 -123.5 -139t-180.5 -52q-131 0 -213 88.5t-69 218.5t114.5 218t233.5 88q129 0 210.5 -89t68.5 -217zM230 348h321q-6 55 -44 91.5t-101 36.5t-111.5 -37t-64.5 -91zM424 652
q-31 0 -51.5 22.5t-17.5 54.5q4 32 29 54.5t56 22.5q32 0 52.5 -23t16.5 -54q-3 -31 -28 -54t-57 -23z" />
    <glyph glyph-name="Eogonek" unicode="&#x118;" horiz-adv-x="646" 
d="M506 -58q-2 -24 13 -41t39 -17q22 0 42 17l-7 -63q-32 -26 -71 -26q-45 0 -73.5 31.5t-23.5 76.5q5 49 44 80h-409l78 750h551l-14 -136h-409l-18 -170h340l-14 -136h-340l-18 -172h409l-14 -136h-40q-24 0 -43 -17t-22 -41z" />
    <glyph glyph-name="eogonek" unicode="&#x119;" horiz-adv-x="707" 
d="M697 290q-2 -25 -15 -65h-467q6 -49 48.5 -84t101.5 -35q43 0 79 19.5t58 48.5h154q-51 -110 -164 -161q-42 -20 -47 -67q-3 -24 12 -43t39 -19q22 0 42 17l-7 -63q-33 -26 -71 -26q-45 0 -73 33.5t-23 78.5q3 32 24 61q-24 -2 -36 -2q-131 0 -213 88.5t-69 218.5
t114.5 218t233.5 88q129 0 210.5 -89t68.5 -217zM230 348h321q-6 55 -44 91.5t-101 36.5t-111.5 -37t-64.5 -91z" />
    <glyph glyph-name="Ecaron" unicode="&#x11a;" horiz-adv-x="651" 
d="M216 136h409l-14 -136h-551l78 750h551l-14 -136h-409l-18 -170h340l-14 -136h-340zM469 790h-66l-70 102h64l43 -45h4l51 45h64z" />
    <glyph glyph-name="ecaron" unicode="&#x11b;" horiz-adv-x="707" 
d="M697 290q-2 -25 -15 -65h-467q6 -49 48.5 -84t101.5 -35q43 0 79 19.5t58 48.5h154q-40 -87 -123.5 -139t-180.5 -52q-131 0 -213 88.5t-69 218.5t114.5 218t233.5 88q129 0 210.5 -89t68.5 -217zM230 348h321q-6 55 -44 91.5t-101 36.5t-111.5 -37t-64.5 -91zM460 680
h-66l-69 102h64l42 -45h4l52 45h64z" />
    <glyph glyph-name="uni0122" unicode="&#x122;" horiz-adv-x="879" 
d="M464 -92l-6 -56q-4 -36 -32 -61.5t-64 -25.5l5 49q16 0 28.5 11t14.5 27q-4 -2 -10 -2q-24 0 -39.5 17t-12.5 41q2 23 21 40.5t43 17.5q23 0 38.5 -17.5t13.5 -40.5zM814 0h-132l12 121h-4q-42 -62 -116.5 -100t-165.5 -38q-155 0 -253.5 113t-80.5 279
q17 167 147.5 279.5t305.5 112.5q125 0 224 -69t117 -182h-154q-22 55 -75.5 88t-125.5 33q-112 0 -196 -77.5t-95 -184.5t54 -184.5t170 -77.5q87 0 163.5 57t98.5 138h-229l14 136h367z" />
    <glyph glyph-name="uni0123" unicode="&#x123;" horiz-adv-x="637" 
d="M333 686l5 56q5 36 33 61.5t64 25.5l-6 -49q-16 0 -28 -11t-15 -27q5 2 11 2q24 0 39 -17t13 -41q-3 -24 -21.5 -41t-42.5 -17q-23 0 -39 17.5t-13 40.5zM596 493q-30 0 -30 -27q0 -1 5 -25t3 -42q-9 -88 -71.5 -138t-161.5 -50h-19q-37 0 -53.5 -0.5t-37.5 -4
t-29.5 -12.5t-10.5 -24q-1 -18 13 -27q47 14 131 14q136 0 204.5 -41.5t59.5 -128.5q-18 -175 -300 -175q-283 0 -265 175q5 37 50 87q-31 40 -27 78q6 48 42 82.5t98 40.5l1 4q-25 19 -41 51.5t-12 68.5q9 86 75.5 141.5t160.5 55.5q79 0 131 -47q40 47 95 47h39l-11 -103
h-39zM182 -13q-4 -35 28 -49t101 -14q68 0 102 14t38 49t-28 50.5t-99 15.5q-135 0 -142 -66zM436 399q4 31 -16.5 53.5t-51.5 22.5t-56 -22.5t-29 -53.5q-3 -31 17.5 -53t52.5 -22q31 0 55.5 22t27.5 53z" />
    <glyph glyph-name="Imacron" unicode="&#x12a;" 
d="M60 0l78 750h142l-78 -750h-142zM317 880l-8 -78h-187l8 78h187z" />
    <glyph glyph-name="imacron" unicode="&#x12b;" 
d="M120 579h142l-60 -579h-142zM303 750l-8 -78h-187l8 78h187z" />
    <glyph glyph-name="Iogonek" unicode="&#x12e;" 
d="M60 0l78 750h142l-78 -750h-5q-24 0 -43 -17t-22 -41q-2 -24 13 -41t39 -17l-7 -68q-12 -4 -29 -4q-45 0 -73.5 31.5t-23.5 76.5q5 49 44 80h-35z" />
    <glyph glyph-name="iogonek" unicode="&#x12f;" 
d="M132 -58q-2 -24 13 -41t39 -17l-7 -68q-12 -4 -29 -4q-45 0 -73.5 31.5t-23.5 76.5q5 49 44 80h-35l60 579h142l-60 -579h-5q-24 0 -43 -17t-22 -41zM124 689q3 32 29 55t58 23t53 -23t18 -55q-4 -33 -29.5 -55.5t-57.5 -22.5q-33 0 -54 22.5t-17 55.5z" />
    <glyph glyph-name="dotlessi" unicode="&#x131;" 
d="M120 579h142l-60 -579h-142z" />
    <glyph glyph-name="uni0136" unicode="&#x136;" horiz-adv-x="699" 
d="M397 375l287 -375h-180l-208 270l-74 -75l-20 -195h-142l78 750h142l-36 -347l338 347h180zM392 -75l-6 -56q-4 -36 -32 -61.5t-64 -25.5l5 49q16 0 28.5 11t14.5 27q-4 -2 -10 -2q-24 0 -39.5 17t-12.5 41q2 23 21 40.5t43 17.5q23 0 38.5 -17.5t13.5 -40.5z" />
    <glyph glyph-name="uni0137" unicode="&#x137;" horiz-adv-x="628" 
d="M487 579h189l-285 -269l225 -310h-178l-152 212l-69 -68l-15 -144h-142l78 750h142l-43 -410zM359 -75l-6 -56q-4 -36 -32 -61.5t-64 -25.5l5 49q16 0 28.5 11t14.5 27q-4 -2 -10 -2q-24 0 -39.5 17t-12.5 41q2 23 21 40.5t43 17.5q23 0 38.5 -17.5t13.5 -40.5z" />
    <glyph glyph-name="Lacute" unicode="&#x139;" horiz-adv-x="591" 
d="M590 136l-14 -136h-516l78 750h142l-64 -614h374zM518 910l-9 -83l-175 -42l7 66z" />
    <glyph glyph-name="lacute" unicode="&#x13a;" 
d="M60 0l78 750h142l-78 -750h-142zM312 910l-9 -83l-175 -42l7 66z" />
    <glyph glyph-name="uni013B" unicode="&#x13b;" horiz-adv-x="591" 
d="M590 136l-14 -136h-516l78 750h142l-64 -614h374zM364 -75l-6 -56q-4 -36 -32 -61.5t-64 -25.5l5 49q16 0 28.5 11t14.5 27q-4 -2 -10 -2q-24 0 -39.5 17t-12.5 41q2 23 21 40.5t43 17.5q23 0 38.5 -17.5t13.5 -40.5z" />
    <glyph glyph-name="uni013C" unicode="&#x13c;" 
d="M181 -75l-6 -56q-4 -36 -32 -61.5t-64 -25.5l5 49q16 0 28.5 11t14.5 27q-4 -2 -10 -2q-24 0 -39.5 17t-12.5 41q2 23 21 40.5t43 17.5q23 0 38.5 -17.5t13.5 -40.5zM60 0l78 750h142l-78 -750h-142z" />
    <glyph glyph-name="Lcaron" unicode="&#x13d;" horiz-adv-x="591" 
d="M590 136l-14 -136h-516l78 750h142l-64 -614h374zM571 750h83l-78 -185h-66z" />
    <glyph glyph-name="lcaron" unicode="&#x13e;" horiz-adv-x="381" 
d="M60 0l78 750h142l-78 -750h-142zM360 750h83l-78 -185h-66z" />
    <glyph glyph-name="Lslash" unicode="&#x141;" horiz-adv-x="611" 
d="M235 136h375l-14 -136h-517l29 285l-60 -12l14 136l61 13l34 328h142l-31 -300l183 38l-15 -136l-182 -38z" />
    <glyph glyph-name="lslash" unicode="&#x142;" horiz-adv-x="297" 
d="M325 463l-14 -136l-58 -13l-33 -314h-142l29 285l-59 -12l14 136l60 13l34 328h142l-31 -300z" />
    <glyph glyph-name="Nacute" unicode="&#x143;" horiz-adv-x="709" 
d="M535 910l-9 -83l-175 -42l7 66zM727 750l-78 -750h-142l-251 500h-3l-51 -500h-142l78 750h142l251 -501h3l51 501h142z" />
    <glyph glyph-name="nacute" unicode="&#x144;" horiz-adv-x="657" 
d="M202 0h-142l60 579h131l-8 -83h2q28 44 77 72t112 28q100 0 155.5 -68.5t43.5 -177.5l-36 -350h-142l35 338q5 53 -28 90.5t-85 37.5q-53 0 -94 -37.5t-46 -90.5zM495 767l-9 -83l-175 -42l7 66z" />
    <glyph glyph-name="uni0145" unicode="&#x145;" horiz-adv-x="709" 
d="M727 750l-78 -750h-142l-251 500h-3l-51 -500h-142l78 750h142l251 -501h3l51 501h142zM404 -75l-6 -56q-4 -36 -32 -61.5t-64 -25.5l5 49q16 0 28.5 11t14.5 27q-4 -2 -10 -2q-24 0 -39.5 17t-12.5 41q2 23 21 40.5t43 17.5q23 0 38.5 -17.5t13.5 -40.5z" />
    <glyph glyph-name="uni0146" unicode="&#x146;" horiz-adv-x="657" 
d="M202 0h-142l60 579h131l-8 -83h2q28 44 77 72t112 28q100 0 155.5 -68.5t43.5 -177.5l-36 -350h-142l35 338q5 53 -28 90.5t-85 37.5q-53 0 -94 -37.5t-46 -90.5zM379 -75l-6 -56q-4 -36 -32 -61.5t-64 -25.5l5 49q16 0 28.5 11t14.5 27q-4 -2 -10 -2q-24 0 -39.5 17
t-12.5 41q2 23 21 40.5t43 17.5q23 0 38.5 -17.5t13.5 -40.5z" />
    <glyph glyph-name="Ncaron" unicode="&#x147;" horiz-adv-x="709" 
d="M727 750l-78 -750h-142l-251 500h-3l-51 -500h-142l78 750h142l251 -501h3l51 501h142zM470 790h-66l-70 102h64l43 -45h4l51 45h64z" />
    <glyph glyph-name="ncaron" unicode="&#x148;" horiz-adv-x="657" 
d="M202 0h-142l60 579h131l-8 -83h2q28 44 77 72t112 28q100 0 155.5 -68.5t43.5 -177.5l-36 -350h-142l35 338q5 53 -28 90.5t-85 37.5q-53 0 -94 -37.5t-46 -90.5zM433 680h-66l-69 102h64l42 -45h4l52 45h64z" />
    <glyph glyph-name="Omacron" unicode="&#x14c;" horiz-adv-x="874" 
d="M730 375q11 106 -55 182t-172 76q-105 0 -187.5 -76t-93.5 -182q-11 -107 55 -182.5t172 -75.5t188 75.5t93 182.5zM878 375q-11 -109 -74.5 -199.5t-161 -141.5t-207.5 -51q-168 0 -273 113t-88 279t146 279t297 113q167 0 272.5 -113t88.5 -279zM622 880l-8 -78h-187
l8 78h187z" />
    <glyph glyph-name="omacron" unicode="&#x14d;" horiz-adv-x="714" 
d="M556 290q8 79 -32.5 129.5t-117.5 50.5q-76 0 -128 -51t-60 -129q-8 -79 33 -130t117 -51q77 0 128.5 50.5t59.5 130.5zM704 290q-14 -131 -115 -219t-234 -88t-216 88t-69 219q13 130 115 218t234 88q133 0 215.5 -88t69.5 -218zM529 750l-8 -78h-187l8 78h187z" />
    <glyph glyph-name="Ohungarumlaut" unicode="&#x150;" horiz-adv-x="874" 
d="M483 910h84l-85 -118h-84zM610 910h84l-85 -118h-84zM730 375q11 106 -55 182t-172 76q-105 0 -187.5 -76t-93.5 -182q-11 -107 55 -182.5t172 -75.5t188 75.5t93 182.5zM878 375q-11 -109 -74.5 -199.5t-161 -141.5t-207.5 -51q-168 0 -273 113t-88 279t146 279t297 113
q167 0 272.5 -113t88.5 -279z" />
    <glyph glyph-name="ohungarumlaut" unicode="&#x151;" horiz-adv-x="714" 
d="M376 750h84l-85 -118h-84zM503 750h84l-85 -118h-84zM556 290q8 79 -32.5 129.5t-117.5 50.5q-76 0 -128 -51t-60 -129q-8 -79 33 -130t117 -51q77 0 128.5 50.5t59.5 130.5zM704 290q-14 -131 -115 -219t-234 -88t-216 88t-69 219q13 130 115 218t234 88
q133 0 215.5 -88t69.5 -218z" />
    <glyph glyph-name="OE" unicode="&#x152;" horiz-adv-x="1279" 
d="M849 136h409l-14 -136h-551l8 77q-118 -94 -266 -94q-168 0 -273 113t-88 279t146 279t297 113q148 0 246 -95l8 78h551l-14 -136h-409l-18 -170h340l-14 -136h-340zM730 375q11 106 -55 182t-172 76q-105 0 -187.5 -76t-93.5 -182q-11 -107 55 -182.5t172 -75.5
t188 75.5t93 182.5z" />
    <glyph glyph-name="oe" unicode="&#x153;" horiz-adv-x="1185" 
d="M1175 290q-2 -25 -15 -65h-467q6 -49 48.5 -84t101.5 -35q43 0 79 19.5t58 48.5h154q-40 -87 -123.5 -139t-180.5 -52q-144 0 -223 105q-103 -105 -252 -105q-133 0 -216 88t-69 219q13 130 115 218t234 88q72 0 131.5 -28t98.5 -77q102 105 247 105q129 0 210.5 -89
t68.5 -217zM368 109q76 0 126.5 49.5t61.5 131.5q6 81 -34.5 130.5t-115.5 49.5q-76 0 -128 -51t-60 -129q-8 -79 33 -130t117 -51zM708 348h321q-6 55 -44 91.5t-101 36.5t-111.5 -37t-64.5 -91z" />
    <glyph glyph-name="Racute" unicode="&#x154;" horiz-adv-x="694" 
d="M705 494q-8 -79 -56 -140.5t-120 -91.5l104 -262h-158l-94 238h-154l-25 -238h-142l78 750h330q111 0 180 -73.5t57 -182.5zM557 494q5 50 -24.5 85t-78.5 35h-188l-25 -240h188q48 0 85.5 35t42.5 85zM522 910l-9 -83l-175 -42l7 66z" />
    <glyph glyph-name="racute" unicode="&#x155;" horiz-adv-x="390" 
d="M60 0l60 579h126l-8 -80h2q67 97 168 97h12l-15 -144h-33q-51 0 -91.5 -35t-49.5 -85l-34 -332h-137zM371 767l-9 -83l-175 -42l7 66z" />
    <glyph glyph-name="uni0156" unicode="&#x156;" horiz-adv-x="694" 
d="M705 494q-8 -79 -56 -140.5t-120 -91.5l104 -262h-158l-94 238h-154l-25 -238h-142l78 750h330q111 0 180 -73.5t57 -182.5zM557 494q5 50 -24.5 85t-78.5 35h-188l-25 -240h188q48 0 85.5 35t42.5 85zM386 -75l-6 -56q-4 -36 -32 -61.5t-64 -25.5l5 49q16 0 28.5 11
t14.5 27q-4 -2 -10 -2q-24 0 -39.5 17t-12.5 41q2 23 21 40.5t43 17.5q23 0 38.5 -17.5t13.5 -40.5z" />
    <glyph glyph-name="uni0157" unicode="&#x157;" horiz-adv-x="390" 
d="M60 0l60 579h126l-8 -80h2q67 97 168 97h12l-15 -144h-33q-51 0 -91.5 -35t-49.5 -85l-34 -332h-137zM261 -75l-6 -56q-4 -36 -32 -61.5t-64 -25.5l5 49q16 0 28.5 11t14.5 27q-4 -2 -10 -2q-24 0 -39.5 17t-12.5 41q2 23 21 40.5t43 17.5q23 0 38.5 -17.5t13.5 -40.5z
" />
    <glyph glyph-name="Rcaron" unicode="&#x158;" horiz-adv-x="694" 
d="M705 494q-8 -79 -56 -140.5t-120 -91.5l104 -262h-158l-94 238h-154l-25 -238h-142l78 750h330q111 0 180 -73.5t57 -182.5zM557 494q5 50 -24.5 85t-78.5 35h-188l-25 -240h188q48 0 85.5 35t42.5 85zM466 790h-66l-70 102h64l43 -45h4l51 45h64z" />
    <glyph glyph-name="rcaron" unicode="&#x159;" horiz-adv-x="390" 
d="M60 0l60 579h126l-8 -80h2q67 97 168 97h12l-15 -144h-33q-51 0 -91.5 -35t-49.5 -85l-34 -332h-137zM315 680h-66l-69 102h64l42 -45h4l52 45h64z" />
    <glyph glyph-name="Sacute" unicode="&#x15a;" horiz-adv-x="641" 
d="M501 910l-9 -83l-175 -42l7 66zM639 541h-140q5 44 -28.5 73.5t-86.5 29.5q-54 0 -87 -24t-38 -65q-4 -35 16 -57t54 -32.5t76 -18.5t83 -21.5t74 -35.5t50.5 -66t10.5 -107q-11 -108 -97 -171t-211 -63q-124 0 -194 65.5t-58 177.5h140q-5 -51 30 -85.5t95 -34.5t101 31
t46 80q4 36 -16 59t-54 33.5t-75.5 18.5t-83 21t-74.5 34.5t-50.5 65t-10.5 106.5q10 99 90 155.5t196 56.5q117 0 185.5 -60t56.5 -166z" />
    <glyph glyph-name="sacute" unicode="&#x15b;" horiz-adv-x="586" 
d="M458 767l-9 -83l-175 -42l7 66zM569 400h-136q4 39 -22 60.5t-73 21.5q-45 0 -69.5 -17.5t-26.5 -45.5q-3 -25 14.5 -39.5t47.5 -20.5t67 -11t73 -14.5t65 -27t44 -53.5t10 -88q-10 -91 -86 -136.5t-191 -45.5q-113 0 -175 53.5t-53 142.5h137q-4 -36 25 -58.5t78 -22.5
q51 0 83 17.5t36 49.5q3 27 -14.5 42t-47.5 21t-66.5 10t-72.5 13t-64.5 25.5t-44 52.5t-9.5 90q9 86 75.5 131.5t176.5 45.5q112 0 170.5 -52t48.5 -144z" />
    <glyph glyph-name="Scaron" unicode="&#x160;" horiz-adv-x="641" 
d="M639 541h-140q5 44 -28.5 73.5t-86.5 29.5q-54 0 -87 -24t-38 -65q-4 -35 16 -57t54 -32.5t76 -18.5t83 -21.5t74 -35.5t50.5 -66t10.5 -107q-11 -108 -97 -171t-211 -63q-124 0 -194 65.5t-58 177.5h140q-5 -51 30 -85.5t95 -34.5t101 31t46 80q4 36 -16 59t-54 33.5
t-75.5 18.5t-83 21t-74.5 34.5t-50.5 65t-10.5 106.5q10 99 90 155.5t196 56.5q117 0 185.5 -60t56.5 -166zM433 790h-66l-70 102h64l43 -45h4l51 45h64z" />
    <glyph glyph-name="scaron" unicode="&#x161;" horiz-adv-x="586" 
d="M569 400h-136q4 39 -22 60.5t-73 21.5q-45 0 -69.5 -17.5t-26.5 -45.5q-3 -25 14.5 -39.5t47.5 -20.5t67 -11t73 -14.5t65 -27t44 -53.5t10 -88q-10 -91 -86 -136.5t-191 -45.5q-113 0 -175 53.5t-53 142.5h137q-4 -36 25 -58.5t78 -22.5q51 0 83 17.5t36 49.5
q3 27 -14.5 42t-47.5 21t-66.5 10t-72.5 13t-64.5 25.5t-44 52.5t-9.5 90q9 86 75.5 131.5t176.5 45.5q112 0 170.5 -52t48.5 -144zM393 680h-66l-69 102h64l42 -45h4l52 45h64z" />
    <glyph glyph-name="Tcaron" unicode="&#x164;" horiz-adv-x="616" 
d="M665 614h-222l-64 -614h-142l64 614h-222l14 136h586zM424 790h-66l-70 102h64l43 -45h4l51 45h64z" />
    <glyph glyph-name="tcaron" unicode="&#x165;" horiz-adv-x="483" 
d="M127 469h-53l11 110h53l14 131h142l-14 -131h99l-11 -110h-99l-33 -308q-1 -15 8 -25t23 -10h65l-13 -126h-65q-79 0 -123 46.5t-36 124.5zM466 750h83l-78 -185h-66z" />
    <glyph glyph-name="Umacron" unicode="&#x16a;" horiz-adv-x="718" 
d="M544 880l-8 -78h-187l8 78h187zM736 750l-51 -489q-13 -127 -104.5 -202.5t-223.5 -75.5t-207.5 75t-62.5 203l51 489h142l-51 -492q-7 -66 33 -105.5t108 -39.5t117 39.5t56 105.5l51 492h142z" />
    <glyph glyph-name="umacron" unicode="&#x16b;" horiz-adv-x="657" 
d="M500 750l-8 -78h-187l8 78h187zM515 579h142l-60 -579h-131l8 83h-2q-29 -44 -77.5 -72t-111.5 -28q-100 0 -155.5 68.5t-43.5 177.5l36 350h142l-35 -338q-6 -53 26.5 -90.5t85.5 -37.5t94 37.5t47 90.5z" />
    <glyph glyph-name="Uring" unicode="&#x16e;" horiz-adv-x="718" 
d="M475 852q2 11 -5.5 18.5t-18.5 7.5t-19.5 -7.5t-10.5 -18.5q-1 -12 6 -20t18 -8t20 8t10 20zM524 852q-3 -30 -28.5 -52t-55.5 -22t-50.5 22t-17.5 52t28.5 51t55.5 21t50.5 -21t17.5 -51zM736 750l-51 -489q-13 -127 -104.5 -202.5t-223.5 -75.5t-207.5 75t-62.5 203
l51 489h142l-51 -492q-7 -66 33 -105.5t108 -39.5t117 39.5t56 105.5l51 492h142z" />
    <glyph glyph-name="uring" unicode="&#x16f;" horiz-adv-x="657" 
d="M515 579h142l-60 -579h-131l8 83h-2q-29 -44 -77.5 -72t-111.5 -28q-100 0 -155.5 68.5t-43.5 177.5l36 350h142l-35 -338q-6 -53 26.5 -90.5t85.5 -37.5t94 37.5t47 90.5zM431 728q1 11 -6 18.5t-18 7.5t-20 -8t-10 -18q-1 -12 6 -20t18 -8t20 8t10 20zM480 728
q-3 -30 -28.5 -52t-55.5 -22t-50.5 22t-17.5 52t28.5 51t55.5 21t50.5 -21t17.5 -51z" />
    <glyph glyph-name="Uhungarumlaut" unicode="&#x170;" horiz-adv-x="718" 
d="M736 750l-51 -489q-13 -127 -104.5 -202.5t-223.5 -75.5t-207.5 75t-62.5 203l51 489h142l-51 -492q-7 -66 33 -105.5t108 -39.5t117 39.5t56 105.5l51 492h142zM395 910h84l-85 -118h-84zM522 910h84l-85 -118h-84z" />
    <glyph glyph-name="uhungarumlaut" unicode="&#x171;" horiz-adv-x="657" 
d="M515 579h142l-60 -579h-131l8 83h-2q-29 -44 -77.5 -72t-111.5 -28q-100 0 -155.5 68.5t-43.5 177.5l36 350h142l-35 -338q-6 -53 26.5 -90.5t85.5 -37.5t94 37.5t47 90.5zM347 750h84l-85 -118h-84zM474 750h84l-85 -118h-84z" />
    <glyph glyph-name="Uogonek" unicode="&#x172;" horiz-adv-x="718" 
d="M736 750l-51 -489q-10 -99 -70 -168t-151 -95q-19 -5 -32.5 -20.5t-15.5 -35.5q-2 -24 13 -41t39 -17q22 0 42 17l-7 -63q-32 -26 -71 -26q-45 0 -73.5 31.5t-23.5 76.5q5 38 27 63h-5q-132 0 -207.5 75t-62.5 203l51 489h142l-51 -492q-7 -66 33 -105.5t108 -39.5
t117 39.5t56 105.5l51 492h142z" />
    <glyph glyph-name="uogonek" unicode="&#x173;" horiz-adv-x="657" 
d="M492 -58q-2 -24 13 -41t39 -17q22 0 42 17l-7 -63q-33 -26 -71 -26q-45 0 -73.5 31.5t-23.5 76.5q6 52 55 80l8 83h-2q-29 -44 -77.5 -72t-111.5 -28q-100 0 -155.5 68.5t-43.5 177.5l36 350h142l-35 -338q-6 -53 26.5 -90.5t85.5 -37.5t94 37.5t47 90.5l35 338h142
l-60 -579h-45q-23 -1 -40 -18t-20 -40z" />
    <glyph glyph-name="Ydieresis" unicode="&#x178;" horiz-adv-x="715" 
d="M398 839q-2 -21 -19.5 -36t-37.5 -15q-22 0 -34.5 15t-10.5 36q2 22 18 36.5t38 14.5q21 0 34.5 -15t11.5 -36zM596 839q-2 -21 -18.5 -36t-38.5 -15q-21 0 -34 15t-11 36q2 22 18.5 36.5t37.5 14.5q22 0 35 -14.5t11 -36.5zM610 750h168l-315 -435l-33 -315h-142l33 315
l-228 435h168l144 -291h4z" />
    <glyph glyph-name="Zacute" unicode="&#x179;" horiz-adv-x="639" 
d="M500 910l-9 -83l-175 -42l7 66zM623 136l-14 -136h-579l14 136l452 476v2h-402l14 136h579l-14 -136l-451 -476v-2h401z" />
    <glyph glyph-name="zacute" unicode="&#x17a;" horiz-adv-x="570" 
d="M451 767l-9 -83l-175 -42l7 66zM579 449l-336 -317v-2h302l-13 -130h-494l13 130l336 317l1 2h-303l13 130h494z" />
    <glyph glyph-name="Zdotaccent" unicode="&#x17b;" horiz-adv-x="639" 
d="M401 778q-31 0 -51.5 22.5t-17.5 54.5q4 32 29 54.5t56 22.5q32 0 52.5 -23t16.5 -54q-3 -31 -28 -54t-57 -23zM623 136l-14 -136h-579l14 136l452 476v2h-402l14 136h579l-14 -136l-451 -476v-2h401z" />
    <glyph glyph-name="zdotaccent" unicode="&#x17c;" horiz-adv-x="570" 
d="M353 652q-31 0 -51.5 22.5t-17.5 54.5q4 32 29 54.5t56 22.5q32 0 52.5 -23t16.5 -54q-3 -31 -28 -54t-57 -23zM579 449l-336 -317v-2h302l-13 -130h-494l13 130l336 317l1 2h-303l13 130h494z" />
    <glyph glyph-name="Zcaron" unicode="&#x17d;" horiz-adv-x="639" 
d="M623 136l-14 -136h-579l14 136l452 476v2h-402l14 136h579l-14 -136l-451 -476v-2h401zM436 790h-66l-70 102h64l43 -45h4l51 45h64z" />
    <glyph glyph-name="zcaron" unicode="&#x17e;" horiz-adv-x="570" 
d="M579 449l-336 -317v-2h302l-13 -130h-494l13 130l336 317l1 2h-303l13 130h494zM389 680h-66l-69 102h64l42 -45h4l52 45h64z" />
    <glyph glyph-name="florin" unicode="&#x192;" horiz-adv-x="459" 
d="M232 469h-52l27 110h52l8 32q16 64 66.5 102t109.5 38h79l-27 -110h-40q-16 0 -30 -11.5t-19 -28.5l-5 -22h79l-27 -110h-79l-122 -500q-16 -64 -66.5 -102t-109.5 -38h-78l26 110h40q16 0 30 11.5t19 28.5z" />
    <glyph glyph-name="circumflex" unicode="&#x2c6;" horiz-adv-x="426" 
d="M262 782h66l69 -102h-64l-42 45h-4l-52 -45h-64z" />
    <glyph glyph-name="caron" unicode="&#x2c7;" horiz-adv-x="426" 
d="M317 680h-66l-69 102h64l42 -45h4l52 45h64z" />
    <glyph glyph-name="breve" unicode="&#x2d8;" horiz-adv-x="322" 
d="M138 750h75q7 -15 24 -15q16 0 28 15h75q-10 -37 -41 -61.5t-70 -24.5q-37 0 -63 24.5t-28 61.5z" />
    <glyph glyph-name="dotaccent" unicode="&#x2d9;" horiz-adv-x="274" 
d="M205 652q-31 0 -51.5 22.5t-17.5 54.5q4 32 29 54.5t56 22.5q32 0 52.5 -23t16.5 -54q-3 -31 -28 -54t-57 -23z" />
    <glyph glyph-name="ring" unicode="&#x2da;" horiz-adv-x="352" 
d="M279 728q1 11 -6 18.5t-18 7.5t-20 -8t-10 -18q-1 -12 6 -20t18 -8t20 8t10 20zM328 728q-3 -30 -28.5 -52t-55.5 -22t-50.5 22t-17.5 52t28.5 51t55.5 21t50.5 -21t17.5 -51z" />
    <glyph glyph-name="ogonek" unicode="&#x2db;" horiz-adv-x="297" 
d="M132 -58q-2 -24 13 -41t39 -17q22 0 42 17l-7 -63q-32 -26 -71 -26q-45 0 -73.5 31.5t-23.5 76.5q4 45 39 76.5t80 31.5q11 0 29 -4l-2 -24q-24 0 -43 -17t-22 -41z" />
    <glyph glyph-name="tilde" unicode="&#x2dc;" horiz-adv-x="427" 
d="M350 737h54q-3 -30 -26.5 -52t-54.5 -22q-42 0 -61 38q-2 11 -15 11q-18 0 -21 -19h-54q4 30 27.5 52t53.5 22q44 0 59 -39q4 -10 17 -10q19 0 21 19z" />
    <glyph glyph-name="hungarumlaut" unicode="&#x2dd;" horiz-adv-x="404" 
d="M211 750h84l-85 -118h-84zM338 750h84l-85 -118h-84z" />
    <glyph glyph-name="pi" unicode="&#x3c0;" horiz-adv-x="640" 
d="M657 453h-94l-35 -336q-3 -31 25 -31q13 0 26 4l-11 -107q-24 -3 -32 -3q-82 0 -117 32.5t-26 112.5l34 328h-120l-47 -453h-136l47 453h-94l13 126h580z" />
    <glyph glyph-name="endash" unicode="&#x2013;" horiz-adv-x="619" 
d="M80 340h529l-10 -102h-529z" />
    <glyph glyph-name="emdash" unicode="&#x2014;" horiz-adv-x="909" 
d="M80 341h819l-10 -102h-819z" />
    <glyph glyph-name="quoteleft" unicode="&#x2018;" horiz-adv-x="234" 
d="M109 567l8 75q5 48 42.5 81.5t84.5 33.5h16l-7 -65h-16q-20 0 -36.5 -14t-19.5 -35q4 1 13 1q32 0 52.5 -22t16.5 -55q-3 -31 -28 -53t-57 -22t-52 22t-17 53z" />
    <glyph glyph-name="quoteright" unicode="&#x2019;" horiz-adv-x="234" 
d="M255 682l-8 -75q-4 -48 -41.5 -81.5t-85.5 -33.5h-16l7 65h16q21 0 37 14t18 35q-3 -1 -12 -1q-32 0 -52 22t-17 55q4 31 28.5 53t56.5 22t52.5 -22t16.5 -53z" />
    <glyph glyph-name="quotesinglbase" unicode="&#x201a;" horiz-adv-x="234" 
d="M203 -5q-5 -48 -42.5 -82t-84.5 -34l7 65q20 0 36.5 14.5t19.5 35.5q-5 -2 -13 -2q-32 0 -52.5 23t-16.5 54q3 31 28 54t57 23q31 0 51.5 -22.5t17.5 -54.5z" />
    <glyph glyph-name="quotedblleft" unicode="&#x201c;" horiz-adv-x="418" 
d="M293 567l8 75q5 48 42 81.5t85 33.5h16l-7 -65h-16q-21 0 -37 -14t-18 -35q3 1 12 1q32 0 52.5 -22t16.5 -55q-3 -31 -28 -53t-57 -22t-52 22t-17 53zM109 567l8 75q5 48 42.5 81.5t84.5 33.5h16l-7 -65h-16q-20 0 -36.5 -14t-19.5 -35q4 1 13 1q32 0 52.5 -22t16.5 -55
q-3 -31 -28 -53t-57 -22t-52 22t-17 53z" />
    <glyph glyph-name="quotedblright" unicode="&#x201d;" horiz-adv-x="418" 
d="M255 682l-8 -75q-4 -48 -41.5 -81.5t-85.5 -33.5h-16l7 65h16q21 0 37 14t18 35q-3 -1 -12 -1q-32 0 -52 22t-17 55q4 31 28.5 53t56.5 22t52.5 -22t16.5 -53zM439 682l-8 -75q-4 -48 -41.5 -81.5t-85.5 -33.5h-16l7 65h16q20 0 36.5 14t19.5 35q-4 -1 -13 -1
q-32 0 -52 22t-17 55q4 31 28.5 53t56.5 22t52.5 -22t16.5 -53z" />
    <glyph glyph-name="quotedblbase" unicode="&#x201e;" horiz-adv-x="418" 
d="M191 69l-8 -75q-5 -48 -42 -81.5t-85 -33.5h-16l7 65h16q21 0 37 14t18 35q-3 -1 -12 -1q-32 0 -52.5 22t-16.5 55q3 31 28 53t57 22t52 -22t17 -53zM375 69l-8 -75q-5 -48 -42.5 -81.5t-84.5 -33.5h-16l7 65h16q20 0 36.5 14t19.5 35q-4 -1 -13 -1q-32 0 -52.5 22
t-16.5 55q3 31 28 53t57 22t52 -22t17 -53z" />
    <glyph glyph-name="dagger" unicode="&#x2020;" horiz-adv-x="506" 
d="M120 579h160l18 171h70l-18 -171h156l-7 -66h-156l-63 -599h-70l63 599h-160z" />
    <glyph glyph-name="daggerdbl" unicode="&#x2021;" horiz-adv-x="506" 
d="M68 85l7 66h160l38 362h-160l7 66h160l18 171h70l-18 -171h156l-7 -66h-156l-38 -362h156l-7 -66h-156l-18 -171h-70l18 171h-160z" />
    <glyph glyph-name="bullet" unicode="&#x2022;" horiz-adv-x="439" 
d="M220 171q-50 0 -85 35t-35 84t35 84t85 35q49 0 84 -35t35 -84t-35 -84t-84 -35z" />
    <glyph glyph-name="ellipsis" unicode="&#x2026;" horiz-adv-x="995" 
d="M814 69q3 32 28 54.5t57 22.5t51.5 -22.5t16.5 -54.5q-4 -32 -28 -54.5t-56 -22.5t-52.5 22.5t-16.5 54.5zM428 69q3 31 28 54t57 23q31 0 51.5 -22.5t17.5 -54.5q-4 -32 -29 -54.5t-56 -22.5q-32 0 -52.5 23t-16.5 54zM42 69q3 31 28 54t57 23q31 0 51.5 -22.5
t17.5 -54.5q-4 -32 -29 -54.5t-56 -22.5q-32 0 -52.5 23t-16.5 54z" />
    <glyph glyph-name="perthousand" unicode="&#x2030;" horiz-adv-x="933" 
d="M186 -17l-66 29l304 582h-11q-21 0 -38 6q-17 -46 -57 -75.5t-88 -29.5q-56 0 -93 40t-31 96q6 57 51 96.5t101 39.5q78 0 112 -67q14 -32 51 -32q42 0 62 39l31 60l66 -29zM599 120q-6 -57 -50 -97t-101 -40q-56 0 -92.5 40t-30.5 97q6 56 50.5 96t100.5 40q57 0 93 -40
t30 -96zM307 631q2 26 -14.5 44.5t-42.5 18.5q-25 0 -45.5 -18.5t-22.5 -44.5q-3 -26 13.5 -44t41.5 -18q26 0 46.5 18t23.5 44zM523 120q3 26 -12.5 44t-41.5 18q-25 0 -45 -18.5t-23 -43.5q-3 -26 13 -44.5t41 -18.5q26 0 45.5 18.5t22.5 44.5zM905 120q-6 -57 -50 -97
t-101 -40q-56 0 -92.5 40t-30.5 97q6 56 50.5 96t100.5 40q57 0 93 -40t30 -96zM829 120q3 26 -12.5 44t-41.5 18q-25 0 -45 -18.5t-23 -43.5q-3 -26 13 -44.5t41 -18.5q26 0 45.5 18.5t22.5 44.5z" />
    <glyph glyph-name="guilsinglleft" unicode="&#x2039;" horiz-adv-x="293" 
d="M70 290l235 212l-15 -144l-82 -66v-4l68 -67l-15 -144z" />
    <glyph glyph-name="guilsinglright" unicode="&#x203a;" horiz-adv-x="293" 
d="M92 502l191 -212l-235 -213l15 144l82 67v4l-68 66z" />
    <glyph glyph-name="fraction" unicode="&#x2044;" horiz-adv-x="492" 
d="M60 5l397 763l53 -21l-399 -763z" />
    <glyph glyph-name="Euro" unicode="&#x20ac;" horiz-adv-x="676" 
d="M519 243h142q-12 -114 -97.5 -187t-197.5 -73t-183 74.5t-59 188.5l2 18h-64l9 86h64l6 50h-64l9 86h64l1 17q13 114 99 189t198 75t182.5 -75t57.5 -189h-142q6 55 -26.5 93t-85.5 38t-94 -37.5t-46 -90.5l-2 -20h192l-41 -86h-160l-6 -50h145l-39 -86h-115l-2 -21
q-5 -53 28 -90t86 -37q52 0 93 37t46 90z" />
    <glyph glyph-name="trademark" unicode="&#x2122;" horiz-adv-x="363" 
d="M323 750v-150h-28v82h-1l-32 -82h-28l-33 82h-1v-82h-28v150h28l47 -113h2l46 113h28zM40 750h117v-27h-44v-123h-28v123h-45v27z" />
    <glyph glyph-name="Omega" unicode="&#x2126;" horiz-adv-x="884" 
d="M885 395q-14 -130 -143 -257v-2h89l-14 -136h-283l14 136q75 28 126.5 93t60.5 146q11 106 -55 181t-172 75t-188 -75t-93 -181q-9 -81 29 -146t109 -93l-14 -136h-284l14 136h90v2q-104 126 -90 257q18 165 144 268.5t297 103.5t276 -103.5t87 -268.5z" />
    <glyph glyph-name="partialdiff" unicode="&#x2202;" horiz-adv-x="696" 
d="M691 339q-17 -157 -113 -256.5t-232 -99.5q-132 0 -211.5 82t-65.5 216q11 109 94.5 185.5t191.5 76.5q143 0 198 -95l3 2q10 99 -45.5 146.5t-138.5 47.5q-35 0 -78.5 -13t-75.5 -35l14 132q29 15 78.5 26.5t84.5 11.5q341 0 296 -427zM537 279q7 67 -34.5 113.5
t-108.5 46.5t-118.5 -46.5t-58.5 -113.5t34.5 -113.5t108.5 -46.5t118 46.5t59 113.5z" />
    <glyph glyph-name="Delta" unicode="&#x2206;" horiz-adv-x="592" 
d="M20 0l303 750h102l147 -750h-552zM168 102h276l-88 466h-4z" />
    <glyph glyph-name="product" unicode="&#x220f;" horiz-adv-x="630" 
d="M605 614h-94v-614h-136v614h-120v-614h-136v614h-94v136h580v-136z" />
    <glyph glyph-name="summation" unicode="&#x2211;" horiz-adv-x="561" 
d="M536 136v-136h-511v136l239 239l-239 239v136h511v-136h-317v-2l238 -237l-238 -237v-2h317z" />
    <glyph glyph-name="minus" unicode="&#x2212;" horiz-adv-x="679" 
d="M50 340h579v-102h-579v102z" />
    <glyph glyph-name="radical" unicode="&#x221a;" horiz-adv-x="522" 
d="M210 308l67 -171h4l100 613h111l-132 -750h-132l-66 175h-4l-23 -72h-105l79 205h101z" />
    <glyph glyph-name="infinity" unicode="&#x221e;" horiz-adv-x="718" 
d="M359 347q61 96 143 96q67 0 116.5 -44.5t49.5 -108.5q0 -65 -49.5 -109.5t-116.5 -44.5q-81 0 -143 93q-62 -93 -143 -93q-67 0 -116.5 44.5t-49.5 109.5q0 64 49.5 108.5t116.5 44.5q82 0 143 -96zM591 289q0 38 -26 64t-63 26q-54 0 -107 -91q52 -87 107 -87
q38 0 63.5 25.5t25.5 62.5zM323 288q-53 91 -107 91q-37 0 -63 -26t-26 -64q0 -37 25.5 -62.5t63.5 -25.5q55 0 107 87z" />
    <glyph glyph-name="integral" unicode="&#x222b;" horiz-adv-x="340" 
d="M100 -21l-2 632q1 64 42.5 102t100.5 38h79v-110h-41q-16 0 -27 -11.5t-12 -28.5l2 -632q-1 -64 -42.5 -102t-100.5 -38h-79v110h41q16 0 27 11.5t12 28.5z" />
    <glyph glyph-name="approxequal" unicode="&#x2248;" horiz-adv-x="679" 
d="M50 154v102q8 3 22.5 8.5t54 15.5t74.5 13t75 -5t64 -32t62.5 -32.5t76.5 -4t72.5 12.5t56.5 16l21 8v-102q-8 -3 -22.5 -8.5t-54 -15.5t-74.5 -13t-74 5t-63 32t-63 32.5t-77 4t-73 -12.5t-56 -16zM50 323v103q8 3 22.5 8.5t54 15.5t74.5 13t75 -5t64 -32t62.5 -33
t76.5 -4.5t72.5 12.5t56.5 17l21 8v-103q-8 -3 -22.5 -8.5t-54 -15.5t-74.5 -13t-74 5t-63 32t-63 33t-77 4.5t-73 -12.5t-56 -16z" />
    <glyph glyph-name="notequal" unicode="&#x2260;" horiz-adv-x="680" 
d="M447 325l-68 -69h251v-102h-354l-80 -80h-146l82 80h-82v102h184l68 69h-252v102h354l81 80h145l-81 -80h81v-102h-183z" />
    <glyph glyph-name="lessequal" unicode="&#x2264;" horiz-adv-x="422" 
d="M40 102h342v-102h-342v102zM40 426l342 153v-111l-224 -91v-4l224 -91v-111l-342 152v103z" />
    <glyph glyph-name="greaterequal" unicode="&#x2265;" horiz-adv-x="422" 
d="M40 102h342v-102h-342v102zM40 579l342 -153v-103l-342 -152v111l224 91v4l-224 91v111z" />
    <glyph glyph-name="lozenge" unicode="&#x25ca;" horiz-adv-x="557" 
d="M517 375l-187 -375h-102l-188 375l188 375h102zM154 375l124 -259h2l123 259l-123 259h-2z" />
    <glyph glyph-name="uniF8FF" unicode="&#xf8ff;" horiz-adv-x="500" 
 />
    <glyph glyph-name="ff" unicode="&#xfb00;" horiz-adv-x="673" 
d="M624 579h79l-11 -110h-79l-49 -469h-142l49 469h-198l-49 -469h-142l49 469h-52l11 110h52l2 20q8 73 57 112t129 39h51l-12 -116h-44q-14 0 -26 -10.5t-13 -24.5l-2 -20h198l2 20q8 73 57 112t129 39h51l-12 -116h-44q-14 0 -26 -10.5t-13 -24.5z" />
    <glyph glyph-name="fi" unicode="&#xfb01;" horiz-adv-x="625" 
d="M284 579h341l-60 -579h-142l49 469h-199l-49 -469h-142l49 469h-52l11 110h52l2 20q8 73 57 112t129 39h51l-12 -116h-44q-14 0 -26 -10.5t-13 -24.5zM487 692q4 33 29.5 56t58.5 23t53.5 -23t16.5 -56q-3 -33 -28.5 -56t-58.5 -23t-53.5 23t-17.5 56z" />
    <glyph glyph-name="fl" unicode="&#xfb02;" horiz-adv-x="627" 
d="M386 579l-13 -124h-100l-47 -455h-142l47 455h-54l13 124h54l2 18q8 72 61.5 112.5t127.5 40.5h310l-78 -750h-142l66 635h-164q-14 0 -25.5 -11.5t-13.5 -26.5l-2 -18h100z" />
    <glyph glyph-name="ffi" unicode="&#xfb03;" horiz-adv-x="965" 
d="M624 579h341l-60 -579h-142l49 469h-199l-49 -469h-142l49 469h-198l-49 -469h-142l49 469h-52l11 110h52l2 20q8 73 57 112t129 39h51l-12 -116h-44q-14 0 -26 -10.5t-13 -24.5l-2 -20h198l2 20q8 73 57 112t129 39h51l-12 -116h-44q-14 0 -26 -10.5t-13 -24.5zM827 692
q4 33 29.5 56t58.5 23t53.5 -23t16.5 -56q-3 -33 -28.5 -56t-58.5 -23t-53.5 23t-17.5 56z" />
    <glyph glyph-name="ffl" unicode="&#xfb04;" horiz-adv-x="974" 
d="M733 579l-11 -110h-100l-49 -469h-142l49 469h-207l-49 -469h-142l49 469h-52l11 110h52l2 20q8 73 57 112t129 39h51l-12 -116h-44q-14 0 -26 -10.5t-13 -24.5l-2 -20h207l2 18q8 72 61.5 112.5t127.5 40.5h310l-78 -750h-142l66 635h-164q-14 0 -25.5 -11.5
t-13.5 -26.5l-2 -18h100z" />
    <glyph glyph-name="tt" unicode="&#xfb05;" horiz-adv-x="689" 
d="M472 469h-203l-33 -308q-1 -15 8 -25t23 -10h65l-13 -126h-65q-79 0 -123 46.5t-36 124.5l32 298h-53l11 110h53l14 131h142l-14 -131h203l14 131h142l-14 -131h99l-11 -110h-99l-33 -308q-1 -15 8 -25t23 -10h65l-13 -126h-65q-79 0 -123 46.5t-36 124.5z" />
    <glyph glyph-name="ft" unicode="&#xfb06;" horiz-adv-x="689" 
d="M472 469h-199l-49 -469h-142l49 469h-52l11 110h52l2 20q8 73 57 112t129 39h51l-12 -116h-44q-14 0 -26 -10.5t-13 -24.5l-2 -20h199l14 131h142l-14 -131h99l-11 -110h-99l-33 -308q-1 -15 8 -25t23 -10h65l-13 -126h-65q-79 0 -123 46.5t-36 124.5z" />
    <glyph glyph-name="Publisher" unicode="&#xfb07;" horiz-adv-x="693" 
d="M530 341q0 -64 -45.5 -109t-109.5 -45h-88v-103h-75v411h163q65 0 110 -45t45 -109zM453 341q0 33 -23 56.5t-55 23.5h-88v-160h88q32 0 55 23.5t23 56.5zM615 290q0 112 -78 191.5t-191 79.5q-111 0 -189.5 -79.5t-78.5 -191.5t78.5 -192t189.5 -80q113 0 191 80t78 192
zM653 290q0 -128 -89.5 -217.5t-217.5 -89.5q-127 0 -216.5 90t-89.5 217t89.5 216.5t216.5 89.5t217 -89.5t90 -216.5z" />
    <glyph glyph-name="_0000" horiz-adv-x="501" 
 />
    </font>
</defs>
</svg>
