<?xml version="1.0" standalone="no"?>
<!DOCTYPE svg PUBLIC "-//W3C//DTD SVG 1.1//EN" "http://www.w3.org/Graphics/SVG/1.1/DTD/svg11.dtd" >
<svg xmlns="http://www.w3.org/2000/svg" xmlns:xlink="http://www.w3.org/1999/xlink" version="1.1">
<metadata>
Created by FontForge 20170731 at Mon Mar  9 23:26:04 2015
 By Aleksey,,,
 Copyright (c)2014 Talbot Type. All Rights Reserved
</metadata>
<defs>
<font id="Kamerik205-LightOblique" horiz-adv-x="154" >
  <font-face 
    font-family="Kamerik205"
    font-weight="400"
    font-style="oblique"
    font-stretch="normal"
    units-per-em="1000"
    panose-1="2 11 3 3 3 6 0 9 0 4"
    ascent="803"
    descent="-197"
    x-height="579"
    cap-height="750"
    bbox="-25 -204 1407 924"
    underline-thickness="28"
    underline-position="-128"
    slope="-12"
    unicode-range="U+0020-FB06"
  />
<missing-glyph horiz-adv-x="270" 
 />
    <glyph glyph-name=".notdef" horiz-adv-x="270" 
 />
    <glyph glyph-name=".null" horiz-adv-x="0" 
 />
    <glyph glyph-name="nonmarkingreturn" horiz-adv-x="333" 
 />
    <glyph glyph-name="space" unicode=" " horiz-adv-x="270" 
 />
    <glyph glyph-name="exclam" unicode="!" 
d="M106 171h-24l56 579h34zM51 20q1 11 9.5 19t20.5 8q11 0 19 -8t7 -19t-10.5 -19t-20.5 -8q-12 0 -19.5 8t-5.5 19z" />
    <glyph glyph-name="quotedbl" unicode="&#x22;" horiz-adv-x="178" 
d="M78 579h-28v171h28v-171zM102 750h26v-171h-26v171z" />
    <glyph glyph-name="numbersign" unicode="#" horiz-adv-x="620" 
d="M438 443h-134l-44 -136h135zM473 443l-43 -136h202l-4 -34h-209l-86 -273h-35l86 273h-135l-86 -273h-34l85 273h-166l4 34h174l42 136h-202l4 34h210l85 273h36l-86 -273h134l86 273h36l-87 -273h166l-4 -34h-173z" />
    <glyph glyph-name="dollar" unicode="$" horiz-adv-x="497" 
d="M508 565h-34q8 70 -35 119t-114 49q-69 0 -122 -49t-61 -119q-8 -71 34.5 -120t112.5 -49q88 0 142.5 -59.5t44.5 -146.5q-8 -83 -68.5 -141t-144.5 -66l-6 -52h-34l6 52q-81 8 -129.5 66t-40.5 141h34q-7 -73 38 -123t118 -50q74 0 129 49.5t63 123.5q8 73 -36.5 122.5
t-118.5 49.5q-85 0 -136.5 59t-42.5 144q8 80 66 137t138 64l5 51h34l-5 -51q79 -7 125 -64t38 -137z" />
    <glyph glyph-name="percent" unicode="%" horiz-adv-x="574" 
d="M379 630q-6 -56 -50.5 -96t-100.5 -40t-92 40t-30 96q6 57 50.5 97t100.5 40q75 0 108 -63q19 -31 53 -31q44 0 68 41l26 53l31 -13l-402 -771l-30 13l338 649q-22 -6 -34 -6q-17 0 -35 8q0 -3 -0.5 -8.5t-0.5 -8.5zM274 119q6 57 50 97t101 40q56 0 91.5 -40t29.5 -97
q-6 -56 -49.5 -96t-99.5 -40q-57 0 -93 40t-30 96zM344 630q5 42 -21.5 72.5t-68.5 30.5t-75 -30.5t-38 -72.5q-4 -43 22.5 -72.5t68.5 -29.5q43 0 75 29.5t37 72.5zM309 119q-5 -42 21.5 -72t69.5 -30q42 0 74 30t37 72t-21 72.5t-68 30.5t-75 -30.5t-38 -72.5z" />
    <glyph glyph-name="ampersand" unicode="&#x26;" horiz-adv-x="648" 
d="M338 477q53 0 93.5 37.5t45.5 90.5q6 53 -26.5 90.5t-85.5 37.5t-94 -37.5t-47 -90.5q-5 -53 28 -90.5t86 -37.5zM572 358l-25 -239q-4 -35 18.5 -60.5t57.5 -25.5l-3 -33q-46 0 -77 30.5t-31 75.5q-38 -56 -98.5 -89.5t-127.5 -33.5q-103 0 -168 72.5t-54 174.5
q8 80 61.5 144t129.5 90q-34 21 -52 59t-14 82q8 68 60 115t119 47t109 -47.5t35 -114.5t-59 -114.5t-119 -47.5q-88 0 -157 -62.5t-78 -150.5q-10 -88 46 -150.5t144 -62.5q87 0 156.5 62.5t79.5 150.5l13 128q5 49 44 84t88 35l-4 -33q-35 0 -62.5 -25.5t-31.5 -60.5z" />
    <glyph glyph-name="quotesingle" unicode="'" horiz-adv-x="128" 
d="M78 579h-28v171h28v-171z" />
    <glyph glyph-name="parenleft" unicode="(" horiz-adv-x="273" 
d="M148 289q-30 -283 75 -477h-33q-52 100 -73 225.5t-7 251.5q14 127 60.5 252.5t118.5 225.5h34q-145 -191 -175 -478z" />
    <glyph glyph-name="parenright" unicode=")" horiz-adv-x="273" 
d="M185 289q30 285 -75 478h34q51 -101 71.5 -226t7.5 -252q-14 -127 -61 -252t-119 -225h-33q145 193 175 477z" />
    <glyph glyph-name="asterisk" unicode="*" horiz-adv-x="369" 
d="M224 640l-73 39l19 30l70 -46l5 87h34l-11 -87l78 46l14 -30l-81 -39l72 -41l-20 -30l-68 47l-7 -88h-34l13 88l-80 -47l-13 30z" />
    <glyph glyph-name="plus" unicode="+" horiz-adv-x="680" 
d="M50 307h273v272h34v-272h273v-34h-273v-273h-34v273h-273v34z" />
    <glyph glyph-name="comma" unicode="," horiz-adv-x="181" 
d="M35 -79h6q8 0 15 6.5t8 14.5l6 50h-5q-13 0 -21 9.5t-7 22.5q2 12 11.5 21t22.5 9t21 -9t6 -21l-9 -82q-2 -19 -16.5 -32.5t-33.5 -13.5h-6z" />
    <glyph glyph-name="hyphen" unicode="-" horiz-adv-x="464" 
d="M102 307h324l-4 -34h-324z" />
    <glyph glyph-name="period" unicode="." horiz-adv-x="181" 
d="M65 -8q-13 0 -21 9.5t-7 22.5q2 12 11.5 21t22.5 9t21 -9t6 -21q-2 -14 -11 -23t-22 -9z" />
    <glyph glyph-name="slash" unicode="/" horiz-adv-x="471" 
d="M490 753l-401 -770l-30 12l402 772z" />
    <glyph glyph-name="zero" unicode="0" horiz-adv-x="598" 
d="M600 519l-30 -289q-11 -102 -90.5 -174.5t-181.5 -72.5q-103 0 -168 72.5t-54 174.5l30 289q10 103 90.5 175.5t183.5 72.5q102 0 166.5 -72.5t53.5 -175.5zM536 230l30 289q9 89 -46 151.5t-143 62.5q-89 0 -158.5 -63t-78.5 -151l-30 -289q-10 -88 46.5 -150.5
t144.5 -62.5t156.5 62.5t78.5 150.5z" />
    <glyph glyph-name="one" unicode="1" horiz-adv-x="250" 
d="M230 710l-123 -65l4 37l123 68h34l-78 -750h-34z" />
    <glyph glyph-name="two" unicode="2" horiz-adv-x="570" 
d="M473 329l-345 -295h381l-3 -34h-434l3 34l378 322q87 77 97 169t-43 150t-145 58q-93 0 -158 -58t-75 -150l-4 -33h-34l4 33q11 106 87.5 174t182.5 68t168.5 -68t51.5 -174q-13 -111 -112 -196z" />
    <glyph glyph-name="three" unicode="3" horiz-adv-x="589" 
d="M584 571q-14 -126 -153 -178q153 -52 138 -197q-11 -104 -84 -158.5t-193 -54.5t-182.5 54.5t-51.5 158.5h35q-10 -90 43 -134.5t159 -44.5q105 0 167 44.5t72 134.5q9 84 -48.5 131.5t-152.5 47.5h-43l3 34h43q85 0 144.5 42t68.5 120q8 82 -38 122t-140 40
q-197 0 -213 -162h-35q10 96 76 146t175 50q108 0 164 -50t46 -146z" />
    <glyph glyph-name="four" unicode="4" horiz-adv-x="608" 
d="M51 187l4 34l441 529h34l-55 -529h124l-4 -34h-124l-19 -187h-34l19 187h-386zM490 693l-392 -472h343z" />
    <glyph glyph-name="five" unicode="5" horiz-adv-x="589" 
d="M539 239q9 92 -48 156.5t-149 64.5q-110 0 -184 -86l-34 5l104 371h326l-3 -34h-297l-80 -283q77 61 171 61q106 0 173 -75t56 -180q-11 -106 -93.5 -181t-188.5 -75q-107 0 -173.5 75t-55.5 181h34q-10 -92 48 -157t150 -65t163 65t81 157z" />
    <glyph glyph-name="six" unicode="6" horiz-adv-x="591" 
d="M541 239q9 92 -48 156.5t-149 64.5t-163.5 -64.5t-80.5 -156.5q-10 -92 47.5 -157t149.5 -65t163 65t81 157zM576 239q-11 -106 -93.5 -181t-188.5 -75q-107 0 -173.5 75t-55.5 181q7 78 60 143l283 368h41l-218 -283q57 27 116 27q106 0 173 -75t56 -180z" />
    <glyph glyph-name="seven" unicode="7" horiz-adv-x="540" 
d="M547 716h-446l3 34h484l-3 -35l-373 -715h-38z" />
    <glyph glyph-name="eight" unicode="8" horiz-adv-x="591" 
d="M551 571q8 78 -41 120t-137 42t-146.5 -42t-66.5 -120q-8 -74 43.5 -117.5t135.5 -43.5t144 43.5t68 117.5zM335 376q-95 0 -163 -49t-77 -131q-9 -85 47 -132t155 -47t164.5 47t74.5 132t-48 132.5t-153 47.5zM586 571q-14 -126 -153 -178q153 -52 138 -197
q-10 -98 -87.5 -155.5t-189.5 -57.5q-113 0 -178.5 57.5t-55.5 155.5q8 73 56 122.5t124 74.5q-129 53 -115 178q10 92 79.5 144t171.5 52q101 0 160.5 -52.5t49.5 -143.5z" />
    <glyph glyph-name="nine" unicode="9" horiz-adv-x="591" 
d="M128 511q-10 -92 47.5 -156.5t149.5 -64.5t163 64.5t81 156.5t-47.5 157t-149.5 65t-163 -65t-81 -157zM93 511q11 106 93.5 181t188.5 75q107 0 173.5 -75t55.5 -181q-7 -75 -60 -143l-283 -368h-41l218 283q-59 -27 -117 -27q-106 0 -172.5 75t-55.5 180z" />
    <glyph glyph-name="colon" unicode=":" horiz-adv-x="181" 
d="M65 -8q-13 0 -21 9.5t-7 22.5q2 12 11.5 21t22.5 9t21 -9t6 -21q-2 -14 -11 -23t-22 -9zM121 525q-13 0 -21 9.5t-7 22.5q2 12 11.5 21t22.5 9t21 -9t6 -21q-2 -14 -11 -23t-22 -9z" />
    <glyph glyph-name="semicolon" unicode=";" horiz-adv-x="181" 
d="M121 525q-13 0 -21 9.5t-7 22.5q2 12 11.5 21t22.5 9t21 -9t6 -21q-2 -14 -11 -23t-22 -9zM35 -79h6q8 0 15 6.5t8 14.5l6 50h-5q-13 0 -21 9.5t-7 22.5q2 12 11.5 21t22.5 9t21 -9t6 -21l-9 -82q-2 -19 -16.5 -32.5t-33.5 -13.5h-6z" />
    <glyph glyph-name="less" unicode="&#x3c;" horiz-adv-x="422" 
d="M382 0l-342 273v34l342 272v-43l-308 -246l308 -247v-43z" />
    <glyph glyph-name="equal" unicode="=" horiz-adv-x="679" 
d="M50 188v34h579v-34h-579zM629 392v-34h-579v34h579z" />
    <glyph glyph-name="greater" unicode="&#x3e;" horiz-adv-x="422" 
d="M382 273l-342 -273v43l308 247l-308 246v43l342 -272v-34z" />
    <glyph glyph-name="question" unicode="?" horiz-adv-x="591" 
d="M308 291h24q90 3 159 67.5t78 154.5q10 91 -47.5 155.5t-149.5 64.5q-88 0 -158 -60.5t-84 -147.5h-35q15 101 96 171.5t184 70.5q106 0 173 -74.5t56 -179.5q-10 -102 -87 -175.5t-178 -80.5l-9 -80h-34zM323 18q-1 -11 -9.5 -18.5t-19.5 -7.5t-18.5 7.5t-6.5 18.5
q1 12 10 20t20 8t18 -8t6 -20z" />
    <glyph glyph-name="at" unicode="@" horiz-adv-x="874" 
d="M863 375l-13 -119q-4 -42 -37 -72t-76 -30q-42 0 -69 30t-23 72l1 1q-35 -47 -87.5 -75t-110.5 -28q-92 0 -150 64.5t-48 156.5t81 156.5t163 64.5t150 -64.5t48 -156.5l-13 -119q-3 -28 15 -48t46 -20q29 0 51 20t25 48l13 119q16 148 -78.5 252.5t-242.5 104.5
t-263.5 -104.5t-131.5 -252.5t78 -253t242 -105q86 0 165 38l11 -31q-88 -41 -179 -41q-163 0 -265.5 115t-85.5 277t143.5 277t289.5 115q162 0 265 -115t86 -277zM658 375q8 77 -41 132.5t-126 55.5q-78 0 -139 -55.5t-69 -132.5t41 -132t127 -55q77 0 138 55t69 132z" />
    <glyph glyph-name="A" unicode="A" horiz-adv-x="678" 
d="M166 221h393l-146 480zM663 0h-37l-58 187h-419l-96 -187h-38l385 750h35z" />
    <glyph glyph-name="B" unicode="B" horiz-adv-x="663" 
d="M644 204q-9 -85 -75 -144.5t-151 -59.5h-358l78 750h341q78 0 127.5 -55t41.5 -132q-6 -54 -38 -98t-80 -68q57 -22 89 -75t25 -118zM609 204q8 71 -37 121t-115 50h-324l-36 -341h324q70 0 125 50t63 120zM136 409h307q64 0 113.5 45t56.5 109q7 63 -33 108t-104 45
h-307z" />
    <glyph glyph-name="C" unicode="C" horiz-adv-x="839" 
d="M855 486h-37q-24 109 -110 178t-204 69q-148 0 -263.5 -105t-131.5 -253t77.5 -253t241.5 -105q118 0 219 69t147 178h37q-50 -123 -162 -202t-244 -79q-162 0 -265 115t-86 277t144 277t289 115q132 0 228 -79t120 -202z" />
    <glyph glyph-name="D" unicode="D" horiz-adv-x="726" 
d="M138 750h256q155 0 253.5 -110t82.5 -265q-17 -155 -138 -265t-276 -110h-256zM695 375q15 141 -74 241t-230 100h-222l-72 -682h222q141 0 251 99.5t125 241.5z" />
    <glyph glyph-name="E" unicode="E" horiz-adv-x="641" 
d="M97 34h512l-3 -34h-546l78 750h546l-3 -34h-512l-34 -324h443l-4 -34h-443z" />
    <glyph glyph-name="F" unicode="F" horiz-adv-x="603" 
d="M663 716h-494l-34 -324h426l-4 -34h-426l-37 -358h-34l78 750h528z" />
    <glyph glyph-name="G" unicode="G" horiz-adv-x="854" 
d="M794 0h-34l22 215l-2 1q-52 -104 -148 -168.5t-207 -64.5q-162 0 -265 115t-86 277t144 277t289 115q123 0 215.5 -70t124.5 -181h-37q-32 97 -114.5 157t-191.5 60q-148 0 -263.5 -105t-131.5 -253t77.5 -253t241.5 -105q133 0 239.5 99t128.5 242h-332l4 34h367z" />
    <glyph glyph-name="H" unicode="H" horiz-adv-x="699" 
d="M639 0h-34l37 358h-511l-37 -358h-34l78 750h34l-37 -358h511l37 358h34z" />
    <glyph glyph-name="I" unicode="I" 
d="M60 0l78 750h34l-78 -750h-34z" />
    <glyph glyph-name="J" unicode="J" horiz-adv-x="557" 
d="M257 -17q-105 0 -165 66t-49 172h34q-10 -92 41 -148t142 -56t153.5 56t72.5 148l55 529h34l-55 -529q-11 -106 -84.5 -172t-178.5 -66z" />
    <glyph glyph-name="K" unicode="K" horiz-adv-x="669" 
d="M138 750h34l-53 -512l565 512h48l-414 -375l336 -375h-48l-315 351l-178 -161l-19 -190h-34z" />
    <glyph glyph-name="L" unicode="L" horiz-adv-x="586" 
d="M574 34l-3 -34h-511l78 750h34l-75 -716h477z" />
    <glyph glyph-name="M" unicode="M" horiz-adv-x="870" 
d="M60 0l78 750h34l267 -707l415 707h34l-78 -750h-34l70 671l-394 -671h-34l-254 671l-70 -671h-34z" />
    <glyph glyph-name="N" unicode="N" horiz-adv-x="700" 
d="M718 750l-78 -750h-34l-440 692l-72 -692h-34l78 750h34l440 -692l72 692h34z" />
    <glyph glyph-name="O" unicode="O" horiz-adv-x="854" 
d="M823 375q16 148 -77.5 253t-241.5 105t-263.5 -105t-131.5 -253t77.5 -253t241.5 -105t263.5 105t131.5 253zM858 375q-17 -162 -144 -277t-289 -115q-163 0 -265.5 115t-85.5 277t143.5 277t289.5 115q162 0 265 -115t86 -277z" />
    <glyph glyph-name="P" unicode="P" horiz-adv-x="658" 
d="M677 519q-10 -94 -84.5 -161.5t-169.5 -67.5h-299l-30 -290h-34l78 750h333q95 0 155.5 -67.5t50.5 -163.5zM642 519q8 81 -42.5 139t-131.5 58h-299l-41 -392h299q81 0 144 57t71 138z" />
    <glyph glyph-name="Q" unicode="Q" horiz-adv-x="842" 
d="M802 0h-384q-159 0 -259.5 112t-83.5 271t140.5 271.5t282.5 112.5q104 0 187 -51.5t125.5 -140t31.5 -192.5q-12 -118 -88.5 -212.5t-181.5 -136.5h233zM110 383q-16 -145 75 -247t236 -102t257.5 102t128.5 247q15 145 -76 247.5t-236 102.5t-257.5 -102.5
t-127.5 -247.5z" />
    <glyph glyph-name="R" unicode="R" horiz-adv-x="663" 
d="M677 519q-9 -85 -71.5 -149t-146.5 -78l117 -292h-39l-114 290h-299l-30 -290h-34l78 750h333q95 0 155.5 -67.5t50.5 -163.5zM642 519q8 81 -42.5 139t-131.5 58h-299l-41 -392h299q81 0 144 57t71 138z" />
    <glyph glyph-name="S" unicode="S" horiz-adv-x="591" 
d="M95 191q-8 -75 50.5 -124.5t150.5 -49.5q94 0 162.5 47.5t76.5 125.5q6 55 -15.5 93t-60 56.5t-86 31.5l-95 26t-86 31.5t-60 55.5t-15.5 91q9 85 83 138.5t175 53.5q102 0 165 -52.5t54 -138.5h-34q7 67 -47.5 112t-140.5 45q-87 0 -150 -43.5t-70 -114.5q-5 -47 17 -78
t61 -46.5t86.5 -27t95 -26t85.5 -36t59 -65t14 -106.5q-10 -91 -89.5 -149t-187.5 -58q-107 0 -175 59t-58 149h35z" />
    <glyph glyph-name="T" unicode="T" horiz-adv-x="609" 
d="M669 716h-272l-75 -716h-34l75 716h-273l3 34h579z" />
    <glyph glyph-name="U" unicode="U" horiz-adv-x="699" 
d="M717 750l-50 -477q-13 -120 -106.5 -205t-212.5 -85q-120 0 -196.5 85t-63.5 205l50 477h34l-50 -477q-11 -106 56 -181t173 -75t188.5 75t93.5 181l50 477h34z" />
    <glyph glyph-name="V" unicode="V" horiz-adv-x="678" 
d="M741 750l-384 -750h-34l-230 750h38l214 -702l359 702h37z" />
    <glyph glyph-name="W" unicode="W" horiz-adv-x="914" 
d="M977 750l-291 -750h-35l-122 685l-266 -685h-35l-135 750h37l122 -685l266 685h35l122 -685l267 685h35z" />
    <glyph glyph-name="X" unicode="X" horiz-adv-x="626" 
d="M374 375l237 -375h-42l-220 346l-291 -346h-43l317 375l-239 375h43l219 -346l292 346h42z" />
    <glyph glyph-name="Y" unicode="Y" horiz-adv-x="645" 
d="M342 358l-249 392h44l226 -357l301 357h44l-332 -392l-37 -358h-34z" />
    <glyph glyph-name="Z" unicode="Z" horiz-adv-x="620" 
d="M98 750h580l-3 -34l-608 -682h536l-3 -34h-580l3 34l609 682h-537z" />
    <glyph glyph-name="bracketleft" unicode="[" horiz-adv-x="247" 
d="M99 -137h103l-3 -34h-137l96 921h137l-3 -34h-103z" />
    <glyph glyph-name="backslash" unicode="\" horiz-adv-x="471" 
d="M378 -17l-239 770l31 14l240 -772z" />
    <glyph glyph-name="bracketright" unicode="]" horiz-adv-x="247" 
d="M15 -137h103l90 853h-103l3 34h137l-96 -921h-137z" />
    <glyph glyph-name="asciicircum" unicode="^" horiz-adv-x="597" 
d="M282 750h34l221 -375h-40l-198 337l-200 -337h-39z" />
    <glyph glyph-name="underscore" unicode="_" horiz-adv-x="519" 
d="M0 -91h579v-25h-579v25z" />
    <glyph glyph-name="grave" unicode="`" horiz-adv-x="351" 
d="M170 767l165 -59l-2 -20l-167 42z" />
    <glyph glyph-name="a" unicode="a" horiz-adv-x="606" 
d="M546 0h-34l13 125q-37 -63 -109.5 -102.5t-149.5 -39.5q-113 0 -168 51.5t-46 135.5q20 186 233 186h264l5 46q8 85 -43 122.5t-144 37.5q-205 0 -220 -144h-34q10 93 81.5 135.5t175.5 42.5q51 0 92 -11t71.5 -33t45 -60.5t9.5 -89.5zM536 237l9 85h-264
q-96 0 -141 -39.5t-53 -112.5q-7 -70 39 -111.5t143 -41.5t177 63.5t90 156.5z" />
    <glyph glyph-name="b" unicode="b" horiz-adv-x="714" 
d="M124 290q-11 -113 60 -193t184 -80t201 80t100 193t-59 192.5t-184 79.5t-201.5 -79.5t-100.5 -192.5zM60 0l78 750h34l-33 -320q45 75 123.5 120.5t166.5 45.5q127 0 207.5 -89.5t67.5 -216.5t-112.5 -217t-226.5 -90q-88 0 -157 45.5t-99 120.5l-15 -149h-34z" />
    <glyph glyph-name="c" unicode="c" horiz-adv-x="672" 
d="M677 392h-36q-24 76 -87.5 123.5t-148.5 47.5q-112 0 -200 -80t-100 -193t59 -193t183 -80q85 0 159 47.5t113 123.5h36q-41 -91 -126.5 -148t-184.5 -57q-127 0 -207.5 90t-66.5 217t112.5 217t225.5 90q99 0 172.5 -57t96.5 -148z" />
    <glyph glyph-name="d" unicode="d" horiz-adv-x="714" 
d="M650 290q12 113 -59.5 192.5t-184.5 79.5t-201 -79.5t-100 -192.5t59 -193t184 -80t201 80t101 193zM732 750l-78 -750h-34l15 149q-45 -75 -123.5 -120.5t-166.5 -45.5q-127 0 -207.5 90t-67.5 217t112.5 216.5t226.5 89.5q88 0 157 -45.5t99 -120.5l33 320h34z" />
    <glyph glyph-name="e" unicode="e" horiz-adv-x="692" 
d="M682 290l-2 -17h-577q-5 -107 66 -181.5t179 -74.5q78 0 146.5 40.5t110.5 107.5h37q-44 -82 -124.5 -132t-172.5 -50q-127 0 -207.5 90t-67.5 217q14 127 113 217t226 90t207 -90t66 -217zM107 307h542q4 108 -65.5 182t-177.5 74t-194.5 -74.5t-104.5 -181.5z" />
    <glyph glyph-name="f" unicode="f" horiz-adv-x="296" 
d="M182 579h154l-3 -34h-154l-57 -545h-34l57 545h-68l3 34h68l5 44q6 61 42.5 94t96.5 33h62l-3 -34h-62q-93 0 -102 -93z" />
    <glyph glyph-name="g" unicode="g" horiz-adv-x="584" 
d="M33 -22q6 49 35 84q-23 24 -20 57q6 54 49.5 79t120.5 32q-43 26 -65 71.5t-16 98.5q8 81 72 138.5t145 57.5q87 0 139 -65q12 29 38 47t57 18h17l-3 -34h-17q-25 0 -44.5 -17.5t-22.5 -42.5q-1 -9 3 -24q12 -36 9 -78q-9 -81 -72.5 -138.5t-144.5 -57.5q-54 0 -88 -2.5
t-69 -10.5t-52.5 -26t-20.5 -46q-2 -20 8 -34q74 59 216 59q117 0 182 -41.5t56 -124.5t-82.5 -124.5t-190.5 -41.5t-182.5 41.5t-56.5 124.5zM68 -22q-7 -71 48 -101.5t159 -30.5q222 0 235 132q8 71 -47 101.5t-160 30.5q-220 0 -235 -132zM495 400q7 67 -35 114.5
t-109 47.5t-119.5 -47.5t-59.5 -114.5q-8 -67 35 -114.5t110 -47.5t118.5 47.5t59.5 114.5z" />
    <glyph glyph-name="h" unicode="h" horiz-adv-x="614" 
d="M554 0h-34l37 358q9 85 -44 144.5t-138 59.5q-92 0 -164 -64.5t-82 -156.5l-35 -341h-34l78 750h34l-29 -281q39 58 102 92.5t133 34.5q98 0 160.5 -69.5t52.5 -168.5z" />
    <glyph glyph-name="i" unicode="i" 
d="M120 579h34l-60 -579h-34zM131 743q1 10 8.5 17t17.5 7t16.5 -7t5.5 -17q-2 -10 -9.5 -17t-17.5 -7t-16 7t-5 17z" />
    <glyph glyph-name="j" unicode="j" horiz-adv-x="230" 
d="M255 743q-2 -10 -9.5 -17t-17.5 -7t-16.5 7t-4.5 17q1 10 8.5 17t17.5 7t16.5 -7t5.5 -17zM-25 -171l3 34h51q42 0 69.5 25.5t32.5 67.5l65 623h34l-65 -623q-6 -56 -44.5 -91.5t-94.5 -35.5h-51z" />
    <glyph glyph-name="k" unicode="k" horiz-adv-x="530" 
d="M231 266l-121 -110l-16 -156h-34l78 750h34l-57 -546l414 375h49l-320 -289l260 -290h-49z" />
    <glyph glyph-name="l" unicode="l" 
d="M60 0l78 750h34l-78 -750h-34z" />
    <glyph glyph-name="m" unicode="m" horiz-adv-x="869" 
d="M851 409l-42 -409h-34l42 409q7 60 -33.5 106.5t-102.5 46.5q-71 0 -126.5 -50t-62.5 -120l-41 -392h-34l42 409q7 60 -33.5 106.5t-103.5 46.5q-70 0 -125 -50t-62 -120l-41 -392h-34l60 579h34l-8 -77q31 43 78.5 68.5t100.5 25.5q59 0 102.5 -32t60.5 -83
q30 52 82.5 83.5t113.5 31.5q78 0 127 -54.5t40 -132.5z" />
    <glyph glyph-name="n" unicode="n" horiz-adv-x="614" 
d="M554 0h-34l37 358q9 83 -45 143.5t-138 60.5q-91 0 -163 -65t-82 -157l-35 -340h-34l60 579h34l-12 -113q39 59 101.5 94.5t133.5 35.5q100 0 162 -69t52 -169z" />
    <glyph glyph-name="o" unicode="o" horiz-adv-x="695" 
d="M650 290q12 113 -59.5 192.5t-184.5 79.5q-112 0 -200.5 -79.5t-100.5 -192.5t59 -193t184 -80t201.5 80t100.5 193zM685 290q-13 -127 -112.5 -217t-227.5 -90q-127 0 -207.5 90t-67.5 217t112.5 216.5t226.5 89.5q128 0 208.5 -89.5t67.5 -216.5z" />
    <glyph glyph-name="p" unicode="p" horiz-adv-x="714" 
d="M124 289q-13 -112 59 -192t185 -80t201 79.5t100 192.5t-59 193t-184 80t-201 -80t-101 -193zM42 -171l78 750h34l-15 -149q45 75 123.5 120.5t166.5 45.5q127 0 207.5 -90t67.5 -217t-112.5 -216.5t-226.5 -89.5q-88 0 -157 45.5t-99 120.5l-33 -320h-34z" />
    <glyph glyph-name="q" unicode="q" horiz-adv-x="714" 
d="M650 289q11 113 -60 193t-184 80t-201 -80t-100 -193t59 -192.5t184 -79.5t201.5 79.5t100.5 192.5zM714 579l-78 -750h-34l33 320q-45 -75 -123.5 -120.5t-166.5 -45.5q-127 0 -207.5 89.5t-67.5 216.5t112.5 217t226.5 90q88 0 157 -45.5t99 -120.5l15 149h34z" />
    <glyph glyph-name="r" unicode="r" horiz-adv-x="297" 
d="M94 0h-34l60 579h34l-8 -80q33 45 83 71t106 26h9l-3 -34h-9q-74 0 -132.5 -52.5t-65.5 -126.5z" />
    <glyph glyph-name="s" unicode="s" horiz-adv-x="532" 
d="M89 150q-6 -59 46 -96t132 -37q88 0 143 34.5t62 98.5q5 47 -13.5 76.5t-52.5 41.5t-75.5 18t-83 13t-75.5 21t-52 46.5t-13 83.5q7 69 67 107.5t154 38.5q88 0 142.5 -40.5t47.5 -108.5h-34q5 51 -41 83t-118 32q-79 0 -128.5 -29.5t-54.5 -83.5q-5 -43 14.5 -69
t53 -36.5t75.5 -16t83.5 -13.5t75 -23.5t51.5 -51t12 -91.5q-8 -77 -73 -121t-170 -44q-95 0 -155.5 46t-53.5 120l1 5h34z" />
    <glyph glyph-name="t" unicode="t" horiz-adv-x="296" 
d="M179 545l-44 -414q-5 -48 18.5 -72.5t68.5 -24.5h57l-3 -34h-57q-58 0 -91 33t-27 97l44 415h-68l3 34h68l14 131h34l-14 -131h154l-3 -34h-154z" />
    <glyph glyph-name="u" unicode="u" horiz-adv-x="614" 
d="M120 579h34l-37 -358q-9 -84 44 -144t138 -60q92 0 164 65t82 157l35 340h34l-60 -579h-34l12 119q-38 -62 -100 -99t-136 -37q-99 0 -161.5 70t-51.5 168z" />
    <glyph glyph-name="v" unicode="v" horiz-adv-x="582" 
d="M274 0l-199 579h38l182 -533l294 533h38l-318 -579h-35z" />
    <glyph glyph-name="w" unicode="w" horiz-adv-x="833" 
d="M878 579l-253 -579h-34l-120 523l-229 -523h-33l-134 579h36l120 -523l229 523h34l119 -523l229 523h36z" />
    <glyph glyph-name="x" unicode="x" horiz-adv-x="535" 
d="M319 290l201 -290h-44l-182 262l-235 -262h-44l260 290l-200 289h44l181 -262l236 262h44z" />
    <glyph glyph-name="y" unicode="y" horiz-adv-x="582" 
d="M272 4l-197 575h38l181 -533l295 533h38l-414 -750h-37z" />
    <glyph glyph-name="z" unicode="z" horiz-adv-x="500" 
d="M68 34h415l-3 -34h-460l3 34l470 511h-416l3 34h460l-3 -34z" />
    <glyph glyph-name="braceleft" unicode="{" horiz-adv-x="314" 
d="M171 290q25 -16 38.5 -43t9.5 -59l-25 -238q-4 -37 18 -61.5t57 -24.5l-3 -35q-49 0 -80.5 35.5t-26.5 85.5l25 238q4 34 -18.5 59.5t-57.5 25.5l4 34q35 0 62.5 25t31.5 60l25 238q5 49 43.5 84.5t87.5 35.5l-3 -35q-35 0 -62 -24.5t-31 -60.5l-25 -238q-8 -68 -70 -102
z" />
    <glyph glyph-name="bar" unicode="|" horiz-adv-x="274" 
d="M154 -171h-34v921h34v-921z" />
    <glyph glyph-name="braceright" unicode="}" horiz-adv-x="314" 
d="M203 290q-25 15 -38.5 42.5t-9.5 59.5l25 238q4 36 -18 60.5t-57 24.5l3 35q49 0 80.5 -35.5t26.5 -84.5l-25 -238q-4 -35 18.5 -60t57.5 -25l-4 -34q-34 0 -62 -25t-32 -60l-25 -238q-5 -50 -43.5 -85.5t-87.5 -35.5l3 35q35 0 62 24.5t31 61.5l25 238q8 67 70 102z" />
    <glyph glyph-name="asciitilde" unicode="~" horiz-adv-x="447" 
d="M95 257h-35q0 39 27.5 66.5t66.5 27.5q58 0 84 -53q16 -36 55 -36q24 0 41.5 18t17.5 42h35q0 -39 -27.5 -66.5t-66.5 -27.5q-27 0 -50 14.5t-34 38.5q-17 36 -55 36q-25 0 -42 -17.5t-17 -42.5z" />
    <glyph glyph-name="uni00A0" unicode="&#xa0;" horiz-adv-x="500" 
 />
    <glyph glyph-name="exclamdown" unicode="&#xa1;" 
d="M125 579h24l-55 -579h-34zM125 730q2 11 10.5 19t20.5 8q11 0 18.5 -8t6.5 -19t-10.5 -19t-20.5 -8q-12 0 -19 8t-6 19z" />
    <glyph glyph-name="cent" unicode="&#xa2;" horiz-adv-x="672" 
d="M354 -85h-34l7 69q-120 7 -195 95t-62 211q13 122 106 210.5t215 95.5l7 69h34l-7 -69q93 -5 162 -61.5t90 -142.5h-36q-24 76 -87.5 123.5t-148.5 47.5q-112 0 -200 -80t-100 -193t59 -193t183 -80q85 0 159 47.5t113 123.5h36q-39 -86 -119.5 -142.5t-174.5 -61.5z" />
    <glyph glyph-name="sterling" unicode="&#xa3;" horiz-adv-x="629" 
d="M645 536h-34q9 89 -38.5 143t-135.5 54t-148 -54t-69 -143l-15 -144h285l-4 -34h-285l-21 -205q-5 -30 -16 -56q46 16 92 5.5t77 -46.5q36 -39 89 -39q57 0 100 40t49 97h34q-8 -71 -62 -121t-124 -50q-65 0 -112 49q-35 41 -90 41t-99 -41l-56 -49l-22 24l56 49
q44 43 50 98l21 204h-90l4 34h90l15 144q11 103 81 167t173 64q102 0 159 -64t46 -167z" />
    <glyph glyph-name="currency" unicode="&#xa4;" horiz-adv-x="700" 
d="M77 290q0 104 68 180l-85 85l25 24l84 -84q78 68 181 68q104 0 181 -69l85 85l24 -24l-85 -85q68 -78 68 -180q0 -103 -68 -181l85 -85l-24 -24l-85 85q-76 -68 -181 -68t-181 68l-84 -85l-25 24l85 85q-68 76 -68 181zM112 290q0 -98 70 -168.5t168 -70.5t168 70.5
t70 168.5t-70 168.5t-168 70.5t-168 -70.5t-70 -168.5z" />
    <glyph glyph-name="yen" unicode="&#xa5;" horiz-adv-x="569" 
d="M591 750h41l-197 -256h127l-3 -34h-150l-65 -85h206l-4 -34l-210 -1l-35 -340h-34l35 340l-209 1l4 34h206l-48 85h-149l3 34h127l-143 256h41l192 -345z" />
    <glyph glyph-name="brokenbar" unicode="&#xa6;" horiz-adv-x="155" 
d="M95 341h-35v290h35v-290zM95 -50h-35v289h35v-289z" />
    <glyph glyph-name="section" unicode="&#xa7;" horiz-adv-x="492" 
d="M504 596h-34q7 64 -32.5 100.5t-114.5 36.5t-122 -36.5t-54 -100.5q-7 -63 35.5 -99.5t111.5 -36.5q86 0 136 -46.5t42 -123.5q-11 -109 -127 -154q106 -47 95 -153q-8 -78 -66.5 -124.5t-147.5 -46.5t-137.5 46.5t-40.5 124.5h33q-7 -64 33 -100.5t115 -36.5t122 36.5
t54 100.5q7 62 -35.5 99t-111.5 37q-87 0 -136.5 47t-41.5 124q11 107 126 154q-105 46 -94 152q8 78 66.5 124.5t147.5 46.5t137.5 -46.5t40.5 -124.5zM290 426q-69 0 -118.5 -37t-56.5 -99q-7 -64 34 -100.5t113 -36.5q69 0 118.5 37t56.5 100t-34 99.5t-113 36.5z" />
    <glyph glyph-name="dieresis" unicode="&#xa8;" horiz-adv-x="275" 
d="M141 743q-2 -10 -9.5 -17t-17.5 -7t-16 7t-5 17t8.5 17t17.5 7t16.5 -7t5.5 -17zM338 743q-2 -10 -9 -17t-17 -7t-16 7t-5 17t8.5 17t17.5 7t16 -7t5 -17z" />
    <glyph glyph-name="copyright" unicode="&#xa9;" horiz-adv-x="693" 
d="M176 290q0 -71 50 -121.5t120 -50.5q67 0 121 51l25 -25q-60 -60 -146 -60q-85 0 -145 60t-60 146q0 85 60 145t145 60q86 0 146 -60l-25 -25q-54 51 -121 51q-70 0 -120 -50.5t-50 -120.5zM623 290q0 116 -80.5 196.5t-196.5 80.5q-114 0 -195 -81t-81 -196t81 -196.5
t195 -81.5q115 0 196 81t81 197zM653 290q0 -128 -89.5 -217.5t-217.5 -89.5q-127 0 -216.5 90t-89.5 217t89.5 216.5t216.5 89.5t217 -89.5t90 -216.5z" />
    <glyph glyph-name="ordfeminine" unicode="&#xaa;" horiz-adv-x="346" 
d="M345 469h-17l6 62q-19 -31 -55 -51t-74 -20q-57 0 -84.5 26t-22.5 68q9 93 117 93h132l2 23q4 42 -22 61t-72 19q-101 0 -109 -72h-17q5 46 40.5 67.5t87.5 21.5q53 0 83.5 -23.5t25.5 -73.5zM340 587l5 43h-132q-90 0 -97 -76q-4 -35 19 -56t72 -21t89 32t44 78z" />
    <glyph glyph-name="guillemotleft" unicode="&#xab;" horiz-adv-x="356" 
d="M176 290l188 170l-5 -48l-135 -122l109 -123l-5 -48zM259 460l-5 -48l-136 -122l110 -123l-5 -48l-153 171z" />
    <glyph glyph-name="logicalnot" unicode="&#xac;" horiz-adv-x="444" 
d="M384 204h-34v69h-290v34h324v-103z" />
    <glyph glyph-name="registered" unicode="&#xae;" horiz-adv-x="319" 
d="M279 648q0 -49 -35 -84.5t-84 -35.5q-50 0 -85 35t-35 85q0 49 35.5 84t84.5 35t84 -35t35 -84zM265 648q0 44 -30.5 74.5t-74.5 30.5t-75 -30.5t-31 -74.5t31 -75t75 -31t74.5 31t30.5 75zM224 678q0 -35 -33 -47l30 -59l-15 -1l-29 58h-58v-57h-14v154h69
q21 0 35.5 -14t14.5 -34zM209 678q0 14 -10 24.5t-25 10.5h-55v-71h55q15 0 25 10t10 26z" />
    <glyph glyph-name="macron" unicode="&#xaf;" horiz-adv-x="307" 
d="M325 750l-3 -34h-187l3 34h187z" />
    <glyph glyph-name="degree" unicode="&#xb0;" horiz-adv-x="304" 
d="M220 665q0 28 -20 48t-48 20t-48 -20t-20 -48t20 -48t48 -20t48 19.5t20 48.5zM254 665q0 -42 -30 -72t-72 -30t-72 30t-30 72t30 72t72 30t72 -30t30 -72z" />
    <glyph glyph-name="plusminus" unicode="&#xb1;" horiz-adv-x="680" 
d="M323 358h-273v34h273v187h34v-187h273v-34h-273v-187h-34v187zM50 34h580v-34h-580v34z" />
    <glyph glyph-name="twosuperior" unicode="&#xb2;" horiz-adv-x="325" 
d="M296 539l-172 -147h190l-2 -17h-217l2 17l189 161q44 37 48 84q5 46 -21.5 75t-72.5 29q-47 0 -79.5 -29t-37.5 -75l-1 -16h-17l1 16q6 53 44.5 87t91.5 34t84 -34t25 -87q-6 -56 -55 -98z" />
    <glyph glyph-name="threesuperior" unicode="&#xb3;" horiz-adv-x="335" 
d="M352 661q-6 -62 -76 -89q76 -25 68 -98q-5 -52 -41.5 -79.5t-96.5 -27.5t-91 27.5t-26 79.5h17q-4 -45 22.5 -67.5t79.5 -22.5q110 0 119 90q4 42 -24 65.5t-76 23.5h-22l1 17h22q42 0 72 21t34 60q4 41 -19 61t-70 20q-97 0 -106 -81h-18q5 48 38 73t88 25q54 0 82 -25
t23 -73z" />
    <glyph glyph-name="acute" unicode="&#xb4;" horiz-adv-x="351" 
d="M341 767l-4 -37l-175 -42l2 20z" />
    <glyph glyph-name="mu" unicode="&#xb5;" horiz-adv-x="614" 
d="M42 -171l78 750h34l-37 -358q-9 -84 44 -144t138 -60q92 0 164 65t82 157l35 340h34l-60 -579h-34l11 112q-41 -59 -103 -94t-132 -35q-64 0 -115 31t-77 84l-28 -269h-34z" />
    <glyph glyph-name="paragraph" unicode="&#xb6;" horiz-adv-x="562" 
d="M84 563q7 77 68 132t138 55h290l-78 -750h-34l75 716h-137l-75 -716h-34l39 375h-85q-77 0 -126 55t-41 133zM119 563q-7 -64 32.5 -109t102.5 -45h85l33 307h-85q-63 0 -112 -45t-56 -108z" />
    <glyph glyph-name="periodcentered" unicode="&#xb7;" horiz-adv-x="181" 
d="M93 258q-13 0 -21 9.5t-7 22.5q2 12 11.5 21t22.5 9t21 -9t6 -21q-2 -14 -11 -23t-22 -9z" />
    <glyph glyph-name="cedilla" unicode="&#xb8;" horiz-adv-x="361" 
d="M98 -99l30 99h17l-22 -72q17 19 48.5 21t55.5 -18t20 -58q-4 -34 -30 -55.5t-60 -21.5q-33 0 -53.5 22t-17.5 55h16q-2 -26 14 -43.5t43 -17.5t48 18t23 43q3 25 -14.5 42.5t-44.5 17.5q-39 0 -58 -34z" />
    <glyph glyph-name="onesuperior" unicode="&#xb9;" horiz-adv-x="185" 
d="M184 730l-61 -32l2 18l61 34h17l-39 -375h-17z" />
    <glyph glyph-name="ordmasculine" unicode="&#xba;" horiz-adv-x="387" 
d="M393 614q6 56 -29.5 96t-92.5 40q-56 0 -99.5 -40t-49.5 -96q-6 -57 29.5 -97t91.5 -40q57 0 100.5 40t49.5 97zM411 614q-7 -64 -56.5 -109t-113.5 -45q-63 0 -103.5 45t-33.5 109q7 63 56.5 108t112.5 45q64 0 104.5 -45t33.5 -108z" />
    <glyph glyph-name="guillemotright" unicode="&#xbb;" horiz-adv-x="356" 
d="M88 460l152 -170l-188 -171l5 48l135 123l-109 122zM188 412l5 48l153 -170l-189 -171l5 48l136 123z" />
    <glyph glyph-name="onequarter" unicode="&#xbc;" horiz-adv-x="609" 
d="M326 94l2 17l221 264h17l-28 -264h62l-2 -17h-62l-9 -94h-17l9 94h-193zM546 347l-197 -236h172zM109 -11l401 778l14 -6l-400 -778zM184 730l-61 -32l2 18l61 34h17l-39 -375h-17z" />
    <glyph glyph-name="onehalf" unicode="&#xbd;" horiz-adv-x="659" 
d="M109 -11l401 778l14 -6l-400 -778zM591 164l-173 -147h190l-1 -17h-217l1 17l189 161q45 38 49 84q5 46 -21.5 75t-72.5 29q-47 0 -79.5 -29t-37.5 -75l-2 -16h-17l2 16q5 53 43.5 87t92.5 34q53 0 83.5 -34t25.5 -87q-6 -54 -55 -98zM184 730l-61 -32l2 18l61 34h17
l-39 -375h-17z" />
    <glyph glyph-name="threequarters" unicode="&#xbe;" horiz-adv-x="715" 
d="M432 94l2 17l221 264h17l-28 -264h62l-2 -17h-62l-9 -94h-17l9 94h-193zM652 347l-197 -236h172zM215 -11l401 778l14 -6l-400 -778zM352 661q-6 -62 -76 -89q76 -25 68 -98q-5 -52 -41.5 -79.5t-96.5 -27.5t-91 27.5t-26 79.5h17q-4 -45 22.5 -67.5t79.5 -22.5
q110 0 119 90q4 42 -24 65.5t-76 23.5h-22l1 17h22q42 0 72 21t34 60q4 41 -19 61t-70 20q-97 0 -106 -81h-18q5 48 38 73t88 25q54 0 82 -25t23 -73z" />
    <glyph glyph-name="questiondown" unicode="&#xbf;" horiz-adv-x="591" 
d="M361 459h-24q-90 -3 -159 -67t-79 -155q-9 -91 48.5 -155.5t149.5 -64.5q88 0 158 60.5t84 147.5h35q-15 -101 -96 -171.5t-184 -70.5q-106 0 -173.5 74.5t-56.5 179.5q11 102 87.5 175.5t178.5 80.5l9 80h34zM345 732q2 11 10.5 18.5t19.5 7.5t18.5 -7.5t5.5 -18.5
q-1 -12 -10 -20t-20 -8t-18 8t-6 20z" />
    <glyph glyph-name="Agrave" unicode="&#xc0;" horiz-adv-x="678" 
d="M340 822l4 38l165 -59l-3 -21zM166 221h393l-146 480zM663 0h-37l-58 187h-419l-96 -187h-38l385 750h35z" />
    <glyph glyph-name="Aacute" unicode="&#xc1;" horiz-adv-x="678" 
d="M515 860l-4 -38l-176 -42l3 21zM166 221h393l-146 480zM663 0h-37l-58 187h-419l-96 -187h-38l385 750h35z" />
    <glyph glyph-name="Acircumflex" unicode="&#xc2;" horiz-adv-x="678" 
d="M166 221h393l-146 480zM663 0h-37l-58 187h-419l-96 -187h-38l385 750h35zM430 865l-72 -75h-32l86 100h42l65 -100h-32z" />
    <glyph glyph-name="Atilde" unicode="&#xc3;" horiz-adv-x="678" 
d="M339 805h-27q3 27 24.5 46t46.5 19q39 0 55 -36q12 -25 34 -25q16 0 27 10.5t13 27.5h28q-3 -27 -24 -46t-47 -19q-18 0 -33.5 9.5t-22.5 26.5q-7 24 -33 24q-15 0 -27.5 -11t-13.5 -26zM166 221h393l-146 480zM663 0h-37l-58 187h-419l-96 -187h-38l385 750h35z" />
    <glyph glyph-name="Adieresis" unicode="&#xc4;" horiz-adv-x="678" 
d="M352 836q-1 -10 -8.5 -17t-17.5 -7t-16.5 7t-5.5 17t9 17t18 7q11 0 16.5 -7t4.5 -17zM550 836q-1 -10 -8 -17t-17 -7t-16.5 7t-5.5 17t9 17t18 7t15.5 -7t4.5 -17zM166 221h393l-146 480zM663 0h-37l-58 187h-419l-96 -187h-38l385 750h35z" />
    <glyph glyph-name="Aring" unicode="&#xc5;" horiz-adv-x="678" 
d="M166 221h393l-146 480zM663 0h-37l-58 187h-419l-96 -187h-38l385 750h35zM475 851q2 19 -9.5 32.5t-31.5 13.5q-19 0 -34 -13t-17 -33q-2 -19 9.5 -32.5t31.5 -13.5q19 0 34 13t17 33zM504 851q-3 -30 -27.5 -51.5t-55.5 -21.5t-50.5 21t-16.5 52q3 30 27.5 51.5
t55.5 21.5t50.5 -21t16.5 -52z" />
    <glyph glyph-name="AE" unicode="&#xc6;" horiz-adv-x="1144" 
d="M634 358l-34 -324h512l-3 -34h-546l19 188h-379l-159 -188h-44l641 750h546l-3 -34h-512l-34 -324h443l-4 -34h-443zM233 222h353l49 470z" />
    <glyph glyph-name="Ccedilla" unicode="&#xc7;" horiz-adv-x="839" 
d="M855 486h-37q-24 109 -110 178t-204 69q-148 0 -263.5 -105t-131.5 -253t77.5 -253t241.5 -105q118 0 219 69t147 178h37q-50 -123 -162 -202t-244 -79q-13 0 -37 2l-17 -57q17 19 48.5 21t55.5 -18t20 -58q-4 -34 -30 -55.5t-60 -21.5q-33 0 -53.5 22t-17.5 55h16
q-2 -26 14 -43.5t43 -17.5t48 18t23 43q3 25 -14.5 42.5t-44.5 17.5q-39 0 -58 -34l-15 2l25 86q-142 19 -227.5 129.5t-69.5 258.5q17 162 144 277t289 115q132 0 228 -79t120 -202z" />
    <glyph glyph-name="Egrave" unicode="&#xc8;" horiz-adv-x="641" 
d="M336 822l4 38l165 -59l-3 -21zM97 34h512l-3 -34h-546l78 750h546l-3 -34h-512l-34 -324h443l-4 -34h-443z" />
    <glyph glyph-name="Eacute" unicode="&#xc9;" horiz-adv-x="641" 
d="M511 860l-4 -38l-176 -42l3 21zM97 34h512l-3 -34h-546l78 750h546l-3 -34h-512l-34 -324h443l-4 -34h-443z" />
    <glyph glyph-name="Ecircumflex" unicode="&#xca;" horiz-adv-x="641" 
d="M97 34h512l-3 -34h-546l78 750h546l-3 -34h-512l-34 -324h443l-4 -34h-443zM423 865l-72 -75h-32l86 100h42l65 -100h-32z" />
    <glyph glyph-name="Edieresis" unicode="&#xcb;" horiz-adv-x="641" 
d="M97 34h512l-3 -34h-546l78 750h546l-3 -34h-512l-34 -324h443l-4 -34h-443zM333 836q-1 -10 -8.5 -17t-17.5 -7t-16.5 7t-5.5 17t9 17t18 7t16 -7t5 -17zM530 836q-1 -10 -8 -17t-17 -7t-16.5 7t-5.5 17t9 17t18 7q23 0 20 -24z" />
    <glyph glyph-name="Igrave" unicode="&#xcc;" 
d="M172 750l-78 -750h-34l78 750h34zM77 822l4 38l165 -59l-3 -21z" />
    <glyph glyph-name="Iacute" unicode="&#xcd;" 
d="M60 0l78 750h34l-78 -750h-34zM253 860l-4 -38l-176 -42l3 21z" />
    <glyph glyph-name="Icircumflex" unicode="&#xce;" 
d="M60 0l78 750h34l-78 -750h-34zM167 865l-72 -75h-32l86 100h42l65 -100h-32z" />
    <glyph glyph-name="Idieresis" unicode="&#xcf;" 
d="M60 0l78 750h34l-78 -750h-34zM89 836q-1 -10 -8.5 -17t-17.5 -7t-16.5 7t-5.5 17t9 17t18 7t16 -7t5 -17zM286 836q-1 -10 -8 -17t-17 -7t-16.5 7t-5.5 17t9 17t18 7q23 0 20 -24z" />
    <glyph glyph-name="Eth" unicode="&#xd0;" horiz-adv-x="745" 
d="M749 375q-17 -155 -138.5 -265t-275.5 -110h-256l37 359h-59l4 34h59l37 357h256q155 0 253.5 -110t82.5 -265zM714 375q15 141 -74 241t-230 100h-222l-34 -323h163l-4 -34h-163l-34 -325h222q141 0 251 100t125 241z" />
    <glyph glyph-name="Ntilde" unicode="&#xd1;" horiz-adv-x="700" 
d="M718 750l-78 -750h-34l-440 692l-72 -692h-34l78 750h34l440 -692l72 692h34zM349 795h-27q3 27 24.5 46t46.5 19q39 0 55 -36q12 -25 33 -25q16 0 27 10.5t13 27.5h28q-2 -27 -23 -46t-47 -19q-18 0 -33.5 9.5t-22.5 26.5q-7 24 -33 24q-15 0 -27.5 -11t-13.5 -26z" />
    <glyph glyph-name="Ograve" unicode="&#xd2;" horiz-adv-x="854" 
d="M428 822l4 38l165 -59l-3 -21zM823 375q16 148 -77.5 253t-241.5 105t-263.5 -105t-131.5 -253t77.5 -253t241.5 -105t263.5 105t131.5 253zM858 375q-17 -162 -144 -277t-289 -115q-163 0 -265.5 115t-85.5 277t143.5 277t289.5 115q162 0 265 -115t86 -277z" />
    <glyph glyph-name="Oacute" unicode="&#xd3;" horiz-adv-x="854" 
d="M602 860l-4 -38l-176 -42l3 21zM823 375q16 148 -77.5 253t-241.5 105t-263.5 -105t-131.5 -253t77.5 -253t241.5 -105t263.5 105t131.5 253zM858 375q-17 -162 -144 -277t-289 -115q-163 0 -265.5 115t-85.5 277t143.5 277t289.5 115q162 0 265 -115t86 -277z" />
    <glyph glyph-name="Ocircumflex" unicode="&#xd4;" horiz-adv-x="854" 
d="M823 375q16 148 -77.5 253t-241.5 105t-263.5 -105t-131.5 -253t77.5 -253t241.5 -105t263.5 105t131.5 253zM858 375q-17 -162 -144 -277t-289 -115q-163 0 -265.5 115t-85.5 277t143.5 277t289.5 115q162 0 265 -115t86 -277zM517 865l-72 -75h-32l86 100h42l65 -100
h-32z" />
    <glyph glyph-name="Otilde" unicode="&#xd5;" horiz-adv-x="854" 
d="M427 815h-27q3 27 24.5 46t46.5 19q40 0 55 -36q12 -25 34 -25q16 0 27 10.5t13 27.5h28q-3 -27 -24 -46t-47 -19q-42 0 -55 36q-9 24 -34 24q-15 0 -27.5 -11t-13.5 -26zM823 375q16 148 -77.5 253t-241.5 105t-263.5 -105t-131.5 -253t77.5 -253t241.5 -105t263.5 105
t131.5 253zM858 375q-17 -162 -144 -277t-289 -115q-163 0 -265.5 115t-85.5 277t143.5 277t289.5 115q162 0 265 -115t86 -277z" />
    <glyph glyph-name="Odieresis" unicode="&#xd6;" horiz-adv-x="854" 
d="M439 836q-1 -10 -8.5 -17t-17.5 -7t-16.5 7t-5.5 17q2 10 9.5 17t17.5 7t16 -7t5 -17zM636 836q-1 -10 -8 -17t-17 -7t-16.5 7t-5.5 17q2 10 9.5 17t17.5 7t16 -7t4 -17zM823 375q16 148 -77.5 253t-241.5 105t-263.5 -105t-131.5 -253t77.5 -253t241.5 -105t263.5 105
t131.5 253zM858 375q-17 -162 -144 -277t-289 -115q-163 0 -265.5 115t-85.5 277t143.5 277t289.5 115q162 0 265 -115t86 -277z" />
    <glyph glyph-name="multiply" unicode="&#xd7;" horiz-adv-x="660" 
d="M65 579l265 -265l266 265l24 -24l-266 -265l266 -266l-24 -24l-266 266l-265 -266l-25 24l266 266l-266 265z" />
    <glyph glyph-name="Oslash" unicode="&#xd8;" horiz-adv-x="863" 
d="M181 135l558 504q-94 94 -230 94q-148 0 -263.5 -105t-131.5 -253q-15 -141 67 -240zM760 615l-558 -504q94 -94 231 -94q148 0 263 104.5t131 253.5q15 141 -67 240zM883 726l-96 -87q92 -111 75 -264q-17 -162 -143.5 -277t-288.5 -115q-153 0 -254 104l-95 -87l-22 24
l95 87q-92 111 -75 264q17 162 143.5 277t289.5 115q150 0 253 -103l96 86z" />
    <glyph glyph-name="Ugrave" unicode="&#xd9;" horiz-adv-x="699" 
d="M88 273l50 477h34l-50 -477q-11 -106 55.5 -181t172.5 -75t189 75t94 181l50 477h34l-50 -477q-13 -120 -106.5 -205t-213.5 -85q-119 0 -195.5 85t-63.5 205zM350 822l4 38l165 -59l-3 -21z" />
    <glyph glyph-name="Uacute" unicode="&#xda;" horiz-adv-x="699" 
d="M717 750l-50 -477q-13 -120 -106.5 -205t-212.5 -85q-120 0 -196.5 85t-63.5 205l50 477h34l-50 -477q-11 -106 56 -181t173 -75t188.5 75t93.5 181l50 477h34zM525 860l-4 -38l-176 -42l3 21z" />
    <glyph glyph-name="Ucircumflex" unicode="&#xdb;" horiz-adv-x="699" 
d="M88 273l50 477h34l-50 -477q-11 -106 55.5 -181t172.5 -75t189 75t94 181l50 477h34l-50 -477q-13 -120 -106.5 -205t-213.5 -85q-119 0 -195.5 85t-63.5 205zM439 865l-72 -75h-32l86 100h42l65 -100h-32z" />
    <glyph glyph-name="Udieresis" unicode="&#xdc;" horiz-adv-x="699" 
d="M362 836q-1 -10 -8.5 -17t-17.5 -7t-16.5 7t-5.5 17t9 17t18 7t16 -7t5 -17zM559 836q-1 -10 -8 -17t-17 -7t-16.5 7t-5.5 17t9 17t18 7q23 0 20 -24zM717 750l-50 -477q-13 -120 -106.5 -205t-212.5 -85q-120 0 -196.5 85t-63.5 205l50 477h34l-50 -477
q-11 -106 56 -181t173 -75t188.5 75t93.5 181l50 477h34z" />
    <glyph glyph-name="Yacute" unicode="&#xdd;" horiz-adv-x="645" 
d="M498 860l-4 -38l-176 -42l3 21zM342 358l-249 392h44l226 -357l301 357h44l-332 -392l-37 -358h-34z" />
    <glyph glyph-name="Thorn" unicode="&#xde;" horiz-adv-x="650" 
d="M662 457q-9 -83 -74.5 -142t-148.5 -59h-319l-26 -256h-34l78 750h34l-10 -94h319q83 0 136 -58.5t45 -140.5zM627 457q7 69 -36.5 117t-112.5 48h-319l-35 -332h319q70 0 123 48.5t61 118.5z" />
    <glyph glyph-name="germandbls" unicode="&#xdf;" horiz-adv-x="536" 
d="M518 213q-10 -88 -79 -150.5t-156 -62.5h-137l3 34h137q73 0 131 52.5t66 126.5t-39 126.5t-120 52.5h-137l3 34h102q64 0 113 44.5t56 108.5t-32.5 109t-103.5 45q-63 0 -113.5 -45t-57.5 -109l-60 -579h-34l60 579q8 78 69.5 133t138.5 55t126.5 -55t41.5 -133
q-5 -51 -35 -94t-75 -68q65 -19 102 -75.5t30 -128.5z" />
    <glyph glyph-name="agrave" unicode="&#xe0;" horiz-adv-x="606" 
d="M298 730l4 37l165 -59l-2 -20zM546 0h-34l13 125q-37 -63 -109.5 -102.5t-149.5 -39.5q-113 0 -168 51.5t-46 135.5q20 186 233 186h264l5 46q8 85 -43 122.5t-144 37.5q-205 0 -220 -144h-34q10 93 81.5 135.5t175.5 42.5q51 0 92 -11t71.5 -33t45 -60.5t9.5 -89.5z
M536 237l9 85h-264q-96 0 -141 -39.5t-53 -112.5q-7 -70 39 -111.5t143 -41.5t177 63.5t90 156.5z" />
    <glyph glyph-name="aacute" unicode="&#xe1;" horiz-adv-x="606" 
d="M473 767l-4 -37l-175 -42l2 20zM546 0h-34l13 125q-37 -63 -109.5 -102.5t-149.5 -39.5q-113 0 -168 51.5t-46 135.5q20 186 233 186h264l5 46q8 85 -43 122.5t-144 37.5q-205 0 -220 -144h-34q10 93 81.5 135.5t175.5 42.5q51 0 92 -11t71.5 -33t45 -60.5t9.5 -89.5z
M536 237l9 85h-264q-96 0 -141 -39.5t-53 -112.5q-7 -70 39 -111.5t143 -41.5t177 63.5t90 156.5z" />
    <glyph glyph-name="acircumflex" unicode="&#xe2;" horiz-adv-x="606" 
d="M546 0h-34l13 125q-37 -63 -109.5 -102.5t-149.5 -39.5q-113 0 -168 51.5t-46 135.5q20 186 233 186h264l5 46q8 85 -43 122.5t-144 37.5q-205 0 -220 -144h-34q10 93 81.5 135.5t175.5 42.5q51 0 92 -11t71.5 -33t45 -60.5t9.5 -89.5zM536 237l9 85h-264
q-96 0 -141 -39.5t-53 -112.5q-7 -70 39 -111.5t143 -41.5t177 63.5t90 156.5zM387 755l-73 -75h-32l86 100h42l65 -100h-32z" />
    <glyph glyph-name="atilde" unicode="&#xe3;" horiz-adv-x="606" 
d="M296 702h-27q3 27 24.5 46t46.5 19q40 0 55 -36q12 -25 34 -25q16 0 27 10.5t13 27.5h28q-3 -27 -24 -46t-47 -19q-42 0 -55 36q-9 24 -34 24q-15 0 -27.5 -11t-13.5 -26zM546 0h-34l13 125q-37 -63 -109.5 -102.5t-149.5 -39.5q-113 0 -168 51.5t-46 135.5
q20 186 233 186h264l5 46q8 85 -43 122.5t-144 37.5q-205 0 -220 -144h-34q10 93 81.5 135.5t175.5 42.5q51 0 92 -11t71.5 -33t45 -60.5t9.5 -89.5zM536 237l9 85h-264q-96 0 -141 -39.5t-53 -112.5q-7 -70 39 -111.5t143 -41.5t177 63.5t90 156.5z" />
    <glyph glyph-name="adieresis" unicode="&#xe4;" horiz-adv-x="606" 
d="M311 743q-2 -10 -9.5 -17t-17.5 -7t-16 7t-5 17t8.5 17t17.5 7t16.5 -7t5.5 -17zM508 743q-2 -10 -9 -17t-17 -7t-16 7t-5 17t8.5 17t17.5 7t16 -7t5 -17zM546 0h-34l13 125q-37 -63 -109.5 -102.5t-149.5 -39.5q-113 0 -168 51.5t-46 135.5q20 186 233 186h264l5 46
q8 85 -43 122.5t-144 37.5q-205 0 -220 -144h-34q10 93 81.5 135.5t175.5 42.5q51 0 92 -11t71.5 -33t45 -60.5t9.5 -89.5zM536 237l9 85h-264q-96 0 -141 -39.5t-53 -112.5q-7 -70 39 -111.5t143 -41.5t177 63.5t90 156.5z" />
    <glyph glyph-name="aring" unicode="&#xe5;" horiz-adv-x="606" 
d="M430 727q2 19 -9.5 32.5t-31.5 13.5q-19 0 -34 -13t-17 -33q-2 -19 9.5 -32.5t31.5 -13.5q19 0 34 13t17 33zM459 727q-3 -30 -27.5 -51.5t-55.5 -21.5t-50.5 21t-16.5 52q3 30 27.5 51.5t55.5 21.5t50.5 -21t16.5 -52zM546 0h-34l13 125q-37 -63 -109.5 -102.5
t-149.5 -39.5q-113 0 -168 51.5t-46 135.5q20 186 233 186h264l5 46q8 85 -43 122.5t-144 37.5q-205 0 -220 -144h-34q10 93 81.5 135.5t175.5 42.5q51 0 92 -11t71.5 -33t45 -60.5t9.5 -89.5zM536 237l9 85h-264q-96 0 -141 -39.5t-53 -112.5q-7 -70 39 -111.5t143 -41.5
t177 63.5t90 156.5z" />
    <glyph glyph-name="ae" unicode="&#xe6;" horiz-adv-x="1163" 
d="M546 0h-34l13 125q-37 -63 -109.5 -102.5t-149.5 -39.5q-111 0 -168 41t-48 121q8 82 64 122t166 40h264l10 95q8 85 -43 122.5t-144 37.5q-205 0 -220 -144h-34q10 93 81.5 135.5t175.5 42.5q99 0 159 -41t59 -128q47 77 125.5 123.5t166.5 46.5q127 0 207 -90t66 -217
l-2 -17h-577q-5 -107 66 -181.5t179 -74.5q78 0 146.5 40.5t110.5 107.5h37q-44 -82 -124.5 -132t-172.5 -50q-88 0 -156 45t-99 121zM578 307h542q4 108 -65.5 182t-177.5 74t-194.5 -74.5t-104.5 -181.5zM536 237l4 36h-264q-94 0 -139 -30t-52 -98q-7 -66 40.5 -97
t143.5 -31q97 0 177 63.5t90 156.5z" />
    <glyph glyph-name="ccedilla" unicode="&#xe7;" horiz-adv-x="672" 
d="M677 392h-36q-24 76 -87.5 123.5t-148.5 47.5q-112 0 -200 -80t-100 -193t59 -193t183 -80q85 0 159 47.5t113 123.5h36q-41 -91 -126.5 -148t-184.5 -57q-19 0 -37 3l-17 -58q17 19 48.5 21t55.5 -18t20 -58q-4 -34 -30 -55.5t-60 -21.5q-33 0 -53.5 22t-17.5 55h16
q-2 -26 14 -43.5t43 -17.5t48 18t23 43q3 25 -14.5 42.5t-44.5 17.5q-39 0 -58 -34l-15 2l25 87q-106 19 -169 104.5t-51 197.5q14 127 112.5 217t225.5 90q99 0 172.5 -57t96.5 -148z" />
    <glyph glyph-name="egrave" unicode="&#xe8;" horiz-adv-x="692" 
d="M337 730l4 37l165 -59l-2 -20zM682 290l-2 -17h-577q-5 -107 66 -181.5t179 -74.5q78 0 146.5 40.5t110.5 107.5h37q-44 -82 -124.5 -132t-172.5 -50q-127 0 -207.5 90t-67.5 217q14 127 113 217t226 90t207 -90t66 -217zM107 307h542q4 108 -65.5 182t-177.5 74
t-194.5 -74.5t-104.5 -181.5z" />
    <glyph glyph-name="eacute" unicode="&#xe9;" horiz-adv-x="692" 
d="M512 767l-4 -37l-175 -42l2 20zM682 290l-2 -17h-577q-5 -107 66 -181.5t179 -74.5q78 0 146.5 40.5t110.5 107.5h37q-44 -82 -124.5 -132t-172.5 -50q-127 0 -207.5 90t-67.5 217q14 127 113 217t226 90t207 -90t66 -217zM107 307h542q4 108 -65.5 182t-177.5 74
t-194.5 -74.5t-104.5 -181.5z" />
    <glyph glyph-name="ecircumflex" unicode="&#xea;" horiz-adv-x="692" 
d="M682 290l-2 -17h-577q-5 -107 66 -181.5t179 -74.5q78 0 146.5 40.5t110.5 107.5h37q-44 -82 -124.5 -132t-172.5 -50q-127 0 -207.5 90t-67.5 217q14 127 113 217t226 90t207 -90t66 -217zM107 307h542q4 108 -65.5 182t-177.5 74t-194.5 -74.5t-104.5 -181.5zM427 755
l-73 -75h-32l86 100h42l65 -100h-32z" />
    <glyph glyph-name="edieresis" unicode="&#xeb;" horiz-adv-x="692" 
d="M350 743q-2 -10 -9.5 -17t-17.5 -7t-16 7t-5 17t8.5 17t17.5 7t16.5 -7t5.5 -17zM547 743q-2 -10 -9 -17t-17 -7t-16 7t-5 17t8.5 17t17.5 7t16 -7t5 -17zM682 290l-2 -17h-577q-5 -107 66 -181.5t179 -74.5q78 0 146.5 40.5t110.5 107.5h37q-44 -82 -124.5 -132
t-172.5 -50q-127 0 -207.5 90t-67.5 217q14 127 113 217t226 90t207 -90t66 -217zM107 307h542q4 108 -65.5 182t-177.5 74t-194.5 -74.5t-104.5 -181.5z" />
    <glyph glyph-name="igrave" unicode="&#xec;" 
d="M120 579h34l-60 -579h-34zM68 730l4 37l165 -59l-2 -20z" />
    <glyph glyph-name="iacute" unicode="&#xed;" 
d="M120 579h34l-60 -579h-34zM243 767l-4 -37l-175 -42l2 20z" />
    <glyph glyph-name="icircumflex" unicode="&#xee;" 
d="M120 579h34l-60 -579h-34zM156 755l-73 -75h-32l86 100h42l65 -100h-32z" />
    <glyph glyph-name="idieresis" unicode="&#xef;" 
d="M120 579h34l-60 -579h-34zM80 743q-2 -10 -9.5 -17t-17.5 -7t-16 7t-5 17t8.5 17t17.5 7t16.5 -7t5.5 -17zM277 743q-2 -10 -9 -17t-17 -7t-16 7t-5 17t8.5 17t17.5 7t16 -7t5 -17z" />
    <glyph glyph-name="eth" unicode="&#xf0;" horiz-adv-x="676" 
d="M345 598l-21 24l62 56l-65 72h48l43 -49l64 58l22 -24l-64 -58l164 -186q80 -90 67 -210q-13 -124 -109 -211t-220 -87t-202 87t-65 211q12 116 107 198.5t217 82.5q65 0 125 -35l1 3l-112 124zM630 281q11 102 -58 174.5t-179 72.5q-109 0 -193.5 -73t-95.5 -174
q-11 -110 57.5 -187t177.5 -77q110 0 195 77t96 187z" />
    <glyph glyph-name="ntilde" unicode="&#xf1;" horiz-adv-x="614" 
d="M304 702h-27q3 27 24.5 46t46.5 19q40 0 55 -36q12 -25 34 -25q16 0 27 10.5t13 27.5h28q-3 -27 -24 -46t-47 -19q-42 0 -55 36q-9 24 -34 24q-15 0 -27.5 -11t-13.5 -26zM554 0h-34l37 358q9 83 -45 143.5t-138 60.5q-91 0 -163 -65t-82 -157l-35 -340h-34l60 579h34
l-12 -113q39 59 101.5 94.5t133.5 35.5q100 0 162 -69t52 -169z" />
    <glyph glyph-name="ograve" unicode="&#xf2;" horiz-adv-x="695" 
d="M338 730l4 37l165 -59l-2 -20zM650 290q12 113 -59.5 192.5t-184.5 79.5q-112 0 -200.5 -79.5t-100.5 -192.5t59 -193t184 -80t201.5 80t100.5 193zM685 290q-13 -127 -112.5 -217t-227.5 -90q-127 0 -207.5 90t-67.5 217t112.5 216.5t226.5 89.5q128 0 208.5 -89.5
t67.5 -216.5z" />
    <glyph glyph-name="oacute" unicode="&#xf3;" horiz-adv-x="695" 
d="M513 767l-4 -37l-175 -42l2 20zM650 290q12 113 -59.5 192.5t-184.5 79.5q-112 0 -200.5 -79.5t-100.5 -192.5t59 -193t184 -80t201.5 80t100.5 193zM685 290q-13 -127 -112.5 -217t-227.5 -90q-127 0 -207.5 90t-67.5 217t112.5 216.5t226.5 89.5q128 0 208.5 -89.5
t67.5 -216.5z" />
    <glyph glyph-name="ocircumflex" unicode="&#xf4;" horiz-adv-x="695" 
d="M650 290q12 113 -59.5 192.5t-184.5 79.5q-112 0 -200.5 -79.5t-100.5 -192.5t59 -193t184 -80t201.5 80t100.5 193zM685 290q-13 -127 -112.5 -217t-227.5 -90q-127 0 -207.5 90t-67.5 217t112.5 216.5t226.5 89.5q128 0 208.5 -89.5t67.5 -216.5zM426 755l-73 -75h-32
l86 100h42l65 -100h-32z" />
    <glyph glyph-name="otilde" unicode="&#xf5;" horiz-adv-x="695" 
d="M650 290q12 113 -59.5 193t-184.5 80q-112 0 -200.5 -80t-100.5 -193t59 -193t184 -80t201.5 80t100.5 193zM685 290q-13 -127 -112.5 -217t-227.5 -90q-127 0 -207.5 90t-67.5 217t112.5 216.5t226.5 89.5q128 0 208.5 -89.5t67.5 -216.5zM335 702h-27q3 27 24.5 46
t46.5 19q40 0 55 -36q12 -25 34 -25q16 0 27 10.5t13 27.5h28q-3 -27 -24 -46t-47 -19q-42 0 -55 36q-9 24 -34 24q-15 0 -27.5 -11t-13.5 -26z" />
    <glyph glyph-name="odieresis" unicode="&#xf6;" horiz-adv-x="695" 
d="M350 743q-2 -10 -9.5 -17t-17.5 -7t-16 7t-5 17t8.5 17t17.5 7t16.5 -7t5.5 -17zM547 743q-2 -10 -9 -17t-17 -7t-16 7t-5 17t8.5 17t17.5 7t16 -7t5 -17zM650 290q12 113 -59.5 192.5t-184.5 79.5q-112 0 -200.5 -79.5t-100.5 -192.5t59 -193t184 -80t201.5 80
t100.5 193zM685 290q-13 -127 -112.5 -217t-227.5 -90q-127 0 -207.5 90t-67.5 217t112.5 216.5t226.5 89.5q128 0 208.5 -89.5t67.5 -216.5z" />
    <glyph glyph-name="divide" unicode="&#xf7;" horiz-adv-x="679" 
d="M367 20q0 -12 -8 -20t-19 -8t-19 8t-8 20q0 11 8 18.5t19 7.5t19 -7.5t8 -18.5zM313 559q0 12 8 20t19 8t19 -8t8 -20q0 -11 -8 -19t-19 -8t-19 8t-8 19zM50 307h579v-34h-579v34z" />
    <glyph glyph-name="oslash" unicode="&#xf8;" horiz-adv-x="701" 
d="M157 109l424 385q-70 68 -172 68q-112 0 -200 -79.5t-100 -192.5q-11 -105 48 -181zM604 470l-426 -385q71 -68 173 -68q113 0 201 80t100 193q11 106 -48 180zM711 567l-81 -73q69 -85 57 -204q-14 -128 -113 -217.5t-226 -89.5q-118 0 -196 78l-74 -67l-23 24l75 67
q-68 87 -56 205q14 127 112.5 216.5t225.5 89.5q116 0 197 -78l81 73z" />
    <glyph glyph-name="ugrave" unicode="&#xf9;" horiz-adv-x="614" 
d="M297 730l4 37l165 -59l-2 -20zM120 579h34l-37 -358q-9 -84 44 -144t138 -60q92 0 164 65t82 157l35 340h34l-60 -579h-34l12 119q-38 -62 -100 -99t-136 -37q-99 0 -161.5 70t-51.5 168z" />
    <glyph glyph-name="uacute" unicode="&#xfa;" horiz-adv-x="614" 
d="M472 767l-4 -37l-175 -42l2 20zM120 579h34l-37 -358q-9 -84 44 -144t138 -60q92 0 164 65t82 157l35 340h34l-60 -579h-34l12 119q-38 -62 -100 -99t-136 -37q-99 0 -161.5 70t-51.5 168z" />
    <glyph glyph-name="ucircumflex" unicode="&#xfb;" horiz-adv-x="614" 
d="M120 579h34l-37 -358q-9 -84 44 -144t138 -60q92 0 164 65t82 157l35 340h34l-60 -579h-34l12 119q-38 -62 -100 -99t-136 -37q-99 0 -161.5 70t-51.5 168zM385 755l-73 -75h-32l86 100h42l65 -100h-32z" />
    <glyph glyph-name="udieresis" unicode="&#xfc;" horiz-adv-x="614" 
d="M309 743q-2 -10 -9.5 -17t-17.5 -7t-16 7t-5 17t8.5 17t17.5 7t16.5 -7t5.5 -17zM506 743q-2 -10 -9 -17t-17 -7t-16 7t-5 17t8.5 17t17.5 7t16 -7t5 -17zM120 579h34l-37 -358q-9 -84 44 -144t138 -60q92 0 164 65t82 157l35 340h34l-60 -579h-34l12 119
q-38 -62 -100 -99t-136 -37q-99 0 -161.5 70t-51.5 168z" />
    <glyph glyph-name="yacute" unicode="&#xfd;" horiz-adv-x="582" 
d="M272 4l-197 575h37l182 -533l295 533h38l-414 -750h-37zM456 767l-4 -37l-175 -42l2 20z" />
    <glyph glyph-name="thorn" unicode="&#xfe;" horiz-adv-x="714" 
d="M125 290q-12 -113 59 -193t184 -80t201 80t100 193t-59 192.5t-184 79.5t-201 -79.5t-100 -192.5zM42 -171l96 921h34l-33 -320q45 75 123.5 120.5t166.5 45.5q127 0 207.5 -89.5t67.5 -216.5t-112.5 -217t-226.5 -90q-88 0 -157 45.5t-99 120.5l-33 -320h-34z" />
    <glyph glyph-name="ydieresis" unicode="&#xff;" horiz-adv-x="582" 
d="M272 4l-197 575h37l182 -533l295 533h38l-414 -750h-37zM293 743q-2 -10 -9.5 -17t-17.5 -7t-16 7t-5 17t8.5 17t17.5 7t16.5 -7t5.5 -17zM490 743q-2 -10 -9 -17t-17 -7t-16 7t-5 17t8.5 17t17.5 7t16 -7t5 -17z" />
    <glyph glyph-name="Amacron" unicode="&#x100;" horiz-adv-x="678" 
d="M166 221h393l-146 480zM663 0h-37l-58 187h-419l-96 -187h-38l385 750h35zM519 836l-3 -34h-187l3 34h187z" />
    <glyph glyph-name="amacron" unicode="&#x101;" horiz-adv-x="606" 
d="M479 750l-3 -34h-187l3 34h187zM546 0h-34l13 125q-37 -63 -109.5 -102.5t-149.5 -39.5q-113 0 -168 51.5t-46 135.5q20 186 233 186h264l5 46q8 85 -43 122.5t-144 37.5q-205 0 -220 -144h-34q10 93 81.5 135.5t175.5 42.5q51 0 92 -11t71.5 -33t45 -60.5t9.5 -89.5z
M536 237l9 85h-264q-96 0 -141 -39.5t-53 -112.5q-7 -70 39 -111.5t143 -41.5t177 63.5t90 156.5z" />
    <glyph glyph-name="Aogonek" unicode="&#x104;" horiz-adv-x="678" 
d="M663 0h-37q-33 0 -59 -23.5t-30 -56.5t17.5 -56.5t54.5 -23.5q12 0 27 5l-2 -25q-21 -8 -40 -8q-43 0 -70 30t-22 73t37.5 73t75.5 30h4l-51 169h-419l-96 -187h-38l385 750h35zM166 221h393l-146 480z" />
    <glyph glyph-name="aogonek" unicode="&#x105;" horiz-adv-x="606" 
d="M435 -80q-4 -33 17.5 -56.5t54.5 -23.5q11 0 22 3l-3 -25q-17 -6 -34 -6q-43 0 -70 30t-22 73t37.5 73t75.5 30l12 107q-37 -63 -109.5 -102.5t-149.5 -39.5q-113 0 -168 51.5t-46 135.5q20 186 233 186h264l5 46q8 85 -43 122.5t-144 37.5q-205 0 -220 -144h-34
q10 93 81.5 135.5t175.5 42.5q51 0 92 -11t71.5 -33t45 -60.5t9.5 -89.5l-42 -402h-26q-32 -1 -56.5 -24.5t-28.5 -55.5zM536 237l9 85h-264q-96 0 -141 -39.5t-53 -112.5q-7 -70 39 -111.5t143 -41.5t177 63.5t90 156.5z" />
    <glyph glyph-name="Cacute" unicode="&#x106;" horiz-adv-x="839" 
d="M855 486h-37q-24 109 -110 178t-204 69q-148 0 -263.5 -105t-131.5 -253t77.5 -253t241.5 -105q118 0 219 69t147 178h37q-50 -123 -162 -202t-244 -79q-162 0 -265 115t-86 277t144 277t289 115q132 0 228 -79t120 -202zM602 860l-4 -38l-176 -42l3 21z" />
    <glyph glyph-name="cacute" unicode="&#x107;" horiz-adv-x="672" 
d="M677 392h-36q-24 76 -87.5 123.5t-148.5 47.5q-112 0 -200 -80t-100 -193t59 -193t183 -80q85 0 159 47.5t113 123.5h36q-41 -91 -126.5 -148t-184.5 -57q-127 0 -207.5 90t-66.5 217t112.5 217t225.5 90q99 0 172.5 -57t96.5 -148zM512 767l-4 -37l-175 -42l2 20z" />
    <glyph glyph-name="Ccaron" unicode="&#x10c;" horiz-adv-x="839" 
d="M855 486h-37q-24 109 -110 178t-204 69q-148 0 -263.5 -105t-131.5 -253t77.5 -253t241.5 -105q118 0 219 69t147 178h37q-50 -123 -162 -202t-244 -79q-162 0 -265 115t-86 277t144 277t289 115q132 0 228 -79t120 -202zM455 890l57 -75l72 75h32l-85 -100h-42l-66 100
h32z" />
    <glyph glyph-name="ccaron" unicode="&#x10d;" horiz-adv-x="672" 
d="M677 392h-36q-24 76 -87.5 123.5t-148.5 47.5q-112 0 -200 -80t-100 -193t59 -193t183 -80q85 0 159 47.5t113 123.5h36q-41 -91 -126.5 -148t-184.5 -57q-127 0 -207.5 90t-66.5 217t112.5 217t225.5 90q99 0 172.5 -57t96.5 -148zM362 780l58 -75l71 75h32l-85 -100
h-42l-66 100h32z" />
    <glyph glyph-name="Dcaron" unicode="&#x10e;" horiz-adv-x="726" 
d="M138 750h256q155 0 253.5 -110t82.5 -265q-17 -155 -138 -265t-276 -110h-256zM695 375q15 141 -74 241t-230 100h-222l-72 -682h222q141 0 251 99.5t125 241.5zM377 890l57 -75l72 75h32l-85 -100h-42l-66 100h32z" />
    <glyph glyph-name="dcaron" unicode="&#x10f;" horiz-adv-x="782" 
d="M650 290q12 113 -59.5 192.5t-184.5 79.5t-201 -79.5t-100 -192.5t59 -193t184 -80t201 80t101 193zM732 750l-78 -750h-34l15 149q-45 -75 -123.5 -120.5t-166.5 -45.5q-127 0 -207.5 90t-67.5 217t112.5 216.5t226.5 89.5q88 0 157 -45.5t99 -120.5l33 320h34zM808 750
h38l-77 -171h-21z" />
    <glyph glyph-name="Emacron" unicode="&#x112;" horiz-adv-x="641" 
d="M97 34h512l-3 -34h-546l78 750h546l-3 -34h-512l-34 -324h443l-4 -34h-443zM516 836l-3 -34h-187l3 34h187z" />
    <glyph glyph-name="emacron" unicode="&#x113;" horiz-adv-x="692" 
d="M518 750l-3 -34h-187l3 34h187zM682 290l-2 -17h-577q-5 -107 66 -181.5t179 -74.5q78 0 146.5 40.5t110.5 107.5h37q-44 -82 -124.5 -132t-172.5 -50q-127 0 -207.5 90t-67.5 217q14 127 113 217t226 90t207 -90t66 -217zM107 307h542q4 108 -65.5 182t-177.5 74
t-194.5 -74.5t-104.5 -181.5z" />
    <glyph glyph-name="Edotaccent" unicode="&#x116;" horiz-adv-x="641" 
d="M97 34h512l-3 -34h-546l78 750h546l-3 -34h-512l-34 -324h443l-4 -34h-443zM468 822q-2 -18 -16.5 -31t-31.5 -13q-18 0 -29.5 13t-9.5 31q2 17 16 30t32 13q17 0 29 -13t10 -30z" />
    <glyph glyph-name="edotaccent" unicode="&#x117;" horiz-adv-x="692" 
d="M682 290l-2 -17h-577q-5 -107 66 -181.5t179 -74.5q78 0 146.5 40.5t110.5 107.5h37q-44 -82 -124.5 -132t-172.5 -50q-127 0 -207.5 90t-67.5 217q14 127 113 217t226 90t207 -90t66 -217zM107 307h542q4 108 -65.5 182t-177.5 74t-194.5 -74.5t-104.5 -181.5zM465 721
q-1 -18 -15.5 -31t-31.5 -13q-18 0 -30 13t-10 31q2 17 16.5 30t32.5 13q17 0 28.5 -13t9.5 -30z" />
    <glyph glyph-name="Eogonek" unicode="&#x118;" horiz-adv-x="641" 
d="M474 -80q-4 -33 17.5 -56.5t54.5 -23.5q23 0 44 13l-3 -25q-27 -16 -56 -16q-43 0 -70 30t-22 73q5 57 56 85h-435l78 750h546l-3 -34h-512l-34 -324h443l-4 -34h-443l-34 -324h512l-3 -34h-43q-33 0 -59 -23.5t-30 -56.5z" />
    <glyph glyph-name="eogonek" unicode="&#x119;" horiz-adv-x="692" 
d="M682 290l-2 -17h-577q-5 -107 66 -181.5t179 -74.5q78 0 146.5 40.5t110.5 107.5h37q-60 -108 -175 -158q-54 -25 -58 -81q-3 -49 34 -75q39 -26 95 2l-3 -25q-27 -16 -59 -16q-44 0 -71.5 29.5t-26.5 69t29 78.5q-30 -6 -62 -6q-127 0 -207.5 90t-67.5 217
q14 127 113 217t226 90t207 -90t66 -217zM107 307h542q4 108 -65.5 182t-177.5 74t-194.5 -74.5t-104.5 -181.5z" />
    <glyph glyph-name="Ecaron" unicode="&#x11a;" horiz-adv-x="641" 
d="M97 34h512l-3 -34h-546l78 750h546l-3 -34h-512l-34 -324h443l-4 -34h-443zM365 890l57 -75l72 75h32l-85 -100h-42l-66 100h32z" />
    <glyph glyph-name="ecaron" unicode="&#x11b;" horiz-adv-x="692" 
d="M682 290l-2 -17h-577q-5 -107 66 -181.5t179 -74.5q78 0 146.5 40.5t110.5 107.5h37q-44 -82 -124.5 -132t-172.5 -50q-127 0 -207.5 90t-67.5 217q14 127 113 217t226 90t207 -90t66 -217zM107 307h542q4 108 -65.5 182t-177.5 74t-194.5 -74.5t-104.5 -181.5zM363 780
l58 -75l71 75h32l-85 -100h-42l-66 100h32z" />
    <glyph glyph-name="uni0122" unicode="&#x122;" horiz-adv-x="854" 
d="M392 -147h5q7 0 13 5.5t7 12.5l4 42h-4q-11 0 -17.5 8t-5.5 20q2 10 10 17.5t19 7.5q10 0 17 -7.5t5 -17.5l-7 -70q-2 -16 -14.5 -27.5t-28.5 -11.5h-5zM794 0h-34l22 215l-2 1q-52 -104 -148 -168.5t-207 -64.5q-162 0 -265 115t-86 277t144 277t289 115
q123 0 215.5 -70t124.5 -181h-37q-32 97 -114.5 157t-191.5 60q-148 0 -263.5 -105t-131.5 -253t77.5 -253t241.5 -105q133 0 239.5 99t128.5 242h-332l4 34h367z" />
    <glyph glyph-name="uni0123" unicode="&#x123;" horiz-adv-x="584" 
d="M389 746h-5q-7 0 -13 -5.5t-7 -12.5l-4 -42h4q11 0 17.5 -8t5.5 -20q-2 -10 -10 -17.5t-19 -7.5q-10 0 -17 7.5t-5 17.5l7 70q2 16 14.5 27.5t28.5 11.5h5zM33 -22q6 49 35 84q-23 24 -20 57q6 54 49.5 79t120.5 32q-43 26 -65 71.5t-16 98.5q8 81 72 138.5t145 57.5
q87 0 139 -65q12 29 38 47t57 18h17l-3 -34h-17q-25 0 -44.5 -17.5t-22.5 -42.5q-1 -9 3 -24q12 -36 9 -78q-9 -81 -72.5 -138.5t-144.5 -57.5q-54 0 -88 -2.5t-69 -10.5t-52.5 -26t-20.5 -46q-2 -20 8 -34q74 59 216 59q117 0 182 -41.5t56 -124.5t-82.5 -124.5
t-190.5 -41.5t-182.5 41.5t-56.5 124.5zM68 -22q-7 -71 48 -101.5t159 -30.5q222 0 235 132q8 71 -47 101.5t-160 30.5q-220 0 -235 -132zM495 400q7 67 -35 114.5t-109 47.5t-119.5 -47.5t-59.5 -114.5q-8 -67 35 -114.5t110 -47.5t118.5 47.5t59.5 114.5z" />
    <glyph glyph-name="Imacron" unicode="&#x12a;" 
d="M60 0l78 750h34l-78 -750h-34zM247 836l-3 -34h-166l3 34h166z" />
    <glyph glyph-name="imacron" unicode="&#x12b;" 
d="M120 579h34l-60 -579h-34zM238 750l-3 -34h-166l3 34h166z" />
    <glyph glyph-name="Iogonek" unicode="&#x12e;" 
d="M27 -80q-4 -33 17.5 -56.5t54.5 -23.5l-3 -27q-4 -1 -12 -1q-43 0 -69.5 30t-21.5 73q3 31 21.5 55t45.5 35l78 745h34l-78 -750q-27 -8 -45.5 -30t-21.5 -50z" />
    <glyph glyph-name="iogonek" unicode="&#x12f;" 
d="M27 -80q-4 -33 17.5 -56.5t54.5 -23.5l-3 -27q-4 -1 -12 -1q-43 0 -69.5 30t-21.5 73q3 31 21.5 55t45.5 35l60 574h34l-60 -579q-27 -8 -45.5 -30t-21.5 -50zM131 743q1 10 8.5 17t17.5 7t16.5 -7t5.5 -17q-2 -10 -9.5 -17t-17.5 -7t-16 7t-5 17z" />
    <glyph glyph-name="dotlessi" unicode="&#x131;" 
d="M120 579h34l-60 -579h-34z" />
    <glyph glyph-name="uni0136" unicode="&#x136;" horiz-adv-x="669" 
d="M138 750h34l-53 -512l565 512h48l-414 -375l336 -375h-48l-315 351l-178 -161l-19 -190h-34zM296 -130h5q7 0 13 5.5t7 12.5l4 42h-4q-11 0 -17.5 8t-5.5 20q1 10 9.5 17.5t19.5 7.5q10 0 16.5 -7.5t5.5 -17.5l-7 -70q-2 -16 -14.5 -27.5t-28.5 -11.5h-5z" />
    <glyph glyph-name="uni0137" unicode="&#x137;" horiz-adv-x="530" 
d="M231 266l-121 -110l-16 -156h-34l78 750h34l-57 -546l414 375h49l-320 -289l260 -290h-49zM236 -130h5q7 0 13 5.5t7 12.5l4 42h-4q-11 0 -17.5 8t-5.5 20q1 10 9.5 17.5t19.5 7.5q10 0 16.5 -7.5t5.5 -17.5l-7 -70q-2 -16 -14.5 -27.5t-28.5 -11.5h-5z" />
    <glyph glyph-name="Lacute" unicode="&#x139;" horiz-adv-x="586" 
d="M574 34l-3 -34h-511l78 750h34l-75 -716h477zM493 860l-4 -38l-176 -42l3 21z" />
    <glyph glyph-name="lacute" unicode="&#x13a;" 
d="M60 0l78 750h34l-78 -750h-34zM253 860l-4 -38l-176 -42l3 21z" />
    <glyph glyph-name="uni013B" unicode="&#x13b;" horiz-adv-x="586" 
d="M574 34l-3 -34h-511l78 750h34l-75 -716h477zM276 -130h5q7 0 13 5.5t7 12.5l4 42h-4q-11 0 -17.5 8t-5.5 20q1 10 9.5 17.5t19.5 7.5q10 0 16.5 -7.5t5.5 -17.5l-7 -70q-2 -16 -14.5 -27.5t-28.5 -11.5h-5z" />
    <glyph glyph-name="uni013C" unicode="&#x13c;" 
d="M60 0l78 750h34l-78 -750h-34zM42 -130h5q7 0 13 5.5t7 12.5l4 42h-4q-11 0 -17.5 8t-5.5 20q1 10 9.5 17.5t19.5 7.5q10 0 16.5 -7.5t5.5 -17.5l-7 -70q-2 -16 -14.5 -27.5t-28.5 -11.5h-5z" />
    <glyph glyph-name="Lcaron" unicode="&#x13d;" horiz-adv-x="586" 
d="M574 34l-3 -34h-511l78 750h34l-75 -716h477zM611 750h38l-77 -171h-21z" />
    <glyph glyph-name="lcaron" unicode="&#x13e;" horiz-adv-x="222" 
d="M60 0l78 750h34l-78 -750h-34zM248 750h38l-77 -171h-21z" />
    <glyph glyph-name="Lslash" unicode="&#x141;" horiz-adv-x="606" 
d="M116 34h478l-3 -34h-512l35 337l-61 -14l4 34l60 13l40 380h34l-39 -373l237 51l-3 -33l-237 -51z" />
    <glyph glyph-name="lslash" unicode="&#x142;" horiz-adv-x="203" 
d="M226 411l-4 -34l-65 -15l-38 -362h-34l37 353l-67 -14l4 34l66 15l38 362h34l-37 -355z" />
    <glyph glyph-name="Nacute" unicode="&#x143;" horiz-adv-x="700" 
d="M525 860l-4 -38l-176 -42l3 21zM718 750l-78 -750h-34l-440 692l-72 -692h-34l78 750h34l440 -692l72 692h34z" />
    <glyph glyph-name="nacute" unicode="&#x144;" horiz-adv-x="614" 
d="M473 767l-4 -37l-175 -42l2 20zM554 0h-34l37 358q9 83 -45 143.5t-138 60.5q-91 0 -163 -65t-82 -157l-35 -340h-34l60 579h34l-12 -113q39 59 101.5 94.5t133.5 35.5q100 0 162 -69t52 -169z" />
    <glyph glyph-name="uni0145" unicode="&#x145;" horiz-adv-x="700" 
d="M317 -130h5q7 0 13 5.5t7 12.5l4 42h-4q-11 0 -17.5 8t-5.5 20q1 10 9.5 17.5t19.5 7.5q10 0 16.5 -7.5t5.5 -17.5l-7 -70q-2 -16 -14.5 -27.5t-28.5 -11.5h-5zM718 750l-78 -750h-34l-440 692l-72 -692h-34l78 750h34l440 -692l72 692h34z" />
    <glyph glyph-name="uni0146" unicode="&#x146;" horiz-adv-x="614" 
d="M274 -130h5q7 0 13 5.5t7 12.5l4 42h-4q-11 0 -17.5 8t-5.5 20q1 10 9.5 17.5t19.5 7.5q10 0 16.5 -7.5t5.5 -17.5l-7 -70q-2 -16 -14.5 -27.5t-28.5 -11.5h-5zM554 0h-34l37 358q9 83 -45 143.5t-138 60.5q-91 0 -163 -65t-82 -157l-35 -340h-34l60 579h34l-12 -113
q39 59 101.5 94.5t133.5 35.5q100 0 162 -69t52 -169z" />
    <glyph glyph-name="Ncaron" unicode="&#x147;" horiz-adv-x="700" 
d="M718 750l-78 -750h-34l-440 692l-72 -692h-34l78 750h34l440 -692l72 692h34zM378 890l57 -75l72 75h32l-85 -100h-42l-66 100h32z" />
    <glyph glyph-name="ncaron" unicode="&#x148;" horiz-adv-x="614" 
d="M554 0h-34l37 358q9 83 -45 143.5t-138 60.5q-91 0 -163 -65t-82 -157l-35 -340h-34l60 579h34l-12 -113q39 59 101.5 94.5t133.5 35.5q100 0 162 -69t52 -169zM331 780l58 -75l71 75h32l-85 -100h-42l-66 100h32z" />
    <glyph glyph-name="Omacron" unicode="&#x14c;" horiz-adv-x="854" 
d="M608 836l-3 -34h-187l3 34h187zM823 375q16 148 -77.5 253t-241.5 105t-263.5 -105t-131.5 -253t77.5 -253t241.5 -105t263.5 105t131.5 253zM858 375q-17 -162 -144 -277t-289 -115q-163 0 -265.5 115t-85.5 277t143.5 277t289.5 115q162 0 265 -115t86 -277z" />
    <glyph glyph-name="omacron" unicode="&#x14d;" horiz-adv-x="695" 
d="M650 290q12 113 -59.5 192.5t-184.5 79.5q-112 0 -200.5 -79.5t-100.5 -192.5t59 -193t184 -80t201.5 80t100.5 193zM685 290q-13 -127 -112.5 -217t-227.5 -90q-127 0 -207.5 90t-67.5 217t112.5 216.5t226.5 89.5q128 0 208.5 -89.5t67.5 -216.5zM519 750l-3 -34h-187
l3 34h187z" />
    <glyph glyph-name="Ohungarumlaut" unicode="&#x150;" horiz-adv-x="854" 
d="M823 375q16 148 -77.5 253t-241.5 105t-263.5 -105t-131.5 -253t77.5 -253t241.5 -105t263.5 105t131.5 253zM858 375q-17 -162 -144 -277t-289 -115q-163 0 -265.5 115t-85.5 277t143.5 277t289.5 115q162 0 265 -115t86 -277zM520 891h44l-76 -99h-43zM597 891h42
l-75 -99h-43z" />
    <glyph glyph-name="ohungarumlaut" unicode="&#x151;" horiz-adv-x="695" 
d="M650 290q12 113 -59.5 192.5t-184.5 79.5q-112 0 -200.5 -79.5t-100.5 -192.5t59 -193t184 -80t201.5 80t100.5 193zM685 290q-13 -127 -112.5 -217t-227.5 -90q-127 0 -207.5 90t-67.5 217t112.5 216.5t226.5 89.5q128 0 208.5 -89.5t67.5 -216.5zM423 731h44l-76 -99
h-43zM500 731h42l-75 -99h-43z" />
    <glyph glyph-name="OE" unicode="&#x152;" horiz-adv-x="1364" 
d="M856 358l-34 -324h510l-3 -34h-544l22 215q-57 -104 -160.5 -168t-221.5 -64q-163 0 -265.5 115t-85.5 277t143.5 277t289.5 115q118 0 208 -64t126 -168l22 215h544l-3 -34h-510l-34 -324h443l-4 -34h-443zM824 375q16 148 -78.5 252.5t-242.5 104.5t-263 -104.5
t-131 -252.5t77.5 -253t241.5 -105t264 105t132 253z" />
    <glyph glyph-name="oe" unicode="&#x153;" horiz-adv-x="1272" 
d="M1262 290l-2 -17h-577q-5 -107 66 -181.5t179 -74.5q78 0 146.5 40.5t110.5 107.5h37q-44 -82 -124.5 -132t-172.5 -50q-99 0 -172.5 57.5t-95.5 148.5q-41 -91 -127 -148.5t-185 -57.5q-127 0 -207.5 90t-67.5 217t112.5 216.5t226.5 89.5q99 0 173 -57.5t97 -147.5
q40 91 125.5 148.5t184.5 57.5q127 0 207 -90t66 -217zM650 290q12 113 -59.5 192.5t-184.5 79.5q-112 0 -200.5 -79.5t-100.5 -192.5t59 -193t184 -80t201.5 80t100.5 193zM687 307h542q4 108 -65.5 182t-177.5 74t-194.5 -74.5t-104.5 -181.5z" />
    <glyph glyph-name="Racute" unicode="&#x154;" horiz-adv-x="663" 
d="M677 519q-9 -85 -71.5 -149t-146.5 -78l117 -292h-39l-114 290h-299l-30 -290h-34l78 750h333q95 0 155.5 -67.5t50.5 -163.5zM642 519q8 81 -42.5 139t-131.5 58h-299l-41 -392h299q81 0 144 57t71 138zM505 860l-4 -38l-176 -42l3 21z" />
    <glyph glyph-name="racute" unicode="&#x155;" horiz-adv-x="297" 
d="M94 0h-34l60 579h34l-8 -80q33 45 83 71t106 26h9l-3 -34h-9q-74 0 -132.5 -52.5t-65.5 -126.5zM335 767l-4 -37l-175 -42l2 20z" />
    <glyph glyph-name="uni0156" unicode="&#x156;" horiz-adv-x="663" 
d="M677 519q-9 -85 -71.5 -149t-146.5 -78l117 -292h-39l-114 290h-299l-30 -290h-34l78 750h333q95 0 155.5 -67.5t50.5 -163.5zM642 519q8 81 -42.5 139t-131.5 58h-299l-41 -392h299q81 0 144 57t71 138zM277 -130h5q7 0 13 5.5t7 12.5l4 42h-4q-11 0 -17.5 8t-5.5 20
q1 10 9.5 17.5t19.5 7.5q10 0 16.5 -7.5t5.5 -17.5l-7 -70q-2 -16 -14.5 -27.5t-28.5 -11.5h-5z" />
    <glyph glyph-name="uni0157" unicode="&#x157;" horiz-adv-x="297" 
d="M94 0h-34l60 579h34l-8 -80q33 45 83 71t106 26h9l-3 -34h-9q-74 0 -132.5 -52.5t-65.5 -126.5zM137 -130h5q7 0 13 5.5t7 12.5l4 42h-4q-11 0 -17.5 8t-5.5 20q1 10 9.5 17.5t19.5 7.5q10 0 16.5 -7.5t5.5 -17.5l-7 -70q-2 -16 -14.5 -27.5t-28.5 -11.5h-5z" />
    <glyph glyph-name="Rcaron" unicode="&#x158;" horiz-adv-x="663" 
d="M677 519q-9 -85 -71.5 -149t-146.5 -78l117 -292h-39l-114 290h-299l-30 -290h-34l78 750h333q95 0 155.5 -67.5t50.5 -163.5zM642 519q8 81 -42.5 139t-131.5 58h-299l-41 -392h299q81 0 144 57t71 138zM369 890l57 -75l72 75h32l-85 -100h-42l-66 100h32z" />
    <glyph glyph-name="rcaron" unicode="&#x159;" horiz-adv-x="297" 
d="M94 0h-34l60 579h34l-8 -80q33 45 83 71t106 26h9l-3 -34h-9q-74 0 -132.5 -52.5t-65.5 -126.5zM190 780l58 -75l71 75h32l-85 -100h-42l-66 100h32z" />
    <glyph glyph-name="Sacute" unicode="&#x15a;" horiz-adv-x="591" 
d="M471 860l-4 -38l-176 -42l3 21zM60 191h35q-8 -75 50.5 -124.5t150.5 -49.5q94 0 162.5 47.5t76.5 125.5q6 55 -15.5 93t-60 56.5t-86 31.5l-95 26t-86 31.5t-60 55.5t-15.5 91q9 85 83 138.5t175 53.5q102 0 165 -52.5t54 -138.5h-34q7 67 -47.5 112t-140.5 45
q-87 0 -150 -43.5t-70 -114.5q-5 -47 17 -78t61 -46.5t86.5 -27t95 -26t85.5 -36t59 -65t14 -106.5q-10 -91 -89.5 -149t-187.5 -58q-107 0 -175 59t-58 149z" />
    <glyph glyph-name="sacute" unicode="&#x15b;" horiz-adv-x="532" 
d="M431 767l-4 -37l-175 -42l2 20zM90 154l-1 -4q-6 -59 46 -96t132 -37q88 0 143 34.5t62 98.5q5 47 -13.5 76.5t-52.5 41.5t-75.5 18t-83 13t-75.5 21t-52 46.5t-13 83.5q7 69 67 107.5t154 38.5q88 0 142.5 -40.5t47.5 -108.5h-34q5 51 -41 83t-118 32
q-79 0 -128.5 -29.5t-54.5 -83.5q-5 -43 14.5 -69t53 -36.5t75.5 -16t83.5 -13.5t75 -23.5t51.5 -51t12 -91.5q-8 -77 -73 -121t-170 -44q-95 0 -155.5 46t-53.5 120l1 5h34z" />
    <glyph glyph-name="Scaron" unicode="&#x160;" horiz-adv-x="591" 
d="M60 191h35q-8 -75 50.5 -124.5t150.5 -49.5q94 0 162.5 47.5t76.5 125.5q6 55 -15.5 93t-60 56.5t-86 31.5l-95 26t-86 31.5t-60 55.5t-15.5 91q9 85 83 138.5t175 53.5q102 0 165 -52.5t54 -138.5h-34q7 67 -47.5 112t-140.5 45q-87 0 -150 -43.5t-70 -114.5
q-5 -47 17 -78t61 -46.5t86.5 -27t95 -26t85.5 -36t59 -65t14 -106.5q-10 -91 -89.5 -149t-187.5 -58q-107 0 -175 59t-58 149zM323 890l57 -75l72 75h32l-85 -100h-42l-66 100h32z" />
    <glyph glyph-name="scaron" unicode="&#x161;" horiz-adv-x="532" 
d="M90 154l-1 -4q-6 -59 46 -96t132 -37q88 0 143 34.5t62 98.5q5 47 -13.5 76.5t-52.5 41.5t-75.5 18t-83 13t-75.5 21t-52 46.5t-13 83.5q7 69 67 107.5t154 38.5q88 0 142.5 -40.5t47.5 -108.5h-34q5 51 -41 83t-118 32q-79 0 -128.5 -29.5t-54.5 -83.5q-5 -43 14.5 -69
t53 -36.5t75.5 -16t83.5 -13.5t75 -23.5t51.5 -51t12 -91.5q-8 -77 -73 -121t-170 -44q-95 0 -155.5 46t-53.5 120l1 5h34zM282 780l58 -75l71 75h32l-85 -100h-42l-66 100h32z" />
    <glyph glyph-name="Tcaron" unicode="&#x164;" horiz-adv-x="609" 
d="M669 716h-272l-75 -716h-34l75 716h-273l3 34h579zM333 890l57 -75l72 75h32l-85 -100h-42l-66 100h32z" />
    <glyph glyph-name="tcaron" unicode="&#x165;" horiz-adv-x="389" 
d="M179 545l-44 -414q-5 -48 18.5 -72.5t68.5 -24.5h57l-3 -34h-57q-58 0 -91 33t-27 97l44 415h-68l3 34h68l14 131h34l-14 -131h154l-3 -34h-154zM419 750h38l-77 -171h-21z" />
    <glyph glyph-name="Umacron" unicode="&#x16a;" horiz-adv-x="699" 
d="M530 836l-3 -34h-187l3 34h187zM717 750l-50 -477q-13 -120 -106.5 -205t-212.5 -85q-120 0 -196.5 85t-63.5 205l50 477h34l-50 -477q-11 -106 56 -181t173 -75t188.5 75t93.5 181l50 477h34z" />
    <glyph glyph-name="umacron" unicode="&#x16b;" horiz-adv-x="614" 
d="M480 750l-3 -34h-187l3 34h187zM120 579h34l-37 -358q-9 -84 44 -144t138 -60q92 0 164 65t82 157l35 340h34l-60 -579h-34l12 119q-38 -62 -100 -99t-136 -37q-99 0 -161.5 70t-51.5 168z" />
    <glyph glyph-name="Uring" unicode="&#x16e;" horiz-adv-x="699" 
d="M486 851q2 19 -9.5 32.5t-31.5 13.5q-19 0 -34 -13t-17 -33q-2 -19 9.5 -32.5t31.5 -13.5q19 0 34 13t17 33zM515 851q-3 -30 -27.5 -51.5t-55.5 -21.5t-50.5 21t-16.5 52q3 30 27.5 51.5t55.5 21.5t50.5 -21t16.5 -52zM717 750l-50 -477q-13 -120 -106.5 -205
t-212.5 -85q-120 0 -196.5 85t-63.5 205l50 477h34l-50 -477q-11 -106 56 -181t173 -75t188.5 75t93.5 181l50 477h34z" />
    <glyph glyph-name="uring" unicode="&#x16f;" horiz-adv-x="614" 
d="M120 579h34l-37 -358q-9 -84 44 -144t138 -60q92 0 164 65t82 157l35 340h34l-60 -579h-34l12 119q-38 -62 -100 -99t-136 -37q-99 0 -161.5 70t-51.5 168zM420 727q2 19 -9.5 32.5t-31.5 13.5q-19 0 -34 -13t-17 -33q-2 -19 9.5 -32.5t31.5 -13.5q19 0 34 13t17 33z
M449 727q-3 -30 -27.5 -51.5t-55.5 -21.5t-50.5 21t-16.5 52q3 30 27.5 51.5t55.5 21.5t50.5 -21t16.5 -52z" />
    <glyph glyph-name="Uhungarumlaut" unicode="&#x170;" horiz-adv-x="699" 
d="M717 750l-50 -477q-13 -120 -106.5 -205t-212.5 -85q-120 0 -196.5 85t-63.5 205l50 477h34l-50 -477q-11 -106 56 -181t173 -75t188.5 75t93.5 181l50 477h34zM443 891h44l-76 -99h-43zM520 891h42l-75 -99h-43z" />
    <glyph glyph-name="uhungarumlaut" unicode="&#x171;" horiz-adv-x="614" 
d="M120 579h34l-37 -358q-9 -84 44 -144t138 -60q92 0 164 65t82 157l35 340h34l-60 -579h-34l12 119q-38 -62 -100 -99t-136 -37q-99 0 -161.5 70t-51.5 168zM374 731h44l-76 -99h-43zM451 731h42l-75 -99h-43z" />
    <glyph glyph-name="Uogonek" unicode="&#x172;" horiz-adv-x="699" 
d="M474 -188q-44 0 -71.5 29.5t-26.5 69t29 78.5q-38 -6 -57 -6q-120 0 -196.5 85t-63.5 205l50 477h34l-50 -477q-11 -106 56 -181t173 -75t188.5 75t93.5 181l50 477h34l-50 -477q-9 -88 -64.5 -160t-137.5 -106q-54 -25 -58 -81q-3 -49 34 -75q39 -26 95 2l-3 -25
q-27 -16 -59 -16z" />
    <glyph glyph-name="uogonek" unicode="&#x173;" horiz-adv-x="614" 
d="M120 579h34l-37 -358q-9 -84 44 -144t138 -60q92 0 164 65t82 157l35 340h34l-60 -579h-22q-33 0 -59 -23.5t-30 -56.5t17.5 -56.5t54.5 -23.5q11 0 22 3l-3 -25q-16 -6 -34 -6q-43 0 -70 30t-22 73t37.5 73t75.5 30l11 101q-38 -62 -100 -99t-136 -37q-99 0 -161.5 70
t-51.5 168z" />
    <glyph glyph-name="Ydieresis" unicode="&#x178;" horiz-adv-x="645" 
d="M334 836q-1 -10 -8.5 -17t-17.5 -7t-16.5 7t-5.5 17t9 17t18 7t16 -7t5 -17zM531 836q-1 -10 -8 -17t-17 -7t-16.5 7t-5.5 17t9 17t18 7q23 0 20 -24zM342 358l-249 392h44l226 -357l301 357h44l-332 -392l-37 -358h-34z" />
    <glyph glyph-name="Zacute" unicode="&#x179;" horiz-adv-x="620" 
d="M485 860l-4 -38l-176 -42l3 21zM98 750h580l-3 -34l-608 -682h536l-3 -34h-580l3 34l609 682h-537z" />
    <glyph glyph-name="zacute" unicode="&#x17a;" horiz-adv-x="500" 
d="M415 767l-4 -37l-175 -42l2 20zM68 34h415l-3 -34h-460l3 34l470 511h-416l3 34h460l-3 -34z" />
    <glyph glyph-name="Zdotaccent" unicode="&#x17b;" horiz-adv-x="620" 
d="M439 822q-2 -18 -16.5 -31t-31.5 -13q-18 0 -29.5 13t-9.5 31q2 17 16 30t32 13q17 0 29 -13t10 -30zM98 750h580l-3 -34l-608 -682h536l-3 -34h-580l3 34l609 682h-537z" />
    <glyph glyph-name="zdotaccent" unicode="&#x17c;" horiz-adv-x="500" 
d="M368 721q-1 -18 -15.5 -31t-31.5 -13q-18 0 -30 13t-10 31q2 17 16.5 30t32.5 13q17 0 28.5 -13t9.5 -30zM68 34h415l-3 -34h-460l3 34l470 511h-416l3 34h460l-3 -34z" />
    <glyph glyph-name="Zcaron" unicode="&#x17d;" horiz-adv-x="620" 
d="M98 750h580l-3 -34l-608 -682h536l-3 -34h-580l3 34l609 682h-537zM329 890l57 -75l72 75h32l-85 -100h-42l-66 100h32z" />
    <glyph glyph-name="zcaron" unicode="&#x17e;" horiz-adv-x="500" 
d="M68 34h415l-3 -34h-460l3 34l470 511h-416l3 34h460l-3 -34zM266 780l58 -75l71 75h32l-85 -100h-42l-66 100h32z" />
    <glyph glyph-name="florin" unicode="&#x192;" horiz-adv-x="414" 
d="M429 545h-111l-149 -609q-14 -54 -58 -80.5t-105 -26.5h-8l7 34h9q104 0 121 73l149 609h-112l8 34h112l16 64q14 54 58 80.5t104 26.5h7l-8 -34h-7q-101 0 -120 -73l-16 -64h111z" />
    <glyph glyph-name="circumflex" unicode="&#x2c6;" horiz-adv-x="393" 
d="M276 755l-73 -75h-32l86 100h42l65 -100h-32z" />
    <glyph glyph-name="caron" unicode="&#x2c7;" horiz-adv-x="393" 
d="M213 780l58 -75l71 75h32l-85 -100h-42l-66 100h32z" />
    <glyph glyph-name="breve" unicode="&#x2d8;" horiz-adv-x="316" 
d="M138 750h37q15 -40 58 -40t65 40h36q-12 -32 -41 -52.5t-63 -20.5q-35 0 -60 20t-32 53z" />
    <glyph glyph-name="dotaccent" unicode="&#x2d9;" horiz-adv-x="207" 
d="M222 721q-1 -18 -15.5 -31t-31.5 -13q-18 0 -30 13t-10 31q2 17 16.5 30t32.5 13q17 0 28.5 -13t9.5 -30z" />
    <glyph glyph-name="ring" unicode="&#x2da;" horiz-adv-x="350" 
d="M297 727q2 19 -9.5 32.5t-31.5 13.5q-19 0 -34 -13t-17 -33q-2 -19 9.5 -32.5t31.5 -13.5q19 0 34 13t17 33zM326 727q-3 -30 -27.5 -51.5t-55.5 -21.5t-50.5 21t-16.5 52q3 30 27.5 51.5t55.5 21.5t50.5 -21t16.5 -52z" />
    <glyph glyph-name="ogonek" unicode="&#x2db;" horiz-adv-x="278" 
d="M86 -80q-4 -33 17.5 -56.5t54.5 -23.5q21 0 44 13l-3 -25q-27 -16 -56 -16q-43 0 -70 30t-22 73t37.5 73t75.5 30q2 0 6 -0.5t6 -0.5l-1 -17q-33 0 -59 -23.5t-30 -56.5z" />
    <glyph glyph-name="tilde" unicode="&#x2dc;" horiz-adv-x="423" 
d="M200 702h-27q3 27 24.5 46t46.5 19q40 0 55 -36q12 -25 34 -25q16 0 27 10.5t13 27.5h28q-3 -27 -24 -46t-47 -19q-42 0 -55 36q-9 24 -34 24q-15 0 -27.5 -11t-13.5 -26z" />
    <glyph glyph-name="hungarumlaut" unicode="&#x2dd;" horiz-adv-x="304" 
d="M201 731h44l-76 -99h-43zM278 731h42l-75 -99h-43z" />
    <glyph glyph-name="pi" unicode="&#x3c0;" horiz-adv-x="639" 
d="M440 86l48 459h-222l-57 -545h-34l57 545h-145l3 34h579l-3 -34h-144l-48 -459q-4 -32 16.5 -50.5t54.5 -18.5q16 0 31 6l-4 -36q-20 -4 -30 -4q-48 0 -77.5 28.5t-24.5 74.5z" />
    <glyph glyph-name="endash" unicode="&#x2013;" horiz-adv-x="584" 
d="M77 307h494l-4 -34h-494z" />
    <glyph glyph-name="emdash" unicode="&#x2014;" horiz-adv-x="840" 
d="M77 307h750l-4 -34h-750z" />
    <glyph glyph-name="quoteleft" unicode="&#x2018;" horiz-adv-x="161" 
d="M178 732h-6q-8 0 -15 -6.5t-8 -14.5l-5 -50h5q13 0 21 -9.5t7 -22.5q-2 -12 -12 -21t-23 -9t-20.5 9t-5.5 21l8 82q2 19 17 32.5t34 13.5h6z" />
    <glyph glyph-name="quoteright" unicode="&#x2019;" horiz-adv-x="161" 
d="M124 624h6q8 0 15 6.5t8 14.5l6 50h-5q-13 0 -21 9.5t-7 22.5q2 12 11.5 21t22.5 9t21 -9t6 -21l-9 -82q-2 -19 -17 -32.5t-34 -13.5h-6z" />
    <glyph glyph-name="quotesinglbase" unicode="&#x201a;" horiz-adv-x="141" 
d="M50 -79h6q8 0 15 6.5t8 14.5l6 50h-5q-13 0 -21 9.5t-7 22.5q2 12 11.5 21t22.5 9t21 -9t6 -21l-9 -82q-2 -19 -16.5 -32.5t-33.5 -13.5h-6z" />
    <glyph glyph-name="quotedblleft" unicode="&#x201c;" horiz-adv-x="224" 
d="M261 732h-6q-8 0 -15 -6.5t-8 -14.5l-5 -50h5q13 0 21 -9.5t7 -22.5q-2 -12 -12 -21t-23 -9t-20.5 9t-5.5 21l8 82q2 19 17 32.5t34 13.5h6zM178 732h-6q-8 0 -15 -6.5t-8 -14.5l-5 -50h5q13 0 21 -9.5t7 -22.5q-2 -12 -12 -21t-23 -9t-20.5 9t-5.5 21l8 82q2 19 17 32.5
t34 13.5h6z" />
    <glyph glyph-name="quotedblright" unicode="&#x201d;" horiz-adv-x="224" 
d="M104 624h6q8 0 15 6.5t8 14.5l6 50h-5q-13 0 -21 9.5t-7 22.5q2 12 11.5 21t22.5 9t21 -9t6 -21l-9 -82q-2 -19 -17 -32.5t-34 -13.5h-6zM187 624h6q8 0 15 6.5t8 14.5l6 50h-5q-13 0 -21 9.5t-7 22.5q2 12 11.5 21t22.5 9t21 -9t6 -21l-9 -82q-2 -19 -17 -32.5
t-34 -13.5h-6z" />
    <glyph glyph-name="quotedblbase" unicode="&#x201e;" horiz-adv-x="224" 
d="M30 -79h6q8 0 15 6.5t8 14.5l6 50h-5q-13 0 -21 9.5t-7 22.5q2 12 11.5 21t22.5 9t21 -9t6 -21l-9 -82q-2 -19 -16.5 -32.5t-33.5 -13.5h-6zM113 -79h6q8 0 15 6.5t8 14.5l6 50h-5q-13 0 -21 9.5t-7 22.5q2 12 11.5 21t22.5 9t21 -9t6 -21l-9 -82q-2 -19 -16.5 -32.5
t-33.5 -13.5h-6z" />
    <glyph glyph-name="dagger" unicode="&#x2020;" horiz-adv-x="540" 
d="M120 579h200l18 171h24l-18 -171h196l-2 -24h-196l-68 -641h-24l68 641h-200z" />
    <glyph glyph-name="daggerdbl" unicode="&#x2021;" horiz-adv-x="540" 
d="M68 85l3 24h200l47 446h-200l2 24h200l18 171h24l-18 -171h196l-2 -24h-196l-47 -446h196l-3 -24h-196l-18 -171h-24l18 171h-200z" />
    <glyph glyph-name="bullet" unicode="&#x2022;" horiz-adv-x="337" 
d="M169 221q-29 0 -49 20.5t-20 48.5t20.5 48t48.5 20t48 -20t20 -48t-20 -48.5t-48 -20.5z" />
    <glyph glyph-name="ellipsis" unicode="&#x2026;" horiz-adv-x="617" 
d="M65 -8q-13 0 -21 9.5t-7 22.5q2 12 11.5 21t22.5 9t21 -9t6 -21q-2 -14 -11 -23t-22 -9zM551 -8q-13 0 -21 9.5t-7 22.5q2 12 11.5 21t22.5 9t21 -9t6 -21q-2 -14 -11 -23t-22 -9zM308 -8q-13 0 -21 9.5t-7 22.5q2 12 11.5 21t22.5 9t21 -9t6 -21q-2 -14 -11 -23t-22 -9z
" />
    <glyph glyph-name="perthousand" unicode="&#x2030;" horiz-adv-x="880" 
d="M616 119q-5 -42 21 -72t68 -30t74.5 30t37.5 72t-21.5 72.5t-68.5 30.5t-74 -30.5t-37 -72.5zM581 119q6 57 49.5 97t99.5 40q57 0 92.5 -40t29.5 -97q-6 -56 -49.5 -96t-100.5 -40q-56 0 -91.5 40t-29.5 96zM379 630q-6 -56 -50.5 -96t-100.5 -40t-92 40t-30 96
q6 57 50.5 97t100.5 40q75 0 108 -63q19 -31 53 -31q44 0 68 41l26 53l31 -13l-402 -771l-30 13l338 649q-22 -6 -34 -6q-17 0 -35 8q0 -3 -0.5 -8.5t-0.5 -8.5zM274 119q6 57 50 97t101 40q56 0 91.5 -40t29.5 -97q-6 -56 -49.5 -96t-99.5 -40q-57 0 -93 40t-30 96z
M344 630q5 42 -21.5 72.5t-68.5 30.5t-75 -30.5t-38 -72.5q-4 -43 22.5 -72.5t68.5 -29.5q43 0 75 29.5t37 72.5zM309 119q-5 -42 21.5 -72t69.5 -30q42 0 74 30t37 72t-21 72.5t-68 30.5t-75 -30.5t-38 -72.5z" />
    <glyph glyph-name="guilsinglleft" unicode="&#x2039;" horiz-adv-x="251" 
d="M259 460l-5 -48l-136 -122l110 -123l-5 -48l-153 171z" />
    <glyph glyph-name="guilsinglright" unicode="&#x203a;" horiz-adv-x="251" 
d="M83 412l5 48l153 -170l-189 -171l5 48l136 123z" />
    <glyph glyph-name="fraction" unicode="&#x2044;" horiz-adv-x="454" 
d="M58 -11l401 778l14 -6l-400 -778z" />
    <glyph glyph-name="Euro" unicode="&#x20ac;" horiz-adv-x="653" 
d="M463 323l-15 -33h-265l-6 -60q-10 -88 46.5 -150.5t144.5 -62.5t156.5 62.5t78.5 150.5l1 16h34l-1 -16q-11 -102 -90.5 -174.5t-181.5 -72.5q-103 0 -168 72.5t-54 174.5l6 60h-84l3 33h84l11 103h-84l4 34h84l6 59q10 103 90.5 175.5t183.5 72.5q102 0 166.5 -72.5
t53.5 -175.5l-2 -16h-34l2 16q9 89 -46 151.5t-143 62.5q-89 0 -158.5 -63t-78.5 -151l-6 -59h323l-17 -34h-310l-11 -103h277z" />
    <glyph glyph-name="trademark" unicode="&#x2122;" horiz-adv-x="361" 
d="M321 750v-150h-14v118l-54 -118h-13l-55 118v-118h-14v150h14l61 -132l61 132h14zM158 736h-52v-136h-14v136h-52v14h118v-14z" />
    <glyph glyph-name="Omega" unicode="&#x2126;" horiz-adv-x="864" 
d="M863 375q-12 -109 -75 -199.5t-159 -141.5h181l-3 -34h-262l3 35q112 36 189.5 129t90.5 211q16 148 -77 253t-242 105q-148 0 -263.5 -105t-131.5 -253q-13 -118 46 -211t164 -129l-3 -35h-264l3 34h182q-85 51 -130 142t-33 199q17 162 144 277t289 115
q163 0 265.5 -115t85.5 -277z" />
    <glyph glyph-name="partialdiff" unicode="&#x2202;" horiz-adv-x="650" 
d="M643 324q-23 -166 -110.5 -253.5t-213.5 -87.5q-121 0 -193 80t-59 200q13 119 100.5 199.5t200.5 80.5q194 0 244 -167l3 2q9 88 -1 153t-32 102.5t-58 60.5t-72 30.5t-80 7.5q-38 0 -91.5 -12t-89.5 -28l4 36q33 15 82.5 26.5t88.5 11.5q34 0 62.5 -3.5t59 -11.5
t54 -23.5t45 -38t35.5 -56.5t22.5 -77.5t8 -102t-9.5 -129.5zM594 263q11 103 -52.5 174.5t-167.5 71.5q-103 0 -182 -71.5t-90 -174.5t53 -174.5t167 -71.5q104 0 182.5 71.5t89.5 174.5z" />
    <glyph glyph-name="Delta" unicode="&#x2206;" horiz-adv-x="591" 
d="M20 0l336 750h35l180 -750h-551zM71 34h455l-158 661z" />
    <glyph glyph-name="product" unicode="&#x220f;" horiz-adv-x="619" 
d="M599 716h-144v-716h-34v716h-222v-716h-34v716h-145v34h579v-34z" />
    <glyph glyph-name="summation" unicode="&#x2211;" horiz-adv-x="551" 
d="M68 34h463v-34h-511v34l342 341l-342 340v35h511v-34h-463l342 -341z" />
    <glyph glyph-name="minus" unicode="&#x2212;" horiz-adv-x="679" 
d="M50 307h579v-34h-579v34z" />
    <glyph glyph-name="radical" unicode="&#x221a;" horiz-adv-x="448" 
d="M102 267l84 -217l196 700h36l-210 -750h-39l-90 223l-19 -46l-30 14l32 76h40z" />
    <glyph glyph-name="infinity" unicode="&#x221e;" horiz-adv-x="694" 
d="M347 330q64 102 143 102q63 0 108.5 -41t45.5 -101q0 -61 -45.5 -102t-108.5 -41q-78 0 -143 99q-65 -99 -143 -99q-63 0 -108.5 41t-45.5 102q0 60 45.5 101t108.5 41q79 0 143 -102zM609 290q0 47 -35 77.5t-84 30.5q-32 0 -60.5 -24t-65.5 -86q37 -61 65.5 -84
t60.5 -23q49 0 84 30.5t35 78.5zM85 290q0 -48 35 -78.5t84 -30.5q32 0 60.5 23t65.5 84q-37 62 -65.5 86t-60.5 24q-49 0 -84 -30.5t-35 -77.5z" />
    <glyph glyph-name="integral" unicode="&#x222b;" horiz-adv-x="285" 
d="M161 633v-687q0 -55 -39 -86t-98 -31h-9v34h9q45 0 74.5 21.5t28.5 61.5v687q0 55 38.5 86t97.5 31h7v-34h-7q-44 0 -72.5 -21t-29.5 -62z" />
    <glyph glyph-name="approxequal" unicode="&#x2248;" horiz-adv-x="680" 
d="M50 189v33l24 8t56.5 14.5t77.5 12.5t76.5 -5.5t64.5 -32.5t62 -32.5t74.5 -3.5t70 13.5t54.5 17.5l20 8v-33q-8 -4 -22 -9t-54 -15.5t-76 -13t-78 7t-69 35.5q-24 23 -62 31t-75 3t-70 -13.5t-54 -16.5zM50 359v34l24 8t56.5 14.5t77.5 12.5t76.5 -6t64.5 -33t62 -32
t74.5 -3t70 13.5t54.5 16.5l20 9v-34q-8 -4 -22 -9t-54 -15t-76 -13t-78 6.5t-69 35.5q-24 23 -62 31t-75 3t-70 -13.5t-54 -16.5z" />
    <glyph glyph-name="notequal" unicode="&#x2260;" horiz-adv-x="680" 
d="M432 358l-135 -136h333v-34h-368l-95 -96h-48l95 96h-164v34h199l135 136h-334v34h368l99 98h48l-99 -98h164v-34h-198z" />
    <glyph glyph-name="lessequal" unicode="&#x2264;" horiz-adv-x="422" 
d="M382 171l-342 187v34l342 187v-38l-302 -166l302 -166v-38zM40 34h342v-34h-342v34z" />
    <glyph glyph-name="greaterequal" unicode="&#x2265;" horiz-adv-x="422" 
d="M382 358l-342 -187v38l302 166l-302 166v38l342 -187v-34zM40 34h342v-34h-342v34z" />
    <glyph glyph-name="lozenge" unicode="&#x25ca;" horiz-adv-x="558" 
d="M296 0h-34l-222 375l222 375h34l222 -375zM80 375l200 -337l198 337l-198 337z" />
    <glyph glyph-name="uniF8FF" unicode="&#xf8ff;" horiz-adv-x="500" 
 />
    <glyph glyph-name="ff" unicode="&#xfb00;" horiz-adv-x="602" 
d="M488 579h154l-3 -34h-154l-57 -545h-34l57 545h-272l-57 -545h-34l57 545h-68l3 34h68l5 44q6 61 42.5 94t96.5 33h62l-3 -34h-62q-93 0 -102 -93l-5 -44h272l5 44q6 61 42.5 94t96.5 33h62l-3 -34h-62q-93 0 -102 -93z" />
    <glyph glyph-name="fi" unicode="&#xfb01;" horiz-adv-x="487" 
d="M182 579h305l-60 -579h-34l57 545h-271l-57 -545h-34l57 545h-68l3 34h68l5 44q6 61 42.5 94t96.5 33h62l-3 -34h-62q-93 0 -102 -93zM464 743q1 10 8.5 17t17.5 7t16.5 -7t5.5 -17q-2 -10 -9.5 -17t-17.5 -7t-16 7t-5 17z" />
    <glyph glyph-name="fl" unicode="&#xfb02;" horiz-adv-x="487" 
d="M336 579l-3 -34h-154l-57 -545h-34l57 545h-68l3 34h68l5 44q13 127 139 127h213l-78 -750h-34l75 716h-179q-47 0 -72 -21t-30 -72l-5 -44h154z" />
    <glyph glyph-name="ffi" unicode="&#xfb03;" horiz-adv-x="793" 
d="M488 579h305l-60 -579h-34l57 545h-271l-57 -545h-34l57 545h-272l-57 -545h-34l57 545h-68l3 34h68l5 44q6 61 42.5 94t96.5 33h62l-3 -34h-62q-93 0 -102 -93l-5 -44h272l5 44q6 61 42.5 94t96.5 33h62l-3 -34h-62q-93 0 -102 -93zM770 743q1 10 8.5 17t17.5 7t16.5 -7
t5.5 -17q-2 -10 -9.5 -17t-17.5 -7t-16 7t-5 17z" />
    <glyph glyph-name="ffl" unicode="&#xfb04;" horiz-adv-x="794" 
d="M643 579l-3 -34h-154l-57 -545h-34l57 545h-273l-57 -545h-34l57 545h-68l3 34h68l5 44q6 61 42.5 94t96.5 33h62l-3 -34h-62q-93 0 -102 -93l-5 -44h273l5 44q13 127 139 127h213l-78 -750h-34l75 716h-179q-47 0 -72 -21t-30 -72l-5 -44h154z" />
    <glyph glyph-name="tt" unicode="&#xfb05;" horiz-adv-x="599" 
d="M179 545l-44 -414q-5 -48 18.5 -72.5t68.5 -24.5h57l-3 -34h-57q-58 0 -91 33t-27 97l44 415h-68l3 34h68l14 131h34l-14 -131h269l14 131h34l-14 -131h154l-3 -34h-154l-44 -414q-5 -48 18.5 -72.5t68.5 -24.5h57l-3 -34h-57q-58 0 -91 33t-27 97l44 415h-269z" />
    <glyph glyph-name="ft" unicode="&#xfb06;" horiz-adv-x="599" 
d="M482 545l-44 -414q-5 -48 18.5 -72.5t68.5 -24.5h57l-3 -34h-57q-58 0 -91 33t-27 97l44 415h-269l-57 -545h-34l57 545h-68l3 34h68l5 44q6 61 42.5 94t96.5 33h62l-3 -34h-62q-93 0 -102 -93l-5 -44h269l14 131h34l-14 -131h154l-3 -34h-154z" />
    <glyph glyph-name="Publisher" horiz-adv-x="693" 
d="M653 290q0 -128 -89.5 -217.5t-217.5 -89.5q-127 0 -216.5 90t-89.5 217t89.5 216.5t216.5 89.5t217 -89.5t90 -216.5zM624 290q0 115 -81 196t-197 81q-114 0 -195.5 -81t-81.5 -196t81.5 -196.5t195.5 -81.5q116 0 197 81t81 197zM519 350q0 -60 -42 -102t-103 -42
h-109v-122h-36v411h145q61 0 103 -42.5t42 -102.5zM483 350q0 45 -32 77t-77 32h-109v-217h109q45 0 77 31.5t32 76.5z" />
    <glyph glyph-name="_0000" horiz-adv-x="501" 
 />
    </font>
</defs>
</svg>
