<?xml version="1.0" standalone="no"?>
<!DOCTYPE svg PUBLIC "-//W3C//DTD SVG 1.1//EN" "http://www.w3.org/Graphics/SVG/1.1/DTD/svg11.dtd" >
<svg xmlns="http://www.w3.org/2000/svg" xmlns:xlink="http://www.w3.org/1999/xlink" version="1.1">
<metadata>
Created by FontForge 20170731 at Mon Mar  9 23:26:04 2015
 By Aleksey,,,
 Copyright (c)2014 Talbot Type. All Rights Reserved
</metadata>
<defs>
<font id="Kamerik205-Regular10" horiz-adv-x="693" >
  <font-face 
    font-family="Kamerik205"
    font-weight="400"
    font-style="italic"
    font-stretch="normal"
    units-per-em="1000"
    panose-1="2 11 4 3 3 6 0 9 0 4"
    ascent="803"
    descent="-197"
    x-height="579"
    cap-height="750"
    bbox="-25 -204 1424 924"
    underline-thickness="28"
    underline-position="-128"
    slope="-12"
    unicode-range="U+0020-FB06"
  />
<missing-glyph horiz-adv-x="0" 
 />
    <glyph glyph-name=".notdef" horiz-adv-x="0" 
 />
    <glyph glyph-name=".null" horiz-adv-x="0" 
 />
    <glyph glyph-name="nonmarkingreturn" horiz-adv-x="333" 
 />
    <glyph glyph-name="space" unicode=" " horiz-adv-x="270" 
 />
    <glyph glyph-name="exclam" unicode="!" horiz-adv-x="137" 
d="M92 170h-13l59 580h17zM54 7q2 15 17 15q6 0 10 -4.5t3 -10.5q-2 -15 -16 -15q-6 0 -10.5 4.5t-3.5 10.5z" />
    <glyph glyph-name="quotedbl" unicode="&#x22;" horiz-adv-x="147" 
d="M65 628h-15v122h15v-122zM82 750h15v-122h-15v122z" />
    <glyph glyph-name="numbersign" unicode="#" horiz-adv-x="620" 
d="M451 452h-154l-49 -154h153zM468 452l-49 -154h212l-2 -17h-215l-90 -281h-16l87 281h-152l-89 -281h-17l89 281h-177l2 17h181l48 154h-213l2 17h217l89 281h17l-89 -281h153l88 281h17l-88 -281h176l-2 -17h-179z" />
    <glyph glyph-name="dollar" unicode="$" horiz-adv-x="489" 
d="M497 569h-17q8 76 -38.5 128.5t-122.5 52.5t-133.5 -52.5t-65.5 -128.5t38.5 -127.5t122.5 -51.5q84 0 140 -61t47 -143q-8 -80 -73 -139.5t-144 -63.5l-6 -51h-17l6 51q-80 4 -131.5 63.5t-43.5 139.5h17q-8 -76 42 -131t126 -55t137 55t69 131t-43 131.5t-127 55.5
q-83 0 -134.5 57t-43.5 139q9 81 69.5 137.5t141.5 60.5l5 50h17l-5 -50q79 -4 127.5 -60.5t39.5 -137.5z" />
    <glyph glyph-name="percent" unicode="%" horiz-adv-x="556" 
d="M379 630q-6 -56 -50.5 -96t-100.5 -40q-57 0 -92.5 40t-29.5 96q6 57 50 97t101 40q74 0 107 -63q19 -31 54 -31q42 0 66 40l28 54l14 -7l-404 -777l-15 7l354 678q-22 -12 -45 -12q-21 0 -38 11q3 -16 1 -37zM255 119q6 57 50 97t101 40q56 0 92 -40t30 -97
q-6 -56 -50 -96t-100 -40q-57 0 -93 40t-30 96zM361 630q5 49 -26 84.5t-80 35.5t-87.5 -35t-43.5 -85q-5 -49 26 -84t80 -35t87.5 35t43.5 84zM273 119q-5 -49 26 -84t81 -35q49 0 87 35t43 84q5 50 -25.5 85t-79.5 35t-88 -35t-44 -85z" />
    <glyph glyph-name="ampersand" unicode="&#x26;" horiz-adv-x="642" 
d="M564 362l-27 -255q-4 -37 19 -63.5t59 -26.5l-1 -17q-43 0 -70.5 31.5t-23.5 75.5l3 29q-36 -68 -101.5 -110.5t-140.5 -42.5q-101 0 -164.5 71t-53.5 172q9 85 68.5 150.5t142.5 85.5q-43 17 -67 57t-18 90q7 65 58 111.5t116 46.5t106.5 -46.5t34.5 -111.5t-58 -111
t-116 -46q-94 0 -166.5 -66t-82.5 -160t49 -160t153 -66t166.5 66t82.5 160l15 136q4 44 38.5 75.5t77.5 31.5l-2 -17q-37 0 -65 -26.5t-32 -63.5zM332 469q58 0 102.5 40.5t51.5 99.5q6 58 -30.5 99.5t-94.5 41.5t-103 -41.5t-51 -99.5q-7 -58 30 -99t95 -41z" />
    <glyph glyph-name="quotesingle" unicode="'" horiz-adv-x="115" 
d="M65 628h-15v122h15v-122z" />
    <glyph glyph-name="parenleft" unicode="(" horiz-adv-x="270" 
d="M128 289q-13 -127 11 -252t81 -225h-22q-55 100 -78.5 224.5t-9.5 252.5t63 253.5t125 224.5h22q-78 -99 -128 -224.5t-64 -253.5z" />
    <glyph glyph-name="parenright" unicode=")" horiz-adv-x="270" 
d="M202 289q13 128 -11 253.5t-81 224.5h22q55 -100 78.5 -225t9.5 -253t-63 -253t-125 -224h-22q77 99 128 224.5t64 252.5z" />
    <glyph glyph-name="asterisk" unicode="*" horiz-adv-x="361" 
d="M235 639l-83 47l10 16l80 -52l9 100h17l-13 -100l90 52l8 -16l-92 -47l82 -48l-11 -16l-80 52l-7 -100h-17l11 100l-90 -52l-7 16z" />
    <glyph glyph-name="plus" unicode="+" horiz-adv-x="680" 
d="M50 299h282v281h17v-281h281v-17h-281v-282h-17v282h-282v17z" />
    <glyph glyph-name="comma" unicode="," horiz-adv-x="160" 
d="M33 -71h4q14 0 16 14l5 49h-3q-9 0 -14.5 6t-4.5 15q1 8 7.5 14t15.5 6q8 0 13 -6t4 -14l-7 -70q-2 -13 -11.5 -22t-22.5 -9h-4z" />
    <glyph glyph-name="hyphen" unicode="-" horiz-adv-x="464" 
d="M101 299h324l-2 -17h-324z" />
    <glyph glyph-name="period" unicode="." horiz-adv-x="160" 
d="M36 12q1 8 7.5 14t14.5 6t13.5 -6t4.5 -14t-7.5 -14t-14.5 -6t-13.5 6t-4.5 14z" />
    <glyph glyph-name="slash" unicode="/" horiz-adv-x="461" 
d="M74 -17l-16 7l407 777l15 -7z" />
    <glyph glyph-name="zero" unicode="0" horiz-adv-x="599" 
d="M601 519l-30 -289q-11 -102 -91 -174.5t-182 -72.5q-103 0 -168 72.5t-54 174.5l30 289q10 103 90.5 175.5t183.5 72.5q102 0 166.5 -72.5t54.5 -175.5zM554 230l30 289q10 96 -50.5 163.5t-155.5 67.5t-170 -67.5t-85 -163.5l-30 -289q-10 -95 51 -162.5t156 -67.5
t169.5 67.5t84.5 162.5z" />
    <glyph glyph-name="one" unicode="1" horiz-adv-x="223" 
d="M222 730l-112 -60l2 18l112 62h17l-78 -750h-17z" />
    <glyph glyph-name="two" unicode="2" horiz-adv-x="567" 
d="M470 331l-379 -314h421l-1 -17h-447l1 17l396 328q41 34 69 82t34 100q10 99 -46.5 161t-156.5 62q-99 0 -169 -62t-80 -161l-4 -33h-17l4 33q11 105 86.5 172.5t181.5 67.5q107 0 168.5 -67.5t50.5 -172.5q-11 -111 -112 -196z" />
    <glyph glyph-name="three" unicode="3" horiz-adv-x="589" 
d="M584 576q-16 -156 -179 -183q87 -12 130 -64t34 -137q-10 -97 -85 -153t-193 -56q-115 0 -179 59t-54 150h17q-9 -84 50.5 -138t167.5 -54q110 0 179 51t79 141q10 92 -49.5 142t-168.5 50h-42l2 17h42q98 0 160 45t71 130q9 83 -43 128.5t-152 45.5q-98 0 -160.5 -48.5
t-70.5 -125.5h-17q9 85 77 138t173 53q107 0 164 -50.5t47 -140.5z" />
    <glyph glyph-name="four" unicode="4" horiz-adv-x="608" 
d="M462 196h-410l2 17l464 537h19l-56 -537h117l-2 -17h-117l-20 -196h-17zM517 721l-442 -508h389z" />
    <glyph glyph-name="five" unicode="5" horiz-adv-x="589" 
d="M556 239q10 99 -52 168.5t-161 69.5q-58 0 -111 -26t-91 -71l-16 4l103 366h324l-1 -17h-310l-90 -319q85 80 193 80q106 0 173.5 -75t56.5 -180q-11 -107 -94 -181.5t-189 -74.5t-172.5 75t-55.5 181h17q-10 -99 52 -169t161 -70t176 69.5t87 169.5z" />
    <glyph glyph-name="six" unicode="6" horiz-adv-x="591" 
d="M345 477q-98 0 -175 -70t-87 -168q-10 -100 52 -169.5t160 -69.5q99 0 176 69.5t87 169.5q10 99 -52 168.5t-161 69.5zM346 494q106 0 173.5 -75t56.5 -180q-11 -107 -94 -181.5t-189 -74.5t-172.5 75t-55.5 181q8 78 58 143l284 368h20l-233 -303q70 47 152 47z" />
    <glyph glyph-name="seven" unicode="7" horiz-adv-x="540" 
d="M103 733l1 17h484l-2 -18l-382 -732h-18l383 733h-466z" />
    <glyph glyph-name="eight" unicode="8" horiz-adv-x="591" 
d="M125 576q10 90 77 140.5t174 50.5t164 -50.5t47 -140.5q-8 -76 -54.5 -123t-124.5 -60q86 -12 129 -65t35 -136q-10 -97 -85 -153t-193 -56t-181 56t-53 153q8 83 62.5 136t143.5 65q-75 13 -112 60.5t-29 122.5zM554 192q9 90 -50.5 141t-167.5 51t-178.5 -51
t-79.5 -141q-10 -90 48.5 -141t169.5 -51q110 0 179 51t79 141zM569 576q9 83 -43 128.5t-152 45.5t-161 -45.5t-70 -128.5q-9 -82 44.5 -128.5t150.5 -46.5t159.5 46.5t71.5 128.5z" />
    <glyph glyph-name="nine" unicode="9" horiz-adv-x="591" 
d="M324 273q98 0 174.5 70t87.5 168q10 100 -52 169.5t-160 69.5q-99 0 -176 -69.5t-87 -169.5q-11 -98 51.5 -168t161.5 -70zM322 256q-106 0 -173 75t-56 180q11 107 94 181.5t189 74.5t172.5 -75t55.5 -181q-7 -76 -58 -143l-284 -368h-20l232 303q-69 -47 -152 -47z" />
    <glyph glyph-name="colon" unicode=":" horiz-adv-x="160" 
d="M36 12q1 8 7.5 14t14.5 6t13.5 -6t4.5 -14t-7.5 -14t-14.5 -6t-13.5 6t-4.5 14zM94 566q1 8 7.5 14t14.5 6t13.5 -6t4.5 -14t-7.5 -14t-14.5 -6t-13.5 6t-4.5 14z" />
    <glyph glyph-name="semicolon" unicode=";" horiz-adv-x="160" 
d="M33 -71h4q14 0 16 14l5 49h-3q-9 0 -14.5 6t-4.5 15q1 8 7.5 14t15.5 6q8 0 13 -6t4 -14l-7 -70q-2 -13 -11.5 -22t-22.5 -9h-4zM94 566q1 8 7.5 14t14.5 6t13.5 -6t4.5 -14t-7.5 -14t-14.5 -6t-13.5 6t-4.5 14z" />
    <glyph glyph-name="less" unicode="&#x3c;" horiz-adv-x="422" 
d="M382 -1l-342 282v16l342 282v-22l-325 -268l325 -268v-22z" />
    <glyph glyph-name="equal" unicode="=" horiz-adv-x="680" 
d="M50 196v17h580v-17h-580zM630 384v-17h-580v17h580z" />
    <glyph glyph-name="greater" unicode="&#x3e;" horiz-adv-x="422" 
d="M382 281l-342 -282v22l325 268l-325 268v22l342 -282v-16z" />
    <glyph glyph-name="question" unicode="?" horiz-adv-x="591" 
d="M604 511q-10 -103 -90 -177t-184 -77l-11 -97h-17l12 113h9q99 0 175.5 70t87.5 168q10 100 -52 169.5t-161 69.5t-176 -69.5t-87 -169.5h-17q11 106 93.5 181t188.5 75q107 0 173.5 -75t55.5 -181zM311 7q-2 -15 -17 -15q-6 0 -10.5 4t-3.5 11q2 15 17 15q7 0 11 -4.5
t3 -10.5z" />
    <glyph glyph-name="at" unicode="@" horiz-adv-x="874" 
d="M675 375q9 85 -44.5 144.5t-138.5 59.5t-150.5 -59.5t-74.5 -144.5t44 -144.5t138 -59.5t151 59.5t75 144.5zM863 375l-13 -127q-4 -40 -34.5 -67t-69.5 -27t-63.5 27t-20.5 67l4 42q-32 -62 -90.5 -99t-127.5 -37q-92 0 -150.5 64.5t-48.5 156.5t81.5 156.5t163.5 64.5
t150 -64.5t48 -156.5l-13 -127q-4 -33 16 -55t52 -22t57 22t29 55l13 127q16 155 -82.5 265t-253.5 110t-275.5 -110t-137.5 -265t81.5 -265t253.5 -110q90 0 172 40l5 -16q-87 -41 -179 -41q-162 0 -265 115t-86 277t144 277t289 115t265 -115t86 -277z" />
    <glyph glyph-name="A" unicode="A" horiz-adv-x="677" 
d="M145 213h431l-161 513zM662 0h-18l-63 196h-445l-102 -196h-19l394 750h17z" />
    <glyph glyph-name="B" unicode="B" horiz-adv-x="662" 
d="M431 0h-371l78 750h353q72 0 118.5 -54.5t38.5 -129.5q-6 -58 -44.5 -104.5t-94.5 -66.5q65 -16 103 -70t31 -124q-9 -81 -70.5 -139t-141.5 -62zM625 201q8 76 -39.5 129t-123.5 53h-345l-39 -366h345q76 0 135 53.5t67 130.5zM119 400h328q69 0 122 48.5t61 117.5
q7 70 -36 118.5t-112 48.5h-328z" />
    <glyph glyph-name="C" unicode="C" horiz-adv-x="839" 
d="M855 486h-18q-24 116 -115.5 190t-216.5 74q-154 0 -275 -110t-138 -265q-16 -155 82 -265t253 -110q125 0 231.5 74t154.5 190h18q-50 -123 -162 -202t-244 -79q-162 0 -265 115t-86 277t144 277t289 115q132 0 228 -79t120 -202z" />
    <glyph glyph-name="D" unicode="D" horiz-adv-x="726" 
d="M730 375q-17 -155 -138.5 -265t-275.5 -110h-256l78 750h256q155 0 253.5 -110t82.5 -265zM712 375q16 148 -77.5 253t-241.5 105h-239l-76 -716h239q148 0 263.5 105t131.5 253z" />
    <glyph glyph-name="E" unicode="E" horiz-adv-x="641" 
d="M78 17h529l-1 -17h-546l78 750h546l-1 -17h-529l-37 -349h460l-2 -17h-460z" />
    <glyph glyph-name="F" unicode="F" horiz-adv-x="603" 
d="M665 733h-511l-37 -350h443l-2 -17h-443l-38 -366h-17l78 750h528z" />
    <glyph glyph-name="G" unicode="G" horiz-adv-x="854" 
d="M794 0h-17l26 256q-48 -120 -152 -196.5t-226 -76.5q-162 0 -265 115t-86 277t144 277t289 115q123 0 215.5 -70t124.5 -181h-19q-31 104 -118.5 169t-204.5 65q-155 0 -275.5 -110t-137.5 -265t81.5 -265t253.5 -110q143 0 256 106.5t132 259.5h-350l2 17h367z" />
    <glyph glyph-name="H" unicode="H" horiz-adv-x="700" 
d="M640 0h-17l38 367h-546l-38 -367h-17l78 750h17l-38 -366h546l38 366h17z" />
    <glyph glyph-name="I" unicode="I" horiz-adv-x="137" 
d="M60 0l78 750h17l-78 -750h-17z" />
    <glyph glyph-name="J" unicode="J" horiz-adv-x="557" 
d="M257 -17q-106 0 -165.5 66t-48.5 172h17q-11 -99 44 -160t155 -61q99 0 166 61t78 160l55 529h17l-55 -529q-11 -106 -84 -172t-179 -66z" />
    <glyph glyph-name="K" unicode="K" horiz-adv-x="669" 
d="M318 375l336 -375h-24l-325 363l-210 -190l-18 -173h-17l78 750h17l-58 -553l611 553h24z" />
    <glyph glyph-name="L" unicode="L" horiz-adv-x="586" 
d="M572 17l-1 -17h-511l78 750h17l-77 -733h494z" />
    <glyph glyph-name="M" unicode="M" horiz-adv-x="870" 
d="M60 0l78 750h17l282 -728l434 728h17l-78 -750h-17l74 712l-423 -712h-17l-276 712l-74 -712h-17z" />
    <glyph glyph-name="N" unicode="N" horiz-adv-x="682" 
d="M605 0l-453 721l-75 -721h-17l78 750h17l453 -721l75 721h17l-78 -750h-17z" />
    <glyph glyph-name="O" unicode="O" horiz-adv-x="854" 
d="M858 375q-17 -162 -144 -277t-289 -115t-265 115t-86 277q16 153 133 266q131 126 300 126q162 0 265 -115t86 -277zM840 375q17 155 -81.5 265t-253.5 110t-275.5 -110t-137.5 -265t81.5 -265t253.5 -110t275.5 110t137.5 265z" />
    <glyph glyph-name="P" unicode="P" horiz-adv-x="657" 
d="M677 524q-11 -94 -83.5 -160t-166.5 -66h-319l-31 -298h-17l78 750h336q94 0 153.5 -66t49.5 -160zM659 524q9 86 -45.5 147.5t-140.5 61.5h-319l-44 -418h319q86 0 153 61t77 148z" />
    <glyph glyph-name="Q" unicode="Q" horiz-adv-x="844" 
d="M804 0h-385q-159 0 -260 112t-84 271q11 104 71.5 192.5t154.5 140t198 51.5q159 0 260 -112.5t85 -271.5q-14 -129 -102 -230t-212 -136h275zM93 383q-16 -152 79.5 -259t247.5 -107t271 107t135 259t-80.5 259.5t-248.5 107.5t-270 -107.5t-134 -259.5z" />
    <glyph glyph-name="R" unicode="R" horiz-adv-x="662" 
d="M677 524q-10 -86 -73.5 -150t-149.5 -75l119 -299h-19l-118 298h-328l-31 -298h-17l78 750h336q94 0 153.5 -66t49.5 -160zM659 524q9 86 -45.5 147.5t-140.5 61.5h-319l-44 -418h319q86 0 153 61t77 148z" />
    <glyph glyph-name="S" unicode="S" horiz-adv-x="591" 
d="M77 187q-9 -82 54 -134.5t164 -52.5q99 0 174 54.5t83 132.5q6 60 -16 100t-62 60t-89 33t-98.5 25t-90 29.5t-63 54t-16.5 91.5q8 78 83.5 132.5t174.5 54.5q101 0 164.5 -51.5t55.5 -134.5h-17q7 74 -52 121.5t-153 47.5q-92 0 -161 -49.5t-77 -120.5
q-5 -50 17.5 -83.5t63 -50t90 -28t99 -25.5t89 -35.5t61.5 -64.5t15 -106q-9 -85 -90.5 -144.5t-186.5 -59.5q-108 0 -176 57t-58 147h18z" />
    <glyph glyph-name="T" unicode="T" horiz-adv-x="609" 
d="M671 733h-281l-77 -733h-17l77 733h-281l1 17h579z" />
    <glyph glyph-name="U" unicode="U" horiz-adv-x="699" 
d="M717 750l-50 -477q-13 -120 -106 -205t-213 -85t-196.5 85t-63.5 205l50 477h17l-50 -477q-12 -113 60 -193t185 -80q112 0 200 80t100 193l50 477h17z" />
    <glyph glyph-name="V" unicode="V" horiz-adv-x="678" 
d="M741 750l-393 -750h-17l-238 750h19l230 -726l380 726h19z" />
    <glyph glyph-name="W" unicode="W" horiz-adv-x="898" 
d="M961 750l-291 -750h-16l-130 718l-278 -718h-18l-135 750h18l130 -718l278 718h17l129 -718l278 718h18z" />
    <glyph glyph-name="X" unicode="X" horiz-adv-x="617" 
d="M659 750h21l-321 -375l243 -375h-21l-235 361l-310 -361h-21l322 375l-244 375h21l235 -361z" />
    <glyph glyph-name="Y" unicode="Y" horiz-adv-x="635" 
d="M677 750h21l-333 -383l-38 -367h-17l38 367l-255 383h22l243 -367z" />
    <glyph glyph-name="Z" unicode="Z" horiz-adv-x="603" 
d="M584 17l-1 -17h-563l1 18l617 715h-541l1 17h563l-2 -18l-616 -715h541z" />
    <glyph glyph-name="bracketleft" unicode="[" horiz-adv-x="247" 
d="M80 -154h120l-1 -17h-137l96 921h137l-1 -17h-120z" />
    <glyph glyph-name="backslash" unicode="\" horiz-adv-x="461" 
d="M399 -10l-16 -7l-244 777l17 7z" />
    <glyph glyph-name="bracketright" unicode="]" horiz-adv-x="247" 
d="M13 -154h120l94 887h-120l1 17h137l-96 -921h-137z" />
    <glyph glyph-name="asciicircum" unicode="^" horiz-adv-x="597" 
d="M291 750h17l229 -374h-20l-218 356l-219 -356h-20z" />
    <glyph glyph-name="underscore" unicode="_" horiz-adv-x="519" 
d="M0 -91h579v-25h-579v25z" />
    <glyph glyph-name="grave" unicode="`" horiz-adv-x="351" 
d="M335 707l-168 33l3 27l166 -52z" />
    <glyph glyph-name="a" unicode="a" horiz-adv-x="607" 
d="M547 0h-17l16 155q-39 -74 -115 -123t-164 -49q-115 0 -169 52.5t-45 137.5q18 183 240 183h274l6 60q9 85 -45 124t-159 39q-100 0 -163.5 -36.5t-71.5 -110.5h-17q9 81 78 122.5t176 41.5q112 0 170.5 -43.5t48.5 -136.5zM555 238l10 101h-274q-203 0 -220 -166
q-9 -77 41.5 -125t156.5 -48q100 0 188 71t98 167z" />
    <glyph glyph-name="b" unicode="b" horiz-adv-x="714" 
d="M77 0h-17l78 750h17l-37 -359q41 91 126.5 148t184.5 57q127 0 207.5 -89.5t67.5 -216.5t-112.5 -217t-226.5 -90q-99 0 -172.5 57.5t-96.5 148.5zM107 290q-13 -120 63.5 -205t196.5 -85q119 0 212.5 85t106.5 205t-63.5 204.5t-195.5 84.5q-120 0 -213.5 -84.5
t-106.5 -204.5z" />
    <glyph glyph-name="c" unicode="c" horiz-adv-x="673" 
d="M678 391h-18q-24 84 -92.5 136t-160.5 52q-119 0 -212.5 -84.5t-106.5 -204.5t63.5 -205t195.5 -85q92 0 171.5 52t119.5 136h18q-41 -91 -126.5 -148t-184.5 -57q-127 0 -207.5 90t-67.5 217t112.5 216.5t226.5 89.5q99 0 172.5 -57t96.5 -148z" />
    <glyph glyph-name="d" unicode="d" horiz-adv-x="714" 
d="M654 0h-17l19 189q-41 -91 -126 -148.5t-184 -57.5q-128 0 -208.5 90t-67.5 217q14 127 113.5 216.5t226.5 89.5q99 0 172 -57t96 -148l37 359h17zM667 290q13 120 -63.5 204.5t-195.5 84.5q-120 0 -213.5 -84.5t-106.5 -204.5t63.5 -205t196.5 -85q119 0 212.5 85
t106.5 205z" />
    <glyph glyph-name="e" unicode="e" 
d="M683 290l-1 -8h-595q-8 -118 67.5 -200t192.5 -82q85 0 159.5 45.5t118.5 119.5h18q-44 -82 -125 -132t-173 -50q-127 0 -207.5 90t-67.5 217t112.5 216.5t226.5 89.5t207 -89.5t67 -216.5zM89 299h577q8 118 -66.5 199t-192.5 81q-117 0 -209.5 -81t-108.5 -199z" />
    <glyph glyph-name="f" unicode="f" horiz-adv-x="296" 
d="M165 579h171l-1 -17h-171l-59 -562h-17l59 562h-68l1 17h68l4 39q7 64 44 98t101 34h57l-1 -17h-57q-115 0 -127 -115z" />
    <glyph glyph-name="g" unicode="g" horiz-adv-x="583" 
d="M307 145q119 0 182.5 -41t54.5 -125q-9 -85 -81 -126t-191 -41q-120 0 -184 41t-55 126q6 52 38 89q-26 20 -23 52q10 88 194 98q-53 22 -82 71.5t-22 110.5q8 81 71.5 138.5t144.5 57.5q97 0 147 -76q8 32 34 54t58 22h12l-2 -17h-12q-28 0 -49.5 -19.5t-24.5 -47.5
q-2 -17 3 -29q14 -40 10 -83q-9 -81 -72.5 -138t-144.5 -57q-238 0 -247 -85q-3 -24 17 -39q70 64 224 64zM305 128q-111 0 -178.5 -36.5t-75.5 -112.5q-15 -150 223 -150q237 0 252 150q8 76 -51 112.5t-170 36.5zM512 400q7 75 -39.5 127t-120.5 52t-131.5 -52t-64.5 -127
q-8 -74 38.5 -126t120.5 -52t131.5 52t65.5 126z" />
    <glyph glyph-name="h" unicode="h" horiz-adv-x="614" 
d="M77 0h-17l78 750h17l-32 -310q34 68 107 112t152 44q102 0 161 -66t49 -168l-38 -362h-17l38 362q10 94 -45 155.5t-150 61.5q-97 0 -177 -67.5t-90 -161.5z" />
    <glyph glyph-name="i" unicode="i" horiz-adv-x="137" 
d="M120 579h17l-60 -579h-17zM135 754q0 5 4.5 9t9.5 4q12 0 12 -13q-2 -13 -15 -13t-11 13z" />
    <glyph glyph-name="j" unicode="j" horiz-adv-x="230" 
d="M148 -44l65 623h17l-65 -623q-6 -56 -44.5 -91.5t-94.5 -35.5h-51l1 17h51q49 0 82.5 30t38.5 80zM228 754q0 13 13 13q12 0 12 -13q-2 -12 -15 -12q-12 0 -10 12z" />
    <glyph glyph-name="k" unicode="k" horiz-adv-x="530" 
d="M553 579h25l-320 -289l260 -290h-25l-248 278l-154 -139l-14 -139h-17l78 750h17l-61 -587z" />
    <glyph glyph-name="l" unicode="l" horiz-adv-x="137" 
d="M60 0l78 750h17l-78 -750h-17z" />
    <glyph glyph-name="m" unicode="m" horiz-adv-x="870" 
d="M853 415l-43 -415h-17l43 415q8 72 -33.5 118t-114.5 46t-134 -51.5t-68 -122.5l-42 -405h-17l42 405q8 73 -33.5 123.5t-113.5 50.5q-73 0 -134.5 -51.5t-68.5 -122.5l-42 -405h-17l60 579h17l-10 -96q28 51 83 82t114 31q65 0 110 -38t49 -96q24 58 83 96t124 38
q80 0 125.5 -50.5t37.5 -130.5z" />
    <glyph glyph-name="n" unicode="n" horiz-adv-x="614" 
d="M77 0h-17l60 579h17l-14 -139q34 68 107 112t152 44q102 0 161 -66t49 -168l-38 -362h-17l38 362q10 94 -45 155.5t-150 61.5q-97 0 -177 -67.5t-90 -161.5z" />
    <glyph glyph-name="o" unicode="o" 
d="M665 290q13 120 -63 204.5t-196 84.5q-119 0 -212 -84.5t-106 -204.5t63 -205t195 -85q120 0 213 85t106 205zM683 290q-14 -128 -113 -217.5t-226 -89.5t-207 90t-67 217q14 127 112.5 216.5t225.5 89.5t208 -89.5t67 -216.5z" />
    <glyph glyph-name="p" unicode="p" horiz-adv-x="714" 
d="M120 579h17l-20 -189q42 91 127 148.5t184 57.5q128 0 208.5 -90t67.5 -217q-14 -127 -113.5 -216.5t-226.5 -89.5q-99 0 -172 57t-96 148l-37 -359h-17zM107 289q-13 -120 63.5 -204.5t195.5 -84.5q120 0 213.5 84.5t106.5 204.5t-63.5 205t-196.5 85q-119 0 -212.5 -85
t-106.5 -205z" />
    <glyph glyph-name="q" unicode="q" horiz-adv-x="714" 
d="M697 579h17l-78 -750h-17l37 359q-41 -91 -126 -148t-184 -57q-128 0 -208.5 89.5t-67.5 216.5t112.5 217t227.5 90q99 0 172 -57.5t95 -148.5zM667 289q13 120 -63.5 205t-195.5 85q-120 0 -213.5 -85t-106.5 -205t63.5 -204.5t196.5 -84.5q119 0 212.5 84.5
t106.5 204.5z" />
    <glyph glyph-name="r" unicode="r" horiz-adv-x="297" 
d="M77 0h-17l60 579h17l-12 -113q32 60 88 95t122 35h9l-2 -17h-9q-81 0 -144.5 -57t-71.5 -139z" />
    <glyph glyph-name="s" unicode="s" horiz-adv-x="522" 
d="M55 149h17q-5 -48 23.5 -83t72.5 -50.5t93 -15.5q92 0 151.5 40t66.5 108q5 48 -14 78.5t-54 44t-77.5 21t-85 15.5t-77.5 21.5t-54 44t-14 77.5q7 65 68.5 105.5t151.5 40.5q87 0 140.5 -40.5t46.5 -108.5h-17q7 59 -43 95.5t-129 36.5q-82 0 -138 -36t-62 -93
q-6 -59 32.5 -88.5t98 -38.5t118 -20t96.5 -48t31 -107q-7 -75 -73 -120t-165 -45q-95 0 -153.5 44.5t-50.5 121.5z" />
    <glyph glyph-name="t" unicode="t" horiz-adv-x="296" 
d="M80 579h68l14 131h17l-14 -131h171l-1 -17h-171l-46 -431q-12 -114 102 -114h57l-1 -17h-57q-64 0 -94.5 33.5t-23.5 97.5l46 431h-68z" />
    <glyph glyph-name="u" unicode="u" horiz-adv-x="614" 
d="M597 579h17l-60 -579h-17l14 139q-34 -68 -107 -112t-152 -44q-102 0 -161 66t-49 168l38 362h17l-38 -362q-10 -94 45 -155.5t150 -61.5q97 0 177 67.5t90 161.5z" />
    <glyph glyph-name="v" unicode="v" horiz-adv-x="582" 
d="M608 579h19l-327 -579h-18l-207 579h19l199 -557z" />
    <glyph glyph-name="w" unicode="w" horiz-adv-x="818" 
d="M863 579l-253 -579h-17l-126 551l-241 -551h-17l-134 579h18l127 -550l241 550h18l126 -550l240 550h18z" />
    <glyph glyph-name="x" unicode="x" horiz-adv-x="535" 
d="M286 290l-211 289h22l201 -276l260 276h22l-272 -289l212 -290h-22l-202 276l-259 -276h-22z" />
    <glyph glyph-name="y" unicode="y" horiz-adv-x="582" 
d="M608 579h19l-425 -750h-19l98 173l-206 577h19l198 -557z" />
    <glyph glyph-name="z" unicode="z" horiz-adv-x="501" 
d="M43 17h439l-1 -17h-461l1 17l497 545h-439l1 17h461l-1 -17z" />
    <glyph glyph-name="braceleft" unicode="{" horiz-adv-x="315" 
d="M363 750l-2 -18q-39 0 -69 -27t-34 -66l-26 -247q-4 -34 -25.5 -61.5t-52.5 -40.5q28 -13 44 -41t12 -61l-26 -248q-4 -39 20.5 -66.5t63.5 -27.5l-1 -17q-46 0 -75.5 33t-24.5 78l26 248q4 38 -20.5 65.5t-63.5 27.5l2 17q39 0 69 27.5t35 66.5l26 247q5 46 40.5 78.5
t81.5 32.5z" />
    <glyph glyph-name="bar" unicode="|" horiz-adv-x="257" 
d="M137 -171h-17v921h17v-921z" />
    <glyph glyph-name="braceright" unicode="}" horiz-adv-x="315" 
d="M106 732l2 18q46 0 75.5 -32.5t24.5 -78.5l-26 -247q-4 -39 20.5 -66.5t63.5 -27.5l-2 -17q-39 0 -69 -27.5t-35 -65.5l-26 -248q-5 -45 -40.5 -78t-81.5 -33l1 17q39 0 69.5 27.5t34.5 66.5l26 248q4 33 25.5 61t52.5 41q-28 13 -44 40.5t-12 61.5l26 247q4 39 -21 66
t-64 27z" />
    <glyph glyph-name="asciitilde" unicode="~" horiz-adv-x="448" 
d="M77 257h-17q0 37 26.5 63.5t63.5 26.5q52 0 82 -54q25 -44 66 -44q30 0 51 21.5t21 51.5h18q0 -37 -26.5 -63.5t-63.5 -26.5q-53 0 -82 54q-24 44 -66 44q-31 0 -52 -21.5t-21 -51.5z" />
    <glyph glyph-name="uni00A0" unicode="&#xa0;" horiz-adv-x="500" 
 />
    <glyph glyph-name="exclamdown" unicode="&#xa1;" horiz-adv-x="137" 
d="M122 580h13l-58 -580h-17zM132 743q0 6 5 10.5t11 4.5q14 0 14 -15q-2 -15 -17 -15q-6 0 -10 4.5t-3 10.5z" />
    <glyph glyph-name="cent" unicode="&#xa2;" horiz-adv-x="673" 
d="M346 -85h-17l7 69q-124 4 -201.5 93t-64.5 213t109.5 212.5t220.5 92.5l7 70h17l-7 -69q96 -3 167.5 -60t93.5 -145h-18q-24 84 -92.5 136t-160.5 52q-119 0 -212.5 -84.5t-106.5 -204.5t63.5 -205t195.5 -85q92 0 171.5 52t119.5 136h18q-40 -88 -123 -145t-180 -60z
" />
    <glyph glyph-name="sterling" unicode="&#xa3;" horiz-adv-x="633" 
d="M148 149l23 218h-93l2 17h93l16 152q10 103 80.5 167t172.5 64q103 0 160.5 -63.5t46.5 -167.5h-17q10 96 -43 155t-149 59q-95 0 -159.5 -59t-74.5 -155l-16 -152h299l-2 -17h-299l-23 -218q-3 -36 -25 -74q48 24 100.5 16t86.5 -47q40 -44 101 -44t110 44q47 44 53 105
h17q-8 -70 -59 -117q-54 -49 -122.5 -49t-112.5 49q-39 44 -100.5 44.5t-108.5 -43.5l-55 -49l-11 12l55 48q48 46 54 105z" />
    <glyph glyph-name="currency" unicode="&#xa4;" horiz-adv-x="700" 
d="M640 567l-91 -91q75 -80 75 -186q0 -107 -75 -187l91 -91l-12 -12l-91 91q-79 -74 -187 -74t-187 74l-91 -91l-12 12l91 91q-75 80 -75 187q0 105 74 186l-90 91l12 12l90 -91q80 75 188 75q107 0 187 -75l91 91zM94 290q0 -106 75 -181t181 -75t181 75t75 181t-75 181
t-181 75t-181 -75t-75 -181z" />
    <glyph glyph-name="yen" unicode="&#xa5;" horiz-adv-x="548" 
d="M590 750h21l-203 -264h134l-2 -17h-145l-72 -94h207l-2 -17h-208l-37 -358h-17l37 358h-208l2 17h205l-52 94h-143l2 17h132l-148 264h20l202 -359z" />
    <glyph glyph-name="brokenbar" unicode="&#xa6;" horiz-adv-x="137" 
d="M77 341h-17v290h17v-290zM77 -48h-17v289h17v-289z" />
    <glyph glyph-name="section" unicode="&#xa7;" horiz-adv-x="492" 
d="M505 602h-17q7 67 -40.5 107.5t-123.5 40.5t-131 -40.5t-62 -107.5q-7 -61 40.5 -104t121.5 -43q83 0 135 -45.5t44 -119.5q-7 -59 -47.5 -99.5t-103.5 -57.5q60 -17 92 -56.5t26 -99.5q-8 -74 -69 -119.5t-144 -45.5t-135 45.5t-44 119.5h17q-7 -67 40 -107.5t124 -40.5
q76 0 131 40.5t62 107.5t-39.5 107.5t-122.5 40.5q-83 0 -135 45t-44 120q6 59 46.5 99t102.5 57q-57 17 -89.5 59.5t-26.5 96.5q7 73 68.5 119t144.5 46t134.5 -46t44.5 -119zM292 438q-76 0 -131.5 -40.5t-62.5 -107.5t39.5 -107.5t122.5 -40.5t131.5 40.5t62.5 107.5
t-39.5 107.5t-122.5 40.5z" />
    <glyph glyph-name="dieresis" unicode="&#xa8;" horiz-adv-x="196" 
d="M120 754q-2 -13 -15 -13t-11 13q0 5 4.5 9t9.5 4q12 0 12 -13zM260 754q-2 -13 -15 -13t-11 13q0 5 4.5 9t9.5 4q12 0 12 -13z" />
    <glyph glyph-name="copyright" unicode="&#xa9;" 
d="M159 290q0 -79 55 -134t132 -55t134 55l12 -12q-60 -60 -146 -60q-85 0 -145 60t-60 146q0 85 60 145t145 60q86 0 146 -60l-12 -12q-55 55 -134 55q-77 0 -132 -55t-55 -133zM640 290q0 122 -86 207.5t-208 85.5q-121 0 -207 -86t-86 -207q0 -122 86 -208t207 -86
q122 0 208 86t86 208zM653 290q0 -128 -89.5 -217.5t-217.5 -89.5q-127 0 -216.5 90t-89.5 217t89.5 216.5t216.5 89.5t217 -89.5t90 -216.5z" />
    <glyph glyph-name="ordfeminine" unicode="&#xaa;" horiz-adv-x="356" 
d="M345 469h-8l8 77q-20 -37 -58 -61.5t-82 -24.5q-58 0 -85 26t-22 69q10 92 121 92h137l3 30q4 42 -23 61.5t-80 19.5q-109 0 -118 -73h-8q4 40 39 61t88 21q56 0 85 -22t25 -68zM349 588l6 50h-137q-103 0 -111 -83q-4 -38 21 -62t78 -24q51 0 94.5 35t48.5 84z" />
    <glyph glyph-name="guillemotleft" unicode="&#xab;" horiz-adv-x="359" 
d="M187 290l179 162l-3 -24l-152 -138l123 -139l-2 -24zM217 151l-2 -24l-145 163l179 162l-3 -24l-152 -138z" />
    <glyph glyph-name="logicalnot" unicode="&#xac;" horiz-adv-x="445" 
d="M385 204h-18v77h-307v17h325v-94z" />
    <glyph glyph-name="registered" unicode="&#xae;" horiz-adv-x="319" 
d="M279 648q0 -49 -35 -84.5t-84 -35.5q-50 0 -85 35t-35 85q0 49 35.5 84t84.5 35t84 -35t35 -84zM265 648q0 44 -30.5 74.5t-74.5 30.5t-75 -30.5t-31 -74.5t31 -75t75 -31t74.5 31t30.5 75zM224 678q0 -35 -33 -47l30 -59l-15 -1l-29 58h-58v-57h-14v154h69
q21 0 35.5 -14t14.5 -34zM209 678q0 14 -10 24.5t-25 10.5h-55v-71h55q15 0 25 10t10 26z" />
    <glyph glyph-name="macron" unicode="&#xaf;" horiz-adv-x="307" 
d="M325 750l-1 -17h-187l1 17h187z" />
    <glyph glyph-name="degree" unicode="&#xb0;" horiz-adv-x="304" 
d="M237 665q0 35 -25 60t-60 25t-60 -25t-25 -60t25 -60t60 -25t60 25t25 60zM254 665q0 -42 -29.5 -72t-72.5 -30q-42 0 -72 30t-30 72q0 43 30 72.5t72 29.5q43 0 72.5 -29.5t29.5 -72.5z" />
    <glyph glyph-name="plusminus" unicode="&#xb1;" horiz-adv-x="679" 
d="M331 367h-281v17h281v195h17v-195h281v-17h-281v-196h-17v196zM50 17h579v-17h-579v17z" />
    <glyph glyph-name="twosuperior" unicode="&#xb2;" horiz-adv-x="323" 
d="M294 540l-189 -157h210l-1 -8h-223l1 8l197 163q46 39 52 92q5 50 -23.5 81t-78.5 31q-49 0 -84 -31t-40 -81l-2 -16h-8l2 16q5 53 42.5 86.5t90.5 33.5t84 -33.5t26 -86.5q-7 -58 -56 -98z" />
    <glyph glyph-name="threesuperior" unicode="&#xb3;" horiz-adv-x="335" 
d="M352 664q-7 -78 -89 -92q90 -13 81 -100q-5 -49 -42.5 -77t-96.5 -28q-57 0 -89 29.5t-27 75.5h8q-5 -42 25 -69t84 -27q56 0 90.5 25.5t38.5 70.5q5 46 -24.5 71t-84.5 25h-21l1 8h21q49 0 80.5 22.5t35.5 65.5q4 41 -22 64t-76 23q-48 0 -79 -24.5t-36 -62.5h-9
q5 42 39 68.5t86 26.5q54 0 82.5 -25t23.5 -70z" />
    <glyph glyph-name="acute" unicode="&#xb4;" horiz-adv-x="351" 
d="M338 740l-174 -33l1 8l176 52z" />
    <glyph glyph-name="mu" unicode="&#xb5;" horiz-adv-x="614" 
d="M42 -171l78 750h17l-38 -362q-10 -94 45 -155.5t150 -61.5q97 0 177 67.5t90 161.5l36 350h17l-60 -579h-17l14 139q-34 -68 -107 -112t-152 -44q-77 0 -131 38t-71 103l-31 -295h-17z" />
    <glyph glyph-name="paragraph" unicode="&#xb6;" horiz-adv-x="529" 
d="M337 375h-85q-78 0 -127 55t-41 133q7 77 68 132t139 55h256l-78 -750h-17l77 733h-137l-77 -733h-17zM102 563q-7 -71 37 -121t115 -50h85l36 341h-85q-70 0 -125.5 -50t-62.5 -120z" />
    <glyph glyph-name="periodcentered" unicode="&#xb7;" horiz-adv-x="160" 
d="M65 290q1 8 7.5 14t14.5 6t13.5 -6t4.5 -14t-7.5 -14t-14.5 -6t-13.5 6t-4.5 14z" />
    <glyph glyph-name="cedilla" unicode="&#xb8;" horiz-adv-x="361" 
d="M98 -99l31 99h13l-23 -75q35 35 84.5 17.5t43.5 -69.5q-4 -34 -30 -55.5t-60 -21.5q-33 0 -53.5 22t-17.5 55h13q-3 -27 14 -45.5t45 -18.5q29 0 50.5 18.5t24.5 45.5t-14.5 45t-46.5 18q-19 0 -36 -11t-25 -26z" />
    <glyph glyph-name="onesuperior" unicode="&#xb9;" horiz-adv-x="171" 
d="M180 740l-56 -30l1 9l56 31h8l-39 -375h-8z" />
    <glyph glyph-name="ordmasculine" unicode="&#xba;" horiz-adv-x="387" 
d="M401 614q6 60 -31.5 102t-97.5 42q-59 0 -105.5 -42t-52.5 -102t31.5 -102.5t96.5 -42.5q60 0 106.5 42.5t52.5 102.5zM411 614q-7 -64 -56.5 -109t-113.5 -45q-63 0 -103.5 45t-33.5 109q7 63 56.5 108t112.5 45q64 0 104.5 -45t33.5 -108z" />
    <glyph glyph-name="guillemotright" unicode="&#xbb;" horiz-adv-x="359" 
d="M87 452l145 -162l-179 -163l2 24l153 139l-124 138zM170 127l2 24l153 139l-124 138l3 24l145 -162z" />
    <glyph glyph-name="onequarter" unicode="&#xbc;" horiz-adv-x="579" 
d="M103 -16l-8 3l409 781l7 -3zM502 99h-205l1 8l232 268h9l-28 -268h59l-1 -8h-59l-10 -99h-8zM530 363l-222 -256h195zM180 740l-56 -30l1 9l56 31h8l-39 -375h-8z" />
    <glyph glyph-name="onehalf" unicode="&#xbd;" horiz-adv-x="650" 
d="M103 -16l-8 3l409 781l7 -3zM582 165l-190 -157h210v-8h-223v8l197 163q46 37 52 92q5 50 -23 81t-78 31q-49 0 -84.5 -31t-40.5 -81l-2 -16h-8l2 16q6 53 43.5 86.5t90.5 33.5q54 0 84.5 -33.5t24.5 -86.5q-6 -56 -55 -98zM180 740l-56 -30l1 9l56 31h8l-39 -375h-8z
" />
    <glyph glyph-name="threequarters" unicode="&#xbe;" horiz-adv-x="688" 
d="M212 -16l-8 3l409 781l7 -3zM611 99h-205l1 8l232 268h9l-28 -268h59l-1 -8h-59l-10 -99h-8zM639 363l-222 -256h195zM352 664q-7 -78 -89 -92q90 -13 81 -100q-5 -49 -42.5 -77t-96.5 -28q-57 0 -89 29.5t-27 75.5h8q-5 -42 25 -69t84 -27q56 0 90.5 25.5t38.5 70.5
q5 46 -24.5 71t-84.5 25h-21l1 8h21q49 0 80.5 22.5t35.5 65.5q4 41 -22 64t-76 23q-48 0 -79 -24.5t-36 -62.5h-9q5 42 39 68.5t86 26.5q54 0 82.5 -25t23.5 -70z" />
    <glyph glyph-name="questiondown" unicode="&#xbf;" horiz-adv-x="591" 
d="M65 239q10 103 90 177t184 77l11 97h17l-12 -113h-9q-99 0 -176 -70t-87 -168q-10 -100 52 -169.5t161 -69.5t176 69.5t87 169.5h17q-11 -106 -93.5 -181t-188.5 -75q-107 0 -173.5 75t-55.5 181zM358 743q2 15 17 15q6 0 10.5 -4t3.5 -11q-2 -15 -17 -15q-7 0 -11 4.5
t-3 10.5z" />
    <glyph glyph-name="Agrave" unicode="&#xc0;" horiz-adv-x="678" 
d="M577 213l-161 513l-270 -513h431zM645 0l-63 196h-446l-101 -196h-20l395 750h16l237 -750h-18zM509 800l-167 34l3 26l165 -51z" />
    <glyph glyph-name="Aacute" unicode="&#xc1;" horiz-adv-x="678" 
d="M577 213l-161 513l-270 -513h431zM645 0l-63 196h-446l-101 -196h-20l395 750h16l237 -750h-18zM512 834l-173 -34l1 9l175 51z" />
    <glyph glyph-name="Acircumflex" unicode="&#xc2;" horiz-adv-x="678" 
d="M645 0l-63 196h-446l-101 -196h-20l395 750h16l237 -750h-18zM577 213l-161 513l-270 -513h431zM432 876l-83 -86h-19l94 100h18l73 -100h-19z" />
    <glyph glyph-name="Atilde" unicode="&#xc3;" horiz-adv-x="678" 
d="M577 213l-161 513l-270 -513h431zM645 0l-63 196h-446l-101 -196h-20l395 750h16l237 -750h-18zM323 804h-17q3 27 24.5 46.5t48.5 19.5q35 0 55 -37q16 -31 42 -31q20 0 36 15t18 36h17q-3 -27 -24.5 -46.5t-48.5 -19.5q-37 0 -55 37q-12 30 -42 30q-19 0 -35.5 -15
t-18.5 -35z" />
    <glyph glyph-name="Adieresis" unicode="&#xc4;" horiz-adv-x="678" 
d="M577 213l-161 513l-270 -513h431zM645 0l-63 196h-446l-101 -196h-20l395 750h16l237 -750h-18zM372 847q-2 -13 -15 -13t-11 13q0 5 4.5 9t9.5 4q12 0 12 -13zM512 847q-2 -13 -15 -13t-11 13q0 5 4.5 9t9.5 4q12 0 12 -13z" />
    <glyph glyph-name="Aring" unicode="&#xc5;" horiz-adv-x="678" 
d="M577 213l-161 513l-270 -513h431zM645 0l-63 196h-446l-101 -196h-20l395 750h16l237 -750h-18zM487 851q2 23 -13.5 40.5t-38.5 17.5q-24 0 -43.5 -17.5t-21.5 -40.5q-2 -24 13.5 -41.5t39.5 -17.5q23 0 42.5 17.5t21.5 41.5zM502 851q-3 -31 -27 -52.5t-54 -21.5
q-31 0 -50.5 21.5t-16.5 52.5q3 30 27.5 51.5t55.5 21.5q30 0 49 -21.5t16 -51.5z" />
    <glyph glyph-name="AE" unicode="&#xc6;" horiz-adv-x="1125" 
d="M601 367l-37 -350h527l-1 -17h-544l20 196h-383l-162 -196h-21l624 750h544l-1 -17h-527l-37 -349h460l-2 -17h-460zM621 721l-422 -508h369z" />
    <glyph glyph-name="Ccedilla" unicode="&#xc7;" horiz-adv-x="839" 
d="M855 486h-18q-24 116 -115.5 190t-216.5 74q-154 0 -275 -110t-138 -265q-16 -155 82 -265t253 -110q125 0 231.5 74t154.5 190h18q-50 -123 -162 -202t-244 -79q-14 0 -40 2l-18 -60q35 35 84.5 17.5t43.5 -69.5q-4 -34 -30 -55.5t-60 -21.5q-33 0 -53.5 22t-17.5 55h13
q-3 -27 14 -45.5t45 -18.5q29 0 50.5 18.5t24.5 45.5t-14.5 45t-46.5 18q-19 0 -36 -11t-25 -26l-13 2l26 86q-142 19 -228 129.5t-70 258.5q17 162 144 277t289 115q132 0 228 -79t120 -202z" />
    <glyph glyph-name="Egrave" unicode="&#xc8;" horiz-adv-x="641" 
d="M505 800l-168 34l3 26l166 -51zM78 17h529l-1 -17h-546l78 750h546l-1 -17h-529l-37 -349h460l-2 -17h-460z" />
    <glyph glyph-name="Eacute" unicode="&#xc9;" horiz-adv-x="641" 
d="M508 834l-174 -34l1 9l176 51zM78 17h529l-1 -17h-546l78 750h546l-1 -17h-529l-37 -349h460l-2 -17h-460z" />
    <glyph glyph-name="Ecircumflex" unicode="&#xca;" horiz-adv-x="641" 
d="M78 17h529l-1 -17h-546l78 750h546l-1 -17h-529l-37 -349h460l-2 -17h-460zM426 876l-83 -86h-19l94 100h18l73 -100h-19z" />
    <glyph glyph-name="Edieresis" unicode="&#xcb;" horiz-adv-x="641" 
d="M78 17h529l-1 -17h-546l78 750h546l-1 -17h-529l-37 -349h460l-2 -17h-460zM364 847q-2 -13 -15 -13t-11 13q0 5 4.5 9t9.5 4q12 0 12 -13zM504 847q-2 -13 -15 -13t-11 13q0 5 4.5 9t9.5 4q12 0 12 -13z" />
    <glyph glyph-name="Igrave" unicode="&#xcc;" horiz-adv-x="146" 
d="M60 0l78 750h17l-78 -750h-17zM238 800l-167 34l3 26l165 -51z" />
    <glyph glyph-name="Iacute" unicode="&#xcd;" horiz-adv-x="137" 
d="M60 0l78 750h17l-78 -750h-17zM241 834l-173 -34l1 9l175 51z" />
    <glyph glyph-name="Icircumflex" unicode="&#xce;" horiz-adv-x="137" 
d="M60 0l78 750h17l-78 -750h-17zM161 876l-83 -86h-19l94 100h18l73 -100h-19z" />
    <glyph glyph-name="Idieresis" unicode="&#xcf;" horiz-adv-x="142" 
d="M60 0l78 750h17l-78 -750h-17zM103 847q-2 -13 -15 -13t-11 13q0 5 4.5 9t9.5 4q12 0 12 -13zM243 847q-2 -13 -15 -13t-11 13q0 5 4.5 9t9.5 4q12 0 12 -13z" />
    <glyph glyph-name="Eth" unicode="&#xd0;" horiz-adv-x="745" 
d="M749 375q-17 -155 -138.5 -265t-275.5 -110h-256l38 367h-59l2 17h59l38 366h256q155 0 253.5 -110t82.5 -265zM731 375q16 148 -77.5 253t-241.5 105h-239l-37 -349h163l-2 -17h-163l-37 -350h239q148 0 263.5 105t131.5 253z" />
    <glyph glyph-name="Ntilde" unicode="&#xd1;" horiz-adv-x="683" 
d="M606 0l-454 721l-75 -721h-17l78 750h17l454 -721l75 721h17l-78 -750h-17zM324 794h-17q3 27 24.5 46.5t48.5 19.5q35 0 55 -37q16 -31 42 -31q20 0 36 15t18 36h17q-3 -27 -24.5 -46.5t-48.5 -19.5q-37 0 -55 37q-12 30 -42 30q-19 0 -35.5 -15t-18.5 -35z" />
    <glyph glyph-name="Ograve" unicode="&#xd2;" horiz-adv-x="854" 
d="M858 375q-17 -162 -144 -277t-289 -115q-163 0 -265.5 115t-85.5 277q16 152 132 266q133 126 301 126q162 0 265 -115t86 -277zM841 375q16 155 -82.5 265t-253.5 110t-276 -110t-138 -265q-16 -155 82.5 -265t253.5 -110q101 0 192.5 50t151 136.5t70.5 188.5zM596 800
l-168 34l3 26l166 -51z" />
    <glyph glyph-name="Oacute" unicode="&#xd3;" horiz-adv-x="854" 
d="M858 375q-17 -162 -144 -277t-289 -115q-163 0 -265.5 115t-85.5 277q16 152 132 266q133 126 301 126q162 0 265 -115t86 -277zM841 375q16 155 -82.5 265t-253.5 110t-276 -110t-138 -265q-16 -155 82.5 -265t253.5 -110q101 0 192.5 50t151 136.5t70.5 188.5zM599 834
l-174 -34l1 9l176 51z" />
    <glyph glyph-name="Ocircumflex" unicode="&#xd4;" horiz-adv-x="854" 
d="M858 375q-17 -162 -144 -277t-289 -115q-163 0 -265.5 115t-85.5 277q16 152 132 266q133 126 301 126q162 0 265 -115t86 -277zM841 375q16 155 -82.5 265t-253.5 110t-276 -110t-138 -265q-16 -155 82.5 -265t253.5 -110q101 0 192.5 50t151 136.5t70.5 188.5zM519 876
l-83 -86h-19l94 100h18l73 -100h-19z" />
    <glyph glyph-name="Otilde" unicode="&#xd5;" horiz-adv-x="854" 
d="M858 375q-17 -162 -144 -277t-289 -115q-163 0 -265.5 115t-85.5 277q16 152 132 266q133 126 301 126q162 0 265 -115t86 -277zM841 375q16 155 -82.5 265t-253.5 110t-276 -110t-138 -265q-16 -155 82.5 -265t253.5 -110q101 0 192.5 50t151 136.5t70.5 188.5zM411 814
h-17q3 27 24.5 46.5t48.5 19.5q35 0 55 -37q16 -31 42 -31q20 0 36 15t18 36h17q-3 -27 -24.5 -46.5t-48.5 -19.5q-37 0 -55 37q-12 30 -42 30q-19 0 -35.5 -15t-18.5 -35z" />
    <glyph glyph-name="Odieresis" unicode="&#xd6;" horiz-adv-x="854" 
d="M858 375q-17 -162 -144 -277t-289 -115q-163 0 -265.5 115t-85.5 277q16 152 132 266q133 126 301 126q162 0 265 -115t86 -277zM841 375q16 155 -82.5 265t-253.5 110t-276 -110t-138 -265q-16 -155 82.5 -265t253.5 -110q101 0 192.5 50t151 136.5t70.5 188.5zM459 847
q-2 -13 -15 -13t-11 13q0 5 4.5 9t9.5 4q12 0 12 -13zM599 847q-2 -13 -15 -13t-11 13q0 5 4.5 9t9.5 4q12 0 12 -13z" />
    <glyph glyph-name="multiply" unicode="&#xd7;" horiz-adv-x="660" 
d="M608 579l12 -12l-278 -277l278 -278l-12 -12l-278 278l-278 -278l-12 12l278 278l-278 277l12 12l278 -277z" />
    <glyph glyph-name="Oslash" unicode="&#xd8;" horiz-adv-x="864" 
d="M174 115l585 530q-97 105 -249 105q-154 0 -275 -110t-138 -265q-16 -151 77 -260zM770 633l-586 -530q100 -103 248 -103q155 0 275.5 110t137.5 265q15 152 -75 258zM884 738l-101 -93q97 -111 80 -270q-17 -162 -143.5 -277t-289.5 -115q-157 0 -259 108l-102 -91
l-11 12l102 91q-97 117 -81 272q17 162 144 277t289 115q157 0 261 -110l100 93z" />
    <glyph glyph-name="Ugrave" unicode="&#xd9;" horiz-adv-x="699" 
d="M717 750l-50 -477q-13 -120 -106 -205t-213 -85t-196.5 85t-63.5 205l50 477h17l-50 -477q-12 -113 60 -193t185 -80q112 0 200 80t100 193l50 477h17zM519 800l-168 34l3 26l166 -51z" />
    <glyph glyph-name="Uacute" unicode="&#xda;" horiz-adv-x="699" 
d="M717 750l-50 -477q-13 -120 -106 -205t-213 -85t-196.5 85t-63.5 205l50 477h17l-50 -477q-12 -113 60 -193t185 -80q112 0 200 80t100 193l50 477h17zM522 834l-174 -34l1 9l176 51z" />
    <glyph glyph-name="Ucircumflex" unicode="&#xdb;" horiz-adv-x="699" 
d="M717 750l-50 -477q-13 -120 -106 -205t-213 -85t-196.5 85t-63.5 205l50 477h17l-50 -477q-12 -113 60 -193t185 -80q112 0 200 80t100 193l50 477h17zM442 876l-83 -86h-19l94 100h18l73 -100h-19z" />
    <glyph glyph-name="Udieresis" unicode="&#xdc;" horiz-adv-x="699" 
d="M717 750l-50 -477q-13 -120 -106.5 -205t-212.5 -85q-120 0 -196.5 85t-63.5 205l50 477h17l-50 -477q-12 -113 60 -193t185 -80q112 0 200 80t100 193l50 477h17zM382 847q-2 -13 -15 -13t-11 13q0 5 4.5 9t9.5 4q12 0 12 -13zM522 847q-2 -13 -15 -13t-11 13q0 5 4.5 9
t9.5 4q12 0 12 -13z" />
    <glyph glyph-name="Yacute" unicode="&#xdd;" horiz-adv-x="635" 
d="M490 834l-174 -34l1 9l176 51zM677 750h21l-333 -383l-38 -367h-17l38 367l-255 383h22l243 -367z" />
    <glyph glyph-name="Thorn" unicode="&#xde;" horiz-adv-x="650" 
d="M662 457q-9 -83 -74.5 -142t-148.5 -59h-336l-26 -256h-17l78 750h17l-9 -93h336q83 0 135.5 -58.5t44.5 -141.5zM644 457q8 76 -39.5 129.5t-124.5 53.5h-336l-39 -367h336q77 0 136 53.5t67 130.5z" />
    <glyph glyph-name="germandbls" unicode="&#xdf;" horiz-adv-x="536" 
d="M286 0h-157l1 17h157q79 0 141.5 56.5t71.5 136.5q8 79 -42.5 135t-129.5 56h-157l1 17h119q67 0 119 48.5t60 116.5q7 70 -36 118.5t-112 48.5t-123 -48.5t-61 -118.5q0 -2 -61 -583h-17l61 583q8 77 67.5 130.5t135.5 53.5t124 -53.5t40 -130.5q-6 -55 -42.5 -101.5
t-87.5 -65.5q76 -11 122 -69.5t38 -136.5q-10 -87 -77.5 -148.5t-154.5 -61.5z" />
    <glyph glyph-name="agrave" unicode="&#xe0;" horiz-adv-x="607" 
d="M470 707l-168 33l3 27l166 -52zM547 0h-17l16 155q-39 -74 -115 -123t-164 -49q-115 0 -169 52.5t-45 137.5q18 183 240 183h274l6 60q9 85 -45 124t-159 39q-100 0 -163.5 -36.5t-71.5 -110.5h-17q9 81 78 122.5t176 41.5q112 0 170.5 -43.5t48.5 -136.5zM555 238
l10 101h-274q-203 0 -220 -166q-9 -77 41.5 -125t156.5 -48q100 0 188 71t98 167z" />
    <glyph glyph-name="aacute" unicode="&#xe1;" horiz-adv-x="607" 
d="M473 740l-174 -33l1 8l176 52zM547 0h-17l16 155q-39 -74 -115 -123t-164 -49q-115 0 -169 52.5t-45 137.5q18 183 240 183h274l6 60q9 85 -45 124t-159 39q-100 0 -163.5 -36.5t-71.5 -110.5h-17q9 81 78 122.5t176 41.5q112 0 170.5 -43.5t48.5 -136.5zM555 238l10 101
h-274q-203 0 -220 -166q-9 -77 41.5 -125t156.5 -48q100 0 188 71t98 167z" />
    <glyph glyph-name="acircumflex" unicode="&#xe2;" horiz-adv-x="607" 
d="M389 766l-83 -86h-19l94 100h18l73 -100h-19zM547 0h-17l16 155q-39 -74 -115 -123t-164 -49q-115 0 -169 52.5t-45 137.5q18 183 240 183h274l6 60q9 85 -45 124t-159 39q-100 0 -163.5 -36.5t-71.5 -110.5h-17q9 81 78 122.5t176 41.5q112 0 170.5 -43.5t48.5 -136.5z
M555 238l10 101h-274q-203 0 -220 -166q-9 -77 41.5 -125t156.5 -48q100 0 188 71t98 167z" />
    <glyph glyph-name="atilde" unicode="&#xe3;" horiz-adv-x="607" 
d="M281 701h-17q3 27 24.5 46.5t48.5 19.5q35 0 55 -37q16 -31 42 -31q20 0 36 15t18 36h17q-2 -27 -24 -46.5t-49 -19.5q-37 0 -55 37q-12 30 -42 30q-19 0 -35.5 -15t-18.5 -35zM547 0h-17l16 155q-39 -74 -115 -123t-164 -49q-115 0 -169 52.5t-45 137.5q18 183 240 183
h274l6 60q9 85 -45 124t-159 39q-100 0 -163.5 -36.5t-71.5 -110.5h-17q9 81 78 122.5t176 41.5q112 0 170.5 -43.5t48.5 -136.5zM555 238l10 101h-274q-203 0 -220 -166q-9 -77 41.5 -125t156.5 -48q100 0 188 71t98 167z" />
    <glyph glyph-name="adieresis" unicode="&#xe4;" horiz-adv-x="607" 
d="M331 754q-2 -13 -15 -13t-11 13q0 5 4.5 9t9.5 4q12 0 12 -13zM471 754q-2 -13 -15 -13t-11 13q0 5 4.5 9t9.5 4q12 0 12 -13zM547 0h-17l16 155q-39 -74 -115 -123t-164 -49q-115 0 -169 52.5t-45 137.5q18 183 240 183h274l6 60q9 85 -45 124t-159 39
q-100 0 -163.5 -36.5t-71.5 -110.5h-17q9 81 78 122.5t176 41.5q112 0 170.5 -43.5t48.5 -136.5zM555 238l10 101h-274q-203 0 -220 -166q-9 -77 41.5 -125t156.5 -48q100 0 188 71t98 167z" />
    <glyph glyph-name="aring" unicode="&#xe5;" horiz-adv-x="607" 
d="M442 727q2 23 -13 40.5t-38 17.5q-25 0 -44 -17.5t-21 -40.5q-2 -24 13 -41.5t40 -17.5q23 0 42 17.5t21 41.5zM458 727q-3 -30 -27 -52t-54 -22q-31 0 -50.5 21.5t-16.5 52.5q3 30 27.5 51.5t55.5 21.5q29 0 48.5 -21.5t16.5 -51.5zM547 0h-17l16 155q-39 -74 -115 -123
t-164 -49q-115 0 -169 52.5t-45 137.5q18 183 240 183h274l6 60q9 85 -45 124t-159 39q-100 0 -163.5 -36.5t-71.5 -110.5h-17q9 81 78 122.5t176 41.5q112 0 170.5 -43.5t48.5 -136.5zM555 238l10 101h-274q-203 0 -220 -166q-9 -77 41.5 -125t156.5 -48q100 0 188 71
t98 167z" />
    <glyph glyph-name="ae" unicode="&#xe6;" horiz-adv-x="1182" 
d="M547 0h-17l16 155q-39 -74 -115 -123t-164 -49q-114 0 -169.5 46t-47.5 122q18 158 238 158h274l11 107q9 84 -45.5 123.5t-158.5 39.5q-100 0 -163.5 -36.5t-71.5 -110.5h-17q9 81 78 122.5t176 41.5q112 0 170.5 -44t48.5 -136l-2 -17q41 88 125.5 142.5t184.5 54.5
q128 0 208 -85t67 -211l-1 -8h-595q-9 -125 66 -208.5t193 -83.5q85 0 159.5 45.5t118.5 119.5h18q-44 -82 -125 -132t-173 -50q-100 0 -173 58.5t-94 152.5zM579 309h577q8 117 -66.5 193.5t-193.5 76.5q-118 0 -209.5 -76.5t-107.5 -193.5zM555 238l5 54h-274
q-202 0 -218 -141q-7 -68 44.5 -109.5t156.5 -41.5q100 0 188 71t98 167z" />
    <glyph glyph-name="ccedilla" unicode="&#xe7;" horiz-adv-x="673" 
d="M678 391h-18q-24 84 -92.5 136t-160.5 52q-119 0 -212.5 -84.5t-106.5 -204.5t63.5 -205t195.5 -85q92 0 171.5 52t119.5 136h18q-41 -91 -126.5 -148t-184.5 -57q-1 0 -40 3l-18 -61q35 35 84.5 17.5t43.5 -69.5q-4 -34 -30 -55.5t-60 -21.5q-33 0 -53.5 22t-17.5 55h13
q-3 -27 14 -45.5t45 -18.5q29 0 50.5 18.5t24.5 45.5t-14.5 45t-46.5 18q-19 0 -36 -11t-25 -26l-13 2l26 87q-106 18 -170 104t-52 198q13 127 112.5 216.5t226.5 89.5q99 0 172.5 -57t96.5 -148z" />
    <glyph glyph-name="egrave" unicode="&#xe8;" 
d="M503 707l-168 33l3 27l166 -52zM683 290l-1 -8h-595q-8 -118 67.5 -200t192.5 -82q85 0 159.5 45.5t118.5 119.5h18q-44 -82 -125 -132t-173 -50q-127 0 -207.5 90t-67.5 217t112.5 216.5t226.5 89.5t207 -89.5t67 -216.5zM89 299h577q8 118 -66.5 199t-192.5 81
q-117 0 -209.5 -81t-108.5 -199z" />
    <glyph glyph-name="eacute" unicode="&#xe9;" 
d="M506 740l-174 -33l1 8l176 52zM683 290l-1 -8h-595q-8 -118 67.5 -200t192.5 -82q85 0 159.5 45.5t118.5 119.5h18q-44 -82 -125 -132t-173 -50q-127 0 -207.5 90t-67.5 217t112.5 216.5t226.5 89.5t207 -89.5t67 -216.5zM89 299h577q8 118 -66.5 199t-192.5 81
q-117 0 -209.5 -81t-108.5 -199z" />
    <glyph glyph-name="ecircumflex" unicode="&#xea;" 
d="M427 766l-83 -86h-19l94 100h18l73 -100h-19zM683 290l-1 -8h-595q-8 -118 67.5 -200t192.5 -82q85 0 159.5 45.5t118.5 119.5h18q-44 -82 -125 -132t-173 -50q-127 0 -207.5 90t-67.5 217t112.5 216.5t226.5 89.5t207 -89.5t67 -216.5zM89 299h577q8 118 -66.5 199
t-192.5 81q-117 0 -209.5 -81t-108.5 -199z" />
    <glyph glyph-name="edieresis" unicode="&#xeb;" 
d="M369 754q-2 -13 -15 -13t-11 13q0 5 4.5 9t9.5 4q12 0 12 -13zM509 754q-2 -13 -15 -13t-11 13q0 5 4.5 9t9.5 4q12 0 12 -13zM683 290l-1 -8h-595q-8 -118 67.5 -200t192.5 -82q85 0 159.5 45.5t118.5 119.5h18q-44 -82 -125 -132t-173 -50q-127 0 -207.5 90t-67.5 217
t112.5 216.5t226.5 89.5t207 -89.5t67 -216.5zM89 299h577q8 118 -66.5 199t-192.5 81q-117 0 -209.5 -81t-108.5 -199z" />
    <glyph glyph-name="igrave" unicode="&#xec;" horiz-adv-x="137" 
d="M60 0l60 579h17l-60 -579h-17zM228 707l-168 33l3 27l166 -52z" />
    <glyph glyph-name="iacute" unicode="&#xed;" horiz-adv-x="137" 
d="M60 0l60 579h17l-60 -579h-17zM231 740l-174 -33l1 8l176 52z" />
    <glyph glyph-name="icircumflex" unicode="&#xee;" horiz-adv-x="136" 
d="M60 0l60 579h17l-60 -579h-17zM149 766l-83 -86h-19l94 100h18l73 -100h-19z" />
    <glyph glyph-name="idieresis" unicode="&#xef;" horiz-adv-x="136" 
d="M60 0l60 579h17l-60 -579h-17zM90 754q-2 -13 -15 -13t-11 13q0 5 4.5 9t9.5 4q12 0 12 -13zM230 754q-2 -13 -15 -13t-11 13q0 5 4.5 9t9.5 4q12 0 12 -13z" />
    <glyph glyph-name="eth" unicode="&#xf0;" horiz-adv-x="676" 
d="M344 609l-11 12l70 64l-58 65h24l48 -53l69 63l11 -12l-70 -63l174 -194q78 -84 64 -210q-13 -124 -109 -211t-220 -87t-202 87t-65 211q13 123 109 210.5t220 87.5q66 0 126 -29l-110 123zM588 479q-75 83 -191 83t-207 -82.5t-103 -198.5t61.5 -198.5t189.5 -82.5
t206.5 82.5t102.5 198.5q12 119 -59 198z" />
    <glyph glyph-name="ntilde" unicode="&#xf1;" horiz-adv-x="614" 
d="M77 0h-17l60 579h17l-14 -139q34 68 107 112t152 44q102 0 161 -66t49 -168l-38 -362h-17l38 362q10 94 -45 155.5t-150 61.5q-97 0 -177 -67.5t-90 -161.5zM292 701h-17q3 27 24.5 46.5t48.5 19.5q35 0 55 -37q16 -31 42 -31q20 0 36 15t18 36h17q-2 -27 -24 -46.5
t-49 -19.5q-37 0 -55 37q-12 30 -42 30q-19 0 -35.5 -15t-18.5 -35z" />
    <glyph glyph-name="ograve" unicode="&#xf2;" 
d="M665 290q13 120 -63 204.5t-196 84.5q-119 0 -212 -84.5t-106 -204.5t63 -205t195 -85q120 0 213 85t106 205zM683 290q-14 -128 -113 -217.5t-226 -89.5t-207 90t-67 217q14 127 112.5 216.5t225.5 89.5t208 -89.5t67 -216.5zM506 707l-168 33l3 27l166 -52z" />
    <glyph glyph-name="oacute" unicode="&#xf3;" 
d="M665 290q13 120 -63 204.5t-196 84.5q-119 0 -212 -84.5t-106 -204.5t63 -205t195 -85q120 0 213 85t106 205zM683 290q-14 -128 -113 -217.5t-226 -89.5t-207 90t-67 217q14 127 112.5 216.5t225.5 89.5t208 -89.5t67 -216.5zM509 740l-174 -33l1 8l176 52z" />
    <glyph glyph-name="ocircumflex" unicode="&#xf4;" 
d="M683 290q-14 -128 -113 -217.5t-226 -89.5t-207 90t-67 217q14 127 112.5 216.5t225.5 89.5t208 -89.5t67 -216.5zM665 290q13 120 -63 204.5t-196 84.5q-119 0 -212 -84.5t-106 -204.5t63 -205t195 -85q120 0 213 85t106 205zM426 766l-83 -86h-19l94 100h18l73 -100
h-19z" />
    <glyph glyph-name="otilde" unicode="&#xf5;" 
d="M665 290q13 120 -63 204.5t-196 84.5q-119 0 -212 -84.5t-106 -204.5t63 -205t195 -85q120 0 213 85t106 205zM683 290q-14 -128 -113 -217.5t-226 -89.5t-207 90t-67 217q14 127 112.5 216.5t225.5 89.5t208 -89.5t67 -216.5zM318 701h-17q3 27 24.5 46.5t48.5 19.5
q35 0 55 -37q16 -31 42 -31q20 0 36 15t18 36h17q-2 -27 -24 -46.5t-49 -19.5q-37 0 -55 37q-12 30 -42 30q-19 0 -35.5 -15t-18.5 -35z" />
    <glyph glyph-name="odieresis" unicode="&#xf6;" 
d="M665 290q13 120 -63 204.5t-196 84.5q-119 0 -212 -84.5t-106 -204.5t63 -205t195 -85q120 0 213 85t106 205zM683 290q-14 -128 -113 -217.5t-226 -89.5t-207 90t-67 217q14 127 112.5 216.5t225.5 89.5t208 -89.5t67 -216.5zM368 754q-2 -13 -15 -13t-11 13q0 5 4.5 9
t9.5 4q12 0 12 -13zM508 754q-2 -13 -15 -13t-11 13q0 5 4.5 9t9.5 4q12 0 12 -13z" />
    <glyph glyph-name="divide" unicode="&#xf7;" horiz-adv-x="679" 
d="M355 7q0 -6 -4.5 -10.5t-10.5 -4.5q-7 0 -11.5 4.5t-4.5 10.5q0 16 16 16q6 0 10.5 -4.5t4.5 -11.5zM324 571q0 6 4.5 11t11.5 5q6 0 10.5 -5t4.5 -11t-4.5 -11t-10.5 -5q-7 0 -11.5 5t-4.5 11zM50 298h579v-17h-579v17z" />
    <glyph glyph-name="oslash" unicode="&#xf8;" horiz-adv-x="701" 
d="M150 91l453 409q-77 79 -192 79q-120 0 -213 -84.5t-106 -204.5q-12 -116 58 -199zM614 488l-453 -409q74 -79 190 -79q120 0 212.5 85t105.5 205q12 115 -55 198zM707 573l-80 -73q72 -87 60 -210q-13 -127 -112 -217t-226 -90q-123 0 -201 84l-75 -67l-11 12l75 67
q-77 88 -63 211q13 127 112.5 216.5t226.5 89.5q124 0 203 -84l80 73z" />
    <glyph glyph-name="ugrave" unicode="&#xf9;" horiz-adv-x="614" 
d="M467 707l-168 33l3 27l166 -52zM597 579h17l-60 -579h-17l14 139q-34 -68 -107 -112t-152 -44q-102 0 -161 66t-49 168l38 362h17l-38 -362q-10 -94 45 -155.5t150 -61.5q97 0 177 67.5t90 161.5z" />
    <glyph glyph-name="uacute" unicode="&#xfa;" horiz-adv-x="614" 
d="M470 740l-174 -33l1 8l176 52zM597 579h17l-60 -579h-17l14 139q-34 -68 -107 -112t-152 -44q-102 0 -161 66t-49 168l38 362h17l-38 -362q-10 -94 45 -155.5t150 -61.5q97 0 177 67.5t90 161.5z" />
    <glyph glyph-name="ucircumflex" unicode="&#xfb;" horiz-adv-x="614" 
d="M388 766l-83 -86h-19l94 100h18l73 -100h-19zM597 579h17l-60 -579h-17l14 139q-34 -68 -107 -112t-152 -44q-102 0 -161 66t-49 168l38 362h17l-38 -362q-10 -94 45 -155.5t150 -61.5q97 0 177 67.5t90 161.5z" />
    <glyph glyph-name="udieresis" unicode="&#xfc;" horiz-adv-x="614" 
d="M329 754q-2 -13 -15 -13t-11 13q0 5 4.5 9t9.5 4q12 0 12 -13zM469 754q-2 -13 -15 -13t-11 13q0 5 4.5 9t9.5 4q12 0 12 -13zM597 579h17l-60 -579h-17l14 139q-34 -68 -107 -112t-152 -44q-102 0 -161 66t-49 168l38 362h17l-38 -362q-10 -94 45 -155.5t150 -61.5
q97 0 177 67.5t90 161.5z" />
    <glyph glyph-name="yacute" unicode="&#xfd;" horiz-adv-x="582" 
d="M608 579h19l-425 -750h-19l98 173l-206 577h19l198 -557zM453 740l-174 -33l1 8l176 52z" />
    <glyph glyph-name="thorn" unicode="&#xfe;" horiz-adv-x="714" 
d="M107 290q-13 -120 63.5 -205t196.5 -85q119 0 212.5 85t106.5 205t-63.5 204.5t-195.5 84.5q-120 0 -213.5 -84.5t-106.5 -204.5zM42 -171l96 921h17l-37 -359q41 91 126.5 148t184.5 57q127 0 207.5 -89.5t67.5 -216.5t-112.5 -217t-226.5 -90q-99 0 -172.5 57.5
t-96.5 148.5l-37 -360h-17z" />
    <glyph glyph-name="ydieresis" unicode="&#xff;" horiz-adv-x="582" 
d="M292 22l315 557h20l-425 -750h-18l98 173l-207 577h19zM312 744q-2 -13 -16 -13q-13 0 -11 13q0 5 4.5 9t9.5 4q13 0 13 -13zM451 744q-2 -13 -15 -13t-11 13q0 5 4.5 9t9.5 4q12 0 12 -13z" />
    <glyph glyph-name="Amacron" unicode="&#x100;" horiz-adv-x="677" 
d="M518 819l-2 -17h-187l2 17h187zM145 213h431l-161 513zM662 0h-18l-63 196h-445l-102 -196h-19l394 750h17z" />
    <glyph glyph-name="amacron" unicode="&#x101;" horiz-adv-x="607" 
d="M480 750l-1 -17h-187l1 17h187zM547 0h-17l16 155q-39 -74 -115 -123t-164 -49q-115 0 -169 52.5t-45 137.5q18 183 240 183h274l6 60q9 85 -45 124t-159 39q-100 0 -163.5 -36.5t-71.5 -110.5h-17q9 81 78 122.5t176 41.5q112 0 170.5 -43.5t48.5 -136.5zM555 238
l10 101h-274q-203 0 -220 -166q-9 -77 41.5 -125t156.5 -48q100 0 188 71t98 167z" />
    <glyph glyph-name="Aogonek" unicode="&#x104;" horiz-adv-x="677" 
d="M530 -88q4 41 36.5 70t73.5 30l-59 184h-445l-102 -196h-19l394 750h17l236 -750h-18q-35 0 -63.5 -25.5t-32.5 -60.5q-3 -35 19.5 -60.5t57.5 -25.5q7 0 12 1l-2 -16q-3 0 -8 -0.5t-7 -0.5q-41 0 -67.5 29.5t-22.5 70.5zM145 213h431l-161 513z" />
    <glyph glyph-name="aogonek" unicode="&#x105;" horiz-adv-x="607" 
d="M547 0h-11q-35 0 -63.5 -25.5t-32.5 -60.5q-3 -35 19.5 -60.5t57.5 -25.5q7 0 12 1l-2 -16q-3 0 -8 -0.5t-7 -0.5q-41 0 -67.5 29.5t-22.5 70.5t36 69.5t73 30.5l15 143q-39 -74 -115 -123t-164 -49q-115 0 -169 52.5t-45 137.5q18 183 240 183h274l6 60q9 85 -45 124
t-159 39q-100 0 -163.5 -36.5t-71.5 -110.5h-17q9 81 78 122.5t176 41.5q112 0 170.5 -43.5t48.5 -136.5zM555 238l10 101h-274q-203 0 -220 -166q-9 -77 41.5 -125t156.5 -48q100 0 188 71t98 167z" />
    <glyph glyph-name="Cacute" unicode="&#x106;" horiz-adv-x="839" 
d="M855 486h-18q-24 116 -115.5 190t-216.5 74q-154 0 -275 -110t-138 -265q-16 -155 82 -265t253 -110q125 0 231.5 74t154.5 190h18q-50 -123 -162 -202t-244 -79q-162 0 -265 115t-86 277t144 277t289 115q132 0 228 -79t120 -202zM599 834l-173 -34l1 9l175 51z" />
    <glyph glyph-name="cacute" unicode="&#x107;" horiz-adv-x="673" 
d="M678 391h-18q-24 84 -92.5 136t-160.5 52q-119 0 -212.5 -84.5t-106.5 -204.5t63.5 -205t195.5 -85q92 0 171.5 52t119.5 136h18q-41 -91 -126.5 -148t-184.5 -57q-127 0 -207.5 90t-67.5 217t112.5 216.5t226.5 89.5q99 0 172.5 -57t96.5 -148zM509 740l-174 -33l1 8
l176 52z" />
    <glyph glyph-name="Ccaron" unicode="&#x10c;" horiz-adv-x="839" 
d="M855 486h-18q-24 116 -115.5 190t-216.5 74q-154 0 -275 -110t-138 -265q-16 -155 82 -265t253 -110q125 0 231.5 74t154.5 190h18q-50 -123 -162 -202t-244 -79q-162 0 -265 115t-86 277t144 277t289 115q132 0 228 -79t120 -202zM446 890l65 -86l82 86h19l-93 -100h-18
l-74 100h19z" />
    <glyph glyph-name="ccaron" unicode="&#x10d;" horiz-adv-x="673" 
d="M678 391h-18q-24 84 -92.5 136t-160.5 52q-119 0 -212.5 -84.5t-106.5 -204.5t63.5 -205t195.5 -85q92 0 171.5 52t119.5 136h18q-41 -91 -126.5 -148t-184.5 -57q-127 0 -207.5 90t-67.5 217t112.5 216.5t226.5 89.5q99 0 172.5 -57t96.5 -148zM354 780l65 -86l82 86h19
l-93 -100h-18l-74 100h19z" />
    <glyph glyph-name="Dcaron" unicode="&#x10e;" horiz-adv-x="726" 
d="M730 375q-17 -155 -138.5 -265t-275.5 -110h-256l78 750h256q155 0 253.5 -110t82.5 -265zM712 375q16 148 -77.5 253t-241.5 105h-239l-76 -716h239q148 0 263.5 105t131.5 253zM376 890l65 -86l82 86h19l-93 -100h-18l-74 100h19z" />
    <glyph glyph-name="dcaron" unicode="&#x10f;" horiz-adv-x="756" 
d="M654 0h-17l19 189q-41 -91 -126 -148.5t-184 -57.5q-128 0 -208.5 90t-67.5 217q14 127 113.5 216.5t226.5 89.5q99 0 172 -57t96 -148l37 359h17zM667 290q13 120 -63.5 204.5t-195.5 84.5q-120 0 -213.5 -84.5t-106.5 -204.5t63.5 -205t196.5 -85q119 0 212.5 85
t106.5 205zM744 579l52 171h26l-69 -171h-9z" />
    <glyph glyph-name="Emacron" unicode="&#x112;" horiz-adv-x="641" 
d="M78 17h529l-1 -17h-546l78 750h546l-1 -17h-529l-37 -349h460l-2 -17h-460zM515 819l-2 -17h-187l2 17h187z" />
    <glyph glyph-name="emacron" unicode="&#x113;" 
d="M683 290l-1 -8h-595q-8 -118 67.5 -200t192.5 -82q85 0 159.5 45.5t118.5 119.5h18q-44 -82 -125 -132t-173 -50q-127 0 -207.5 90t-67.5 217t112.5 216.5t226.5 89.5t207 -89.5t67 -216.5zM89 299h577q8 118 -66.5 199t-192.5 81q-117 0 -209.5 -81t-108.5 -199z
M518 750l-1 -17h-187l1 17h187z" />
    <glyph glyph-name="Edotaccent" unicode="&#x116;" horiz-adv-x="641" 
d="M78 17h529l-1 -17h-546l78 750h546l-1 -17h-529l-37 -349h460l-2 -17h-460zM457 815q-1 -15 -13.5 -26t-26.5 -11q-15 0 -25 11t-8 26q2 14 14 25t27 11q14 0 24 -11t8 -25z" />
    <glyph glyph-name="edotaccent" unicode="&#x117;" 
d="M683 290l-1 -8h-595q-8 -118 67.5 -200t192.5 -82q85 0 159.5 45.5t118.5 119.5h18q-44 -82 -125 -132t-173 -50q-127 0 -207.5 90t-67.5 217t112.5 216.5t226.5 89.5t207 -89.5t67 -216.5zM89 299h577q8 118 -66.5 199t-192.5 81q-117 0 -209.5 -81t-108.5 -199z
M458 722q-1 -15 -13.5 -26t-26.5 -11q-15 0 -25 11t-8 26q2 14 14 25t27 11q14 0 24 -11t8 -25z" />
    <glyph glyph-name="Eogonek" unicode="&#x118;" horiz-adv-x="641" 
d="M445 -88q6 59 62 88h-447l78 750h546l-1 -17h-529l-37 -349h460l-2 -17h-460l-37 -350h529l-1 -17h-51q-35 -2 -61.5 -27t-30.5 -59q-3 -35 19.5 -60.5t57.5 -25.5q26 0 49 15l-2 -17q-25 -14 -52 -14q-41 0 -67.5 29.5t-22.5 70.5z" />
    <glyph glyph-name="eogonek" unicode="&#x119;" 
d="M683 290l-1 -8h-595q-8 -118 67.5 -200t192.5 -82q85 0 159.5 45.5t118.5 119.5h18q-66 -120 -195 -165q-26 -9 -44.5 -32.5t-21.5 -51.5q-4 -35 19 -61.5t58 -26.5q26 0 49 15l-2 -17q-25 -14 -52 -14q-41 0 -68 30.5t-23 71.5q6 46 41 75q-28 -6 -59 -6
q-127 0 -207.5 90t-67.5 217t112.5 216.5t226.5 89.5t207 -89.5t67 -216.5zM89 299h577q8 118 -66.5 199t-192.5 81q-117 0 -209.5 -81t-108.5 -199z" />
    <glyph glyph-name="Ecaron" unicode="&#x11a;" horiz-adv-x="641" 
d="M78 17h529l-1 -17h-546l78 750h546l-1 -17h-529l-37 -349h460l-2 -17h-460zM365 890l65 -86l82 86h19l-93 -100h-18l-74 100h19z" />
    <glyph glyph-name="ecaron" unicode="&#x11b;" 
d="M683 290l-1 -8h-595q-8 -118 67.5 -200t192.5 -82q85 0 159.5 45.5t118.5 119.5h18q-44 -82 -125 -132t-173 -50q-127 0 -207.5 90t-67.5 217t112.5 216.5t226.5 89.5t207 -89.5t67 -216.5zM89 299h577q8 118 -66.5 199t-192.5 81q-117 0 -209.5 -81t-108.5 -199z
M354 780l65 -86l82 86h19l-93 -100h-18l-74 100h19z" />
    <glyph glyph-name="uni0122" unicode="&#x122;" horiz-adv-x="854" 
d="M794 0h-17l26 256q-48 -120 -152 -196.5t-226 -76.5q-162 0 -265 115t-86 277t144 277t289 115q123 0 215.5 -70t124.5 -181h-19q-31 104 -118.5 169t-204.5 65q-155 0 -275.5 -110t-137.5 -265t81.5 -265t253.5 -110q143 0 256 106.5t132 259.5h-350l2 17h367zM399 -129
h4q5 0 9.5 4t4.5 9l5 44h-3q-8 0 -13 6t-4 14q1 7 7 12.5t14 5.5q7 0 11.5 -5.5t3.5 -12.5l-7 -64q-1 -11 -10 -19.5t-20 -8.5h-4z" />
    <glyph glyph-name="uni0123" unicode="&#x123;" horiz-adv-x="583" 
d="M382 728h-4q-5 0 -9.5 -4t-4.5 -9l-5 -44h3q8 0 13 -6t4 -14q-1 -7 -7 -12.5t-14 -5.5q-7 0 -11.5 5.5t-3.5 12.5l7 64q1 11 10 19.5t20 8.5h4zM307 145q119 0 182.5 -41t54.5 -125q-9 -85 -81 -126t-191 -41q-120 0 -184 41t-55 126q6 52 38 89q-26 20 -23 52
q10 88 194 98q-53 22 -82 71.5t-22 110.5q8 81 71.5 138.5t144.5 57.5q97 0 147 -76q8 32 34 54t58 22h12l-2 -17h-12q-28 0 -49.5 -19.5t-24.5 -47.5q-2 -17 3 -29q14 -40 10 -83q-9 -81 -72.5 -138t-144.5 -57q-238 0 -247 -85q-3 -24 17 -39q70 64 224 64zM305 128
q-111 0 -178.5 -36.5t-75.5 -112.5q-15 -150 223 -150q237 0 252 150q8 76 -51 112.5t-170 36.5zM512 400q7 75 -39.5 127t-120.5 52t-131.5 -52t-64.5 -127q-8 -74 38.5 -126t120.5 -52t131.5 52t65.5 126z" />
    <glyph glyph-name="Imacron" unicode="&#x12a;" horiz-adv-x="137" 
d="M60 0l78 750h17l-78 -750h-17zM229 819l-2 -17h-149l2 17h149z" />
    <glyph glyph-name="imacron" unicode="&#x12b;" horiz-adv-x="137" 
d="M120 579h17l-60 -579h-17zM221 750l-1 -17h-149l1 17h149z" />
    <glyph glyph-name="Iogonek" unicode="&#x12e;" horiz-adv-x="137" 
d="M-8 -86q4 32 22 57.5t46 36.5l78 742h17l-78 -750q-27 -8 -45.5 -31t-21.5 -53q-4 -36 16.5 -62t55.5 -26l-1 -16h-4q-41 0 -65 30t-20 72z" />
    <glyph glyph-name="iogonek" unicode="&#x12f;" horiz-adv-x="137" 
d="M120 579h17l-60 -579q-27 -8 -45.5 -31t-21.5 -53q-4 -36 16.5 -62t55.5 -26l-1 -16h-4q-41 0 -65 30t-20 72q4 32 22 57.5t46 36.5zM135 754q0 5 4.5 9t9.5 4q12 0 12 -13q-2 -13 -15 -13t-11 13z" />
    <glyph glyph-name="dotlessi" unicode="&#x131;" horiz-adv-x="137" 
d="M120 579h17l-60 -579h-17z" />
    <glyph glyph-name="uni0136" unicode="&#x136;" horiz-adv-x="669" 
d="M318 375l336 -375h-24l-325 363l-210 -190l-18 -173h-17l78 750h17l-58 -553l611 553h24zM305 -112h4q12 0 14 13l5 44h-3q-8 0 -13 6t-4 14q1 7 7 12.5t14 5.5q7 0 11.5 -5.5t3.5 -12.5l-7 -64q-1 -11 -10 -19.5t-20 -8.5h-4z" />
    <glyph glyph-name="uni0137" unicode="&#x137;" horiz-adv-x="530" 
d="M553 579h25l-320 -289l260 -290h-25l-248 278l-154 -139l-14 -139h-17l78 750h17l-61 -587zM249 -112h4q12 0 14 13l5 44h-3q-8 0 -13 6t-4 14q1 7 7 12.5t14 5.5q7 0 11.5 -5.5t3.5 -12.5l-7 -64q-1 -11 -10 -19.5t-20 -8.5h-4z" />
    <glyph glyph-name="Lacute" unicode="&#x139;" horiz-adv-x="586" 
d="M572 17l-1 -17h-511l78 750h17l-77 -733h494zM489 834l-173 -34l1 9l175 51z" />
    <glyph glyph-name="lacute" unicode="&#x13a;" horiz-adv-x="137" 
d="M60 0l78 750h17l-78 -750h-17zM238 834l-167 -34l1 9l169 51z" />
    <glyph glyph-name="uni013B" unicode="&#x13b;" horiz-adv-x="586" 
d="M572 17l-1 -17h-511l78 750h17l-77 -733h494zM287 -112h4q12 0 14 13l5 44h-3q-8 0 -13 6t-4 14q1 7 7 12.5t14 5.5q7 0 11.5 -5.5t3.5 -12.5l-7 -64q-1 -11 -10 -19.5t-20 -8.5h-4z" />
    <glyph glyph-name="uni013C" unicode="&#x13c;" horiz-adv-x="137" 
d="M60 0l78 750h17l-78 -750h-17zM42 -112h4q12 0 14 13l5 44h-3q-8 0 -13 6t-4 14q1 7 7 12.5t14 5.5q7 0 11.5 -5.5t3.5 -12.5l-7 -64q-1 -11 -10 -19.5t-20 -8.5h-4z" />
    <glyph glyph-name="Lcaron" unicode="&#x13d;" horiz-adv-x="583" 
d="M572 17l-1 -17h-511l78 750h17l-77 -733h494zM571 579l52 171h26l-69 -171h-9z" />
    <glyph glyph-name="lcaron" unicode="&#x13e;" horiz-adv-x="179" 
d="M60 0l78 750h17l-78 -750h-17zM167 579l52 171h26l-69 -171h-9z" />
    <glyph glyph-name="Lslash" unicode="&#x141;" horiz-adv-x="606" 
d="M97 17h495l-1 -17h-512l36 345l-61 -12l2 17l61 12l40 388h17l-40 -385l254 52l-1 -17l-255 -51z" />
    <glyph glyph-name="lslash" unicode="&#x142;" horiz-adv-x="185" 
d="M207 400l-2 -17l-67 -15l-38 -368h-17l38 364l-65 -14l2 17l65 14l38 369h17l-38 -365z" />
    <glyph glyph-name="Nacute" unicode="&#x143;" horiz-adv-x="682" 
d="M513 834l-174 -34l1 9l176 51zM605 0l-453 721l-75 -721h-17l78 750h17l453 -721l75 721h17l-78 -750h-17z" />
    <glyph glyph-name="nacute" unicode="&#x144;" horiz-adv-x="614" 
d="M77 0h-17l60 579h17l-14 -139q34 68 107 112t152 44q102 0 161 -66t49 -168l-38 -362h-17l38 362q10 94 -45 155.5t-150 61.5q-97 0 -177 -67.5t-90 -161.5zM483 740l-174 -33l1 8l176 52z" />
    <glyph glyph-name="uni0145" unicode="&#x145;" horiz-adv-x="682" 
d="M316 -112h4q12 0 14 13l5 44h-3q-8 0 -13 6t-4 14q1 7 7 12.5t14 5.5q7 0 11.5 -5.5t3.5 -12.5l-7 -64q-1 -11 -10 -19.5t-20 -8.5h-4zM605 0l-453 721l-75 -721h-17l78 750h17l453 -721l75 721h17l-78 -750h-17z" />
    <glyph glyph-name="uni0146" unicode="&#x146;" horiz-adv-x="614" 
d="M77 0h-17l60 579h17l-14 -139q34 68 107 112t152 44q102 0 161 -66t49 -168l-38 -362h-17l38 362q10 94 -45 155.5t-150 61.5q-97 0 -177 -67.5t-90 -161.5zM287 -112h4q12 0 14 13l5 44h-3q-8 0 -13 6t-4 14q1 7 7 12.5t14 5.5q7 0 11.5 -5.5t3.5 -12.5l-7 -64
q-1 -11 -10 -19.5t-20 -8.5h-4z" />
    <glyph glyph-name="Ncaron" unicode="&#x147;" horiz-adv-x="682" 
d="M361 890l65 -86l82 86h19l-93 -100h-18l-74 100h19zM605 0l-453 721l-75 -721h-17l78 750h17l453 -721l75 721h17l-78 -750h-17z" />
    <glyph glyph-name="ncaron" unicode="&#x148;" horiz-adv-x="614" 
d="M77 0h-17l60 579h17l-14 -139q34 68 107 112t152 44q102 0 161 -66t49 -168l-38 -362h-17l38 362q10 94 -45 155.5t-150 61.5q-97 0 -177 -67.5t-90 -161.5zM328 780l65 -86l82 86h19l-93 -100h-18l-74 100h19z" />
    <glyph glyph-name="Omacron" unicode="&#x14c;" horiz-adv-x="854" 
d="M607 819l-2 -17h-187l2 17h187zM858 375q-17 -162 -144 -277t-289 -115t-265 115t-86 277q16 153 133 266q131 126 300 126q162 0 265 -115t86 -277zM840 375q17 155 -81.5 265t-253.5 110t-275.5 -110t-137.5 -265t81.5 -265t253.5 -110t275.5 110t137.5 265z" />
    <glyph glyph-name="omacron" unicode="&#x14d;" 
d="M518 750l-1 -17h-187l1 17h187zM665 290q13 120 -63 204.5t-196 84.5q-119 0 -212 -84.5t-106 -204.5t63 -205t195 -85q120 0 213 85t106 205zM683 290q-14 -128 -113 -217.5t-226 -89.5t-207 90t-67 217q14 127 112.5 216.5t225.5 89.5t208 -89.5t67 -216.5z" />
    <glyph glyph-name="Ohungarumlaut" unicode="&#x150;" horiz-adv-x="854" 
d="M858 375q-17 -162 -144 -277t-289 -115t-265 115t-86 277q16 153 133 266q131 126 300 126q162 0 265 -115t86 -277zM840 375q17 155 -81.5 265t-253.5 110t-275.5 -110t-137.5 -265t81.5 -265t253.5 -110t275.5 110t137.5 265zM543 891h23l-76 -99h-23zM595 891h23
l-76 -99h-23z" />
    <glyph glyph-name="ohungarumlaut" unicode="&#x151;" 
d="M665 290q13 120 -63 204.5t-196 84.5q-119 0 -212 -84.5t-106 -204.5t63 -205t195 -85q120 0 213 85t106 205zM683 290q-14 -128 -113 -217.5t-226 -89.5t-207 90t-67 217q14 127 112.5 216.5t225.5 89.5t208 -89.5t67 -216.5zM450 750h23l-76 -99h-23zM502 750h23
l-76 -99h-23z" />
    <glyph glyph-name="OE" unicode="&#x152;" horiz-adv-x="1381" 
d="M857 367l-37 -350h527l-1 -17h-544l27 261q-51 -122 -162.5 -200t-241.5 -78q-163 0 -265.5 115t-85.5 277t143.5 277t289.5 115q130 0 225.5 -78t120.5 -200l27 261h544l-1 -17h-527l-37 -349h460l-2 -17h-460zM841 375q16 155 -82.5 265t-253.5 110t-275.5 -110
t-137.5 -265t81.5 -265t253.5 -110q101 0 192.5 50t151 136.5t70.5 188.5z" />
    <glyph glyph-name="oe" unicode="&#x153;" horiz-adv-x="1288" 
d="M1278 290l-1 -8h-595q-8 -118 67.5 -200t192.5 -82q85 0 159.5 45.5t118.5 119.5h18q-44 -82 -125 -132t-173 -50q-107 0 -183.5 66t-90.5 167q-36 -102 -125.5 -167.5t-196.5 -65.5q-127 0 -207 90t-67 217q14 127 112.5 216.5t225.5 89.5q107 0 183.5 -66t90.5 -167
q36 102 125.5 167.5t196.5 65.5q127 0 207 -89.5t67 -216.5zM665 290q13 120 -63 204.5t-196 84.5q-119 0 -212 -84.5t-106 -204.5t63 -205t195 -85q120 0 213 85t106 205zM684 299h577q8 118 -66.5 199t-192.5 81q-117 0 -209.5 -81t-108.5 -199z" />
    <glyph glyph-name="Racute" unicode="&#x154;" horiz-adv-x="662" 
d="M677 524q-10 -86 -73.5 -150t-149.5 -75l119 -299h-19l-118 298h-328l-31 -298h-17l78 750h336q94 0 153.5 -66t49.5 -160zM659 524q9 86 -45.5 147.5t-140.5 61.5h-319l-44 -418h319q86 0 153 61t77 148zM505 834l-174 -34l1 9l176 51z" />
    <glyph glyph-name="racute" unicode="&#x155;" horiz-adv-x="297" 
d="M331 740l-174 -33l1 8l176 52zM77 0h-17l60 579h17l-12 -113q32 60 88 95t122 35h9l-2 -17h-9q-81 0 -144.5 -57t-71.5 -139z" />
    <glyph glyph-name="uni0156" unicode="&#x156;" horiz-adv-x="662" 
d="M677 524q-10 -86 -73.5 -150t-149.5 -75l119 -299h-19l-118 298h-328l-31 -298h-17l78 750h336q94 0 153.5 -66t49.5 -160zM659 524q9 86 -45.5 147.5t-140.5 61.5h-319l-44 -418h319q86 0 153 61t77 148zM285 -112h4q12 0 14 13l5 44h-3q-8 0 -13 6t-4 14q1 7 7 12.5
t14 5.5q7 0 11.5 -5.5t3.5 -12.5l-7 -64q-1 -11 -10 -19.5t-20 -8.5h-4z" />
    <glyph glyph-name="uni0157" unicode="&#x157;" horiz-adv-x="297" 
d="M145 -112h4q12 0 14 13l5 44h-3q-8 0 -13 6t-4 14q1 7 7 12.5t14 5.5q7 0 11.5 -5.5t3.5 -12.5l-7 -64q-1 -11 -10 -19.5t-20 -8.5h-4zM77 0h-17l60 579h17l-12 -113q32 60 88 95t122 35h9l-2 -17h-9q-81 0 -144.5 -57t-71.5 -139z" />
    <glyph glyph-name="Rcaron" unicode="&#x158;" horiz-adv-x="662" 
d="M677 524q-10 -86 -73.5 -150t-149.5 -75l119 -299h-19l-118 298h-328l-31 -298h-17l78 750h336q94 0 153.5 -66t49.5 -160zM659 524q9 86 -45.5 147.5t-140.5 61.5h-319l-44 -418h319q86 0 153 61t77 148zM356 890l65 -86l82 86h19l-93 -100h-18l-74 100h19z" />
    <glyph glyph-name="rcaron" unicode="&#x159;" horiz-adv-x="297" 
d="M178 780l65 -86l82 86h19l-93 -100h-18l-74 100h19zM77 0h-17l60 579h17l-12 -113q32 60 88 95t122 35h9l-2 -17h-9q-81 0 -144.5 -57t-71.5 -139z" />
    <glyph glyph-name="Sacute" unicode="&#x15a;" horiz-adv-x="591" 
d="M467 834l-173 -34l1 9l175 51zM59 187h18q-9 -82 54 -134.5t164 -52.5q99 0 174 54.5t83 132.5q6 60 -16 100t-62 60t-89 33t-98.5 25t-90 29.5t-63 54t-16.5 91.5q8 78 83.5 132.5t174.5 54.5q101 0 164.5 -51.5t55.5 -134.5h-17q7 74 -52 121.5t-153 47.5
q-92 0 -161 -49.5t-77 -120.5q-5 -50 17.5 -83.5t63 -50t90 -28t99 -25.5t89 -35.5t61.5 -64.5t15 -106q-9 -85 -90.5 -144.5t-186.5 -59.5q-108 0 -176 57t-58 147z" />
    <glyph glyph-name="sacute" unicode="&#x15b;" horiz-adv-x="522" 
d="M423 740l-174 -33l1 8l176 52zM55 149h17q-5 -48 23.5 -83t72.5 -50.5t93 -15.5q92 0 151.5 40t66.5 108q5 48 -14 78.5t-54 44t-77.5 21t-85 15.5t-77.5 21.5t-54 44t-14 77.5q7 65 68.5 105.5t151.5 40.5q87 0 140.5 -40.5t46.5 -108.5h-17q7 59 -43 95.5t-129 36.5
q-82 0 -138 -36t-62 -93q-6 -59 32.5 -88.5t98 -38.5t118 -20t96.5 -48t31 -107q-7 -75 -73 -120t-165 -45q-95 0 -153.5 44.5t-50.5 121.5z" />
    <glyph glyph-name="Scaron" unicode="&#x160;" horiz-adv-x="591" 
d="M314 890l65 -86l82 86h19l-93 -100h-18l-74 100h19zM59 187h18q-9 -82 54 -134.5t164 -52.5q99 0 174 54.5t83 132.5q6 60 -16 100t-62 60t-89 33t-98.5 25t-90 29.5t-63 54t-16.5 91.5q8 78 83.5 132.5t174.5 54.5q101 0 164.5 -51.5t55.5 -134.5h-17q7 74 -52 121.5
t-153 47.5q-92 0 -161 -49.5t-77 -120.5q-5 -50 17.5 -83.5t63 -50t90 -28t99 -25.5t89 -35.5t61.5 -64.5t15 -106q-9 -85 -90.5 -144.5t-186.5 -59.5q-108 0 -176 57t-58 147z" />
    <glyph glyph-name="scaron" unicode="&#x161;" horiz-adv-x="522" 
d="M268 780l65 -86l82 86h19l-93 -100h-18l-74 100h19zM55 149h17q-5 -48 23.5 -83t72.5 -50.5t93 -15.5q92 0 151.5 40t66.5 108q5 48 -14 78.5t-54 44t-77.5 21t-85 15.5t-77.5 21.5t-54 44t-14 77.5q7 65 68.5 105.5t151.5 40.5q87 0 140.5 -40.5t46.5 -108.5h-17
q7 59 -43 95.5t-129 36.5q-82 0 -138 -36t-62 -93q-6 -59 32.5 -88.5t98 -38.5t118 -20t96.5 -48t31 -107q-7 -75 -73 -120t-165 -45q-95 0 -153.5 44.5t-50.5 121.5z" />
    <glyph glyph-name="Tcaron" unicode="&#x164;" horiz-adv-x="609" 
d="M324 890l65 -86l82 86h19l-93 -100h-18l-74 100h19zM671 733h-281l-77 -733h-17l77 733h-281l1 17h579z" />
    <glyph glyph-name="tcaron" unicode="&#x165;" horiz-adv-x="368" 
d="M80 579h68l14 131h17l-14 -131h171l-1 -17h-171l-46 -431q-12 -114 102 -114h57l-1 -17h-57q-64 0 -94.5 33.5t-23.5 97.5l46 431h-68zM358 579l52 171h26l-69 -171h-9z" />
    <glyph glyph-name="Umacron" unicode="&#x16a;" horiz-adv-x="699" 
d="M529 819l-2 -17h-187l2 17h187zM717 750l-50 -477q-13 -120 -106 -205t-213 -85t-196.5 85t-63.5 205l50 477h17l-50 -477q-12 -113 60 -193t185 -80q112 0 200 80t100 193l50 477h17z" />
    <glyph glyph-name="umacron" unicode="&#x16b;" horiz-adv-x="614" 
d="M478 750l-1 -17h-187l1 17h187zM597 579h17l-60 -579h-17l14 139q-34 -68 -107 -112t-152 -44q-102 0 -161 66t-49 168l38 362h17l-38 -362q-10 -94 45 -155.5t150 -61.5q97 0 177 67.5t90 161.5z" />
    <glyph glyph-name="Uring" unicode="&#x16e;" horiz-adv-x="699" 
d="M717 750l-50 -477q-13 -120 -106 -205t-213 -85t-196.5 85t-63.5 205l50 477h17l-50 -477q-12 -113 60 -193t185 -80q112 0 200 80t100 193l50 477h17zM496 851q2 23 -13 40.5t-38 17.5q-25 0 -44 -17.5t-21 -40.5q-2 -24 13 -41.5t40 -17.5q23 0 42 17.5t21 41.5z
M512 851q-3 -30 -27 -52t-54 -22q-31 0 -50.5 21.5t-16.5 52.5q3 30 27.5 51.5t55.5 21.5q29 0 48.5 -21.5t16.5 -51.5z" />
    <glyph glyph-name="uring" unicode="&#x16f;" horiz-adv-x="614" 
d="M597 579h17l-60 -579h-17l14 139q-34 -68 -107 -112t-152 -44q-102 0 -161 66t-49 168l38 362h17l-38 -362q-10 -94 45 -155.5t150 -61.5q97 0 177 67.5t90 161.5zM435 727q2 23 -13 40.5t-38 17.5q-25 0 -44 -17.5t-21 -40.5q-2 -24 13 -41.5t40 -17.5q23 0 42 17.5
t21 41.5zM451 727q-3 -30 -27 -52t-54 -22q-31 0 -50.5 21.5t-16.5 52.5q3 30 27.5 51.5t55.5 21.5q29 0 48.5 -21.5t16.5 -51.5z" />
    <glyph glyph-name="Uhungarumlaut" unicode="&#x170;" horiz-adv-x="699" 
d="M717 750l-50 -477q-13 -120 -106 -205t-213 -85t-196.5 85t-63.5 205l50 477h17l-50 -477q-12 -113 60 -193t185 -80q112 0 200 80t100 193l50 477h17zM463 891h23l-76 -99h-23zM515 891h23l-76 -99h-23z" />
    <glyph glyph-name="uhungarumlaut" unicode="&#x171;" horiz-adv-x="614" 
d="M597 579h17l-60 -579h-17l14 139q-34 -68 -107 -112t-152 -44q-102 0 -161 66t-49 168l38 362h17l-38 -362q-10 -94 45 -155.5t150 -61.5q97 0 177 67.5t90 161.5zM394 750h23l-76 -99h-23zM446 750h23l-76 -99h-23z" />
    <glyph glyph-name="Uogonek" unicode="&#x172;" horiz-adv-x="699" 
d="M717 750l-50 -477q-10 -91 -68 -164.5t-143 -105.5q-27 -8 -47 -32.5t-23 -53.5q-4 -35 19 -62t58 -27q26 0 49 15l-2 -17q-25 -14 -52 -14q-41 0 -68 31t-22 72q5 45 37 74q-36 -6 -57 -6q-120 0 -196.5 85t-63.5 205l50 477h17l-50 -477q-12 -113 60 -193t185 -80
q112 0 200 80t100 193l50 477h17z" />
    <glyph glyph-name="uogonek" unicode="&#x173;" horiz-adv-x="614" 
d="M597 579h17l-60 -579h-15q-35 -2 -61.5 -27t-30.5 -59q-3 -35 19.5 -60.5t57.5 -25.5q7 0 12 1l-2 -16q-2 0 -7 -0.5t-8 -0.5q-41 0 -67.5 29.5t-22.5 70.5t36 69.5t73 30.5l13 127q-34 -68 -107 -112t-152 -44q-102 0 -161 66t-49 168l38 362h17l-38 -362
q-10 -94 45 -155.5t150 -61.5q97 0 177 67.5t90 161.5z" />
    <glyph glyph-name="Ydieresis" unicode="&#x178;" horiz-adv-x="635" 
d="M351 847q-2 -14 -16 -14q-13 0 -11 14q0 5 4.5 9t9.5 4q13 0 13 -13zM490 847q-2 -14 -15 -14t-11 14q0 5 4.5 9t9.5 4q12 0 12 -13zM677 750h21l-333 -383l-38 -367h-17l38 367l-255 383h22l243 -367z" />
    <glyph glyph-name="Zacute" unicode="&#x179;" horiz-adv-x="603" 
d="M473 834l-173 -34l1 9l175 51zM584 17l-1 -17h-563l1 18l617 715h-541l1 17h563l-2 -18l-616 -715h541z" />
    <glyph glyph-name="zacute" unicode="&#x17a;" horiz-adv-x="501" 
d="M413 740l-174 -33l1 8l176 52zM43 17h439l-1 -17h-461l1 17l497 545h-439l1 17h461l-1 -17z" />
    <glyph glyph-name="Zdotaccent" unicode="&#x17b;" horiz-adv-x="603" 
d="M423 815q-1 -15 -13.5 -26t-26.5 -11q-15 0 -25 11t-8 26q2 14 14 25t27 11q14 0 24 -11t8 -25zM584 17l-1 -17h-563l1 18l617 715h-541l1 17h563l-2 -18l-616 -715h541z" />
    <glyph glyph-name="zdotaccent" unicode="&#x17c;" horiz-adv-x="501" 
d="M362 722q-1 -15 -13.5 -26t-26.5 -11q-15 0 -25 11t-8 26q2 14 14 25t27 11q14 0 24 -11t8 -25zM43 17h439l-1 -17h-461l1 17l497 545h-439l1 17h461l-1 -17z" />
    <glyph glyph-name="Zcaron" unicode="&#x17d;" horiz-adv-x="603" 
d="M584 17l-1 -17h-563l1 18l617 715h-541l1 17h563l-2 -18l-616 -715h541zM320 890l65 -86l82 86h19l-93 -100h-18l-74 100h19z" />
    <glyph glyph-name="zcaron" unicode="&#x17e;" horiz-adv-x="501" 
d="M43 17h439l-1 -17h-461l1 17l497 545h-439l1 17h461l-1 -17zM257 780l65 -86l82 86h19l-93 -100h-18l-74 100h19z" />
    <glyph glyph-name="florin" unicode="&#x192;" horiz-adv-x="415" 
d="M297 562h-119l3 17h119l16 64q13 55 57.5 81t104.5 26l-3 -17q-53 0 -92.5 -23t-49.5 -67l-16 -64h120l-3 -17h-120l-153 -626q-13 -55 -58.5 -81t-104.5 -26l3 17q52 0 92 23t51 67z" />
    <glyph glyph-name="circumflex" unicode="&#x2c6;" horiz-adv-x="402" 
d="M281 766l-83 -86h-19l94 100h18l73 -100h-19z" />
    <glyph glyph-name="caron" unicode="&#x2c7;" horiz-adv-x="402" 
d="M208 780l65 -86l82 86h19l-93 -100h-18l-74 100h19z" />
    <glyph glyph-name="breve" unicode="&#x2d8;" horiz-adv-x="299" 
d="M138 750h18q7 -22 25 -35t41 -13q24 0 44.5 13t31.5 35h19q-13 -29 -39.5 -47t-57.5 -18t-53.5 18t-28.5 47z" />
    <glyph glyph-name="dotaccent" unicode="&#x2d9;" horiz-adv-x="193" 
d="M208 722q-1 -15 -13.5 -26t-26.5 -11q-15 0 -25 11t-8 26q2 14 14 25t27 11q14 0 24 -11t8 -25z" />
    <glyph glyph-name="ring" unicode="&#x2da;" horiz-adv-x="348" 
d="M308 727q2 23 -13 40.5t-38 17.5q-25 0 -44 -17.5t-21 -40.5q-2 -24 13 -41.5t40 -17.5q23 0 42 17.5t21 41.5zM324 727q-3 -30 -27 -52t-54 -22q-31 0 -50.5 21.5t-16.5 52.5q3 30 27.5 51.5t55.5 21.5q29 0 48.5 -21.5t16.5 -51.5z" />
    <glyph glyph-name="ogonek" unicode="&#x2db;" horiz-adv-x="271" 
d="M50 -88q4 41 37 70.5t74 29.5h4l-1 -12q-35 0 -63.5 -25.5t-32.5 -60.5q-3 -35 19.5 -60.5t57.5 -25.5q26 0 49 15l-2 -17q-25 -14 -52 -14q-41 0 -67.5 29.5t-22.5 70.5z" />
    <glyph glyph-name="tilde" unicode="&#x2dc;" horiz-adv-x="436" 
d="M190 701h-17q3 27 24.5 46.5t48.5 19.5q39 0 55 -37q12 -29 42 -29q20 0 36 14t18 35h17q-2 -27 -24 -46.5t-49 -19.5q-39 0 -55 37q-8 28 -42 28q-20 0 -36 -14.5t-18 -33.5z" />
    <glyph glyph-name="hungarumlaut" unicode="&#x2dd;" horiz-adv-x="261" 
d="M204 750h23l-76 -99h-23zM256 750h23l-76 -99h-23z" />
    <glyph glyph-name="pi" unicode="&#x3c0;" horiz-adv-x="633" 
d="M662 562h-150l-50 -476q-4 -38 21.5 -62t65.5 -24q19 0 30 5l-2 -18q-20 -4 -30 -4q-48 0 -77.5 28.5t-24.5 74.5l50 476h-239l-59 -562h-17l59 562h-150l1 17h573z" />
    <glyph glyph-name="endash" unicode="&#x2013;" horiz-adv-x="584" 
d="M76 299h494l-2 -17h-494z" />
    <glyph glyph-name="emdash" unicode="&#x2014;" horiz-adv-x="840" 
d="M76 298h750l-2 -17h-750z" />
    <glyph glyph-name="quoteleft" unicode="&#x2018;" horiz-adv-x="140" 
d="M161 740h-4q-13 0 -15 -14l-5 -49h3q9 0 14 -6t4 -15q-1 -8 -7.5 -14t-15.5 -6q-8 0 -13 6t-4 14l8 70q2 13 11 22t22 9h4z" />
    <glyph glyph-name="quoteright" unicode="&#x2019;" horiz-adv-x="140" 
d="M124 653h4q14 0 16 14l5 49h-3q-9 0 -14.5 6t-4.5 15q1 8 7.5 14t15.5 6q8 0 13 -6t4 -14l-7 -70q-2 -13 -11.5 -22t-22.5 -9h-4z" />
    <glyph glyph-name="quotesinglbase" unicode="&#x201a;" horiz-adv-x="120" 
d="M48 -71h4q14 0 16 14l5 49h-3q-9 0 -14.5 6t-4.5 15q1 8 7.5 14t15.5 6q8 0 13 -6t4 -14l-7 -70q-2 -13 -11.5 -22t-22.5 -9h-4z" />
    <glyph glyph-name="quotedblleft" unicode="&#x201c;" horiz-adv-x="178" 
d="M161 740h-4q-13 0 -15 -14l-5 -49h3q9 0 14 -6t4 -15q-1 -8 -7.5 -14t-15.5 -6q-8 0 -13 6t-4 14l8 70q2 13 11 22t22 9h4zM219 740h-4q-13 0 -15 -14l-5 -49h3q9 0 14 -6t4 -15q-1 -8 -7.5 -14t-15.5 -6q-8 0 -13 6t-4 14l8 70q2 13 11 22t22 9h4z" />
    <glyph glyph-name="quotedblright" unicode="&#x201d;" horiz-adv-x="178" 
d="M162 653h4q14 0 16 14l5 49h-3q-9 0 -14.5 6t-4.5 15q1 8 7.5 14t15.5 6q8 0 13 -6t4 -14l-7 -70q-2 -13 -11.5 -22t-22.5 -9h-4zM104 653h4q14 0 16 14l5 49h-3q-9 0 -14.5 6t-4.5 15q1 8 7.5 14t15.5 6q8 0 13 -6t4 -14l-7 -70q-2 -13 -11.5 -22t-22.5 -9h-4z" />
    <glyph glyph-name="quotedblbase" unicode="&#x201e;" horiz-adv-x="178" 
d="M86 -71h4q14 0 16 14l5 49h-3q-9 0 -14.5 6t-4.5 15q1 8 7.5 14t15.5 6q8 0 13 -6t4 -14l-7 -70q-2 -13 -11.5 -22t-22.5 -9h-4zM28 -71h4q14 0 16 14l5 49h-3q-9 0 -14.5 6t-4.5 15q1 8 7.5 14t15.5 6q8 0 13 -6t4 -14l-7 -70q-2 -13 -11.5 -22t-22.5 -9h-4z" />
    <glyph glyph-name="dagger" unicode="&#x2020;" horiz-adv-x="540" 
d="M120 579h203l18 171h17l-18 -171h200l-1 -17h-200l-69 -648h-17l69 648h-203z" />
    <glyph glyph-name="daggerdbl" unicode="&#x2021;" horiz-adv-x="540" 
d="M271 85h-203l2 17h203l49 460h-203l1 17h203l18 171h17l-18 -171h200l-1 -17h-200l-49 -460h200l-2 -17h-200l-18 -171h-17z" />
    <glyph glyph-name="bullet" unicode="&#x2022;" horiz-adv-x="269" 
d="M135 256q-15 0 -25 9.5t-10 24.5q0 14 10.5 23.5t24.5 9.5t24 -9.5t10 -23.5q0 -15 -10 -24.5t-24 -9.5z" />
    <glyph glyph-name="ellipsis" unicode="&#x2026;" horiz-adv-x="534" 
d="M36 13q1 8 7.5 14t14.5 6t13.5 -6t4.5 -14t-7.5 -14t-14.5 -6t-13.5 6t-4.5 14zM248 13q1 8 7.5 14t14.5 6t13.5 -6t4.5 -14t-7.5 -14t-14.5 -6t-13.5 6t-4.5 14zM460 13q1 8 7.5 14t14.5 6t13.5 -6t4.5 -14t-7.5 -14t-14.5 -6t-13.5 6t-4.5 14z" />
    <glyph glyph-name="perthousand" unicode="&#x2030;" horiz-adv-x="862" 
d="M579 119q-5 -49 26 -84t81 -35q49 0 87 34.5t43 84.5t-25.5 85t-79.5 35t-88 -35t-44 -85zM561 119q6 57 50.5 97t100.5 40t92 -40t30 -97q-6 -56 -50 -96t-100 -40t-92.5 40t-30.5 96zM379 630q-6 -56 -50.5 -96t-100.5 -40q-57 0 -92.5 40t-29.5 96q6 57 50 97t101 40
q74 0 107 -63q19 -31 54 -31q42 0 66 40l28 54l14 -7l-404 -777l-15 7l354 678q-22 -12 -45 -12q-21 0 -38 11q3 -16 1 -37zM255 119q6 57 50 97t101 40q56 0 92 -40t30 -97q-6 -56 -50 -96t-100 -40q-57 0 -93 40t-30 96zM361 630q5 49 -26 84.5t-80 35.5t-87.5 -35
t-43.5 -85q-5 -49 26 -84t80 -35t87.5 35t43.5 84zM273 119q-5 -49 26 -84t81 -35q49 0 87 35t43 84q5 50 -25.5 85t-79.5 35t-88 -35t-44 -85z" />
    <glyph glyph-name="guilsinglleft" unicode="&#x2039;" horiz-adv-x="242" 
d="M217 151l-2 -24l-145 163l179 162l-3 -24l-152 -138z" />
    <glyph glyph-name="guilsinglright" unicode="&#x203a;" horiz-adv-x="242" 
d="M53 127l2 24l153 139l-124 138l3 24l145 -162z" />
    <glyph glyph-name="fraction" unicode="&#x2044;" horiz-adv-x="454" 
d="M66 -16l-8 3l409 781l7 -3z" />
    <glyph glyph-name="Euro" unicode="&#x20ac;" horiz-adv-x="653" 
d="M66 298l2 17h83l12 120h-83l2 17h83l7 67q10 103 90.5 175.5t183.5 72.5q102 0 166.5 -72.5t54.5 -175.5l-2 -16h-17l2 16q10 96 -50.5 163.5t-155.5 67.5t-170 -67.5t-85 -163.5l-7 -67h342l-9 -17h-335l-12 -120h296l-8 -17h-290l-7 -68q-10 -95 51 -162.5t156 -67.5
t169.5 67.5t84.5 162.5l1 16h17l-1 -16q-11 -102 -91 -174.5t-182 -72.5q-103 0 -168 72.5t-54 174.5l7 68h-83z" />
    <glyph glyph-name="trademark" unicode="&#x2122;" horiz-adv-x="362" 
d="M178 600h-8v150h9l67 -141l67 141h9v-150h-8v134l-65 -134h-6l-65 134v-134zM40 743v7h117v-7h-54v-143h-8v143h-55z" />
    <glyph glyph-name="Omega" unicode="&#x2126;" horiz-adv-x="864" 
d="M863 375q-13 -118 -86.5 -215t-183.5 -143h215l-1 -17h-262l1 17q119 36 202.5 135t96.5 223q17 155 -81.5 265t-253.5 110t-275.5 -110t-137.5 -265q-13 -125 49.5 -223.5t174.5 -134.5l-1 -17h-263l1 17h215q-99 47 -153 143.5t-41 214.5q17 162 144 277t289 115
t265 -115t86 -277z" />
    <glyph glyph-name="partialdiff" unicode="&#x2202;" horiz-adv-x="650" 
d="M625 235q-25 -115 -112 -184q-78 -65 -194 -68q-121 0 -193 80t-59 200q13 119 102.5 199.5t202.5 80.5q110 0 174 -56t80 -134l3 2q9 86 -2 155t-36 113t-61 73.5t-75 41.5t-81 12q-36 0 -89.5 -12.5t-91.5 -28.5l2 19q33 15 87.5 27t93.5 12q37 0 71 -8.5t69.5 -28.5
t62 -53t46.5 -81t23.5 -114t-5.5 -151q-2 -14 -18 -96zM611 263q12 111 -56 187t-179 76q-110 0 -194.5 -76.5t-96.5 -186.5q-11 -110 57.5 -186.5t178.5 -76.5q111 0 195 76t95 187z" />
    <glyph glyph-name="Delta" unicode="&#x2206;" horiz-adv-x="592" 
d="M20 0l267 750h18l267 -750h-552zM44 17h503l-251 705z" />
    <glyph glyph-name="product" unicode="&#x220f;" horiz-adv-x="620" 
d="M600 733h-153v-733h-17v733h-239v-733h-17v733h-154v17h580v-17z" />
    <glyph glyph-name="summation" unicode="&#x2211;" horiz-adv-x="551" 
d="M531 17v-17h-511v17l358 358l-358 357v18h511v-17h-487l359 -358l-359 -358h487z" />
    <glyph glyph-name="minus" unicode="&#x2212;" horiz-adv-x="679" 
d="M50 298h579v-17h-579v17z" />
    <glyph glyph-name="radical" unicode="&#x221a;" horiz-adv-x="431" 
d="M81 267l98 -243l203 726h19l-210 -750h-22l-98 243l-25 -59l-16 7l32 76h19z" />
    <glyph glyph-name="infinity" unicode="&#x221e;" horiz-adv-x="666" 
d="M333 266q-64 -110 -144 -110q-59 0 -99 38.5t-40 95.5t40 95t99 38q81 0 144 -112q63 112 144 112q59 0 99 -38t40 -95t-40 -95.5t-99 -38.5q-80 0 -144 110zM68 290q0 -52 34.5 -84.5t86.5 -32.5q71 0 135 115q-64 118 -135 118q-52 0 -86.5 -32.5t-34.5 -83.5zM598 290
q0 51 -34.5 83.5t-86.5 32.5q-71 0 -135 -118q64 -115 135 -115q52 0 86.5 32.5t34.5 84.5z" />
    <glyph glyph-name="integral" unicode="&#x222b;" horiz-adv-x="286" 
d="M135 -54v687q0 56 39 86.5t97 30.5v-17q-51 0 -85 -27.5t-34 -72.5v-687q0 -56 -39.5 -86.5t-97.5 -30.5v17q51 0 85.5 27.5t34.5 72.5z" />
    <glyph glyph-name="approxequal" unicode="&#x2248;" horiz-adv-x="680" 
d="M50 365v20q67 38 146 38q80 0 144 -38q65 -42 145 -42t145 42v-21q-66 -38 -145 -38q-78 0 -145 39q-64 41 -144 41q-82 0 -146 -41zM196 254q77 0 144 -40q66 -41 145 -41t145 41v-19q-63 -39 -145 -39q-81 0 -145 39q-68 42 -144 42q-78 0 -146 -42v20q72 39 146 39z
" />
    <glyph glyph-name="notequal" unicode="&#x2260;" horiz-adv-x="679" 
d="M428 366l-152 -153h353v-17h-371l-95 -96h-24l95 96h-184v17h202l152 153h-354v17h371l97 97h24l-97 -97h184v-17h-201z" />
    <glyph glyph-name="lessequal" unicode="&#x2264;" horiz-adv-x="421" 
d="M381 171l-341 196v16l341 196v-19l-322 -185l322 -185v-19zM40 17h341v-17h-341v17z" />
    <glyph glyph-name="greaterequal" unicode="&#x2265;" horiz-adv-x="421" 
d="M381 367l-341 -196v19l322 185l-322 185v19l341 -196v-16zM40 17h341v-17h-341v17z" />
    <glyph glyph-name="lozenge" unicode="&#x25ca;" horiz-adv-x="557" 
d="M288 0h-18l-230 375l231 375h16l230 -375zM61 375l218 -356l218 356l-218 356z" />
    <glyph glyph-name="uniF8FF" unicode="&#xf8ff;" horiz-adv-x="500" 
 />
    <glyph glyph-name="ff" unicode="&#xfb00;" horiz-adv-x="603" 
d="M472 579h171l-1 -17h-171l-59 -562h-17l59 562h-290l-59 -562h-17l59 562h-68l1 17h68l4 39q7 64 44 98t101 34h57l-1 -17h-57q-115 0 -127 -115l-4 -39h290l4 39q7 64 44 98t101 34h57l-1 -17h-57q-115 0 -127 -115z" />
    <glyph glyph-name="fi" unicode="&#xfb01;" horiz-adv-x="470" 
d="M165 579h305l-60 -579h-17l59 562h-288l-59 -562h-17l59 562h-68l1 17h68l4 39q7 64 44 98t101 34h57l-1 -17h-57q-115 0 -127 -115zM468 754q0 5 4.5 9t9.5 4q12 0 12 -13q-2 -13 -15 -13t-11 13z" />
    <glyph glyph-name="fl" unicode="&#xfb02;" horiz-adv-x="470" 
d="M336 579l-1 -17h-171l-59 -562h-17l59 562h-68l1 17h68l4 39q7 63 47 97.5t98 34.5h191l-78 -750h-17l77 733h-174q-51 0 -86 -30t-41 -85l-4 -39h171z" />
    <glyph glyph-name="ffi" unicode="&#xfb03;" horiz-adv-x="777" 
d="M472 579h305l-60 -579h-17l59 562h-288l-59 -562h-17l59 562h-290l-59 -562h-17l59 562h-68l1 17h68l4 39q7 64 44 98t101 34h57l-1 -17h-57q-115 0 -127 -115l-4 -39h290l4 39q7 64 44 98t101 34h57l-1 -17h-57q-115 0 -127 -115zM775 754q0 5 4.5 9t9.5 4q12 0 12 -13
q-2 -13 -15 -13t-11 13z" />
    <glyph glyph-name="ffl" unicode="&#xfb04;" horiz-adv-x="775" 
d="M641 579l-1 -17h-171l-59 -562h-17l59 562h-288l-59 -562h-17l59 562h-68l1 17h68l4 39q7 64 44 98t101 34h57l-1 -17h-57q-115 0 -127 -115l-4 -39h288l4 39q7 63 47 97.5t98 34.5h191l-78 -750h-17l77 733h-174q-51 0 -86 -30t-41 -85l-4 -39h171z" />
    <glyph glyph-name="tt" unicode="&#xfb05;" horiz-adv-x="599" 
d="M80 579h68l14 131h17l-14 -131h286l14 131h17l-14 -131h171l-1 -17h-171l-46 -431q-12 -114 102 -114h57l-1 -17h-57q-64 0 -94.5 33.5t-23.5 97.5l46 431h-286l-46 -431q-12 -114 102 -114h57l-1 -17h-57q-64 0 -94.5 33.5t-23.5 97.5l46 431h-68z" />
    <glyph glyph-name="ft" unicode="&#xfb06;" horiz-adv-x="601" 
d="M165 579h288l14 131h17l-14 -131h171l-1 -17h-171l-46 -431q-12 -114 102 -114h57l-1 -17h-57q-64 0 -94.5 33.5t-23.5 97.5l46 431h-288l-59 -562h-17l59 562h-68l1 17h68l4 39q7 64 44 98t101 34h57l-1 -17h-57q-115 0 -127 -115z" />
    <glyph glyph-name="Publisher" 
d="M653 290q0 -128 -89.5 -217.5t-217.5 -89.5q-127 0 -216.5 90t-89.5 217t89.5 216.5t216.5 89.5t217 -89.5t90 -216.5zM640 290q0 122 -86 207.5t-208 85.5q-121 0 -207 -86t-86 -207q0 -122 86 -208t207 -86q122 0 208 86t86 208zM500 343q0 -59 -40.5 -100t-99.5 -41
h-124v-107h-18v389h142q58 0 99 -41t41 -100zM483 343q0 51 -36 87t-87 36h-124v-247h124q51 0 87 36t36 88z" />
    <glyph glyph-name="_0000" horiz-adv-x="501" 
 />
    </font>
</defs>
</svg>
