<?xml version="1.0" encoding="UTF-8"?>
<svg id="Capa_2" data-name="Capa 2" xmlns="http://www.w3.org/2000/svg" viewBox="0 0 3331.98 3330.73">
  <defs>
    <style>
      .cls-1 {
        fill: #fff;
        fill-rule: evenodd;
      }
    </style>
  </defs>
  <g id="Layer_1" data-name="Layer 1">
    <path class="cls-1" d="M1542.31,4.64C664.48,68.29-72.06,832.18,5.64,1800.42c70.07,873.38,832.95,1603.18,1799.88,1524.48,861.94-70.14,1599.06-830.81,1520.74-1792.23C3255.08,658.84,2502.38-64.97,1542.31,4.64m280.46,1083.53c-1.24,111.62-3.17,236.88-5.06,354.03,76.77-.33,345.43-11.18,399.09,7.78,8.56,37.4-58.8,336.46-72.75,422.74l-335.09,2.01-.14,1046.5-446.18-.14c-.57,.22-11.66-1049.7-11.71-1049.77l-383.98-1.71,5.96-415.8,381.4-1.12,3.39-388.85c29.05-504.08,403.34-497.26,867.24-471.29l2.05,351.16c-140.19,4.98-405.01-18.15-404.22,144.46Z"/>
  </g>
</svg>