<?xml version="1.0" encoding="UTF-8"?>
<svg id="Capa_2" data-name="Capa 2" xmlns="http://www.w3.org/2000/svg" viewBox="0 0 17.39 19.2">
  <defs>
    <style>
      .cls-1 {
        fill: #ed7f38;
      }
    </style>
  </defs>
  <g id="Section_1" data-name="Section 1">
    <path class="cls-1" d="M17.04,15.32l-3.2-2.43c-.76-.52-1.52-.62-2.26,0l-.74,.64c-.41,.35-.38,.48-.5,.79-.29,.8-.93,.78-1.29,.54-1.5-1.01-3.67-3.57-3.69-3.59-.73-.87-1.27-1.83-1.69-2.81-.16-.4-.08-1.03,.76-1.18,.32-.06,.45,0,.87-.35l.76-.62c.74-.62,.77-1.39,.39-2.22L4.62,.53C4.1-.09,3.18-.18,2.56,.34L.95,1.67c-.28,.23-.5,.63-.6,1.04-.95,2.95,.08,7.03,2.91,10.39,.1,.13,4.77,6.75,10.9,6.04,.43-.03,.86-.18,1.13-.41l1.59-1.36c.61-.52,.69-1.45,.16-2.06Z"/>
  </g>
</svg>